<svg xmlns="http://www.w3.org/2000/svg" width="91.865" height="156.841"><path style="mix-blend-mode:multiply" d="m 206.791,1104.323 h 67.294 v 116.025 h -67.294 z" fill="#fff" transform="matrix(1.33333 0 0 -1.33333 -274.65 1628.201)"/><g style="mix-blend-mode:multiply"><g style="mix-blend-mode:multiply"><path style="mix-blend-mode:multiply" d="m 0,0 -0.059,-0.059 1.125,-0.306 0.927,-0.259 0.502,-0.099 0.176,0.064 v 0.114 l -0.383,0.21 -1.773,0.33 z" fill="#fc0" transform="matrix(1.33333 0 0 -1.33333 17.53 76.34)"/></g><g style="mix-blend-mode:multiply"><path style="mix-blend-mode:multiply" d="m 0,0 -0.585,-0.024 0.417,-0.143 0.38,-0.019 H 0.23 l -0.034,0.088 z" fill="#fc0" transform="matrix(1.33333 0 0 -1.33333 26.09 70.69)"/></g><g style="mix-blend-mode:multiply"><path style="mix-blend-mode:multiply" d="m 0,0 -0.169,-0.025 0.002,-0.142 0.397,-0.02 -0.033,0.088 z" fill="#fc0" transform="matrix(1.33333 0 0 -1.33333 16.18 76.132)"/></g><g style="mix-blend-mode:multiply"><path style="mix-blend-mode:multiply" d="m 0,0 -0.551,-0.03 -0.953,-0.525 -0.451,-0.767 -0.039,-0.172 0.078,-0.078 1.572,0.752 0.442,0.024 L 0.83,-0.953 1.164,-1.209 1.508,-2.044 1.635,-2.8 1.577,-5.045 1.425,-5.83 1.046,-6.935 0.697,-7.186 l -0.481,0.005 -0.953,0.24 -0.87,0.006 -0.888,-0.291 -0.795,-0.398 -0.193,0.011 -0.131,0.138 -0.07,0.534 0.04,1.159 0.132,0.767 -0.108,0.79 -0.702,1.36 -0.649,0.826 -1.173,0.89 -1.154,0.618 -0.674,0.153 -0.638,-0.133 -1.096,-0.682 -0.795,-1.268 -0.323,-1.471 h -0.426 v -0.553 l -0.764,0.413 -0.844,0.334 -0.895,0.324 h -0.211 l -0.059,-0.059 0.948,-0.482 0.796,-0.677 0.89,-0.88 0.682,-1.085 0.456,-0.722 0.197,-0.412 0.019,-0.212 -0.216,-0.363 -0.338,-0.255 -0.949,-0.232 -0.702,-0.476 -0.359,-0.524 -0.211,-0.689 0.079,-0.791 0.241,-0.643 0.525,-0.653 0.56,-0.639 0.168,-0.353 -0.085,-0.149 -0.712,-0.185 -1.203,-0.271 -1.223,-0.545 -0.968,-0.8 -0.908,-0.861 -0.457,-0.138 -0.825,0.055 -2.853,0.977 -1.745,0.91 -1.743,1.202 -0.634,0.192 -2.117,-0.485 -1.223,-0.546 -0.737,-0.737 -0.413,-0.767 -0.299,-0.883 0.083,-0.934 0.236,-0.943 0.55,-1.217 0.32,-0.271 1.483,-0.874 1.021,-0.452 1.346,-0.446 0.103,-0.114 -0.054,-0.113 -1.006,-0.481 -1.41,-0.949 -1.159,-0.903 -0.708,-1.056 -0.353,-0.786 0.059,-0.06 0.24,0.282 0.379,0.53 0.511,0.373 1.036,0.732 0.732,0.447 1.056,0.417 3.069,1.352 1.911,0.741 2.023,0.629 0.507,0.378 0.181,0.407 0.231,0.653 0.535,0.643 0.787,0.689 1.625,0.732 3.189,0.937 1.497,0.27 0.682,0.203 1.116,0.064 0.796,0.097 0.834,-0.058 0.648,-0.236 0.296,-0.295 0.417,-1.37 0.02,-0.256 -0.176,-0.418 -0.748,-0.731 -0.785,-0.394 -0.698,-0.481 -1.768,-0.884 -2.554,-0.982 -1.856,-0.501 -1.264,-0.211 -0.387,-0.201 -0.609,-0.57 -0.393,-0.491 -0.816,-0.659 -1.06,-1.002 -2.241,-1.591 -1.395,-0.962 -1.001,-0.473 -1.734,-0.932 -0.01,-0.094 0.51,-0.039 0.051,-0.127 -0.512,-2.123 v -1.749 l 0.236,-0.943 0.604,-1.163 0.472,-0.413 0.825,-0.354 1.532,-0.241 1.317,0.173 0.196,0.097 0.103,0.193 0.064,1.115 0.388,1.084 0.84,1.224 1.488,1.163 1.046,0.724 0.762,0.388 0.156,-0.07 0.197,-0.407 0.183,-1.233 -0.103,-0.756 -0.084,-0.801 -0.507,-1.557 -0.564,-1.199 0.108,-0.427 0.569,-0.619 0.384,-0.206 1.273,-0.211 0.805,0.088 1.498,0.565 1.017,0.751 0.191,0.398 0.177,1.297 0.024,0.859 0.256,1.219 0.039,0.844 0.466,1.891 0.747,2.201 0.349,0.535 0.467,0.123 0.751,0.093 0.383,-0.133 0.207,-0.397 0.495,-1.567 0.561,-0.914 0.785,-0.687 1.041,-0.728 0.448,-1.026 0.058,-0.84 -0.427,-2.819 -0.678,-2.106 0.388,0.323 0.973,1.709 0.142,0.143 0.142,0.025 0.242,-0.295 0.653,-1.425 0.614,-0.86 0.334,-0.55 0.903,-0.864 0.722,-0.456 0.349,-0.242 1.374,-0.393 1.016,-0.137 H 5.01 l 0.747,0.143 1.233,0.24 1.09,0.678 0.707,0.766 0.623,1.438 0.118,0.709 -0.087,0.142 -0.718,0.466 -1.041,1.022 -1.43,1.519 -0.79,1.272 -0.983,1.669 -0.446,0.766 -0.051,0.227 0.08,0.191 0.216,0.094 0.806,0.083 0.904,0.275 0.874,0.6 0.368,0.514 0.236,0.649 0.079,0.515 0.102,0.202 0.191,0.103 0.238,-0.009 2.214,-1.346 0.771,-0.702 0.55,-0.334 0.658,-0.521 1.262,-0.8 1.013,-1.346 0.408,-1.072 0.153,-0.682 0.209,1.09 0.138,0.452 0.024,0.565 0.09,0.207 0.206,0.087 0.835,0.05 0.943,0.235 0.991,0.482 0.63,0.55 0.835,1.228 0.519,1.543 0.124,0.77 -0.088,0.805 -0.217,0.679 -0.162,0.103 -0.687,-0.083 -1.238,0.24 -1.42,0.643 -1.297,0.767 -2.309,1.546 -0.073,0.183 0.629,1.675 0.241,0.643 0.133,0.766 -0.069,0.708 0.088,0.152 0.172,0.108 0.447,-0.02 1.268,-0.225 2.485,-0.462 2.412,-0.83 0.751,-0.428 0.486,-0.403 0.256,-0.368 0.137,-0.074 0.089,0.089 -0.054,0.466 -0.422,0.782 -1.023,1.055 -0.063,0.182 0.059,0.173 0.682,0.515 0.742,1.026 0.363,0.816 0.186,1.301 -0.216,1.263 -0.501,0.972 -0.82,0.949 -0.495,0.387 -0.305,0.285 -1.307,0.496 -0.197,0.01 -0.117,-0.118 -0.275,-0.909 -0.492,-0.688 -0.358,-0.23 -3.684,-0.736 -2.249,-0.699 -1.272,-0.496 -1.169,-0.599 -0.242,-0.363 -0.058,-0.633 0.02,-0.477 -0.266,-0.929 -0.334,-0.549 -0.633,-0.546 -0.393,-0.197 -1.444,-0.264 -1.508,0.2 -3.227,1.195 -0.811,0.368 -0.613,0.269 -0.231,0.36 -0.25,0.643 -0.222,0.359 -0.01,0.181 0.108,0.162 0.398,0.211 3.149,0.683 1.69,0.962 0.663,0.517 0.741,0.436 0.708,0.472 2.51,1.321 1.424,0.639 1.625,0.733 3.641,1.37 0.997,0.201 0.451,0.059 -0.024,0.089 -0.487,0.347 -0.207,1.036 -0.677,1.092 -0.608,0.57 -1.205,0.545 -1.512,0.156 -1.936,-0.069 -0.726,-0.118 -0.202,0.085 -0.658,0.825 -0.839,0.634 -0.585,0.299 -1.13,0.059 L 5.496,-1.365 4.367,-2.004 3.212,-2.913 2.736,-3.341 2.594,-3.31 2.549,-3.148 2.667,-2.372 2.495,-1.94 1.719,-0.949 0.875,-0.32 Z m -0.383,-27.069 -0.458,0.428 -0.534,0.953 -0.168,0.526 -0.196,0.564 -0.452,1.616 -0.663,2.578 -0.221,1.523 0.064,0.221 0.148,0.157 1.434,0.354 0.525,0.004 0.373,-0.23 1.165,-1.782 0.496,-0.979 0.264,-0.619 0.517,-1.252 0.446,-2.205 -0.191,-1.262 -0.348,-0.55 -0.663,-0.32 -0.639,-0.021 z" fill="#fc0" transform="matrix(1.33333 0 0 -1.33333 45.382 66.485)"/></g><g style="mix-blend-mode:multiply"><path style="mix-blend-mode:multiply" d="m 0,0 c 0.102,-0.359 0.205,-1.125 0.511,-1.177 0.308,-0.051 2.866,-0.512 2.866,-0.512 0,0 1.535,0.052 1.739,0.205 0,0 0.973,0.256 1.178,0.359 0.204,0.102 1.33,0.562 1.483,0.971 C 7.93,0.256 8.34,0.768 8.288,1.023 8.238,1.279 8.033,1.995 7.93,2.353 7.828,2.712 7.317,4.246 7.06,4.605 6.805,4.962 6.549,6.089 6.294,6.549 6.037,7.009 5.321,8.595 5.167,9.056 5.014,9.517 4.502,10.079 4.349,10.437 4.196,10.795 3.735,11.307 3.428,11.204 3.133,11.106 2.917,10.335 2.763,10.284 2.609,10.233 1.944,7.674 1.842,7.469 1.739,7.265 1.484,6.089 1.433,5.935 1.382,5.781 1.382,5.219 1.33,5.065 1.279,4.912 0.819,3.018 0.716,2.865 0.614,2.712 0.461,1.893 0.358,1.637 0.256,1.382 -0.102,0.358 0,0" fill="#fc0" fill-rule="evenodd" transform="matrix(1.33333 0 0 -1.33333 37.392 13.47)"/></g><g style="mix-blend-mode:multiply"><path style="mix-blend-mode:multiply" d="M 0,0 C 0.154,-0.051 1.995,-0.307 2.251,-0.358 2.507,-0.409 3.018,-0.204 3.377,-0.051 3.735,0.102 4.553,1.075 4.81,1.28 5.065,1.484 5.321,2.558 5.424,2.712 5.522,2.859 6.09,3.806 6.407,4.242 6.476,4.019 6.549,3.809 6.549,3.735 c 0,-0.153 0.716,-1.739 0.818,-1.893 0.102,-0.153 0.359,-1.33 0.359,-1.74 0,-0.409 0.255,-0.767 0.357,-0.92 0.103,-0.154 0.512,0.05 0.512,0.05 0,0 0.461,0.205 0.615,0.257 0.153,0.05 0.869,0.716 1.125,0.87 0.256,0.153 0.665,0.562 0.87,0.664 0.204,0.103 0.512,0.461 0.716,0.563 0.205,0.103 1.074,1.075 1.535,1.433 0.46,0.358 0.665,0.511 0.921,0.767 0.256,0.256 0.563,0.665 0.716,0.972 0.154,0.307 0.359,0.87 0.359,0.87 0,0 -0.564,0.358 -0.819,0.358 h -1.229 c 0,0 -1.636,0.103 -2.045,0.051 -0.41,-0.051 -1.894,0 -2.098,-0.153 C 9.056,5.731 8.033,5.833 7.572,5.731 c 0,0 -0.664,0.05 -0.716,-0.103 C 6.847,5.602 6.814,5.562 6.785,5.524 6.843,5.885 6.891,6.203 6.958,6.293 7.112,6.498 7.674,7.675 7.828,8.238 7.981,8.8 8.34,10.336 8.391,10.643 8.442,10.949 8.083,11.256 8.083,11.256 L 7.06,11.205 c 0,0 0.052,0.767 0.205,0.972 0.154,0.205 0.204,1.893 0.359,2.354 0.153,0.46 0.409,1.535 0.459,1.995 0.052,0.461 0,1.33 0,1.33 L 7.572,18.01 6.294,17.191 c 0,0 -1.996,-1.33 -2.15,-1.534 C 3.991,15.452 2.251,14.838 2.098,14.48 1.944,14.121 0.87,13.661 0.768,13.507 0.665,13.354 -0.737,12.68 -0.921,12.126 -0.973,11.972 -0.614,11.563 -0.563,11.409 -0.511,11.256 0.665,10.898 0.819,10.693 0.973,10.488 2.2,9.312 2.353,9.261 2.507,9.21 2.405,8.647 2.405,8.647 c 0,0 -2.047,-1.228 -2.2,-1.382 C 0.051,7.112 -1.739,5.986 -1.893,5.731 -2.046,5.474 -2.405,5.065 -2.456,4.758 -2.507,4.451 -2.558,3.582 -2.558,3.172 -2.558,2.763 -1.944,1.586 -1.689,1.33 -1.433,1.075 -0.154,0.051 0,0" fill="#fc0" fill-rule="evenodd" transform="matrix(1.33333 0 0 -1.33333 54.515 27.523)"/></g><g style="mix-blend-mode:multiply"><path style="mix-blend-mode:multiply" d="m 0,0 c -0.409,-0.205 -0.614,-0.511 -0.768,-0.87 -0.153,-0.358 -0.357,-0.869 -0.46,-1.228 -0.102,-0.358 -0.461,-1.177 -0.204,-1.637 0.255,-0.461 0.694,-0.829 0.767,-1.075 0.154,-0.511 -0.46,-1.893 -0.46,-2.353 0,-0.461 0.05,-1.023 0.255,-1.279 0.205,-0.256 0.819,-0.767 0.819,-0.767 l 0.921,-0.615 1.33,-0.204 0.103,-1.023 c 0,0 0.511,-0.512 0.716,-0.41 0.204,0.102 0.87,0 0.87,0 0,0 0.46,-0.511 0.614,-0.563 0.153,-0.051 0.973,0.126 1.125,0.103 0.666,-0.103 1.432,-0.614 1.432,-0.614 l 0.819,-0.154 c 0,0 1.075,0.358 1.228,0.358 0.154,0 2.149,0.052 2.405,0.205 0.256,0.154 1.126,-0.051 1.586,-0.051 0.461,0 1.586,-0.204 1.893,-0.052 0.307,0.154 1.075,0.052 1.33,0.205 0.256,0.154 1.126,0.205 1.126,0.205 0,0 0.307,-0.307 0.665,-0.358 0.358,-0.052 1.075,-0.358 1.33,-0.409 0.256,-0.052 1.229,-0.052 1.586,-0.154 0.359,-0.103 1.023,0 1.33,-0.103 0.307,-0.102 0.666,-0.306 0.666,-0.306 0,0 0,-0.154 0.102,-0.41 0.103,-0.255 0.666,-0.716 0.87,-0.818 0.205,-0.102 1.33,-0.205 1.33,-0.205 0.205,-0.102 1.228,-0.306 1.331,-0.409 0.102,-0.102 0.972,-0.205 1.125,-0.205 0.154,0 1.33,0.154 1.586,0.103 0.256,-0.052 1.586,-0.052 2.149,0.102 0.563,0.153 2.251,0.051 2.559,0.204 0.306,0.154 1.739,0.614 2.045,0.769 0.308,0.153 1.587,0.306 1.996,0.766 0.41,0.461 0.716,0.717 0.716,1.075 0,0.358 0.103,0.512 -0.05,0.87 -0.154,0.358 -0.359,0.767 -0.359,0.767 l -0.153,0.409 c 0,0 1.074,0.614 1.228,0.819 0.153,0.205 1.227,1.279 1.279,1.535 0.051,0.256 0.102,0.87 0.153,1.381 0.052,0.512 -0.153,1.689 -0.358,2.2 -0.205,0.512 -1.074,0.921 -1.176,1.229 -0.103,0.307 -1.433,0.869 -1.843,0.921 -0.409,0.051 -1.688,0.102 -1.842,0.102 -0.152,0 -0.511,-0.051 -0.716,-0.051 -0.205,0 -0.87,-0.205 -0.87,-0.205 l -0.102,-1.023 -0.103,-1.126 -0.102,-0.665 c 0,0 -1.585,-0.307 -1.739,-0.307 -0.154,0 -2.66,0.051 -2.865,0.051 -0.205,0 -1.688,0.512 -1.688,0.512 l -1.229,0.46 c 0,0 -2.404,0.972 -2.711,1.126 -0.307,0.154 -1.126,0.869 -1.279,0.869 -0.154,0 -0.819,0.717 -0.819,0.717 0,0 -1.586,1.791 -1.74,1.995 -0.153,0.205 -0.409,1.177 -0.562,1.28 -0.154,0.102 -1.33,1.739 -1.484,1.893 -0.154,0.153 -1.432,1.074 -1.587,1.381 -0.153,0.307 -0.818,0.921 -0.971,0.921 -0.154,0 -2.047,1.484 -2.354,1.637 -0.307,0.153 -1.689,0.562 -1.842,0.562 -0.154,0 -1.125,-0.102 -1.177,0.052 C 9.722,8.289 8.084,8.647 7.624,8.749 7.463,8.785 7.208,8.795 6.938,8.801 l 0.481,0.152 c 0,0 0.614,0.205 0.869,0.512 0.256,0.307 0.973,0.563 1.382,0.871 0.409,0.306 1.432,0.664 1.689,0.818 0.255,0.153 0.92,0.256 1.125,0.358 0.205,0.103 0.768,0.205 0.614,0.358 -0.153,0.154 -1.074,1.637 -1.381,1.893 -0.307,0.256 -0.87,0.819 -1.075,0.973 -0.204,0.152 -1.125,1.432 -1.33,1.636 -0.205,0.205 -1.433,1.075 -1.638,1.28 C 7.47,17.856 6.089,18.726 5.986,18.93 5.884,19.135 5.628,19.289 5.321,19.135 5.092,19.021 5.116,16.986 5.116,16.782 c 0,-0.205 0.256,-2.814 0.256,-2.814 l 0.154,-2.149 c 0,0 0.358,-1.074 0.409,-1.279 C 5.986,10.336 5.986,9.312 5.986,9.312 L 6.198,8.819 C 5.976,8.831 5.797,8.853 5.73,8.903 5.485,9.087 4.093,8.698 3.479,8.544 2.865,8.391 1.944,7.93 1.484,7.726 1.023,7.521 -0.102,6.396 -0.409,6.191 -0.716,5.986 -1.023,4.86 -1.177,4.553 -1.33,4.246 -1.484,3.684 -1.279,3.172 -1.075,2.661 -0.973,2.149 -0.819,1.842 -0.665,1.534 0.461,0.665 0.461,0.665 0.461,0.665 0.409,0.205 0,0" fill="#fc0" fill-rule="evenodd" transform="matrix(1.33333 0 0 -1.33333 19.928 26.431)"/></g><g style="mix-blend-mode:multiply"><path style="mix-blend-mode:multiply" d="m 0,0 -0.805,-0.108 -0.658,0.055 -0.409,-0.158 -0.249,-0.343 -0.835,-2.408 -0.153,-0.732 -0.251,-0.633 -0.068,-0.526 -0.153,-0.413 0.035,-0.642 -0.176,-1.008 -0.114,-1.355 -0.264,-1.209 -0.04,-0.859 0.122,-0.771 -0.014,-0.619 0.56,-1.483 0.771,-0.997 0.53,-0.354 0.855,-0.335 0.904,-0.043 1.081,0.397 1.207,1.15 0.776,1.286 0.821,2.127 0.299,1.175 0.054,0.83 0.138,0.746 v 1.16 l -0.235,0.943 -0.32,0.565 -0.957,0.515 -0.737,0.443 -0.566,0.908 -0.328,0.85 -0.212,1.262 -0.137,0.452 -0.197,0.102 z" fill="#e30015" transform="matrix(1.33333 0 0 -1.33333 37.884 101.696)"/></g><g style="mix-blend-mode:multiply"><path style="mix-blend-mode:multiply" d="M 0,0 -0.182,-0.118 -0.3,-0.295 -0.22,-1.243 -0.403,-1.96 -0.747,-2.501 -1.278,-2.854 -2.559,-3.29 -3.207,-3.091 h -0.471 l -0.188,-0.121 -0.122,-0.187 v -0.467 l 1.847,-3.183 0.668,-1.1 1.149,-1.208 0.899,-0.87 0.924,-0.845 1.261,-0.506 1.509,-0.24 0.922,0.138 1.155,0.614 0.639,0.54 0.653,1.115 0.181,0.696 0.149,1.524 -0.222,0.893 -0.402,1.071 -0.438,0.448 -0.51,0.667 -1.145,0.624 -0.624,0.555 -0.913,0.56 -0.392,0.491 -0.355,0.237 -1.228,0.834 -1.115,0.663 -0.408,0.176 z" fill="#e30015" transform="matrix(1.33333 0 0 -1.33333 54.846 101.393)"/></g><g style="mix-blend-mode:multiply"><path style="mix-blend-mode:multiply" d="m 0,0 -0.747,-0.437 -0.922,-0.549 -0.487,-0.398 -0.55,-0.335 -0.482,-0.402 -0.545,-0.34 -0.256,-0.334 -0.751,-1.017 -0.54,-1.521 -0.088,-0.806 0.102,-0.497 0.432,-0.746 0.408,-0.476 1.4,-0.564 0.614,0.215 1.076,0.697 0.731,0.742 0.659,1.11 0.392,1.376 0.206,1.267 0.04,0.859 -0.21,1.863 -0.119,0.185 -0.171,0.103 z" fill="#e30015" transform="matrix(1.33333 0 0 -1.33333 26.555 105.914)"/></g><g style="mix-blend-mode:multiply"><path style="mix-blend-mode:multiply" d="m 0,0 -0.442,-0.036 -2.014,-0.122 -0.854,-0.26 -1.74,-0.325 -1.581,-0.48 -2.878,-0.953 -0.354,-0.236 -1.277,-1.08 -0.329,-0.556 -0.138,-0.746 -0.103,-0.191 -0.176,-0.118 -1.175,-0.3 -1.326,-0.443 -1.271,-0.495 -2.688,-1.145 -0.78,-0.398 -0.648,-0.235 -1.012,-0.463 -0.63,-0.549 -0.741,-0.437 -0.751,-0.723 -0.556,-0.919 -0.26,-1.487 0.05,-0.958 0.117,-0.476 0.437,-0.448 0.692,-0.486 1.398,-0.353 h 0.007 l 0.948,0.23 2.005,0.649 0.854,0.324 1.119,0.648 1.2,0.57 1.749,1.199 0.997,0.77 0.908,0.565 0.722,0.753 0.963,0.804 0.943,1.121 0.417,0.171 h 0.589 l 1.003,0.178 0.869,0.308 0.934,0.247 0.633,0.251 1.076,0.397 3.104,1.611 0.869,0.604 0.918,0.854 0.182,0.421 v 0.01 l -0.03,0.237 -0.304,0.6 -0.138,1.04 -0.186,0.403 -0.182,0.115 z" fill="#e30015" transform="matrix(1.33333 0 0 -1.33333 37.02 86.659)"/></g><g style="mix-blend-mode:multiply"><path style="mix-blend-mode:multiply" d="m 0,0 -1.071,-0.354 -0.433,0.054 -0.52,-0.038 -0.152,-0.152 -0.069,-0.536 0.172,-1.327 0.142,-0.742 0.339,-1.133 0.25,-1.224 0.162,-0.723 0.453,-1.61 0.54,-1.228 0.554,-0.623 0.753,-0.439 1.463,-0.186 0.59,0.295 0.461,0.422 0.28,0.604 0.049,1.719 -0.353,1.709 -0.536,1.233 -0.171,0.712 -0.246,0.346 -0.432,0.745 -0.496,0.978 -0.969,1.39 -0.21,0.094 z" fill="#e30015" transform="matrix(1.33333 0 0 -1.33333 43.4 89.933)"/></g><g style="mix-blend-mode:multiply"><path style="mix-blend-mode:multiply" d="m 0,0 -0.545,-0.049 -0.202,-0.109 -0.103,-0.166 0.009,-0.207 0.389,-0.834 -0.03,-0.507 -0.428,-1.055 -0.357,-0.821 -0.399,-0.496 -0.23,-0.364 0.033,-0.196 0.704,-0.496 0.57,-0.315 2.505,-1.62 0.986,-0.487 1.444,-0.617 1.394,-0.075 h 0.022 l 0.756,0.122 1.094,0.673 0.462,0.423 0.624,0.85 0.271,0.615 0.008,0.853 -0.013,0.86 -0.157,0.431 -0.369,0.518 -0.486,0.692 -1.316,0.746 -2.682,0.854 -1.282,0.192 z" fill="#e30015" transform="matrix(1.33333 0 0 -1.33333 64.002 89.134)"/></g><g style="mix-blend-mode:multiply"><path style="mix-blend-mode:multiply" d="M 0,0 -0.849,-0.024 -1.812,-0.24 -2.848,-0.678 -5.2,-1.567 l -1.014,-0.461 -2.414,-1.12 -0.557,-0.329 -0.629,-0.255 -0.514,-0.368 -0.811,-0.369 -0.644,-0.536 -0.943,-0.53 -0.446,-0.437 -0.762,-0.418 -0.559,-0.324 -0.979,-0.202 -1.822,-0.24 -1.35,-0.431 -0.123,-0.154 -0.025,-0.176 0.216,-0.33 0.511,-0.682 0.113,-0.771 0.099,-0.196 1.724,-0.634 3.373,-1.341 1.563,-0.221 2.034,0.324 0.648,0.545 0.613,0.859 0.236,0.954 -0.024,0.545 -0.113,0.486 0.044,0.216 0.334,0.27 1.193,0.576 0.968,0.328 1.93,0.604 1.003,0.177 0.889,0.29 2.057,0.299 0.806,0.374 0.261,0.329 0.352,0.825 0.115,0.712 -0.075,1.022 -0.397,1.09 -0.326,0.56 -0.898,0.575 z" fill="#e30015" transform="matrix(1.33333 0 0 -1.33333 68.324 75.009)"/></g><g style="mix-blend-mode:multiply"><path style="mix-blend-mode:multiply" d="m 0,0 -0.364,-0.094 -1.168,-0.613 -0.609,-0.57 -0.383,-0.501 -0.33,-0.83 0.094,-0.987 0.265,-1.224 L -2.56,-5 l -0.186,-0.073 -0.643,0.259 -2.914,0.604 -0.48,-0.093 -0.673,0.025 -0.997,-0.413 -1.44,-0.623 -0.118,-0.178 -0.505,-0.672 -0.069,-0.52 0.212,-1.283 0.206,-0.382 0.52,-0.954 0.605,-0.868 0.716,-0.758 0.895,-0.579 0.869,-0.604 0.599,-0.285 1.13,-0.638 1.782,-0.575 0.683,-0.202 1.229,-0.264 0.525,0.077 0.505,0.374 0.409,0.477 0.318,0.27 0.797,0.678 1.247,0.52 1.262,0.212 1.095,0.083 0.629,0.28 0.089,0.147 -0.064,0.153 -0.786,0.417 -0.442,0.442 -0.653,0.526 -0.466,0.712 -0.045,1.125 0.133,0.456 0.407,0.476 0.566,0.32 0.775,0.107 0.432,0.158 0.526,0.364 0.118,0.476 -0.103,0.501 -0.796,1.272 -0.692,1.076 -0.806,0.668 -1.297,1.06 -1.532,0.531 z" fill="#e30015" transform="matrix(1.33333 0 0 -1.33333 24.08 70.202)"/></g><g style="mix-blend-mode:multiply"><path style="mix-blend-mode:multiply" d="m 0,0 -0.899,-0.295 -0.766,-0.412 -1.026,-1.037 -0.801,-1.556 -0.491,-2.456 -0.069,-1.11 -0.01,-0.418 0.162,-0.747 0.124,-0.147 0.157,-0.009 1.282,0.785 0.348,0.241 1.238,0.217 0.928,-0.232 0.428,-0.172 0.554,-0.029 0.241,0.064 0.167,0.132 0.698,2.254 -0.01,0.884 0.079,0.492 -0.143,1.041 -0.024,0.859 -0.443,1.033 -0.505,0.378 -0.674,0.22 z" fill="#e30015" transform="matrix(1.33333 0 0 -1.33333 44.774 66.947)"/></g><g style="mix-blend-mode:multiply"><path style="mix-blend-mode:multiply" d="m 0,0 c 0,0 1.125,0.256 1.279,0.256 0.153,0 0.665,-0.256 0.869,-0.154 0.205,0.103 1.843,-0.153 1.996,-0.153 0.154,0 1.075,-0.41 1.228,-0.46 0.153,-0.052 0.972,-0.512 1.177,-0.512 0.204,0 1.688,-0.716 1.688,-0.716 0,0 1.024,-0.717 1.177,-0.973 0.153,-0.256 1.279,-1.432 1.279,-1.432 l 0.87,-0.921 0.154,-0.154 0.971,-1.432 0.973,-1.587 c 0,0 0.818,-1.023 0.972,-1.125 0.153,-0.102 0.921,-0.563 1.074,-0.768 0.154,-0.205 1.126,-1.176 1.433,-1.228 0.307,-0.051 1.483,-0.716 1.688,-0.818 0.205,-0.102 1.74,-0.87 1.74,-0.87 0,0 1.381,-0.256 1.637,-0.357 0.256,-0.103 1.689,-0.359 1.894,-0.359 0.204,0 2.353,-0.154 2.507,-0.154 0.152,0 1.38,0.154 1.636,0.205 0.256,0.051 1.075,0.46 1.075,0.46 l 0.717,0.461 c 0,0 0.459,1.279 0.459,1.432 0,0.154 0.256,0.564 0.256,1.075 0,0.512 -0.153,1.176 -0.101,1.842 0.05,0.665 0.101,0.973 0,1.484 -0.103,0.512 -0.769,1.944 -0.819,2.456 -0.052,0.511 -0.717,1.637 -0.768,1.79 -0.051,0.154 -0.665,1.023 -0.819,1.228 -0.153,0.205 -1.023,0.511 -1.023,0.511 0,0 -0.409,-0.92 -0.665,-1.33 -0.256,-0.409 -0.768,-1.79 -0.972,-2.148 -0.205,-0.359 -1.074,-2.047 -1.074,-2.047 0,0 -0.052,-0.205 -0.461,-0.46 -0.409,-0.256 -1.586,-0.614 -1.842,-0.461 -0.256,0.154 -1.279,0.409 -1.484,0.614 -0.204,0.205 -1.125,0.972 -1.228,1.126 -0.102,0.153 -0.46,0.869 -0.358,1.177 0.102,0.306 0.256,1.432 0.256,1.432 0,0 1.432,0.922 1.535,1.075 0.102,0.153 1.535,1.074 1.739,1.227 l 1.279,0.87 1.28,0.871 0.358,0.357 c 0,0 -1.024,1.023 -1.074,1.177 -0.052,0.154 -1.535,1.228 -1.535,1.228 0,0 -1.638,1.227 -1.842,1.279 -0.205,0.051 -2.303,0.921 -2.508,1.023 -0.204,0.103 -2.2,0.307 -2.353,0.409 -0.154,0.103 -1.637,0.103 -1.791,0.205 -0.153,0.103 -0.511,-0.153 -0.511,-0.153 0,0 0.409,-1.074 0.563,-1.331 0.153,-0.255 0.357,-1.176 0.307,-1.483 -0.052,-0.307 0.05,-1.177 -0.205,-1.279 -0.256,-0.102 -2.661,-0.768 -2.814,-0.716 -0.154,0.05 -1.791,0.153 -1.995,0.153 -0.205,0 -1.177,0.306 -1.177,0.461 0,0.153 0.256,0.614 0.256,0.972 0,0.357 0.153,1.637 0.255,1.79 0.103,0.154 0.614,1.433 0.614,1.433 L 7.623,6.242 c 0,0 -2.456,-0.818 -2.609,-0.818 C 4.86,5.424 3.223,4.912 3.07,4.758 2.916,4.605 0.665,3.275 0.665,3.275 L -0.307,1.689 -0.563,0.409 C -0.511,0.205 0,0 0,0" fill="#e30015" fill-rule="evenodd" transform="matrix(1.33333 0 0 -1.33333 26.614 16.88)"/></g></g><path style="mix-blend-mode:multiply" d="m 0,0 -1.322,-0.575 v -21.977 l 0.482,-0.284 1.661,-0.402 0.766,-0.413 c 4.99,-2.259 6.891,2.562 7.195,6.617 l 0.152,1.026 -0.024,1.159 -0.147,0.143 -1.453,0.03 -0.762,-0.124 -0.86,-0.039 -1.557,0.218 -0.772,0.407 -0.181,0.423 0.03,0.554 0.54,0.943 1.07,0.991 1.022,0.453 1.813,0.84 2.696,0.841 0.894,0.284 0.752,0.133 1.399,0.367 0.329,0.271 0.177,0.403 -0.02,0.196 -0.245,0.325 -0.428,0.171 h -0.883 l -1.267,0.211 -0.644,-0.033 -2.54,0.382 -1.124,0.053 -1.036,0.438 -0.904,0.57 -0.491,0.394 -0.221,0.363 -0.034,0.874 0.122,0.466 0.29,0.299 0.348,0.546 0.133,0.458 -0.049,0.22 -0.335,0.265 -1.586,1.071 -1.08,0.392 -1.047,0.197 z" fill="#3a3a39" transform="matrix(1.33333 0 0 -1.33333 2.833 84.5)"/><path style="mix-blend-mode:multiply" d="M 0,0 -1.243,-0.525 -2.598,-1.528 -3.04,-1.97 -3.624,-2.859 -4.092,-3.571 -4.416,-4.426 -4.72,-5.595 l -0.084,-0.8 -0.324,-2.034 -0.462,-1.012 -0.216,-0.923 0.161,-0.397 0.674,-0.516 0.723,-0.751 0.211,-0.379 0.181,-1.002 v -0.418 l -0.501,-1.267 -0.27,-0.32 -1.056,-0.711 -1.581,-0.496 -0.143,-0.148 -0.034,-0.211 0.172,-0.417 0.3,-0.3 0.662,-0.22 0.826,-0.355 0.972,-0.501 0.894,-0.579 0.275,-0.314 0.437,-1.611 -0.103,-0.468 -0.408,-0.776 -0.623,-0.554 -0.512,-0.674 -0.117,-0.471 0.166,-0.732 0.422,-0.461 0.207,-0.384 0.576,-0.899 0.701,-1.36 0.654,-0.821 0.614,-0.565 0.56,-0.323 0.927,-0.261 0.472,-0.088 1.199,0.285 0.933,0.54 1.689,0.667 2.5,0.448 1.082,0.393 0.746,0.432 0.572,0.601 v 24.076 l -0.749,0.55 -2.411,1.125 -1.391,0.378 -2.412,0.83 -1.438,0.015 z" fill="#3a3a39" transform="matrix(1.33333 0 0 -1.33333 78.324 67.846)"/><path style="mix-blend-mode:multiply" d="m 0,0 -0.162,-0.152 -0.197,-0.699 -0.034,-1.142 c -0.173,-6.534 -6.225,-10.424 -5.265,-0.63 l 0.147,0.751 -0.054,0.536 -0.226,0.388 -0.191,0.083 -0.207,-0.024 -0.334,-0.28 -0.667,-1.1 -0.812,-1.253 -0.348,-0.535 c -1.024,-1.349 -2.277,-2.03 -3.993,-1.4 l -1.312,0.462 -0.682,-0.078 -0.762,0.112 -0.801,-0.092 -1.115,-0.359 -2.092,-0.855 -0.947,-0.231 -2.417,-0.825 -0.998,-0.771 -0.501,-0.383 -0.432,-0.747 -0.603,-1.754 -0.497,-2.221 -0.216,-1.202 0.089,-1.379 0.506,-1.572 1.124,-1.234 0.511,-0.388 0.114,-0.181 0.014,-0.222 -0.236,-0.374 -1.469,-1.482 -0.761,-1.301 -0.167,-0.718 -0.006,-1.164 0.36,-1.114 0.353,-0.825 0.374,-1.103 0.618,-1.738 0.447,-1.915 -0.073,-0.686 -0.27,-0.92 -1.224,-2.903 -0.5,-0.971 -0.055,-0.078 h 8.604 l 0.321,0.637 0.766,1.001 0.56,0.914 1.459,1.784 1.665,1.282 0.619,0.559 0.663,0.515 0.358,0.232 4.668,-0.01 1.65,-0.412 1.031,-0.147 1.011,-0.109 0.757,0.109 0.796,0.088 1.355,0.118 1.292,0.181 0.737,0.443 0.628,0.254 0.512,0.374 0.427,0.457 0.324,0.264 0.688,1.081 0.431,1.042 0.326,1.738 -0.011,1.169 -0.152,1.041 0.121,0.782 0.129,0.171 0.206,0.084 0.742,-0.147 0.889,-0.29 0.988,-0.128 0.771,0.118 1.006,0.172 1.356,0.413 1.44,0.033 0.766,0.129 0.987,-0.094 1.404,0.639 0.856,0.913 0.259,0.625 0.158,1.266 -0.28,2.089 -0.158,0.725 -0.274,0.906 -0.654,1.407 -0.417,0.763 -1.498,1.449 -0.826,0.648 -1.65,0.708 L 10.04,-8.114 9.608,-8.149 8.728,-8.757 8.125,-9.039 6.92,-9.205 C 4.951,-9.178 3.266,-7.698 2.436,-6.001 L 1.641,-4.146 0.579,-0.191 0.438,-0.024 0.221,0.05 Z m -14.627,-19.549 0.241,-0.029 0.147,-0.147 -0.044,-0.477 c -0.478,-1.512 -1.122,-2.684 -1.838,-4.081 l -0.162,-0.723 0.034,-1.155 0.276,-1.211 -0.118,-0.472 -0.628,-0.555 -1.032,-0.762 -0.201,-0.074 -0.172,0.031 -0.207,0.367 -0.284,0.899 -0.383,0.806 c -0.362,1.031 -1.096,1.994 -0.968,3.148 l 0.181,0.417 1.106,1.254 c 1.42,0.627 0.673,0.766 2.028,2.391 l 0.172,0.133 0.486,0.074 0.629,-0.024 z" fill="#3a3a39" transform="matrix(1.33333 0 0 -1.33333 42.54 106.878)"/><g style="mix-blend-mode:multiply"><path style="mix-blend-mode:multiply" d="M 0,0 0.569,0.314 1.306,1.051 2.22,2.5 2.323,3.001 2.292,3.262 1.238,4.872 0.009,6.002 -1.075,6.685 c 0.129,-0.292 0.023,-0.885 0.023,-1.192 0,-0.307 -0.205,-0.87 -0.41,-1.024 -0.204,-0.152 -1.125,-0.46 -1.278,-0.46 -0.154,0 -1.586,-0.256 -1.791,-0.358 -0.204,-0.102 -1.688,-0.255 -1.996,-0.255 -0.306,0 -1.586,-0.359 -1.586,-0.359 0,0 -1.432,0.052 -1.586,0.052 -0.153,0 -0.716,0.153 -0.869,0.153 -0.154,0 -1.075,0.204 -1.28,0.204 -0.204,0 -1.329,0.307 -1.329,0.307 l -0.564,0.205 c 0,0 -0.665,0.204 -0.767,0.409 -0.102,0.205 0,0.666 0.153,0.973 l -1.432,-0.103 c 0,0 -1.33,0.154 -1.484,0.154 -0.153,0 -1.279,0.307 -1.432,0.358 -0.051,0.017 -0.204,0.051 -0.382,0.088 l -0.798,-0.985 -0.359,-0.534 -0.363,-0.232 -0.138,0.02 -0.03,0.143 0.62,1.168 0.391,0.555 c -0.103,0.02 -0.169,0.033 -0.169,0.033 l -0.819,0.512 c 0,0 -1.688,-0.307 -1.842,-0.307 -0.153,0 -1.484,-0.154 -1.637,-0.103 -0.154,0.051 -1.023,0.153 -1.023,0.153 0,0 -1.484,0 -1.638,0.052 -0.153,0.051 -1.944,-0.154 -2.2,-0.205 -0.255,-0.051 -1.944,-0.358 -1.944,-0.358 l -0.358,0.511 h -0.972 c 0,0 -1.023,-0.05 -1.177,-0.102 -0.153,-0.051 -0.819,0.359 -0.767,0.512 0.05,0.154 -0.461,0.204 -0.461,0.204 l -0.716,0.154 c 0,0 -0.307,0.819 -0.205,0.972 0.102,0.154 -0.512,0.307 -0.512,0.307 l -1.534,0.461 c 0,0 -0.205,0.358 -0.41,0.46 -0.205,0.103 -0.358,0.41 -0.41,0.716 -0.05,0.308 -0.05,0.614 0,0.921 0.052,0.307 0.205,1.075 0.359,1.126 0.153,0.051 0.563,0.92 0.768,1.023 0.204,0.102 -0.154,0.409 -0.41,0.512 -0.256,0.102 -0.512,0.921 -0.512,1.126 0,0.204 -0.102,0.818 -0.005,1.026 l -1.749,-0.329 -0.795,-0.383 -0.815,-0.658 -0.689,-0.786 c -1.728,-2.806 0.386,-3.835 -2.834,-7.21 l -0.049,-0.221 0.163,-0.418 0.343,-0.265 0.462,-0.005 3.001,-0.059 0.746,-0.137 0.856,-0.03 0.913,-0.265 0.619,-0.265 0.466,-0.123 1.194,-0.87 c 1.34,-0.535 2.456,-1.947 3.561,-2.922 l 0.761,-1.302 0.378,-0.505 0.286,-0.895 0.378,-0.805 -0.034,-0.207 -0.325,-0.274 -0.427,-0.192 -0.231,-0.039 -0.206,0.064 -0.226,0.383 -0.452,1.316 -0.639,1.13 -1.032,1.031 -1.443,0.619 -2.028,0.015 -1.43,-0.339 -1.145,-0.624 -1.085,-0.683 -0.86,-0.909 -1.144,-1.507 -0.413,-0.767 c -2.813,-0.66 -3.636,-0.273 -5.545,-3.295 l -0.608,-1.16 -0.306,-1.464 0.04,-2.037 0.044,-0.423 c -1.223,-1.984 -2.143,-4.5 -1.032,-6.739 l 0.349,-0.83 0.084,-0.977 -0.04,-0.447 0.114,-0.777 0.053,-0.535 0.59,-1.179 0.334,-0.254 0.913,-0.562 1.052,-0.421 1.631,-0.432 1.498,-0.04 1.384,0.373 -0.039,0.428 -0.412,1.081 -0.084,0.8 0.059,0.241 0.29,0.304 0.569,0.314 1.454,0.315 2.343,0.005 1.979,-0.678 0.831,-0.034 0.383,-0.222 0.33,-0.26 0.824,-0.382 0.231,-0.04 0.211,0.063 0.148,0.168 0.063,0.477 -0.181,0.417 -0.374,0.515 -0.496,0.388 -0.874,1.484 -0.27,1.212 -0.059,0.703 0.226,0.285 0.579,0.32 0.904,0.216 0.845,0.083 0.457,-0.132 1.513,-0.83 0.663,0.107 0.865,0.32 0.289,0.3 0.403,0.481 1.311,1.045 0.697,0.777 1.18,1.474 1.473,2.357 0.815,1.542 0.476,1.587 0.285,1.754 -0.196,1.213 -0.614,1.154 -0.417,0.476 -0.03,0.207 0.27,0.614 0.938,1.419 0.334,0.256 2.412,0.535 0.855,0.029 0.761,0.123 1.178,-0.01 0.63,-0.255 0.982,-0.197 1.027,-0.447 0.771,-0.407 1.315,-0.453 0.964,-0.215 0.658,-0.226 1.164,-0.015 0.718,-0.108 1.477,0.275 1.434,0.644 1.518,0.186 1.773,-0.245 1.494,0.284 0.762,0.123 z" fill="#3a3a39" fill-rule="evenodd" transform="matrix(1.33333 0 0 -1.33333 71.199 49.718)"/><path style="mix-blend-mode:multiply" d="m 0,0 c 0.001,0.025 0.007,0.054 0.021,0.075 0.168,0.263 0.269,0.56 0.462,0.814 0.2,0.26 0.443,0.459 0.708,0.641 0.092,0.063 0.181,0.129 0.267,0.2 C 1.655,1.894 1.87,2.012 2.121,2.092 2.372,2.171 2.604,2.316 2.84,2.44 3.043,2.546 3.248,2.649 3.438,2.774 3.787,3.005 4.134,3.241 4.387,3.587 4.511,3.756 4.658,3.908 4.774,4.081 4.882,4.242 4.966,4.418 5.056,4.591 5.13,4.734 5.195,4.883 5.266,5.028 5.306,5.11 5.371,5.083 5.436,5.066 5.6,5.024 5.766,4.986 5.931,4.947 5.956,4.941 5.983,4.935 5.983,4.935 6.359,4.957 6.695,4.876 7.033,4.797 7.402,4.712 7.77,4.629 8.124,4.486 8.353,4.393 8.591,4.325 8.823,4.239 8.926,4.201 9.022,4.14 9.125,4.099 9.628,3.896 10.117,3.661 10.561,3.348 10.913,3.1 11.256,2.834 11.577,2.547 11.923,2.238 12.24,1.896 12.57,1.568 c 0.032,-0.033 0.064,-0.066 0.091,-0.103 0.313,-0.443 0.637,-0.879 0.936,-1.333 0.424,-0.644 0.83,-1.301 1.244,-1.952 0.014,-0.022 0.03,-0.043 0.046,-0.064 0.152,-0.196 0.148,-0.193 0.003,-0.38 -0.211,-0.275 -0.413,-0.556 -0.625,-0.831 -0.087,-0.114 -0.192,-0.214 -0.279,-0.328 -0.111,-0.144 -0.221,-0.291 -0.312,-0.448 -0.082,-0.14 -0.141,-0.295 -0.204,-0.445 -0.032,-0.078 -0.077,-0.129 -0.162,-0.089 -0.167,0.08 -0.344,0.069 -0.521,0.08 -0.263,0.014 -0.278,0.041 -0.331,0.288 -0.067,0.313 -0.197,0.593 -0.461,0.797 -0.098,0.075 -0.181,0.17 -0.273,0.253 -0.048,0.043 -0.093,0.099 -0.15,0.122 -0.224,0.09 -0.439,0.209 -0.69,0.216 -0.118,0.004 -0.227,0.042 -0.331,0.107 -0.067,0.042 -0.159,0.059 -0.24,0.06 C 9.899,-2.474 9.486,-2.471 9.073,-2.473 8.779,-2.474 8.485,-2.479 8.191,-2.495 7.892,-2.512 7.631,-2.667 7.348,-2.747 7.272,-2.768 7.197,-2.788 7.123,-2.813 7.044,-2.839 6.969,-2.874 6.889,-2.9 6.792,-2.933 6.692,-2.962 6.593,-2.99 6.462,-3.028 6.331,-3.064 6.199,-3.099 5.909,-3.176 5.623,-3.292 5.33,-3.317 4.9,-3.353 4.466,-3.324 4.034,-3.319 3.978,-3.318 3.913,-3.3 3.868,-3.268 3.718,-3.162 3.552,-3.145 3.381,-3.158 3.23,-3.171 3.109,-3.123 2.975,-3.051 2.778,-2.944 2.577,-2.825 2.342,-2.805 2.285,-2.801 2.227,-2.779 2.174,-2.755 1.817,-2.596 1.448,-2.457 1.11,-2.264 0.835,-2.107 0.592,-1.891 0.347,-1.686 0.273,-1.623 0.241,-1.51 0.192,-1.419 0.161,-1.361 0.139,-1.299 0.107,-1.243 0.02,-1.089 -0.052,-0.83 -0.032,-0.664 -0.022,-0.443 -0.012,-0.222 0,0 M 0.616,3.599 C 0.417,3.866 0.22,4.138 0.059,4.427 -0.04,4.604 -0.099,4.816 -0.135,5.011 -0.188,5.288 -0.156,5.583 -0.157,5.87 c -0.001,0.085 0.011,0.17 0.009,0.255 -0.003,0.108 0.013,0.208 0.084,0.294 0.017,0.02 0.035,0.044 0.04,0.068 0.087,0.386 0.357,0.659 0.586,0.959 0.233,0.305 0.53,0.539 0.861,0.733 C 1.858,8.436 2.306,8.661 2.784,8.826 2.845,8.847 2.901,8.884 2.96,8.911 3.001,8.93 3.043,8.961 3.085,8.962 3.397,8.968 3.643,9.168 3.931,9.245 4.036,9.273 4.143,9.301 4.252,9.308 4.365,9.316 4.468,9.33 4.569,9.389 4.64,9.43 4.729,9.457 4.81,9.459 5.163,9.466 5.516,9.462 5.869,9.462 V 9.477 C 6.02,9.477 6.171,9.473 6.321,9.478 6.663,9.487 7.003,9.489 7.331,9.372 7.343,9.367 7.356,9.365 7.369,9.364 7.802,9.349 8.22,9.24 8.644,9.168 8.778,9.146 8.907,9.099 9.038,9.06 9.082,9.047 9.123,9.009 9.165,9.01 c 0.34,0.005 0.636,-0.193 0.974,-0.202 0.076,-0.003 0.15,-0.042 0.225,-0.065 0.099,-0.03 0.2,-0.058 0.298,-0.095 0.182,-0.07 0.364,-0.14 0.543,-0.22 0.193,-0.088 0.386,-0.178 0.57,-0.284 0.403,-0.229 0.829,-0.418 1.191,-0.716 0.125,-0.103 0.265,-0.194 0.409,-0.27 0.356,-0.185 0.619,-0.478 0.902,-0.75 0.295,-0.286 0.595,-0.57 0.89,-0.858 0.619,-0.603 1.237,-1.206 1.767,-1.892 0.128,-0.166 0.265,-0.324 0.388,-0.493 0.11,-0.153 0.199,-0.322 0.311,-0.473 0.204,-0.272 0.422,-0.533 0.626,-0.806 0.131,-0.178 0.247,-0.365 0.39,-0.537 0.173,-0.207 0.286,-0.462 0.429,-0.694 0.041,-0.066 0.094,-0.126 0.139,-0.189 0.068,-0.095 0.134,-0.192 0.2,-0.288 0.022,-0.032 0.04,-0.067 0.067,-0.096 0.33,-0.345 0.661,-0.689 0.993,-1.032 0.172,-0.18 0.361,-0.337 0.573,-0.474 0.417,-0.265 0.819,-0.558 1.235,-0.827 0.335,-0.215 0.672,-0.428 1.045,-0.576 0.175,-0.069 0.338,-0.167 0.507,-0.252 0.035,-0.018 0.068,-0.045 0.105,-0.051 0.321,-0.048 0.601,-0.206 0.895,-0.327 0.192,-0.079 0.394,-0.133 0.59,-0.201 0.056,-0.019 0.113,-0.038 0.162,-0.069 0.114,-0.072 0.235,-0.11 0.372,-0.105 0.05,0.002 0.108,-0.004 0.152,-0.028 0.159,-0.087 0.332,-0.114 0.507,-0.144 0.076,-0.014 0.15,-0.044 0.224,-0.07 0.037,-0.012 0.072,-0.041 0.108,-0.044 0.392,-0.027 0.752,-0.218 1.154,-0.204 0.137,0.004 0.277,-0.057 0.415,-0.09 0.083,-0.02 0.163,-0.054 0.246,-0.061 0.156,-0.016 0.314,-0.019 0.471,-0.026 0.502,-0.02 1.004,-0.045 1.506,-0.059 0.129,-0.003 0.259,0.026 0.389,0.04 0.077,0.008 0.156,0.02 0.233,0.021 0.19,0.003 0.38,-0.005 0.57,10e-4 0.215,0.006 0.428,0.027 0.638,0.093 0.153,0.048 0.322,0.05 0.482,0.079 0.133,0.024 0.266,0.056 0.399,0.087 0.076,0.018 0.149,0.048 0.225,0.067 0.484,0.125 0.908,0.362 1.27,0.705 0.066,0.061 0.115,0.142 0.166,0.217 0.047,0.068 0.077,0.141 0.012,0.216 -0.053,0.061 -0.173,0.074 -0.255,0.022 -0.049,-0.03 -0.085,-0.083 -0.136,-0.11 -0.047,-0.026 -0.118,-0.056 -0.156,-0.038 -0.034,0.017 -0.057,0.096 -0.056,0.148 0.008,0.346 0.023,0.692 0.036,1.039 0.002,0.045 -0.003,0.096 0.015,0.135 0.082,0.184 0.123,0.369 0.092,0.572 -0.013,0.088 0.05,0.127 0.14,0.111 0.025,-0.004 0.051,-0.013 0.074,-0.025 0.166,-0.096 0.348,-0.108 0.533,-0.106 0.128,0.002 0.243,-0.023 0.356,-0.088 0.197,-0.115 0.406,-0.194 0.628,-0.26 0.324,-0.094 0.636,-0.237 0.914,-0.44 0.032,-0.022 0.06,-0.051 0.094,-0.071 0.328,-0.185 0.542,-0.462 0.671,-0.813 0.036,-0.097 0.098,-0.185 0.153,-0.274 0.173,-0.276 0.249,-0.595 0.317,-0.898 0.087,-0.397 0.116,-0.817 -0.078,-1.212 -0.069,-0.138 -0.096,-0.298 -0.165,-0.437 -0.27,-0.548 -0.719,-0.922 -1.233,-1.227 -0.247,-0.147 -0.495,-0.292 -0.749,-0.427 -0.172,-0.091 -0.35,-0.176 -0.533,-0.238 -0.1,-0.034 -0.22,-0.028 -0.329,-0.016 -0.145,0.018 -0.262,-0.009 -0.38,-0.105 -0.215,-0.172 -0.469,-0.258 -0.746,-0.258 -0.141,0 -0.27,-0.028 -0.397,-0.092 -0.084,-0.041 -0.19,-0.059 -0.284,-0.056 -0.286,0.01 -0.56,-0.045 -0.835,-0.108 -0.077,-0.019 -0.153,-0.038 -0.231,-0.045 -0.384,-0.04 -0.77,-0.059 -1.151,-0.118 -0.964,-0.146 -1.934,-0.046 -2.9,-0.073 -0.34,-0.01 -0.68,0.007 -1.02,0.015 -0.058,0.002 -0.119,0.006 -0.174,0.025 -0.379,0.124 -0.769,0.151 -1.164,0.141 -0.128,-0.003 -0.247,0.012 -0.351,0.094 -0.095,0.075 -0.208,0.077 -0.32,0.067 -0.122,-0.011 -0.226,0.019 -0.335,0.08 -0.092,0.051 -0.209,0.072 -0.316,0.078 -0.134,0.008 -0.254,0.024 -0.367,0.109 -0.061,0.045 -0.158,0.054 -0.239,0.059 -0.101,0.005 -0.194,0.018 -0.277,0.083 -0.034,0.028 -0.077,0.05 -0.119,0.065 -0.203,0.069 -0.408,0.13 -0.609,0.202 -0.172,0.061 -0.345,0.125 -0.509,0.201 -0.404,0.186 -0.8,0.386 -1.206,0.569 -0.314,0.141 -0.619,0.305 -0.956,0.392 -0.056,0.014 -0.112,0.043 -0.159,0.077 -0.265,0.19 -0.527,0.387 -0.795,0.574 -0.251,0.177 -0.509,0.344 -0.764,0.516 -0.06,0.04 -0.117,0.083 -0.173,0.128 -0.091,0.074 -0.173,0.16 -0.27,0.227 -0.55,0.383 -0.965,0.898 -1.384,1.409 -0.017,0.02 -0.032,0.042 -0.05,0.061 -0.394,0.41 -0.673,0.898 -0.954,1.386 -0.029,0.05 -0.059,0.101 -0.091,0.15 -0.172,0.269 -0.365,0.527 -0.51,0.81 -0.132,0.255 -0.334,0.451 -0.49,0.683 -0.183,0.271 -0.393,0.528 -0.536,0.818 C 14.223,0.837 13.969,1.13 13.74,1.447 13.271,2.095 12.657,2.6 12.105,3.167 11.949,3.328 11.738,3.434 11.555,3.571 11.319,3.747 11.097,3.943 10.852,4.103 10.452,4.362 10.056,4.629 9.6,4.788 9.404,4.856 9.219,4.951 9.028,5.032 8.951,5.065 8.87,5.093 8.789,5.12 8.753,5.133 8.712,5.135 8.676,5.15 8.492,5.23 8.315,5.334 8.123,5.389 7.874,5.461 7.628,5.551 7.362,5.559 7.166,5.565 6.971,5.586 6.776,5.607 6.713,5.615 6.648,5.638 6.592,5.667 6.442,5.746 6.285,5.78 6.119,5.781 5.778,5.781 5.437,5.795 5.097,5.776 4.837,5.762 4.579,5.706 4.321,5.672 4.134,5.645 3.946,5.614 3.759,5.601 3.632,5.592 3.513,5.584 3.4,5.52 3.339,5.485 3.266,5.47 3.199,5.445 3.15,5.428 3.088,5.423 3.055,5.389 3.013,5.346 2.972,5.281 2.975,5.226 2.976,5.187 3.043,5.129 3.09,5.117 3.183,5.093 3.282,5.087 3.38,5.088 3.681,5.093 3.981,5.11 4.282,5.112 4.463,5.113 4.501,5.032 4.407,4.875 4.132,4.41 3.798,3.991 3.382,3.646 3.199,3.493 2.979,3.381 2.773,3.255 2.622,3.164 2.469,3.076 2.313,2.992 2.239,2.953 2.159,2.927 2.081,2.894 1.92,2.823 1.758,2.839 1.606,2.914 1.244,3.094 0.867,3.263 0.616,3.599 M 6.1,17.234 c 0.001,0.203 0.042,0.386 0.137,0.562 0.071,0.133 0.11,0.155 0.221,0.069 0.202,-0.156 0.398,-0.318 0.59,-0.485 0.153,-0.133 0.298,-0.275 0.443,-0.416 0.103,-0.1 0.2,-0.205 0.301,-0.308 0.118,-0.121 0.231,-0.25 0.358,-0.362 0.308,-0.273 0.631,-0.529 0.933,-0.81 0.194,-0.182 0.36,-0.395 0.537,-0.595 0.078,-0.088 0.144,-0.186 0.226,-0.27 0.174,-0.176 0.357,-0.344 0.532,-0.519 0.123,-0.122 0.119,-0.186 -0.037,-0.268 C 10.123,13.717 9.899,13.609 9.669,13.518 9.21,13.336 8.76,13.139 8.318,12.915 7.775,12.642 7.317,12.25 6.815,11.922 6.794,11.907 6.775,11.887 6.752,11.874 6.655,11.819 6.583,11.851 6.573,11.961 6.565,12.045 6.571,12.13 6.571,12.216 l 0.036,0.004 c -0.043,0.231 -0.087,0.461 -0.128,0.692 -0.034,0.186 -0.063,0.373 -0.093,0.56 -0.006,0.045 0,0.094 -0.014,0.136 -0.135,0.407 -0.107,0.828 -0.116,1.245 -0.005,0.2 -0.039,0.383 -0.123,0.569 -0.056,0.125 -0.069,0.279 -0.067,0.421 0.004,0.463 0.032,0.927 0.034,1.391 m 4.657,-4.125 c 0.08,0.029 0.17,0.035 0.243,0.075 0.287,0.152 0.621,0.147 0.913,0.278 0.052,0.024 0.114,0.029 0.172,0.037 0.182,0.019 0.359,0.053 0.53,0.13 0.097,0.044 0.217,0.044 0.327,0.051 0.125,0.007 0.243,0.017 0.354,0.092 0.102,0.068 0.176,0.026 0.179,-0.102 0.001,-0.068 -0.016,-0.145 -0.051,-0.203 -0.062,-0.105 -0.098,-0.214 -0.095,-0.335 0.003,-0.141 -0.031,-0.27 -0.097,-0.395 -0.033,-0.063 -0.063,-0.133 -0.07,-0.203 -0.016,-0.151 -0.029,-0.298 -0.143,-0.416 -0.022,-0.025 -0.021,-0.075 -0.024,-0.113 -0.004,-0.052 0.007,-0.106 -0.002,-0.156 -0.059,-0.306 0.09,-0.528 0.284,-0.736 0.226,-0.242 0.483,-0.444 0.779,-0.587 0.254,-0.122 0.525,-0.205 0.812,-0.206 0.675,-0.002 1.349,-10e-4 2.024,0 0.177,10e-4 0.351,0.019 0.515,0.101 0.068,0.034 0.149,0.056 0.226,0.063 0.177,0.016 0.349,0.042 0.504,0.138 0.033,0.021 0.075,0.029 0.113,0.033 0.389,0.032 0.699,0.23 0.995,0.463 0.061,0.049 0.122,0.102 0.192,0.136 0.183,0.091 0.31,0.236 0.411,0.409 0.05,0.087 0.119,0.149 0.213,0.192 0.259,0.122 0.337,0.374 0.226,0.637 -0.094,0.221 -0.166,0.45 -0.25,0.676 -0.02,0.054 -0.05,0.105 -0.074,0.159 -0.029,0.066 -0.069,0.13 -0.081,0.199 -0.019,0.113 -0.061,0.208 -0.131,0.3 -0.033,0.042 -0.044,0.125 -0.025,0.176 0.01,0.028 0.103,0.044 0.154,0.037 0.244,-0.036 0.495,-0.042 0.731,-0.134 0.087,-0.035 0.193,-0.027 0.291,-0.03 0.166,-0.007 0.326,-0.031 0.472,-0.115 0.131,-0.076 0.275,-0.078 0.42,-0.072 0.107,0.005 0.201,-0.016 0.298,-0.072 0.081,-0.048 0.184,-0.056 0.277,-0.084 0.123,-0.038 0.259,-0.056 0.366,-0.121 0.294,-0.181 0.626,-0.261 0.941,-0.387 0.229,-0.091 0.472,-0.149 0.696,-0.25 0.22,-0.1 0.421,-0.238 0.633,-0.353 0.073,-0.04 0.158,-0.06 0.236,-0.089 0.037,-0.013 0.076,-0.022 0.109,-0.042 0.425,-0.244 0.857,-0.478 1.271,-0.74 0.492,-0.31 0.991,-0.612 1.414,-1.02 0.145,-0.141 0.32,-0.25 0.481,-0.374 0.072,-0.055 0.147,-0.109 0.213,-0.172 C 28.844,9.873 28.833,9.78 28.701,9.7 28.522,9.593 28.339,9.492 28.164,9.377 27.761,9.11 27.357,8.841 26.962,8.562 26.492,8.231 26.027,7.892 25.563,7.552 25.188,7.28 24.816,7.003 24.444,6.728 24.391,6.69 24.34,6.647 24.283,6.616 23.978,6.451 23.751,6.194 23.51,5.955 23.466,5.911 23.439,5.827 23.44,5.762 23.443,5.478 23.425,5.202 23.31,4.936 23.231,4.757 23.295,4.575 23.34,4.397 23.374,4.265 23.401,4.132 23.43,3.998 23.437,3.966 23.436,3.931 23.449,3.902 23.591,3.581 23.74,3.267 23.935,2.969 24.258,2.474 24.727,2.163 25.191,1.834 25.532,1.593 25.914,1.445 26.288,1.279 26.329,1.261 26.376,1.246 26.42,1.246 c 0.22,-0.003 0.426,-0.056 0.634,-0.12 0.179,-0.055 0.356,-0.056 0.53,0.051 0.072,0.046 0.175,0.054 0.263,0.057 0.241,0.008 0.446,0.099 0.628,0.246 0.131,0.104 0.289,0.182 0.345,0.362 0.025,0.075 0.096,0.071 0.167,0.05 0.219,-0.062 0.353,-0.012 0.452,0.185 0.174,0.351 0.347,0.702 0.51,1.058 0.13,0.284 0.243,0.576 0.369,0.86 0.064,0.143 0.145,0.277 0.213,0.418 0.097,0.198 0.189,0.398 0.284,0.598 0.074,0.159 0.15,0.317 0.223,0.477 0.146,0.32 0.29,0.642 0.436,0.962 0.023,0.051 0.048,0.1 0.092,0.19 0.052,-0.074 0.079,-0.102 0.092,-0.135 0.063,-0.151 0.121,-0.303 0.181,-0.454 0.062,-0.155 0.175,-0.292 0.168,-0.475 -10e-4,-0.049 0.048,-0.105 0.085,-0.15 0.213,-0.263 0.341,-0.567 0.449,-0.883 0.045,-0.13 0.1,-0.256 0.151,-0.383 0.094,-0.234 0.223,-0.461 0.275,-0.705 0.06,-0.275 0.239,-0.512 0.242,-0.802 10e-4,-0.049 0.033,-0.099 0.049,-0.148 0.03,-0.093 0.06,-0.186 0.088,-0.279 0.028,-0.094 0.043,-0.193 0.082,-0.283 0.064,-0.146 0.104,-0.292 0.104,-0.454 0,-0.075 0.04,-0.149 0.059,-0.224 0.029,-0.113 0.07,-0.224 0.079,-0.338 0.012,-0.163 -0.007,-0.329 0.005,-0.491 0.008,-0.101 0.033,-0.21 0.085,-0.294 0.084,-0.135 0.116,-0.276 0.116,-0.428 0,-0.865 0.004,-1.729 -0.006,-2.594 -0.002,-0.166 -0.058,-0.333 -0.101,-0.496 -0.025,-0.093 -0.115,-0.116 -0.2,-0.139 -0.125,-0.034 -0.248,-0.078 -0.375,-0.108 -0.094,-0.023 -0.192,-0.041 -0.289,-0.044 -0.198,-0.006 -0.389,-0.036 -0.572,-0.121 -0.073,-0.034 -0.164,-0.045 -0.247,-0.045 -0.838,-0.002 -1.677,-10e-4 -2.515,0.004 -0.11,0.001 -0.223,0.016 -0.327,0.049 -0.278,0.087 -0.56,0.126 -0.851,0.137 -0.108,0.003 -0.215,0.043 -0.323,0.064 -0.147,0.027 -0.293,0.062 -0.441,0.077 -0.152,0.013 -0.297,0.03 -0.436,0.103 -0.078,0.041 -0.175,0.045 -0.263,0.071 -0.131,0.038 -0.261,0.082 -0.393,0.117 -0.088,0.023 -0.178,0.046 -0.268,0.049 -0.121,0.004 -0.232,0.02 -0.334,0.093 -0.046,0.034 -0.103,0.059 -0.16,0.074 -0.425,0.107 -0.82,0.293 -1.217,0.475 -0.207,0.095 -0.425,0.163 -0.634,0.251 -0.185,0.079 -0.372,0.16 -0.546,0.261 -0.515,0.299 -1.024,0.607 -1.534,0.914 -0.094,0.057 -0.187,0.122 -0.265,0.2 -0.393,0.385 -0.78,0.775 -1.169,1.165 -0.019,0.018 -0.039,0.036 -0.052,0.059 -0.253,0.44 -0.625,0.787 -0.916,1.199 -0.278,0.396 -0.565,0.785 -0.846,1.18 -0.196,0.278 -0.373,0.57 -0.58,0.839 -0.357,0.461 -0.725,0.912 -1.097,1.361 -0.271,0.327 -0.553,0.645 -0.833,0.966 -0.056,0.064 -0.118,0.124 -0.18,0.18 -0.204,0.185 -0.407,0.371 -0.616,0.549 -0.482,0.414 -0.971,0.819 -1.515,1.15 -0.464,0.28 -0.932,0.554 -1.403,0.825 -0.22,0.126 -0.439,0.265 -0.677,0.348 C 11.516,8.99 11.352,9.079 11.175,9.143 11.091,9.175 11.012,9.226 10.926,9.251 10.709,9.316 10.492,9.38 10.287,9.479 10.255,9.494 10.21,9.486 10.171,9.483 10.082,9.474 10,9.491 9.935,9.556 9.866,9.627 9.781,9.641 9.685,9.646 9.604,9.65 9.511,9.664 9.445,9.707 9.324,9.787 9.196,9.822 9.056,9.82 8.901,9.817 8.762,9.851 8.63,9.939 8.503,10.025 8.367,10.074 8.205,10.002 8.141,9.973 8.044,9.98 7.977,10.008 c -0.274,0.115 -0.562,0.116 -0.849,0.131 -0.176,0.011 -0.353,0 -0.53,0.012 -0.074,0.004 -0.156,0.028 -0.217,0.07 -0.085,0.058 -0.081,0.142 -0.004,0.215 0.256,0.242 0.506,0.492 0.774,0.721 0.193,0.165 0.405,0.308 0.617,0.45 0.384,0.261 0.761,0.533 1.18,0.739 0.18,0.089 0.351,0.199 0.535,0.283 0.188,0.086 0.384,0.155 0.578,0.228 0.231,0.086 0.463,0.17 0.696,0.252 m 2.964,-1.312 c 0.017,0.028 0.041,0.054 0.049,0.084 0.077,0.29 0.139,0.583 0.229,0.868 0.101,0.322 0.126,0.663 0.262,0.974 0.032,0.071 0.062,0.145 0.075,0.222 0.016,0.098 0.03,0.193 0.106,0.267 0.013,0.013 0.024,0.032 0.028,0.051 0.041,0.209 0.076,0.419 0.121,0.628 0.04,0.183 0.09,0.365 0.137,0.546 0.03,0.113 0.063,0.224 0.093,0.337 0.029,0.106 0.043,0.218 0.089,0.317 0.064,0.141 0.103,0.283 0.093,0.436 -0.009,0.135 0.021,0.256 0.087,0.376 0.04,0.071 0.044,0.161 0.064,0.244 0.023,0.095 0.028,0.197 0.069,0.283 0.153,0.317 0.222,0.655 0.28,0.997 0.009,0.052 0.019,0.105 0.044,0.15 0.09,0.162 0.121,0.337 0.164,0.516 0.065,0.274 0.177,0.546 0.405,0.743 0.068,0.059 0.129,0.067 0.187,0.001 0.121,-0.135 0.251,-0.266 0.352,-0.416 0.128,-0.188 0.266,-0.381 0.333,-0.593 0.059,-0.19 0.217,-0.343 0.201,-0.558 -0.003,-0.037 0.015,-0.078 0.031,-0.113 0.082,-0.17 0.17,-0.336 0.248,-0.508 0.084,-0.183 0.158,-0.371 0.238,-0.556 0.02,-0.048 0.036,-0.1 0.068,-0.139 0.066,-0.082 0.081,-0.172 0.089,-0.273 0.007,-0.096 0.028,-0.194 0.062,-0.284 0.095,-0.249 0.196,-0.496 0.299,-0.742 0.081,-0.191 0.169,-0.381 0.253,-0.571 0.016,-0.036 0.037,-0.072 0.039,-0.11 0.023,-0.308 0.184,-0.563 0.312,-0.831 0.087,-0.182 0.159,-0.371 0.233,-0.559 0.093,-0.234 0.189,-0.468 0.271,-0.706 0.029,-0.082 0.044,-0.183 0.026,-0.266 -0.065,-0.3 -0.15,-0.597 -0.341,-0.846 -0.042,-0.054 -0.107,-0.095 -0.171,-0.124 -0.208,-0.096 -0.417,-0.188 -0.629,-0.272 -0.084,-0.033 -0.179,-0.033 -0.267,-0.056 -0.1,-0.023 -0.198,-0.054 -0.296,-0.082 -0.094,-0.027 -0.186,-0.063 -0.281,-0.08 -0.207,-0.036 -0.414,-0.063 -0.621,-0.091 -0.064,-0.009 -0.13,-0.01 -0.195,-0.016 0,0.004 0,0.008 -10e-4,0.011 -0.058,-0.003 -0.119,0.003 -0.175,-0.012 -0.224,-0.062 -0.454,-0.048 -0.682,-0.055 -0.318,-0.011 -0.623,0.057 -0.931,0.119 -0.134,0.026 -0.272,0.044 -0.408,0.051 -0.096,0.005 -0.172,0.031 -0.246,0.098 -0.107,0.095 -0.227,0.175 -0.342,0.263 -0.126,0.096 -0.134,0.137 -0.051,0.277 m 12.904,1.523 c 0.263,0.183 0.519,0.375 0.78,0.561 0.255,0.182 0.513,0.359 0.768,0.542 0.149,0.107 0.289,0.224 0.438,0.331 0.196,0.139 0.388,0.293 0.6,0.404 0.254,0.133 0.458,0.326 0.665,0.512 0.238,0.212 0.508,0.369 0.777,0.529 0.062,0.037 0.128,0.065 0.188,0.106 0.248,0.169 0.494,0.342 0.742,0.512 0.048,0.032 0.101,0.061 0.155,0.081 0.155,0.056 0.251,0.019 0.326,-0.126 0.114,-0.219 0.167,-0.433 0.015,-0.667 -0.056,-0.085 -0.05,-0.211 -0.073,-0.319 -0.023,-0.114 -0.045,-0.227 -0.069,-0.341 -0.028,-0.133 -0.055,-0.267 -0.086,-0.4 -0.024,-0.107 -0.051,-0.213 -0.082,-0.318 -0.01,-0.037 -0.045,-0.07 -0.048,-0.106 -0.03,-0.319 -0.192,-0.61 -0.198,-0.933 -0.002,-0.146 -0.024,-0.285 -0.095,-0.417 -0.025,-0.045 -0.044,-0.097 -0.05,-0.147 -0.039,-0.37 -0.191,-0.703 -0.325,-1.043 -0.003,-0.006 -0.006,-0.012 -0.006,-0.018 -0.024,-0.181 -0.029,-0.367 -0.077,-0.541 -0.046,-0.168 -0.154,-0.318 -0.137,-0.504 0.011,-0.118 -0.05,-0.196 -0.154,-0.25 -0.279,-0.143 -0.556,-0.291 -0.834,-0.435 -0.106,-0.056 -0.188,-0.004 -0.265,0.065 -0.278,0.248 -0.555,0.497 -0.836,0.742 -0.133,0.117 -0.273,0.225 -0.41,0.334 -0.077,0.062 -0.164,0.111 -0.235,0.178 -0.507,0.478 -1.128,0.778 -1.718,1.128 -0.049,0.029 -0.112,0.035 -0.165,0.059 -0.049,0.021 -0.094,0.053 -0.175,0.101 0.225,0.146 0.409,0.257 0.584,0.38 m 5.3,-3.041 C 32.006,10.2 31.962,10.123 31.913,10.05 31.851,9.957 31.836,9.857 31.848,9.749 31.862,9.627 31.836,9.516 31.764,9.415 31.745,9.388 31.72,9.358 31.718,9.329 31.703,9.109 31.568,8.933 31.501,8.732 31.426,8.51 31.331,8.295 31.238,8.08 31.172,7.924 31.087,7.777 31.022,7.621 30.993,7.551 30.986,7.469 30.985,7.392 30.983,7.285 30.956,7.191 30.914,7.091 30.811,6.836 30.671,6.601 30.54,6.361 30.439,6.174 30.386,5.962 30.308,5.762 30.261,5.641 30.212,5.522 30.158,5.404 30.011,5.083 29.858,4.766 29.714,4.446 29.629,4.256 29.56,4.06 29.478,3.869 29.423,3.737 29.36,3.608 29.297,3.479 29.16,3.199 29.018,2.919 28.884,2.637 28.85,2.569 28.828,2.491 28.813,2.415 28.783,2.262 28.691,2.166 28.563,2.082 28.263,1.885 27.925,1.863 27.632,1.849 27.33,1.867 27.069,1.853 26.822,1.904 26.583,1.954 26.349,2.054 26.125,2.16 25.5,2.452 24.986,2.895 24.531,3.407 24.408,3.544 24.333,3.726 24.236,3.889 24.213,3.928 24.201,3.975 24.174,4.01 c -0.07,0.088 -0.081,0.188 -0.094,0.293 -0.011,0.102 -0.024,0.215 -0.076,0.299 -0.133,0.22 -0.103,0.436 -0.027,0.66 0.039,0.117 0.067,0.238 0.11,0.353 0.021,0.058 0.059,0.113 0.099,0.16 0.029,0.035 0.071,0.059 0.11,0.082 0.508,0.32 1.021,0.633 1.525,0.959 0.275,0.177 0.533,0.378 0.801,0.564 0.22,0.153 0.442,0.304 0.667,0.449 0.38,0.244 0.762,0.486 1.147,0.721 0.25,0.153 0.51,0.292 0.764,0.44 0.158,0.092 0.316,0.183 0.469,0.284 0.574,0.379 1.196,0.674 1.793,1.011 0.057,0.032 0.121,0.05 0.181,0.076 0.117,0.049 0.204,-0.006 0.282,-0.082 m 1.427,-4.827 c 0.208,-0.031 0.4,0.03 0.599,0.076 0.182,0.044 0.373,0.061 0.561,0.068 0.523,0.022 1.046,0.03 1.569,0.046 0.052,0.002 0.108,0.006 0.154,0.025 0.2,0.084 0.408,0.084 0.618,0.084 0.301,-0.003 0.603,-0.007 0.903,-0.004 0.17,0.003 0.339,0.019 0.508,0.028 0.066,0.004 0.131,0.01 0.197,0.006 0.118,-0.004 0.215,-0.049 0.261,-0.17 C 38.766,5.492 38.77,5.382 38.671,5.285 38.331,4.949 38.012,4.589 37.648,4.283 37.241,3.942 36.861,3.575 36.474,3.213 36.016,2.784 35.549,2.364 35.085,1.94 34.907,1.777 34.729,1.614 34.546,1.455 34.511,1.424 34.448,1.392 34.414,1.404 c -0.036,0.013 -0.071,0.079 -0.073,0.122 -0.005,0.129 -0.054,0.24 -0.1,0.356 -0.034,0.088 -0.035,0.19 -0.044,0.242 0.022,0.201 -0.029,0.339 -0.085,0.481 -0.106,0.279 -0.222,0.557 -0.256,0.859 -0.008,0.068 -0.038,0.14 -0.077,0.198 -0.078,0.114 -0.104,0.234 -0.104,0.37 0,0.079 -0.043,0.159 -0.071,0.236 -0.013,0.036 -0.043,0.067 -0.056,0.102 -0.073,0.216 -0.139,0.434 -0.215,0.648 -0.023,0.065 -0.079,0.119 -0.106,0.184 -0.024,0.056 -0.049,0.125 -0.038,0.181 0.016,0.076 0.097,0.078 0.163,0.069 m 3.432,-16.778 c 0.164,0.133 0.332,0.272 0.415,0.467 l 0.645,-0.615 0.38,-0.485 -0.013,-0.076 -0.133,-0.048 h -1.18 l -0.811,0.093 -0.552,-0.024 -0.441,0.034 c 0.086,0.021 0.171,0.043 0.257,0.064 0.119,0.029 0.239,0.056 0.357,0.089 0.064,0.017 0.123,0.046 0.185,0.063 0.324,0.092 0.63,0.228 0.891,0.438 m -18.297,3.974 c -0.066,-0.169 -0.167,-0.324 -0.25,-0.486 -0.18,-0.351 -0.489,-0.552 -0.828,-0.722 -0.181,-0.091 -0.356,-0.196 -0.569,-0.194 0,0 -0.014,-0.001 -0.019,-0.005 -0.197,-0.147 -0.434,-0.122 -0.659,-0.151 -0.019,-0.004 -0.039,-0.005 -0.058,-0.012 -0.509,-0.167 -1.035,-0.117 -1.558,-0.114 -0.129,10e-4 -0.258,0.035 -0.387,0.057 -0.051,0.009 -0.1,0.035 -0.152,0.038 -0.37,0.015 -0.739,0.031 -1.11,0.038 -0.228,0.004 -0.46,-0.038 -0.684,-0.007 -0.36,0.049 -0.719,0.032 -1.078,0.037 -0.222,0.003 -0.446,10e-4 -0.668,-0.011 C 10.265,-8.895 10.065,-8.911 9.874,-8.998 9.77,-9.043 9.642,-9.032 9.527,-9.053 9.367,-9.082 9.209,-9.119 9.049,-9.15 8.915,-9.176 8.78,-9.215 8.645,-9.216 8.426,-9.218 8.216,-9.248 8.01,-9.32 7.9,-9.358 7.78,-9.369 7.666,-9.396 7.553,-9.422 7.443,-9.453 7.314,-9.487 c -0.017,0.173 -0.029,0.313 0.029,0.472 0.082,0.23 0.247,0.378 0.412,0.535 0.09,0.085 0.18,0.173 0.258,0.269 0.076,0.093 0.043,0.177 -0.074,0.201 C 7.89,-8 7.835,-8.004 7.784,-8.007 7.731,-8.01 7.678,-8.031 7.628,-8.026 7.392,-7.999 7.205,-8.104 7.043,-8.252 6.865,-8.415 6.7,-8.592 6.531,-8.764 6.48,-8.816 6.441,-8.88 6.382,-8.919 6.327,-8.956 6.253,-8.986 6.187,-8.987 5.952,-8.99 5.717,-8.982 5.481,-8.972 5.305,-8.966 5.129,-8.939 4.954,-8.941 4.785,-8.943 4.617,-8.966 4.45,-8.988 c -0.071,-0.01 -0.144,-0.05 -0.197,0.026 -0.049,0.071 -0.011,0.136 0.022,0.202 0.038,0.075 0.069,0.154 0.107,0.23 0.029,0.058 0.057,0.12 0.1,0.166 0.137,0.15 0.272,0.303 0.426,0.435 0.102,0.088 0.229,0.153 0.353,0.207 0.16,0.071 0.329,0.126 0.497,0.18 0.08,0.027 0.154,0.055 0.148,0.153 C 5.9,-7.291 5.835,-7.231 5.744,-7.218 5.534,-7.186 5.326,-7.194 5.124,-7.267 4.797,-7.385 4.491,-7.543 4.203,-7.739 4.029,-7.857 3.896,-8.01 3.79,-8.181 3.678,-8.364 3.522,-8.424 3.343,-8.435 v 0.001 L 3.319,-8.421 C 3.248,-8.402 3.196,-8.4 3.149,-8.412 3.03,-8.383 2.973,-8.317 3.011,-8.17 c 0.101,0.396 0.331,0.709 0.663,0.941 0.153,0.107 0.321,0.187 0.501,0.255 0.174,0.065 0.341,0.115 0.523,0.134 0.051,0.006 0.104,0.023 0.148,0.049 0.141,0.084 0.294,0.101 0.453,0.107 0.155,0.007 0.288,-0.023 0.426,-0.106 0.246,-0.145 0.511,-0.26 0.769,-0.386 0.194,-0.095 0.388,-0.187 0.582,-0.282 0.151,-0.074 0.299,-0.156 0.454,-0.224 0.258,-0.113 0.603,-0.037 0.789,0.172 0.05,0.056 0.082,0.132 0.106,0.204 0.05,0.148 0.072,0.167 0.227,0.13 0.056,-0.014 0.11,-0.038 0.165,-0.06 0.277,-0.115 0.542,-0.251 0.837,-0.326 0.195,-0.05 0.379,-0.135 0.585,-0.153 0.364,-0.031 0.561,0.074 0.72,0.409 0.029,0.06 0.063,0.106 0.132,0.091 0.404,-0.081 0.633,0.192 0.86,0.441 0.198,0.218 0.355,0.469 0.467,0.744 0.025,0.06 0.034,0.126 0.052,0.189 0.021,0.075 0.044,0.15 0.066,0.225 0.034,0.125 0.076,0.248 0.099,0.375 0.028,0.148 0.05,0.159 0.192,0.117 0.103,-0.031 0.216,-0.043 0.325,-0.046 0.132,-0.002 0.26,0.003 0.366,-0.1 0.065,-0.061 0.143,-0.063 0.214,-0.003 0.074,0.062 0.165,0.115 0.218,0.193 0.228,0.343 0.448,0.691 0.665,1.041 0.061,0.099 0.09,0.219 0.151,0.317 0.185,0.293 0.378,0.58 0.569,0.869 0.014,0.02 0.039,0.033 0.064,0.052 0.14,-0.069 0.209,-0.192 0.276,-0.32 0.041,-0.08 0.093,-0.155 0.146,-0.229 0.107,-0.148 0.218,-0.293 0.325,-0.441 0.027,-0.037 0.041,-0.086 0.072,-0.117 0.326,-0.321 0.579,-0.709 0.933,-1.005 0.175,-0.147 0.335,-0.313 0.509,-0.461 0.24,-0.203 0.486,-0.397 0.73,-0.594 0.041,-0.033 0.083,-0.064 0.126,-0.095 0.146,-0.106 0.197,-0.238 0.209,-0.431 0.019,-0.323 -0.129,-0.582 -0.238,-0.858 m 6.768,-1.736 c -0.334,-0.261 -0.724,-0.448 -1.02,-0.76 -0.19,-0.2 -0.443,-0.216 -0.692,-0.219 -0.215,-10e-4 -0.43,0.027 -0.646,0.032 -0.281,0.006 -0.562,0.006 -0.843,0.002 -0.14,-0.001 -0.268,0.033 -0.401,0.073 -0.16,0.049 -0.334,0.064 -0.501,0.067 -0.237,0.005 -0.465,0.008 -0.686,0.125 -0.103,0.054 -0.24,0.053 -0.363,0.061 -0.12,0.007 -0.226,0.031 -0.336,0.087 -0.094,0.05 -0.211,0.071 -0.318,0.07 -0.19,-10e-4 -0.371,-0.009 -0.544,0.109 -0.083,0.058 -0.212,0.056 -0.322,0.063 -0.123,0.008 -0.23,0.046 -0.321,0.127 -0.094,0.081 -0.098,0.14 0.007,0.198 0.266,0.147 0.448,0.378 0.633,0.606 0.348,0.432 0.491,0.93 0.477,1.479 -0.002,0.068 0.01,0.136 0.017,0.236 0.077,-0.03 0.116,-0.039 0.148,-0.059 0.19,-0.114 0.374,-0.238 0.569,-0.346 0.123,-0.068 0.263,-0.108 0.39,-0.17 0.122,-0.062 0.236,-0.141 0.357,-0.204 0.133,-0.07 0.268,-0.137 0.407,-0.193 0.386,-0.153 0.768,-0.327 1.167,-0.44 0.23,-0.065 0.448,-0.167 0.683,-0.213 0.038,-0.008 0.079,-0.011 0.114,-0.025 0.219,-0.085 0.439,-0.146 0.675,-0.182 0.275,-0.041 0.541,-0.149 0.804,-0.245 0.14,-0.051 0.276,-0.078 0.421,-0.062 0.02,0.002 0.04,0.005 0.06,0.004 0.075,-0.002 0.177,0.031 0.205,-0.062 0.031,-0.1 -0.084,-0.114 -0.141,-0.159 m 8.55,-2.185 c -0.44,-0.051 -0.869,-0.181 -1.257,-0.416 -0.075,-0.045 -0.172,-0.056 -0.261,-0.074 -0.141,-0.029 -0.287,-0.037 -0.423,-0.08 -0.21,-0.067 -0.421,-0.087 -0.639,-0.079 -0.13,0.005 -0.262,0.003 -0.392,-0.009 -0.082,-0.008 -0.169,-0.029 -0.242,-0.066 -0.115,-0.058 -0.231,-0.084 -0.359,-0.084 -0.361,0.003 -0.712,-0.053 -1.067,-0.134 -0.268,-0.062 -0.559,-0.045 -0.838,-0.029 -0.214,0.012 -0.28,0.226 -0.132,0.389 0.234,0.257 0.487,0.493 0.795,0.662 0.103,0.057 0.198,0.129 0.3,0.186 0.09,0.052 0.187,0.09 0.279,0.138 0.086,0.046 0.17,0.096 0.253,0.149 0.068,0.044 0.121,0.104 0.095,0.195 -0.027,0.097 -0.106,0.14 -0.194,0.135 -0.142,-0.008 -0.29,-0.016 -0.423,-0.061 -0.142,-0.047 -0.276,-0.117 -0.431,-0.117 -0.032,0 -0.064,-0.014 -0.094,-0.027 -0.561,-0.261 -1.045,-0.618 -1.412,-1.124 -0.027,-0.036 -0.054,-0.073 -0.082,-0.11 -0.055,-0.072 -0.127,-0.1 -0.205,-0.048 -0.112,0.073 -0.235,0.066 -0.359,0.076 -0.176,0.013 -0.35,0.046 -0.525,0.072 -0.239,0.034 -0.478,0.064 -0.717,0.104 -0.166,0.029 -0.169,0.072 -0.117,0.23 0.121,0.361 0.428,0.497 0.732,0.635 0.378,0.173 0.757,0.347 1.145,0.495 0.161,0.061 0.346,0.062 0.521,0.08 0.087,0.009 0.176,0 0.202,0.111 0.024,0.098 -0.033,0.16 -0.109,0.209 -0.236,0.152 -0.479,0.192 -0.744,0.067 -0.091,-0.044 -0.2,-0.065 -0.301,-0.066 -0.181,-10e-4 -0.343,-0.036 -0.506,-0.127 -0.184,-0.104 -0.392,-0.169 -0.582,-0.266 -0.43,-0.219 -0.871,-0.428 -1.138,-0.864 -0.088,-0.143 -0.221,-0.202 -0.384,-0.187 -0.163,0.015 -0.207,0.103 -0.119,0.239 0.043,0.065 0.094,0.125 0.144,0.186 0.297,0.361 0.629,0.686 1.03,0.928 0.155,0.094 0.333,0.15 0.499,0.224 0.19,0.085 0.38,0.17 0.57,0.254 0.071,0.032 0.144,0.061 0.217,0.088 0.116,0.043 0.23,0.088 0.348,0.126 0.067,0.021 0.138,0.038 0.208,0.041 0.137,0.006 0.275,0.002 0.412,0.002 0.269,0.007 0.53,-0.009 0.794,-0.088 0.204,-0.061 0.428,-0.066 0.642,-0.066 0.779,0.001 1.558,0.012 2.336,0.024 0.084,0 0.172,0.011 0.252,0.035 0.267,0.081 0.539,0.105 0.815,0.094 0.179,-0.008 0.349,0.028 0.52,0.083 0.141,0.045 0.292,0.069 0.44,0.081 0.21,0.018 0.413,0.035 0.61,0.125 0.102,0.046 0.229,0.049 0.345,0.051 0.165,0.002 0.323,-0.004 0.468,0.103 0.057,0.042 0.148,0.047 0.225,0.049 0.187,0.005 0.363,0.039 0.529,0.127 0.04,0.022 0.085,0.033 0.129,0.048 0.118,0.043 0.22,0.024 0.294,-0.083 0.101,-0.144 0.2,-0.291 0.3,-0.436 0.109,-0.156 0.197,-0.315 0.188,-0.52 -0.004,-0.076 0.046,-0.162 0.09,-0.232 0.073,-0.118 0.088,-0.226 0.009,-0.347 -0.039,-0.058 -0.07,-0.128 -0.084,-0.197 -0.039,-0.187 -0.167,-0.293 -0.33,-0.359 -0.258,-0.105 -0.522,-0.2 -0.785,-0.295 -0.073,-0.026 -0.152,-0.036 -0.229,-0.053 -0.415,-0.09 -0.833,-0.15 -1.256,-0.197 M 4.814,-9.744 4.968,-10.021 4.995,-10.241 4.952,-10.37 4.883,-10.38 4.411,-10 4.304,-9.84 4.297,-9.812 c 0.051,0.006 0.101,0.011 0.153,0.022 0.12,0.023 0.243,0.031 0.364,0.046 m 2.807,-0.515 0.067,-1.124 0.123,-0.75 -0.039,-1.444 -0.056,-0.055 -0.087,0.042 -0.344,0.542 -0.788,1.87 -0.751,1.474 c 0.135,0.001 0.27,0.002 0.404,0.005 0.223,0.004 0.236,-0.004 0.283,-0.226 0.035,-0.162 0.133,-0.28 0.29,-0.312 0.171,-0.034 0.35,-0.044 0.526,-0.04 0.124,10e-4 0.247,0.013 0.372,0.018 m 1.074,-0.41 -0.084,-0.451 H 8.598 l -0.223,0.915 c 0.046,0.012 0.092,0.026 0.132,0.048 0.09,0.05 0.182,0.072 0.277,0.083 z m 1.122,-0.81 -0.956,-3.478 -0.074,-0.112 H 8.77 l -0.024,0.073 0.306,1.139 0.354,2.588 0.148,1.036 0.02,0.302 c 0.061,0.013 0.121,0.034 0.182,0.038 0.157,0.011 0.315,0.01 0.471,0.016 z m 3.173,1.541 -0.182,-0.683 c -1.001,-1.933 -1.876,-3.923 -3.165,-5.682 l -0.054,-0.049 0.233,1.122 1.051,3.961 0.351,1.483 c 0.554,0.055 1.107,0.099 1.666,0.078 0.068,-0.002 0.136,-0.014 0.204,-0.023 z m 2.667,-0.437 -0.738,-1.315 -0.617,-0.866 -0.537,-0.941 -1.973,-3.916 -0.872,-1.464 -0.156,-0.099 -1.063,-0.127 -0.25,-0.052 -0.21,0.026 -0.107,0.107 0.011,0.148 0.425,0.487 0.528,0.938 1.186,1.766 1.005,1.657 0.546,1.223 0.925,2.029 0.31,0.889 c 0.605,-0.01 1.21,-0.008 1.815,10e-4 z m 4.486,-0.503 -0.572,-0.886 c -1.932,-2.429 -1.84,-1.387 -4.892,-2.435 l -0.061,0.007 v 0.048 l 0.394,0.777 0.626,1.134 1.202,1.753 0.421,0.754 0.059,0.095 c 0.005,-0.004 0.009,-0.004 0.013,-0.007 0.07,-0.057 0.141,-0.12 0.223,-0.16 0.11,-0.054 0.229,-0.091 0.346,-0.13 0.284,-0.094 0.565,-0.203 0.856,-0.272 0.335,-0.08 0.68,-0.123 1.021,-0.186 0.076,-0.015 0.158,-0.034 0.222,-0.075 0.12,-0.076 0.246,-0.094 0.381,-0.097 z m 19.516,-33.918 0.012,0.112 0.261,0.32 1.902,1.015 0.69,0.204 2.249,0.979 2.592,0.643 1.022,0.151 2.642,-0.018 2.138,-0.216 0.474,-0.09 0.025,-0.025 -0.218,-0.19 c -4.635,-2.366 -6.867,-2.817 -12.109,-2.914 l -0.681,-0.069 z m -6.059,-5.692 -0.699,0.482 -0.732,0.481 -0.569,0.01 h -0.004 l -0.415,-0.053 -0.514,0.291 -0.234,0.05 -0.009,0.003 -1.734,-0.212 -2.437,0.458 -0.309,0.236 -0.48,1.264 -0.831,0.945 v 0.122 l 0.305,0.21 1.515,0.248 0.414,0.196 0.898,0.898 0.16,0.066 1.609,-0.399 0.771,-0.101 1.11,-0.351 0.661,-0.481 0.539,-1.197 0.013,-0.378 -0.348,-0.879 0.011,-0.258 0.144,-0.142 0.151,0.143 0.537,1.622 0.005,0.016 -0.123,0.76 0.045,0.135 0.166,0.068 1.843,-0.204 0.958,-0.226 1.271,-0.19 2.178,-0.745 0.772,-0.952 c 0.904,-2.909 -1.845,-4.436 -4.303,-3.119 l -1.047,0.414 z m -5.507,-4.77 -1.908,1.313 -0.306,0.554 -0.487,1.002 -0.886,1.183 -0.032,0.159 0.06,0.136 0.801,0.671 0.592,0.552 0.401,-0.012 1.738,-0.355 1.199,-0.049 1.791,0.102 0.852,-0.301 1.129,-0.644 0.965,-0.49 0.652,-0.532 0.506,-0.36 0.968,-1.074 0.511,-0.946 0.058,-0.813 -0.098,-0.474 -0.75,-1.587 -0.666,-0.476 -0.66,-0.201 -1.747,-0.01 -0.477,0.093 -1.795,0.847 -0.903,0.568 -0.882,0.579 z m -4.813,-2.904 0.108,0.1 1.193,0.282 0.585,0.32 0.898,0.895 0.424,1.073 0.095,0.058 0.879,-0.488 0.665,-0.504 0.485,-0.414 1.288,-0.761 0.798,-0.963 0.718,-0.739 0.375,-0.774 0.322,-1.442 -0.1,-0.743 -0.242,-0.919 c -1.791,-2.672 -5.247,-0.034 -6.58,1.75 l -0.884,1.768 -1.012,1.356 z m -4.392,-15.143 0.012,0.013 0.139,-0.021 5.382,-2.059 0.012,-0.004 0.491,0.018 -0.019,0.209 -1.144,0.691 -2.036,0.908 -3.786,1.804 -0.714,0.453 -0.399,0.454 0.007,0.058 0.094,0.021 2.125,-0.224 2.07,-0.293 0.449,-0.124 0.325,-0.264 0.585,-0.299 1.081,-0.114 1.162,-0.588 1.137,-0.619 0.826,-0.64 1.855,-1.701 0.552,-0.351 0.121,0.122 -0.203,0.379 -0.729,0.786 -0.674,0.82 -1.176,0.883 -0.653,0.539 -0.21,0.227 0.012,0.012 0.849,-0.235 2.352,-0.882 0.99,-0.48 1.541,-0.853 0.42,-0.152 0.131,0.132 -0.081,0.185 c -1.324,1.281 -6.184,3.484 -7.94,3.672 l -0.34,0.144 0.005,0.032 c 1.691,0.9 3.626,0.541 5.44,0.417 l 0.161,0.162 -0.121,0.185 -0.232,0.106 -1.597,0.221 -0.886,0.009 -0.736,-0.137 -1.164,-0.014 -2.078,-0.586 -0.71,-0.136 -0.485,0.103 -1.147,0.028 -1.285,0.191 -1.05,0.118 -0.912,0.271 -1.69,0.366 -2.485,0.774 -1.091,0.079 -1.039,0.41 -2.348,1.761 -1.259,1.089 -0.015,0.142 0.093,0.146 0.786,0.709 1.316,1.619 0.599,0.554 0.085,-0.018 0.062,-0.155 -0.004,-1.198 0.208,-1.574 0.447,-1.337 0.543,-0.948 0.545,-0.634 0.586,-0.337 0.505,-0.062 0.015,-0.002 c 2.044,0.666 3.173,2.618 3.824,4.54 l 0.143,1.037 0.132,1.183 0.482,-1.235 0.435,-1.029 0.274,-0.918 0.57,-1.213 0.626,-0.851 0.534,-0.663 0.801,-0.674 1.624,-0.755 0.889,-0.029 1.124,0.054 0.978,0.515 0.416,0.168 0.828,-0.03 1.787,-0.55 1.251,-0.783 1.189,-1.148 0.672,-1.08 0.332,-0.838 0.359,-1.413 0.558,-1.799 0.01,-0.512 -0.188,-0.379 -0.155,-0.099 -1.604,-0.441 -0.737,-0.01 -2.063,-0.128 -0.022,-0.001 -0.928,-0.851 -0.435,-0.131 -0.834,0.025 -1.319,0.424 -1.127,0.62 -0.464,0.434 -0.526,0.358 -0.897,0.319 -0.521,-0.167 -0.077,0.074 -0.564,1.214 z m -16.914,-9.971 1.43,2.087 0.557,1.528 0.148,0.427 0.117,0.141 2.649,1.157 1.303,0.46 0.099,-0.03 0.005,-0.343 -0.329,-2.063 -0.294,-2.064 -0.143,-1.037 -0.001,-0.013 0.145,-0.492 0.188,-0.055 0.226,0.688 c 0.599,1.883 0.408,5.849 2.664,6.735 l 0.257,0.19 0.032,-0.033 -0.008,-2.267 -0.469,-2.465 -0.721,-1.926 -0.369,-0.815 -0.388,-1.069 -0.472,-0.747 -0.025,-0.252 0.146,-0.147 0.224,0.051 c 2.368,2.603 2.861,6.927 3.098,10.28 l 0.082,0.454 0.092,0.026 c 3.503,-2.286 4.382,-4.807 4.996,-8.8 l 0.128,-0.204 0.184,0.031 0.11,0.225 -0.031,0.547 -0.332,2.349 -0.655,2.003 -0.263,0.612 0.013,0.076 0.053,0.003 1.019,-0.716 0.99,-1.059 0.692,-1.073 0.898,-1.518 0.187,-0.028 0.037,0.212 -0.446,1.36 -0.486,0.707 -0.317,0.587 -1.39,1.556 -1.454,0.931 -1.276,0.767 -0.75,0.721 -1.18,1.189 -0.642,0.508 -0.11,0.443 0.068,1.411 0.094,0.794 0.043,0.833 0.14,0.418 0.127,0.118 0.502,0.07 0.775,-0.109 1.426,-0.902 0.965,-0.789 1.359,-1.585 1.175,-1.467 1.373,-2.158 0.492,-0.942 -0.101,-1.264 c 0.587,-3.361 0.205,-6.67 -3.794,-7.334 l -1.766,-0.582 -0.722,-0.135 -0.654,0.179 -0.594,0.289 -1.983,0.385 -1.612,-0.131 -1.327,0.438 -0.924,0.267 -1.602,0.178 -0.648,-0.051 -1.316,0.128 -0.386,0.179 -1.101,0.928 -0.24,0.616 z m -2.514,5.884 0.228,0.345 0.157,0.103 0.993,0.181 1.343,0.443 1.46,0.88 0.112,-0.035 0.047,-0.133 -0.268,-1.218 -0.009,-1.158 -0.443,-2.195 -0.332,-0.837 -1.009,-1.33 -0.412,-0.471 -0.158,-0.497 0.058,-0.553 0.393,-1.085 0.388,-0.515 0.029,-0.174 -0.165,-0.38 -1.328,-1.313 -0.284,-0.296 -0.651,-0.532 -1.887,-1.663 -0.128,-0.022 -0.092,0.096 c -0.157,6.218 -4.892,6.02 0.655,10.988 l 0.478,0.418 z m 2.738,9.011 1.221,-0.536 1.674,-0.978 0.296,-0.238 -0.014,-0.086 -0.137,-0.092 -2.843,-0.702 -0.795,0.048 -1.177,0.581 -1.062,0.405 -1.198,0.584 -2.087,0.584 -0.01,0.003 -0.56,-0.024 -0.024,-0.002 -0.155,-0.156 0.155,-0.145 0.509,-0.145 1.873,-0.78 1.594,-0.76 0.573,-0.315 0.043,-0.087 -0.057,-0.079 -0.184,-0.084 -2.089,-0.312 -0.384,-0.235 0.826,-0.187 1.237,-0.097 -0.611,-0.546 -1.636,-0.996 -1.141,-0.354 -0.392,-0.259 0.144,-0.144 1.022,0.165 1.278,0.499 2.305,1.251 0.789,0.672 0.21,0.048 0.693,-0.077 0.633,0.233 0.736,0.142 0.16,-0.069 0.048,-0.135 -0.065,-0.162 -1.247,-1.107 -1.278,-0.772 -1.067,-0.415 -0.408,-0.217 -0.015,-0.009 -0.129,-0.204 0.036,-0.201 0.208,-0.048 2.036,0.668 0.957,0.531 0.984,0.787 0.641,0.543 1.048,1 0.59,0.261 3.03,0.53 h 0.273 l -0.788,-0.324 -2.875,-1.852 -0.964,-0.799 -0.504,-0.384 -1.122,-0.928 -0.743,-0.438 -0.724,-0.442 -0.906,-0.251 -0.823,0.018 -2.392,0.57 -0.01,0.002 -0.977,-0.099 -1.405,-0.121 -1.577,0.343 -0.611,0.533 -0.212,0.341 -0.023,0.846 0.087,0.791 0.212,1.264 0.263,1.788 0.665,1.373 0.583,0.574 0.786,0.668 1.057,0.323 0.699,-0.058 1.586,-0.179 2.057,-0.581 0.587,-0.3 z m 2.866,2.839 0.554,-0.024 c 0.917,-0.228 2.815,-2.124 3.691,-2.767 l 1.047,-0.63 -0.008,-0.038 -0.604,-0.226 -1.894,-0.459 -0.453,0.085 -0.921,0.257 -3.948,1.657 -2.19,0.763 -2.346,0.609 -0.155,0.08 -0.016,0.079 0.276,0.249 c 1.754,0.999 4.194,1.663 6.094,0.716 l 0.339,-0.251 z m -3.227,8.322 1.022,-0.491 0.453,-0.134 0.151,-0.101 0.046,-0.135 -0.431,-1.003 -1.108,-1.528 -1.203,-1.138 -1.266,-0.781 -1.255,-0.464 -1.543,0.369 -0.36,0.47 -0.069,0.503 0.095,0.786 0.938,1.981 0.614,0.847 0.841,0.627 0.937,0.838 0.729,0.751 0.149,0.092 0.107,-0.014 0.209,-0.326 0.324,-0.564 z m -2.29,13.285 0.831,-0.335 2.147,-0.22 0.17,-0.084 0.314,-0.544 0.065,-0.437 -0.076,-0.177 -0.823,-0.659 -0.639,-0.834 -0.344,-0.848 -0.112,-0.146 -0.621,-0.232 -1.151,-0.312 -1.754,-0.005 -1.145,0.033 -0.694,0.074 -1.187,0.092 -1.374,0.378 -1.36,0.687 -0.821,0.636 -0.532,0.912 -0.062,0.513 0.098,0.477 0.373,0.476 0.706,0.447 0.816,0.221 0.379,0.048 0.417,0.163 3.167,-0.004 0.768,-0.119 0.798,-0.089 z m -5.872,6.366 0.725,0.716 0.786,0.366 0.933,0.237 1.035,-0.051 1.412,-0.358 1.599,-0.461 1.09,-0.368 1.892,-1.048 0.707,-0.479 1.51,-0.83 0.604,-0.868 0.051,-0.182 -0.051,-0.131 -0.4,-0.15 -0.712,-0.177 -0.789,-0.433 -0.618,-0.582 -0.688,-1.072 -0.144,-0.123 -0.203,-0.052 -2.614,0.603 -1.682,0.672 -1.598,0.747 -1.247,0.797 -1.301,1.341 -0.305,0.548 -0.158,0.949 z m 3.979,10.229 0.091,-0.39 -0.063,-0.062 -0.142,0.018 -0.371,0.242 -1.534,0.83 -1.17,0.592 -2.181,1.338 -1.209,1.146 -0.649,0.589 -0.209,-0.031 -0.048,-0.205 0.081,-0.219 1.183,-1.259 1.328,-1.041 3.662,-2.211 2.202,-2.202 0.429,-1.016 0.33,-1.432 -0.045,-0.134 -0.171,-0.078 -0.269,-0.009 -1.416,0.37 -2.429,0.803 -1.79,0.849 -1.392,0.962 -0.823,0.645 -0.643,0.553 -0.56,0.307 -0.304,0.266 -0.172,0.383 -0.152,0.728 -0.141,1.027 0.073,0.481 0.072,0.81 0.307,1.156 0.173,0.405 0.783,0.956 0.748,0.402 1.169,0.27 0.588,-0.186 0.012,-0.004 0.71,0.065 0.825,-0.053 0.349,-0.201 1.245,-1.965 1.122,-2.407 z m -0.021,2.07 -0.005,-0.016 -0.66,1.044 -0.835,1.535 -0.495,0.68 -0.354,0.532 -0.245,0.345 -0.051,0.185 0.102,0.408 0.774,1.264 0.653,0.505 0.087,0.018 0.18,-0.281 0.28,-0.893 0.574,-3.541 z m 16.45,-13.028 -0.174,-1.001 -0.076,-0.095 -0.076,0.008 -1.477,1.74 -1.25,0.836 -0.868,0.605 -1.312,0.453 -0.223,0.322 -0.257,1.186 0.029,1.437 0.324,1.124 0.513,0.628 c 2.028,1.262 3.141,-1.74 3.981,-2.958 l 0.724,-1.912 0.21,-1.549 z m 1.126,-3.762 0.927,0.235 0.458,-0.074 c 0.97,-0.7 1.613,-1.897 0.898,-3.012 l -0.457,-0.393 -0.542,-0.321 c -1.705,-0.253 -2.488,0.173 -2.522,1.934 l 0.19,0.678 0.506,0.639 z m 0.517,6.14 0.939,0.504 1.189,0.206 0.586,-0.261 0.843,-0.609 0.178,-0.382 0.024,-0.604 -0.231,-0.641 -0.246,-0.64 -0.234,-0.63 -1.189,-1.747 -0.407,-0.46 -0.195,-0.073 -0.53,0.028 -1.042,0.083 h -0.008 l -0.436,-0.07 -0.129,0.074 -0.132,0.42 -0.088,1.552 0.112,1.058 0.241,0.648 0.115,0.751 z m 4.227,3.335 -0.435,-1.25 -0.297,-0.564 -0.351,-0.21 -0.222,-0.013 -0.494,0.113 -0.867,0.037 -1.002,-0.181 -1.228,-0.754 -0.04,0.04 -0.031,0.216 0.161,1.043 0.385,1.666 0.732,1.906 0.445,0.715 0.679,0.469 0.893,0.28 0.42,0.019 0.612,-0.247 0.302,-0.256 0.367,-0.778 0.059,-0.805 z m 6.672,-0.828 -0.87,-0.9 -1.524,-1.994 -0.344,-0.212 h -0.211 l -0.955,0.247 -1.153,0.033 -1.531,-0.547 -0.103,0.032 -0.139,0.683 0.009,0.394 0.366,0.489 0.227,0.671 0.309,0.562 1.449,1.469 1.595,1.041 0.838,0.339 h 0.448 l 0.832,-0.336 0.487,-0.366 0.197,-0.363 0.186,-0.922 z m 6.87,-1.408 -0.358,-0.193 -1.769,-0.596 -1.22,-0.551 -1.568,-0.793 -1.898,-1.044 -0.603,-0.28 -0.648,-0.54 -0.729,-0.473 -0.143,-0.019 -0.059,0.059 0.206,1.168 0.001,0.01 -0.133,0.741 0.09,0.468 0.793,1.244 0.838,0.917 1.095,0.65 1.033,0.436 0.848,0.315 1.287,0.182 1.459,-0.009 1.097,-0.347 0.267,-0.286 0.192,-0.383 0.009,-0.501 z m 3.106,-3.432 -0.31,-0.541 -0.356,-0.198 -2.044,-0.427 -2.625,-0.804 -2.237,-1.016 -0.533,-0.339 -0.814,-0.363 -0.44,-0.005 -1.401,0.657 -1.317,0.186 -0.179,0.075 -0.042,0.125 0.065,0.163 0.584,0.592 1.274,0.799 0.65,0.515 1.882,1.059 0.806,0.381 0.723,0.443 1.675,0.669 2.149,0.495 1.131,-0.009 0.391,-0.168 0.588,-0.559 0.373,-0.777 0.102,-0.478 z m -0.02,-7.265 -1.012,-0.165 -1.278,0.195 -0.78,0.113 h -1.167 l -0.407,0.161 -0.598,0.298 -1.559,0.507 -0.682,0.202 -0.888,0.002 -0.167,0.077 -0.155,0.391 -0.076,0.79 0.061,0.212 0.29,0.257 1.31,0.743 1.044,0.421 0.689,0.21 0.575,0.296 2.005,0.636 3.027,0.523 0.649,-0.093 1.268,-0.49 0.265,-0.292 0.433,-1.008 0.215,-1.259 -0.029,-0.547 -0.375,-0.773 -0.382,-0.487 -0.905,-0.541 z m -12.179,-22.347 -0.544,-0.302 c -4.268,-1.22 -5.883,4.893 -6.617,7.873 l -0.005,1.698 0.862,1.492 0.339,1.119 0.129,0.125 0.201,0.052 0.726,-0.143 0.328,-0.224 0.56,-0.619 1.503,-0.865 0.637,-0.813 c 2.122,-3.025 2.029,-2.891 2.814,-6.285 v -0.858 l -0.446,-1.592 z m -20.213,7.86 0.454,1.01 1.114,1.817 0.677,0.501 0.421,0.461 0.58,0.612 0.975,1.389 0.442,0.736 0.103,0.084 0.092,-0.016 0.511,-0.644 1.237,-0.858 0.34,-0.228 0.052,-0.163 -1.037,-3.664 -0.228,-0.937 -1.425,-2.09 -0.79,-0.975 -0.667,-0.786 -1.012,-0.742 -0.595,-0.284 -0.494,-0.056 -0.398,0.168 -0.356,0.484 -0.334,0.831 -0.05,1.399 z m -1.551,3.043 -0.577,0.274 -0.388,0.463 -0.228,0.635 0.028,0.527 0.119,0.775 0.082,0.792 0.323,0.833 0.518,0.656 0.346,0.521 0.442,0.442 0.216,0.382 0.14,0.115 2.767,0.465 0.68,0.207 1.761,0.626 0.16,0.013 0.08,-0.081 0.019,-0.821 -0.52,-1.821 L 8.257,-52.776 6.9,-54.936 5.732,-56.115 5.234,-56.487 4.485,-56.9 3.567,-57.078 Z m 10.742,14.428 -0.173,-0.019 -1.193,0.565 -1.625,0.444 -1.943,0.424 -0.812,0.062 -0.624,0.233 -0.745,0.698 -0.309,0.548 -0.101,0.478 0.029,0.546 0.262,0.601 0.55,0.597 1.357,0.672 0.832,0.019 0.894,-0.278 0.474,-0.102 1.661,-1.251 1.149,-1.199 0.754,-1.006 0.128,-0.545 0.024,-0.661 -0.307,-0.557 z m -7.391,-30.813 1.608,1.031 1.233,0.543 2.086,1.17 0.501,0.405 0.116,0.036 0.074,-0.075 0.02,-1.413 -0.285,-1.786 -0.02,-0.856 -0.139,-0.416 -0.94,-0.789 -1.315,-0.732 -1.105,-0.374 -0.826,-0.347 -0.885,-0.31 -1.81,-1.027 -0.038,0.037 -0.011,0.814 0.133,0.754 0.158,1.321 0.039,0.826 0.233,0.316 z m 1.846,41.757 -0.118,-1.086 -0.059,-0.829 v -0.591 l -0.077,-0.175 -0.123,-0.042 -0.152,0.076 -0.683,0.815 -0.753,0.726 -0.098,0.155 0.004,0.125 0.298,0.24 0.705,0.475 1.369,0.832 z m 6.108,-14.745 0.066,-0.407 -0.073,-0.841 -0.35,-2.309 -0.322,-2.305 -0.148,-0.762 -0.025,-0.551 -0.179,-0.37 -0.525,-0.32 -0.708,-0.162 -0.501,0.041 -0.804,0.351 -0.542,0.599 -0.282,0.878 0.081,0.767 0.207,0.976 0.162,1.031 0.002,0.01 -0.123,0.758 0.036,0.153 0.493,0.352 3.464,2.121 z m 7.118,9.028 1.251,0.214 0.576,-0.01 0.21,-0.058 0.629,-0.515 0.095,-0.164 0.04,-1.104 -0.132,-0.433 -0.468,-0.678 -0.928,-0.515 -0.638,-0.246 -0.483,-0.408 -2.915,-0.624 -0.261,-0.005 -0.174,0.082 -0.041,0.121 0.365,0.491 0.743,1.041 0.729,1.622 0.311,0.55 z m -11.195,-10.559 -0.691,-0.47 -2.091,-0.847 -1.155,-0.309 -1.297,-0.164 -1.411,0.057 -0.762,0.38 -0.367,0.471 -0.067,0.799 0.093,0.477 0.52,0.626 0.603,0.564 2.195,1.017 1.854,0.49 0.851,0.04 0.767,0.118 1.259,0.21 0.802,0.085 1.32,0.161 0.553,-0.034 0.172,-0.08 0.191,-0.351 0.18,-0.702 v -0.217 l -0.21,-0.344 -1.549,-1.075 z m -2.473,6.043 0.765,-0.143 c 1.554,-0.108 3.171,-0.517 4.528,-1.31 l 0.003,-0.009 -0.564,-0.174 -1.145,-0.035 c -2.464,-0.582 -3.463,-0.311 -5.896,-1.199 l -1.204,-0.586 -0.142,-0.019 -0.079,0.06 -0.276,1.381 0.463,0.978 0.567,0.577 1.307,0.435 0.517,0.039 0.636,-0.02 z m 13.221,-13.899 0.073,0.438 0.295,0.586 0.06,1.155 -0.03,0.867 -0.281,1.197 -0.27,0.905 -0.18,0.727 -0.171,0.404 0.002,0.05 h 0.039 l 0.696,-0.478 c 3.424,-1.969 2.17,-0.599 4.651,-4.141 l 0.265,-0.9 -0.029,-0.478 -0.149,-0.729 -0.229,-0.332 -0.622,-0.535 -0.583,-0.277 -0.51,-0.061 -1.213,0.251 -1.298,0.743 -0.331,0.242 z m -9.886,-5.194 0.058,0.82 0.119,0.747 0.254,0.645 0.132,0.747 0.593,2.351 0.135,0.421 0.374,0.19 0.432,0.036 0.114,-0.11 0.157,-0.71 0.116,-0.783 0.487,-1.283 0.429,-0.486 0.937,-0.575 0.406,-0.162 0.114,-0.137 0.177,-0.971 -0.004,-2.637 -0.433,-1.318 -0.342,-0.818 -0.854,-1.188 -1.424,-1.218 -0.422,-0.12 -0.396,0.127 -0.489,0.66 -0.428,0.739 -0.38,1.657 -10e-4,2.622 z m 12.927,10.675 -1.127,0.33 -1.51,0.826 -1.53,1.421 -0.469,0.402 -0.795,1.252 -0.1,0.401 0.27,0.558 0.286,0.26 0.458,-0.018 2.211,-0.729 2.455,-1.357 0.926,-0.83 0.522,-0.627 0.011,-0.377 -0.154,-0.722 -0.245,-0.309 -0.716,-0.434 z m -3.66,-1.304 0.282,-0.879 0.117,-1.828 -0.138,-0.338 -0.455,-0.422 -0.349,-0.18 -0.384,0.051 -0.872,0.578 -0.571,0.866 -0.682,1.969 -0.651,1.989 -0.264,1.494 -0.02,1.189 -0.032,0.391 0.078,0.085 1.105,0.334 0.194,-0.039 0.31,-0.257 0.66,-1.088 0.892,-1.754 0.44,-1.025 z m 7.073,8.526 0.168,-0.392 0.02,-0.839 -0.161,-0.391 -0.49,-0.358 -1.27,-0.474 -0.815,-0.055 -0.797,0.105 -1.058,0.092 -2.32,0.923 -0.716,0.154 -0.81,0.334 -0.157,0.395 -0.229,0.669 -0.012,0.179 0.08,0.126 0.668,0.204 2.118,0.519 2.021,0.044 1.73,-0.086 0.938,-0.23 0.531,-0.329 z m -12.84,-7.71 0.169,0.728 0.122,1.052 0.182,1.002 0.083,0.794 0.19,0.387 0.085,0.032 0.086,-0.075 0.161,-0.717 0.123,-1.061 0.455,-2.207 0.368,-1.108 0.844,-2.115 0.427,-0.773 0.21,-0.278 -0.312,-1.584 -0.319,-0.844 -0.546,-0.603 c -1.86,-1.09 -2.648,1.364 -2.734,2.786 l 0.01,1.747 0.408,2.237 z m -7.062,15.398 -0.017,-0.163 -0.287,-0.46 -0.108,-0.28 -0.955,-0.795 -0.432,-0.779 -0.18,-0.727 -0.089,-0.133 -0.115,-0.028 -1.093,0.629 -1.241,1.104 -0.664,0.801 -0.351,0.524 -0.497,0.97 -0.099,0.445 0.155,0.638 0.277,0.601 0.398,0.455 0.585,0.265 0.827,0.019 0.874,-0.283 0.755,-0.405 1.107,-0.939 0.514,-0.671 0.567,-0.616 z m -15.854,-12.945 0.026,0.026 1.389,-0.585 1.609,-0.463 1.3,-0.183 0.6,-0.005 0.121,-0.041 -0.002,-0.025 -1.538,-0.783 -1.242,-0.532 -0.784,-0.393 -0.61,-0.284 -0.909,-0.559 h -0.034 l 0.024,0.297 0.168,1.054 0.047,1.564 z m 19.024,28.541 1.363,-0.381 0.541,-0.603 0.244,-0.578 -0.25,-1.437 -0.753,-2.182 -0.593,-1.172 -0.516,-0.945 -1.292,-1.646 -1.433,-1.502 -0.558,-0.332 -0.768,-0.691 -0.729,-0.461 -0.467,-0.387 -0.138,-0.015 -0.555,0.319 -1.351,0.428 -0.109,0.105 v 0.129 l 0.258,0.309 1.258,1.674 0.583,0.291 0.888,0.584 0.916,0.569 c 1.504,1.049 2.306,1.909 3.657,3.138 l 0.675,0.815 0.525,0.991 -0.03,0.214 h -0.197 l -0.759,-0.768 -1.644,-1.587 -2.68,-2.029 -0.495,-0.277 -0.006,0.007 0.32,0.741 c 0.708,0.811 2.788,4.563 2.854,5.766 l -0.078,0.232 -0.202,0.015 -0.153,-0.164 -0.461,-1.068 -1.393,-2.434 -0.344,-0.541 -1.34,-2.194 -0.46,-0.714 -1.73,-2.387 -1.127,-1.246 -0.45,-0.713 -0.944,-1.046 -0.058,0.012 -0.07,0.143 -0.019,0.552 0.24,0.955 0.061,0.806 0.591,1.754 0.4,0.772 2.166,3.421 0.565,0.651 0.227,0.361 -0.134,0.134 -0.438,-0.134 -0.885,-0.659 -1.319,-1.633 -0.841,-1.205 -0.013,-0.003 -0.026,0.095 c 0.231,2.688 -0.537,7.415 -1.769,9.829 l -0.208,0.049 -0.149,-0.15 -0.006,-0.21 0.169,-0.443 0.692,-2.85 0.397,-2.539 0.015,-3.82 -0.094,-0.792 -0.072,-0.803 -0.338,-1.629 -0.022,0.001 -0.095,0.126 -0.937,2.616 -0.087,0.463 0.107,0.487 0.039,2.636 -0.093,0.788 -0.086,1.108 -1.016,3.418 -0.107,0.396 0.196,0.32 0.857,0.598 1.352,0.698 0.749,0.129 0.783,-0.094 0.86,-0.301 0.487,-0.364 0.364,-0.786 0.479,-1.276 0.206,-1.266 0.235,-1.548 0.004,-0.017 0.156,-0.185 0.237,-0.054 0.637,0.277 0.778,0.714 1.518,0.812 2.747,0.784 z m -17.722,-18.625 -10e-4,-0.008 0.108,-0.806 -0.028,-0.107 -0.109,-0.03 -1.509,0.536 -1.594,0.747 -0.814,0.919 -0.293,0.874 -0.024,0.478 0.371,1.356 0.005,0.018 -0.065,0.194 -0.456,0.461 -0.644,1.099 -0.129,0.746 0.091,0.786 0.699,1.328 0.829,0.934 0.286,0.204 0.118,-0.032 0.284,-0.283 0.492,-0.39 0.617,-0.576 1.414,-0.942 1.754,-1.21 2.457,-1.073 1.352,-0.684 10e-4,-0.009 -0.894,-0.174 c -3.22,-0.282 -4.459,-0.087 -7.662,0.848 l -0.225,-0.068 0.008,-0.185 0.181,-0.14 0.466,-0.186 2.955,-0.886 0.755,-0.128 0.743,-0.143 1.773,-0.304 0.009,-0.002 0.796,0.099 3.036,0.221 0.529,-0.042 0.125,-0.116 0.064,-0.213 0.301,-0.876 -0.009,-0.075 -0.09,-0.017 c -3.099,0.562 -5.044,1.959 -7.626,-0.75 l -0.332,-0.58 z m 0.479,-18.337 -1.283,-0.185 -1.316,0.155 -0.399,0.158 -0.235,0.308 -0.075,0.505 0.08,0.507 0.485,0.957 0.661,0.791 1.361,0.982 0.791,0.387 1.594,0.761 1.435,0.621 1.977,0.672 0.684,0.202 2.011,0.647 0.484,0.027 0.178,-0.076 0.379,-0.493 0.504,-0.394 0.081,-0.181 v -0.205 l -0.22,-0.349 -0.82,-0.646 -0.602,-0.563 -2.294,-1.537 -2.456,-1.663 -1.135,-0.626 -1.217,-0.543 z m -2.094,-1.41 -0.1,-0.448 -0.591,-0.871 -0.644,-0.819 -0.667,-0.511 -0.439,-0.429 -1.266,-0.55 -0.017,-0.193 0.234,-0.08 1.24,0.274 0.761,0.454 0.84,0.654 1.043,1.331 0.403,0.776 0.102,0.495 0.096,0.155 0.404,0.147 1.225,0.269 0.202,-0.009 0.143,-0.087 0.133,-0.425 -0.028,-1.132 -0.119,-0.769 -0.081,-0.791 -0.371,-1.386 -0.452,-0.694 -0.892,-0.861 -0.579,-0.283 -0.963,-0.192 -0.717,0.124 -0.582,0.298 -1.296,0.484 -1.941,0.398 -0.787,0.38 -0.767,0.677 -1.138,1.531 -0.45,0.4 0.015,0.069 0.388,0.143 2.682,0.583 1.685,0.681 1.365,0.713 0.337,0.219 0.144,0.016 0.76,-0.37 0.474,-0.106 0.151,-0.104 z m 31.438,44.629 0.182,-0.009 0.48,0.049 0.378,0.245 0.459,0.109 1.032,0.137 1.134,-0.014 1.676,-0.656 0.916,-0.536 0.615,-0.593 0.389,-0.238 0.213,0.042 0.035,0.207 -0.243,0.384 -0.692,0.518 -0.252,0.318 -0.124,0.429 0.026,0.107 0.164,0.067 c 0.527,-0.004 1.053,-0.009 1.58,-0.007 0.13,0 0.263,0.013 0.387,0.047 0.285,0.078 0.562,0.177 0.847,0.249 l 0.834,0.108 0.728,-0.131 0.007,-0.002 1.913,0.138 0.752,-0.123 1.44,-0.018 0.714,-0.162 0.115,-0.128 0.012,-0.18 -0.082,-0.186 -0.89,-0.875 -0.927,-0.522 -1.455,-0.292 -0.84,-0.035 -0.759,0.144 -1.448,-0.022 -1.662,-0.409 -1.513,-0.538 -1.109,-0.059 -1.524,0.235 -1.211,0.551 -0.522,0.081 -0.281,0.266 -1.329,1.04 -0.178,0.252 z m 0.979,1.709 c 0.266,-0.055 0.517,-0.194 0.804,-0.137 0.103,0.02 0.166,-0.043 0.201,-0.146 0.022,-0.063 0.066,-0.135 0.121,-0.168 0.095,-0.056 0.198,-0.09 0.297,-0.132 l -0.827,-0.109 c -1.11,0.102 -3.504,-0.702 -4.601,-0.629 l -0.039,0.038 0.048,0.089 0.469,0.44 0.324,0.571 0.666,0.803 0.401,0.435 c 0.101,-0.008 0.202,-0.015 0.306,-0.017 0.155,-0.003 0.316,-0.018 0.464,-0.061 0.296,-0.087 0.592,-0.102 0.893,-0.056 0.059,0.008 0.117,0.019 0.175,0.023 0.084,0.007 0.113,-0.036 0.111,-0.12 -0.005,-0.195 -0.007,-0.39 -10e-4,-0.586 0.004,-0.142 0.054,-0.209 0.188,-0.238 m -23.432,9.096 c 0.098,-0.115 0.121,-0.226 0.041,-0.358 -0.099,-0.161 -0.198,-0.323 -0.288,-0.489 -0.132,-0.245 -0.269,-0.489 -0.379,-0.745 -0.052,-0.121 -0.057,-0.264 -0.153,-0.371 -0.018,-0.021 -0.014,-0.063 -0.019,-0.095 -0.037,-0.212 -0.067,-0.425 -0.113,-0.635 -0.032,-0.146 -0.028,-0.282 0.01,-0.426 0.043,-0.157 0.073,-0.318 0.092,-0.48 0.024,-0.207 0.107,-0.399 0.224,-0.554 0.118,-0.157 0.292,-0.281 0.462,-0.386 0.153,-0.095 0.334,-0.147 0.503,-0.215 0.299,-0.121 0.615,-0.183 0.927,-0.245 l 0.088,-0.06 0.813,-0.647 0.024,-0.026 c 0,-0.01 -0.003,-0.019 -0.003,-0.029 0.003,-0.091 -10e-4,-0.183 -0.003,-0.275 -0.004,-0.266 0.108,-0.364 0.374,-0.343 0.117,0.009 0.235,0.008 0.352,0.009 l 0.043,-0.026 0.002,-0.01 -0.4,-0.071 c -1.729,0.343 -2.767,1.317 -5.156,1.021 l -1.467,-0.222 -0.046,0.046 0.538,1.134 0.66,1.705 0.447,1.598 0.52,0.939 0.446,0.408 0.833,0.316 0.248,0.045 c 0.117,-0.177 0.243,-0.349 0.38,-0.513 M 4.17,-4.936 c 0.042,-0.034 0.133,-0.054 0.176,-0.03 0.142,0.075 0.289,0.157 0.404,0.267 0.237,0.226 0.526,0.366 0.808,0.514 0.159,0.083 0.346,0.111 0.518,0.172 0.115,0.041 0.227,0.097 0.34,0.146 0.018,0.008 0.036,0.025 0.052,0.024 0.281,-0.012 0.487,0.23 0.766,0.219 l 0.019,0.005 c 0.614,0.26 1.262,0.306 1.917,0.306 0.236,0 0.472,-0.002 0.707,0.002 0.368,0.008 0.724,-10e-4 1.079,-0.146 0.253,-0.103 0.497,-0.21 0.688,-0.398 0.126,-0.125 0.208,-0.297 0.307,-0.45 0.012,-0.02 0.01,-0.05 0.011,-0.077 0.003,-0.175 0.012,-0.351 0.005,-0.527 -0.004,-0.087 -0.036,-0.175 -0.062,-0.262 -0.017,-0.055 -0.061,-0.106 -0.067,-0.161 -0.034,-0.338 -0.216,-0.61 -0.384,-0.889 -0.064,-0.104 -0.139,-0.205 -0.304,-0.226 -0.006,0.07 -0.015,0.131 -0.017,0.191 -0.008,0.195 -0.014,0.391 -0.022,0.587 -0.001,0.026 -0.005,0.053 -0.014,0.077 -0.078,0.208 -0.148,0.418 -0.238,0.62 -0.147,0.328 -0.432,0.456 -0.77,0.49 -0.039,0.004 -0.109,-0.017 -0.117,-0.04 -0.012,-0.042 0,-0.105 0.027,-0.14 0.155,-0.199 0.256,-0.421 0.305,-0.669 0.007,-0.037 0.021,-0.08 0.047,-0.105 0.104,-0.095 0.11,-0.214 0.107,-0.342 C 10.452,-5.975 10.45,-6.172 10.46,-6.368 10.481,-6.76 10.16,-7.017 9.72,-6.819 9.46,-6.702 9.202,-6.576 8.925,-6.5 8.839,-6.476 8.762,-6.416 8.687,-6.366 8.608,-6.316 8.572,-6.237 8.592,-6.146 8.626,-5.985 8.575,-5.853 8.493,-5.72 8.41,-5.587 8.363,-5.431 8.272,-5.307 8.079,-5.042 7.811,-4.865 7.52,-4.722 7.431,-4.679 7.329,-4.715 7.276,-4.792 7.228,-4.862 7.238,-4.926 7.344,-5.007 7.631,-5.228 7.727,-5.539 7.755,-5.876 7.769,-6.045 7.754,-6.216 7.754,-6.386 7.754,-6.51 7.758,-6.635 7.76,-6.759 7.761,-6.911 7.708,-6.955 7.567,-6.893 7.382,-6.81 7.206,-6.708 7.024,-6.618 6.715,-6.465 6.405,-6.316 6.095,-6.165 5.971,-6.105 5.844,-6.052 5.727,-5.982 5.548,-5.874 5.347,-5.846 5.152,-5.795 5.037,-5.765 4.945,-5.782 4.884,-5.894 4.836,-5.983 4.751,-6.01 4.66,-6.036 4.561,-6.064 4.464,-6.103 4.373,-6.151 4.153,-6.267 3.949,-6.423 3.717,-6.5 3.522,-6.564 3.364,-6.664 3.21,-6.783 3.143,-6.836 3.081,-6.895 3.013,-6.946 2.977,-6.972 2.928,-7.007 2.892,-7 2.672,-6.957 2.448,-7.054 2.231,-6.97 2.184,-6.953 2.124,-6.948 2.077,-6.961 1.885,-7.015 1.699,-6.973 1.512,-6.943 c -0.068,0.01 -0.137,0.018 -0.205,0.026 -0.143,0.054 -0.643,0.271 -1.008,0.43 -0.065,0.059 -0.125,0.125 -0.176,0.195 -0.064,0.086 -0.103,0.193 -0.14,0.296 -0.042,0.123 -0.068,0.252 -0.105,0.377 -0.039,0.138 -0.028,0.267 0.017,0.404 0.048,0.148 0.069,0.304 0.102,0.457 0.01,0.05 0.011,0.107 0.033,0.152 0.158,0.329 0.312,0.66 0.484,0.982 0.059,0.113 0.159,0.205 0.247,0.301 0.076,0.082 0.177,0.102 0.268,0.037 0.243,-0.175 0.527,-0.208 0.81,-0.266 0.259,-0.052 0.535,-0.078 0.763,-0.239 0.016,-0.011 0.036,-0.021 0.055,-0.021 0.405,-0.009 0.777,-0.226 1.192,-0.193 0.169,0.014 0.34,-0.009 0.509,-0.022 C 4.531,-4.039 4.552,-4.081 4.465,-4.234 4.423,-4.307 4.371,-4.375 4.329,-4.45 4.268,-4.557 4.204,-4.665 4.156,-4.779 4.138,-4.824 4.141,-4.913 4.17,-4.936 m 52.252,-45.067 -0.085,0.233 -0.189,0.041 -1.2,-0.308 -0.958,-0.221 -0.739,-0.47 -0.433,-0.472 -0.368,-0.856 -0.143,-0.748 -0.054,-0.82 -0.358,-0.784 c -2.191,-2.005 -3.285,0.035 -6.044,-2.18 l -0.89,-0.569 -0.707,-0.167 -0.776,0.091 -0.804,0.345 -0.535,0.611 -0.273,0.59 -0.58,1.775 -0.506,1.853 -0.139,0.446 0.045,0.498 c 0.832,1.636 0.533,3.217 -0.962,4.255 l -0.775,0.417 -0.66,0.223 -0.066,0.084 0.027,0.06 0.424,0.122 2.611,0.224 0.328,-0.154 0.128,-0.132 0.109,-0.458 0.226,-2.138 0.206,-0.966 c 0.15,-2.063 0.988,-4.888 2.42,-6.502 l 0.218,-0.122 0.196,0.03 0.031,0.196 -1.104,2.165 -0.674,2.816 0.032,0.094 0.057,0.013 1.622,-1.556 0.654,-0.508 0.698,-0.795 0.88,-0.634 0.215,-0.068 0.119,0.119 -1.236,1.456 -1.425,1.511 -1.26,1.681 -0.759,1.287 -0.358,1.699 -0.192,0.676 0.05,0.172 0.129,0.117 0.79,0.101 0.275,-0.014 0.188,-0.072 0.658,-1.084 0.469,-0.716 1.265,-1.689 2.221,-2.495 0.577,-0.356 0.123,0.125 -0.983,1.403 -0.377,0.504 -0.584,0.901 -0.552,0.618 -1.315,1.912 -0.378,0.798 -0.003,0.139 0.098,0.099 0.521,0.074 0.506,-0.075 0.619,-0.514 0.637,-0.854 1.508,-1.439 1.703,-1.552 0.721,-0.471 0.013,-0.01 0.227,-0.011 -0.15,0.37 -1.234,1.197 -0.469,0.4 -0.532,0.651 -0.701,0.768 -1.196,1.471 -0.065,0.171 0.021,0.126 0.336,0.185 0.631,0.249 0.416,-0.023 c 3.357,0.061 4.918,-0.856 7.409,-3.185 l 0.016,-0.015 0.206,-0.019 -0.083,0.427 -0.464,0.488 -1.434,1.227 -1.036,0.733 -2.165,0.808 -0.474,0.125 -0.119,0.096 0.002,0.08 0.32,0.208 2.667,1.182 0.762,0.417 0.77,0.442 0.169,0.17 v 0.207 l -0.686,-0.079 -0.165,0.068 -0.293,0.312 -0.732,0.177 -0.986,0.197 -1.805,0.266 -1.171,0.02 -0.146,0.068 -0.008,0.048 0.288,0.192 1.213,0.277 1.414,0.641 1.776,0.593 1.194,0.614 0.141,0.176 -0.127,0.136 -0.475,-0.084 -1.23,-0.565 -0.963,-0.223 -1.793,-0.565 -0.688,-0.203 -0.621,-0.253 -0.947,-0.243 -1.037,-0.437 -1.032,-0.451 -0.733,-0.427 -0.728,-0.147 -0.109,0.027 -0.03,0.111 c 0.631,2.622 0.993,3.665 2.96,5.595 l -0.008,0.194 -0.214,0.037 -0.404,-0.241 -0.905,-0.877 -0.707,-0.766 -0.816,-1.877 -0.586,-2.052 -0.366,-0.49 -0.492,-0.368 -1.672,-0.682 -0.796,-0.397 -0.188,-0.021 -0.152,0.071 -0.089,0.172 -0.106,1.073 -0.038,0.486 0.082,0.182 1.036,1.032 0.236,0.354 0.488,1.58 0.523,0.934 0.539,0.626 0.641,0.552 0.401,0.462 0.707,0.49 0.289,0.34 -0.113,0.111 -0.856,-0.328 -0.84,-0.665 -1.091,-0.994 -0.708,-1.078 -0.624,-1.718 -0.442,-0.728 -0.149,-0.123 -0.212,-0.062 -0.232,0.017 -0.175,0.094 -0.462,0.715 -0.151,0.277 0.263,0.527 0.329,0.555 0.489,1.896 0.135,0.737 c 0.593,2.478 3.047,5.868 6.008,4.54 l 0.664,-0.5 1.165,-0.899 0.691,-0.227 0.939,-0.228 1.071,-0.671 0.234,-0.326 0.017,-0.189 -0.162,-0.386 -0.673,-0.803 -0.179,-0.461 0.206,-0.99 0.207,-0.405 0.358,-0.288 0.801,-0.368 0.21,-0.01 0.409,0.171 0.658,-0.043 0.749,0.108 1.167,0.026 0.953,0.231 0.216,0.148 0.108,0.252 -0.036,0.277 -0.191,0.193 -0.514,-0.049 -0.974,-0.219 -1.277,-0.128 -1.162,0.073 -0.903,0.483 -0.11,0.157 -0.025,0.209 0.175,0.403 0.715,0.747 0.151,0.482 0.003,0.011 -0.049,0.841 -0.359,0.565 -0.493,0.416 -2.506,0.755 c -2.655,2.693 -5.502,1.996 -7.56,-0.821 l -0.595,-0.88 -0.819,-2.45 -0.568,-2.063 -0.309,-0.561 -0.253,-0.322 -0.161,-0.104 -0.517,-0.037 -0.429,0.141 -0.061,0.109 0.145,1.089 0.002,0.009 -0.116,0.76 -0.507,0.991 -0.627,0.583 -0.636,0.276 -0.857,0.044 -0.165,0.087 -0.064,0.148 0.039,0.646 -0.309,0.89 -0.269,0.348 -0.631,0.311 -0.985,0.209 -1.748,-0.031 -0.768,-0.118 -0.758,-0.128 -0.98,-0.216 -0.402,-0.032 -0.129,0.082 -0.584,1.188 -0.5,0.678 -0.346,0.268 -1.007,0.217 -0.009,0.003 -0.531,-0.046 -1.09,-0.428 -2.584,-1.817 -0.046,-0.002 -0.034,0.189 0.09,1.013 -0.06,1.129 -0.442,1.058 -0.461,0.457 -0.577,0.328 -0.738,0.179 -0.008,0.002 -0.553,-0.015 -1.11,-0.397 -1.038,-1.081 -0.571,-0.923 -0.918,-2.897 -0.033,-0.024 -0.183,0.236 c -0.975,1.539 -2.099,3.494 -4.146,3.623 l -0.676,-0.103 0.698,0.935 0.806,0.975 1.109,1.848 0.911,2.049 0.458,1.901 0.001,0.007 -0.021,1.162 -0.182,0.703 -0.431,0.51 -0.679,0.5 -0.093,0.144 -0.008,0.151 0.871,1.47 0.311,0.575 0.696,1.337 0.997,0.441 1.977,0.666 1.97,0.391 0.98,-0.087 1.078,0.087 0.985,-0.178 0.577,-0.289 1.109,-0.665 1.182,-0.598 1.749,-0.609 1.137,-0.062 0.698,-0.078 0.009,-0.001 1.292,0.24 1.494,0.557 1.387,0.084 0.758,0.131 1.329,-0.172 0.84,0.066 0.943,0.241 0.888,0.29 2.456,2.323 0.084,0.226 0.005,0.016 -0.051,0.253 -0.704,0.824 -0.854,0.931 -0.655,0.485 c -0.007,0.022 -0.013,0.045 -0.02,0.068 -0.035,0.099 -0.072,0.2 -0.08,0.302 -0.011,0.135 -0.035,0.256 -0.126,0.362 -0.037,0.043 -0.064,0.106 -0.066,0.161 -0.005,0.138 -0.061,0.25 -0.138,0.358 -0.049,0.069 -0.091,0.144 -0.129,0.22 -0.059,0.114 -0.112,0.23 -0.18,0.374 0.112,0.016 0.188,0.023 0.263,0.038 0.095,0.017 0.197,0.026 0.285,0.065 0.347,0.151 0.679,0.335 0.977,0.572 0.335,0.265 0.628,0.571 0.885,0.914 0.286,0.38 0.383,0.84 0.56,1.267 0.022,0.051 0.017,0.115 0.018,0.174 0.002,0.361 0.007,0.721 0.002,1.081 -0.002,0.122 -0.014,0.251 -0.05,0.368 -0.086,0.278 -0.177,0.557 -0.289,0.826 -0.075,0.179 -0.173,0.354 -0.292,0.508 -0.139,0.179 -0.303,0.342 -0.472,0.494 -0.288,0.256 -0.535,0.561 -0.891,0.732 -0.183,0.088 -0.367,0.174 -0.547,0.266 -0.17,0.087 -0.339,0.168 -0.538,0.164 -0.036,-0.001 -0.08,0.014 -0.109,0.037 -0.164,0.125 -0.353,0.128 -0.544,0.112 -0.14,-0.013 -0.276,-0.008 -0.403,0.056 -0.169,0.086 -0.35,0.103 -0.534,0.111 -0.06,0.002 -0.119,0.001 -0.177,0.01 -0.133,0.022 -0.167,0.054 -0.178,0.19 -0.018,0.229 -0.027,0.458 -0.037,0.687 -0.005,0.112 0.04,0.191 0.136,0.261 0.249,0.18 0.505,0.355 0.726,0.566 0.545,0.52 1.112,1.013 1.695,1.491 0.206,0.17 0.391,0.367 0.592,0.545 0.67,0.596 1.337,1.195 1.948,1.853 0.031,0.034 0.065,0.066 0.103,0.09 0.31,0.201 0.481,0.508 0.621,0.835 0.014,0.031 0.014,0.082 -0.002,0.111 C 40.275,6.321 40.192,6.464 39.998,6.479 39.725,6.5 39.453,6.532 39.18,6.551 38.821,6.576 38.461,6.605 38.101,6.612 37.565,6.622 37.028,6.618 36.491,6.613 36.059,6.61 35.626,6.605 35.203,6.495 35.147,6.48 35.086,6.483 35.028,6.481 34.622,6.463 34.221,6.423 33.82,6.339 33.515,6.276 33.197,6.277 32.885,6.252 32.774,6.244 32.71,6.303 32.656,6.4 c -0.189,0.337 -0.383,0.671 -0.587,0.997 -0.086,0.139 -0.097,0.26 -0.016,0.402 0.131,0.225 0.204,0.474 0.287,0.72 0.079,0.232 0.177,0.458 0.242,0.697 0.084,0.3 0.188,0.594 0.281,0.892 0.008,0.024 0.004,0.052 0.01,0.078 0.057,0.252 0.154,0.498 0.165,0.761 0,0.025 0.02,0.049 0.029,0.073 0.029,0.087 0.053,0.176 0.086,0.261 0.042,0.11 0.005,0.188 -0.077,0.261 -0.087,0.078 -0.181,0.143 -0.3,0.088 -0.289,-0.133 -0.61,-0.203 -0.859,-0.42 -0.065,-0.058 -0.144,-0.101 -0.23,-0.039 -0.057,0.041 -0.045,0.122 0.047,0.221 0.084,0.088 0.105,0.188 0.117,0.302 0.016,0.135 0.056,0.266 0.083,0.4 0.024,0.115 0.044,0.23 0.066,0.344 0.024,0.121 0.047,0.242 0.074,0.363 0.033,0.152 0.071,0.303 0.106,0.454 0.023,0.101 0.031,0.21 0.073,0.302 0.053,0.117 0.081,0.234 0.072,0.36 -0.008,0.129 0.021,0.247 0.084,0.359 0.072,0.127 0.106,0.264 0.113,0.412 0.003,0.082 0.034,0.164 0.057,0.245 0.091,0.333 0.201,0.661 0.27,0.997 0.035,0.172 0.026,0.35 0.114,0.512 0.023,0.042 0.016,0.102 0.019,0.154 0.006,0.091 0.006,0.184 0.014,0.274 0.019,0.242 0.033,0.482 0.109,0.717 0.065,0.2 -0.068,0.488 -0.231,0.497 -0.212,0.013 -0.427,0.019 -0.622,-0.114 -0.232,-0.159 -0.48,-0.292 -0.72,-0.436 -0.118,-0.07 -0.24,-0.134 -0.355,-0.209 -0.213,-0.14 -0.418,-0.292 -0.635,-0.425 -0.377,-0.233 -0.76,-0.458 -1.141,-0.683 -0.429,-0.253 -0.839,-0.529 -1.225,-0.848 -0.49,-0.402 -1.005,-0.772 -1.532,-1.125 -0.402,-0.27 -0.794,-0.553 -1.19,-0.832 -0.138,-0.096 -0.21,-0.091 -0.361,-0.014 -0.196,0.102 -0.391,0.224 -0.602,0.271 -0.24,0.054 -0.44,0.19 -0.677,0.247 -0.25,0.061 -0.487,0.176 -0.736,0.245 -0.189,0.052 -0.385,0.069 -0.561,0.17 -0.062,0.036 -0.153,0.019 -0.23,0.033 -0.108,0.019 -0.221,0.03 -0.321,0.072 -0.166,0.071 -0.332,0.117 -0.513,0.113 -0.165,-0.004 -0.321,0.03 -0.478,0.09 -0.119,0.045 -0.255,0.066 -0.383,0.06 -0.358,-0.019 -0.703,0.029 -1.043,0.139 -0.194,0.064 -0.321,0.178 -0.364,0.394 -0.037,0.189 -0.112,0.37 -0.172,0.554 -0.004,0.012 -0.013,0.023 -0.02,0.034 -0.075,0.117 -0.139,0.237 -0.148,0.38 -0.002,0.037 -0.029,0.071 -0.044,0.107 -0.034,0.083 -0.068,0.166 -0.102,0.25 -0.026,0.067 -0.047,0.135 -0.076,0.201 -0.078,0.184 -0.161,0.367 -0.24,0.551 -0.01,0.022 -0.003,0.051 -0.011,0.077 -0.013,0.05 -0.026,0.1 -0.047,0.147 -0.089,0.195 -0.183,0.388 -0.269,0.584 -0.086,0.197 -0.161,0.397 -0.248,0.594 -0.111,0.255 -0.281,0.485 -0.313,0.773 -0.004,0.034 -0.04,0.065 -0.06,0.099 -0.023,0.039 -0.048,0.078 -0.064,0.12 -0.049,0.126 -0.091,0.256 -0.141,0.383 -0.067,0.169 -0.133,0.338 -0.21,0.503 -0.08,0.171 -0.161,0.343 -0.262,0.502 -0.152,0.242 -0.395,0.376 -0.642,0.501 -0.08,0.041 -0.154,0.024 -0.215,-0.038 -0.195,-0.195 -0.388,-0.392 -0.415,-0.69 -0.004,-0.031 -0.017,-0.062 -0.03,-0.092 -0.17,-0.409 -0.372,-0.805 -0.451,-1.247 -0.009,-0.05 -0.038,-0.096 -0.055,-0.146 -0.089,-0.257 -0.177,-0.515 -0.263,-0.774 -0.014,-0.043 -0.009,-0.091 -0.016,-0.136 -0.009,-0.059 -0.014,-0.119 -0.031,-0.173 -0.088,-0.273 -0.213,-0.539 -0.26,-0.819 -0.051,-0.31 -0.131,-0.609 -0.213,-0.91 -0.081,-0.296 -0.121,-0.601 -0.181,-0.902 -0.009,-0.043 -0.024,-0.089 -0.048,-0.127 -0.097,-0.15 -0.117,-0.315 -0.117,-0.489 0,-0.261 -0.078,-0.329 -0.338,-0.349 -0.142,-0.011 -0.291,-0.031 -0.418,-0.087 -0.13,-0.057 -0.256,-0.094 -0.396,-0.088 -0.205,0.01 -0.406,0.002 -0.585,-0.117 -0.032,-0.022 -0.074,-0.033 -0.112,-0.036 -0.16,-0.012 -0.306,-0.051 -0.436,-0.154 -0.075,-0.059 -0.151,-0.043 -0.225,0.033 -0.268,0.276 -0.542,0.549 -0.816,0.818 -0.458,0.45 -0.919,0.894 -1.321,1.398 -0.26,0.326 -0.555,0.629 -0.855,0.919 C 7.924,17.768 7.511,18.13 7.079,18.472 6.654,18.808 6.233,19.149 5.753,19.406 5.68,19.446 5.618,19.451 5.554,19.4 5.471,19.332 5.397,19.257 5.388,19.143 5.372,18.915 5.343,18.687 5.346,18.459 5.353,17.877 5.368,17.295 5.392,16.713 5.414,16.196 5.436,15.679 5.492,15.166 5.535,14.77 5.589,14.375 5.592,13.974 5.595,13.747 5.635,13.518 5.681,13.294 5.72,13.106 5.742,12.922 5.733,12.73 5.727,12.602 5.736,12.465 5.774,12.343 5.863,12.06 5.925,11.777 5.937,11.479 5.944,11.341 5.918,11.244 5.815,11.152 5.535,10.906 5.266,10.647 4.986,10.402 4.927,10.35 4.839,10.323 4.76,10.304 4.589,10.264 4.415,10.237 4.242,10.201 4.128,10.177 4.014,10.14 3.898,10.123 3.439,10.052 2.984,9.969 2.55,9.793 2.382,9.723 2.198,9.686 2.041,9.597 1.489,9.285 0.902,9.036 0.404,8.632 0.237,8.497 0.095,8.354 -0.013,8.17 -0.099,8.023 -0.203,7.887 -0.305,7.751 -0.465,7.538 -0.647,7.338 -0.677,7.054 -0.681,7.02 -0.719,6.99 -0.738,6.957 -0.767,6.908 -0.798,6.858 -0.821,6.805 -0.859,6.722 -0.897,6.639 -0.924,6.552 -0.959,6.441 -1.004,6.328 -1.011,6.214 -1.027,5.92 -1.02,5.625 -1.033,5.33 -1.05,4.915 -0.939,4.535 -0.772,4.158 -0.594,3.763 -0.275,3.473 -0.05,3.114 0.101,2.872 0.332,2.668 0.604,2.532 0.688,2.49 0.776,2.433 0.771,2.319 0.676,2.25 0.577,2.197 0.499,2.122 0.271,1.905 0.051,1.68 -0.169,1.457 -0.317,1.309 -0.471,1.165 -0.515,0.946 -0.523,0.908 -0.55,0.875 -0.571,0.842 -0.699,0.644 -0.677,0.39 -0.812,0.194 -0.825,0.175 -0.816,0.142 -0.819,0.116 -0.84,-0.038 -0.835,-0.203 -0.889,-0.345 -1.009,-0.66 -0.965,-0.959 -0.867,-1.244 l -0.273,-0.064 -0.58,-0.36 -0.887,-0.899 -0.575,-0.899 -0.807,-2.748 -0.233,-0.643 -0.376,-0.784 -0.923,-1.15 -0.368,-0.58 0.006,-0.26 0.164,-0.164 0.468,0.108 1.524,0.553 c 3.032,1.191 6.723,-1.032 8.925,-3.018 l 0.481,-0.685 0.542,-0.359 1.444,-2.064 0.766,-1.592 0.047,-0.384 -0.083,-0.795 -0.024,-0.553 -0.257,-0.598 -0.277,-0.277 -1.506,-0.556 -1.479,-0.898 -0.31,-0.241 -0.076,0.019 -0.145,0.385 -0.663,2.882 -0.663,1.149 c -1.826,2.259 -4.76,0.695 -6.478,-0.868 l -0.755,-0.725 -0.977,-1.096 -0.722,-1.045 -0.144,-0.123 -0.186,-0.042 -1.043,0.152 -0.808,-0.095 -1.077,-0.416 -0.853,-0.66 -0.71,-0.782 -0.634,-1.135 -0.243,-0.969 -0.138,-2.166 v -0.008 l 0.273,-1.201 -0.134,-0.426 -1.261,-1.672 -0.363,-1.138 -0.003,-0.009 0.02,-1.455 0.327,-0.875 0.676,-0.824 0.115,-0.367 -0.272,-1.483 -0.002,-0.009 0.07,-0.545 0.512,-0.988 0.895,-0.899 1.395,-0.701 1.032,-0.435 0.583,-0.306 1.626,-0.718 1.353,-1.293 0.516,-0.391 0.085,-0.141 -0.018,-0.092 -0.155,-0.063 -1.665,-0.054 -1.39,-0.148 -1.53,-0.571 -0.366,-0.19 -0.157,-0.013 -0.342,0.188 -0.833,0.67 -0.612,0.289 -1.217,0.279 -1.439,-0.352 -0.498,-0.418 -0.501,-0.358 -1.653,-0.114 -0.901,-0.289 -0.403,-0.191 -0.177,-0.157 -0.106,-0.27 0.035,-0.276 0.159,-0.159 0.887,0.284 1.209,0.229 0.663,-0.039 0.632,0.271 0.824,0.661 0.596,0.263 0.815,0.053 0.71,-0.158 0.547,-0.307 0.773,-0.686 0.095,-0.165 c -0.457,-3.52 1.597,-1.407 0.928,-7.019 l -0.16,-0.426 -0.077,-0.043 -0.08,0.064 -0.88,1.796 -1.547,1.999 -1.795,1.797 -0.19,0.116 -0.201,-0.029 -0.049,-0.211 0.217,-0.413 1.167,-1.219 0.538,-0.637 0.52,-0.644 0.403,-0.778 0.317,-0.56 0.556,-1.229 0.041,-0.215 -0.035,-0.12 -0.097,-0.024 c -1.922,1.026 -3.438,2.708 -5.572,3.308 l -0.225,-0.071 -0.036,-0.201 0.14,-0.178 1.396,-0.725 2.524,-1.885 0.608,-0.593 0.087,-0.148 -0.022,-0.093 -0.129,-0.046 -1.246,0.223 -0.699,0.192 -1.234,0.222 -1.258,0.519 -1.396,0.412 -0.009,0.002 -0.25,-0.005 -0.147,-0.148 0.073,-0.215 0.621,-0.35 c 1.953,-0.871 4.799,-1.207 6.451,-2.372 l 0.092,-0.124 -0.012,-0.355 -0.171,-0.391 -0.315,-0.231 -1.701,-0.049 -1.825,0.237 -1.286,0.22 -0.01,0.002 -0.542,-0.085 0.029,-0.2 0.728,-0.236 0.749,-0.126 0.408,-0.187 0.974,-0.194 1.424,-0.521 0.405,-0.028 0.185,-0.074 0.088,-0.096 -0.016,-0.094 -0.304,-0.238 -1.178,-0.588 -1.939,-0.704 -2.608,-0.635 -0.221,-0.117 -0.13,-0.226 0.005,-0.562 0.122,-0.243 1.258,-0.814 1.01,-1.332 0.877,-0.637 1.02,-0.471 1.936,-0.403 1.587,-0.772 0.786,-0.133 1.13,0.058 1.032,0.481 0.717,0.462 0.535,0.672 0.691,1.71 c 1.308,6.024 -1.537,3.065 4.008,6.545 l 0.612,0.546 1.35,0.736 0.257,0.03 0.03,-0.679 -0.186,-0.332 c -2.188,-1.904 -5.922,-4.781 -4.692,-8.18 l 0.248,-0.362 1.109,-0.695 0.815,-0.117 0.007,-10e-4 0.545,0.069 1.054,0.451 1.123,0.657 0.644,0.52 0.761,0.417 1.175,1.438 -0.21,-1.559 0.061,-1.14 0.159,-0.713 -0.025,-0.118 -0.32,-0.134 -1.277,0.106 -1.963,-0.431 -1.691,-0.684 -1.04,-0.71 -2.112,-0.836 -1.36,-1.02 -0.84,-1.269 -0.339,-0.857 -0.157,-1.03 -0.023,-0.85 -0.423,-2.234 -10e-4,-0.008 0.065,-0.844 0.535,-0.987 0.148,-0.171 1.609,-0.489 0.781,-0.107 0.172,-0.083 0.047,-0.112 -0.185,-0.311 -1.193,-1.473 -1.075,-1.292 -0.593,-0.879 -0.269,-0.935 -0.007,-1.143 0.629,-1.477 0.928,-1.418 0.475,-1.563 -0.022,-2.301 -0.22,-0.953 -0.364,-1.112 -0.262,-0.906 -0.271,-0.614 -0.259,-0.621 -0.975,-1.965 -1.324,-2.209 -0.325,-0.511 -0.011,-0.017 0.036,-0.438 0.114,-0.222 0.198,-0.036 0.285,0.359 1.12,1.556 1.712,3.306 c 1.701,4.622 2.049,6.565 -0.641,10.979 l -0.15,1.022 0.129,0.745 0.436,0.715 0.799,0.966 0.687,0.775 0.643,0.556 1.242,1.69 0.17,0.071 1.226,-0.177 0.675,-0.214 0.151,-0.101 0.04,-0.125 -0.301,-0.538 -0.801,-0.674 -0.38,-0.488 -0.486,-0.418 -1.507,-2.028 -0.169,-0.459 -0.24,-1.419 -0.003,-0.013 0.224,-0.95 0.548,-0.935 1.024,-2.796 0.204,-0.96 -0.004,-2.367 0.07,-0.273 0.166,-0.166 0.229,-0.012 0.406,0.231 0.975,0.812 1.409,1.527 1.266,1.099 1.163,1.193 0.44,0.44 0.176,0.091 h 0.205 l 0.669,-0.243 0.385,-0.087 v -0.037 L 3.516,-87.36 2.197,-88.696 1.79,-89.163 c -2.916,-2.325 -3.307,-3.642 -5.133,-6.691 l -0.369,-0.797 -0.951,-1.413 -0.441,-0.772 -0.025,-0.256 0.16,-0.159 0.256,-0.006 0.22,0.11 0.773,1.073 0.908,1.741 1.652,2.761 0.481,0.698 0.74,1.012 0.889,0.871 c 0.99,0.822 3.537,3.396 4.339,4.513 l 0.151,0.107 0.505,0.065 1.729,-0.329 1.324,-0.453 0.497,-0.111 1.017,0.149 1.416,-0.059 0.879,-0.287 0.882,-0.317 0.496,-0.068 0.008,-0.002 1.039,0.161 0.639,0.244 1.593,0.473 1.326,0.442 1.372,1.011 0.751,1.045 0.418,1.093 0.154,1.031 0.074,0.994 -0.027,0.718 -0.054,0.373 -0.076,0.37 0.084,0.49 -0.159,1.031 0.03,0.872 0.071,0.15 0.096,0.032 0.516,-0.3 0.929,-0.558 1.217,-0.563 0.931,-0.268 0.944,-0.063 0.96,0.217 0.937,0.547 0.98,0.174 1.45,0.025 1.811,0.568 0.682,0.524 0.223,0.414 0.077,0.668 -0.534,1.529 -0.75,2.502 -0.371,0.829 -0.514,0.672 -0.553,0.621 -0.398,0.486 -1.413,0.985 -1.261,0.525 -1.213,0.249 -0.173,0.09 -0.09,0.165 0.018,0.506 0.128,0.782 -0.015,1.181 -0.156,1.054 0.034,0.22 0.053,0.053 0.298,-0.152 c 4.141,-3.682 8.454,0.075 5.909,4.682 l 0.013,0.071 0.621,0.137 1.278,-0.088 0.989,0.212 0.778,0.425 0.879,0.914 0.459,1.045 0.147,1.533 0.002,0.008 -0.263,1.246 -0.196,0.419 -0.02,0.144 0.06,0.054 0.648,-0.042 0.806,0.084 0.521,0.069 0.609,0.31 0.425,0.041 0.125,-0.106 0.399,-1.059 0.181,-0.717 0.266,-0.602 0.22,-0.975 0.629,-1.433 0.549,-0.664 0.209,-0.136 0.692,0.074 0.754,-0.111 0.007,-10e-4 0.808,0.094 1.031,0.482 c 2.301,2.055 3.853,0.555 6.264,2.277 l 0.741,1.064 0.289,1.15 0.002,0.007 -0.01,0.647 0.131,0.445 0.536,0.604 0.387,0.173 1.177,0.297 0.784,-0.09 0.193,0.07 0.125,0.503 0.001,0.008 z" fill="#181716" transform="matrix(1.33333 0 0 -1.33333 20.488 28.916)"/><path style="mix-blend-mode:multiply" d="m 0,0 c 0.085,-0.07 0.179,-0.138 0.279,-0.18 0.21,-0.086 0.427,-0.154 0.641,-0.231 0.042,-0.015 0.088,-0.026 0.127,-0.049 0.146,-0.087 0.305,-0.108 0.472,-0.103 0.111,0.003 0.222,0 0.333,0 v -0.008 c 0.157,0 0.314,-0.004 0.471,0.002 0.063,0.002 0.139,0.007 0.186,0.041 0.113,0.086 0.242,0.12 0.375,0.158 0.314,0.09 0.459,0.347 0.368,0.628 C 3.2,0.415 3.138,0.436 2.987,0.374 2.869,0.325 2.743,0.29 2.617,0.266 2.437,0.231 2.256,0.204 2.075,0.186 1.974,0.176 1.869,0.184 1.768,0.198 1.633,0.218 1.5,0.263 1.365,0.276 1.197,0.293 1.026,0.287 0.886,0.41 0.855,0.436 0.798,0.431 0.756,0.447 0.495,0.543 0.214,0.585 -0.027,0.739 -0.152,0.818 -0.294,0.874 -0.429,0.936 -0.537,0.986 -0.621,0.942 -0.613,0.825 -0.607,0.739 -0.574,0.648 -0.53,0.571 -0.4,0.339 -0.202,0.166 0,0" fill="#181716" transform="matrix(1.33333 0 0 -1.33333 32.994 28.777)"/><path style="mix-blend-mode:multiply" d="m 0,0 c 0.389,-0.041 0.78,-0.06 1.17,-0.088 0.001,0.014 0.002,0.028 0.003,0.041 0.13,0 0.261,0.009 0.391,-0.001 0.294,-0.022 0.572,0.022 0.83,0.168 0.023,0.012 0.05,0.016 0.072,0.03 C 2.527,0.188 2.59,0.223 2.645,0.27 2.754,0.362 2.748,0.469 2.622,0.534 2.549,0.571 2.459,0.588 2.376,0.59 2.09,0.597 1.801,0.588 1.515,0.597 1.273,0.605 1.032,0.622 0.792,0.653 0.54,0.685 0.292,0.745 0.04,0.782 -0.078,0.799 -0.191,0.816 -0.29,0.89 -0.387,0.961 -0.487,0.943 -0.584,0.883 -0.769,0.77 -0.794,0.556 -0.651,0.355 -0.491,0.131 -0.26,0.027 0,0" fill="#181716" transform="matrix(1.33333 0 0 -1.33333 25.262 27.648)"/></g><path style="mix-blend-mode:multiply" d="M 0,0 H 67.294 V 116.026 H 0 Z" fill="none" stroke="#181716" stroke-width="1.605" stroke-miterlimit="10" transform="matrix(1.33333 0 0 -1.33333 1.07 155.771)"/></svg>