<svg xmlns="http://www.w3.org/2000/svg" width="91.865" height="156.841"><path style="mix-blend-mode:multiply" d="m 291.625,357.834 h 67.294 v 116.025 h -67.294 z" fill="#fff" transform="matrix(1.33333 0 0 -1.33333 -387.764 632.883)"/><g style="mix-blend-mode:multiply"><g style="mix-blend-mode:multiply"><path style="mix-blend-mode:multiply" d="m 0,0 c 0,0 0.409,-1.364 0.273,-1.569 -0.137,-0.205 0.546,-1.638 0.546,-1.638 0,0 -1.058,1.468 -3.445,2.286 -2.388,0.819 -5.151,0.375 -6.311,-0.17 -1.159,-0.546 -2.967,-1.501 -3.786,-2.457 -0.818,-0.955 -1.057,-1.057 -1.057,-1.671 0,-0.614 1.365,-2.251 2.183,-3.138 0.818,-0.887 1.91,-1.365 2.797,-2.115 0.887,-0.75 4.161,-1.398 5.389,-1.33 1.228,0.068 3.036,0 3.786,0.273 0.75,0.273 1.501,0.443 1.501,0.443 0,0 0.963,-0.785 2.354,-0.75 1.364,0.034 2.558,0.341 3.103,1.091 0.546,0.751 0.41,0.955 0.41,0.955 0,0 0.75,-0.477 3.343,0.273 2.592,0.751 5.048,1.774 5.73,2.934 0.682,1.159 1.364,1.944 1.774,3.991 0.409,2.046 0.849,3.145 0.511,3.99 C 18.896,1.91 17.839,2.114 17.225,2.456 16.612,2.797 14.872,2.763 13.644,2.763 12.416,2.763 10.097,1.944 9.005,1.125 7.913,0.307 6.685,-1.33 6.446,-2.08 6.195,-2.874 5.969,-3.582 5.969,-3.582 c 0,0 -0.682,3.786 -0.887,4.332 C 5.082,0.75 2.524,-0.136 0,0" fill="#75b726" fill-rule="evenodd" transform="matrix(1.33333 0 0 -1.33333 62.474 139.605)"/></g><g style="mix-blend-mode:multiply"><path style="mix-blend-mode:multiply" d="M 0,0 C 1.382,0.921 2.507,0.87 4.247,0.819 5.986,0.768 8.186,0.102 9.005,-2.098 9.824,-4.298 8.852,-5.884 6.191,-7.624 3.53,-9.363 1.075,-9.005 -0.973,-8.34 -3.018,-7.674 -3.632,-5.884 -3.684,-4.298 -3.735,-2.712 -2.532,-1.688 0,0 m -2.712,-11.717 c 1.739,-0.46 3.787,-1.126 5.731,-0.818 1.943,0.306 5.628,1.433 7.112,2.711 1.483,1.28 3.478,3.121 3.53,5.219 0.051,2.098 0.051,4.042 -0.972,5.168 C 11.666,1.689 10.386,3.275 8.084,3.837 5.781,4.401 3.582,4.298 2.251,4.144 0.921,3.991 -0.511,3.837 -1.995,3.07 -5.531,1.241 -6.958,-0.511 -7.572,-3.121 c -0.614,-2.609 0.205,-4.451 0.614,-5.321 0.409,-0.87 2.507,-2.814 4.246,-3.275" fill="#fc0" fill-rule="evenodd" transform="matrix(1.33333 0 0 -1.33333 59.836 119.754)"/></g><g style="mix-blend-mode:multiply"><path style="mix-blend-mode:multiply" d="m 0,0 -0.698,-0.123 -0.761,-0.427 -0.265,-0.289 -0.143,-1.072 -0.023,-0.441 0.402,-1.075 0.422,-0.757 0.849,-0.92 0.531,-0.354 0.86,-0.612 0.977,-0.496 1.975,-0.679 1.185,-0.309 h 0.016 l 0.479,0.034 0.171,0.143 0.099,0.191 0.059,1.052 L 5.84,-4.94 5.03,-3.099 4.038,-1.733 2.864,-0.55 2.24,-0.29 1.06,0.014 Z" fill="#e30015" transform="matrix(1.33333 0 0 -1.33333 87.82 141.73)"/></g><g style="mix-blend-mode:multiply"><path style="mix-blend-mode:multiply" d="m 0,0 -0.251,-0.667 -0.5,-0.672 -0.492,-0.394 -1.429,-2.107 -0.663,-1.401 -0.315,-1.752 0.359,-1.425 0.324,-0.56 0.525,-0.359 1.558,-0.397 0.653,0.206 0.785,0.397 0.443,0.443 0.594,1.174 0.339,1.429 v 1.416 L 1.489,-2.46 0.781,-0.515 0.393,0.015 0.186,0.078 Z" fill="#e30015" transform="matrix(1.33333 0 0 -1.33333 26.031 118.718)"/></g><g style="mix-blend-mode:multiply"><path style="mix-blend-mode:multiply" d="m 0,0 -2.032,-0.323 -1.303,-0.466 -1.207,-0.561 -0.753,-0.722 -0.54,-0.638 -0.702,-1.361 -0.103,-0.496 0.064,-0.83 0.398,-0.781 1.217,-1.139 1.563,-0.188 0.942,0.237 1.327,0.736 0.505,0.378 0.86,0.614 1.346,1.602 0.658,1.11 0.796,2.141 -0.039,0.428 -0.128,0.172 -0.211,0.092 z" fill="#e30015" transform="matrix(1.33333 0 0 -1.33333 14.301 120.977)"/></g><g style="mix-blend-mode:multiply"><path style="mix-blend-mode:multiply" d="M 0,0 -0.221,-0.059 -0.58,-0.31 -1.759,-1.489 -2.245,-2.181 -2.741,-2.57 -3.413,-4.255 -3.85,-5.59 l 0.02,-0.85 0.563,-1.204 0.708,-0.766 0.565,-0.318 0.496,-0.104 1.007,0.182 0.643,0.24 0.889,0.88 0.457,1.016 0.187,0.993 0.068,0.826 -0.142,1.045 -0.206,0.678 -0.353,1.415 -0.576,1.192 -0.269,0.33 z" fill="#e30015" transform="matrix(1.33333 0 0 -1.33333 34.767 114.125)"/></g><g style="mix-blend-mode:multiply"><path style="mix-blend-mode:multiply" d="m 0,0 -1.263,-0.211 -1.182,-0.585 -0.462,-0.422 -0.756,-1.022 -0.104,-0.363 0.296,-1.469 0.235,-0.648 0.334,-0.256 0.869,-0.309 1.632,-0.014 h 0.106 l 2.569,0.667 1.317,0.452 1.277,0.786 0.864,0.315 0.835,0.662 0.069,0.207 -0.044,0.217 -0.147,0.166 -1.047,0.732 -1.01,0.461 -0.694,0.191 -1.93,0.429 z" fill="#e30015" transform="matrix(1.33333 0 0 -1.33333 11.74 111.54)"/></g><g style="mix-blend-mode:multiply"><path style="mix-blend-mode:multiply" d="m 0,0 -1.027,-0.167 -1.076,-0.397 -0.755,-0.718 -0.428,-0.456 -0.118,-0.476 0.063,-0.836 0.295,-0.589 0.884,-0.884 1.121,-0.648 1.93,-0.429 1.377,-0.013 h 0.098 l 1.796,0.261 1.027,0.446 0.338,0.265 0.044,0.183 v 0.006 l -0.073,0.195 -0.614,0.884 -0.717,1.05 -0.487,0.399 -0.623,0.554 -0.998,0.772 -1.055,0.417 z" fill="#e30015" transform="matrix(1.33333 0 0 -1.33333 21.775 102.888)"/></g><g style="mix-blend-mode:multiply"><path style="mix-blend-mode:multiply" d="m 0,0 -0.457,-0.133 -0.88,-0.593 -0.417,-0.466 -0.408,-1.067 -0.058,-0.831 0.221,-0.962 0.776,-0.992 0.54,-0.639 1.007,-0.76 0.786,-0.393 0.633,-0.252 1.051,-0.138 1.445,-0.205 0.904,0.236 0.113,0.152 -0.031,0.407 0.08,0.742 -0.138,0.757 -0.472,1.591 -0.598,1.168 -1.194,1.46 -1.11,0.658 -0.645,0.241 z" fill="#e30015" transform="matrix(1.33333 0 0 -1.33333 30.812 97.8)"/></g><g style="mix-blend-mode:multiply"><path style="mix-blend-mode:multiply" d="m 0,0 -1.286,-0.183 -0.564,-0.318 -0.845,-0.86 -0.099,-1.148 0.211,-0.973 0.501,-0.973 1.464,-1.482 0.653,-0.527 1.066,-0.702 1.208,-0.561 1.242,-0.254 0.537,0.069 0.142,0.152 0.088,0.501 0.237,0.648 0.023,1.395 v 0.058 L 4.318,-3.949 3.676,-2.235 3.178,-1.552 1.783,-0.294 1.166,-0.029 0.041,0 Z" fill="#e30015" transform="matrix(1.33333 0 0 -1.33333 39.829 93.464)"/></g><g style="mix-blend-mode:multiply"><path style="mix-blend-mode:multiply" d="m 0,0 -0.766,-0.058 -0.554,-0.09 -1.145,-0.633 -0.241,-0.348 -0.103,-0.796 0.215,-1.567 0.438,-0.742 0.6,-0.873 1.444,-1.503 0.643,-0.242 1.193,-0.574 1.725,-0.634 1.164,-0.329 0.491,0.024 0.182,0.124 0.118,0.191 0.112,0.447 -0.235,1.669 -0.325,0.855 -1.017,1.931 -1.094,1.557 -1.068,0.997 -0.828,0.348 z" fill="#e30015" transform="matrix(1.33333 0 0 -1.33333 79.522 88.938)"/></g><g style="mix-blend-mode:multiply"><path style="mix-blend-mode:multiply" d="m 0,0 -0.987,-0.196 -0.751,-0.428 -0.615,-0.565 -0.682,-1.38 -0.034,-0.869 0.122,-0.467 0.594,-0.584 0.766,-0.412 0.895,-0.28 0.687,-0.212 1.339,-0.093 H 1.35 l 1.691,0.379 1.448,0.613 1.327,1.045 0.074,0.163 -0.059,0.177 -0.457,0.452 -0.536,0.644 -0.82,0.652 -1.694,0.959 -1.14,0.334 z" fill="#e30015" transform="matrix(1.33333 0 0 -1.33333 21.328 52.355)"/></g><g style="mix-blend-mode:multiply"><path style="mix-blend-mode:multiply" d="m 0,0 -0.875,-0.314 -1.095,-0.674 -1.095,-0.672 -1.194,-1.458 -0.81,-1.549 -0.265,-1.242 0.044,-0.245 0.138,-0.168 0.899,-0.28 1.306,-0.181 0.211,-0.089 0.059,-0.167 -0.083,-0.196 -0.291,-0.334 -0.18,-0.408 -0.334,-0.55 -0.797,-1.562 -0.31,-0.869 -0.063,-0.836 0.098,-0.2 0.201,-0.099 0.501,-0.083 1.419,-0.055 1.764,0.005 1.159,0.315 0.997,0.476 0.762,0.418 0.541,0.638 0.407,0.772 0.186,1.188 -0.24,0.58 -0.221,0.668 -0.31,0.574 -0.319,0.27 -0.791,0.389 -0.574,0.309 -0.039,0.137 0.234,0.295 0.871,0.918 0.412,1.062 v 1.423 l -0.324,0.855 -0.59,0.591 -0.589,0.294 z" fill="#e30015" transform="matrix(1.33333 0 0 -1.33333 74.042 36.886)"/></g><g style="mix-blend-mode:multiply"><path style="mix-blend-mode:multiply" d="m 0,0 -0.624,-0.27 -1.434,-1.219 -1.07,-1.286 -0.497,-1.271 -0.775,-3.06 -0.005,-0.782 0.225,-0.388 0.187,-0.083 0.201,0.034 1.817,0.859 1.017,0.458 1.522,0.834 0.92,0.851 0.52,0.656 0.492,0.394 0.368,1.101 -0.021,0.186 -0.195,0.369 -0.281,1.203 -0.392,0.491 -0.683,0.796 -0.762,0.118 z" fill="#e30015" transform="matrix(1.33333 0 0 -1.33333 41.65 41.628)"/></g><g style="mix-blend-mode:multiply"><path style="mix-blend-mode:multiply" d="m 0,0 -0.939,-0.241 -1.217,-0.55 -0.408,-0.477 -0.625,-1.155 -0.048,-0.519 0.226,-0.786 0.216,-0.541 0.496,-0.397 1.061,-0.413 0.795,-0.089 h 1.484 l 1.292,0.183 1.699,0.658 1.537,0.815 0.403,0.516 0.025,0.181 -0.28,0.261 -0.953,1.119 -1.238,0.826 -2.053,0.598 z" fill="#e30015" transform="matrix(1.33333 0 0 -1.33333 19.6 44.345)"/></g><g style="mix-blend-mode:multiply"><path style="mix-blend-mode:multiply" d="m 0,0 -1.738,-0.02 -0.815,-0.362 -0.507,-0.379 -0.418,-0.762 -0.068,-0.834 0.127,-0.476 0.29,-0.295 0.541,-0.639 1.011,-1.052 1.209,-0.854 0.732,-0.447 0.903,-0.275 0.8,-0.083 1.808,-0.045 0.438,0.163 0.108,0.196 0.009,0.227 v 0.028 l -0.294,1.498 -0.589,1.473 -0.409,0.477 -0.598,0.875 -0.324,0.265 -0.625,0.555 -0.574,0.31 -0.596,0.289 z" fill="#e30015" transform="matrix(1.33333 0 0 -1.33333 53.59 38.268)"/></g><g style="mix-blend-mode:multiply"><path style="mix-blend-mode:multiply" d="m 0,0 -0.456,-0.138 -0.747,-0.137 -0.398,-0.192 -0.82,-0.948 -0.565,-0.909 -0.418,-1.071 -0.074,-0.614 -0.359,-1.591 -0.033,-1.744 0.118,-0.777 0.236,-0.343 h 0.171 l 0.505,0.393 0.895,0.285 0.736,0.447 0.581,0.255 0.073,-0.074 -0.482,-0.947 -0.264,-0.619 -0.325,-0.854 -0.295,-1.474 -0.028,-2.328 0.176,-1.002 0.393,-1.1 0.181,-0.089 0.207,0.03 1.931,1.335 0.736,0.737 0.678,0.795 1.198,2.044 0.34,1.135 0.058,0.83 -0.211,0.973 -0.56,0.913 -0.329,0.26 -0.697,0.188 -1.15,0.044 -0.196,0.098 -0.069,0.166 0.069,0.177 0.933,1.154 0.531,0.943 0.087,0.796 -0.044,0.904 -0.349,1.13 -0.412,0.472 -0.761,0.392 z" fill="#e30015" transform="matrix(1.33333 0 0 -1.33333 34.191 24.35)"/></g><g style="mix-blend-mode:multiply"><path style="mix-blend-mode:multiply" d="m 0,0 -0.898,-0.574 -0.737,-0.738 -0.275,-0.628 -0.015,-0.432 0.584,-0.893 0.718,-0.758 0.943,-0.53 1.025,-0.153 1.391,-0.093 0.766,0.118 2.854,0.977 0.319,0.29 0.103,0.349 -0.24,0.296 -0.62,0.868 -0.721,0.752 -1.43,0.928 -1.119,0.354 -1.483,0.181 z" fill="#e30015" transform="matrix(1.33333 0 0 -1.33333 13.41 32.656)"/></g><g style="mix-blend-mode:multiply"><path style="mix-blend-mode:multiply" d="m 0,0 -1.37,-0.694 -0.889,-0.878 -0.953,-1.111 -1.444,-2.092 -0.49,-1.285 v -0.006 l 0.048,-0.187 1.719,-0.108 2.049,0.029 1.665,0.398 1.39,0.673 0.736,0.737 0.506,0.672 0.359,1.12 -0.039,0.796 -0.3,0.815 -0.643,0.83 -0.816,0.364 -0.795,0.093 z" fill="#e30015" transform="matrix(1.33333 0 0 -1.33333 75.416 27.075)"/></g><g style="mix-blend-mode:multiply"><path style="mix-blend-mode:multiply" d="m 0,0 -0.462,-0.138 -0.771,-0.703 -0.427,-0.75 -0.275,-1.213 0.034,-0.557 0.511,-0.966 1.261,-1.685 0.856,-0.619 1.474,-0.59 0.918,-0.26 1.296,-0.201 0.536,0.068 0.148,0.148 0.058,0.241 v 0.599 L 5.02,-5.875 4.793,-4.921 4.313,-3.93 3.65,-2.824 2.903,-1.803 1.64,-0.707 0.481,-0.089 Z" fill="#e30015" transform="matrix(1.33333 0 0 -1.33333 53.413 25.49)"/></g><g style="mix-blend-mode:multiply"><path style="mix-blend-mode:multiply" d="m 0,0 -1.414,-0.659 -0.453,-0.432 -0.727,-1.041 -0.436,-1.331 -0.137,-0.762 0.147,-1.045 0.451,-1.612 0.344,-0.835 0.398,-0.781 0.206,-0.678 0.433,-0.746 0.221,-0.663 0.531,-0.359 0.17,0.005 0.149,0.123 0.584,0.909 0.545,0.632 0.845,1.22 0.639,1.423 0.298,1.449 L 2.702,-4.26 2.697,-3.62 2.51,-2.687 2.274,-2.039 1.994,-1.14 1.68,-0.571 1.179,-0.192 0.521,0.053 Z" fill="#e30015" transform="matrix(1.33333 0 0 -1.33333 64.873 14.357)"/></g><g style="mix-blend-mode:multiply"><path style="mix-blend-mode:multiply" d="m 0,0 -0.919,-0.256 -0.678,-0.5 -0.187,-0.403 -0.152,-1.046 0.078,-0.521 0.32,-0.564 0.407,-0.772 1.003,-1.061 0.766,-0.412 1.891,-0.467 1.449,-0.034 1.031,0.147 0.692,0.192 0.531,0.369 0.049,0.168 v 0.005 L 5.977,-4.322 5.545,-3.576 4.822,-2.529 4.179,-1.993 2.74,-0.78 2.116,-0.52 0.854,-0.014 0.053,0 Z" fill="#e30015" transform="matrix(1.33333 0 0 -1.33333 11.952 20.2)"/></g><g style="mix-blend-mode:multiply"><path style="mix-blend-mode:multiply" d="m 0,0 -0.511,-0.059 -0.8,-0.682 -0.472,-0.413 -0.889,-1.469 -0.56,-1.208 -0.295,-1.768 -0.205,-0.973 -0.143,-1.037 -0.029,-1.036 0.137,-0.171 0.177,-0.094 h 0.172 l 0.53,0.31 1.669,0.693 1.091,0.677 0.918,0.85 1.077,1.576 0.352,1.12 v 1.174 l -0.165,0.418 -0.369,0.81 -0.679,0.796 -0.343,0.245 z" fill="#e30015" transform="matrix(1.33333 0 0 -1.33333 30.785 15.465)"/></g><g style="mix-blend-mode:multiply"><path style="mix-blend-mode:multiply" d="m 0,0 -1.007,-0.138 -1.086,-0.697 -0.677,-0.796 -0.172,-0.416 -0.138,-1.597 0.438,-2.221 0.461,-1.6 0.746,-1.317 0.854,-1.208 0.473,-0.412 0.604,-0.585 0.408,-0.172 0.216,0.03 0.172,0.122 1.022,1.641 0.368,1.105 0.476,1.587 0.089,0.794 -0.065,1.125 -0.112,1.066 -0.51,1.552 -0.615,0.86 -0.736,0.737 -0.762,0.422 z" fill="#e30015" transform="matrix(1.33333 0 0 -1.33333 21.767 9.996)"/></g><g style="mix-blend-mode:multiply"><path style="mix-blend-mode:multiply" d="m 0,0 c -7.061,-1.689 -10.901,2.846 -11.154,5.116 -0.665,5.986 3.786,8.852 8.954,9.772 C 2.967,15.81 8.083,12.995 8.595,9.414 9.107,5.833 7.06,1.689 0,0 m 9.056,16.73 c -1.557,0.861 -3.302,1.662 -5.321,2.252 -2.428,0.709 -5.314,1.036 -9.568,-0.204 -2.456,-0.717 -5.424,-2.507 -6.805,-3.685 -0.543,-0.462 -1.1,-1.037 -1.609,-1.636 l 0.109,0.435 0.055,1.124 0.057,1.597 -0.392,1.311 -0.364,0.52 -0.157,0.04 -0.482,-0.358 -1.704,-0.953 -1.346,-1.307 -0.849,-1.508 -0.123,-0.762 -0.329,-0.84 0.015,-0.182 0.182,-0.387 0.069,-0.531 0.235,-0.648 0.432,-0.452 0.501,-0.383 0.599,-0.284 0.85,-0.026 0.653,0.231 0.003,0.003 c -0.346,-1.368 -0.473,-3.515 -0.345,-5.492 0.155,-2.354 1.484,-3.94 2.559,-4.81 1.074,-0.87 2.405,-2.302 3.99,-3.223 1.587,-0.921 2.559,-0.87 6.14,-1.074 3.582,-0.205 6.14,0.613 7.47,1.023 1.331,0.409 5.372,2.66 6.549,3.633 1.177,0.971 2.149,2.711 2.814,3.786 0.665,1.074 0.614,2.251 0.717,3.223 0.102,0.972 -0.307,2.559 -0.409,3.632 -0.103,1.075 -0.769,4.043 -4.196,5.935" fill="#e30015" fill-rule="evenodd" transform="matrix(1.33333 0 0 -1.33333 65.499 135.103)"/></g><g style="mix-blend-mode:multiply"><path style="mix-blend-mode:multiply" d="M 0,0 -1.567,-0.497 -2.318,-0.923 -2.952,-1.469 -3.61,-1.988 -4.253,-2.82 -4.46,-3.497 -4.469,-5.56 l 0.083,-0.801 0.462,-1.307 0.486,-0.691 0.364,-0.527 0.206,-0.029 1.021,0.138 1.09,0.398 1.298,1.06 0.476,0.703 0.52,0.658 0.339,0.545 0.501,1.273 -0.024,0.628 0.122,0.438 0.132,0.761 0.365,2.599 -0.01,0.412 -0.285,0.285 -0.176,0.018 z" fill="#3a3a39" transform="matrix(1.33333 0 0 -1.33333 79.609 98.441)"/></g><g style="mix-blend-mode:multiply"><path style="mix-blend-mode:multiply" d="m 0,0 -0.22,-0.014 -0.206,-0.095 -1.828,-1.429 -0.565,-0.614 -0.648,-0.53 -0.826,-0.942 -0.279,-0.605 -0.477,-0.997 -0.256,-1.822 0.178,-1.312 0.255,-0.924 0.417,-0.761 0.516,-0.663 0.712,-0.781 0.388,-0.068 0.619,0.259 0.758,0.128 0.416,0.172 0.85,0.918 0.595,0.586 0.848,1.213 0.334,0.844 0.359,1.425 -0.079,0.535 -0.009,0.423 0.196,0.394 -0.044,0.47 -0.392,0.801 -0.329,1.439 -0.481,0.992 -0.609,0.884 z" fill="#3a3a39" transform="matrix(1.33333 0 0 -1.33333 71.867 89.573)"/></g><g style="mix-blend-mode:multiply"><path style="mix-blend-mode:multiply" d="m 0,0 -0.467,-0.123 -0.103,-0.192 -0.024,-0.578 0.191,-1.297 0.619,-1.739 0.618,-1.164 0.149,-0.546 1.051,-1.188 0.982,-0.787 1.179,-0.589 1.739,-0.324 1.443,-0.028 0.856,0.034 0.696,0.064 0.38,0.028 0.157,0.133 0.166,0.436 -0.043,0.915 -0.27,1.213 -0.566,1.203 -0.373,0.51 -0.413,0.767 -0.844,0.925 -0.983,0.784 -1.601,0.756 -2.284,0.664 -1.508,0.24 z" fill="#3a3a39" transform="matrix(1.33333 0 0 -1.33333 48.69 91.689)"/></g><g style="mix-blend-mode:multiply"><path style="mix-blend-mode:multiply" d="m 0,0 -0.359,-0.162 -0.589,-0.613 -0.884,-0.59 -1.184,-0.583 -1.056,-0.713 -0.903,-0.865 -0.732,-1.036 -0.727,-1.926 -0.187,-1.567 v -1.473 l 0.271,-1.778 0.186,-0.402 0.378,-0.213 0.767,-0.116 1.768,0.009 0.456,0.133 0.905,0.569 0.82,0.948 0.427,1.046 0.467,1.302 0.019,0.864 0.124,0.762 0.038,1.139 0.231,0.948 0.064,0.823 v 0.017 L 0.172,-2.72 0.113,-0.112 Z" fill="#3a3a39" transform="matrix(1.33333 0 0 -1.33333 95.47 82.73)"/></g><g style="mix-blend-mode:multiply"><path style="mix-blend-mode:multiply" d="m 0,0 -1.499,-0.271 -1.095,-0.376 -0.642,-0.242 -1.15,-0.618 -0.624,-0.556 -0.815,-0.659 -0.315,-0.568 -0.648,-0.826 -0.309,-0.576 -0.556,-2.096 -0.103,-2.025 -0.029,-0.726 0.182,-1.022 0.132,-0.137 0.18,-0.015 h 0.014 l 0.931,0.266 0.722,0.156 0.88,0.305 0.716,0.152 0.668,0.227 0.969,0.505 1.473,1.179 0.742,0.732 0.491,0.982 0.368,1.105 0.196,1.257 v 0.01 l -0.206,0.855 0.063,1.361 -0.043,1.135 -0.246,0.348 z" fill="#3a3a39" transform="matrix(1.33333 0 0 -1.33333 37.112 76.377)"/></g><g style="mix-blend-mode:multiply"><path style="mix-blend-mode:multiply" d="m 0,0 -1.449,-0.319 -0.364,-0.226 -0.757,-0.422 -0.932,-0.836 -0.305,-0.578 -0.427,-0.458 -0.728,-1.041 -0.736,-1.056 -0.049,-0.221 0.167,-0.412 0.329,-0.27 0.762,-0.418 1.217,-0.846 0.944,-0.234 1.516,-0.227 h 0.023 l 0.937,0.049 1.296,0.178 0.417,0.171 1.381,0.682 0.854,0.62 0.379,0.506 0.78,0.692 0.497,0.977 0.265,0.924 -0.06,0.456 -0.461,0.732 -1.193,0.87 -0.894,0.285 -1.965,0.393 z" fill="#3a3a39" transform="matrix(1.33333 0 0 -1.33333 58.135 79.718)"/></g><g style="mix-blend-mode:multiply"><path style="mix-blend-mode:multiply" d="M 0,0 -1.642,-0.437 -2.579,-1.266 -3.223,-1.803 -3.551,-2.358 -4.107,-2.983 -4.397,-3.576 -5.03,-5.005 -5.232,-5.689 -5.57,-6.529 -6.033,-7.835 -6.066,-8.38 v -0.025 l 0.093,-1.094 0.265,-0.319 0.177,0.004 0.329,0.261 0.374,0.22 1.041,0.138 1.36,0.113 1.92,0.732 1.125,0.937 1.141,1.513 0.289,0.594 0.398,0.783 0.285,0.893 0.889,2.368 0.039,0.496 -0.093,0.216 -0.324,0.27 -1.479,0.271 -0.747,-0.142 z" fill="#3a3a39" transform="matrix(1.33333 0 0 -1.33333 45.58 76.574)"/></g><g style="mix-blend-mode:multiply"><path style="mix-blend-mode:multiply" d="m 0,0 -1.474,-0.011 -0.422,-0.165 -0.374,-0.217 -1.026,-0.152 -0.687,-0.197 -0.477,-0.112 -0.767,-0.413 -1.266,-1.386 -1.076,-1.87 -0.334,-0.846 -0.202,-0.977 -0.132,-1.027 0.132,-1.027 0.01,-1.169 0.063,-0.231 0.144,-0.157 0.225,-0.078 0.973,0.098 0.482,-0.079 1.05,0.147 0.771,0.124 1.17,0.574 0.893,0.58 1.317,1.336 0.874,1.778 0.687,1.376 0.655,1.114 1.001,1.062 0.275,0.624 -0.064,0.466 -0.309,0.294 -1.312,0.457 z" fill="#3a3a39" transform="matrix(1.33333 0 0 -1.33333 92.327 73.03)"/></g><g style="mix-blend-mode:multiply"><path style="mix-blend-mode:multiply" d="M 0,0 -0.506,-0.098 -1.321,-0.167 -2.662,-0.595 -3.364,-1.071 -4.307,-1.6 -4.749,-2.044 -6.051,-3.983 -6.547,-5.55 l -0.207,-1.538 0.074,-0.153 0.33,-0.063 0.589,-0.226 1.252,-0.225 1.454,-0.291 1.548,0.109 1.154,0.319 1.085,0.683 1.174,0.889 0.752,1.016 0.614,0.859 0.618,1.445 0.201,1.227 v 0.008 l -0.156,0.405 -0.172,0.128 -0.869,0.31 -1.302,0.466 z" fill="#3a3a39" transform="matrix(1.33333 0 0 -1.33333 18.65 75.185)"/></g><g style="mix-blend-mode:multiply"><path style="mix-blend-mode:multiply" d="m 0,0 -0.191,-0.094 -0.141,-0.166 -0.384,-0.801 -0.579,-0.894 -0.374,-1.1 -0.261,-1.508 -0.014,-1.469 0.138,-1.041 0.407,-1.361 0.884,-1.473 0.993,-1.366 0.859,-0.909 0.58,-0.303 0.624,-0.576 0.339,-0.102 0.535,0.304 0.305,0.29 0.255,0.629 0.462,0.737 0.289,0.231 0.119,-0.065 0.564,-1.493 0.57,-1.199 0.383,-1.109 0.151,-0.118 0.169,0.005 0.397,0.191 0.525,0.074 1.332,0.437 0.564,0.32 1.327,1.325 0.889,2.063 -0.074,0.678 0.113,0.721 v 0.011 l -0.143,0.747 0.065,1.061 -0.098,0.667 -0.065,0.703 -0.133,1.636 -0.24,1.655 -0.147,0.157 -0.241,0.034 L 10.32,-2.662 9.643,-3.462 9.313,-3.723 8.611,-4.199 7.345,-5.289 6.716,-5.84 5.743,-6.97 5.576,-7.014 5.464,-6.891 5.35,-5.792 4.785,-4.607 3.116,-2.446 2.453,-1.931 1.711,-1.199 0.762,-0.673 0.199,-0.034 0.007,0 Z" fill="#3a3a39" transform="matrix(1.33333 0 0 -1.33333 67.4 59.5)"/></g><g style="mix-blend-mode:multiply"><path style="mix-blend-mode:multiply" d="m 0,0 -1.719,-0.049 -1.867,-0.786 -1.223,-0.545 -0.152,-0.157 -0.064,-0.231 0.029,-0.255 0.217,-0.399 0.476,-0.996 0.885,-1.179 1.178,-1.179 0.973,-0.501 1.203,-0.545 1.543,0.039 2.564,0.383 0.594,0.29 2.003,0.648 0.358,0.236 0.084,0.219 v 0.275 l -0.147,0.469 -0.869,1.487 -1.469,1.48 -1.115,0.653 -1.051,0.422 -0.987,0.192 z" fill="#3a3a39" transform="matrix(1.33333 0 0 -1.33333 22.966 64.982)"/></g><g style="mix-blend-mode:multiply"><path style="mix-blend-mode:multiply" d="m 0,0 -0.843,-0.03 -0.153,-0.152 -0.024,-0.236 0.275,-1.237 0.033,-1.439 0.35,-1.125 0.855,-1.798 0.289,-0.299 1.042,-1.317 0.638,-0.54 1.342,-0.722 1.684,-0.388 0.771,0.073 0.688,-0.083 0.24,0.049 0.153,0.152 0.058,0.24 L 7.36,-6.518 6.641,-3.993 6.009,-2.858 4.976,-1.827 3.513,-0.933 1.347,-0.148 0.034,0 Z" fill="#3a3a39" transform="matrix(1.33333 0 0 -1.33333 51.034 59.081)"/></g><g style="mix-blend-mode:multiply"><path style="mix-blend-mode:multiply" d="m 0,0 -1.409,-0.069 -1.509,-0.235 -0.191,-0.109 -0.196,-0.398 -0.069,-0.5 0.274,-1.204 0.099,-0.786 0.771,-1.881 0.369,-0.516 0.447,-0.436 0.354,-0.531 0.923,-0.845 0.653,-0.525 1.258,-0.511 1.375,-0.374 0.982,0.088 1.071,0.049 0.722,0.211 0.948,0.537 0.157,0.147 0.142,0.412 -0.142,1.532 -0.737,1.621 -0.304,0.875 -0.28,0.309 -0.594,0.585 -0.885,0.884 -1.311,0.752 -0.378,0.21 -0.88,0.3 z" fill="#3a3a39" transform="matrix(1.33333 0 0 -1.33333 34.74 57.915)"/></g><g style="mix-blend-mode:multiply"><path style="mix-blend-mode:multiply" d="M 0,0 -1.184,-0.069 -2.485,-0.535 -3.958,-1.419 -5.286,-2.745 -5.6,-3.3 l 0.079,-0.442 0.447,-0.747 1.179,-1.178 1.301,-0.763 0.777,-0.108 1.337,-0.142 h 0.013 l 1.488,0.28 1.258,0.51 0.869,0.605 0.762,0.713 0.667,0.805 0.438,0.751 0.118,0.467 -0.064,0.231 -0.8,0.687 -1.264,0.801 -0.658,0.226 -0.996,0.482 -0.399,0.009 z" fill="#3a3a39" transform="matrix(1.33333 0 0 -1.33333 55.43 50.194)"/></g><g style="mix-blend-mode:multiply"><path style="mix-blend-mode:multiply" d="m 0,0 -1.25,-0.644 -1.541,-1.11 -0.634,-0.841 -0.623,-0.849 -0.59,-1.474 -0.565,-1.212 0.055,-0.463 0.245,-0.359 1.272,-0.495 0.756,-0.128 1.189,-0.065 0.879,0.06 1.047,0.142 2.284,0.663 1.674,0.831 C 2.025,-4.722 0.697,-2.444 0,0" fill="#3a3a39" fill-rule="evenodd" transform="matrix(1.33333 0 0 -1.33333 45.26 128.761)"/></g><g style="mix-blend-mode:multiply"><path style="mix-blend-mode:multiply" d="m 0,0 -0.15,-0.233 -0.731,-1.722 c 0.622,-0.02 1.402,-0.106 2.305,-0.337 1.517,-0.387 2.524,-1.324 3.06,-1.963 l 1.098,0.353 0.691,0.372 -0.808,3.029 C 4.596,-0.659 1.991,-0.39 0,0" fill="#3a3a39" fill-rule="evenodd" transform="matrix(1.33333 0 0 -1.33333 56.37 138.937)"/></g><g style="mix-blend-mode:multiply"><path style="mix-blend-mode:multiply" d="M 0,0 -0.005,1.469 -0.097,1.675 -0.29,1.783 -0.722,1.828 -1.125,1.705 -2.397,1.493 l -0.86,-0.029 -0.436,0.127 -0.069,0.133 0.245,1.773 0.163,0.427 0.191,0.988 0.074,0.83 -0.128,0.472 -0.28,0.315 -0.368,0.22 H -4.102 L -6.017,6.292 -8.09,5.713 -8.704,5.443 -10.069,4.45 l -0.997,-1.065 -0.59,-1.474 -0.26,-1.214 -0.039,-0.858 0.101,-0.599 c 0.391,-0.509 0.778,-1.007 0.753,-1.081 -0.031,-0.094 0.107,-0.845 0.198,-1.479 l 0.373,-0.03 0.628,0.28 0.457,0.094 0.192,-0.094 0.103,-0.197 -0.015,-0.24 -0.099,-0.211 -0.137,-0.392 0.089,-0.467 -0.182,-0.683 -0.045,-0.55 0.187,-0.889 0.266,-0.325 0.864,-0.27 0.006,-0.113 -0.124,-0.153 -1.484,-1.202 -1.271,-1.675 -0.531,-1.238 -0.03,-1.159 0.114,-0.771 0.348,-1.216 c 1.628,-0.003 3.204,-0.445 4.209,-0.941 l 0.964,1.724 0.133,0.457 0.22,0.664 0.177,1 0.029,1.15 -0.412,1.946 -0.035,1.449 0.09,0.206 0.176,0.118 1.189,0.285 1.228,0.541 1.1,0.667 0.756,0.717 0.795,0.972 0.796,1.268 0.079,0.521 z" fill="#3a3a39" fill-rule="evenodd" transform="matrix(1.33333 0 0 -1.33333 96.263 117.23)"/></g><g style="mix-blend-mode:multiply"><path style="mix-blend-mode:multiply" d="M 0,0 C 2.465,1.86 4.432,2.874 9.035,3.466 L 9.189,4.254 9.199,5.084 8.968,5.444 8.58,5.645 7.538,5.782 6.714,5.842 5.697,5.949 5.009,5.778 4.592,5.782 3.62,5.694 2.214,5.33 1.261,4.81 0.142,3.867 -0.772,2.422 -1.042,1.808 -1.396,0.979 -1.533,0.252 -1.774,-1.197 -1.673,-1.505 C -1.232,-1.027 -0.683,-0.515 0,0" fill="#3a3a39" fill-rule="evenodd" transform="matrix(1.33333 0 0 -1.33333 50.558 115.797)"/></g><path style="mix-blend-mode:multiply" d="M 0,0 C -0.039,-0.241 -0.184,-0.412 -0.296,-0.61 -0.366,-0.734 -0.413,-0.872 -0.483,-0.996 -0.712,-1.407 -0.947,-1.814 -1.181,-2.222 -1.196,-2.25 -1.219,-2.279 -1.245,-2.295 -1.519,-2.466 -1.69,-2.736 -1.891,-2.975 -2.22,-3.37 -2.594,-3.72 -2.992,-4.037 -3.384,-4.351 -3.809,-4.622 -4.262,-4.849 -4.613,-5.024 -4.964,-5.195 -5.331,-5.334 -5.513,-5.402 -5.699,-5.462 -5.884,-5.525 -6.074,-5.59 -6.265,-5.654 -6.456,-5.719 -6.48,-5.727 -6.504,-5.741 -6.529,-5.744 -6.908,-5.782 -7.268,-5.903 -7.635,-5.99 -7.818,-6.035 -7.989,-6.12 -8.17,-6.175 c -0.105,-0.031 -0.217,-0.051 -0.327,-0.052 -0.408,-0.005 -0.804,-0.067 -1.197,-0.185 -0.172,-0.051 -0.362,-0.045 -0.544,-0.052 -0.307,-0.014 -0.615,-0.015 -0.922,-0.025 -0.196,-0.006 -0.284,-0.139 -0.227,-0.332 0.004,-0.013 0.008,-0.025 0.013,-0.038 0.099,-0.229 0.037,-0.426 -0.139,-0.584 -0.091,-0.082 -0.2,-0.149 -0.309,-0.204 -0.216,-0.107 -0.437,-0.201 -0.658,-0.299 -0.047,-0.02 -0.099,-0.03 -0.15,-0.041 -0.044,-0.009 -0.092,-0.008 -0.134,-0.024 -0.442,-0.166 -0.896,-0.163 -1.353,-0.1 -0.07,0.009 -0.137,0.039 -0.205,0.06 -0.073,0.022 -0.148,0.043 -0.222,0.066 -0.079,0.023 -0.161,0.043 -0.237,0.074 -0.067,0.028 -0.126,0.07 -0.189,0.104 -0.196,0.103 -0.308,0.091 -0.452,-0.069 -0.082,-0.09 -0.17,-0.121 -0.292,-0.122 -0.326,-0.002 -0.653,-0.021 -0.979,-0.032 -0.059,-0.002 -0.118,10e-4 -0.176,0.009 -0.146,0.021 -0.283,0.001 -0.426,-0.035 -0.288,-0.073 -0.577,-0.092 -0.872,-0.003 -0.128,0.04 -0.27,0.036 -0.407,0.039 -0.412,0.005 -0.824,0.002 -1.236,0.008 -0.163,0.001 -0.326,0.02 -0.489,0.025 -0.281,0.009 -0.563,-0.005 -0.838,0.08 -0.08,0.025 -0.168,0.027 -0.253,0.025 -0.16,-0.003 -0.312,0.014 -0.456,0.09 -0.034,0.018 -0.075,0.033 -0.113,0.033 -0.217,0.002 -0.427,0.049 -0.634,0.113 -0.205,0.063 -0.411,0.12 -0.615,0.185 -0.185,0.06 -0.371,0.12 -0.553,0.191 -0.205,0.081 -0.408,0.17 -0.608,0.264 -0.325,0.153 -0.654,0.299 -0.966,0.475 -0.277,0.158 -0.532,0.355 -0.801,0.53 -0.197,0.128 -0.401,0.246 -0.6,0.368 -0.094,0.059 -0.198,0.106 -0.278,0.18 -0.302,0.281 -0.6,0.563 -0.938,0.804 -0.155,0.111 -0.265,0.285 -0.392,0.434 -0.11,0.129 -0.215,0.262 -0.321,0.395 -0.056,0.071 -0.113,0.143 -0.163,0.218 -0.096,0.141 -0.187,0.285 -0.281,0.426 -0.1,0.153 -0.096,0.298 0.044,0.417 0.173,0.147 0.315,0.331 0.483,0.486 0.403,0.37 0.861,0.661 1.353,0.897 0.389,0.186 0.779,0.371 1.177,0.532 0.283,0.114 0.582,0.187 0.874,0.279 0.199,0.063 0.397,0.127 0.595,0.191 0.006,0.001 0.012,0.006 0.018,0.007 0.406,0.04 0.791,0.231 1.211,0.18 0.057,-0.007 0.118,0.007 0.175,0.017 0.307,0.053 0.612,0.039 0.92,0.003 0.2,-0.024 0.405,-0.018 0.607,-0.036 0.109,-0.009 0.217,-0.036 0.325,-0.058 0.114,-0.023 0.229,-0.047 0.342,-0.075 0.17,-0.044 0.344,-0.079 0.506,-0.142 0.218,-0.086 0.434,-0.183 0.639,-0.298 0.33,-0.185 0.656,-0.381 0.974,-0.587 0.251,-0.163 0.5,-0.334 0.73,-0.526 0.235,-0.196 0.451,-0.418 0.67,-0.634 0.47,-0.467 0.88,-0.984 1.294,-1.499 0.252,-0.312 0.487,-0.633 0.685,-0.98 0.096,-0.169 0.154,-0.357 0.236,-0.533 0.026,-0.058 0.068,-0.112 0.112,-0.157 0.078,-0.078 0.116,-0.166 0.126,-0.278 0.018,-0.232 0.115,-0.441 0.229,-0.641 0.056,-0.096 0.358,-0.135 0.424,-0.05 0.035,0.045 0.045,0.121 0.046,0.182 0.003,0.44 0.002,0.878 0,1.317 -0.002,0.188 0.015,0.381 -0.082,0.556 -0.003,0.007 -0.006,0.013 -0.005,0.019 0.012,0.304 -0.047,0.596 -0.143,0.882 -0.03,0.093 -0.043,0.191 -0.065,0.286 -10e-4,0.006 -0.007,0.011 -0.007,0.018 -0.012,0.269 -0.088,0.525 -0.165,0.78 -0.078,0.255 -0.094,0.525 -0.197,0.775 -0.06,0.149 -0.087,0.312 -0.127,0.469 -0.054,0.215 -0.099,0.432 -0.16,0.645 -0.054,0.193 -0.126,0.381 -0.186,0.573 -0.037,0.118 -0.065,0.239 -0.098,0.358 -0.059,0.212 -0.118,0.425 -0.181,0.637 -0.027,0.087 -0.071,0.169 -0.097,0.256 -0.057,0.201 -0.032,0.252 0.174,0.278 0.291,0.036 0.586,0.052 0.879,0.08 0.266,0.024 0.533,0.052 0.799,0.08 0.04,0.004 0.078,0.012 0.116,0.019 0.14,0.024 0.277,0.05 0.458,0.083 0.036,-0.185 0.167,-0.358 0.171,-0.574 0,-0.059 -0.002,-0.121 0.017,-0.176 0.086,-0.239 0.066,-0.489 0.077,-0.736 0.002,-0.047 -0.002,-0.094 0.008,-0.138 0.06,-0.273 0.123,-0.545 0.187,-0.818 0.003,-0.019 0.019,-0.037 0.018,-0.055 -0.013,-0.313 0.157,-0.592 0.167,-0.9 0.004,-0.084 0.031,-0.167 0.05,-0.249 0.011,-0.044 0.036,-0.089 0.035,-0.132 -0.007,-0.323 0.118,-0.613 0.212,-0.912 0.014,-0.043 0.027,-0.09 0.026,-0.134 -0.002,-0.134 0.022,-0.26 0.086,-0.378 0.017,-0.035 0.029,-0.074 0.034,-0.113 0.04,-0.324 0.122,-0.638 0.229,-0.948 0.052,-0.152 0.089,-0.309 0.138,-0.463 0.011,-0.035 0.037,-0.07 0.066,-0.094 0.075,-0.063 0.153,-0.123 0.234,-0.177 0.149,-0.102 0.272,-0.045 0.285,0.132 0.013,0.176 0.006,0.353 0.101,0.514 0.026,0.046 0.014,0.116 0.015,0.174 0.004,0.223 0.005,0.445 0.009,0.668 0.003,0.184 0.039,0.36 0.086,0.539 0.071,0.27 0.096,0.552 0.139,0.829 0.01,0.058 0.007,0.119 0.026,0.173 0.063,0.184 0.134,0.366 0.198,0.55 0.153,0.436 0.394,0.823 0.648,1.205 0.377,0.568 0.861,1.039 1.365,1.486 0.385,0.344 0.819,0.632 1.278,0.873 0.463,0.243 0.93,0.477 1.395,0.715 0.04,0.021 0.084,0.037 0.119,0.065 0.203,0.167 0.446,0.238 0.69,0.31 0.218,0.063 0.432,0.136 0.648,0.205 0.012,0.004 0.025,0.01 0.038,0.012 0.27,0.038 0.539,0.091 0.812,0.113 0.345,0.027 0.692,0.039 1.039,0.04 0.293,0 0.595,0.01 0.879,-0.051 0.271,-0.058 0.552,-0.075 0.818,-0.185 0.18,-0.074 0.373,-0.139 0.582,-0.152 0.14,-0.009 0.273,-0.115 0.41,-0.178 C 0.075,2.608 0.216,2.541 0.361,2.482 0.506,2.424 0.566,2.334 0.533,2.175 0.474,1.888 0.408,1.602 0.343,1.316 0.294,1.101 0.248,0.885 0.192,0.673 0.132,0.447 0.036,0.229 0,0 m -17.588,-0.839 1.176,0.493 c 0.046,-0.163 0.089,-0.327 0.137,-0.49 0.063,-0.211 0.132,-0.421 0.196,-0.632 0.039,-0.131 0.079,-0.262 0.112,-0.394 0.09,-0.36 0.154,-0.724 0.324,-1.062 0.068,-0.135 0.134,-0.303 -0.011,-0.476 -0.036,0.031 -0.057,0.046 -0.073,0.065 -0.183,0.23 -0.366,0.461 -0.548,0.692 -0.505,0.64 -1.084,1.208 -1.711,1.726 z m -1.748,1.185 0.637,0.528 0.799,0.472 c 0.207,-0.019 0.414,-0.029 0.623,-0.02 0.078,0.003 0.156,0.007 0.235,0.011 0.075,0.006 0.126,-0.026 0.151,-0.097 0.038,-0.111 0.077,-0.222 0.111,-0.334 0.046,-0.159 0.088,-0.32 0.134,-0.479 l -0.423,-0.242 -1.049,-0.415 -0.641,-0.068 c -0.258,0.19 -0.527,0.364 -0.823,0.505 l -0.003,0.001 z m -0.041,1.101 -0.921,-0.557 -0.437,-0.286 c -0.039,0.005 -0.076,0.014 -0.116,0.017 -0.019,0.001 -0.037,0.008 -0.055,0.012 l -0.001,0.002 0.433,0.914 c 0.103,-10e-4 0.206,-0.006 0.306,-0.023 0.27,-0.047 0.54,-0.06 0.812,-0.069 z m -2.067,1.05 c -0.062,0 -0.125,0.032 -0.186,0.051 -0.198,0.062 -0.397,0.123 -0.594,0.188 -0.266,0.087 -0.529,0.182 -0.794,0.267 -0.124,0.04 -0.253,0.061 -0.376,0.099 -0.261,0.082 -0.528,0.15 -0.777,0.26 -0.298,0.129 -0.588,0.282 -0.866,0.451 -0.324,0.197 -0.633,0.417 -0.945,0.634 -0.214,0.148 -0.429,0.299 -0.632,0.462 -0.255,0.205 -0.503,0.418 -0.746,0.636 -0.492,0.441 -0.881,0.965 -1.187,1.549 -0.275,0.527 -0.554,1.052 -0.81,1.588 -0.119,0.249 -0.17,0.532 -0.283,0.784 -0.121,0.271 -0.075,0.552 -0.103,0.828 -0.01,0.095 -0.029,0.194 -0.068,0.281 -0.092,0.2 -0.07,0.413 -0.076,0.619 -0.011,0.365 0.007,0.732 0.028,1.099 0.007,0.135 0.06,0.267 0.079,0.402 0.024,0.162 0.031,0.325 0.053,0.487 0.016,0.128 0.043,0.254 0.067,0.382 0.003,0.019 0.017,0.037 0.017,0.056 0.008,0.338 0.203,0.611 0.331,0.904 0.167,0.381 0.347,0.757 0.536,1.126 0.097,0.192 0.225,0.368 0.341,0.549 0.17,0.264 0.335,0.531 0.517,0.785 0.098,0.138 0.224,0.256 0.339,0.381 0.253,0.273 0.507,0.545 0.764,0.816 0.058,0.062 0.118,0.123 0.188,0.169 0.129,0.085 0.235,0.186 0.31,0.322 0.113,0.206 0.296,0.345 0.474,0.49 0.173,0.141 0.337,0.292 0.512,0.428 0.206,0.16 0.421,0.311 0.633,0.463 0.128,0.091 0.251,0.189 0.389,0.262 0.381,0.201 0.768,0.39 1.151,0.586 0.163,0.083 0.318,0.182 0.484,0.258 0.171,0.078 0.355,0.126 0.525,0.207 0.341,0.161 0.719,0.224 1.05,0.417 0.2,0.116 0.431,0.18 0.649,0.262 0.041,0.016 0.091,0.012 0.136,0.015 0.052,0.005 0.106,-10e-4 0.156,0.013 0.212,0.059 0.422,0.126 0.633,0.186 0.068,0.02 0.14,0.033 0.211,0.035 0.172,0.007 0.34,0.017 0.496,0.098 0.006,0.004 0.012,0.006 0.012,0.006 0.282,0.046 0.556,0.089 0.831,0.135 0.134,0.022 0.267,0.051 0.402,0.075 0.121,0.021 0.243,0.041 0.365,0.057 0.167,0.023 0.336,0.042 0.504,0.064 0.038,0.005 0.076,0.022 0.115,0.021 0.44,-0.009 0.87,0.077 1.304,0.138 0.114,0.016 0.234,-0.011 0.351,-0.009 0.268,0.004 0.536,0.016 0.804,0.021 0.058,0.002 0.123,0.012 0.176,-0.009 0.37,-0.147 0.76,-0.121 1.143,-0.119 0.335,0.003 0.647,-0.065 0.959,-0.168 0.087,-0.029 0.177,-0.06 0.266,-0.065 0.158,-0.008 0.304,-0.032 0.457,-0.085 0.224,-0.079 0.467,-0.103 0.698,-0.163 0.194,-0.05 0.383,-0.117 0.576,-0.176 0.179,-0.054 0.361,-0.102 0.539,-0.163 0.11,-0.038 0.215,-0.093 0.319,-0.146 0.441,-0.227 0.883,-0.453 1.321,-0.686 0.514,-0.275 1.007,-0.586 1.461,-0.951 0.196,-0.158 0.349,-0.369 0.521,-0.557 0.061,-0.067 0.111,-0.147 0.179,-0.205 0.27,-0.233 0.512,-0.486 0.684,-0.802 0.015,-0.028 0.036,-0.054 0.058,-0.078 0.393,-0.46 0.668,-0.993 0.937,-1.529 0.015,-0.029 0.03,-0.063 0.027,-0.093 -0.021,-0.242 0.108,-0.438 0.19,-0.649 0.045,-0.115 0.077,-0.235 0.11,-0.353 0.062,-0.219 0.118,-0.439 0.179,-0.657 0.041,-0.15 0.074,-0.306 0.134,-0.449 0.072,-0.167 0.096,-0.338 0.1,-0.516 0.005,-0.268 0.01,-0.537 -0.002,-0.805 -0.007,-0.155 -0.044,-0.309 -0.071,-0.463 -0.012,-0.064 -0.048,-0.128 -0.045,-0.19 0.01,-0.284 -0.083,-0.553 -0.118,-0.83 -0.001,-0.012 0.002,-0.029 -0.004,-0.038 -0.147,-0.191 -0.116,-0.434 -0.191,-0.646 -0.074,-0.208 -0.119,-0.425 -0.18,-0.637 C -3.745,10.541 -3.785,10.41 -3.836,10.283 -3.977,9.934 -4.108,9.578 -4.276,9.24 -4.489,8.808 -4.721,8.383 -5.051,8.023 -5.325,7.723 -5.583,7.409 -5.864,7.117 -6.045,6.93 -6.255,6.771 -6.453,6.6 -6.834,6.271 -7.212,5.937 -7.6,5.616 -7.795,5.455 -8.008,5.313 -8.214,5.163 -8.326,5.084 -8.447,5.014 -8.55,4.924 -8.888,4.624 -9.299,4.451 -9.702,4.264 -10.175,4.043 -10.649,3.822 -11.125,3.605 -11.409,3.475 -11.695,3.347 -11.986,3.228 -12.128,3.169 -12.282,3.139 -12.43,3.092 -12.627,3.028 -12.823,2.958 -13.021,2.896 -13.2,2.839 -13.385,2.797 -13.563,2.732 c -0.237,-0.087 -0.5,-0.081 -0.726,-0.209 -0.053,-0.03 -0.128,-0.026 -0.192,-0.029 -0.438,-0.016 -0.876,-0.022 -1.314,-0.046 -0.215,-0.011 -0.428,-0.046 -0.641,-0.08 -0.582,-0.09 -1.168,-0.128 -1.648,-0.11 -0.345,0 -0.58,-10e-4 -0.816,0 -0.236,0 -0.468,0.005 -0.699,0.079 -0.146,0.046 -0.31,0.039 -0.466,0.054 -0.169,0.015 -0.337,0.03 -0.507,0.046 0,0 -0.026,0.007 -0.038,0.003 -0.284,-0.082 -0.554,0.061 -0.834,0.057 m -10.859,3.053 -0.082,0.017 -0.011,0.067 0.602,0.848 0.676,0.786 0.464,0.398 0.482,0.239 c 0.115,-0.317 0.25,-0.623 0.45,-0.898 0.031,-0.042 0.06,-0.086 0.083,-0.133 0.038,-0.08 0.093,-0.148 0.135,-0.226 z m 3.613,-0.675 -1.1,-0.356 -1.709,-0.341 -1.211,0.148 0.21,0.168 1.947,0.998 0.66,0.234 0.736,0.361 c 0.163,-0.219 0.34,-0.43 0.529,-0.629 0.107,-0.113 0.221,-0.219 0.331,-0.329 z m 10.549,18.756 0.626,0.521 1.286,0.776 0.931,0.551 0.185,0.052 0.37,-0.124 1.95,-1.563 0.173,-0.225 c -0.107,0.009 -0.215,0.017 -0.312,0.081 -0.025,0.016 -0.063,0.013 -0.096,0.012 -0.987,-0.008 -1.976,0.026 -2.963,-0.045 -0.227,-0.016 -0.458,-0.074 -0.681,-0.051 -0.522,0.054 -1.026,-0.075 -1.537,-0.123 z m -7.306,-2.717 0.927,1.114 1.516,1.126 1.486,0.548 1.397,0.191 0.615,-0.043 0.089,-0.072 -0.013,-0.063 -1.115,-0.83 c -0.172,-0.044 -0.345,-0.081 -0.513,-0.134 -0.223,-0.069 -0.438,-0.158 -0.659,-0.231 -0.14,-0.048 -0.288,-0.076 -0.428,-0.125 -0.336,-0.117 -0.638,-0.316 -0.99,-0.403 -0.276,-0.068 -0.54,-0.187 -0.809,-0.287 -0.041,-0.015 -0.083,-0.043 -0.109,-0.077 -0.195,-0.246 -0.48,-0.361 -0.746,-0.491 -0.134,-0.066 -0.272,-0.121 -0.395,-0.208 -0.126,-0.089 -0.251,-0.179 -0.376,-0.27 z m -5.134,-0.159 -0.165,-1.518 -0.271,-0.894 -0.976,-1.343 -0.396,-0.164 -0.557,-0.002 -0.216,0.052 -0.312,0.523 0.034,0.777 0.3,0.852 0.694,1.067 0.521,0.648 1.028,1.023 0.097,0.019 0.075,-0.08 z m -9.656,-7.259 -0.313,0.253 -0.286,0.559 -0.01,0.833 0.235,0.918 0.657,1.391 1.114,1.542 0.156,0.059 0.15,-0.038 0.227,-0.331 0.245,-0.91 0.022,-1.706 -0.277,-1.182 -0.607,-0.83 -0.462,-0.403 -0.656,-0.194 z m -12.874,0.259 -0.61,-1.128 -0.936,-1.111 -0.625,-0.548 -0.493,-0.378 -1.147,-0.61 -1.424,-0.286 -0.151,0.02 -0.259,0.259 -0.051,0.186 0.151,0.671 0.172,0.394 0.014,0.364 0.088,0.082 0.455,0.145 0.357,0.542 1.443,0.882 0.633,0.243 1.628,0.435 0.573,0.006 0.157,-0.067 z m 0.733,6.835 -0.039,-0.102 -1.437,-0.901 -1.1,-0.361 -1.282,-0.185 -1.22,0.241 -0.331,0.225 -0.201,0.359 -0.01,0.346 0.473,0.646 0.337,0.218 1.245,0.209 1.134,-0.03 1.249,-0.213 1.112,-0.362 z m 7.651,-8.185 -0.364,-1.655 -0.65,-1.094 -0.729,-0.725 -0.187,-0.051 -0.407,0.134 -0.399,0.732 -0.014,1.121 0.229,0.923 0.579,1.188 0.696,1.35 0.659,0.818 0.129,0.057 0.114,-0.048 0.159,-0.404 0.107,-0.769 0.034,-1.164 z m 0.017,12.714 -0.028,-0.114 c -5.999,-1.728 -5.328,4.796 -0.606,0.907 l 0.567,-0.625 z m 6.659,2.823 -0.051,-0.134 -0.161,-0.066 c -1.674,0.233 -2.814,0.978 -3.857,2.262 l -0.197,0.383 -0.021,0.224 0.165,0.402 0.307,0.236 0.502,0.074 0.525,-0.065 0.361,-0.201 1.014,-1.024 1.257,-1.687 z m 6.364,2.689 -0.052,-0.139 -0.092,-0.019 -1.119,0.617 -1.425,1.208 -0.502,0.665 -0.332,0.83 -0.052,0.504 0.13,0.443 0.258,0.308 0.178,0.072 0.452,-0.055 0.604,-0.268 1.162,-1.163 0.536,-1.199 0.25,-1.222 z m 8.889,1.901 0.956,-0.799 0.706,-0.793 0.098,-0.15 -0.005,-0.053 -0.403,-0.06 -1.238,0.246 -1.136,0.604 -0.806,0.649 -0.914,1.138 -0.442,1.037 0.025,0.204 0.081,0.082 0.347,-0.112 0.958,-0.524 0.963,-0.806 z m -2.67,2.903 0.011,0.059 0.34,0.024 0.839,-0.066 1.14,-0.327 1.298,-0.752 0.679,-0.763 0.425,-0.736 0.149,-1.021 -0.008,-0.063 -0.241,0.056 -0.829,0.66 -2.831,2.181 -0.873,0.625 z m 13.741,0.315 -0.488,-1.598 -0.409,-1.642 -0.844,-2.108 -0.094,-0.073 -0.074,0.022 -0.246,0.609 -0.263,1.456 0.224,1.158 0.37,0.789 0.784,0.98 0.697,0.782 0.169,0.118 0.137,0.019 0.076,-0.076 z m -1.105,-5.903 0.367,1.101 0.634,1.725 0.441,1.323 0.33,0.857 0.071,0.068 0.071,-0.037 c 0.757,-1.888 0.174,-4.268 -1.776,-5.177 l -0.104,0.029 z m 8.08,0.264 -0.89,-1.176 -0.362,-0.528 -0.871,-1.494 -0.291,-0.608 -0.11,-0.107 -0.086,0.002 -0.21,0.303 c -0.632,2.336 0.773,4.048 3.05,4.222 l 0.137,-0.048 0.014,-0.08 z m -1.543,-3.725 0.703,1.348 0.876,1.191 0.346,0.521 0.455,0.447 0.113,0.033 0.075,-0.074 0.02,-0.823 L -3.986,27.55 -4.563,26.382 -4.989,25.956 -5.573,25.677 -6.454,25.39 -6.6,25.449 -6.646,25.583 Z M -0.129,4.776 0.016,5.795 0.248,6.453 0.599,7.861 0.831,8.485 0.837,8.486 0.958,8.182 1.178,6.906 0.996,5.916 0.587,4.573 0.076,3.684 c -0.108,0.053 -0.214,0.11 -0.321,0.162 l -0.004,10e-4 z m -1.67,-0.69 -0.067,0.134 c -0.811,1.553 0.015,3.616 1.578,4.307 L -0.21,8.512 -0.149,8.111 -0.885,4.397 -0.957,4.004 C -1.03,4.019 -1.103,4.037 -1.177,4.043 -1.385,4.06 -1.594,4.06 -1.799,4.086 m 3.547,9.662 0.605,0.564 c 0.951,0.62 2.994,2.324 3.922,2.82 L 6.399,17.096 6.441,16.965 6.138,16.117 5.708,15.384 4.898,14.44 3.806,13.79 2.564,13.277 1.368,13.045 1.246,13.096 1.22,13.177 Z M 3.402,15.945 2.143,15.121 1.725,14.672 0.678,13.935 0.527,13.924 l -0.104,0.103 -0.029,0.21 0.322,0.858 0.572,0.883 c 0.584,0.81 2.355,1.257 3.241,1.229 l 0.1,-0.086 0.009,-0.101 z m -26.62,25.571 0.755,0.387 0.717,0.154 c 2.047,0.364 2.473,0.804 4.651,0.867 l 0.087,-0.087 -0.018,-0.135 c -1.559,-1.519 -3.845,-2.318 -5.931,-1.431 l -0.204,0.083 -0.079,0.087 z m 3.945,3.04 1.182,-0.271 0.386,-0.211 0.096,-0.117 -0.016,-0.08 -0.387,-0.141 -1.46,-0.321 -3.802,-0.94 -0.207,0.026 -0.079,0.078 0.032,0.116 0.447,0.453 0.608,0.547 0.929,0.524 1.147,0.318 z m -13.158,-1.922 0.644,0.812 0.656,0.538 0.676,0.784 1.106,0.958 0.458,0.402 0.084,-0.019 0.046,-0.133 c -0.366,-2.127 -2.003,-3.618 -4.07,-4.076 l -0.137,0.048 -0.019,0.084 z m 2.491,3.548 -0.803,-0.685 -0.527,-0.643 -2.393,-2.346 -0.144,-0.096 -0.064,0.005 -0.028,0.101 c 0.305,2.382 1.856,4.649 4.48,4.558 l 0.124,-0.043 0.004,-0.058 z m -8.335,0.682 -0.242,-0.52 -2.709,-3.776 -0.656,-0.834 -0.146,-0.087 -0.093,0.023 -0.066,0.155 0.024,0.552 0.213,0.671 0.201,0.665 0.645,1.113 0.642,0.818 1.338,0.993 0.656,0.249 0.159,0.012 z m 1.108,-0.856 -0.208,-1.275 c -0.33,-1.488 -2.322,-3.825 -3.95,-3.836 l -0.068,0.065 0.018,0.139 0.506,0.691 2.909,3.871 0.599,0.863 0.081,0.027 0.08,-0.08 z m -13.384,1.202 -2.074,-1.177 -0.499,-0.374 -0.76,-0.433 -0.336,-0.273 -0.173,-0.064 -0.11,0.03 -0.029,0.101 0.18,0.37 0.394,0.504 0.74,1.011 1.807,1.108 0.474,0.094 1.459,-0.029 0.145,-0.068 0.008,-0.046 z m -2.894,-3.011 0.496,0.383 0.402,0.47 1.785,1.142 0.966,0.498 0.887,0.321 0.325,0.14 0.028,-0.028 -0.11,-0.353 c -0.974,-1.582 -2.765,-2.674 -4.641,-2.671 l -0.138,0.057 z m 4.845,11.195 0.043,0.073 c 1.947,0.758 4.412,0.091 5.853,-1.4 l -10e-4,-0.047 -0.386,-0.047 -1.23,0.263 -2.824,0.712 -1.398,0.367 z m 3.871,-2.104 1.023,-0.165 0.117,-0.057 -0.001,-0.032 -0.559,-0.274 -1.772,-0.272 -1.22,0.24 -0.618,0.257 -0.82,0.626 -0.288,0.313 -0.083,0.195 -0.005,0.164 0.061,0.063 1.282,-0.105 1.263,-0.511 0.758,-0.109 z m 0.312,11.143 V 64.31 l -0.112,-0.108 -1.416,-0.347 -1.712,0.019 -0.904,0.249 -0.383,0.201 -0.124,0.145 -0.044,0.198 0.043,0.193 0.308,0.259 0.64,0.215 0.995,0.116 1.997,-0.597 0.603,-0.294 z m -0.892,5.897 -0.08,-0.122 -1.227,-0.529 c -1.548,-0.37 -3.008,-0.287 -4.297,0.741 l -0.13,0.438 0.043,0.544 0.304,0.539 0.354,0.198 0.736,0.139 0.752,-0.122 1.19,-0.273 1.136,-0.618 0.733,-0.432 0.468,-0.387 z m -5.751,7.996 -1.35,0.372 -0.519,0.338 -0.368,0.481 -0.098,0.479 0.107,0.452 0.122,0.127 0.456,0.102 1.118,-0.063 0.874,-0.277 1.475,-0.869 0.392,-0.44 -0.012,-0.106 -0.318,-0.209 -0.895,-0.266 z m -0.316,8.479 -0.013,-0.078 -0.136,-0.051 -0.786,0.09 -0.687,0.182 -1.172,0.577 -1.289,1.056 -0.228,0.338 -0.06,0.488 0.136,0.427 0.149,0.092 0.822,0.02 0.877,-0.278 0.919,-0.812 0.873,-1.186 0.359,-0.538 z m 4.955,5.575 -0.068,-0.826 -0.209,-1.253 -0.144,-0.453 -0.106,-0.151 -0.108,-0.029 -0.275,0.242 -0.491,0.683 -0.93,2.007 -0.626,2.011 -0.118,1.066 -0.01,0.458 0.264,0.592 0.307,0.248 0.436,0.014 0.387,-0.184 0.659,-0.785 0.64,-1.395 0.221,-0.951 z m 3.395,-3.639 0.115,0.953 0.272,1.187 1.292,1.928 0.315,0.16 0.367,-0.068 0.297,-0.257 0.129,-0.437 -0.084,-0.766 -0.348,-1.108 -0.33,-0.542 -1.034,-0.994 -0.715,-0.439 -0.11,0.023 z m 2.309,-5.946 0.139,1.027 0.254,0.904 0.745,1.299 0.505,0.345 0.661,0.175 0.651,-0.179 0.272,-0.272 0.193,-0.663 -0.083,-0.46 -0.446,-0.71 -0.533,-0.631 -1.459,-0.874 -0.67,-0.194 -0.153,0.058 z m 2.072,-7.085 0.085,1.378 0.512,1.831 0.475,0.982 0.33,0.217 0.352,0.009 0.543,-0.292 0.129,-0.13 0.116,-0.449 c -0.152,-2.188 -0.827,-1.871 -1.88,-3.373 l -0.512,-0.34 -0.089,0.019 z m 3.159,-6.47 0.283,1.09 0.355,0.813 0.661,0.797 0.55,0.609 0.401,0.17 0.502,-0.051 0.353,-0.201 0.204,-0.356 0.019,-0.474 -0.314,-0.842 -0.455,-0.391 -1.692,-0.95 -0.645,-0.261 -0.163,-0.012 z m -2.775,-8.545 -0.185,0.361 0.021,0.099 0.114,0.031 c 2.519,-0.144 4.531,-1.81 5.003,-4.33 l -0.047,-0.131 -0.081,-0.013 -0.481,0.374 -2.689,2.325 z m -1.2,-0.133 0.129,0.046 0.169,-0.065 0.625,-0.581 1.178,-0.883 1.155,-0.9 0.906,-0.866 0.786,-0.679 0.433,-0.456 0.097,-0.306 -0.08,-0.08 c -2.813,-0.362 -4.252,0.9 -5.198,3.412 l -0.257,1.21 z m 15.048,-2.066 0.297,-0.152 0.753,-0.738 0.315,-0.255 0.909,-1.166 0.761,-0.741 0.086,-0.144 -0.02,-0.088 -0.108,-0.033 c -1.417,0.5 -2.644,1.617 -3.036,3.101 l -0.009,0.164 z m 3.59,-2.127 -0.016,-0.084 h -0.036 l -0.856,0.894 -0.98,1.078 -0.791,0.963 0.226,-0.043 1.149,-0.635 0.586,-0.569 0.547,-0.903 z m -3.295,8.974 1.16,0.036 0.462,0.086 0.715,-0.087 0.409,0.039 0.472,-0.059 0.01,-0.002 0.496,0.104 0.185,-0.026 0.112,-0.112 0.015,-0.152 -0.257,-0.288 -0.875,-0.58 -1.05,-0.408 -1.94,0.005 -0.907,0.251 -0.718,0.459 -0.088,0.133 0.013,0.109 0.334,0.195 z m 3.807,1.001 -0.431,-0.137 -1.311,-0.156 -1.753,-0.027 -1.517,-0.252 -0.13,0.047 -0.019,0.082 0.559,0.578 c 1.467,0.926 3.121,0.899 4.597,0.052 l 0.051,-0.1 z m -1.83,6.977 -0.046,-0.129 -0.145,-0.057 -1.444,0.307 -0.41,0.169 -1.626,1.292 -0.253,0.311 -0.075,0.499 0.098,0.483 0.117,0.124 0.904,0.186 0.632,-0.199 0.486,-0.37 0.71,-0.747 0.808,-1.236 z m 1.951,7.855 -0.08,-0.174 -0.156,-0.066 c -1.787,0.549 -3.326,2.001 -4.464,3.415 l -0.055,0.484 0.126,0.453 0.116,0.142 0.177,0.086 0.532,0.014 0.683,-0.191 1.022,-0.713 0.716,-0.752 0.64,-0.815 0.683,-1.375 z m 8.866,-0.191 0.548,0.839 1.189,1.152 1.241,0.811 0.692,0.199 0.541,0.308 0.359,-0.066 0.299,-0.259 0.222,-0.608 -0.124,-0.359 -0.456,-0.725 -0.612,-0.545 -1.155,-0.591 -1.074,-0.386 -0.75,-0.12 z m -5.96,9.461 0.057,1.118 0.232,0.932 0.831,1.185 0.44,0.114 0.477,-0.098 0.48,-0.365 0.263,-0.584 0.088,-1.391 0.043,-0.413 -0.464,-1.862 -0.156,-0.719 -0.717,-1.367 -0.111,-0.328 -0.01,10e-4 -0.671,1.049 -0.665,1.974 z m 5.422,-16.637 0.062,0.516 c 3.585,5.634 5.819,0.214 0.626,-0.607 l -0.542,0.014 z m 0.866,-5.933 0.13,0.495 0.527,0.638 1.05,1.001 1.202,0.848 0.471,0.092 0.477,-0.093 0.334,-0.214 0.168,-0.392 -0.028,-0.53 -0.213,-0.348 -0.913,-0.826 -1.249,-0.489 -1.535,-0.255 -0.284,0.015 z m -1.413,-9.817 0.046,0.134 0.108,0.029 c 2.999,-1.774 3.274,-4.388 1.583,-7.332 l -0.08,-0.065 -0.055,0.029 -0.398,1.332 -0.124,0.769 -0.322,1.147 -0.197,1.264 -0.365,2.005 z m 0.312,-4.603 0.177,-1.289 0.121,-0.496 v -0.267 l -0.066,-0.156 -0.087,-0.021 -0.299,0.246 -0.472,0.692 -0.876,1.765 -0.287,0.88 0.019,2.304 0.465,0.997 0.097,0.078 0.07,-0.021 0.172,-0.367 0.288,-1.19 0.179,-1.008 0.19,-0.687 0.143,-0.744 z m 6.578,-0.357 -0.287,-0.885 -0.252,-0.637 -0.289,-0.886 -0.42,-1.078 -0.09,-0.125 h -0.047 l -0.156,0.349 -0.205,0.991 -0.077,0.677 0.342,1.374 0.412,0.456 0.769,0.705 0.512,0.652 0.486,0.245 z m -0.422,-3.773 0.205,0.681 0.637,2.007 1.129,2.415 0.214,0.203 0.05,-0.036 c 0.908,-2.567 0.01,-4.547 -2.182,-5.957 l -0.123,-0.034 -0.051,0.051 z m 9.66,-0.274 -0.301,-0.244 -0.591,-0.305 -1.885,-1.98 -1.056,-1.301 -0.8,-0.957 -0.544,-0.503 -0.027,0.028 0.137,1.541 0.287,1.173 0.456,0.696 0.684,0.773 0.822,0.631 1.016,0.443 0.679,0.165 1.066,0.011 0.075,-0.073 z m -3.704,-4.808 0.374,0.492 1.207,1.435 1.202,1.151 0.638,0.54 0.483,0.421 0.174,0.063 0.095,-0.018 0.018,-0.09 L 4.01,47.881 3.62,47.361 3.143,46.363 2.682,45.366 1.803,44.507 0.805,44.054 0.322,43.958 0.121,44.001 0.015,44.108 Z m 3.221,-9.414 1.055,1.602 0.8,1.559 0.664,1.388 0.453,0.696 0.04,-0.004 0.091,-0.439 -0.276,-1.8 L 5.669,36.472 5.185,35.501 4.538,34.688 3.654,34.135 2.734,33.967 2.708,33.993 Z m 2.083,5.236 -1.096,-2.434 -1.022,-1.621 -1.034,-1.278 -0.08,0.01 -0.167,0.361 -0.049,1.123 0.08,0.789 0.213,0.66 0.906,1.421 0.61,0.57 0.444,0.426 1.175,0.603 0.161,0.009 0.061,-0.061 z M 1.826,22.677 0.473,21.054 c -0.779,-1.165 -1.75,-2.18 -2.723,-3.185 l -0.089,-0.047 -0.038,0.038 c -0.001,2.479 1.744,4.873 4.329,5.134 l 0.032,-0.033 z m -2.584,-4.206 0.557,0.626 1.064,1.289 1.248,1.396 0.477,0.428 0.257,0.297 h 0.047 l 0.042,-0.12 C 2.833,19.896 1.258,17.973 -1.203,17.48 L -1.3,17.503 -1.314,17.581 Z M -3.798,4.13 -3.87,4.427 -4.792,6.896 c 0.181,0.226 0.374,0.442 0.544,0.675 0.285,0.391 0.556,0.791 0.833,1.187 0.015,0.022 0.029,0.044 0.044,0.065 0.146,0.216 0.288,0.435 0.438,0.648 0.048,0.067 0.071,0.122 0.008,0.19 -0.026,0.027 -0.042,0.062 -0.054,0.078 0.051,0.131 0.084,0.252 0.142,0.358 0.065,0.12 0.085,0.245 0.098,0.375 0.004,0.039 0.024,0.074 0.035,0.112 0.059,0.22 0.131,0.437 0.173,0.66 0.048,0.262 0.175,0.504 0.183,0.775 10e-4,0.024 0.024,0.047 0.03,0.072 0.014,0.05 0.024,0.101 0.033,0.153 0.025,0.134 0.049,0.269 0.072,0.402 0.013,0.082 0.025,0.163 0.038,0.244 l 0.368,-0.464 1.79,-2.039 0.102,-0.18 L 0.106,10.034 -0.093,9.703 -0.574,9.316 -1.142,8.979 -2.035,8.104 -2.6,7.173 -2.956,5.732 -2.958,5.719 -2.672,4.14 C -2.801,4.143 -2.929,4.147 -3.058,4.144 -3.304,4.139 -3.552,4.138 -3.798,4.13 m -1.634,1.953 c 0.023,0.027 0.043,0.056 0.065,0.083 L -5.194,5.83 -4.933,4.33 -4.965,4.22 -5.067,4.191 -6.692,4.918 c 0.235,0.173 0.463,0.355 0.673,0.56 0.2,0.197 0.404,0.392 0.587,0.605 m -6.445,-7.463 c -0.075,0.085 -0.064,0.176 -0.067,0.275 -0.006,0.167 -0.025,0.335 -0.048,0.502 -0.015,0.116 -0.046,0.228 -0.066,0.343 -0.012,0.064 -0.011,0.131 -0.028,0.194 -0.07,0.256 -0.152,0.51 -0.217,0.767 -0.087,0.348 -0.163,0.696 -0.244,1.045 -0.037,0.154 0.008,0.253 0.156,0.265 0.161,0.013 0.307,0.046 0.447,0.125 0.037,0.021 0.091,0.01 0.135,0.019 0.051,0.009 0.101,0.02 0.15,0.038 0.176,0.062 0.352,0.126 0.527,0.191 0.261,0.096 0.528,0.182 0.784,0.292 0.304,0.132 0.603,0.28 0.899,0.432 0.455,0.231 0.904,0.474 1.309,0.79 0.157,0.122 0.313,0.246 0.474,0.362 L -7.4,4.151 -6.408,3.62 C -6.707,3.482 -7.007,3.351 -7.298,3.199 -7.674,3.003 -8.046,2.795 -8.408,2.576 -8.642,2.435 -8.883,2.289 -9.077,2.1 -9.434,1.756 -9.828,1.449 -10.137,1.055 -10.282,0.87 -10.439,0.694 -10.579,0.506 c -0.112,-0.152 -0.217,-0.311 -0.304,-0.478 -0.124,-0.237 -0.23,-0.482 -0.338,-0.726 -0.09,-0.203 -0.181,-0.406 -0.254,-0.615 -0.097,-0.276 -0.187,-0.556 -0.206,-0.852 -0.005,-0.066 -0.021,-0.129 -0.111,-0.14 -0.084,0.097 -0.069,0.21 -0.063,0.319 0.008,0.137 0.032,0.273 0.033,0.41 10e-4,0.066 -0.015,0.148 -0.055,0.196 M 7.81,-6.569 7.467,-6.018 C 5.706,-3.67 3.359,-1.84 1.159,0.074 L 1.035,0.165 c 0,0.023 0.011,0.048 0.023,0.068 0.12,0.197 0.101,0.414 0.1,0.63 0,0.11 -0.005,0.225 0.023,0.33 0.061,0.225 0.062,0.448 0.047,0.68 C 1.215,2.069 1.205,2.275 1.346,2.452 1.432,2.562 1.401,2.691 1.324,2.8 1.283,2.857 1.223,2.902 1.17,2.949 1.035,3.064 0.901,3.179 0.764,3.29 0.749,3.301 0.732,3.311 0.717,3.323 L 0.833,3.48 1.431,4.971 1.792,6.095 1.948,7.114 2.031,7.309 2.158,7.402 2.307,7.391 2.616,7.133 3.278,6.309 4.128,5.402 4.751,4.541 5.307,3.927 6.811,1.893 7.347,1.21 7.357,1.196 7.596,1.108 7.818,1.189 7.915,1.424 7.803,1.933 7.194,2.84 6.469,3.889 5.276,5.349 3.003,8.084 2.101,9.24 1.737,9.76 l -0.64,0.543 -0.526,0.654 -0.519,0.668 -0.037,0.135 0.062,0.11 0.165,0.089 1.357,0.128 0.958,0.234 1.627,0.749 1.029,0.753 1.012,1.052 0.759,1.629 L 7.76,18.42 7.765,18.433 7.743,18.702 7.57,18.876 7.303,18.899 6.195,18.49 4.434,18.184 2.983,17.851 1.343,17.134 0.487,16.162 -0.12,14.989 l -0.282,-0.91 -0.112,-1.061 -0.117,-0.121 -0.163,-0.02 -0.339,0.211 -0.969,1.01 c 0.03,0.312 -0.074,0.621 -0.066,0.932 0.001,0.036 -0.024,0.073 -0.037,0.11 -0.075,0.202 -0.182,0.392 -0.195,0.613 -0.003,0.044 -0.033,0.085 -0.048,0.128 -0.036,0.094 -0.072,0.188 -0.107,0.282 l 0.463,0.215 0.634,-0.01 2.346,0.859 0.972,0.826 0.951,1.45 0.626,1.742 0.335,1.737 0.044,0.542 0.075,0.199 0.116,0.116 0.127,0.026 0.324,-0.166 0.956,-1.097 1.115,-1.538 0.383,-0.51 0.595,-0.646 0.194,0.008 0.091,0.531 -0.081,0.554 -0.003,0.019 -0.83,0.947 -0.339,0.557 -1.177,1.48 -0.402,0.47 -0.469,0.717 -1.413,1.835 -0.419,0.445 -0.429,0.766 -2.135,2.578 -1.288,1.661 c -2.201,2.584 -4.297,5.363 -6.416,8.027 l -0.402,0.474 -0.211,0.506 0.673,-0.614 3.318,-3.749 0.516,-0.663 c 0.894,-0.708 2.566,-2.646 3.155,-3.628 l 1.089,-1.255 0.465,-0.732 1.45,-1.488 1.29,-1.672 0.449,-0.419 0.636,-0.845 0.842,-0.92 1.444,-1.818 0.208,-0.135 0.252,-0.027 0.181,0.182 0.039,0.277 -0.065,0.263 -1.093,1.318 -0.381,0.51 -0.699,0.769 -3.035,3.742 -0.894,1.17 -0.106,0.321 0.254,0.536 0.287,0.268 1.792,0.566 0.915,0.561 0.707,0.805 0.682,1.085 0.702,2.867 0.335,2.031 0.042,1.161 0.044,0.235 L 7.276,42.2 7.213,42.407 6.991,42.484 6.528,42.308 3.751,40.638 2.763,39.857 2.171,38.96 1.764,38.483 1.424,37.599 1.311,36.823 1.233,35.829 1.37,34.513 1.462,33.741 1.302,33.336 0.964,32.829 l -0.1,-0.012 -0.729,0.688 -1.039,1.334 -0.603,0.564 -0.53,0.658 -0.44,0.439 -0.693,0.77 -0.366,0.535 -0.3,0.277 -0.164,0.394 0.087,0.412 0.43,0.74 1.179,1.758 1.065,1.268 0.892,0.266 c 4.054,1.022 3.718,2.665 5.457,5.789 L 6.213,49.69 6.228,49.704 6.271,49.927 6.11,50.096 5.342,50.279 3.578,50.278 1.657,49.826 0.633,49.366 -0.11,48.91 -0.994,48.026 -1.727,46.655 -2.062,45.507 c -0.888,-4.26 0.611,-1.705 -1.81,-5.221 l -0.802,-0.958 -0.134,-0.041 -0.302,0.178 -0.986,1.077 -1.092,1.267 -0.415,0.466 -0.078,0.175 0.307,1.982 0.273,1.193 0.368,1.101 0.254,0.609 c 3.104,2.064 3.888,3.137 3.61,6.703 l -0.438,2.82 -0.114,0.239 -0.212,0.09 -0.377,-0.227 -2.632,-2.097 -0.882,-1.222 -0.274,-0.624 -0.3,-1.188 -0.003,-0.011 0.091,-0.754 0.352,-1.73 0.515,-1.24 -0.021,-0.408 -0.626,-2.052 -0.122,-0.754 -0.367,-1.397 -0.088,-0.162 -0.091,-0.039 -0.282,0.204 -1.119,1.232 -0.196,0.66 c -0.448,6.162 -0.994,2.243 0.881,7.626 l 0.138,0.452 0.003,0.009 -0.019,1.748 -0.423,1.094 -0.939,1.44 -0.615,0.575 -2.081,1.489 -0.262,0.058 -0.237,-0.089 -0.209,-0.44 -0.477,-1.295 -0.283,-0.91 -0.153,-1.301 -10e-4,-0.011 0.404,-1.96 0.517,-1.268 1.199,-1.761 0.845,-0.913 0.506,-0.939 0.189,-0.679 0.065,-1.12 0.106,-0.805 -0.042,-0.232 -0.109,-0.104 -0.142,0.011 -0.615,0.576 -1.108,0.949 -2.634,2.645 -0.256,1.193 -0.385,2.276 -0.199,0.669 -0.069,1.124 -0.118,2.823 -0.068,0.687 -0.054,4.2 0.036,0.243 0.101,0.16 0.85,0.616 0.764,0.697 c 4.612,3.774 3.009,0.724 7.747,3.144 l 0.901,0.897 0.307,0.604 0.066,0.865 -0.072,0.241 -0.768,0.754 -0.421,0.219 -0.519,-0.025 -0.694,-0.224 -0.917,-0.584 -1.336,-1.042 -0.653,-0.82 -0.801,-0.968 -0.515,-0.651 -2.642,-1.778 -0.774,-0.688 -0.424,-0.127 -0.154,0.061 -0.077,0.172 -0.011,1.772 -0.088,0.667 -0.035,1.227 0.199,1.25 1.678,1.517 0.558,0.338 0.472,0.396 0.768,0.423 0.322,0.246 2.052,0.3 1.119,0.353 1.444,0.952 0.3,0.29 0.486,1.025 0.005,0.879 -0.237,0.383 -0.896,0.618 -0.53,0.11 -0.508,-0.101 -0.902,-0.626 -1.026,-1.046 -0.526,-0.655 -1.126,-1.529 -0.358,-0.512 -2.709,-1.967 -0.079,0.021 -0.147,0.383 -0.04,0.728 0.203,1.898 0.058,1.121 0.049,1.112 0.334,0.513 1.332,1.009 1.536,1.1 0.803,0.387 0.35,0.217 1.064,0.109 1.469,0.312 1.464,0.614 1.261,0.801 0.436,0.472 0.486,1.017 0.007,0.866 -0.184,0.456 -0.371,0.281 -0.483,0.052 -1.208,0.029 -0.464,-0.178 -1.589,-1.078 -1.487,-1.478 -1.05,-1.587 -2.718,-1.992 -0.443,-0.406 -0.097,0.022 -0.091,0.13 -0.047,0.411 0.142,2.198 0.322,2.907 0.201,0.692 0.003,0.01 -0.033,0.902 0.683,1.961 0.622,2.041 0.206,1.268 0.157,1.037 10e-4,0.009 -0.217,1.273 -0.584,1.205 -0.499,0.423 -0.676,0.251 -0.011,0.004 -0.567,-0.025 -0.016,-0.001 -0.382,-0.234 -0.849,-0.945 -0.397,-0.823 -0.208,-0.986 0.012,-1.773 0.412,-1.668 1.438,-2.964 0.055,-1.099 -0.302,-1.771 -0.053,-1.121 -0.094,-0.797 -0.014,-1.448 -0.075,-0.194 -0.133,-0.137 -0.168,-0.057 -0.373,0.125 -0.747,0.433 -1.105,1.221 -0.698,1.954 -0.998,1.656 -1.537,1.449 -0.899,0.575 -0.987,0.234 -0.01,0.002 -0.545,-0.055 -0.415,-0.238 -0.307,-0.624 -0.114,-0.476 -0.002,-0.012 0.076,-0.503 0.369,-0.841 0.406,-0.5 1.194,-0.881 0.624,-0.555 0.776,-0.706 0.506,-0.378 1.284,-0.523 c 1.158,-0.018 1.59,-1.388 2.472,-1.899 l 0.881,-0.861 0.113,-0.447 c -0.106,-1.816 -0.321,-3.86 -0.5,-5.681 l -0.205,-0.36 -0.156,-0.069 -0.169,0.026 -3.031,2.256 -0.998,1.947 -0.918,1.145 -1.221,0.866 -1.153,0.334 -0.015,0.004 -0.937,-0.205 -0.017,-0.003 -0.183,-0.16 -0.203,-0.716 -0.094,-0.982 -0.002,-0.018 0.569,-1.16 0.748,-0.753 1.826,-0.857 1.546,-0.246 0.526,-0.053 0.804,-0.352 1.969,-1.557 0.965,-0.773 0.111,-0.443 -0.038,-2.617 -0.094,-0.147 -0.131,-0.057 -0.588,0.168 -1.454,0.92 -1.104,0.38 -1.257,0.237 -0.859,-0.029 -1.545,-0.538 -1.211,-0.888 -0.606,-0.568 -0.662,-0.535 -0.127,-0.201 v -0.219 l 0.747,-0.784 1.097,-0.689 0.886,-0.307 1.523,-0.226 0.011,-10e-4 1.696,0.39 1.322,0.77 0.887,0.6 0.456,0.424 0.359,0.119 0.302,-0.17 0.331,-0.533 0.197,-0.955 0.03,-2.042 0.122,-0.752 0.025,-2.933 0.123,-0.751 0.025,-1.458 0.122,-0.756 0.051,-0.845 0.224,-0.946 0.165,-1.31 -0.063,-0.152 -0.08,-0.017 -0.728,0.71 -0.535,0.652 -1.143,1.192 -0.126,0.428 -0.035,0.859 -0.241,1.233 -0.585,1.203 -1.037,1.062 -0.818,0.676 -1.584,0.791 -1.685,0.397 -0.017,0.005 -0.215,-0.074 -0.105,-0.238 0.037,-1.188 0.24,-1.234 0.799,-1.598 0.789,-0.977 1.612,-1.085 1.056,-0.43 0.949,-0.213 0.472,-0.377 0.549,-0.626 1.582,-1.956 0.798,-0.964 0.438,-0.606 -2.518,0.913 -1.846,0.516 -1.965,0.399 c -7.036,0.897 -3.195,-0.415 -8.448,3.879 l -0.913,0.835 -0.821,2.109 -0.262,0.642 -0.49,0.685 -0.467,0.712 -1.538,1.162 -0.797,0.363 -0.238,0.308 -0.534,1.232 -0.423,1.052 0.033,0.471 0.475,0.989 0.799,1.553 0.436,0.728 0.315,0.248 1.434,0.631 1.445,0.93 0.595,0.585 0.493,1.01 0.151,0.768 -0.247,0.67 -0.387,0.517 -0.599,0.336 -0.618,0.109 -0.013,0.002 -0.528,-0.136 -0.377,-0.243 -0.947,-1.158 -0.574,-0.898 -0.491,-1.604 -0.184,-1.002 -0.514,-0.92 -0.708,-1.077 -0.335,-0.854 -0.083,-0.083 -0.073,0.023 -0.744,1.278 -0.221,0.679 -0.407,0.754 -0.205,0.69 -0.368,0.815 -0.015,0.418 0.171,0.527 0.351,1.581 0.589,1.457 0.717,0.721 0.464,0.119 1.057,0.721 0.273,0.342 0.242,0.952 0.406,0.785 0.379,1.095 0.003,0.894 -0.166,0.45 -0.402,0.528 -0.656,0.28 -0.461,0.082 -0.653,-0.185 -0.354,-0.272 -0.685,-1.43 -0.488,-1.596 -0.084,-1.68 -0.048,-0.821 -0.416,-0.762 -0.328,-1.141 -0.375,-1.076 -0.047,-0.022 -0.199,0.241 -0.682,1.676 -0.629,2.025 -0.521,1.534 0.055,0.444 0.849,2.094 0.617,1.133 0.399,0.468 2.137,1.106 0.66,0.533 0.703,0.77 0.424,1.081 0.024,0.875 -0.235,0.675 -0.42,0.519 -0.915,0.295 -0.012,0.004 -0.44,-0.04 -1.042,-0.472 -0.575,-0.639 -0.662,-1.443 -0.375,-1.699 -0.058,-1.106 -0.92,-1.721 -0.452,-1.043 -0.097,-0.112 -0.065,0.005 -0.159,0.361 -0.262,0.932 -1.063,3.051 -0.053,0.799 0.872,2.352 0.253,0.308 1.211,0.848 1.291,1.066 0.882,1.222 0.264,0.636 0.246,1.243 0.002,0.011 -0.13,0.771 -0.29,0.611 -0.317,0.313 -0.427,0.191 -0.65,-0.081 -0.419,-0.212 -0.401,-0.527 -0.939,-1.436 -0.332,-0.861 -0.471,-2.762 -0.486,-0.973 -0.41,-0.766 -0.128,-0.156 -0.13,-0.057 -0.113,0.049 -0.156,0.411 -0.254,0.944 -0.557,1.167 0.561,3.508 0.002,0.009 -0.153,1.038 -0.087,0.812 -0.361,1.123 -0.561,1.213 -0.428,0.751 -0.788,0.713 -0.917,0.293 -0.017,0.006 -0.46,-0.129 -0.496,-0.436 -0.304,-0.613 -0.129,-0.79 0.035,-1.46 0.224,-0.965 0.458,-1.315 0.624,-1.453 0.93,-1.443 0.99,-1.056 0.334,-0.539 0.692,-2.267 V 85.3 l -0.076,-0.17 -0.124,-0.043 -0.623,0.264 -1.654,0.394 -1.817,0.807 -0.482,0.963 -0.599,0.594 -0.313,0.578 -0.699,0.789 -0.983,0.785 -1.049,0.464 -0.517,0.097 -0.509,-0.106 -0.792,-0.409 -0.284,-0.345 -0.109,-0.536 0.176,-0.739 0.524,-0.705 1.255,-1.123 0.573,-0.314 0.501,-0.112 0.314,-0.228 1.001,-0.233 1.109,-0.051 2.722,-0.809 2.342,-0.905 0.434,-0.133 0.254,-0.298 0.362,-0.796 0.765,-2.471 0.455,-1.973 0.014,-0.411 -0.088,-0.096 -0.403,0.066 -1.958,0.723 -1.786,0.556 -1.486,1.161 -0.909,0.565 -0.928,0.272 -1.481,0.004 -0.47,-0.141 -0.529,-0.383 -0.314,-0.627 -0.062,-0.517 0.243,-0.394 0.551,-0.648 0.682,-0.497 1.379,-0.416 1.437,-0.008 0.654,0.241 0.77,0.132 0.406,0.167 h 1.108 l 1.546,-0.502 1.931,-0.7 0.162,-0.109 0.437,-1.001 0.379,-1.395 1.403,-3.886 0.094,-0.713 -0.071,-0.07 c -4.1,0.25 -3.999,2.191 -7.759,3.066 l -1.453,-0.019 -0.591,-0.333 -0.606,-0.593 -0.19,-0.438 -0.005,-0.011 0.005,-0.847 c 0.373,-1.86 3.012,-1.973 4.46,-1.843 l 1.473,0.3 1.156,0.334 0.382,0.205 0.185,0.018 0.634,-0.25 1.076,-0.11 1.782,-0.555 0.271,-0.28 0.555,-1.505 0.431,-0.731 0.383,-1.098 0.136,-0.437 -0.048,-0.132 -0.169,-0.074 -0.563,0.01 -1.793,0.29 -1.751,0.006 -0.406,0.16 -0.788,0.4 -1.077,0.405 -1.41,0.359 -0.008,0.002 -1.178,-0.037 -0.918,-0.261 -0.957,-0.88 -0.128,-0.489 -0.003,-0.014 0.104,-0.54 0.293,-0.345 1.604,-0.494 1.311,-0.172 0.009,-10e-4 1.015,0.189 c 4.726,1.095 0.829,1.1 5.278,0.825 l 1.659,-0.345 0.312,-0.041 0.208,-0.3 0.417,-0.783 0.05,-0.237 -0.025,-0.211 -0.124,-0.123 -0.485,-10e-4 -0.787,0.128 -0.98,0.065 -0.459,-0.152 -0.155,-0.172 c 0.103,-1.715 0.905,-4.4 2.352,-5.541 l 0.713,-0.458 0.495,-0.389 1.396,-0.414 1.053,-0.139 1.129,0.059 0.684,0.226 0.209,-0.005 0.349,-0.213 0.841,-0.643 0.544,-0.321 1.648,-1.594 0.292,-0.306 0.049,-0.117 -0.036,-0.072 c -1.78,-0.278 -4.31,-0.132 -6.301,-0.432 l -0.443,0.115 -0.579,0.318 c -7.655,2.474 -2.727,0.8 -7.629,4.138 l -1.386,0.418 -1.302,0.183 -1.008,0.053 -0.011,10e-4 -1.691,-0.625 -0.811,-0.369 -0.323,-0.338 -0.029,-0.248 0.48,-1.018 1.14,-1.263 1.051,-0.717 1.503,-0.31 1.168,10e-4 2.044,0.314 0.964,0.532 0.354,0.095 1.136,-0.267 1.377,-0.387 1.533,-0.523 0.423,-0.188 0.114,-0.102 -0.002,-0.042 -4.182,-1.031 -4.071,-0.879 -0.544,-0.105 c -2.326,-1.167 -2.994,0.6 -5.737,-0.455 l -0.967,-0.543 -1.145,-0.928 -0.873,-0.915 -0.996,-1.668 -0.352,-0.868 -0.041,-0.256 0.05,-0.256 0.181,-0.175 0.55,-0.071 0.009,-0.002 1.037,0.168 1.162,0.025 c 3.137,0.171 4.675,1.96 6.082,4.577 l 0.37,0.174 0.746,0.156 c 2.648,1.102 6.749,1.456 9.637,2.15 l 0.25,-0.027 0.172,-0.088 0.048,-0.117 -0.189,-0.314 -0.6,-0.88 -0.534,-0.621 -2.132,-0.795 -1.016,-0.781 -0.972,-0.818 -0.753,-1.031 -0.653,-1.411 -0.273,-1.809 -0.133,-0.422 -0.022,-0.887 0.036,-0.57 0.156,-0.142 0.544,-0.063 1.367,0.454 1.579,0.799 1.123,0.956 0.527,0.656 0.624,0.85 0.431,1.068 0.29,0.889 0.027,1.774 -0.086,0.672 0.555,0.86 1.549,1.97 0.347,0.208 2.726,0.2 3.226,-0.014 0.755,-0.138 1.145,-0.025 0.653,-0.228 0.424,-0.119 0.021,-0.071 -0.394,-0.443 -2.232,-1.585 -0.668,-0.192 c -2.457,-0.071 -4.475,-0.772 -5.472,-3.164 l -0.789,-2.168 -0.387,-1.664 0.053,-0.225 0.171,-0.204 0.531,-0.098 0.012,-0.002 1.27,0.261 1.479,0.6 1.46,0.917 1.031,1.031 0.888,1.798 0.667,1.665 0.006,0.014 -0.04,0.421 0.042,0.154 0.612,0.54 0.998,0.764 1.055,0.711 c 1.592,1.355 2.478,0.705 4.269,0.48 l 3.27,-1.139 1.851,-1.102 1.362,-0.681 1.602,-2.138 -0.023,-0.068 -0.633,-0.2 -1.047,-0.138 -1.434,-0.332 -0.433,0.056 -1.147,0.638 -1.807,0.55 -1.44,0.062 -0.747,-0.173 -1.211,-0.57 -0.534,-0.366 -1.472,-1.482 -0.815,-0.973 -0.099,-0.231 0.017,-0.221 0.146,-0.18 2.46,-0.827 1.233,-0.256 0.014,-0.004 0.786,0.204 1.022,0.024 0.847,0.371 1.166,0.615 1.194,0.868 0.785,0.988 0.581,0.27 3.285,0.467 0.336,-0.21 0.407,-0.479 0.454,-0.413 0.744,-1.03 c 2.823,-3.235 5.259,-6.709 7.958,-10.021 L -0.258,29.894 0.263,29.237 1.801,27.236 2.324,26.587 3.428,25.032 3.501,24.846 3.475,24.677 3.364,24.543 1.644,23.908 0.794,23.564 -0.99,22.381 -1.721,21.617 -2.473,20.29 -2.914,18.967 -3.081,18.544 -3.138,17.482 c -0.033,0.06 -0.061,0.121 -0.093,0.179 -0.143,0.257 -0.271,0.525 -0.446,0.76 -0.155,0.209 -0.364,0.377 -0.402,0.657 -0.001,0.012 -0.009,0.025 -0.017,0.034 -0.161,0.205 -0.302,0.431 -0.489,0.609 -0.341,0.324 -0.705,0.624 -1.067,0.926 -0.165,0.138 -0.342,0.262 -0.521,0.383 -0.28,0.189 -0.585,0.347 -0.786,0.636 -0.032,0.047 -0.085,0.082 -0.135,0.112 -0.289,0.18 -0.591,0.33 -0.919,0.426 l 0.255,0.784 0.403,0.789 0.145,0.42 0.303,0.25 0.841,0.318 0.683,0.201 0.564,0.34 0.73,0.767 0.625,1.168 0.462,1.918 0.465,2.495 0.003,0.014 -0.066,0.27 -0.179,0.179 -0.248,0.034 -1.278,-0.52 -2.015,-0.653 -1.144,-0.624 -0.015,-0.008 -0.539,-0.975 -0.217,-0.668 -0.072,-1.199 0.249,-1.251 0.243,-0.937 -0.099,-0.759 -0.797,-2.073 c -0.057,0.024 -0.114,0.047 -0.17,0.071 -0.119,0.053 -0.258,0.087 -0.35,0.171 -0.264,0.244 -0.604,0.306 -0.926,0.391 -0.27,0.07 -0.539,0.144 -0.807,0.22 -0.05,0.015 -0.102,0.03 -0.153,0.031 l -0.012,0.002 -0.478,0.472 -1.231,1.123 -1.16,1.18 -0.165,0.392 0.055,0.452 0.62,1.425 0.423,0.423 0.927,0.564 1.08,0.972 0.349,0.241 0.614,1.196 0.197,1.315 10e-4,0.008 -0.103,0.974 0.005,0.412 -0.573,1.805 -0.199,1 -0.094,0.211 -0.172,0.167 -0.227,0.019 -0.394,-0.22 -0.903,-0.91 -0.378,-0.497 c -1.316,-1.276 -2.11,-2.817 -1.759,-4.691 l 0.389,-1.382 0.291,-0.887 -0.047,-0.498 -0.53,-1.209 -0.321,-0.239 -0.184,-0.009 -0.328,0.206 -0.791,0.692 -1.089,0.98 -1.656,1.276 -0.27,0.297 -0.375,1.376 -0.179,0.715 -0.355,0.825 -1.486,1.494 -1.149,0.643 -2.129,0.553 -1.572,0.206 -0.713,0.081 -0.185,-0.108 -0.139,-0.207 -0.055,-0.272 0.14,-0.474 0.835,-1.821 0.267,-0.624 0.506,-0.968 c 3.059,-2.518 2.743,-1.807 6.034,-2.278 l 0.503,-0.351 1.415,-1.22 0.512,-0.654 -0.005,-0.05 -0.398,-0.056 -2.366,0.023 -0.467,0.093 -0.009,0.002 -1.018,-0.118 -0.523,0.174 -0.018,0.006 -0.851,-0.269 -0.483,-0.021 -0.43,0.05 -1.522,-0.23 -0.833,-0.055 -0.793,-0.087 -1.255,-0.103 -0.309,0.228 -1.479,1.768 -0.666,0.781 -0.062,0.504 -0.055,0.839 -0.363,1.718 -0.587,1.201 -0.658,0.815 -0.862,0.636 -1.074,0.429 -0.558,0.009 -0.442,-0.186 -0.016,-0.007 -0.491,-0.722 -0.112,-0.438 -0.004,-0.012 0.219,-1.222 0.378,-0.819 0.909,-0.905 0.336,-0.24 0.383,-0.488 1.32,-0.778 0.933,-0.524 0.935,-1.112 0.917,-1.14 0.197,-0.358 -0.022,-0.121 -0.314,-0.212 -2.474,-0.767 -1.094,-0.377 -0.477,0.025 -0.81,0.361 -0.941,0.529 -0.901,0.561 -0.412,0.449 -0.958,1.976 -0.693,0.795 -0.496,0.682 -1.202,0.888 -0.921,0.299 -0.491,0.003 -0.67,-0.254 -0.018,-0.008 -0.255,-0.353 -0.211,-0.727 -0.003,-0.012 0.065,-0.518 0.574,-0.942 0.775,-0.729 0.826,-0.648 1.694,-0.687 1.074,-0.111 0.359,-0.208 0.7,-0.474 1.197,-0.88 0.391,-0.205 0.106,-0.121 V 24.97 l -0.29,-0.24 -2.73,-1.093 -0.499,-0.002 -1.653,0.416 -0.651,0.243 -1.651,0.406 -0.891,0.278 -0.51,0.347 -0.643,0.818 -1.54,1.153 -1.229,0.541 -0.858,0.056 -0.67,-0.242 -0.346,-0.269 -0.318,-0.614 -0.036,-0.534 0.393,-1.112 0.264,-0.35 0.748,-0.462 1.286,-0.23 1.479,0.016 0.741,0.145 1.779,-0.267 2.497,-0.739 0.323,-0.217 v -0.109 l -0.116,-0.117 -1.424,-0.655 -1.328,-0.738 -1.853,-1.079 -0.476,-0.101 -0.785,0.092 -0.977,0.208 -2.062,0.299 c -2.203,-0.002 -4.034,1.035 -5.979,1.09 l -0.815,0.098 -1.057,-0.128 -1.101,-0.7 -0.485,-0.736 -0.073,-0.562 -0.002,-0.012 0.131,-0.487 0.542,-0.672 0.628,-0.311 0.703,-0.162 0.009,-0.001 1.03,0.073 1.578,0.535 1.503,0.845 1.205,0.526 1.044,-0.044 1.365,-0.118 2.5,-0.447 0.05,-0.049 -0.169,-0.202 -0.524,-0.359 -0.621,-0.274 -1.102,-0.677 -1.313,-1.04 -2.227,-1.614 -0.447,-0.41 -1.292,-0.171 -2.057,-0.608 -1.399,-0.663 -1.077,-1.023 -0.115,-0.201 -0.031,-0.392 -0.065,-0.092 -0.351,-0.189 -0.267,-0.368 -0.187,-1.229 -0.002,-0.015 0.152,-0.428 0.006,-0.016 0.688,-0.523 0.481,-0.151 1.135,0.045 1.464,0.645 1.532,1.122 0.939,1.155 0.786,1.291 0.505,1.244 c 1.835,1.55 3.844,2.893 5.963,4.022 l 0.746,0.455 0.143,0.02 0.05,-0.05 -0.212,-1.19 -0.019,-0.855 -0.318,-0.836 -0.656,-0.814 -1.449,-2.396 -0.594,-1.469 -0.058,-1.464 0.098,-0.491 0.547,-0.979 0.627,-0.297 0.013,-0.007 0.512,0.006 0.406,0.231 0.791,0.682 0.863,1.543 0.386,1.398 0.038,0.838 0.128,0.761 0.002,0.012 -0.284,1.521 -0.369,1.069 0.057,0.626 0.46,2.786 0.087,0.172 1.227,0.803 2.185,1.056 0.81,0.375 0.552,0.319 1.243,0.258 0.335,0.132 0.028,-0.028 -0.062,-0.412 -1.082,-2.15 -1.101,-1.268 -1.053,-1.62 -0.394,-1.085 -0.261,-0.918 -0.001,-0.891 0.243,-0.678 0.319,-0.566 0.009,-0.014 0.398,-0.225 0.695,-0.129 0.549,0.314 0.875,0.624 0.563,0.635 0.32,0.583 0.257,0.93 0.122,0.741 0.002,0.01 -0.2,1.532 -0.502,1.564 0.056,0.493 0.465,0.991 0.556,0.922 0.612,1.138 0.259,0.307 3.852,1.427 2.308,0.666 0.187,-0.008 0.069,-0.07 -0.201,-0.576 -0.849,-1.791 -0.927,-0.819 -0.495,-0.408 -1.582,-1.955 -0.424,-1.089 -0.187,-1.005 -0.002,-0.011 0.105,-0.805 10e-4,-0.017 0.537,-0.667 0.466,-0.206 0.536,0.061 0.983,0.553 0.761,0.711 0.416,0.81 0.302,1.188 0.044,1.793 -0.072,1.198 0.467,0.954 1.065,1.879 0.324,0.535 0.374,0.18 0.99,0.169 1.157,0.031 c 1.461,0.169 4.819,0.463 6.06,0.117 l 1.431,-0.027 1.664,-0.405 0.128,-0.054 0.002,-0.049 -0.452,-0.388 -1.072,-0.674 -1.114,-0.049 -1.126,-0.06 -1.275,-0.214 -1.504,-0.568 -1.16,-0.609 -1.643,-1.643 -0.451,-0.725 -0.362,-0.531 -0.593,-1.128 c -0.219,-0.172 -0.44,-0.34 -0.653,-0.518 -0.236,-0.201 -0.453,-0.429 -0.564,-0.721 -0.101,-0.263 -0.259,-0.485 -0.435,-0.693 -0.25,-0.295 -0.503,-0.586 -0.658,-0.946 -0.051,-0.12 -0.107,-0.238 -0.162,-0.355 -0.138,-0.295 -0.282,-0.588 -0.413,-0.886 -0.114,-0.26 -0.217,-0.525 -0.317,-0.791 -0.056,-0.146 -0.109,-0.295 -0.142,-0.446 -0.073,-0.344 -0.104,-0.695 -0.197,-1.035 -0.034,-0.124 -0.041,-0.258 -0.046,-0.388 -0.013,-0.326 -0.02,-0.654 -0.027,-0.981 -0.005,-0.275 -0.032,-0.551 -0.006,-0.823 0.034,-0.362 -0.013,-0.737 0.157,-1.079 0.003,-0.007 0.002,-0.014 0.004,-0.02 0.044,-0.169 0.079,-0.342 0.134,-0.508 0.033,-0.1 0.069,-0.199 0.103,-0.298 l -0.3,-0.124 -1.316,-1.083 -1.198,-1.455 -1.076,-1.281 -0.274,-0.635 -0.007,-0.014 0.021,-0.226 0.139,-0.226 0.459,-0.183 c 1.471,-0.428 2.997,0.167 4.456,0.293 l 1.496,0.565 0.428,0.143 c 0.037,-0.036 0.071,-0.071 0.107,-0.106 0.089,-0.088 0.159,-0.211 0.264,-0.26 0.341,-0.159 0.619,-0.414 0.944,-0.596 0.073,-0.042 0.151,-0.078 0.221,-0.124 0.453,-0.299 0.898,-0.612 1.405,-0.818 0.248,-0.101 0.498,-0.194 0.75,-0.279 0.17,-0.059 0.348,-0.094 0.52,-0.148 0.321,-0.103 0.641,-0.213 0.962,-0.319 0.037,-0.012 0.078,-0.01 0.116,-0.017 0.057,-0.012 0.114,-0.028 0.171,-0.04 0.106,-0.022 0.213,-0.05 0.322,-0.065 0.135,-0.019 0.277,-0.006 0.406,-0.045 0.065,-0.02 0.129,-0.031 0.194,-0.044 l -0.512,-0.822 c -0.527,0.096 -1.055,0.108 -1.584,0.008 -0.134,-0.025 -0.274,-0.024 -0.411,-0.037 -0.071,-0.007 -0.148,-0.004 -0.211,-0.032 -0.266,-0.114 -0.574,-0.057 -0.829,-0.207 -0.011,-0.006 -0.026,-0.002 -0.039,-0.005 -0.194,-0.056 -0.393,-0.097 -0.58,-0.171 -0.345,-0.136 -0.686,-0.283 -1.022,-0.44 -0.444,-0.207 -0.886,-0.423 -1.287,-0.708 -0.128,-0.091 -0.238,-0.204 -0.366,-0.295 -0.32,-0.227 -0.646,-0.446 -0.968,-0.67 -0.059,-0.04 -0.125,-0.082 -0.163,-0.141 -0.083,-0.132 -0.202,-0.22 -0.326,-0.304 -0.253,-0.172 -0.42,-0.411 -0.542,-0.683 -0.081,-0.182 -0.04,-0.36 0.119,-0.422 0.144,-0.057 0.238,-0.126 0.233,-0.291 0,-0.023 0.018,-0.049 0.029,-0.072 0.096,-0.193 0.208,-0.379 0.287,-0.577 0.141,-0.354 0.367,-0.647 0.607,-0.934 0.075,-0.09 0.144,-0.185 0.218,-0.278 0.081,-0.102 0.152,-0.213 0.247,-0.302 0.209,-0.197 0.43,-0.382 0.646,-0.573 0.059,-0.051 0.129,-0.096 0.172,-0.159 0.206,-0.309 0.513,-0.506 0.81,-0.704 0.314,-0.208 0.623,-0.43 0.976,-0.58 0.317,-0.133 0.593,-0.345 0.931,-0.45 0.341,-0.105 0.662,-0.273 0.997,-0.403 0.181,-0.07 0.371,-0.118 0.558,-0.175 0.205,-0.061 0.409,-0.125 0.616,-0.181 0.088,-0.023 0.18,-0.031 0.27,-0.043 0.058,-0.008 0.126,0.005 0.174,-0.019 0.178,-0.091 0.366,-0.085 0.556,-0.09 0.078,-10e-4 0.159,-0.015 0.231,-0.042 0.206,-0.076 0.419,-0.097 0.637,-0.092 0.117,10e-4 0.235,-0.007 0.352,-0.014 0.34,-0.019 0.679,-0.041 1.018,-0.061 0.105,-0.006 0.21,-0.008 0.314,-0.008 0.353,0 0.705,-0.011 1.055,0.07 0.336,0.078 0.674,0.169 1.027,0.153 0.049,-0.002 0.101,0.018 0.151,0.032 0.101,0.028 0.199,0.063 0.3,0.089 0.349,0.087 0.69,0.195 0.994,0.395 0.155,0.102 0.185,0.095 0.314,-0.04 0.112,-0.118 0.226,-0.237 0.352,-0.339 0.13,-0.105 0.675,-0.27 0.848,-0.274 0.131,-0.003 0.264,0.012 0.393,-0.005 0.394,-0.049 0.763,0.086 1.138,0.164 0.305,0.063 0.595,0.186 0.88,0.319 0.352,0.164 0.69,0.346 0.992,0.589 0.13,0.106 0.239,0.226 0.263,0.4 0.018,0.127 0.029,0.254 0.045,0.397 0.027,0.007 0.07,0.023 0.113,0.023 0.288,0 0.576,-0.009 0.864,-0.007 0.373,0.003 0.746,-0.013 1.112,0.088 0.119,0.033 0.246,0.059 0.366,0.05 0.573,-0.044 1.107,0.147 1.656,0.251 0.013,0.002 0.025,0.008 0.037,0.012 0.21,0.067 0.421,0.133 0.631,0.201 0.098,0.033 0.194,0.072 0.291,0.108 0.384,0.143 0.771,0.278 1.15,0.435 0.216,0.09 0.418,0.213 0.623,0.329 0.6,0.338 1.169,0.717 1.687,1.176 0.473,0.419 0.898,0.877 1.285,1.375 0.055,0.072 0.114,0.147 0.146,0.231 0.089,0.226 0.202,0.438 0.352,0.63 0.033,0.04 0.054,0.089 0.079,0.135 0.095,0.172 0.175,0.352 0.283,0.515 0.194,0.292 0.299,0.618 0.397,0.944 L 0.927,-1.065 2.91,-2.607 3.288,-3.122 4.094,-3.79 4.746,-4.304 5.158,-4.786 5.93,-5.47 l 0.883,-1.188 0.722,-0.786 0.209,-0.128 0.218,0.06 0.081,0.227 z" fill="#181716" transform="matrix(1.33333 0 0 -1.33333 85.578 141.971)"/><path style="mix-blend-mode:multiply" d="M 0,0 C 0.127,-0.071 0.256,-0.085 0.396,-0.086 0.484,-0.087 0.574,-0.11 0.662,-0.127 0.757,-0.145 0.85,-0.176 0.946,-0.184 1.121,-0.2 1.299,-0.195 1.473,-0.214 1.655,-0.235 1.834,-0.283 2.015,-0.303 2.103,-0.313 2.2,-0.305 2.284,-0.276 2.478,-0.212 2.661,-0.225 2.861,-0.257 3.103,-0.296 3.359,-0.3 3.6,-0.264 c 0.153,0.024 0.303,0.066 0.46,0.069 0.144,0.003 0.289,0.007 0.431,0.028 C 4.678,-0.141 4.866,-0.118 5.028,0 5.076,0.034 5.151,0.029 5.214,0.04 5.463,0.083 5.713,0.123 5.962,0.169 5.998,0.176 6.028,0.21 6.065,0.226 6.201,0.282 6.335,0.365 6.477,0.383 6.72,0.415 6.938,0.506 7.16,0.594 7.354,0.672 7.543,0.76 7.732,0.849 c 0.325,0.152 0.651,0.302 0.97,0.464 0.318,0.162 0.625,0.35 0.947,0.508 0.431,0.213 0.809,0.505 1.19,0.79 0.272,0.203 0.513,0.45 0.794,0.637 0.304,0.205 0.562,0.454 0.79,0.729 0.287,0.348 0.55,0.716 0.8,1.092 0.123,0.182 0.203,0.394 0.286,0.599 0.065,0.162 0.095,0.337 0.157,0.5 0.089,0.231 0.195,0.455 0.203,0.71 0.002,0.037 0.016,0.079 0.036,0.11 0.099,0.151 0.115,0.324 0.102,0.492 -0.015,0.213 0.005,0.418 0.058,0.622 0.028,0.103 0.03,0.202 -0.02,0.306 -0.021,0.042 -0.011,0.116 0.013,0.161 0.057,0.104 0.067,0.208 0.052,0.322 -0.033,0.244 0.019,0.501 -0.109,0.731 -0.005,0.009 -0.004,0.025 -0.004,0.039 0.013,0.417 -0.183,0.779 -0.325,1.153 -0.07,0.188 -0.181,0.36 -0.275,0.539 -0.102,0.196 -0.204,0.392 -0.307,0.587 -0.134,0.25 -0.308,0.468 -0.512,0.666 -0.103,0.099 -0.179,0.224 -0.281,0.324 -0.201,0.196 -0.421,0.373 -0.618,0.574 -0.475,0.485 -1.032,0.84 -1.664,1.081 -0.126,0.048 -0.27,0.052 -0.394,0.103 -0.296,0.118 -0.589,0.245 -0.878,0.381 -0.297,0.14 -0.616,0.21 -0.929,0.297 -0.235,0.067 -0.475,0.138 -0.727,0.13 -0.09,-0.003 -0.18,0.005 -0.27,0.013 C 6.752,15.514 6.688,15.525 6.624,15.535 6.495,15.557 6.368,15.586 6.239,15.6 5.942,15.63 5.636,15.574 5.347,15.691 5.311,15.706 5.27,15.704 5.23,15.705 c -0.222,10e-4 -0.445,0 -0.667,0 v -0.024 c -0.262,0 -0.524,0.01 -0.785,-0.002 C 3.517,15.667 3.257,15.636 2.998,15.609 2.901,15.598 2.806,15.572 2.71,15.555 2.556,15.528 2.403,15.497 2.249,15.479 1.972,15.447 1.707,15.35 1.425,15.346 1.389,15.346 1.353,15.316 1.317,15.303 1.158,15.247 1,15.189 0.839,15.14 0.648,15.081 0.452,15.039 0.263,14.975 0.085,14.916 -0.085,14.838 -0.26,14.769 -0.447,14.695 -0.637,14.629 -0.821,14.549 -0.995,14.475 -1.163,14.39 -1.333,14.309 -1.735,14.117 -2.129,13.914 -2.476,13.63 -2.638,13.499 -2.803,13.364 -2.987,13.268 -3.297,13.106 -3.581,12.915 -3.837,12.678 -4,12.527 -4.177,12.391 -4.346,12.247 -4.416,12.187 -4.491,12.131 -4.545,12.06 -4.874,11.628 -5.208,11.199 -5.519,10.755 -5.675,10.533 -5.806,10.288 -5.915,10.039 -6.052,9.723 -6.154,9.392 -6.273,9.068 -6.295,9.007 -6.324,8.948 -6.347,8.887 -6.373,8.815 -6.398,8.741 -6.417,8.666 -6.44,8.578 -6.456,8.488 -6.473,8.398 -6.489,8.315 -6.512,8.231 -6.514,8.148 -6.522,7.905 -6.517,7.663 -6.526,7.421 -6.531,7.298 -6.56,7.176 -6.566,7.052 -6.574,6.917 -6.577,6.78 -6.568,6.645 -6.559,6.489 -6.525,6.334 -6.521,6.179 -6.516,6.021 -6.536,5.864 -6.436,5.725 -6.419,5.701 -6.416,5.661 -6.419,5.63 -6.438,5.392 -6.253,5.205 -6.263,4.97 -6.105,4.62 -5.961,4.263 -5.786,3.921 -5.65,3.654 -5.488,3.4 -5.315,3.154 -5.162,2.935 -4.984,2.732 -4.807,2.531 -4.708,2.419 -4.594,2.319 -4.48,2.223 -4.369,2.131 -4.25,2.05 -4.134,1.966 c 0.059,-0.041 0.115,-0.089 0.179,-0.12 0.257,-0.125 0.538,-0.197 0.779,-0.359 0.083,-0.054 0.245,0.002 0.28,0.078 0.05,0.104 -0.035,0.155 -0.094,0.213 -0.023,0.023 -0.05,0.042 -0.075,0.063 -0.178,0.144 -0.357,0.288 -0.532,0.434 -0.162,0.133 -0.322,0.267 -0.421,0.46 -0.038,0.073 -0.1,0.137 -0.158,0.198 -0.202,0.214 -0.398,0.43 -0.574,0.67 C -5.1,4.082 -5.349,4.61 -5.561,5.157 -5.664,5.421 -5.74,5.702 -5.786,5.982 -5.838,6.29 -5.884,6.61 -5.854,6.917 c 0.036,0.36 0.019,0.719 0.053,1.077 0.025,0.252 0.076,0.502 0.116,0.752 0.002,0.013 0.01,0.024 0.014,0.037 0.181,0.404 0.326,0.826 0.576,1.198 0.265,0.397 0.506,0.812 0.8,1.186 0.224,0.285 0.503,0.534 0.78,0.773 0.396,0.341 0.813,0.657 1.222,0.984 0.025,0.02 0.052,0.04 0.08,0.055 0.166,0.091 0.33,0.184 0.498,0.27 0.401,0.205 0.802,0.409 1.204,0.611 0.115,0.058 0.236,0.11 0.357,0.158 0.24,0.095 0.456,0.247 0.716,0.3 0.145,0.029 0.282,0.091 0.422,0.141 0.182,0.065 0.36,0.132 0.542,0.196 0.023,0.008 0.052,0.003 0.077,0.007 0.23,0.039 0.45,0.134 0.689,0.123 0,0 0.026,0.005 0.036,0.012 0.163,0.104 0.344,0.109 0.53,0.107 0.091,0 0.183,0.018 0.271,0.041 0.142,0.037 0.28,0.042 0.426,0.008 0.099,-0.024 0.206,-0.02 0.31,-0.013 0.234,0.015 0.468,0.05 0.702,0.06 0.274,0.011 0.55,0.009 0.824,10e-4 0.17,-0.006 0.338,-0.031 0.506,-0.055 0.302,-0.044 0.609,-0.058 0.901,-0.165 0.083,-0.031 0.184,-0.012 0.272,-0.033 0.266,-0.062 0.529,-0.132 0.794,-0.197 0.075,-0.019 0.155,-0.023 0.227,-0.051 0.152,-0.057 0.296,-0.132 0.448,-0.187 0.25,-0.091 0.506,-0.168 0.756,-0.258 0.245,-0.089 0.489,-0.177 0.708,-0.322 0.159,-0.103 0.318,-0.207 0.484,-0.297 0.146,-0.079 0.276,-0.171 0.388,-0.294 0.11,-0.121 0.215,-0.254 0.348,-0.344 0.406,-0.277 0.729,-0.635 1.022,-1.022 0.128,-0.17 0.215,-0.372 0.323,-0.559 0.097,-0.169 0.202,-0.335 0.298,-0.506 0.173,-0.311 0.307,-0.633 0.292,-1.002 -0.004,-0.108 0.044,-0.216 0.064,-0.325 0.023,-0.115 0.058,-0.229 0.061,-0.345 0.009,-0.326 0.005,-0.653 0.004,-0.981 0,-0.209 0.02,-0.419 -0.091,-0.613 C 13.173,7.408 13.168,7.357 13.166,7.312 13.156,7.046 13.049,6.809 12.951,6.569 12.937,6.532 12.916,6.493 12.92,6.457 12.933,6.319 12.881,6.202 12.82,6.085 12.78,6.011 12.737,5.937 12.702,5.861 12.459,5.319 12.135,4.834 11.707,4.42 11.632,4.348 11.557,4.273 11.487,4.196 11.012,3.669 10.478,3.21 9.897,2.802 9.559,2.565 9.183,2.396 8.831,2.184 8.483,1.974 8.121,1.799 7.735,1.671 7.489,1.588 7.248,1.489 7.003,1.4 6.839,1.339 6.67,1.286 6.507,1.22 6.345,1.155 6.178,1.107 6.009,1.06 5.772,0.992 5.557,0.853 5.3,0.854 5.268,0.854 5.237,0.835 5.205,0.826 5.113,0.801 5.019,0.777 4.926,0.751 4.732,0.697 4.548,0.61 4.341,0.605 4.341,0.605 4.317,0.597 4.306,0.59 4.196,0.514 4.071,0.515 3.946,0.521 3.611,0.536 3.279,0.514 2.951,0.437 2.902,0.425 2.848,0.423 2.797,0.427 2.432,0.453 2.068,0.506 1.704,0.505 1.185,0.504 0.676,0.604 0.161,0.637 0.116,0.639 0.069,0.651 0.029,0.673 -0.097,0.738 -0.229,0.764 -0.369,0.759 -0.4,0.758 -0.435,0.763 -0.465,0.774 -0.727,0.869 -0.98,0.995 -1.268,1.005 -1.293,1.006 -1.318,1.021 -1.342,1.029 -1.622,1.116 -1.902,1.204 -2.184,1.288 -2.226,1.3 -2.276,1.303 -2.319,1.295 -2.459,1.268 -2.498,1.161 -2.407,1.053 -2.361,0.999 -2.305,0.95 -2.246,0.912 -2.131,0.837 -2.012,0.769 -1.892,0.703 -1.835,0.673 -1.772,0.655 -1.711,0.631 -1.663,0.612 -1.607,0.605 -1.568,0.574 -1.348,0.406 -1.08,0.366 -0.829,0.281 -0.675,0.229 -0.52,0.18 -0.366,0.128 -0.243,0.087 -0.112,0.062 0,0" fill="#181716" transform="matrix(1.33333 0 0 -1.33333 58.705 135.706)"/><path style="mix-blend-mode:multiply" d="M 0,0 C 0.01,0.097 0.007,0.197 0,0.294 -0.035,0.741 0.092,1.16 0.207,1.582 0.261,1.783 0.314,1.984 0.384,2.18 0.42,2.282 0.484,2.377 0.548,2.467 0.615,2.563 0.697,2.649 0.77,2.741 0.895,2.9 1.027,3.047 1.2,3.163 1.432,3.32 1.635,3.517 1.861,3.684 2.134,3.884 2.402,4.094 2.709,4.246 3.049,4.412 3.381,4.593 3.72,4.762 3.836,4.821 3.957,4.872 4.08,4.913 4.394,5.016 4.705,5.122 5.029,5.198 5.272,5.255 5.516,5.274 5.754,5.329 6.307,5.456 6.861,5.39 7.416,5.401 7.466,5.402 7.518,5.383 7.57,5.376 7.75,5.353 7.931,5.324 8.113,5.312 8.244,5.304 8.375,5.31 8.489,5.23 8.516,5.213 8.55,5.201 8.58,5.196 8.919,5.146 9.217,4.978 9.536,4.873 10.113,4.682 10.59,4.328 11.056,3.96 11.258,3.8 11.447,3.612 11.569,3.373 11.643,3.229 11.751,3.102 11.825,2.959 11.926,2.763 11.984,2.551 12.044,2.338 12.162,1.919 12.152,1.499 12.155,1.073 12.157,0.928 12.072,0.831 12.035,0.709 11.997,0.588 12.039,0.46 11.969,0.331 11.811,0.047 11.698,-0.262 11.545,-0.548 11.359,-0.897 11.106,-1.197 10.817,-1.467 10.799,-1.485 10.776,-1.5 10.76,-1.52 10.42,-1.925 9.966,-2.175 9.519,-2.433 9.241,-2.592 8.963,-2.749 8.676,-2.893 8.468,-2.998 8.255,-3.125 8.031,-3.158 7.781,-3.195 7.561,-3.37 7.295,-3.313 7.264,-3.307 7.225,-3.314 7.199,-3.33 7.065,-3.414 6.906,-3.39 6.766,-3.434 6.331,-3.57 5.887,-3.554 5.442,-3.549 5.298,-3.549 5.154,-3.544 5.01,-3.55 4.76,-3.559 4.517,-3.527 4.274,-3.461 4.113,-3.416 3.938,-3.426 3.77,-3.406 3.694,-3.397 3.619,-3.38 3.544,-3.362 3.514,-3.354 3.487,-3.328 3.455,-3.323 3.049,-3.26 2.706,-3.036 2.334,-2.884 2.304,-2.872 2.274,-2.844 2.245,-2.846 2.088,-2.855 1.975,-2.755 1.849,-2.693 1.686,-2.612 1.52,-2.53 1.37,-2.427 1.204,-2.314 1.041,-2.189 0.897,-2.047 0.563,-1.716 0.302,-1.331 0.158,-0.882 0.067,-0.599 -0.033,-0.31 0,0 m 1.214,-3.054 c 0.33,-0.208 0.695,-0.36 1.048,-0.528 0.099,-0.047 0.211,-0.064 0.315,-0.099 0.176,-0.062 0.349,-0.135 0.527,-0.193 0.197,-0.063 0.402,-0.103 0.594,-0.176 0.127,-0.048 0.249,-0.071 0.381,-0.072 0.065,0 0.133,-0.009 0.193,-0.03 0.213,-0.076 0.432,-0.102 0.656,-0.103 0.23,0 0.459,-0.011 0.688,0.001 0.207,0.011 0.414,0.048 0.621,0.071 0.071,0.008 0.143,0.006 0.213,0.012 0.241,0.024 0.484,0.031 0.719,0.081 0.233,0.049 0.46,0.138 0.686,0.218 0.318,0.112 0.634,0.228 0.949,0.35 0.273,0.105 0.544,0.214 0.81,0.336 0.231,0.105 0.468,0.208 0.675,0.351 0.29,0.201 0.553,0.439 0.827,0.662 0.182,0.148 0.379,0.282 0.54,0.452 0.345,0.362 0.597,0.791 0.839,1.226 0.05,0.091 0.107,0.184 0.131,0.283 0.052,0.221 0.084,0.446 0.125,0.67 0.009,0.045 0.009,0.094 0.028,0.135 0.094,0.196 0.091,0.406 0.09,0.615 0,0.203 -10e-4,0.406 0.005,0.609 C 12.891,2.395 12.723,2.926 12.45,3.426 12.117,4.037 11.641,4.513 11.037,4.858 10.863,4.958 10.683,5.05 10.5,5.133 10.215,5.265 9.989,5.496 9.684,5.594 9.475,5.662 9.288,5.801 9.053,5.784 9.028,5.782 8.998,5.787 8.978,5.801 8.83,5.895 8.665,5.882 8.502,5.886 8.43,5.888 8.356,5.89 8.288,5.91 8.015,5.99 7.737,6.017 7.453,6.011 7.251,6.006 7.048,6.01 6.844,6.01 V 6.017 C 6.642,6.017 6.438,6.026 6.236,6.015 6.008,6.001 5.782,5.971 5.555,5.945 5.399,5.928 5.245,5.904 5.091,5.883 5.033,5.875 4.963,5.882 4.921,5.852 4.821,5.784 4.716,5.778 4.603,5.773 4.533,5.77 4.462,5.75 4.394,5.728 4.139,5.645 3.888,5.554 3.617,5.539 3.585,5.538 3.551,5.53 3.522,5.516 3.279,5.406 3.021,5.317 2.797,5.176 2.32,4.879 1.848,4.571 1.398,4.234 1.08,3.996 0.793,3.715 0.509,3.435 0.313,3.243 0.135,3.031 -0.027,2.81 -0.261,2.491 -0.534,2.19 -0.593,1.773 -0.597,1.749 -0.61,1.724 -0.625,1.702 -0.702,1.595 -0.707,1.472 -0.708,1.345 -0.71,1.17 -0.693,0.986 -0.737,0.819 -0.799,0.582 -0.793,0.362 -0.741,0.124 c 0.053,-0.233 0.077,-0.47 0.148,-0.703 0.059,-0.197 0.12,-0.395 0.191,-0.587 0.171,-0.459 0.442,-0.866 0.779,-1.213 0.249,-0.255 0.535,-0.485 0.837,-0.675" fill="#181716" transform="matrix(1.33333 0 0 -1.33333 55.491 126.372)"/><path style="mix-blend-mode:multiply" d="M 0,0 C -0.232,0.157 -0.468,0.309 -0.704,0.462 -0.747,0.491 -0.793,0.517 -0.84,0.54 -1.246,0.746 -1.652,0.955 -2.084,1.105 -2.422,1.222 -2.752,1.361 -3.09,1.474 c -0.371,0.124 -0.746,0.228 -1.119,0.341 -0.044,0.013 -0.09,0.019 -0.134,0.03 -0.238,0.059 -0.476,0.119 -0.715,0.178 -0.088,0.021 -0.178,0.042 -0.267,0.059 -0.255,0.049 -0.506,0.127 -0.77,0.121 -0.03,-10e-4 -0.06,0.026 -0.092,0.033 -0.139,0.03 -0.278,0.063 -0.419,0.083 -0.109,0.016 -0.232,-0.011 -0.33,0.027 -0.206,0.079 -0.409,0.072 -0.618,0.044 -0.045,-0.006 -0.091,-0.004 -0.137,-0.002 -0.241,0.013 -0.483,0.03 -0.723,0.039 -0.245,0.01 -0.489,0.087 -0.735,-10e-4 -0.039,-0.014 -0.09,0.003 -0.136,0.003 -0.379,0 -0.758,0.002 -1.138,-0.003 -0.145,-0.001 -0.23,-0.08 -0.241,-0.206 -0.011,-0.126 0.079,-0.236 0.218,-0.257 0.057,-0.009 0.117,-0.001 0.175,-0.007 0.17,-0.017 0.338,-0.038 0.506,-0.058 0.123,-0.015 0.245,-0.042 0.368,-0.045 0.203,-0.004 0.404,0.002 0.595,-0.091 0.067,-0.033 0.153,-0.035 0.231,-0.038 0.15,-0.008 0.301,-0.015 0.451,-0.009 0.325,0.011 0.627,-0.114 0.943,-0.155 0.161,-0.022 0.319,-0.056 0.481,-0.08 0.3,-0.045 0.603,-0.086 0.905,-0.128 0.013,-0.002 0.025,-0.008 0.036,-0.014 0.129,-0.07 0.266,-0.104 0.415,-0.099 0.037,0.002 0.077,-0.012 0.114,-0.024 0.185,-0.061 0.37,-0.125 0.556,-0.183 0.049,-0.015 0.103,-0.014 0.155,-0.021 0.051,-0.006 0.106,-0.005 0.154,-0.021 0.31,-0.097 0.62,-0.193 0.927,-0.298 0.406,-0.14 0.809,-0.284 1.212,-0.431 0.128,-0.047 0.254,-0.101 0.378,-0.157 0.315,-0.142 0.628,-0.289 0.943,-0.43 0.209,-0.093 0.421,-0.18 0.598,-0.33 0.039,-0.033 0.087,-0.059 0.135,-0.078 0.325,-0.129 0.667,-0.227 0.938,-0.465 0.021,-0.019 0.057,-0.02 0.085,-0.029 0.012,0.021 0.023,0.032 0.023,0.043 C 0.877,-1.159 0.874,-1.133 0.866,-1.109 0.691,-0.651 0.408,-0.275 0,0" fill="#181716" transform="matrix(1.33333 0 0 -1.33333 63.585 149.107)"/><path style="mix-blend-mode:multiply" d="M 0,0 C -0.089,0.033 -0.195,0.061 -0.286,0.044 -0.508,0.002 -0.748,0.04 -0.954,-0.085 c -0.015,-0.011 -0.038,-0.01 -0.057,-0.012 -0.334,-0.023 -0.625,-0.172 -0.918,-0.315 -0.269,-0.131 -0.542,-0.256 -0.812,-0.384 -0.06,-0.029 -0.122,-0.052 -0.175,-0.088 -0.512,-0.35 -1.066,-0.633 -1.567,-0.998 -0.316,-0.23 -0.618,-0.48 -0.928,-0.72 -0.094,-0.072 -0.185,-0.15 -0.287,-0.203 -0.272,-0.14 -0.502,-0.329 -0.713,-0.547 -0.068,-0.071 -0.14,-0.138 -0.214,-0.203 -0.643,-0.57 -1.226,-1.196 -1.741,-1.885 -0.168,-0.224 -0.256,-0.483 -0.281,-0.706 0,-0.208 0.072,-0.381 0.177,-0.48 0.14,-0.131 0.446,-0.118 0.52,0.044 0.097,0.213 0.236,0.391 0.381,0.568 0.271,0.335 0.536,0.674 0.818,1.001 0.248,0.287 0.523,0.546 0.82,0.785 0.239,0.192 0.448,0.42 0.672,0.631 0.186,0.173 0.366,0.353 0.563,0.513 0.274,0.222 0.564,0.424 0.841,0.641 0.155,0.12 0.293,0.26 0.448,0.377 0.189,0.141 0.386,0.27 0.58,0.401 0.26,0.176 0.51,0.372 0.786,0.516 0.404,0.21 0.803,0.431 1.219,0.62 0.229,0.104 0.449,0.205 0.705,0.21 0.049,0.001 0.104,0.022 0.146,0.05 C 0.152,-0.186 0.141,-0.052 0,0" fill="#181716" transform="matrix(1.33333 0 0 -1.33333 82.743 140.546)"/><path style="mix-blend-mode:multiply" d="M 0,0 C 0.104,0.086 0.245,0.084 0.348,-0.022 0.527,-0.207 0.637,-0.426 0.673,-0.697 0.639,-0.793 0.625,-0.907 0.564,-0.982 0.395,-1.188 0.095,-1.118 -0.018,-0.855 -0.066,-0.744 -0.107,-0.63 -0.147,-0.517 -0.208,-0.343 -0.143,-0.118 0,0 m -0.472,-1.382 c 0.014,-0.05 0.019,-0.107 0.012,-0.159 -0.041,-0.319 0.135,-0.587 0.206,-0.88 0.049,-0.204 0.148,-0.397 0.225,-0.595 0.117,-0.302 0.258,-0.585 0.565,-0.745 0.372,-0.195 0.651,-0.101 0.808,0.281 0.095,0.231 0.133,0.464 0.122,0.713 -0.011,0.236 -10e-4,0.472 -0.004,0.708 0,0.068 0.011,0.152 -0.023,0.201 -0.1,0.146 -0.093,0.301 -0.074,0.523 C 1.354,-1.259 1.347,-1.121 1.313,-0.99 1.236,-0.699 1.15,-0.41 1.06,-0.122 1.025,-0.006 0.961,0.101 0.932,0.218 0.852,0.55 0.662,0.808 0.413,1.029 0.245,1.178 -0.083,1.193 -0.265,1.064 -0.47,0.916 -0.572,0.711 -0.577,0.461 c -0.004,-0.228 0.003,-0.457 0.005,-0.685 0.005,-0.389 -0.007,-0.778 0.1,-1.158" fill="#181716" transform="matrix(1.33333 0 0 -1.33333 67.424 121.976)"/><path style="mix-blend-mode:multiply" d="M 0,0 C 0.082,0.176 0.214,0.209 0.368,0.088 0.443,0.029 0.525,-0.053 0.548,-0.139 0.612,-0.38 0.647,-0.628 0.687,-0.836 0.688,-1.105 0.514,-1.294 0.299,-1.295 0.175,-1.297 0.082,-1.252 0.021,-1.136 -0.175,-0.76 -0.177,-0.38 0,0 m -0.598,-1.275 c 0.027,-0.109 0.069,-0.216 0.08,-0.326 0.012,-0.122 0,-0.244 0.084,-0.348 0.022,-0.028 0.027,-0.07 0.035,-0.107 0.052,-0.229 0.102,-0.459 0.152,-0.688 0.077,-0.356 0.313,-0.608 0.579,-0.823 0.124,-0.1 0.303,-0.139 0.462,-0.187 0.105,-0.033 0.208,0.006 0.298,0.077 0.191,0.15 0.248,0.366 0.257,0.585 0.016,0.402 0.004,0.805 0.004,1.208 0,0 0.018,0 0.027,10e-4 -0.005,0.053 -0.002,0.108 -0.017,0.158 -0.08,0.272 -0.118,0.55 -0.121,0.834 0,0.067 -0.021,0.135 -0.04,0.201 C 1.129,-0.435 1.077,-0.173 0.909,0.045 0.874,0.09 0.874,0.161 0.849,0.216 0.761,0.417 0.681,0.622 0.576,0.814 0.433,1.08 0.161,1.13 -0.104,1.162 -0.173,1.17 -0.271,1.12 -0.322,1.065 -0.53,0.842 -0.659,0.575 -0.666,0.267 c -0.009,-0.419 -0.005,-0.838 0.003,-1.258 0.001,-0.095 0.041,-0.19 0.065,-0.284" fill="#181716" transform="matrix(1.33333 0 0 -1.33333 58.77 123.55)"/></g><path style="mix-blend-mode:multiply" d="M 0,0 H 67.294 V 116.026 H 0 Z" fill="none" stroke="#181716" stroke-width="1.605" stroke-miterlimit="10" transform="matrix(1.33333 0 0 -1.33333 1.07 155.771)"/></svg>