<svg xmlns="http://www.w3.org/2000/svg" width="91.865" height="156.841"><path style="mix-blend-mode:multiply" d="m 206.791,357.834 h 67.294 v 116.025 h -67.294 z" fill="#fff" transform="matrix(1.33333 0 0 -1.33333 -274.65 632.883)"/><g style="mix-blend-mode:multiply"><g style="mix-blend-mode:multiply"><path style="mix-blend-mode:multiply" d="m 0,0 -1.544,-0.049 -1.28,-0.212 -0.117,-0.107 0.028,-0.152 1.292,-2.26 0.403,-0.482 0.32,-0.564 1.252,-1.399 0.879,-0.595 1.114,-0.654 1.415,-0.334 1.007,0.159 0.418,0.165 0.899,0.871 0.412,0.471 0.211,0.968 -0.048,1.129 -0.443,1.032 -0.299,0.29 -1.543,0.815 -1.05,0.422 -1.951,0.408 z" fill="#e30015" transform="matrix(1.33333 0 0 -1.33333 59.778 133.682)"/></g><g style="mix-blend-mode:multiply"><path style="mix-blend-mode:multiply" d="M 0,0 -0.919,-0.555 -1.552,-1.394 -2.067,-2.367 -2.368,-3.822 -2.51,-4.858 v -1.178 l -0.079,-0.521 -0.25,-0.319 -0.025,-0.138 0.148,-0.348 -0.088,-0.713 0.112,-0.49 -0.068,-0.973 0.167,-0.378 0.167,-0.04 0.196,0.074 0.923,0.874 2.289,1.836 0.86,0.615 0.688,0.787 0.874,1.187 0.683,1.382 v 1.718 L 3.674,-0.422 3.261,0.049 2.613,0.285 1.468,0.3 Z" fill="#e30015" transform="matrix(1.33333 0 0 -1.33333 14.126 128.658)"/></g><g style="mix-blend-mode:multiply"><path style="mix-blend-mode:multiply" d="m 0,0 -1.469,-0.241 -0.836,-0.049 -0.952,-0.226 -0.726,-0.157 -0.86,-0.329 -0.256,-0.319 -0.009,-0.197 0.215,-0.358 0.806,-0.678 0.722,-0.752 0.471,-0.446 0.045,-0.172 -0.118,-0.119 -0.496,0.025 -0.807,0.104 -1.159,0.033 -0.45,0.074 -0.91,-0.25 -0.805,-0.078 -0.398,-0.192 -0.983,-0.196 -1.375,-0.394 -0.726,-0.156 -0.989,-0.502 -0.122,-0.177 -0.024,-0.207 0.226,-0.357 0.55,-0.639 0.988,-0.81 0.101,-0.168 -0.042,-0.171 -0.177,-0.128 -0.443,-0.04 -0.364,0.133 -1.89,-0.055 -1.444,0.031 -0.487,0.113 -1.031,-0.144 -0.235,-0.063 -0.118,-0.112 0.029,-0.148 0.703,-0.785 0.26,-0.331 0.52,-0.362 0.879,-1.184 0.605,-0.575 0.756,-0.717 1.685,-0.967 0.996,-0.477 0.989,-0.089 1.383,0.614 0.729,0.747 0.387,1.086 0.025,0.854 -0.073,0.226 -0.753,0.756 -0.103,0.173 0.01,0.127 0.167,0.055 1.488,-0.3 0.831,-0.064 0.437,-0.03 0.997,0.187 0.943,0.531 0.835,0.933 0.294,0.589 0.241,1.253 -0.025,0.255 -0.239,0.364 -0.271,0.324 -0.148,0.476 -0.004,0.207 0.108,0.108 0.388,-0.138 1.562,-0.815 0.697,-0.188 0.992,-0.137 0.854,0.325 0.865,0.609 0.368,0.516 0.443,1.34 -0.049,0.522 -0.668,1.104 -1.709,0.943 -1.125,0.354 z" fill="#e30015" transform="matrix(1.33333 0 0 -1.33333 85.425 119.286)"/></g><g style="mix-blend-mode:multiply"><path style="mix-blend-mode:multiply" d="m 0,0 -0.653,-0.231 -0.26,-0.33 -0.378,-0.506 -0.594,-1.174 -0.178,-1.002 -0.142,-1.037 0.074,-0.485 0.22,-1.852 0.286,-0.894 0.328,-1.163 0.138,-0.133 0.192,0.014 0.761,0.452 0.958,0.811 0.329,0.555 0.742,0.731 0.192,0.398 0.578,0.894 0.242,0.644 0.23,1.783 L 2.899,-2.109 2.766,-1.352 2.324,-0.32 1.823,0.063 1.027,0.166 Z" fill="#e30015" transform="matrix(1.33333 0 0 -1.33333 50.262 117.052)"/></g><g style="mix-blend-mode:multiply"><path style="mix-blend-mode:multiply" d="m 0,0 -0.618,-0.088 -0.787,-0.403 -0.51,-0.373 -0.619,-0.855 -0.732,-2.215 v -1.759 l 0.255,-0.628 0.09,-0.796 0.583,-1.478 0.28,-1.208 0.133,-0.142 0.206,0.005 0.216,0.097 1.661,1.603 0.844,1.216 0.84,1.519 0.462,1.307 0.094,1.536 -0.403,1.051 -0.609,0.865 -0.875,0.608 z" fill="#e30015" transform="matrix(1.33333 0 0 -1.33333 61.1 113.183)"/></g><g style="mix-blend-mode:multiply"><path style="mix-blend-mode:multiply" d="m 0,0 -0.624,-0.26 -0.3,-0.29 -0.511,-0.962 -0.309,-1.46 -0.059,-1.424 0.158,-1.316 0.402,-1.955 0.276,-0.914 0.254,-0.319 h 0.177 l 1.356,1.006 0.584,0.889 1.46,2.374 0.412,1.06 0.087,0.796 -0.058,1.13 L 2.864,-0.613 2.043,0.04 1.58,0.181 Z" fill="#e30015" transform="matrix(1.33333 0 0 -1.33333 68.96 109.424)"/></g><g style="mix-blend-mode:multiply"><path style="mix-blend-mode:multiply" d="m 0,0 -0.742,-0.162 -1.036,-0.727 -0.634,-0.84 -0.85,-1.507 -0.206,-0.679 -0.53,-1.237 -0.329,-1.144 -0.093,-0.801 0.053,-0.84 0.222,-0.378 0.181,-0.079 1.011,0.132 1.43,0.339 1.095,0.674 0.968,0.801 1.037,1.026 0.647,1.119 L 2.46,-3.36 2.509,-2.545 2.21,-1.36 1.895,-0.79 1.4,-0.403 0.624,0.005 Z" fill="#e30015" transform="matrix(1.33333 0 0 -1.33333 82.661 107.19)"/></g><g style="mix-blend-mode:multiply"><path style="mix-blend-mode:multiply" d="M 0,0 -1.135,-0.005 -1.777,-0.247 -2.516,-0.984 -2.83,-1.553 -3.016,-2.187 -2.943,-2.639 -3.07,-3.385 V -3.95 l 0.482,-1.587 0.835,-1.522 0.859,-0.909 1.41,-0.947 1.296,-0.472 1.282,-0.221 0.403,-0.019 0.118,0.141 0.073,0.229 v 0.073 L 3.678,-8.411 3.408,-7.496 3.08,-5.467 2.819,-4.549 2.432,-3.17 1.881,-1.657 1.174,-0.89 0.413,-0.177 Z" fill="#e30015" transform="matrix(1.33333 0 0 -1.33333 26.85 98.8)"/></g><g style="mix-blend-mode:multiply"><path style="mix-blend-mode:multiply" d="m 0,0 -0.368,-0.231 -0.801,-0.378 -0.491,-0.393 -0.58,-0.305 -1.483,-1.168 -0.864,-0.609 -0.807,-0.982 -0.162,-0.305 0.089,-0.142 0.63,-0.276 0.824,-0.353 1.607,-0.471 0.083,-0.089 -0.104,-0.099 -0.486,-0.134 -1.444,-0.622 -0.919,-0.555 -0.942,-0.531 -1.676,-1.301 -0.073,-0.193 0.049,-0.186 0.363,-0.245 1.332,-0.732 1.34,-0.427 1.37,-0.393 0.187,0.004 0.403,0.173 0.821,0.068 1.163,0.31 0.595,0.291 1.055,1.006 0.241,0.643 0.044,1.124 -0.131,0.459 -0.457,0.72 -0.511,0.387 -0.296,0.252 0.041,0.128 1.492,0.579 0.57,0.315 1.243,1.114 0.181,0.409 0.148,0.918 v 0.007 L 3.128,-1.847 2.358,-0.835 1.675,-0.338 0.525,0 Z" fill="#e30015" transform="matrix(1.33333 0 0 -1.33333 78.784 68.544)"/></g><g style="mix-blend-mode:multiply"><path style="mix-blend-mode:multiply" d="m 0,0 -0.382,-0.207 -0.806,-0.373 -0.329,-0.26 -0.624,-0.85 -0.31,-0.815 0.124,-0.653 0.343,-0.545 0.659,-0.522 1.571,-0.784 0.741,-0.143 1.508,-0.232 h 0.012 l 0.441,0.064 0.864,0.035 0.766,0.117 1.533,0.53 0.619,0.271 0.275,0.334 0.014,0.197 L 6.911,-3.669 6.567,-3.405 6.195,-2.893 5.32,-1.999 4.328,-1.224 3.276,-0.801 2.51,-0.389 1.425,0 Z" fill="#e30015" transform="matrix(1.33333 0 0 -1.33333 14.334 68.55)"/></g><g style="mix-blend-mode:multiply"><path style="mix-blend-mode:multiply" d="m 0,0 -0.741,-0.142 -0.979,-0.496 -0.506,-0.379 -0.343,-0.54 -0.083,-0.51 0.22,-0.963 0.374,-0.511 0.697,-0.776 0.874,-0.599 1.823,-0.535 1.754,0.004 0.952,0.226 2.285,0.374 0.205,0.103 0.104,0.196 L 6.621,-4.322 6.498,-4.135 5.953,-3.782 5.349,-3.208 3.826,-1.782 2.8,-1.04 2.093,-0.569 1.228,-0.255 0.009,0 Z" fill="#e30015" transform="matrix(1.33333 0 0 -1.33333 11.545 60.653)"/></g><g style="mix-blend-mode:multiply"><path style="mix-blend-mode:multiply" d="m 0,0 -0.52,-0.044 -0.851,-0.334 -1.006,-0.467 -0.467,-0.417 -1.002,-0.767 -1.041,-1.022 -0.786,-0.986 -0.005,-0.177 0.109,-0.168 0.367,-0.236 1.085,-0.392 1.47,-0.28 0.482,0.103 1.154,0.03 0.755,0.127 1.798,0.855 0.506,0.378 0.531,0.648 0.236,0.659 -0.02,0.55 -0.246,0.648 -1.002,1.061 -0.225,0.069 -0.564,0.025 z" fill="#e30015" transform="matrix(1.33333 0 0 -1.33333 84.03 60.273)"/></g><g style="mix-blend-mode:multiply"><path style="mix-blend-mode:multiply" d="m 0,0 -0.899,-0.107 -0.565,-0.325 -0.476,-0.407 -0.29,-0.595 -0.104,-0.997 0.359,-0.996 0.619,-1.15 1.238,-1.709 2.131,-1.7 L 3.757,-8.895 4.317,-9.22 5,-9.44 5.167,-9.385 5.221,-9.214 5.083,-8.158 4.995,-7.362 4.936,-6.537 4.823,-5.766 4.052,-3.59 3.114,-1.876 1.955,-0.678 1.404,-0.343 Z" fill="#e30015" transform="matrix(1.33333 0 0 -1.33333 9.686 45.263)"/></g><g style="mix-blend-mode:multiply"><path style="mix-blend-mode:multiply" d="m 0,0 -0.694,-0.196 -1.423,-0.934 -0.733,-0.741 -1.581,-1.955 -0.693,-0.79 -0.172,-0.409 0.035,-0.211 0.112,-0.181 0.325,-0.276 0.413,-0.176 0.564,-0.025 1.764,0.015 1.194,0.28 0.834,0.344 0.978,0.496 0.824,0.648 0.86,0.909 0.28,0.605 0.044,1.124 L 2.8,-1.017 2.46,-0.472 2.082,-0.26 0.844,-0.024 Z" fill="#e30015" transform="matrix(1.33333 0 0 -1.33333 85.046 49.664)"/></g><g style="mix-blend-mode:multiply"><path style="mix-blend-mode:multiply" d="m 0,0 -0.805,-0.089 -0.585,-0.299 -0.781,-0.693 -0.81,-0.662 -0.305,-0.581 -0.598,-0.874 -0.409,-1.065 -0.697,-2.559 0.413,-0.413 0.604,-0.005 1.262,0.216 0.761,0.418 0.605,0.28 1.683,1.263 0.492,0.687 0.354,0.825 0.383,1.626 -0.148,0.677 -0.569,0.91 -0.349,0.24 z" fill="#e30015" transform="matrix(1.33333 0 0 -1.33333 50.06 42.178)"/></g><g style="mix-blend-mode:multiply"><path style="mix-blend-mode:multiply" d="m 0,0 -1.252,-0.231 -0.5,-0.384 -0.507,-0.672 -0.707,-1.651 -0.289,-1.184 -0.285,-1.473 0.073,-0.496 0.065,-0.831 0.131,-0.751 0.31,-1.163 0.182,-0.703 0.388,-1.105 0.181,-0.094 0.222,0.021 0.196,0.107 0.594,0.599 0.801,0.674 1.33,1.91 0.467,1.006 0.669,1.985 0.181,0.977 -0.107,1.198 -0.241,0.645 -0.772,0.997 -0.647,0.54 z" fill="#e30015" transform="matrix(1.33333 0 0 -1.33333 81.12 36.892)"/></g><g style="mix-blend-mode:multiply"><path style="mix-blend-mode:multiply" d="m 0,0 -0.732,-0.446 -0.413,-0.472 -0.28,-1.198 0.06,-0.654 0.358,-0.83 1.159,-1.198 0.806,-0.668 0.899,-0.575 1.557,-0.506 1.159,-0.329 0.491,0.034 1.07,0.118 0.152,0.148 0.045,0.255 -0.049,0.58 -0.511,1.257 -0.491,1.277 -0.692,1.076 -1.115,1.242 -1.287,0.776 -0.919,0.265 -0.545,0.02 z" fill="#e30015" transform="matrix(1.33333 0 0 -1.33333 23.576 37.908)"/></g><g style="mix-blend-mode:multiply"><path style="mix-blend-mode:multiply" d="m 0,0 -0.464,-0.053 -0.77,-0.423 -1.646,-1.596 -0.349,-0.535 -0.388,-0.79 -0.56,-1.21 -0.52,-1.542 -0.089,-1.007 0.093,-0.197 1.631,-0.137 0.889,0.29 1.523,0.835 1.679,1.267 0.634,0.84 0.319,0.861 0.27,1.207 -0.083,0.506 -0.418,0.766 -0.5,0.383 L 0.01,0 Z" fill="#e30015" transform="matrix(1.33333 0 0 -1.33333 46.67 32.591)"/></g><g style="mix-blend-mode:multiply"><path style="mix-blend-mode:multiply" d="m 0,0 -0.678,-0.207 -0.471,-0.412 -0.315,-0.57 -0.186,-0.998 v -0.027 l 0.016,-0.384 0.495,-0.978 0.918,-1.439 0.496,-0.389 0.777,-0.696 1.296,-0.766 1.576,-0.486 1.43,-0.065 0.536,0.065 0.137,0.137 0.009,0.191 -0.338,0.855 -0.113,0.771 -0.476,1.586 -0.502,0.973 -0.79,1.272 -0.884,0.884 -1.621,0.737 -0.535,0.068 z" fill="#e30015" transform="matrix(1.33333 0 0 -1.33333 24.466 27.207)"/></g><g style="mix-blend-mode:multiply"><path style="mix-blend-mode:multiply" d="m 0,0 -0.855,-0.324 -0.683,-0.792 -0.496,-0.682 -0.589,-1.769 -0.054,-1.418 -0.059,-1.121 0.04,-0.653 0.102,-1.095 0.265,-0.319 h 0.03 l 0.147,0.005 0.33,0.255 2.377,1.464 0.279,0.309 0.498,0.388 0.614,0.86 0.412,1.061 0.23,1.482 L 2.496,-1.597 2.043,-0.855 1.478,-0.241 0.834,0 Z" fill="#e30015" transform="matrix(1.33333 0 0 -1.33333 43.216 20.612)"/></g><g style="mix-blend-mode:multiply"><path style="mix-blend-mode:multiply" d="m 0,0 -0.496,-0.094 -0.349,-0.241 -0.85,-1.212 -0.197,-0.963 0.153,-1.302 0.501,-1.267 0.413,-0.767 1.606,-1.634 1.036,-0.733 1.675,-0.978 0.977,-0.53 0.251,-0.024 0.206,0.089 0.098,0.21 -0.053,1.562 -0.03,1.13 -0.487,2.063 -0.368,1.104 -0.746,1.612 -0.708,0.767 -0.913,0.854 -0.589,0.295 z" fill="#e30015" transform="matrix(1.33333 0 0 -1.33333 27.263 12.32)"/></g><g style="mix-blend-mode:multiply"><path style="mix-blend-mode:multiply" d="M 0,0 -0.863,1.727 -2.484,3.347 -3.668,3.932 -5.171,4.211 -5.702,4.153 -6.291,3.854 -6.885,3.269 -7.067,2.851 l -0.009,-0.55 0.304,-1.179 0.275,-0.609 1.292,-1.361 0.982,-0.785 0.34,-0.151 c 0.536,0.195 0.964,0.335 1.673,0.588 0.727,0.261 1.63,0.44 2.049,0.496 0.235,-0.018 0.201,0.221 0.201,0.221 0,0 -0.189,0.421 -0.04,0.479" fill="#e30015" fill-rule="evenodd" transform="matrix(1.33333 0 0 -1.33333 32.585 56.831)"/></g><g style="mix-blend-mode:multiply"><path style="mix-blend-mode:multiply" d="m 0,0 0.958,-0.372 c 2.367,-1.197 2.934,-1.583 3.547,-2.285 l 0.206,-0.118 0.112,0.653 0.138,0.56 0.168,0.968 L 5.005,0.044 4.902,0.835 4.553,2.255 3.242,3.595 2.481,4.013 1.675,4.102 1.179,3.998 0.236,3.468 -0.402,2.323 -0.501,1.906 -0.408,1.429 Z" fill="#e30015" fill-rule="evenodd" transform="matrix(1.33333 0 0 -1.33333 67.473 50.79)"/></g><g style="mix-blend-mode:multiply"><path style="mix-blend-mode:multiply" d="m 0,0 -0.324,-0.275 -0.157,-0.431 -0.055,-0.836 0.398,-1.964 0.683,-1.381 0.732,-1.037 0.669,-0.804 0.731,-0.743 1.857,-1.09 1.08,-0.393 1.449,-0.3 1.194,0.104 0.181,0.112 0.118,0.177 0.05,0.246 0.004,1.969 v 0.397 l -0.423,1.637 -0.564,1.204 -0.599,0.874 -0.536,0.642 -0.78,0.693 -1.842,0.812 -1.479,0.29 -0.86,0.024 -1.041,0.146 z" fill="#3a3a39" transform="matrix(1.33333 0 0 -1.33333 8.938 142.103)"/></g><g style="mix-blend-mode:multiply"><path style="mix-blend-mode:multiply" d="m 0,0 -0.226,-0.053 -0.172,-0.138 -0.168,-0.423 -0.023,-1.459 0.166,-1.306 0.368,-1.4 0.349,-0.83 0.407,-0.477 0.664,-1.104 1.262,-1.095 0.766,-0.413 1.681,-0.678 0.633,0.019 0.422,-0.132 1.537,-0.245 0.232,0.054 0.172,0.136 0.166,0.423 0.01,2.135 v 0.197 L 7.908,-5.363 7.574,-4.813 7.131,-3.782 6.743,-3.286 6.158,-2.397 4.96,-1.532 4.111,-1.203 3.295,-0.84 2.392,-0.564 1.272,-0.211 0.009,0 Z" fill="#3a3a39" transform="matrix(1.33333 0 0 -1.33333 25.515 138.063)"/></g><g style="mix-blend-mode:multiply"><path style="mix-blend-mode:multiply" d="m 0,0 -0.491,-0.034 -0.187,-0.123 -0.231,-0.359 -0.206,-1.267 -0.029,-1.15 0.447,-2.204 0.451,-1.317 0.6,-0.874 1.484,-1.464 1.292,-0.771 1.517,-0.546 0.677,-0.206 1.229,-0.26 h 0.026 l 0.479,0.02 0.201,0.108 0.198,0.368 0.166,1.601 -0.068,1.867 -0.09,0.795 -0.868,2.078 -0.31,0.279 -0.766,0.709 -0.8,0.967 -1.097,0.672 -1.905,0.747 -1.071,0.108 z" fill="#3a3a39" transform="matrix(1.33333 0 0 -1.33333 39.227 135.534)"/></g><g style="mix-blend-mode:multiply"><path style="mix-blend-mode:multiply" d="m 0,0 -1.417,-0.363 -0.996,-0.476 -0.83,-0.644 -0.629,-0.55 -0.525,-0.653 -0.467,-0.713 -0.467,-0.711 -0.506,-1.264 -0.324,-1.149 -0.034,-1.412 v -0.043 l 0.148,-1.026 0.442,-0.446 0.878,0.02 1.395,0.372 2.403,1.135 0.82,0.655 0.663,0.809 0.285,0.6 0.432,0.746 0.437,1.036 0.3,1.175 0.054,0.829 L 2.16,-0.801 1.944,-0.123 1.786,-0.054 1.035,-0.162 0.009,0 Z" fill="#3a3a39" transform="matrix(1.33333 0 0 -1.33333 35.345 120.374)"/></g><g style="mix-blend-mode:multiply"><path style="mix-blend-mode:multiply" d="m 0,0 -0.496,-0.093 -0.717,-0.757 -0.225,-0.363 -0.02,-1.454 0.53,-2.481 0.496,-1.207 0.476,-0.703 0.413,-0.767 0.919,-1.144 1.08,-0.688 0.815,-0.363 1.459,-0.29 0.472,0.093 1.105,0.079 0.408,0.182 0.265,0.324 0.226,0.658 0.192,1.297 -0.157,1.037 -0.177,1.001 -0.914,2.034 -1.036,1.321 -0.644,0.535 -1.193,0.87 -2.138,0.81 z" fill="#3a3a39" transform="matrix(1.33333 0 0 -1.33333 -3.381 114.276)"/></g><g style="mix-blend-mode:multiply"><path style="mix-blend-mode:multiply" d="M 0,0 -0.679,-0.074 -1.165,0 h -0.016 l -1.233,-0.112 -0.427,-0.163 -0.128,-0.171 -0.127,-0.698 v -0.01 l 0.073,-0.393 0.502,-0.982 1.134,-2.696 0.688,-1.377 0.747,-1.021 0.696,-0.481 1.135,-0.633 1.091,-0.384 1.222,-0.265 1.509,0.275 0.358,0.232 0.314,0.568 0.098,0.963 0.035,0.845 0.039,0.664 L 6.388,-4.818 6.054,-3.679 5.73,-3.118 4.212,-1.395 3.122,-0.717 1.595,-0.201 0.015,0 Z" fill="#3a3a39" transform="matrix(1.33333 0 0 -1.33333 1.462 103.176)"/></g><g style="mix-blend-mode:multiply"><path style="mix-blend-mode:multiply" d="m 0,0 -1.534,-0.25 -1.27,-0.496 -1.057,-0.714 -1.632,-1.61 -0.206,-0.383 -0.043,-1.124 0.132,-0.457 0.57,-0.609 0.761,-0.418 0.458,-0.438 0.328,-0.264 -0.004,-0.108 -0.938,-0.201 -1.052,-0.129 -0.879,-0.299 -1.891,-1.056 -1.586,-1.361 -0.27,-0.329 -0.059,-0.511 0.147,-0.462 0.481,-0.696 1.42,-0.958 0.122,-0.178 0.021,-0.202 -0.105,-0.17 -0.466,-0.143 -0.751,-0.132 -1.543,-0.522 -1.326,-0.736 -1.12,-0.649 -0.977,-0.791 -0.181,-0.425 v -0.009 l 0.063,-0.514 0.138,-0.162 0.952,-0.521 1.036,-1.026 0.889,-0.583 1.032,-0.737 1.125,-0.645 1.578,-0.486 2.027,-0.014 1.833,0.526 1.675,0.976 0.962,0.812 0.211,0.382 0.02,0.222 -0.565,1.198 -1.33,1.615 -0.871,0.634 -0.067,0.137 0.078,0.114 0.594,0.098 0.554,-0.068 2.457,0.476 2.209,1.006 0.37,0.015 0.166,0.069 0.104,0.191 -0.035,0.517 -0.432,0.761 -0.555,0.623 -0.713,1.351 -0.221,0.664 -1.335,1.036 -0.202,0.348 0.074,0.162 0.437,0.169 0.835,0.032 0.732,0.168 1.595,0.762 0.974,0.795 1.011,1.051 0.452,0.742 0.118,0.408 -0.167,0.614 -0.383,0.505 -0.791,0.683 -0.648,0.531 -1.557,0.8 z" fill="#3a3a39" transform="matrix(1.33333 0 0 -1.33333 70.512 82.841)"/></g><g style="mix-blend-mode:multiply"><path style="mix-blend-mode:multiply" d="m 0,0 -1.502,-0.035 -1.48,-0.27 -0.461,0.084 -0.451,-0.064 -0.173,-0.134 -0.181,-0.702 -0.054,-1.119 0.166,-0.428 1.303,-1.94 0.775,-0.992 0.497,-0.388 0.953,-0.815 2.067,-0.88 0.727,-0.156 1.321,-0.167 1.036,0.156 1.253,0.222 1.071,0.697 0.26,0.329 0.158,0.674 -0.295,1.123 -0.801,1.264 -0.766,1.001 -0.698,0.776 -0.5,0.383 -0.546,0.34 -1.366,0.697 -1.193,0.28 z" fill="#3a3a39" transform="matrix(1.33333 0 0 -1.33333 1.197 90.477)"/></g><g style="mix-blend-mode:multiply"><path style="mix-blend-mode:multiply" d="m 0,0 -0.894,-0.004 -1.939,-0.418 -2.019,-0.929 -0.359,-0.23 -0.682,-0.79 -0.506,-0.674 -0.413,-1.061 -0.24,-1.233 v -0.012 l 0.053,-0.454 0.074,-1.114 0.344,-1.426 0.584,-1.183 0.496,-0.388 1.577,-0.005 0.299,0.26 1.2,0.58 0.76,0.417 0.943,1.12 0.718,1.051 0.501,1.562 0.24,1.536 v 0.013 l -0.098,0.784 -0.058,1.119 -0.202,1.272 -0.143,0.153 z" fill="#3a3a39" transform="matrix(1.33333 0 0 -1.33333 23.96 84.426)"/></g><g style="mix-blend-mode:multiply"><path style="mix-blend-mode:multiply" d="m 0,0 -0.177,-0.128 -0.398,-0.785 -0.314,-1.16 -0.05,-0.834 -0.122,-0.763 -0.034,-0.853 0.328,-2.04 0.178,-0.416 0.18,-0.463 0.767,-1.527 1.401,-0.958 0.849,-0.624 1.144,-0.328 1.489,-0.276 0.456,0.133 0.324,0.27 0.447,1.027 0.242,0.937 0.004,2.048 -0.56,1.799 -0.653,1.114 -0.462,0.718 -1.155,1.204 -0.888,0.584 -0.8,0.378 -0.693,0.487 -1.007,0.485 z" fill="#3a3a39" transform="matrix(1.33333 0 0 -1.33333 .844 75.06)"/></g><g style="mix-blend-mode:multiply"><path style="mix-blend-mode:multiply" d="m 0,0 c 0,0 -2.507,-0.256 -4.349,0.204 -0.27,0.068 -0.488,0.154 -0.681,0.25 L -5.393,0.83 -5.754,1.039 c -0.372,0.522 -0.355,1.151 -0.386,1.673 0,0 -1.432,0.358 -1.586,2.2 -0.153,1.841 1.381,3.632 3.275,3.786 1.893,0.153 3.428,-1.279 3.632,-2.763 C -0.614,4.451 -1.075,3.428 -1.075,3.428 L 0.051,3.326 c 0.358,1.176 1.023,2.711 2.354,2.967 1.33,0.256 1.279,-0.307 1.279,-0.307 0,0 1.33,0.512 2.405,0.307 C 7.163,6.089 7.112,5.372 7.163,4.707 7.214,4.041 7.06,3.377 7.06,3.377 c 0,0 0.461,0 0.563,-0.768 C 7.726,1.842 7.112,0.716 7.112,0.716 c 0,0 0.153,-0.818 -0.205,-1.279 C 6.549,-1.023 5.474,-2.098 3.377,-1.996 1.279,-1.894 0,0 0,0 m -9.824,9.005 c -0.293,-0.08 -0.587,-0.115 -0.865,-0.188 -1.214,-0.32 -2.204,-0.563 -2.204,-0.563 l -0.41,2.559 3.07,0.716 c 0,0 0.955,0.477 1.433,0.477 0.477,0 2.455,0.682 2.933,0.819 0.477,0.136 3.548,0.955 3.548,0.955 0.136,-0.614 0.259,-1.19 0.375,-1.637 0.126,-0.487 0.136,-0.785 0.136,-0.785 0,0 -0.248,-0.18 -0.716,-0.273 C -2.92,11.007 -3.477,10.922 -3.821,10.813 -4.547,10.582 -5.594,10.335 -7.504,9.721 -8.161,9.51 -9.001,9.228 -9.824,9.005 m 15.861,7.214 c 0,0 0.666,-0.614 2.866,-1.688 2.199,-1.075 3.837,-0.87 3.837,-0.87 0.46,-1.126 0.051,-1.791 -0.461,-2.405 -0.511,-0.614 -2.046,-1.33 -3.991,-0.307 -1.944,1.023 -2.916,2.66 -2.916,3.735 0,1.075 0.665,1.535 0.665,1.535 M 14.326,1.228 c 1.79,2.507 3.121,5.321 3.326,6.753 0.204,1.433 0.255,3.889 0.255,3.889 0,0 -1.382,3.121 -5.628,5.935 -4.246,2.814 -7.214,2.2 -10.233,1.842 -3.019,-0.358 -13.763,-3.991 -13.763,-3.991 0,0 -1.381,-0.614 -1.586,-0.921 -0.204,-0.307 -0.204,-1.688 -0.204,-1.688 l -1.945,-0.461 c 0,0 -0.409,1.228 -0.869,1.126 -0.461,-0.103 -3.94,-0.972 -4.094,-1.024 -0.153,-0.05 -0.87,-0.255 -1.125,-0.767 -0.11,-0.219 -0.117,-1.766 0.02,-3.276 2.495,0.652 5.556,1.52 5.556,1.52 l 0.41,-2.662 -5.579,-1.467 c 0.139,-1.06 0.287,-1.992 0.411,-2.506 0.41,-1.688 2.303,-7.317 2.815,-8.544 0.511,-1.228 1.484,-4.401 2.302,-4.554 0.159,-0.029 0.358,-0.051 0.567,-0.07 l 0.062,-2.504 0.663,-1.989 0.639,-1.13 0.501,-0.618 -0.074,-0.104 -1.155,-0.319 -0.663,-0.222 -1.326,-0.736 -0.933,-0.835 -0.948,-1.115 -0.407,-0.77 -0.625,-0.851 -0.481,-1.007 -0.029,-0.8 0.162,-0.359 0.913,-0.57 1.003,-0.176 1.262,-0.227 1.321,0.167 1.002,0.178 1.572,0.785 1.454,1.199 0.879,0.888 0.643,0.831 0.329,0.849 0.85,1.803 0.186,0.698 0.207,0.678 0.221,0.958 0.034,1.448 -0.137,1.041 -0.472,1.592 -0.32,0.565 -0.456,0.721 -1.057,1.058 c 0.176,0.078 0.317,0.153 0.394,0.223 0.461,0.409 0.563,1.534 0.563,1.534 l 0.921,0.461 c 0,0 0.716,-1.075 1.382,-1.024 0.043,0.003 0.096,0.008 0.156,0.015 l 0.023,-0.031 0.443,-0.443 0.761,-0.417 0.594,-0.29 1.41,-0.358 0.358,0.059 0.256,0.334 0.456,1.316 0.023,0.503 c 3.016,0.919 5.747,1.713 8.771,2.894 3.274,1.279 6.242,2.455 8.033,4.963" fill="#3a3a39" fill-rule="evenodd" transform="matrix(1.33333 0 0 -1.33333 53.97 75.48)"/></g><path style="mix-blend-mode:multiply" d="m 0,0 c 0.163,0.04 0.32,0.149 0.48,0.15 0.258,0.004 0.493,0.089 0.72,0.167 0.318,0.11 0.66,0.148 0.96,0.315 0.026,0.015 0.064,0.012 0.095,0.02 0.177,0.043 0.355,0.079 0.529,0.131 0.187,0.057 0.364,0.151 0.553,0.185 0.272,0.048 0.52,0.163 0.782,0.236 0.149,0.042 0.293,0.104 0.442,0.146 0.324,0.09 0.654,0.161 0.974,0.264 0.364,0.117 0.716,0.268 1.096,0.33 0.013,0.002 0.025,0.007 0.037,0.012 0.24,0.098 0.479,0.203 0.742,0.225 0.032,0.003 0.062,0.021 0.092,0.032 0.213,0.082 0.419,0.181 0.653,0.196 0.05,0.003 0.098,0.032 0.148,0.05 0.08,0.027 0.159,0.057 0.239,0.08 0.15,0.045 0.302,0.081 0.451,0.126 0.359,0.109 0.717,0.227 1.078,0.332 0.167,0.049 0.325,0.139 0.507,0.134 0,0 0.038,0.008 0.056,0.015 0.238,0.084 0.468,0.198 0.727,0.211 0.031,10e-4 0.062,0.02 0.093,0.031 0.202,0.064 0.404,0.132 0.609,0.19 0.206,0.059 0.415,0.107 0.622,0.162 0.094,0.024 0.188,0.049 0.28,0.077 0.097,0.031 0.192,0.067 0.286,0.099 0.134,-0.212 0.43,-1.056 0.431,-1.23 C 13.664,2.674 13.643,2.659 13.621,2.645 13.473,2.552 13.299,2.55 13.135,2.511 12.908,2.456 12.687,2.381 12.464,2.308 12.354,2.272 12.251,2.209 12.14,2.177 11.959,2.127 11.773,2.094 11.59,2.052 11.565,2.046 11.539,2.038 11.516,2.028 11.278,1.917 11.033,1.837 10.772,1.808 10.727,1.803 10.685,1.781 10.64,1.768 10.547,1.742 10.452,1.718 10.359,1.691 10.172,1.638 9.985,1.584 9.798,1.53 9.718,1.506 9.638,1.481 9.559,1.457 9.496,1.438 9.432,1.425 9.372,1.402 9.183,1.331 8.997,1.253 8.807,1.184 8.69,1.142 8.561,1.129 8.454,1.074 8.068,0.878 7.647,0.782 7.242,0.641 7.12,0.598 6.994,0.56 6.871,0.518 6.644,0.438 6.416,0.362 6.194,0.272 6.13,0.246 6.082,0.179 6.017,0.121 6.113,0.025 6.181,-0.046 6.306,-0.023 c 0.34,0.059 0.666,0.171 0.996,0.268 0.163,0.047 0.32,0.114 0.483,0.16 0.218,0.06 0.428,0.154 0.662,0.143 0.023,-0.001 0.048,0.018 0.073,0.027 0.374,0.135 0.747,0.276 1.149,0.308 0.039,0.003 0.079,0.006 0.116,0.02 0.255,0.094 0.501,0.221 0.782,0.233 0.024,0 0.048,0.019 0.073,0.026 0.074,0.023 0.148,0.044 0.222,0.064 0.076,0.02 0.152,0.037 0.227,0.057 0.089,0.023 0.176,0.046 0.264,0.07 0.049,0.014 0.098,0.03 0.147,0.046 0.061,0.02 0.122,0.043 0.182,0.062 0.075,0.024 0.149,0.046 0.224,0.067 0.081,0.022 0.162,0.051 0.244,0.064 0.251,0.042 0.503,0.077 0.754,0.12 0.05,0.008 0.096,0.039 0.144,0.059 0.042,0.017 0.085,0.036 0.129,0.047 0.258,0.061 0.516,0.118 0.797,0.182 0.051,-0.101 0.109,-0.203 0.155,-0.31 0.161,-0.378 0.308,-0.762 0.477,-1.135 0.277,-0.613 0.555,-1.225 0.857,-1.825 0.26,-0.519 0.546,-1.025 0.835,-1.529 0.159,-0.276 0.341,-0.537 0.541,-0.786 l -0.187,-0.56 C 13.787,-10.854 10.154,-17.215 5.982,-23.2 l -0.078,-0.025 -0.201,0.256 -0.369,1.39 -0.105,0.789 -1.331,4.86 -0.338,1.131 -0.29,1.156 0.142,0.391 1.7,2.42 0.362,0.508 0.323,0.238 0.699,0.189 1.916,1.031 1.022,1.068 0.437,0.783 0.449,1.622 0.162,1.029 -0.054,1.429 -0.156,0.46 -0.182,0.182 -0.531,0.06 L 9.547,-2.232 7.417,-2.789 6.931,-2.892 5.774,-3.839 5.446,-4.425 5.345,-4.945 5.262,-5.737 4.784,-7.017 4.78,-7.027 l 0.006,-1.15 0.272,-1.198 -0.117,-0.449 -0.654,-1.091 -1.031,-1.344 -0.129,-0.089 -0.114,0.013 -0.24,0.303 -0.342,0.836 -1.125,2.411 -0.392,0.783 -0.708,1.655 -0.874,1.774 -0.254,0.591 0.131,1.864 0.074,0.686 0.001,0.01 -0.214,1.168 c 0.08,0.017 0.161,0.032 0.239,0.047 C -0.452,-0.158 -0.233,-0.058 0,0 m 7.876,9.5 c 0.249,0.093 0.497,0.19 0.762,0.228 0.032,0.005 0.061,0.024 0.093,0.032 0.231,0.062 0.463,0.121 0.695,0.182 0.081,0.023 0.161,0.049 0.243,0.068 0.107,0.026 0.214,0.048 0.322,0.07 0.106,0.023 0.214,0.043 0.321,0.066 0.058,0.011 0.115,0.023 0.172,0.038 0.063,0.015 0.133,0.02 0.186,0.052 0.024,0.013 0.051,0.018 0.076,0.03 l 0.158,-0.267 0.449,-0.736 0.69,-0.964 C 12.049,8.274 12.054,8.249 12.059,8.224 12.122,7.953 12.194,7.682 12.262,7.412 12.293,7.287 12.327,7.16 12.357,7.034 12.371,6.976 12.385,6.919 12.398,6.862 L 12.227,6.901 9.737,7.653 8.12,9.277 7.794,9.48 C 7.821,9.488 7.849,9.49 7.876,9.5 m 3.78,0.856 c 0,-0.01 0.002,-0.02 0.004,-0.031 l -0.087,0.157 c 0.041,-0.013 0.068,-0.046 0.083,-0.126 m -8.419,2.467 -1.043,0.123 -0.869,0.296 c -1.053,0.421 -1.7,1.243 -0.932,2.295 L 0.907,15.864 1.716,15.917 2.88,15.627 4.44,14.564 5.347,13.7 5.45,13.522 5.475,13.34 5.407,13.2 4.97,13.067 3.765,12.798 Z M 0.374,27.08 0.956,26.83 1.85,25.984 3.123,23.746 3.582,21.853 3.669,21.355 3.638,21.245 3.529,21.216 c -1.578,0.499 -4.919,3.937 -3.924,5.575 l 0.342,0.215 z M 3.127,8.186 c 0.215,0.075 0.43,0.148 0.646,0.218 0.055,0.018 0.116,0.031 0.173,0.026 0.256,-0.021 0.49,0.075 0.717,0.159 0.323,0.121 0.665,0.174 0.986,0.3 0.102,0.04 0.205,0.08 0.311,0.107 0.225,0.056 0.455,0.095 0.679,0.157 0.092,0.027 0.183,0.061 0.273,0.093 L 7.888,8.58 8.52,7.753 8.688,7.416 8.641,7.307 8.029,7.06 6.87,6.762 5.121,6.745 4.416,6.908 3.013,7.558 2.706,7.809 2.62,8.007 C 2.789,8.065 2.957,8.128 3.127,8.186 M 2.598,8.615 2.601,8.634 3.121,9.259 3.703,9.529 4.838,9.83 5.828,9.638 C 5.701,9.599 5.573,9.561 5.446,9.521 5.402,9.508 5.361,9.482 5.317,9.479 5.065,9.46 4.836,9.369 4.608,9.273 4.567,9.255 4.52,9.25 4.476,9.239 4.382,9.215 4.285,9.199 4.195,9.166 4.013,9.098 3.836,9.016 3.655,8.946 3.497,8.885 3.337,8.827 3.176,8.778 2.99,8.721 2.798,8.683 2.614,8.621 2.608,8.619 2.604,8.618 2.598,8.615 m 9.307,9.117 c 0.018,0.067 0.083,0.138 0.146,0.17 0.19,0.099 0.388,0.185 0.587,0.267 0.174,0.073 0.352,0.135 0.529,0.199 0.294,0.106 0.586,0.212 0.881,0.313 0.202,0.07 0.407,0.133 0.611,0.196 0.049,0.015 0.103,0.018 0.154,0.025 0.045,0.006 0.1,-0.005 0.135,0.016 0.18,0.113 0.39,0.091 0.581,0.145 0.219,0.062 0.437,0.071 0.658,0.085 0.168,0.011 0.183,-0.006 0.179,-0.165 -0.003,-0.176 0,-0.353 0,-0.53 0,0 -0.016,-10e-4 -0.025,-10e-4 0.029,-0.28 0.055,-0.558 0.084,-0.838 0.002,-0.025 0.018,-0.052 0.013,-0.076 -0.034,-0.212 0.038,-0.411 0.061,-0.617 0.041,-0.391 0.125,-0.771 0.212,-1.153 0.068,-0.304 0.088,-0.618 0.129,-0.928 0.007,-0.052 -0.003,-0.108 0.012,-0.156 0.08,-0.25 0.106,-0.51 0.152,-0.766 0.038,-0.206 0.038,-0.413 0.077,-0.614 0.055,-0.287 0.135,-0.569 0.163,-0.861 0.011,-0.122 0.047,-0.241 0.069,-0.362 0.007,-0.038 0.004,-0.079 0.013,-0.117 0.105,-0.445 0.213,-0.888 0.318,-1.333 0.016,-0.07 0.019,-0.143 0.034,-0.212 0.015,-0.069 0.034,-0.138 0.053,-0.206 0.017,-0.062 0.038,-0.123 0.053,-0.185 C 17.79,10.003 17.783,9.974 17.79,9.949 17.854,9.747 17.928,9.547 17.985,9.343 18.031,9.18 18.056,9.013 18.093,8.847 18.117,8.739 18.144,8.631 18.169,8.523 18.2,8.398 18.228,8.272 18.261,8.146 18.274,8.096 18.298,8.049 18.313,8 18.341,7.907 18.365,7.813 18.391,7.719 18.43,7.576 18.467,7.432 18.509,7.29 18.574,7.058 18.652,6.828 18.706,6.594 18.74,6.449 18.763,6.305 18.837,6.168 18.884,6.083 18.833,5.985 18.731,5.979 18.488,5.966 18.276,5.81 18.026,5.835 17.988,5.838 17.947,5.832 17.91,5.821 17.693,5.757 17.479,5.681 17.261,5.626 17.007,5.564 16.75,5.52 16.495,5.467 16.419,5.451 16.345,5.429 16.271,5.409 16.227,5.397 16.184,5.372 16.141,5.371 16.007,5.368 15.882,5.338 15.767,5.27 15.75,5.26 15.731,5.252 15.712,5.247 15.51,5.205 15.307,5.163 15.105,5.118 15.035,5.103 14.969,5.076 14.9,5.057 14.831,5.036 14.762,5.016 14.694,4.998 14.606,4.976 14.519,4.955 14.432,4.932 14.388,4.921 14.345,4.899 14.3,4.896 14.083,4.88 14.03,4.854 14.003,5.124 13.984,5.321 13.897,5.511 13.839,5.704 13.824,5.754 13.792,5.8 13.787,5.85 13.758,6.105 13.674,6.343 13.583,6.581 13.52,6.743 13.484,6.916 13.447,7.087 13.393,7.342 13.389,7.614 13.294,7.851 13.196,8.089 13.265,8.364 13.096,8.577 13.092,8.581 13.089,8.589 13.09,8.595 c 0.022,0.266 -0.092,0.508 -0.131,0.763 -0.03,0.19 -0.105,0.374 -0.161,0.561 -0.021,0.072 -0.046,0.145 -0.065,0.219 -0.031,0.132 -0.048,0.269 -0.092,0.397 -0.067,0.194 -0.057,0.215 0.138,0.261 0.171,0.041 0.337,0.098 0.507,0.145 0.106,0.03 0.213,0.055 0.319,0.083 0.044,0.011 0.087,0.024 0.129,0.04 0.023,0.01 0.042,0.035 0.066,0.041 0.22,0.052 0.441,0.1 0.662,0.151 0.088,0.021 0.175,0.043 0.263,0.065 0.051,0.012 0.101,0.023 0.151,0.036 0.107,0.027 0.213,0.054 0.318,0.084 0.176,0.048 0.349,0.103 0.526,0.147 0.266,0.066 0.5,0.184 0.694,0.381 0.107,0.108 0.11,0.162 -0.021,0.243 -0.076,0.046 -0.164,0.073 -0.251,0.096 -0.087,0.024 -0.18,0.032 -0.269,0.052 -0.125,0.027 -0.246,0.035 -0.364,-0.024 -0.024,-0.011 -0.05,-0.02 -0.076,-0.023 -0.294,-0.028 -0.566,-0.139 -0.847,-0.218 -0.206,-0.058 -0.419,-0.086 -0.629,-0.127 -0.058,-0.012 -0.117,-0.018 -0.173,-0.036 -0.179,-0.06 -0.352,-0.145 -0.535,-0.178 -0.187,-0.035 -0.365,-0.086 -0.545,-0.145 -0.165,-0.054 -0.186,-0.019 -0.244,0.15 -0.072,0.208 -0.093,0.418 -0.109,0.634 -0.018,0.253 -0.054,0.506 -0.103,0.755 -0.034,0.173 -0.107,0.336 -0.151,0.507 -0.032,0.126 -0.065,0.257 -0.065,0.385 0,0.342 -0.049,0.677 -0.106,1.013 -0.077,0.463 -0.159,0.925 -0.13,1.399 0.012,0.202 0.013,0.406 -10e-4,0.608 -0.016,0.234 0.049,0.453 0.11,0.672 m 1.928,1.794 c -0.081,-0.025 -0.163,-0.05 -0.244,-0.074 l -0.59,0.43 c -3.278,2.645 -0.176,4.097 2.438,0.692 l 0.324,-0.548 c -0.033,-0.01 -0.066,-0.014 -0.1,-0.028 -0.029,-0.012 -0.065,-0.006 -0.096,-0.014 -0.134,-0.027 -0.268,-0.055 -0.401,-0.086 -0.064,-0.014 -0.126,-0.035 -0.19,-0.05 -0.195,-0.048 -0.392,-0.089 -0.585,-0.144 -0.188,-0.052 -0.37,-0.12 -0.556,-0.178 m 4.197,-1.317 c 0.32,0.108 0.638,0.228 0.958,0.339 0.203,0.071 0.273,0.025 0.302,-0.191 0.001,-0.006 0.004,-0.013 0.003,-0.019 -0.086,-0.308 0.073,-0.603 0.052,-0.91 -0.009,-0.146 0.04,-0.296 0.063,-0.444 0.009,-0.057 0.018,-0.115 0.027,-0.173 0.024,-0.147 0.048,-0.294 0.072,-0.442 0.009,-0.052 0.039,-0.106 0.029,-0.153 -0.053,-0.232 0.047,-0.453 0.038,-0.681 -0.002,-0.076 0.026,-0.154 0.04,-0.231 0.019,-0.102 0.039,-0.204 0.058,-0.306 0.011,-0.058 0.006,-0.123 0.033,-0.172 0.093,-0.167 0.11,-0.345 0.112,-0.531 0,-0.064 0.024,-0.127 0.037,-0.191 0.019,-0.096 0.038,-0.191 0.055,-0.287 0.004,-0.019 -0.002,-0.041 0.006,-0.058 0.093,-0.225 0.118,-0.466 0.169,-0.701 0.021,-0.095 0.04,-0.19 0.059,-0.285 0.005,-0.032 -0.004,-0.07 0.009,-0.097 0.114,-0.227 0.111,-0.482 0.182,-0.717 0.021,-0.069 0.029,-0.14 0.044,-0.211 0.023,-0.1 0.046,-0.202 0.071,-0.302 0.017,-0.07 0.039,-0.137 0.056,-0.207 0.029,-0.12 0.055,-0.24 0.082,-0.361 0.01,-0.05 0.015,-0.103 0.027,-0.153 0.023,-0.093 0.049,-0.187 0.076,-0.279 0.007,-0.025 0.03,-0.045 0.034,-0.071 0.044,-0.202 0.086,-0.406 0.126,-0.609 0.01,-0.051 0.008,-0.105 0.024,-0.154 0.061,-0.193 0.128,-0.383 0.187,-0.577 0.018,-0.054 0.014,-0.116 0.026,-0.173 0.015,-0.069 0.035,-0.138 0.054,-0.206 0.027,-0.1 0.055,-0.2 0.082,-0.299 0.041,-0.151 0.079,-0.301 0.125,-0.45 0.053,-0.175 0.115,-0.347 0.17,-0.521 0.017,-0.056 0.025,-0.114 0.038,-0.171 0.017,-0.07 0.032,-0.14 0.051,-0.208 C 21.634,6.914 21.66,6.821 21.691,6.729 21.712,6.668 21.744,6.611 21.768,6.551 21.806,6.462 21.782,6.413 21.683,6.401 21.547,6.385 21.41,6.378 21.274,6.367 21.273,6.37 21.273,6.373 21.273,6.377 21.039,6.359 20.805,6.343 20.572,6.322 20.42,6.309 20.416,6.313 20.376,6.463 20.341,6.594 20.295,6.722 20.25,6.85 20.146,7.138 20.037,7.424 19.937,7.713 19.89,7.847 19.86,7.987 19.817,8.121 19.798,8.177 19.763,8.226 19.734,8.277 19.722,8.3 19.696,8.322 19.696,8.345 c 0,0.197 -0.08,0.376 -0.129,0.562 -0.031,0.119 -0.047,0.242 -0.069,0.364 -0.022,0.114 -0.042,0.229 -0.062,0.345 -0.013,0.076 -0.021,0.155 -0.037,0.231 -0.019,0.088 -0.043,0.176 -0.065,0.263 -0.016,0.063 -0.022,0.131 -0.05,0.189 -0.065,0.134 -0.065,0.276 -0.088,0.418 -0.042,0.268 -0.115,0.531 -0.176,0.795 -0.01,0.038 -0.036,0.072 -0.042,0.11 -0.041,0.243 -0.078,0.487 -0.116,0.731 -0.002,0.012 0.002,0.027 -0.003,0.039 -0.12,0.285 -0.104,0.6 -0.202,0.89 -0.019,0.055 -0.025,0.115 -0.034,0.172 -0.008,0.052 -0.003,0.108 -0.019,0.156 -0.072,0.211 -0.078,0.439 -0.136,0.648 -0.083,0.302 -0.036,0.629 -0.193,0.914 0.01,0.29 -0.091,0.565 -0.115,0.851 -0.014,0.163 -0.009,0.324 -0.105,0.472 -0.032,0.049 -0.029,0.125 -0.034,0.189 -0.032,0.45 -0.06,0.9 -0.096,1.35 -0.007,0.092 0.007,0.143 0.105,0.175 m 2.009,1.938 c -0.002,0.109 0.025,0.199 0.109,0.26 0.138,0.097 0.276,0.203 0.428,0.271 0.356,0.162 0.713,0.326 1.084,0.444 0.307,0.098 0.584,0.273 0.888,0.349 0.281,0.069 0.531,0.208 0.807,0.286 0.274,0.078 0.545,0.168 0.826,0.226 0.188,0.039 0.368,0.121 0.553,0.181 0.055,0.018 0.113,0.025 0.169,0.04 0.063,0.017 0.125,0.036 0.186,0.055 0.079,0.026 0.159,0.053 0.238,0.077 0.142,0.045 0.293,0.069 0.425,0.135 0.216,0.109 0.435,0.199 0.672,0.257 0.213,0.051 0.421,0.126 0.63,0.191 0.18,0.057 0.358,0.12 0.538,0.175 0.218,0.068 0.436,0.129 0.654,0.195 0.175,0.053 0.347,0.112 0.521,0.165 0.186,0.057 0.373,0.112 0.561,0.167 0.031,0.01 0.063,0.015 0.094,0.025 0.358,0.115 0.717,0.231 1.075,0.349 0.19,0.062 0.378,0.138 0.57,0.195 0.185,0.055 0.375,0.095 0.563,0.144 0.05,0.012 0.098,0.033 0.147,0.049 0.08,0.026 0.16,0.05 0.239,0.076 0.185,0.057 0.369,0.116 0.555,0.171 0.08,0.025 0.161,0.044 0.243,0.064 0.011,0.004 0.026,-0.002 0.038,0.001 0.206,0.052 0.412,0.105 0.617,0.16 0.031,0.008 0.058,0.034 0.089,0.04 0.263,0.046 0.526,0.09 0.79,0.134 0.108,0.018 0.219,0.033 0.328,0.052 0.146,0.027 0.292,0.058 0.439,0.088 0.312,0.064 0.625,0.131 0.938,0.193 0.102,0.02 0.204,0.034 0.308,0.043 0.338,0.029 0.678,0.054 1.015,0.08 0.04,0.003 0.08,0.009 0.118,0.009 0.498,0.003 0.996,0.018 1.493,0.003 0.28,-0.009 0.561,-0.052 0.835,-0.107 0.222,-0.044 0.434,-0.133 0.652,-0.195 0.213,-0.06 0.43,-0.103 0.641,-0.167 0.273,-0.083 0.544,-0.177 0.813,-0.273 0.263,-0.095 0.524,-0.196 0.784,-0.3 0.212,-0.086 0.423,-0.172 0.629,-0.271 0.446,-0.215 0.896,-0.427 1.332,-0.663 0.424,-0.23 0.841,-0.477 1.249,-0.736 0.347,-0.22 0.677,-0.467 1.015,-0.703 0.043,-0.03 0.085,-0.061 0.125,-0.095 0.277,-0.24 0.561,-0.473 0.826,-0.725 0.217,-0.209 0.413,-0.438 0.612,-0.663 0.204,-0.229 0.41,-0.459 0.601,-0.699 0.186,-0.235 0.367,-0.477 0.528,-0.728 0.237,-0.367 0.448,-0.75 0.592,-1.165 0.063,-0.185 0.14,-0.363 0.207,-0.547 0.02,-0.054 0.023,-0.115 0.032,-0.172 0.005,-0.039 -0.005,-0.085 0.012,-0.117 0.141,-0.255 0.066,-0.524 0.054,-0.787 C 50.513,16.083 50.504,15.78 50.453,15.485 50.382,15.066 50.337,14.644 50.281,14.224 50.233,13.868 50.16,13.515 50.081,13.165 50.035,12.964 49.96,12.77 49.891,12.575 49.807,12.342 49.717,12.112 49.625,11.883 49.436,11.411 49.256,10.935 48.977,10.505 48.848,10.308 48.746,10.095 48.632,9.889 48.444,9.551 48.207,9.249 47.951,8.959 47.609,8.572 47.301,8.155 46.957,7.769 46.604,7.375 46.242,6.986 45.852,6.627 45.348,6.161 44.818,5.722 44.289,5.285 43.971,5.022 43.64,4.776 43.305,4.536 43.158,4.431 42.984,4.363 42.823,4.277 42.575,4.145 42.331,4.007 42.079,3.882 41.8,3.743 41.514,3.615 41.232,3.482 41.036,3.391 40.845,3.292 40.646,3.21 40.462,3.133 40.27,3.075 40.083,3.004 39.955,2.956 39.83,2.903 39.705,2.846 39.328,2.673 38.944,2.516 38.547,2.39 38.207,2.281 37.864,2.173 37.535,2.035 37.298,1.937 37.049,1.896 36.811,1.814 36.621,1.747 36.43,1.686 36.238,1.626 36.039,1.565 35.839,1.512 35.641,1.45 35.467,1.395 35.297,1.327 35.123,1.276 34.93,1.219 34.733,1.172 34.539,1.122 34.494,1.111 34.448,1.105 34.405,1.092 34.156,1.018 33.907,0.942 33.66,0.864 33.325,0.758 32.993,0.646 32.658,0.544 32.479,0.489 32.294,0.453 32.114,0.404 31.951,0.359 31.788,0.312 31.627,0.26 31.43,0.196 31.236,0.125 31.039,0.062 30.996,0.047 30.948,0.049 30.902,0.044 30.864,0.04 30.823,0.045 30.786,0.033 30.601,-0.025 30.419,-0.094 30.233,-0.149 30.057,-0.201 29.878,-0.24 29.701,-0.284 29.67,-0.292 29.636,-0.293 29.605,-0.304 29.431,-0.369 29.259,-0.445 29.081,-0.5 28.882,-0.562 28.68,-0.614 28.475,-0.655 c -0.241,-0.049 -0.485,-0.08 -0.728,-0.121 -0.051,-0.01 -0.1,-0.032 -0.148,-0.051 -0.031,-0.012 -0.058,-0.036 -0.089,-0.042 -0.242,-0.045 -0.484,-0.09 -0.727,-0.129 -0.083,-0.013 -0.17,-0.011 -0.255,-0.015 -0.266,-0.011 -0.491,0.067 -0.695,0.254 -0.199,0.182 -0.317,0.416 -0.465,0.628 -0.151,0.22 -0.274,0.46 -0.4,0.696 -0.153,0.287 -0.304,0.577 -0.443,0.872 -0.173,0.37 -0.334,0.746 -0.497,1.121 -0.108,0.251 -0.217,0.501 -0.312,0.756 -0.059,0.158 -0.092,0.325 -0.137,0.488 -0.008,0.031 -0.015,0.064 -0.025,0.095 -0.12,0.341 -0.239,0.685 -0.362,1.026 -0.057,0.159 -0.129,0.313 -0.184,0.473 -0.092,0.271 -0.176,0.544 -0.264,0.816 -0.064,0.198 -0.129,0.396 -0.192,0.594 -0.049,0.155 -0.096,0.31 -0.141,0.466 -0.052,0.189 -0.096,0.38 -0.152,0.568 -0.061,0.205 -0.132,0.406 -0.198,0.609 -0.004,0.013 -0.012,0.025 -0.014,0.037 -0.045,0.195 -0.084,0.393 -0.135,0.587 -0.055,0.213 -0.123,0.423 -0.184,0.636 -0.015,0.05 -0.022,0.1 -0.034,0.151 -0.026,0.114 -0.054,0.228 -0.081,0.342 -0.019,0.082 -0.037,0.165 -0.055,0.247 -0.009,0.044 -0.012,0.09 -0.024,0.134 -0.029,0.106 -0.064,0.21 -0.092,0.315 -0.066,0.259 -0.13,0.518 -0.193,0.777 -0.011,0.044 -0.018,0.089 -0.025,0.134 -0.004,0.039 0,0.08 -0.009,0.117 -0.063,0.258 -0.129,0.515 -0.193,0.773 -0.016,0.064 -0.026,0.128 -0.041,0.191 -0.028,0.12 -0.058,0.24 -0.087,0.359 -0.005,0.019 -0.018,0.037 -0.021,0.055 -0.039,0.251 -0.077,0.501 -0.115,0.751 -0.004,0.026 0.005,0.055 -0.004,0.078 -0.105,0.288 -0.12,0.597 -0.202,0.891 -0.01,0.037 -0.033,0.075 -0.032,0.112 0.01,0.214 -0.056,0.412 -0.124,0.611 -0.019,0.054 -0.01,0.117 -0.018,0.175 -0.015,0.109 -0.033,0.218 -0.049,0.327 -0.016,0.11 -0.029,0.22 -0.047,0.329 -0.022,0.141 -0.048,0.281 -0.072,0.421 -0.022,0.129 -0.051,0.256 -0.064,0.385 -0.022,0.215 -0.037,0.43 -0.05,0.645 -0.024,0.404 -0.044,0.81 -0.064,1.215 0,0 0.006,0 0.009,0.001 0,0.3 0.005,0.602 -0.002,0.902 m -4.514,8.655 -0.077,-0.174 -0.176,-0.082 -0.535,0.037 -0.959,0.218 -1.53,0.809 -1.048,0.708 -0.767,0.969 -0.112,0.454 0.061,0.803 c 0.886,1.26 2.844,-0.287 3.551,-0.959 l 1.125,-1.514 0.411,-0.761 z m 0.28,7.499 -0.059,-0.154 -0.174,-0.081 c -1.734,-0.164 -3.882,1.817 -4.606,3.265 l -0.05,0.498 0.135,0.438 0.25,0.306 0.363,0.197 h 0.452 l 0.886,-0.284 0.503,-0.349 0.988,-1.054 0.94,-1.702 0.34,-0.855 z m 1.043,9.438 -0.053,-0.138 -0.091,-0.018 -1.102,0.644 c -1.511,0.772 -2.992,2.249 -2.913,4.059 l 0.347,0.804 0.289,0.254 c 2.202,0.664 2.603,-2.176 3.19,-3.581 l 0.12,-0.774 0.198,-0.686 z m 6.587,-4.275 0.061,0.818 0.338,1.421 0.516,0.932 0.742,0.713 0.376,0.151 0.427,-0.074 0.338,-0.22 0.278,-0.568 c 0.431,-1.758 -1.186,-3.335 -2.746,-3.796 l -0.139,0.024 -0.097,0.113 z m 1.511,-9.032 0.353,1.102 0.609,1.146 1.475,1.437 0.433,0.129 0.817,-0.038 0.175,-0.09 0.097,-0.151 -0.023,-0.464 -0.571,-0.88 -1.043,-1.005 -0.874,-0.599 -0.882,-0.589 -0.426,-0.135 -0.107,0.027 z m 1.751,-6.485 0.27,0.609 0.769,1.275 c 1.009,0.459 1.182,1.378 2.563,1.221 l 0.137,-0.111 0.091,-0.186 c 0.248,-1.499 -2.371,-3.058 -3.546,-3.402 l -0.169,-0.005 -0.101,0.101 z m 18.533,-1.775 -0.159,0.343 -0.267,0.606 -0.241,0.875 0.129,0.359 0.28,0.243 0.704,-0.037 0.543,-0.287 0.397,-0.455 0.317,-0.841 0.118,-1.339 -0.095,-0.519 c -0.296,0.204 -0.599,0.397 -0.907,0.583 -0.268,0.164 -0.542,0.321 -0.819,0.469 m 6.207,3.437 0.032,2.319 0.214,0.955 0.338,0.836 0.179,0.392 0.508,0.652 0.365,0.199 0.498,0.052 0.397,-0.169 0.461,-0.68 c 0.845,-1.858 -1.186,-4.833 -2.54,-5.905 l -0.103,0.012 -0.194,0.332 z m 2.292,-6.844 -0.23,0.023 -0.164,0.08 -0.044,0.083 0.898,1.045 0.651,0.525 0.493,0.378 0.919,0.479 0.348,-0.118 0.119,-0.146 0.065,-0.502 -0.097,-0.482 -0.368,-0.481 -1.076,-0.661 -0.482,-0.091 z m 2.079,-4.957 0.564,-0.299 0.218,-0.345 0.007,-0.186 -0.199,-0.333 -0.836,-0.615 -1.121,-0.323 -1.21,-0.083 -1.129,0.414 0.165,0.307 1.003,0.744 0.956,0.501 1.149,0.32 z M 51.815,9.442 52.295,9.339 53.006,8.905 53.218,8.561 53.196,8.086 52.92,7.505 51.996,6.993 51.076,6.762 50.223,6.76 l -0.732,0.147 -0.929,0.258 -0.138,0.088 -0.018,0.092 0.393,0.44 1.521,1.114 0.985,0.478 z m -4.146,-42.554 0.06,0.116 0.531,0.334 1.653,0.39 1.726,-0.025 1.483,-0.546 0.26,-0.293 0.126,-0.436 -0.06,-0.436 -0.519,-0.624 -0.582,-0.268 -0.815,-0.054 -0.956,0.207 -1.72,0.626 -1.025,0.732 -0.128,0.147 z m -3.853,-3.516 0.053,0.128 0.163,0.082 1.44,0.015 1.308,-0.436 0.79,-0.388 0.37,-0.192 0.184,-0.367 0.1,-0.484 -0.009,-0.239 -0.077,-0.183 -0.338,-0.22 -0.709,-0.158 -0.451,0.085 -0.881,0.296 -0.856,0.586 -0.697,0.762 -0.353,0.542 z m -6.61,-2.723 0.018,0.091 0.153,0.066 0.819,-0.056 c 1.109,-0.252 3.348,-0.843 3.673,-2.13 l 0.025,-0.838 -0.051,-0.234 -0.104,-0.157 -0.16,-0.103 -0.513,-0.067 -0.518,0.071 -0.567,0.292 -0.679,0.484 -1.308,1.325 z m -9.629,-8.08 -0.015,-0.072 h -0.333 l -1.125,0.361 -0.811,0.357 -1.237,1.09 -0.376,0.488 -0.443,1.016 -0.224,0.939 -0.011,0.877 0.063,0.156 0.105,0.03 0.351,-0.199 0.982,-1.079 1.284,-1.361 1.201,-1.434 z m 0.418,1.09 -0.043,-0.002 -0.732,1.02 -0.842,0.92 -0.921,1.148 -0.703,0.766 -0.31,0.431 0.761,-0.296 1.001,-0.733 1.105,-1.241 0.678,-1.369 0.052,-0.515 z m -13.585,2.668 0.018,0.017 0.846,-0.232 0.607,-0.259 1.012,-0.738 0.842,-0.908 0.63,-1.126 0.231,-0.937 -0.039,-0.195 -0.079,-0.078 -0.091,0.024 -0.816,0.937 -1.473,1.779 -1.643,1.622 z m 2.554,-3.787 0.378,-0.498 0.28,-0.51 -0.023,-0.058 -0.312,-0.038 c -2.309,0.3 -4.375,2.332 -4.225,4.76 l 0.027,0.093 0.076,0.02 0.338,-0.167 1.323,-1.338 0.466,-0.406 0.972,-1.092 z m -13.283,-0.759 -0.991,0.765 -1.152,1.192 v 0.02 l 1.143,-0.08 c 2.39,-0.597 3.375,-2.014 3.787,-4.383 l -0.022,-0.091 -0.063,-0.01 -0.938,0.813 -0.476,0.398 -0.578,0.598 z m 1.707,-2.852 -0.002,-0.049 -0.103,-0.03 c -1.9,0.514 -3.956,1.744 -4.327,3.838 l 0.027,0.1 0.1,0.029 0.375,-0.184 1.108,-0.951 0.768,-0.701 z m -11.517,22.632 -1.507,2.33 -0.214,0.355 0.01,0.07 0.086,0.019 1.196,-0.551 0.303,-0.255 0.997,-1.348 0.324,-0.854 0.286,-0.584 0.418,-1.368 -0.054,-0.391 -0.035,-0.002 -0.747,0.983 -0.421,0.753 -0.192,0.398 z m -2.843,2.741 0.591,-0.544 0.764,-0.997 2.409,-3.773 0.507,-0.944 -0.041,-0.126 -0.159,-0.07 -0.727,0.141 -0.631,0.242 -0.93,0.529 c -1.897,1.256 -2.301,3.04 -2.059,5.199 l 0.063,0.214 0.102,0.119 z m 5.432,6.066 -0.82,0.634 -0.539,0.647 -1.04,1.04 -0.031,0.116 0.076,0.077 0.187,0.008 1.134,-0.365 0.665,-0.2 1.282,-0.767 0.677,-0.772 0.577,-1.165 0.252,-0.949 -0.008,-0.269 -0.082,-0.176 -0.125,-0.041 -0.337,0.207 -0.575,0.604 -0.872,0.891 z m 0.446,-1.326 0.403,-0.483 0.687,-0.783 0.218,-0.343 -0.018,-0.091 -0.153,-0.065 c -3.122,0.011 -4.086,2.068 -4.868,4.764 l 0.019,0.088 0.088,0.021 0.393,-0.17 1.484,-1.153 0.858,-0.907 0.415,-0.483 z m 1.444,10.69 -0.091,-0.022 c -1.745,0.725 -4.019,1.689 -5.597,2.646 l -0.081,0.103 0.02,0.064 0.664,0.175 1.191,-0.101 1.209,-0.248 0.516,-0.369 0.294,-0.167 0.359,-0.054 1.093,-1.222 0.44,-0.725 z m 0.545,-1.249 -0.009,-0.025 -0.412,-0.116 c -2.771,-0.314 -5.18,0.351 -6.477,3.134 l 0.015,0.083 0.135,0.049 0.512,-0.057 2.64,-1.182 2.141,-1.101 z m -4.378,14.115 0.103,-0.043 0.581,-1.173 0.425,-1.055 0.679,-1.389 0.865,-1.515 0.048,-0.195 -0.049,-0.138 -0.146,-0.06 -0.436,0.124 -0.68,0.477 -0.854,0.901 -0.474,0.687 -0.347,0.822 -0.256,0.92 0.108,0.734 0.214,0.664 0.11,0.174 z m 2.831,-3.376 c 0.091,0.014 0.184,0.023 0.269,0.053 0.234,0.082 0.458,0.186 0.709,0.221 0,0 0.015,0.006 0.022,0.008 l 0.228,-1.209 -0.144,-0.749 -0.091,-0.161 -0.105,-0.032 -0.278,0.251 -0.461,0.712 -1.071,1.865 -0.965,2.3 -0.022,0.228 0.044,0.133 0.099,0.026 0.597,-0.26 0.828,-0.633 0.88,-1.161 0.319,-0.551 0.055,-0.295 c -0.223,-0.111 -0.455,-0.195 -0.686,-0.281 -0.121,-0.045 -0.228,-0.128 -0.335,-0.201 -0.061,-0.043 -0.101,-0.109 -0.073,-0.189 0.032,-0.086 0.108,-0.085 0.181,-0.075 m 26.947,0.522 c -0.208,-0.071 -0.421,-0.125 -0.632,-0.186 -0.116,0.004 -0.172,0.052 -0.226,0.158 -0.151,0.297 -0.334,0.577 -0.487,0.872 -0.201,0.388 -0.383,0.784 -0.577,1.176 -0.097,0.198 -0.205,0.393 -0.299,0.593 -0.13,0.278 -0.254,0.558 -0.374,0.84 -0.197,0.468 -0.389,0.939 -0.583,1.408 -0.139,0.336 -0.281,0.671 -0.421,1.006 -0.059,0.142 -0.044,0.163 0.102,0.202 0.1,0.028 0.198,0.065 0.293,0.105 0.193,0.082 0.381,0.171 0.574,0.253 0.155,0.065 0.204,0.031 0.251,-0.129 0.06,-0.205 0.135,-0.405 0.203,-0.609 0.092,-0.277 0.183,-0.555 0.276,-0.833 0.041,-0.123 0.081,-0.246 0.126,-0.368 0.199,-0.536 0.402,-1.071 0.651,-1.587 0.174,-0.364 0.329,-0.737 0.479,-1.111 0.104,-0.258 0.174,-0.53 0.28,-0.787 0.079,-0.192 0.189,-0.373 0.288,-0.557 0.043,-0.08 0.095,-0.157 0.138,-0.237 0.05,-0.091 0.034,-0.177 -0.062,-0.209 m 3.187,-1.608 c 0.23,0.007 0.428,0.102 0.64,0.158 l 0.831,-0.344 0.275,-0.277 0.64,-1.995 0.676,-1.972 0.683,-2.557 0.756,-3.002 -0.197,-0.32 -0.434,-0.46 c -1.389,-1.65 -2.912,-3.157 -4.528,-4.587 l -1.167,-0.873 -0.075,0.016 -0.084,0.443 -0.291,2.072 -0.05,0.847 -0.379,1.39 -0.508,2.121 0.032,0.366 0.213,0.977 0.108,0.777 c 0.367,1.723 -0.085,3.671 -1.226,5.02 l -0.706,0.507 -0.293,0.161 c 0.016,0.004 0.031,0.012 0.047,0.015 0.213,0.042 0.39,0.134 0.573,0.235 0.186,0.103 0.344,0.266 0.576,0.277 0.017,0 0.035,0.016 0.051,0.027 0.175,0.111 0.316,0.256 0.408,0.442 0.162,0.324 0.288,0.659 0.233,1.033 -0.003,0.026 0,0.053 -0.002,0.079 -0.013,0.091 0.026,0.148 0.113,0.18 0.049,0.018 0.092,0.048 0.141,0.069 0.272,0.116 0.366,0.091 0.548,-0.142 0.028,-0.035 0.058,-0.071 0.082,-0.11 0.114,-0.19 0.282,-0.32 0.465,-0.442 0.127,-0.086 0.275,-0.078 0.407,-0.131 0.282,-0.115 0.576,-0.093 0.868,-0.095 0.197,-10e-4 0.388,0.089 0.574,0.095 m 8.847,2.492 0.374,-1.054 0.528,-2.43 0.41,-1.063 0.071,-0.446 -0.135,-0.35 -0.631,-0.851 -0.457,-0.713 -0.782,-0.998 -0.322,-0.545 -0.556,-0.626 -1.999,-2.432 -0.144,-0.139 -0.122,-0.026 -0.114,0.089 -0.475,1.583 -0.335,1.439 -0.403,1.364 -0.236,0.944 -0.339,1.137 -0.68,1.964 0.022,0.411 0.212,0.697 0.002,0.01 -0.006,0.227 c 0.053,0.015 0.107,0.029 0.161,0.045 0.074,0.022 0.148,0.045 0.222,0.067 0.068,0.02 0.135,0.042 0.204,0.061 0.043,0.011 0.1,0.004 0.131,0.03 0.09,0.071 0.189,0.079 0.296,0.08 0.038,0 0.085,0.005 0.113,0.027 0.184,0.144 0.424,0.101 0.627,0.194 0.18,0.084 0.386,0.112 0.58,0.166 0.131,0.036 0.261,0.073 0.391,0.112 0.242,0.071 0.484,0.143 0.727,0.216 0.174,0.051 0.349,0.103 0.523,0.157 0.137,0.042 0.273,0.085 0.409,0.128 0.186,0.058 0.372,0.118 0.558,0.172 0.212,0.062 0.427,0.117 0.639,0.178 0.113,0.032 0.223,0.072 0.334,0.109 0.067,0.022 0.134,0.044 0.202,0.066 M 41.618,1.537 41.444,1.132 40.663,0.142 40.161,-0.817 39.78,-1.33 39.356,-2.075 38.84,-2.738 38.586,-3.085 38.445,-3.181 38.324,-3.193 38.219,-3.112 37.996,-2.463 37.145,0.519 37.042,0.85 c 0.085,0.024 0.171,0.049 0.256,0.075 0.198,0.061 0.394,0.129 0.592,0.192 0.266,0.087 0.535,0.167 0.799,0.259 0.276,0.097 0.546,0.208 0.82,0.31 0.135,0.049 0.272,0.09 0.408,0.139 0.164,0.06 0.33,0.12 0.489,0.191 0.215,0.094 0.421,0.208 0.637,0.299 0.215,0.092 0.44,0.159 0.654,0.253 0.194,0.085 0.382,0.183 0.57,0.281 z m 4.454,0.67 0.268,0.207 1.816,1.13 1.26,0.497 0.786,0.097 L 50.65,4.022 50.919,3.745 51.15,3.118 51.091,2.681 50.596,2.027 50.242,1.821 49.309,1.604 47.588,1.624 46.226,2.031 46.095,2.129 Z m -1.021,-5.877 0.457,0.092 1.004,-0.114 1.184,0.008 0.225,-0.055 0.069,-0.07 -0.132,-0.259 c -1.272,-1.65 -4.134,-1.742 -5.339,-0.014 l -0.018,0.135 0.09,0.082 1.27,0.184 z m 2.5,0.9 -0.142,-0.05 c -1.331,0.322 -2.993,-0.042 -4.223,0.163 l -0.044,0.043 0.15,0.246 0.268,0.105 1.056,0.34 1.424,-0.02 1.065,-0.38 0.453,-0.389 z m -9.335,-7.776 0.053,0.127 0.163,0.082 2.027,0.011 2.401,-0.527 2.127,-0.819 0.169,-0.107 0.072,-0.117 -0.032,-0.124 -0.338,-0.216 c -1.679,-0.782 -3.811,-0.646 -5.339,0.45 l -1.028,0.725 -0.241,0.345 z m 6.377,0.117 -0.31,0.006 c -1.663,0.475 -3.744,0.84 -5.476,1.048 l -0.093,0.082 0.008,0.073 0.316,0.215 0.803,0.375 1.521,0.239 0.784,-0.09 0.86,-0.302 0.486,-0.37 1.025,-1.061 0.085,-0.156 z m -3.394,-6.799 -0.127,-0.041 -0.709,0.161 -0.665,0.227 -1.974,0.383 -1.224,0.256 -0.737,0.138 -0.871,0.04 -0.151,0.071 -0.02,0.072 0.259,0.214 c 2.178,1.01 4.64,0.68 6.153,-1.279 l 0.08,-0.156 z m -7.213,0.255 0.024,0.082 0.144,0.071 c 2.514,0.059 5.189,-0.506 7.447,-1.624 l 0.084,-0.132 -0.013,-0.111 c -1.608,-1.17 -4.015,-1.57 -5.686,-0.322 l -0.808,0.652 -0.846,0.918 z m -15.225,12.533 0.017,-1.518 0.385,-1.105 0.176,-0.708 0.425,-0.776 1.631,-1.634 1.367,-0.731 0.199,-0.079 0.136,-0.126 0.2,-0.406 0.256,-0.303 -0.013,-0.076 -0.144,-0.057 -1.482,0.291 -0.823,0.058 -0.8,0.1 -0.874,-0.042 -1.156,-0.327 -1.243,-0.525 -0.933,-0.878 -0.526,-0.655 -0.39,-0.512 -0.642,-1.402 -0.305,-0.249 -1.492,-0.555 -0.091,0.021 -0.017,0.085 c 1.802,3.721 3.384,7.511 4.821,11.383 l 0.306,0.727 c 0.026,-0.004 0.048,-0.014 0.077,-0.014 0.031,0 0.061,-0.024 0.092,-0.031 0.075,-0.02 0.151,-0.05 0.226,-0.051 0.182,-0.004 0.367,-0.022 0.535,0.082 0.021,0.014 0.053,0.011 0.082,0.013 m 1.308,0.253 c 0.006,0.001 0.013,0.004 0.018,0.006 0.02,0.009 0.041,0.012 0.06,0.02 l 0.382,-0.671 1.706,-3.293 0.326,-0.854 0.286,-0.625 0.026,-0.221 -0.058,-0.152 -0.13,-0.047 -0.645,0.213 -0.535,0.332 -0.753,0.701 -0.705,1.043 -0.469,1.286 -0.117,0.756 0.024,1.413 c 0.195,0.031 0.389,0.062 0.584,0.093 m -11.938,-24.158 2.453,0.791 c 7.036,2.424 13.672,6.192 18.873,11.541 l 0.257,0.155 -0.146,-0.277 -0.664,-0.538 c -3.707,-4.67 -9.479,-9.05 -14.809,-11.67 l -1.436,-0.629 -1.394,-0.662 -0.874,-0.311 -0.606,-0.267 -1.6,-0.468 -0.641,-0.234 -0.726,-0.162 -0.68,-0.201 -1.185,-0.283 -0.749,-0.135 -0.144,0.057 -0.041,0.118 0.408,0.75 0.332,0.548 0.954,1.382 0.172,0.086 1.074,0.104 z m 3.046,9.1 0.642,1.109 0.491,0.359 0.791,0.388 1.369,0.687 0.471,0.034 0.882,-0.313 1.516,-0.272 0.864,0.035 1.53,0.575 1.248,0.815 0.952,1.138 1.447,1.79 0.331,0.2 0.122,-0.037 0.252,-0.601 0.553,-2.677 0.069,-1.409 0.098,-0.789 -0.01,-0.578 -0.069,-0.188 -0.832,-0.622 -0.629,-0.54 -3.006,-1.997 c -3.297,-1.91 -5.921,-3.022 -9.445,-4.384 l -0.951,-0.232 -1.582,-0.476 -0.99,-0.21 -0.256,-0.004 -0.176,0.077 -0.062,0.154 0.197,0.661 0.653,0.822 0.489,0.979 0.439,0.746 0.392,0.781 1.503,2.625 z m 10.391,6.681 -1.338,-0.695 -0.622,-0.267 -2.75,-1.368 -1.056,-0.41 -0.117,0.038 -0.046,0.128 0.149,0.401 0.334,0.552 0.666,0.793 1.234,0.8 0.832,0.33 1.279,0.185 0.927,-0.239 0.517,-0.225 z m -0.067,-1.299 -0.288,-0.57 -0.871,-1.171 -1.399,-0.635 -0.879,-0.286 H 17.21 l -0.648,0.228 -0.256,0.209 0.022,0.074 1.305,0.716 1.316,0.465 0.934,0.526 1.48,0.573 0.113,-0.03 z m 0.915,9.705 0.801,-0.657 0.304,-0.546 0.384,-1.37 -0.014,-2.332 -0.062,-0.21 -0.079,-0.092 -0.068,0.007 -0.613,1.119 -1.272,2.559 -0.778,1.585 -0.081,0.141 c 0.03,0.007 0.059,0.019 0.088,0.031 0.091,0.033 0.182,0.067 0.273,0.102 0.082,0.032 0.164,0.065 0.246,0.097 z M 6.57,-8.771 l 0.515,0.69 0.641,1.121 0.483,0.699 0.906,1.445 0.55,0.744 -0.036,-1.013 C 9.115,-6.852 8.731,-8.056 6.999,-8.891 L 6.615,-8.975 6.551,-8.912 Z M 8.676,-4.122 8.173,-4.792 6.857,-7.01 6.063,-8.277 5.903,-8.385 5.725,-8.413 l -0.152,0.07 -0.091,0.176 -0.03,1.155 -0.081,0.675 c 0.451,2.054 1.568,2.436 3.339,3.083 h 0.173 l 0.058,-0.059 z m 8.808,-27.497 -0.572,-0.612 -0.532,-0.639 -1.33,-1.343 -0.087,-0.046 -0.053,0.044 -0.12,0.444 0.005,0.19 0.341,0.505 0.308,0.559 0.668,0.788 0.817,0.642 1.167,0.631 0.198,0.048 0.097,-0.024 0.007,-0.065 z m 1.95,0.72 0.02,-0.02 -0.21,-0.872 c -0.352,-1.793 -1.847,-3.194 -3.67,-3.315 l -0.137,0.048 -0.015,0.08 c 1.048,1.34 1.663,2.117 2.927,3.226 l 0.979,0.808 z m 5.017,-7.145 -0.227,-0.094 -1.148,-0.061 c -3.221,-0.665 -6.679,-1.029 -9.934,-1.549 l -1.77,-0.297 -1.242,-0.242 -0.642,-0.237 -0.484,0.023 -0.37,-0.044 -2.152,-0.506 -1.174,-0.295 -0.767,-0.123 -3.052,-0.788 -0.648,-0.243 -1.593,-0.754 -1.806,-0.555 -2.127,-0.822 -1.37,-0.538 0.727,1.155 0.803,0.97 0.87,1.171 0.779,0.363 4.521,1.074 1.999,0.36 0.742,0.143 1.755,0.308 1.948,0.398 1.457,0.025 1.785,0.269 0.867,0.025 0.747,0.106 0.433,-0.067 0.009,-10e-4 0.723,0.104 1.473,0.006 1.617,0.136 1.187,0.012 1.785,0.269 1.458,0.025 1.488,0.268 z m 4.804,8.379 0.14,1.061 0.491,0.953 0.592,0.553 0.432,0.133 0.432,-0.1 0.395,-0.451 0.126,-0.436 -0.005,-0.851 -0.443,-1.6 -0.668,-1.076 -0.77,-0.698 -0.144,-0.052 -0.098,0.04 -0.391,1.313 z m 7.328,0.731 -0.181,0.999 0.185,1.868 c 0.209,0.981 1.054,2.874 2.397,2.215 l 0.266,-0.284 0.256,-0.597 -0.005,-1.104 -0.32,-1.134 -0.432,-1.03 -0.647,-1.104 -0.846,-0.918 -0.134,-0.03 -0.123,0.079 z m 7.339,3.939 0.01,1.757 0.513,1.519 0.425,0.419 0.538,0.323 0.418,-0.018 0.344,-0.212 0.268,-0.594 0.1,-0.715 -0.795,-1.736 -0.243,-0.62 -0.986,-1.385 -0.134,-0.09 -0.107,0.01 -0.181,0.345 z m 7.55,0.344 0.166,0.609 1.022,2.508 0.429,0.74 0.376,0.491 0.901,0.539 0.89,0.296 h 0.219 l 0.182,-0.069 0.132,-0.132 0.111,-0.456 c -0.177,-1.94 -1.784,-3.94 -3.633,-4.54 l -0.6,-0.054 -0.148,0.017 z m 4.768,-3.664 1.142,-0.282 1.217,-0.53 0.233,-0.323 0.069,-0.372 -0.151,-0.652 -0.246,-0.306 -0.403,-0.145 -0.428,0.03 -1.14,0.331 -1.239,0.793 -0.904,0.879 -0.07,0.121 0.027,0.081 0.367,0.171 z M 18.915,3.799 C 18.791,3.794 18.668,3.775 18.545,3.76 18.435,3.745 18.325,3.733 18.217,3.712 18.095,3.689 17.977,3.657 17.857,3.632 17.755,3.612 17.653,3.589 17.55,3.584 17.426,3.578 17.304,3.583 17.192,3.51 17.151,3.483 17.091,3.488 17.041,3.476 16.958,3.457 16.877,3.435 16.795,3.415 16.701,3.391 16.607,3.366 16.513,3.344 16.475,3.335 16.428,3.343 16.398,3.324 16.283,3.251 16.153,3.249 16.025,3.222 15.805,3.174 15.591,3.096 15.373,3.032 15.331,3.02 15.284,3.015 15.24,3.005 15.139,2.982 15.036,2.964 14.939,2.931 14.801,2.884 14.771,2.899 14.726,3.033 c -0.057,0.173 -0.127,0.34 -0.19,0.511 -0.055,0.151 -0.119,0.301 -0.16,0.457 -0.046,0.171 0.01,0.26 0.181,0.274 0.154,0.013 0.289,0.065 0.431,0.118 0.144,0.054 0.3,0.077 0.452,0.112 0.233,0.054 0.468,0.103 0.701,0.16 0.202,0.049 0.402,0.105 0.602,0.16 0.063,0.016 0.125,0.039 0.188,0.052 0.224,0.045 0.447,0.085 0.669,0.131 0.044,0.008 0.086,0.031 0.13,0.042 0.112,0.028 0.225,0.053 0.339,0.077 0.095,0.021 0.19,0.039 0.284,0.06 0.051,0.011 0.101,0.037 0.151,0.038 0.121,0.003 0.229,0.035 0.335,0.094 0.173,0.095 0.296,0.03 0.356,-0.162 0.055,-0.173 0.118,-0.344 0.185,-0.513 0.142,-0.364 0.288,-0.726 0.437,-1.087 0.08,-0.193 0.171,-0.381 0.257,-0.571 0.14,-0.309 0.278,-0.618 0.419,-0.925 0.188,-0.408 0.395,-0.808 0.564,-1.222 0.15,-0.37 0.342,-0.716 0.533,-1.063 0.141,-0.257 0.313,-0.497 0.476,-0.742 0.13,-0.196 0.27,-0.386 0.398,-0.583 0.068,-0.107 0.149,-0.172 0.277,-0.194 0.109,-0.019 0.215,-0.057 0.319,-0.096 0.109,-0.041 0.118,-0.093 0.045,-0.173 -0.193,-0.212 -0.433,-0.342 -0.712,-0.413 -0.183,-0.047 -0.355,-0.134 -0.539,-0.172 -0.224,-0.045 -0.418,-0.171 -0.65,-0.199 -0.175,-0.02 -0.342,-0.113 -0.513,-0.172 -0.055,-0.019 -0.112,-0.033 -0.168,-0.049 -0.085,-0.024 -0.171,-0.049 -0.258,-0.073 -0.037,-0.01 -0.076,-0.029 -0.113,-0.027 -0.109,0.005 -0.203,-0.026 -0.295,-0.085 -0.047,-0.03 -0.109,-0.037 -0.165,-0.052 -0.019,-0.006 -0.043,0.003 -0.058,-0.006 -0.215,-0.127 -0.473,-0.083 -0.698,-0.171 -0.211,-0.083 -0.434,-0.083 -0.658,-0.046 -0.321,0.052 -0.539,0.255 -0.735,0.489 -0.337,0.403 -0.609,0.847 -0.832,1.323 -0.199,0.426 -0.41,0.845 -0.604,1.273 -0.22,0.488 -0.431,0.978 -0.637,1.471 -0.065,0.155 -0.098,0.322 -0.154,0.482 -0.05,0.14 -0.112,0.277 -0.165,0.417 -0.048,0.126 -0.093,0.254 -0.144,0.395 0.273,0.061 0.52,0.111 0.764,0.174 0.22,0.056 0.434,0.132 0.653,0.189 0.207,0.053 0.417,0.093 0.626,0.138 0.032,0.007 0.065,0.01 0.096,0.019 0.29,0.098 0.578,0.197 0.868,0.296 0.141,0.048 0.286,0.087 0.421,0.151 0.181,0.086 0.355,0.189 0.529,0.291 0.027,0.016 0.058,0.074 0.048,0.094 -0.017,0.034 -0.064,0.075 -0.097,0.074 m 40.521,-32.858 -0.501,0.432 -1.436,0.659 -1.115,0.344 -0.012,0.004 -1.828,-0.194 -1.814,-0.425 -3.158,0.617 -0.383,0.091 -10e-4,0.038 0.613,0.542 1.224,1.116 0.605,0.253 0.96,0.235 1.218,0.568 1.189,0.874 0.913,1.19 0.509,0.98 0.306,1.144 0.004,0.013 -0.219,1.256 -0.245,0.377 -0.371,0.253 -0.523,0.107 -0.01,0.003 -0.813,-0.09 -1.104,-0.702 -0.854,-0.954 -0.973,-1.694 -0.728,-1.929 -0.2,-0.679 -0.309,-0.849 -2.278,-1.821 -2.026,-1.505 -1.404,-0.945 -0.983,-0.51 -0.139,-0.032 -0.051,0.052 0.07,0.4 0.788,2.172 c 1.255,1.423 3.588,4.957 2.401,6.87 l -0.49,0.436 -0.475,0.127 -1.217,-0.576 -0.782,-0.717 -0.331,-0.578 -0.401,-2.003 0.036,-0.867 0.567,-2.381 -0.059,-0.5 -0.739,-1.909 -0.784,-1.554 -1.38,-0.944 -0.879,-0.307 -0.719,-0.449 -1.83,-0.812 -1.116,-0.354 -0.111,0.034 -0.026,0.098 0.995,2.243 0.241,0.629 c 1.728,1.473 2.42,3.614 2.848,5.746 l -0.035,0.865 -0.323,0.879 -0.007,0.018 -0.547,0.37 -0.494,0.145 -0.496,-0.097 -0.814,-0.388 -0.736,-0.769 -0.6,-1.214 -0.208,-0.985 0.012,-1.773 c 0.419,-3.018 1.545,-1.47 -0.213,-4.774 l -0.351,-0.808 -0.499,-0.665 -0.335,-0.231 -1.074,-0.371 -0.798,-0.095 -1.418,-0.343 -0.792,-0.099 -1.411,-0.352 -0.579,-0.009 -0.121,0.042 -0.003,0.056 1.616,2.786 0.958,0.812 1.028,1.348 0.477,0.997 0.247,1.857 -0.059,0.84 -0.28,0.631 -0.525,0.411 -0.509,0.09 -0.012,0.002 -0.942,-0.263 -0.016,-0.004 -1.047,-1.038 -0.544,-1.258 -0.108,-1.286 0.193,-1.267 0.337,-1.435 -0.028,-0.538 -0.29,-0.571 -0.602,-0.866 -0.386,-0.506 -0.345,-0.53 -0.51,-0.644 -0.625,-0.223 -2.324,-0.328 -1.764,-0.29 c -1.919,-0.091 -4.1,-0.293 -6.037,-0.446 l -1.748,-0.036 h -0.636 l -0.701,0.093 -0.013,0.066 0.313,0.546 0.788,0.966 0.335,0.223 2.05,0.293 1.647,0.732 0.436,0.501 0.78,1.297 0.801,2.147 0.559,1.543 0.005,0.011 -0.011,0.256 -0.16,0.16 -1.418,-0.354 -1.773,-0.585 -1.262,-0.839 -1.045,-1.017 -0.655,-1.156 -0.266,-0.914 -0.026,-1.448 -0.209,-0.338 -1.319,-1.34 -0.677,-0.784 -0.453,-0.405 -0.502,-0.06 c -2.098,-0.173 -4.148,-0.587 -6.241,-0.842 l -1.996,-0.364 -2.659,-0.579 -1.269,-0.219 -0.439,-0.163 -0.205,-0.014 -0.153,0.073 -0.072,0.15 0.026,0.183 0.861,1.205 2.358,3.243 1.541,2.274 0.334,0.223 2.199,0.44 0.714,0.167 0.51,0.096 0.82,0.353 2.221,0.733 0.607,0.268 0.911,0.278 1.227,0.547 1.137,0.62 1.171,0.293 c 3.628,1.859 7.064,4.344 10.171,6.966 l 1.795,1.736 0.481,0.411 c 1.025,1.026 1.883,1.936 2.875,3.003 l 0.385,0.179 1.746,0.284 0.434,-0.132 1.181,-1.143 0.516,-0.663 1.041,-0.755 0.885,-0.589 1.12,-0.377 1.533,-0.085 1.066,0.113 1.303,0.491 c 2.585,1.597 3.388,0.353 1.081,2.736 l -1.315,1.337 -1.34,0.761 -1.111,0.376 -0.778,0.123 -2.279,-0.411 -0.415,-0.159 -0.761,-0.123 -1.596,-0.766 -1.145,-0.024 -0.156,0.064 -0.028,0.1 0.567,0.872 0.855,0.925 0.617,0.852 0.529,0.657 0.716,1.038 0.473,0.388 1.248,0.503 0.453,0.061 0.164,-0.084 0.677,-0.809 0.813,-0.665 0.86,-0.63 0.81,-0.387 c 2.598,-0.67 4.189,-0.67 6.558,0.757 l 0.145,0.19 0.012,0.207 c -0.751,1.239 -2.446,3.527 -4.104,3.912 l -1.034,0.159 -1.434,-0.054 -0.554,-0.276 -0.606,-0.025 -1.013,-0.518 -0.989,-0.77 -0.447,-0.144 -0.212,0.029 -0.121,0.122 -0.017,0.191 0.307,0.583 1.623,2.506 0.448,0.721 0.446,0.409 1.087,0.672 0.467,0.113 0.226,-0.017 0.349,-0.222 0.637,-0.549 0.705,-0.492 1.703,-0.673 0.77,-0.127 0.011,-0.002 1.509,0.287 0.825,0.388 1.571,1.088 0.976,0.806 0.131,0.195 0.042,0.248 -0.093,0.229 -1.246,0.867 -0.548,0.332 -0.524,0.359 -1.126,0.383 -0.777,0.119 -1.453,-0.03 -1.118,-0.398 -1.779,-1.169 -1.052,-0.705 -0.051,0.006 0.005,0.324 0.188,0.702 0.936,1.722 0.281,0.592 0.398,0.454 0.823,0.355 0.681,0.486 0.848,0.311 0.437,-0.064 0.818,-0.374 2.101,-0.566 0.864,0.025 1.491,0.294 0.626,0.277 0.83,0.644 0.401,0.833 L 52.12,3.115 51.836,4.012 51.832,4.028 50.885,4.875 50.351,4.999 49.534,4.892 48.403,4.534 47.273,3.895 46.523,3.461 45.461,2.768 44.094,2.377 43.328,1.925 l -0.21,-0.039 -0.12,0.039 -0.022,0.095 0.545,1.503 0.045,0.086 c 0.157,0.102 0.317,0.2 0.469,0.308 0.08,0.056 0.174,0.091 0.256,0.144 0.187,0.12 0.382,0.23 0.552,0.373 0.44,0.369 0.873,0.748 1.3,1.135 0.339,0.307 0.67,0.624 0.992,0.948 0.028,0.028 0.052,0.059 0.079,0.087 l 0.371,0.151 0.437,-0.065 c 1.732,-0.987 4.188,-1.004 5.65,0.497 L 54.043,7.75 54.095,8.61 53.928,9.054 53.494,9.536 52.843,9.813 51.974,10.104 51.96,10.108 50.694,9.934 49.66,9.456 49.269,9.178 c 0.356,0.524 0.668,1.074 0.916,1.657 0.132,0.311 0.243,0.631 0.363,0.948 0.041,0.109 0.088,0.217 0.122,0.328 0.085,0.273 0.165,0.547 0.244,0.822 0.012,0.043 0.011,0.091 0.019,0.136 0.009,0.051 0.023,0.101 0.034,0.152 0.011,0.05 0.023,0.102 0.033,0.153 l 0.795,-0.275 1.483,-0.29 c 1.406,-0.014 3.018,0.306 3.824,1.594 l 0.202,0.393 0.009,0.016 -0.052,0.49 -0.305,0.62 -0.336,0.31 -1.24,0.239 -0.014,0.002 -1.649,-0.435 -1.086,-0.712 -1.419,-1.037 c 0.024,0.121 0.048,0.241 0.055,0.366 0.004,0.096 0.005,0.202 0.045,0.285 0.069,0.148 0.092,0.297 0.095,0.457 0.005,0.241 -0.002,0.486 0.035,0.724 0.051,0.334 0.061,0.662 -0.013,0.992 -0.012,0.056 -0.014,0.118 -0.002,0.174 0.033,0.164 -0.007,0.309 -0.085,0.452 -0.104,0.188 -0.215,0.375 -0.3,0.571 -0.131,0.301 -0.27,0.596 -0.44,0.876 l 0.28,0.204 0.89,0.277 0.452,0.419 0.345,-0.007 0.735,-0.179 1.755,-0.004 0.918,0.297 0.766,0.413 0.898,0.894 0.256,0.665 0.028,0.88 -0.182,0.438 -0.622,0.59 -0.454,0.199 -0.542,-0.005 -1.412,-0.694 -1.203,-1.198 -0.85,-1.19 -1.197,-0.564 -0.711,-0.496 -0.175,-0.059 -0.113,0.03 -0.047,0.13 0.108,0.463 c 2.125,5.677 0.156,3.086 3.787,7.114 l 0.507,0.983 0.576,2.097 c 0.16,1.469 -0.615,3.269 -2.388,2.962 l -0.393,-0.245 -1.16,-1.198 -0.695,-2.018 -0.074,-0.923 0.01,-0.786 v -0.388 l 0.092,-0.352 0.056,-0.951 0.267,-1.387 -0.289,-1.148 -0.486,-1.574 -0.763,-2.167 c -0.204,0.272 -0.427,0.524 -0.684,0.751 -0.411,0.364 -0.802,0.751 -1.215,1.115 -0.027,0.023 -0.057,0.042 -0.084,0.065 l 0.085,1.228 0.074,0.498 -0.287,1.22 -0.398,0.78 -0.627,0.6 -0.743,0.437 -0.518,0.133 -0.539,-0.064 -0.19,-0.159 -0.319,-0.881 -0.004,-1.149 0.242,-0.652 c -0.19,0.098 -0.38,0.193 -0.579,0.273 -0.301,0.122 -0.6,0.252 -0.901,0.377 -0.259,0.108 -0.517,0.217 -0.777,0.321 -0.132,0.052 -0.265,0.117 -0.403,0.134 -0.143,0.019 -0.26,0.072 -0.38,0.142 -0.073,0.042 -0.154,0.071 -0.235,0.098 -0.111,0.037 -0.223,0.069 -0.336,0.098 -0.076,0.02 -0.153,0.032 -0.23,0.043 -0.168,0.023 -0.337,0.042 -0.505,0.063 -0.084,0.011 -0.169,0.038 -0.252,0.034 -0.455,-0.021 -0.896,0.104 -1.345,0.123 -0.405,0.017 -0.811,0.005 -1.217,0.005 -0.026,0 -0.053,-0.005 -0.076,-0.016 -0.27,-0.133 -0.561,-0.112 -0.848,-0.112 -0.077,0 -0.155,-0.016 -0.232,-0.028 -0.127,-0.021 -0.254,-0.044 -0.382,-0.069 -0.114,-0.022 -0.227,-0.047 -0.341,-0.071 -0.108,-0.023 -0.214,-0.049 -0.324,-0.067 -0.064,-0.011 -0.138,0.01 -0.193,-0.015 -0.179,-0.084 -0.37,-0.067 -0.556,-0.096 -0.262,-0.041 -0.513,-0.14 -0.783,-0.154 -0.135,-0.007 -0.268,-0.048 -0.402,-0.073 -0.051,-0.009 -0.114,-0.002 -0.152,-0.03 -0.208,-0.146 -0.468,-0.09 -0.691,-0.193 -0.19,-0.087 -0.414,-0.099 -0.618,-0.161 -0.241,-0.073 -0.467,-0.186 -0.716,-0.243 -0.239,-0.054 -0.468,-0.15 -0.702,-0.226 -0.147,-0.047 -0.297,-0.092 -0.445,-0.14 -0.184,-0.06 -0.367,-0.126 -0.553,-0.183 -0.192,-0.06 -0.387,-0.111 -0.58,-0.168 -0.125,-0.037 -0.25,-0.074 -0.373,-0.114 -0.186,-0.06 -0.37,-0.124 -0.557,-0.182 -0.187,-0.057 -0.376,-0.106 -0.563,-0.162 -0.137,-0.041 -0.271,-0.089 -0.407,-0.131 -0.223,-0.069 -0.448,-0.135 -0.672,-0.204 -0.186,-0.058 -0.372,-0.117 -0.556,-0.18 -0.087,-0.029 -0.173,-0.06 -0.259,-0.093 l 0.607,0.596 0.979,0.474 c 2.41,0.892 3.955,1.696 4.559,4.364 l -0.08,0.46 -0.219,0.406 -0.339,0.283 -0.717,0.213 L 29.538,29.889 28.187,29.172 26.985,27.97 26.316,26.853 25.942,25.748 25.72,24.812 23.605,22.693 C 23.587,22.686 23.568,22.68 23.55,22.673 23.276,22.572 23.001,22.472 22.727,22.372 22.659,22.347 22.592,22.323 22.525,22.297 l -0.112,0.602 -0.01,2.065 -0.137,0.737 -0.044,1.815 0.512,0.906 1.026,1.33 0.528,0.657 0.357,0.51 0.705,0.446 0.607,0.289 2.126,1.428 0.446,0.447 0.653,0.821 0.511,1.288 0.015,0.437 -0.255,0.668 -0.504,0.45 -0.862,0.069 -0.531,-0.063 -0.978,-0.547 -0.769,-0.721 -0.618,-0.866 -0.919,-1.734 -0.326,-1.484 0.009,-0.597 -0.295,-0.53 -1.224,-1.435 -0.162,-0.081 -0.139,0.003 -0.112,0.101 -0.185,0.688 -0.3,2.06 -0.46,2.478 0.166,0.703 1.163,2.665 0.584,1.184 0.18,0.387 0.7,0.444 1.593,0.766 0.978,1.134 0.559,0.928 0.246,0.638 0.019,1.166 -0.258,0.941 -0.6,0.621 -0.011,0.011 -0.501,0.136 -0.785,-0.14 -0.815,-0.378 -0.607,-0.601 -0.602,-1.212 -0.36,-1.425 v -2.051 l -0.159,-0.405 -1.155,-2.09 -0.484,-1.001 -0.109,-0.174 -0.094,-0.053 -0.082,0.049 -0.592,1.759 -0.91,2.928 -0.333,0.842 -0.526,1.54 -0.414,1.046 -0.055,1.423 -0.692,2.564 -0.958,1.99 -0.896,0.901 -1.067,0.469 -0.48,-0.004 -1.068,-0.475 -0.36,-0.568 -0.314,-0.875 -0.004,-0.013 0.084,-0.804 0.511,-1.295 0.937,-1.44 0.617,-0.583 0.935,-0.535 1.27,-0.796 0.55,-0.311 0.307,-0.543 0.838,-2.103 1.175,-3.836 0.357,-1.11 0.822,-3.919 -0.02,-0.205 -0.087,-0.086 -0.144,0.015 -2.117,1.716 -1.141,1.2 c -1.427,7.003 -8.489,7.232 -6.06,2.519 l 0.38,-0.52 1.083,-0.993 0.859,-0.613 1.542,-0.556 0.752,-0.138 0.519,-0.058 0.572,-0.286 1.838,-1.682 1.327,-1.316 0.524,-0.662 0.424,-0.443 0.164,-0.394 0.318,-2.032 0.06,-1.122 0.127,-1.458 0.118,-1.545 -0.066,-0.518 -0.079,-0.076 -0.096,0.019 -1.882,1.935 -1.137,1.226 -1.195,1.174 -0.325,0.24 -0.465,1.296 -0.905,1.465 -0.942,1.121 -0.739,0.463 c -0.942,0.857 -2.994,1.411 -3.814,0.107 l -0.145,-0.48 -0.003,-0.009 0.019,-1.158 0.34,-0.6 0.834,-0.951 0.844,-0.644 1.555,-0.821 1.615,-0.446 1.172,-0.012 0.391,-0.168 c 1.021,-0.942 2.05,-2.365 3.072,-3.386 l 0.664,-0.8 0.593,-0.898 0.554,-0.564 c -0.047,-0.016 -0.094,-0.028 -0.141,-0.045 -0.354,-0.128 -0.69,-0.307 -1.046,-0.425 -0.426,-0.141 -0.636,-0.449 -0.769,-0.844 -0.11,-0.329 -0.109,-0.67 -0.114,-1.01 -0.003,-0.164 -0.02,-0.188 -0.176,-0.188 -0.267,0 -0.508,-0.096 -0.756,-0.174 -0.05,-0.016 -0.118,-0.022 -0.163,0 -0.074,0.035 -0.143,0.089 -0.202,0.148 -0.14,0.137 -0.266,0.288 -0.409,0.423 -0.2,0.188 -0.44,0.339 -0.713,0.332 -0.048,-0.002 -0.096,0 -0.144,0 l -0.102,0.205 -0.654,1.115 c -0.903,1.079 -2.305,2.134 -3.8,1.779 L 11.474,22.9 11.46,22.893 11.091,22.351 10.864,21.979 10.792,21.448 10.791,21.435 10.943,20.96 11.58,20.097 12.403,19.43 12.695,19.167 C 12.679,19.161 12.663,19.155 12.647,19.15 12.433,19.088 12.226,19.013 12.042,18.884 12,18.854 11.952,18.816 11.905,18.812 11.713,18.797 11.58,18.686 11.448,18.566 11.394,18.519 11.326,18.489 11.274,18.44 c -0.073,-0.072 -0.159,-0.141 -0.202,-0.23 -0.129,-0.268 -0.175,-0.561 -0.186,-0.856 -0.019,-0.537 0.012,-1.071 0.055,-1.606 0.013,-0.163 -0.013,-0.332 0.02,-0.49 0.075,-0.366 0.099,-0.737 0.15,-1.104 0.043,-0.306 0.067,-0.608 0.076,-0.915 0.003,-0.091 -10e-4,-0.191 0.037,-0.269 0.092,-0.191 0.104,-0.39 0.1,-0.594 -0.002,-0.065 -0.011,-0.138 0.013,-0.194 0.104,-0.251 0.059,-0.518 0.104,-0.775 0.014,-0.078 -0.013,-0.124 -0.084,-0.154 -0.072,-0.029 -0.142,-0.067 -0.213,-0.102 l -0.336,0.478 -0.548,0.932 -1.217,1.728 -3.439,5.108 -0.711,1.043 -0.776,2.759 -1.155,2.677 -0.932,1.153 -1.106,0.692 -0.523,0.112 -0.573,-0.03 -0.438,-0.181 -0.461,-0.455 -0.19,-0.432 -0.021,-1.178 0.358,-1.139 0.814,-1.287 1.179,-1.196 1.057,-0.714 2.146,-1.373 0.365,-0.52 0.457,-0.418 0.81,-1.239 1.131,-1.821 1.312,-1.918 0.489,-0.981 -0.003,-0.044 -0.572,0.054 -1.726,0.625 -1.2,1.141 -0.926,0.863 -1.339,0.742 -0.918,0.261 -1.141,0.007 -1.029,-0.477 -0.464,-0.449 -0.201,-0.457 0.041,-0.515 0.155,-1.055 0.578,-0.627 0.594,-0.332 0.883,-0.306 1.468,-0.305 0.011,-0.002 1.028,0.158 h 0.884 l 0.894,0.322 0.385,0.207 0.193,0.043 0.663,-0.19 2.558,-0.963 0.598,-0.551 0.09,-0.153 C 10.257,10.932 10.172,10.92 10.089,10.901 9.925,10.864 9.778,10.822 9.639,10.733 9.581,10.696 9.51,10.674 9.442,10.656 9.248,10.607 9.051,10.569 8.857,10.518 8.62,10.454 8.387,10.377 8.15,10.311 7.969,10.262 7.804,10.152 7.606,10.165 c 0,0 -0.023,-0.011 -0.035,-0.014 C 7.484,10.128 7.397,10.105 7.31,10.081 7.234,10.06 7.158,10.042 7.084,10.019 7.051,10.008 7.018,9.995 6.985,9.983 L 6.666,10.181 5.251,10.579 4.415,10.527 3.698,10.36 2.903,9.942 2.239,9.426 1.928,8.8 1.868,8.362 C 1.705,8.305 1.542,8.25 1.379,8.193 1.276,8.156 1.179,8.097 1.076,8.057 0.763,7.931 0.448,7.807 0.132,7.687 -0.067,7.611 -0.271,7.545 -0.47,7.469 -0.695,7.383 -0.92,7.295 -1.14,7.2 -1.197,7.176 -1.25,7.128 -1.289,7.077 -1.346,7.003 -1.31,6.917 -1.22,6.896 c 0.043,-0.01 0.093,-0.013 0.136,-0.003 0.21,0.049 0.422,0.091 0.627,0.157 0.283,0.093 0.556,0.218 0.841,0.304 0.443,0.134 0.895,0.241 1.34,0.368 0.103,0.029 0.205,0.065 0.307,0.096 L 2.076,7.674 2.828,6.912 3.826,6.396 4.974,6.055 6.101,5.951 7.985,6.29 9.418,6.903 9.862,6.848 12.302,6.047 12.68,5.839 C 12.696,5.787 12.711,5.736 12.727,5.683 12.759,5.584 12.809,5.488 12.82,5.387 12.852,5.137 12.938,4.908 13.051,4.686 13.082,4.625 13.082,4.566 13.01,4.541 12.881,4.499 12.752,4.449 12.62,4.43 12.342,4.39 12.082,4.29 11.816,4.208 11.636,4.153 11.454,4.102 11.272,4.053 11.102,4.007 10.916,3.998 10.765,3.918 10.556,3.809 10.324,3.812 10.112,3.724 9.923,3.645 9.713,3.613 9.515,3.553 9.316,3.493 9.125,3.411 8.925,3.361 8.679,3.299 8.433,3.24 8.201,3.132 8.167,3.116 8.125,3.119 8.087,3.109 7.905,3.062 7.723,3.017 7.544,2.964 7.345,2.905 7.151,2.834 6.953,2.774 6.749,2.712 6.54,2.662 6.335,2.6 6.007,2.5 5.681,2.392 5.353,2.29 5.192,2.239 5.029,2.192 4.867,2.142 4.632,2.07 4.397,1.996 4.161,1.926 4.012,1.882 3.857,1.856 3.713,1.799 3.457,1.7 3.202,1.607 2.927,1.577 2.902,1.574 2.878,1.56 2.854,1.55 2.622,1.464 2.398,1.357 2.145,1.341 2.102,1.338 2.06,1.311 2.016,1.296 1.819,1.231 1.635,1.126 1.42,1.116 1.377,1.114 1.335,1.086 1.291,1.071 1.2,1.041 1.107,1.012 1.015,0.98 0.825,0.916 0.634,0.853 0.446,0.781 0.228,0.698 0.018,0.584 -0.207,0.524 -0.457,0.457 -0.706,0.39 -0.943,0.285 -0.979,0.269 -1.016,0.256 -1.052,0.241 l -0.295,0.714 -0.754,1.03 -0.912,0.87 -1.604,1.062 -0.629,0.287 -0.482,-0.038 -0.311,-0.326 -0.555,-1.554 -0.15,-0.749 0.063,-0.852 0.343,-1.146 0.64,-1.145 0.918,-1.144 0.529,-0.388 1.53,-0.838 1.054,-0.403 0.273,-0.284 1.582,-3.117 0.356,-0.816 1.089,-3.013 -0.043,-0.155 -0.288,-0.242 -0.136,-0.027 -0.321,0.163 c -1.075,0.952 -1.963,2.494 -2.95,3.544 l -0.815,0.658 -1.254,0.546 -1.154,0.332 -1.051,0.138 -1.158,-0.031 -0.918,-0.282 -0.668,-0.221 -0.179,-0.161 -0.091,-0.251 0.143,-0.466 1.382,-1.902 0.816,-0.963 0.624,-0.556 1.405,-0.682 2.32,-0.37 0.008,-10e-4 1.006,0.109 0.432,-0.054 0.011,-10e-4 1.194,0.282 0.392,0.055 0.909,-0.519 0.722,-0.44 0.248,-0.314 0.686,-1.645 0.172,-1.012 1.184,-4.415 0.906,-3.787 -0.098,-0.398 -0.334,-0.534 -0.687,-0.797 -0.697,-1.069 -0.601,-0.856 -0.434,-0.429 -0.099,-0.021 -0.243,0.226 -0.933,2.014 -1.272,2.557 -0.177,0.397 -0.05,1.721 -0.324,1.166 -0.801,1.558 -1.052,1.054 -0.901,0.592 -1.699,0.656 -1.362,0.152 -0.706,0.004 -0.545,-0.113 -0.021,-0.004 -0.168,-0.197 -0.039,-0.271 0.155,-0.488 1.625,-3.683 1.167,-1.24 1.066,-0.702 1.376,-0.416 1.451,-0.031 0.186,-0.068 0.996,-1.613 1.369,-3.348 0.269,-0.78 -0.122,-0.368 -0.778,-0.982 -0.548,-0.636 -1.512,-2.013 -0.875,-0.871 -0.098,-0.019 -0.239,0.23 -0.481,0.696 -0.295,1.151 -0.041,1.152 -0.471,1.905 -0.8,1.57 -0.727,1.04 -1.141,0.945 -2.078,0.898 -0.561,0.079 -0.01,0.001 -0.284,-0.054 -0.178,-0.173 -0.167,-0.751 -0.069,-1.41 0.071,-1.242 0.482,-1.601 0.672,-1.118 0.745,-0.741 1.011,-0.757 1.307,-0.492 1.604,-0.443 0.316,-0.241 0.647,-1.106 0.072,-0.366 -0.184,-0.338 -0.686,-0.794 -1.269,-1.387 -0.682,-0.801 -0.349,-0.515 -0.767,-0.719 -0.518,-0.653 -0.867,-0.908 -0.533,-0.64 -1.448,-1.498 -0.122,-0.214 -0.053,-0.289 0.035,-0.285 0.111,-0.235 0.199,-0.061 0.335,0.281 c 7.521,8.125 14.611,16.735 20.423,26.182 l 0.078,0.047 -0.721,-1.532 -0.858,-1.787 C 6.073,-26.451 3.026,-31.891 -0.832,-36.742 l -0.765,-1.001 -0.527,-0.654 -0.381,-0.51 -0.574,-0.888 -0.959,-1.107 -3.092,-3.975 -1.108,-1.255 -0.521,-0.659 -0.503,-0.669 -0.557,-0.626 -0.53,-0.648 -0.012,-0.016 -0.075,-0.882 0.037,-0.266 0.147,-0.146 0.333,0.27 0.742,1.057 0.719,0.759 0.673,0.789 0.52,0.338 2.424,1.11 1.446,0.607 1.161,0.316 0.529,-0.019 0.397,-0.167 0.882,-0.853 0.272,-0.586 0.402,-1.382 0.714,-1.366 0.533,-0.659 0.78,-0.71 1.29,-0.785 1.88,-0.785 1.655,-0.421 0.009,-0.003 0.22,0.006 0.15,0.157 0.051,0.537 10e-4,0.01 -0.238,0.974 -0.42,1.653 -0.438,1.05 -0.569,0.904 -1.162,0.945 -1.145,0.632 -1.248,0.52 -1.113,0.088 -1.053,0.112 -0.357,0.201 -0.191,0.337 0.037,0.141 0.326,0.22 1.736,0.63 0.841,0.332 2.235,0.706 1.681,0.377 0.754,0.133 1.45,0.314 1.016,0.156 0.857,-0.028 0.394,-0.17 0.956,-0.781 0.191,-0.369 0.29,-1.773 0.527,-1.553 0.547,-0.943 0.686,-0.804 0.836,-0.655 0.805,-0.387 2.719,-0.812 0.412,-0.187 0.219,-0.017 0.231,0.35 0.133,0.813 -0.066,0.845 -0.294,1.18 -0.652,1.153 -0.672,0.811 -0.769,0.717 -0.88,0.611 -1.859,0.803 -1.338,0.414 -0.916,0.798 v 0.074 l 0.715,0.395 1.964,0.375 0.812,0.075 0.798,0.088 0.776,0.114 0.711,0.166 0.79,0.099 1.676,0.325 0.372,-0.157 0.967,-0.785 0.425,-0.435 0.117,-0.444 c -0.278,-4.609 2.357,-6.173 6.382,-7.276 l 0.016,-0.005 0.246,0.074 0.168,0.197 0.034,0.649 c 0.231,3.762 -2.83,6.7 -6.326,7.44 l -0.618,0.557 -0.065,0.16 0.046,0.121 0.402,0.153 3.462,0.663 0.8,0.095 0.676,0.193 0.83,0.066 0.95,0.226 1.226,0.25 1.841,0.445 1.322,-0.362 2.416,-1.098 0.829,-1.208 0.943,-1.415 0.644,-0.566 1.35,-1.007 1.08,-0.429 0.494,-0.005 0.914,0.304 0.018,0.006 0.262,0.354 0.225,0.685 0.029,0.872 -0.14,0.477 -0.881,0.928 -1.148,0.652 -1.435,0.629 -1.047,0.147 -0.723,0.173 -1.106,0.058 -1.509,0.827 -0.562,0.327 -0.095,0.139 0.004,0.129 0.291,0.235 1.781,0.873 1.07,0.388 0.828,-0.024 1.622,-0.324 1.349,-0.234 1.131,-0.33 0.585,-0.279 0.362,-0.496 0.363,-0.541 1.518,-1.447 0.919,-0.555 1.035,-0.186 1.148,0.05 0.744,0.479 0.223,0.429 -0.036,0.522 -0.382,1.127 -0.006,0.017 -1.36,1.024 -1.319,0.488 -0.777,0.119 -1.479,-0.016 -0.723,-0.131 -2.05,0.597 -1.729,0.33 -0.174,0.08 -0.045,0.077 0.189,0.269 0.997,0.766 1.041,0.44 0.873,0.591 0.419,0.069 3.484,-0.599 0.885,-0.565 1.513,-1.141 1.918,-0.772 1.477,-0.23 0.011,-0.002 1.22,0.247 0.566,0.346 0.577,0.625 0.014,0.015 0.071,0.853 -0.144,0.762 -0.405,0.519 -0.538,0.37 -1.325,0.477 -0.755,0.144 -1.159,-0.031 -1.257,-0.217 -1.633,-0.735 -0.44,-0.002 -1.225,0.266 -1.467,0.297 -0.324,0.205 -0.012,0.09 0.256,0.223 1.661,1.011 1.188,0.882 0.766,0.699 0.669,0.495 0.399,0.034 3.3,-0.544 1.228,-0.235 0.543,-0.305 0.92,-0.868 1.676,-0.992 1.543,-0.544 0.562,0.019 0.826,0.395 0.291,0.334 0.146,0.492 0.074,1.008 v 0.016 z" fill="#181716" transform="matrix(1.33333 0 0 -1.33333 9.864 83.333)"/><path style="mix-blend-mode:multiply" d="M 0,0 C -0.002,0.111 0.017,0.224 0.006,0.333 -0.034,0.724 0.161,1.037 0.328,1.362 0.384,1.471 0.442,1.579 0.499,1.688 0.514,1.716 0.528,1.749 0.55,1.772 0.753,1.976 0.944,2.194 1.164,2.377 1.337,2.523 1.549,2.622 1.74,2.747 1.83,2.806 1.921,2.848 2.031,2.851 2.073,2.852 2.114,2.882 2.156,2.899 2.192,2.914 2.227,2.94 2.263,2.943 2.588,2.973 2.914,3.005 3.241,3.024 3.349,3.03 3.46,3.001 3.569,2.986 3.589,2.984 3.608,2.972 3.627,2.974 3.967,2.999 4.224,2.77 4.527,2.678 4.62,2.65 4.706,2.601 4.797,2.565 5.199,2.401 5.478,2.088 5.756,1.773 5.782,1.745 5.801,1.708 5.816,1.673 5.918,1.426 6.018,1.177 6.119,0.93 6.122,0.924 6.125,0.918 6.125,0.912 6.156,0.431 6.324,-0.038 6.252,-0.526 6.236,-0.635 6.177,-0.741 6.175,-0.85 6.169,-1.083 6.041,-1.284 6.018,-1.51 6.009,-1.599 5.947,-1.636 5.867,-1.629 5.756,-1.618 5.645,-1.602 5.538,-1.579 5.396,-1.546 5.259,-1.52 5.112,-1.564 5.002,-1.597 4.955,-1.549 4.963,-1.431 4.966,-1.379 4.98,-1.326 5.001,-1.28 5.159,-0.927 5.098,-0.591 4.928,-0.264 4.902,-0.217 4.849,-0.185 4.773,-0.112 4.714,-0.248 4.667,-0.34 4.635,-0.436 4.566,-0.64 4.504,-0.846 4.44,-1.052 4.421,-1.113 4.41,-1.178 4.392,-1.24 4.367,-1.326 4.336,-1.411 4.312,-1.498 4.283,-1.604 4.244,-1.711 4.236,-1.819 4.225,-1.964 4.331,-2.068 4.481,-2.102 c 0.286,-0.065 0.569,-0.14 0.857,-0.199 0.12,-0.026 0.246,-0.02 0.369,-0.035 0.188,-0.024 0.374,-0.053 0.561,-0.08 0.129,-0.019 0.258,-0.04 0.386,-0.058 0.072,-0.01 0.142,-0.022 0.213,-0.028 0.084,-0.007 0.168,-0.01 0.252,-0.01 0.071,10e-4 0.143,0.016 0.214,0.011 0.178,-0.014 0.292,0.05 0.337,0.22 0.049,0.181 0.077,0.368 0.129,0.548 0.046,0.155 0.107,0.306 0.171,0.456 0.129,0.3 0.303,0.576 0.457,0.862 0.214,0.397 0.545,0.646 0.913,0.861 0.143,0.083 0.31,0.123 0.477,0.163 0.182,0.043 0.345,0.031 0.518,-0.012 0.139,-0.034 0.257,-0.102 0.331,-0.225 0.073,-0.123 0.156,-0.245 0.195,-0.378 0.046,-0.156 -0.001,-0.193 -0.169,-0.198 -0.17,-0.005 -0.341,-0.007 -0.511,-0.016 -0.057,-0.003 -0.118,-0.012 -0.171,-0.035 -0.098,-0.042 -0.118,-0.131 -0.042,-0.203 0.118,-0.113 0.247,-0.215 0.371,-0.321 0.01,-0.008 0.022,-0.018 0.034,-0.019 0.219,-0.014 0.426,-0.11 0.657,-0.069 0.436,0.077 0.808,0.284 1.159,0.541 0.026,0.019 0.053,0.04 0.074,0.064 0.066,0.084 0.045,0.165 -0.063,0.196 -0.145,0.041 -0.294,0.064 -0.445,0.017 -0.043,-0.014 -0.087,-0.03 -0.131,-0.04 -0.129,-0.028 -0.169,0.004 -0.171,0.133 -10e-4,0.038 0.004,0.078 0.004,0.117 -0.001,0.191 0.066,0.262 0.243,0.322 0.465,0.158 0.945,0.091 1.42,0.107 0.341,-0.11 0.646,-0.253 0.815,-0.61 0.094,-0.194 0.106,-0.403 0.176,-0.598 0.01,-0.029 0.019,-0.067 0.011,-0.096 C 14.047,-0.985 14.066,-1.27 13.981,-1.543 13.9,-1.8 13.782,-2.036 13.667,-2.275 c -0.033,-0.069 -0.089,-0.129 -0.141,-0.187 -0.061,-0.069 -0.088,-0.144 -0.072,-0.235 0.03,-0.153 0.134,-0.203 0.27,-0.124 0.181,0.104 0.371,0.195 0.512,0.357 0.025,0.028 0.06,0.051 0.094,0.069 0.076,0.039 0.131,0.004 0.158,-0.065 0.138,-0.347 0.172,-0.694 0.093,-1.069 -0.12,-0.576 -0.533,-0.891 -0.961,-1.206 -0.079,-0.059 -0.158,-0.119 -0.224,-0.189 -0.088,-0.093 -0.064,-0.183 0.058,-0.224 0.108,-0.039 0.218,-0.04 0.322,0.021 0.039,0.024 0.074,0.061 0.117,0.07 0.038,0.008 0.092,-10e-4 0.122,-0.025 0.019,-0.015 0.019,-0.075 0.007,-0.107 -0.056,-0.145 -0.109,-0.293 -0.18,-0.43 -0.054,-0.102 -0.121,-0.204 -0.205,-0.283 -0.2,-0.187 -0.414,-0.364 -0.668,-0.476 C 12.858,-6.427 12.733,-6.445 12.616,-6.482 12.444,-6.536 12.272,-6.597 12.099,-6.649 12,-6.679 11.898,-6.697 11.796,-6.717 11.739,-6.728 11.675,-6.719 11.622,-6.739 11.369,-6.832 11.106,-6.806 10.846,-6.817 10.415,-6.835 10.007,-6.745 9.597,-6.62 9.15,-6.483 8.762,-6.248 8.386,-5.992 8.233,-5.888 8.113,-5.729 7.996,-5.581 7.876,-5.427 7.775,-5.258 7.67,-5.091 7.597,-4.977 7.504,-4.923 7.361,-4.928 7.041,-4.937 6.72,-4.927 6.399,-4.933 6.283,-4.936 6.168,-4.966 6.051,-4.978 5.983,-4.984 5.911,-4.98 5.842,-4.974 c -0.098,0.01 -0.193,0.035 -0.291,0.038 -0.294,0.007 -0.589,0.007 -0.883,0.008 -0.203,0 -0.407,-0.001 -0.6,0.076 -0.024,0.009 -0.052,0.017 -0.077,0.015 -0.386,-0.034 -0.722,0.154 -1.072,0.263 -0.326,0.101 -0.616,0.294 -0.867,0.524 -0.141,0.129 -0.233,0.313 -0.344,0.474 -0.053,0.075 -0.11,0.149 -0.144,0.233 -0.027,0.07 -0.037,0.155 -0.026,0.231 0.017,0.122 0.011,0.227 -0.061,0.335 -0.033,0.05 -0.034,0.142 -0.014,0.204 0.097,0.304 0.109,0.616 0.108,0.932 0,0.075 0.03,0.151 0.042,0.227 0.036,0.237 0.19,0.443 0.182,0.694 -0.002,0.047 0.033,0.096 0.053,0.144 0.099,0.234 0.194,0.471 0.3,0.701 0.098,0.214 0.257,0.36 0.471,0.474 C 2.894,0.746 3.188,0.737 3.476,0.76 3.761,0.783 4.011,0.664 4.223,0.475 4.34,0.37 4.45,0.256 4.564,0.15 4.624,0.095 4.691,0.046 4.773,0.107 4.848,0.161 4.852,0.245 4.822,0.32 4.786,0.41 4.744,0.502 4.682,0.576 4.557,0.726 4.416,0.863 4.284,1.008 4.12,1.187 3.891,1.23 3.675,1.299 3.392,1.388 3.108,1.462 2.823,1.306 2.484,1.295 2.224,1.103 1.958,0.927 1.764,0.8 1.667,0.592 1.576,0.391 1.541,0.314 1.566,0.21 1.561,0.119 1.557,0.055 1.564,-0.017 1.538,-0.07 1.412,-0.335 1.274,-0.594 1.143,-0.856 1.12,-0.901 1.107,-0.952 1.09,-1.001 1.031,-1.18 0.984,-1.363 0.908,-1.535 0.864,-1.634 0.833,-1.728 0.833,-1.834 0.834,-1.931 0.835,-2.03 0.749,-2.129 0.707,-2.098 0.66,-2.076 0.633,-2.04 0.319,-1.617 0.165,-1.121 0.027,-0.626 -0.028,-0.43 0.003,-0.21 0,0 m -0.209,-2.002 c 0.234,-0.325 0.486,-0.632 0.852,-0.823 0.038,-0.02 0.068,-0.077 0.08,-0.123 0.073,-0.283 0.155,-0.566 0.205,-0.854 0.052,-0.3 0.218,-0.531 0.407,-0.746 0.461,-0.524 1.086,-0.775 1.726,-0.991 0.104,-0.035 0.209,-0.072 0.316,-0.095 0.198,-0.042 0.397,-0.078 0.596,-0.11 0.11,-0.018 0.221,-0.025 0.332,-0.032 0.085,-0.005 0.171,0.006 0.255,-0.004 0.409,-0.044 0.816,-0.113 1.225,-10e-4 0.025,0.007 0.052,0.003 0.079,0.004 0.373,0.011 0.746,0.021 1.118,0.034 0.1,0.004 0.183,-0.02 0.244,-0.097 0.046,-0.055 0.088,-0.114 0.125,-0.176 0.135,-0.22 0.3,-0.41 0.522,-0.55 0.11,-0.069 0.218,-0.145 0.317,-0.229 0.355,-0.304 0.782,-0.47 1.215,-0.616 0.197,-0.066 0.401,-0.155 0.624,-0.123 0.029,0.004 0.062,-0.015 0.094,-0.025 0.41,-0.125 0.828,-0.126 1.242,-0.05 0.186,0.034 0.363,0.095 0.557,0.085 0.062,-0.003 0.125,0.033 0.187,0.052 0.05,0.014 0.098,0.035 0.149,0.044 0.285,0.05 0.551,0.148 0.801,0.293 0.114,0.064 0.231,0.122 0.345,0.183 0.053,0.028 0.11,0.048 0.156,0.083 0.246,0.192 0.519,0.346 0.682,0.635 0.148,0.257 0.38,0.468 0.404,0.789 0.002,0.024 0.018,0.049 0.031,0.071 0.107,0.203 0.111,0.418 0.058,0.631 -0.03,0.124 -10e-4,0.213 0.074,0.307 0.078,0.096 0.154,0.196 0.212,0.304 0.082,0.148 0.15,0.303 0.217,0.458 0.113,0.26 0.199,0.525 0.111,0.813 -0.006,0.019 -0.007,0.039 -0.007,0.058 0.005,0.218 -0.104,0.4 -0.187,0.59 -0.072,0.167 -0.191,0.295 -0.321,0.416 -0.061,0.058 -0.112,0.121 -0.045,0.202 0.078,0.095 0.08,0.204 0.077,0.316 -0.002,0.072 -0.009,0.147 0.009,0.215 0.075,0.289 0.011,0.576 -0.029,0.858 -0.025,0.183 -0.077,0.376 -0.21,0.521 -0.15,0.163 -0.312,0.315 -0.468,0.472 -0.315,0.319 -0.717,0.456 -1.144,0.5 C 12.726,1.317 12.422,1.286 12.122,1.271 12.02,1.266 11.918,1.2 11.818,1.207 11.55,1.225 11.323,1.102 11.088,1.012 11.006,0.981 10.953,0.988 10.894,1.038 10.657,1.245 10.374,1.293 10.073,1.286 9.995,1.284 9.915,1.283 9.838,1.288 9.711,1.298 9.595,1.273 9.473,1.236 9.258,1.171 9.067,1.062 8.872,0.957 8.342,0.671 7.921,0.267 7.6,-0.237 7.429,-0.506 7.276,-0.789 7.188,-1.1 7.135,-1.282 7.074,-1.461 7.012,-1.64 6.999,-1.679 6.97,-1.739 6.941,-1.744 6.822,-1.764 6.696,-1.79 6.576,-1.686 c 0.025,0.065 0.041,0.137 0.077,0.196 0.065,0.11 0.101,0.225 0.103,0.353 0,0.045 0.019,0.089 0.025,0.134 0.024,0.167 0.058,0.334 0.067,0.503 C 6.88,0.058 6.802,0.61 6.75,1.163 6.746,1.202 6.739,1.242 6.722,1.276 6.582,1.557 6.449,1.841 6.292,2.112 6.178,2.308 6.049,2.504 5.89,2.664 5.565,2.99 5.19,3.25 4.746,3.398 4.586,3.451 4.426,3.516 4.261,3.542 4.003,3.581 3.741,3.611 3.48,3.61 3.128,3.608 2.777,3.573 2.425,3.552 2.392,3.549 2.359,3.544 2.328,3.533 2.126,3.465 1.925,3.396 1.724,3.325 1.607,3.284 1.496,3.223 1.375,3.197 1.208,3.161 1.074,3.075 0.951,2.965 0.82,2.846 0.692,2.725 0.56,2.606 0.136,2.226 -0.198,1.78 -0.43,1.259 -0.478,1.153 -0.529,1.046 -0.559,0.934 -0.609,0.745 -0.643,0.552 -0.681,0.359 -0.693,0.296 -0.7,0.23 -0.7,0.165 c -0.004,-0.197 -0.006,-0.393 -0.005,-0.59 0.002,-0.26 0.01,-0.514 0.11,-0.768 0.11,-0.281 0.21,-0.564 0.386,-0.809" fill="#181716" transform="matrix(1.33333 0 0 -1.33333 44.252 68.346)"/><path style="mix-blend-mode:multiply" d="M 0,0 C 0.02,0.068 0.029,0.14 0.05,0.208 0.082,0.313 0.111,0.42 0.157,0.518 0.207,0.624 0.247,0.635 0.339,0.577 0.455,0.504 0.58,0.434 0.671,0.336 0.903,0.085 1.208,-0.056 1.488,-0.235 1.913,-0.506 2.372,-0.713 2.83,-0.92 3.172,-1.074 3.535,-1.186 3.89,-1.312 4.024,-1.36 4.163,-1.394 4.3,-1.432 4.363,-1.451 4.395,-1.496 4.362,-1.549 4.201,-1.811 4.29,-2.061 4.414,-2.291 4.522,-2.49 4.66,-2.673 4.874,-2.788 c 0.275,-0.149 0.57,-0.075 0.722,0.198 0.129,0.23 0.197,0.468 0.108,0.73 -0.005,0.016 0.007,0.038 0.014,0.074 0.047,0.006 0.098,0.022 0.145,0.015 C 6.077,-1.8 6.29,-1.83 6.502,-1.871 6.648,-1.9 6.75,-1.985 6.759,-2.15 6.76,-2.182 6.763,-2.218 6.777,-2.246 6.888,-2.46 6.826,-2.665 6.752,-2.871 6.508,-3.55 6.045,-4.01 5.36,-4.23 5.144,-4.298 4.91,-4.31 4.683,-4.333 4.469,-4.354 4.252,-4.374 4.048,-4.271 3.777,-4.306 3.536,-4.18 3.285,-4.119 2.888,-4.022 2.495,-3.904 2.145,-3.677 1.997,-3.58 1.834,-3.509 1.686,-3.413 1.143,-3.064 0.699,-2.62 0.393,-2.046 0.34,-1.947 0.271,-1.856 0.232,-1.754 0.161,-1.568 0.104,-1.376 0.046,-1.185 0.025,-1.117 0.026,-1.041 -0.001,-0.976 -0.14,-0.65 -0.095,-0.325 0,0 M -1.901,2.892 C -1.682,2.607 -1.474,2.311 -1.235,2.044 -0.921,1.695 -0.582,1.367 -0.252,1.032 -0.188,0.966 -0.169,0.904 -0.229,0.825 -0.281,0.758 -0.32,0.68 -0.377,0.617 -0.573,0.4 -0.618,0.123 -0.639,-0.144 -0.67,-0.541 -0.653,-0.942 -0.653,-1.341 c 0.001,-0.058 0.011,-0.118 0.03,-0.173 0.115,-0.32 0.252,-0.627 0.421,-0.925 0.33,-0.582 0.785,-1.042 1.311,-1.437 0.229,-0.172 0.48,-0.318 0.733,-0.454 0.349,-0.189 0.707,-0.366 1.103,-0.439 0.167,-0.031 0.334,-0.052 0.501,-0.078 0.045,-0.007 0.09,-0.017 0.134,-0.028 0.126,-0.029 0.25,-0.07 0.377,-0.086 0.163,-0.021 0.327,-0.027 0.49,-0.03 0.049,-0.002 0.11,0.015 0.144,0.047 0.109,0.1 0.223,0.082 0.348,0.042 0.066,-0.022 0.141,-0.039 0.209,-0.029 0.161,0.022 0.325,0.048 0.478,0.1 0.142,0.048 0.279,0.103 0.43,0.117 0.036,0.003 0.069,0.036 0.104,0.053 0.391,0.193 0.69,0.494 0.952,0.834 0.216,0.281 0.348,0.604 0.354,0.958 0.006,0.314 0.071,0.636 -0.084,0.943 0.036,0.012 0.061,0.03 0.083,0.026 0.322,-0.055 0.625,0.041 0.925,0.132 0.118,0.037 0.234,0.116 0.327,0.202 0.105,0.1 0.055,0.233 -0.087,0.263 -0.057,0.013 -0.117,0.008 -0.175,0.015 -0.129,0.015 -0.259,0.03 -0.388,0.047 -0.085,0.012 -0.169,0.027 -0.253,0.04 -0.18,0.027 -0.361,0.055 -0.542,0.08 C 7.098,-1.098 6.923,-1.078 6.748,-1.06 6.644,-1.049 6.531,-1.065 6.437,-1.03 6.271,-0.969 6.106,-0.961 5.935,-0.963 5.864,-0.964 5.79,-0.96 5.721,-0.946 5.508,-0.908 5.298,-0.864 5.087,-0.821 5.049,-0.813 5.014,-0.795 4.977,-0.783 4.792,-0.723 4.606,-0.662 4.42,-0.602 4.222,-0.539 4.022,-0.483 3.826,-0.411 3.601,-0.328 3.377,-0.237 3.157,-0.139 2.865,-0.01 2.558,0.098 2.292,0.268 1.765,0.606 1.168,0.827 0.69,1.245 0.676,1.257 0.657,1.265 0.639,1.274 0.109,1.565 -0.32,1.996 -0.827,2.32 -0.838,2.327 -0.845,2.338 -0.855,2.347 -1.125,2.594 -1.394,2.842 -1.667,3.086 -1.719,3.133 -1.784,3.172 -1.849,3.198 -1.883,3.21 -1.94,3.196 -1.97,3.172 -1.992,3.156 -1.997,3.1 -1.987,3.068 -1.967,3.006 -1.94,2.943 -1.901,2.892" fill="#181716" transform="matrix(1.33333 0 0 -1.33333 61.664 55.27)"/></g><path style="mix-blend-mode:multiply" d="M 0,0 H 67.294 V 116.026 H 0 Z" fill="none" stroke="#181716" stroke-width="1.605" stroke-miterlimit="10" transform="matrix(1.33333 0 0 -1.33333 1.07 155.771)"/></svg>