<svg xmlns="http://www.w3.org/2000/svg" width="91.865" height="156.841"><path style="mix-blend-mode:multiply" d="m 37.121,171.212 h 67.294 V 287.237 H 37.121 Z" fill="#fff" transform="matrix(1.33333 0 0 -1.33333 -48.425 384.053)"/><g style="mix-blend-mode:multiply"><g style="mix-blend-mode:multiply"><path style="mix-blend-mode:multiply" d="m 0,0 c -0.076,-0.401 -0.143,-0.765 -0.143,-0.831 0,-0.153 -0.003,-0.87 -0.079,-1.075 -0.075,-0.205 -0.432,-1.126 -0.432,-1.278 0,-0.154 -0.359,-1.587 -0.359,-1.587 0,0 -0.409,-1.534 -0.511,-1.689 -0.103,-0.152 -0.205,-0.92 -0.359,-1.227 -0.153,-0.307 -0.46,-1.177 -0.46,-1.177 0,0 -0.563,-1.637 -0.614,-1.791 -0.051,-0.153 -0.614,-0.819 -0.614,-0.971 0,-0.155 -1.075,-1.894 -1.075,-1.894 l -0.715,-0.87 -0.871,-1.074 c 0,0 -0.562,-0.921 -0.716,-1.074 -0.047,-0.048 -0.233,-0.327 -0.466,-0.69 l -1.152,-1.152 -0.806,-0.668 -0.727,-0.452 -0.628,-0.55 -1.017,-0.752 -0.766,-0.412 -1.086,-0.682 -2.254,-0.988 -1.759,-0.6 -0.57,-0.314 -0.957,-0.222 -0.767,-0.348 -1.434,-0.102 -0.717,-0.168 -1.599,-0.163 c -7.541,-0.28 -14.478,1.035 -20.682,3.378 l -2.162,1.15 -2.507,1.279 -1.331,0.767 -1.228,1.125 -0.921,0.973 c 0,0 -0.614,0.972 -0.051,1.432 l 1.637,0.256 -0.025,0.051 c 0.405,-0.052 0.691,-0.102 0.691,-0.102 0,0 1.458,-0.102 2.276,0.742 0.354,0.364 0.017,0.717 -0.179,1.305 l -0.364,0.333 -0.28,0.604 -0.304,0.579 -0.811,1.548 -0.472,1.285 c -0.05,0.319 -0.151,0.911 -0.225,1.023 -0.102,0.154 -0.307,1.382 -0.46,1.534 -0.154,0.154 -0.051,0.768 -0.051,0.973 0,0.204 -0.256,0.972 -0.256,1.125 0,0.154 -0.205,1.484 -0.205,1.484 l -0.103,1.432 0.103,1.536 c 0,0 -0.051,0.716 -0.051,0.869 v 0.717 l 0.358,2.865 0.051,0.767 0.512,1.996 0.256,0.613 0.46,1.382 0.614,1.535 1.075,1.638 c 0,0 0.358,0.818 0.358,1.023 0,0.205 -0.154,1.33 -0.154,1.33 0,0 0.205,1.739 0.205,1.893 0,0.153 0.204,0.767 0.204,0.767 l 0.614,0.358 c 0,0 1.484,-0.05 1.638,-0.204 0.153,-0.154 0.716,0.102 0.716,0.102 0,0 1.483,1.484 1.586,1.637 0.102,0.154 2.047,1.893 2.047,1.893 l 1.381,0.921 1.893,1.331 c 0,0 3.121,1.228 3.223,1.381 0.103,0.154 1.74,0.512 1.74,0.512 0,0 0.927,0.277 1.87,0.569 l 0.333,0.064 1.503,0.265 0.854,0.03 0.746,0.137 2.059,0.015 1.321,-0.152 0.766,-0.118 0.86,-0.025 1.307,-0.167 2.789,-0.746 0.614,-0.271 0.888,-0.289 2.295,-0.948 1.335,-0.727 2.098,-1.325 c 0.804,1.613 1.223,2.359 2.512,3.33 l 1.074,0.818 0.87,0.051 0.409,-0.511 0.409,-1.433 c 0,0 0.154,-1.023 0.154,-1.228 v -1.484 c 0,0 0.153,-0.613 0.153,-0.92 0,-0.307 -0.102,-1.075 -0.102,-1.33 0,-0.257 0.051,-0.717 0,-0.87 -0.051,-0.154 0,-0.614 0,-0.614 0,0 0.559,-0.39 1.002,-0.656 -0.04,-0.592 -0.079,-1.135 -0.11,-1.587 l 0.378,-0.488 1.223,-2.019 0.574,-0.899 0.186,-0.697 0.226,-0.363 0.419,-0.762 0.5,-1.561 L -1.121,8.743 -0.659,7.142 -0.56,6.355 -0.138,4.41 -0.216,3.635 -0.049,3.104 -0.143,2.362 -0.07,1.822 0.019,0.457 Z m 16.814,-6.774 v 14.44 14.442 l 0.008,14.745 -0.156,0.432 -0.159,0.432 0.021,2.378 -0.09,0.205 -0.205,0.089 -2.368,-0.01 h -14.44 -14.441 -14.44 -14.44 l -14.74,0.005 -0.791,-0.093 -1.395,-0.078 -0.143,-0.153 -0.044,-0.25 0.02,-14.166 -0.029,-14.48 -0.064,-0.825 0.039,-0.727 -0.079,-0.629 0.059,-0.486 -0.019,-0.511 0.059,-0.638 0.039,-6.464 -0.114,-0.752 0.109,-0.717 -0.078,-0.49 0.078,-0.683 -0.034,-1.449 0.02,-0.625 0.014,-2.058 v -3.989 -1.531 -8.919 -14.737 l 0.058,-1.119 -0.043,-0.654 -0.021,-1.178 0.168,-0.723 0.103,-0.073 0.118,0.093 0.3,0.62 0.255,0.329 1.356,0.706 1.007,0.466 1.395,0.669 1.39,0.674 0.662,0.22 0.541,0.344 1.257,0.511 1.494,0.57 1.748,0.608 1.071,0.403 1.375,0.393 3.133,0.993 1.622,0.441 0.746,0.138 0.658,0.226 1.739,0.324 0.997,0.181 2.245,0.409 0.859,0.024 0.791,0.093 0.821,0.065 1.124,0.053 0.796,0.089 0.766,0.117 2.333,0.025 0.761,0.123 2.328,0.029 0.757,0.142 0.536,-0.024 0.628,0.014 2.638,0.005 2.082,-0.569 0.928,-0.251 1.1,-0.078 0.885,-0.294 1.002,-0.178 6.006,-1.655 1.101,-0.374 2.524,-1.011 1.475,-0.589 2.946,-1.18 2.967,-1.159 2.024,-0.923 0.549,-0.334 0.973,-0.501 0.535,-0.348 2.339,-1.199 0.702,-0.481 1.144,-0.624 3.026,-2.274 0.654,-0.526 1.036,-1.026 0.972,-0.816 h 0.114 l 0.059,0.172 v 7.388 l 0.057,1.119 0.094,0.791 -0.003,14.446 z" fill="#e30015" fill-rule="evenodd" transform="matrix(1.33333 0 0 -1.33333 75.58 47.698)"/></g><g style="mix-blend-mode:multiply"><path style="mix-blend-mode:multiply" d="m 0,0 -0.762,-0.123 -2.039,-0.025 -1.65,-0.117 -0.677,0.029 -0.629,-0.172 -0.442,0.06 -1.017,-0.098 -1.562,-0.206 -0.796,-0.089 -1.321,-0.153 -0.722,-0.162 -1.783,-0.28 -0.722,-0.162 -1.262,-0.212 -1.234,-0.239 -1.305,-0.463 -0.756,-0.127 -1.337,-0.432 -1.734,-0.329 -0.638,-0.246 -0.708,-0.176 -0.854,-0.325 -0.771,-0.114 -0.619,-0.264 -1.056,-0.419 -0.959,-0.514 -0.908,-0.271 -1.846,-0.805 -1.272,-0.79 -0.904,-0.571 -0.973,-1.385 -0.805,-0.668 -0.098,-0.197 -0.02,-6.169 v -14.44 -14.44 l 0.02,-14.716 0.145,-0.148 0.866,-0.02 0.747,-0.137 1.168,-0.009 h 14.441 14.44 14.441 14.44 14.441 l 1.778,-0.01 0.206,0.088 0.088,0.204 v 0.126 l -0.01,1.36 v 14.441 14.439 l 0.005,14.74 -0.097,0.197 -0.418,0.172 -0.432,0.432 -0.537,0.07 -1.462,0.898 -0.861,0.614 -0.568,0.315 -1.857,1.09 -0.732,0.447 -0.821,0.653 -1.291,0.771 -0.624,0.261 -0.624,0.261 -0.703,0.476 -1.925,1.021 -0.948,0.525 -0.839,0.339 -1.474,0.59 -1.738,0.618 -1.307,0.463 -1.288,0.48 -0.776,0.403 -1.316,0.452 -0.766,0.118 -2.475,0.766 -1.012,0.167 -0.846,0.334 -1.885,0.473 -2.441,0.505 -0.796,0.088 L 8.938,-0.5 7.567,-0.387 6.962,-0.354 5.72,-0.181 4.347,-0.103 2.505,-0.157 1.743,-0.033 Z" fill="#3a3a39" transform="matrix(1.33333 0 0 -1.33333 39.858 84.23)"/></g></g><path style="mix-blend-mode:multiply" d="M 0,0 -1.31,0.111 -2.065,0.004 c -3.96,0.202 -7.897,-0.659 -11.823,-1.135 l -1.356,-0.427 -1.312,-0.169 -1.448,-0.313 -0.791,-0.1 -0.665,-0.141 -0.388,0.005 -1.778,-0.576 -1.563,-0.496 -0.705,-0.182 -0.444,-0.135 -0.766,-0.138 -2.429,-1.098 -1.136,-0.352 -0.77,-0.401 -1.429,-0.585 v -2.28 l 1.206,-0.023 0.77,-0.118 2.121,-0.23 2.691,-0.536 0.645,-0.255 0.74,-0.13 1.073,-0.41 2.12,-0.522 c 3.536,-1.357 5.638,-1.977 8.886,-3.766 l 0.432,-0.427 0.019,-0.095 -0.082,-0.08 -1.656,-0.409 -0.921,-0.254 -2.872,-0.669 -1.573,-0.498 -2.705,-1.124 -1.275,-0.505 -0.56,-0.31 -1.076,-0.395 -0.524,-0.015 -1.789,0.295 -4.703,-0.035 -0.967,-0.202 v -1.105 l 1.393,0.197 1.336,-0.166 0.958,0.079 1.356,-0.094 0.406,-0.166 0.074,-0.097 -0.017,-0.098 -0.969,-0.777 -0.82,-0.645 -1.803,-1.153 -1.634,-1.32 -0.28,-0.267 v -1.436 l 1.249,1.017 0.651,0.524 1.54,1.108 2.298,1.53 2.006,1.224 0.436,0.127 3.012,-0.493 1.664,-0.403 0.739,-0.136 2.041,-0.608 c 4.568,-1.567 7.786,-2.585 11.703,-4.783 l 2.023,-1.242 0.474,-0.115 0.137,0.138 -0.104,0.172 c -5.027,4.487 -12.715,6.572 -19.025,8.438 l -0.025,0.074 0.365,0.418 0.643,0.235 c 4.505,2.186 9.637,3.202 14.629,3.318 l 1.311,0.165 0.768,-0.132 c 7.414,0.351 13.346,-2.228 19.935,-5.369 l 1.475,-0.87 0.376,-0.423 -0.023,-0.074 -0.155,-0.072 C 12.869,-22.83 6.882,-25.614 1.609,-29.061 l -1.175,-0.871 -1.38,-0.36 -1.749,-0.083 c -4.597,-0.639 -9.193,-1.459 -13.641,-2.806 l -0.743,-0.111 -0.664,0.206 c -1.335,0.929 -4.921,2.249 -6.558,2.885 l -2.517,0.728 -3.296,0.837 -0.754,0.122 v -1.216 l 2.461,-0.534 3.386,-1.03 3.673,-1.33 1.018,-0.465 0.653,-0.223 0.811,-0.37 0.066,-0.133 -0.043,-0.133 c -2.388,-1.707 -5.627,-1.933 -7.827,-3.961 l -0.595,-0.257 -3.603,-0.582 v -1.166 l 0.531,0.026 0.22,-0.028 0.035,-0.036 -0.505,-0.538 -0.281,-0.247 v -1.203 l 2.161,1.609 1.269,0.779 c 3.235,0.702 6.731,0.59 10.04,0.533 l 2.03,-0.025 1.8,-0.266 c 5.55,-0.451 11.065,-1.437 16.293,-3.427 l 1.221,-0.562 0.042,-0.067 -0.024,-0.021 -0.639,-0.014 c -3.702,0.145 -6.767,-0.194 -10.486,-0.733 l -2.872,-0.671 -0.624,-0.248 c -3.935,-0.588 -12.268,-4.923 -14.695,-7.804 l -0.032,-0.25 0.153,-0.153 0.222,0.051 0.789,0.739 c 6.097,4.489 13.459,7.084 20.973,7.855 l 7.623,-0.028 0.77,-0.124 c 4.26,0.434 7.691,-2.579 10.875,-4.992 l 1.356,-0.997 3.075,-2.506 h 1.186 l -0.001,0.002 -0.788,0.681 c -6.718,6.828 -15.641,11.126 -24.932,13.131 l -1.674,0.393 -1.271,0.201 -2.258,0.398 c -2.568,0.058 -4.764,0.797 -7.1,0.56 l -1.297,0.192 -0.008,0.002 -0.996,-0.129 -0.47,0.107 -0.012,0.002 -0.729,-0.113 -0.694,0.092 -0.009,0.001 -0.764,-0.123 -1.438,0.037 -0.499,0.099 -0.598,-0.035 -0.005,0.045 0.241,0.304 c 1.99,1.252 4.277,1.854 6.46,2.654 l 0.506,0.005 2.201,-1.035 c 1.294,-0.494 2.35,-1.423 3.491,-2.149 l 0.26,-0.01 0.152,0.153 -0.059,0.218 -0.991,0.851 -1.03,0.744 -1.1,0.668 -0.895,0.564 -0.263,0.313 -0.025,0.175 0.075,0.146 0.382,0.183 0.967,0.224 1.031,0.43 3.839,0.868 1.059,0.118 c 2.622,0.421 5.284,-0.572 7.606,-1.683 l 0.897,-0.265 3.394,-1.894 0.643,-0.535 0.88,-0.31 c 3.193,-2.022 6.775,-4.127 9.726,-6.474 l 0.982,-0.795 0.709,-0.456 c 2.987,-2.344 5.614,-4.35 8.398,-6.924 l 1.635,-1.605 0.025,-0.026 h 0.923 l -0.012,0.035 -0.88,0.943 c -3.775,3.492 -7.508,7.099 -11.702,10.11 l -2.58,1.833 -0.488,0.409 -0.907,0.556 -0.66,0.529 -1.112,0.652 -2.116,1.408 -0.609,0.57 -1.025,0.464 -1.263,0.808 -0.587,0.287 -0.537,0.358 -1.975,0.973 -1.206,0.565 -1.02,0.435 -0.513,0.38 -0.047,0.093 0.037,0.057 0.693,0.155 0.807,-0.056 2.011,-0.638 1.278,-0.486 0.623,-0.265 0.644,-0.241 1.532,-0.525 1.61,-0.738 3.332,-1.968 0.542,-0.359 0.616,-0.256 0.921,-0.541 0.999,-0.78 0.553,-0.32 1.318,-1.05 0.897,-0.565 0.801,-0.674 0.661,-0.523 1.037,-0.722 0.639,-0.55 0.687,-0.483 1.581,-1.373 0.847,-0.613 c 1.51,-1.667 3.636,-2.608 5.107,-4.32 l 1.607,-1.671 0.18,-0.107 1.05,-0.923 0.088,0.086 -0.894,1.081 -0.423,0.482 c -2.462,3.044 -5.67,5.664 -8.719,8.092 l -0.64,0.539 -3.467,2.721 c -3.34,2.667 -7.138,5.25 -11.006,7.007 l -0.083,0.129 0.022,0.097 0.157,0.069 0.82,-0.056 2.097,-0.548 1.288,-0.467 1.131,-0.632 1.271,-0.799 1.737,-0.911 1.292,-0.763 0.699,-0.483 c 1.779,-1.193 3.794,-2.347 5.5,-3.634 l 1.036,-0.723 0.633,-0.552 1.511,-1.138 0.636,-0.55 0.684,-0.486 2.083,-1.741 0.592,-0.6 0.499,-0.373 0.5,-0.666 0.897,-0.593 c 1.471,-1.197 2.752,-2.524 4.102,-3.838 l 0.266,-0.357 0.237,-0.118 0.217,0.065 0.05,0.216 c -6.768,7.65 -13.845,13.314 -22.45,18.633 l -0.115,0.105 0.009,0.064 0.128,0.045 c 8.416,-3.041 15.773,-8.499 22.295,-14.504 l 0.162,-0.123 v 0.845 l -0.607,0.613 -1.492,1.463 -0.809,0.661 -2.006,1.829 -0.808,0.67 -1.02,0.746 -1.314,1.055 -0.744,0.423 -1.985,1.562 -1.469,0.871 -0.783,0.714 -0.193,0.162 1.629,-0.556 c 4.159,-1.348 7.313,-4.423 10.971,-6.685 l 0.63,-0.5 v 0.849 l -0.97,0.811 -1.051,0.708 c -9.22,6.639 -20.455,11.14 -31.884,11.14 l -0.38,-0.014 -0.076,0.06 v 0.099 c 3.435,2.69 8.946,5.001 13.29,6.073 l 2.101,0.26 1.249,0.216 c 3.973,0.584 4.847,-1.897 7.805,-4.22 l 0.845,-0.92 0.563,-0.647 1.284,-1.611 0.1,0.071 -1.125,1.777 -1.569,1.997 -0.597,0.892 -0.863,0.901 -0.682,0.791 -0.568,0.35 -0.094,0.132 0.017,0.156 0.111,0.14 0.406,0.166 3.197,0.014 0.662,-0.194 c 2.363,-2.5 4.685,-4.557 6.929,-7.186 l 1.106,-1.253 0.194,-0.211 v 1.067 l -1.132,1.443 -1.303,1.342 -0.537,0.646 -0.554,0.623 -1.129,1.236 -1.361,1.304 -0.095,0.152 0.016,0.083 0.447,0.089 0.791,-0.099 0.86,-0.331 1.465,-0.311 0.813,-0.063 1.719,-0.616 v 0.469 l -1.505,0.736 -1.673,0.702 -0.992,0.18 -1.838,0.526 -1.976,0.372 -0.38,0.183 -1.02,0.753 -0.526,0.351 -0.505,0.385 -3.339,2.266 -0.922,0.543 -0.69,0.497 -0.029,0.106 0.082,0.074 c 4.409,0.378 10.314,-1.004 14.309,-2.376 l 1.004,-0.425 v 0.773 l -0.529,0.2 -2.434,0.798 -0.616,0.278 -1.344,0.421 -2.633,0.905 -1.427,0.056 -1.965,0.403 -1.426,0.039 -0.772,0.123 -3.837,-0.015 -0.723,-0.13 -0.67,0.189 c -5.25,2.615 -10.685,4.122 -16.422,5.108 l -0.704,0.157 -0.032,0.042 0.206,0.221 c 10.166,4.515 26.032,-0.126 34.904,-5.601 l 0.424,-0.278 v 1.015 L 35.42,-15 l -2.043,1.198 c -6.989,3.895 -15.152,5.469 -23.068,5.854 L 8.266,-7.977 7.507,-8.095 6.094,-8.156 l -0.506,-0.09 -0.466,0.088 -2.347,1.48 -2.075,1.17 -1.988,0.964 -0.84,0.333 -0.593,0.295 -0.616,0.263 -0.787,0.401 -1.063,0.407 -1.456,0.617 -0.917,0.262 -0.258,0.207 0.021,0.067 0.368,0.174 1.795,0.196 2.354,0.004 2.459,-0.767 0.887,-0.302 0.713,-0.152 2.428,-1.104 2.654,-1.475 1.956,-0.984 0.926,-0.544 0.742,-0.478 0.237,-0.042 0.142,0.141 -0.291,0.326 -1.148,0.952 -2.019,1.217 -0.53,0.36 -0.925,0.543 -0.701,0.491 -1.178,0.59 -2.21,1.038 -0.123,0.125 -0.019,0.102 0.079,0.081 0.512,0.06 C 7.948,-1.388 14.349,-3.316 20.6,-5.414 l 0.629,-0.269 0.703,-0.169 c 4.499,-1.54 8.58,-4.05 12.626,-6.512 l 1.062,-0.714 0.807,-0.448 v 0.961 l -1.286,0.812 -1.859,1.395 c -4.018,2.49 -7.85,4.47 -12.403,5.884 l -2.624,0.914 -1.341,0.422 -1.264,0.512 -0.922,0.261 -0.723,0.156 -1.822,0.522 -0.503,0.096 -1.537,0.538 -5.58,0.915 L 3.124,-0.114 2.475,0.089 2.464,0.093 1.57,0.074 0.761,0.121 Z m -1.033,-9.166 -0.67,0.217 -2.945,1.775 -2.136,1.106 -1.182,0.59 -3.286,1.422 -0.768,0.428 -2.226,0.725 -0.173,0.109 -0.043,0.079 0.064,0.064 1.145,0.321 2.009,-0.023 2.501,-0.44 2.321,-0.616 1.262,-0.507 2.969,-1.153 1.214,-0.548 c 1.258,-0.77 3.293,-1.518 4.406,-2.346 L 3.889,-8.438 4.004,-8.52 2.092,-9.037 0.77,-9.494 0.212,-9.82 0.03,-9.838 Z m -2.633,-1.739 -0.534,0.347 c -5.516,2.856 -9.964,5.204 -16.221,6.509 l -0.044,0.043 0.031,0.027 0.702,0.185 c 1.735,0.675 7.951,-0.917 9.595,-1.862 l 1.329,-0.43 1.79,-0.859 0.594,-0.297 0.616,-0.263 1.184,-0.584 2.779,-1.332 0.542,-0.589 0.003,-0.132 -0.26,-0.269 -0.941,-0.516 -0.731,-0.118 z m -21.514,5.371 v 0.009 l 1.047,0.376 0.885,-0.048 1.781,-0.156 0.979,-0.207 0.787,-0.086 1.89,-0.478 1.049,-0.116 2.927,-0.898 4.401,-1.788 3.36,-1.341 1.84,-1.116 0.091,-0.098 -0.003,-0.073 -0.528,-0.306 -1.726,-0.889 -0.362,0.068 -1.069,0.402 -1.088,0.691 -3.484,1.521 -2.707,1.419 -0.776,0.396 -0.364,0.225 -0.928,0.266 -0.637,0.251 -3.304,1.127 -1.736,0.324 -0.553,0.258 -0.015,0.006 -0.706,-0.07 z m 15.432,-8.663 -0.789,0.379 -0.421,0.18 -1.35,0.723 -3.621,1.692 -0.657,0.219 -1.845,0.819 -0.903,0.267 -1.261,0.513 c -2.786,0.933 -5.582,1.953 -8.54,2.095 l -0.157,0.074 -0.04,0.082 0.053,0.098 0.412,0.159 c 3.995,0.407 9.21,-0.962 12.824,-2.446 l 1.01,-0.459 2.733,-1.41 0.93,-0.238 2.047,-0.891 0.58,-0.318 1.304,-0.466 0.099,-0.122 v -0.126 l -0.301,-0.238 -0.542,-0.35 -0.344,-0.234 -0.643,-0.157 z m 3.17,-0.215 -0.005,0.004 1.494,0.996 1.322,0.721 c 4.078,1.174 9.534,-0.664 13.526,-1.66 l 1.398,-0.361 2.767,-1.06 c 4.021,-1.836 8.176,-3.525 11.654,-6.317 l 0.085,-0.136 -0.02,-0.099 -0.358,-0.168 -0.806,-0.041 -1.051,0.149 h -1.463 l -0.626,0.227 -3.089,1.928 -3.958,1.943 -2.063,0.876 -0.587,0.308 -2.816,1.017 -1.107,0.368 -1.137,0.346 -0.994,0.176 -0.899,0.291 c -3.191,0.535 -6.724,0.27 -9.836,0.481 l -0.011,0.002 -0.741,-0.138 z" fill="#181716" transform="matrix(1.33333 0 0 -1.33333 42.227 84.755)"/><g style="mix-blend-mode:multiply"><path style="mix-blend-mode:multiply" d="M 0,0 C 0.001,-0.305 0.001,-0.61 -0.002,-0.916 -0.003,-1.012 -0.01,-1.141 -0.017,-1.27 -0.025,-1.396 -0.032,-1.52 -0.033,-1.614 -0.035,-1.746 -0.057,-1.864 -0.079,-1.989 -0.102,-2.118 -0.127,-2.252 -0.127,-2.402 v -0.061 h 0.016 C -0.12,-2.566 -0.154,-2.672 -0.192,-2.78 l -0.429,0.364 c -0.578,0.789 -2.905,3.069 -3.852,3.548 L -5.091,1.59 c 0.071,0.096 0.141,0.194 0.211,0.29 0.104,0.145 0.208,0.29 0.314,0.434 0.108,0.146 0.217,0.292 0.327,0.437 0.194,0.259 0.395,0.527 0.583,0.796 0.217,0.309 0.431,0.559 0.654,0.764 0.174,0.16 0.378,0.344 0.588,0.517 0.272,0.222 0.536,0.38 0.805,0.479 0.261,0.099 0.473,0.058 0.66,-0.125 0.044,-0.041 0.089,-0.083 0.134,-0.122 0.142,-0.128 0.277,-0.249 0.342,-0.42 0.221,-0.588 0.428,-1.232 0.44,-1.957 L -0.031,2.442 C -0.029,2.268 -0.028,2.086 -0.023,1.927 -0.013,1.633 -0.006,1.339 -0.002,1.045 0.001,0.842 0.001,0.639 0,0.436 Z m -48.062,-36.311 c 0.047,0.055 0.145,0.168 0.819,0.168 0.478,0 1.162,-0.058 2.031,-0.174 0.157,-0.02 0.325,-0.031 0.497,-0.031 0.855,0 1.892,0.274 2.278,0.887 0.353,0.561 -0.296,1.459 -0.769,2.115 -0.089,0.123 -0.17,0.235 -0.231,0.325 l -1.009,1.925 c -3.145,7.22 -2.98,15.721 0.703,22.713 l 0.067,0.128 c 0.027,-0.099 0.054,-0.198 0.082,-0.296 l 0.061,-0.218 c 0.029,-0.105 0.056,-0.212 0.082,-0.319 0.06,-0.242 0.122,-0.492 0.223,-0.723 0.196,-0.449 0.44,-0.924 0.746,-1.455 0.138,-0.239 0.297,-0.469 0.451,-0.69 0.098,-0.141 0.195,-0.281 0.288,-0.425 0.305,-0.472 0.578,-0.801 0.887,-1.066 0.143,-0.123 0.285,-0.255 0.422,-0.382 0.091,-0.085 0.181,-0.169 0.274,-0.252 0.085,-0.078 0.181,-0.156 0.292,-0.239 0.052,-0.04 0.107,-0.059 0.162,-0.059 0.051,0 0.101,0.017 0.147,0.05 0.099,0.069 0.142,0.174 0.117,0.285 -0.02,0.093 -0.05,0.177 -0.088,0.254 -0.098,0.194 -0.201,0.382 -0.288,0.539 -0.263,0.474 -0.514,0.859 -0.863,1.326 -0.128,0.205 -0.435,0.809 -0.601,1.153 -0.06,0.121 -0.122,0.24 -0.183,0.36 -0.128,0.247 -0.261,0.504 -0.36,0.766 -0.14,0.363 -0.25,0.744 -0.359,1.114 -0.032,0.113 -0.065,0.226 -0.103,0.348 -0.146,0.317 -0.219,0.559 -0.302,0.838 -0.033,0.108 -0.066,0.222 -0.107,0.343 -0.099,0.308 -0.156,0.745 -0.196,1.092 -0.028,0.25 -0.044,0.499 -0.058,0.798 l -0.005,0.101 c -0.01,0.197 -0.021,0.4 -0.006,0.596 0.01,0.121 0.014,0.232 0.02,0.341 0.01,0.211 0.02,0.41 0.058,0.641 0.023,0.129 0.093,0.261 0.156,0.373 0.072,0.124 0.25,0.26 0.398,0.243 0.137,-0.014 0.281,-0.033 0.402,-0.084 l 0.22,-0.092 c 0.373,-0.156 0.758,-0.316 1.115,-0.512 0.122,-0.067 0.247,-0.129 0.372,-0.19 0.267,-0.134 0.519,-0.26 0.755,-0.432 0.634,-0.464 1.167,-1.019 1.603,-1.502 0.197,-0.217 0.432,-0.462 0.645,-0.672 0.458,-0.453 0.847,-0.971 1.199,-1.463 0.073,-0.105 0.146,-0.21 0.218,-0.315 0.087,-0.127 0.174,-0.254 0.265,-0.378 0.032,-0.045 0.113,-0.109 0.176,-0.109 l 0.024,0.002 0.012,0.006 c 0.071,0.032 0.121,0.1 0.166,0.167 0.03,0.044 0.028,0.101 0.026,0.15 -10e-4,0.06 -0.002,0.118 -0.003,0.177 -0.002,0.168 -0.005,0.342 -0.02,0.514 -0.035,0.403 -0.186,0.776 -0.445,1.11 -0.2,0.258 -0.374,0.531 -0.502,0.74 -0.653,1.068 -1.415,1.875 -2.398,2.543 -0.177,0.12 -0.356,0.247 -0.534,0.376 -0.144,0.103 -0.29,0.205 -0.437,0.308 l 0.434,0.533 0.678,0.521 0.698,0.758 c 6.817,5.867 16.735,7.879 25.189,4.779 L -11.587,3.83 -9.301,2.885 C -3.812,0.19 0.583,-4.479 3.058,-10.034 l 0.412,-0.748 0.501,-1.56 0.66,-2.27 0.1,-0.794 0.418,-1.932 -0.078,-0.78 0.167,-0.529 -0.092,-0.724 -0.001,-0.011 0.075,-0.545 0.088,-1.357 L 5.237,-22.999 5.07,-23.629 5.066,-23.644 5.13,-24.089 4.418,-27.452 4.177,-28.1 3.972,-28.775 3.152,-31.18 2.33,-32.721 2.046,-33.316 1.53,-34.263 0.496,-35.854 c -1.726,-1.721 -2.804,-3.938 -5.278,-5.328 l -0.624,-0.545 -1.007,-0.746 c -2.498,-1.547 -5.261,-2.754 -8.162,-3.275 l -1.49,-0.231 -0.703,-0.165 -0.932,-0.051 -0.526,-0.062 c 0,0 -0.015,-0.002 -0.023,-0.003 -0.013,-0.002 -0.026,-0.005 -0.023,-0.005 -0.233,-0.014 -0.457,-0.029 -0.674,-0.044 -0.59,-0.04 -1.145,-0.077 -1.787,-0.077 -0.349,0 -0.697,0.011 -1.064,0.033 -0.142,0.009 -0.339,0.015 -0.544,0.02 -0.268,0.008 -0.545,0.016 -0.734,0.032 -0.269,0.022 -0.692,0.032 -1.139,0.044 -0.594,0.015 -1.207,0.032 -1.569,0.075 -1.525,0.179 -2.353,0.351 -3.724,0.636 -0.269,0.056 -0.557,0.116 -0.875,0.181 -0.153,0.032 -0.441,0.071 -0.744,0.112 -0.325,0.045 -0.66,0.091 -0.823,0.126 l -0.433,0.095 c -0.66,0.143 -1.283,0.279 -1.953,0.45 -2.425,0.625 -4.441,1.307 -6.741,2.282 -1.736,0.736 -3.526,1.79 -4.79,2.819 -1.551,1.264 -2.326,2.153 -2.371,2.716 -0.016,0.212 0.079,0.347 0.175,0.454 m 1.19,-3.928 c 1.292,-1.048 2.92,-2.253 5.186,-3.235 1.447,-0.626 2.817,-1.151 4.076,-1.558 0.12,-0.039 0.32,-0.077 0.513,-0.115 0.177,-0.034 0.36,-0.07 0.467,-0.103 1.674,-0.517 3.296,-0.862 5.013,-1.226 l 0.179,-0.038 c 0.261,-0.055 0.524,-0.115 0.79,-0.176 0.473,-0.108 0.961,-0.219 1.43,-0.303 1.173,-0.208 2.239,-0.263 3.269,-0.317 0.545,-0.029 1.108,-0.059 1.683,-0.109 0.38,-0.034 1.027,-0.079 1.504,-0.112 1.291,-0.085 2.458,-0.072 3.344,-0.08 0.165,-0.001 0.322,-0.002 0.475,-0.002 0.556,0 1.037,0.016 1.588,0.102 l 0.358,0.131 0.211,-0.023 c 7.462,1.007 14.391,5.367 18.532,11.646 l 0.467,0.713 1.014,1.659 c 4.217,9.15 4.38,17.289 -0.415,26.419 l -0.413,0.488 -1.377,2.096 c 0,0.058 -0.001,0.114 -0.003,0.175 -0.003,0.108 -0.005,0.197 -0.003,0.241 0.008,0.168 0.015,0.336 0.023,0.505 0.013,0.289 0.026,0.578 0.043,0.867 0.007,0.123 0.02,0.248 0.032,0.372 0.011,0.104 0.022,0.206 0.03,0.31 0.011,0.153 0.02,0.306 0.03,0.458 0.009,0.166 0.019,0.334 0.032,0.501 0.012,0.166 0.026,0.331 0.04,0.496 0.015,0.194 0.031,0.387 0.045,0.58 0.012,0.171 0.018,0.339 0.025,0.509 0.006,0.125 0.01,0.247 0.017,0.371 C 1.336,1.049 1.341,1.094 1.348,1.14 1.356,1.21 1.366,1.283 1.364,1.356 1.356,1.668 1.342,1.98 1.329,2.293 L 1.318,2.55 C 1.314,2.641 1.308,2.734 1.3,2.826 1.269,3.181 1.18,3.528 1.094,3.862 1.052,4.023 1.01,4.185 0.974,4.348 0.874,4.811 0.676,5.242 0.484,5.659 0.445,5.744 0.406,5.827 0.368,5.912 0.317,6.025 0.263,6.051 0.197,6.074 0.158,6.088 0.125,6.099 0.078,6.158 0.035,6.211 -0.002,6.263 -0.036,6.313 -0.161,6.488 -0.278,6.653 -0.541,6.7 -1.235,6.824 -1.848,6.688 -2.375,6.294 -2.615,6.113 -2.87,5.942 -3.118,5.778 L -3.18,5.736 C -3.469,5.541 -3.744,5.307 -3.994,5.038 L -4.209,4.809 C -4.394,4.612 -4.586,4.409 -4.769,4.202 -4.954,3.993 -5.094,3.814 -5.21,3.64 -5.48,3.238 -5.744,2.823 -6.001,2.422 l -0.09,-0.141 -0.658,0.41 c -9.495,6.174 -22.872,5.003 -31.334,-2.476 l -2.202,-2.195 c -0.03,0.014 -0.061,0.034 -0.091,0.044 -0.272,0.102 -0.546,0.198 -0.821,0.295 l -0.104,0.036 c -0.406,0.143 -0.804,0.271 -1.19,0.271 -0.073,0 -0.145,-0.004 -0.206,-0.013 -0.147,0 -0.206,-0.009 -0.269,-0.02 -0.04,-0.005 -0.08,-0.012 -0.149,-0.016 -0.359,-0.022 -0.596,-0.205 -0.79,-0.614 -0.353,-0.369 -0.309,-0.724 -0.265,-1.066 0.025,-0.207 -0.006,-0.366 -0.04,-0.534 -0.024,-0.121 -0.049,-0.247 -0.057,-0.4 -0.007,-0.147 0.031,-0.336 0.068,-0.518 0.031,-0.158 0.061,-0.306 0.063,-0.422 0.003,-0.34 0.025,-0.756 0.042,-1.038 0.009,-0.144 0.031,-0.284 0.068,-0.417 0.044,-0.159 0.051,-0.297 0.056,-0.439 l -0.464,-0.786 -0.667,-1.392 c -1.56,-3.002 -2.255,-6.446 -2.386,-9.809 l -0.099,-1.011 0.02,-1.214 c 0.07,-3.645 0.637,-6.85 2.188,-10.144 l 0.272,-0.929 0.388,-0.72 -0.028,0.002 0.09,-0.138 c 0.266,-0.406 0.556,-0.973 0.674,-1.32 0.147,-0.436 0.106,-0.639 0.106,-0.639 h 0.004 c -0.012,-0.019 -0.016,-0.038 -0.019,-0.056 -0.008,-0.044 -0.031,-0.176 -0.554,-0.176 -0.196,0 -0.441,0.019 -0.728,0.058 -0.443,0.058 -0.93,0.064 -1.402,0.069 -0.155,0.003 -0.305,0.004 -0.449,0.008 -0.614,0.015 -1.198,-0.048 -1.638,-0.183 -0.052,-0.016 -0.121,-0.022 -0.194,-0.03 -0.111,-0.012 -0.227,-0.024 -0.312,-0.072 -0.289,-0.163 -0.506,-0.392 -0.643,-0.683 -0.22,-0.463 -0.11,-0.955 0.364,-1.642 0.522,-0.755 1.436,-1.678 2.575,-2.601" fill="#181716" transform="matrix(1.33333 0 0 -1.33333 68.44 18.707)"/><path style="mix-blend-mode:multiply" d="M 0,0 C -0.02,-0.123 -0.04,-0.251 -0.07,-0.373 -0.13,-0.614 -0.207,-0.869 -0.314,-1.174 -0.418,-1.47 -0.526,-1.777 -0.663,-2.06 -0.749,-2.235 -0.859,-2.402 -0.968,-2.565 -1.009,-2.627 -1.051,-2.691 -1.091,-2.753 -1.107,-2.778 -1.135,-2.801 -1.163,-2.825 l -0.013,-0.01 c -0.028,-0.025 -0.078,-0.052 -0.13,10e-4 -0.055,0.058 -0.11,0.117 -0.141,0.181 -0.335,0.709 -0.562,1.318 -0.576,1.995 -0.004,0.185 -0.029,0.372 -0.052,0.536 -0.01,0.072 -0.02,0.14 -0.026,0.2 -0.003,0.227 0.098,0.269 0.209,0.281 0.214,0.022 0.429,0.044 0.643,0.065 0.254,0.025 0.508,0.051 0.761,0.078 0.135,0.014 0.268,0.029 0.396,0.061 0.017,0.004 0.033,0.007 0.05,0.007 0.044,0 0.079,-0.015 0.101,-0.043 C 0.083,0.495 0.089,0.451 0.076,0.398 0.042,0.266 0.021,0.131 0,0 m -4.265,-1.229 c -0.036,-0.123 -0.068,-0.248 -0.098,-0.373 -0.025,-0.104 -0.05,-0.208 -0.08,-0.311 -0.095,-0.339 -0.272,-0.671 -0.538,-1.013 -0.079,-0.1 -0.16,-0.205 -0.247,-0.299 -0.119,-0.132 -0.163,-0.137 -0.263,0.009 -0.115,0.164 -0.192,0.3 -0.245,0.43 -0.149,0.367 -0.305,0.758 -0.43,1.153 -0.074,0.234 -0.116,0.484 -0.158,0.726 l -0.017,0.105 c -0.044,0.254 -0.078,0.513 -0.112,0.764 L -6.48,0.168 c -0.012,0.08 -0.015,0.145 -0.011,0.202 0.011,0.148 0.061,0.197 0.199,0.197 l 0.174,-0.008 v 0.007 c 0.068,-0.01 0.137,-0.02 0.207,-0.029 0.209,-0.029 0.425,-0.059 0.639,-0.081 0.243,-0.026 0.486,-0.045 0.728,-0.063 0.109,-0.009 0.219,-0.017 0.329,-0.027 l 0.026,-0.001 0.046,-0.004 c 0.151,-0.026 0.214,-0.113 0.189,-0.263 -0.06,-0.39 -0.159,-0.811 -0.311,-1.327 m -8.624,2.894 c 0.027,0 0.055,-0.001 0.082,-0.002 0.029,0 0.059,-0.002 0.087,-0.002 h 0.055 l 10e-4,0.013 0.152,-0.022 c 0.154,-0.022 0.309,-0.044 0.463,-0.069 l 0.205,-0.033 c 0.224,-0.034 0.456,-0.07 0.681,-0.118 0.246,-0.053 0.493,-0.117 0.732,-0.178 0.125,-0.031 0.247,-0.062 0.372,-0.092 C -9.987,1.143 -9.914,1.13 -9.843,1.121 -9.759,1.109 -9.674,1.1 -9.589,1.09 -9.331,1.063 -9.064,1.034 -8.812,0.947 -8.726,0.917 -8.635,0.908 -8.546,0.899 -8.504,0.893 -8.459,0.889 -8.416,0.882 -8.311,0.864 -8.25,0.837 -8.222,0.796 -8.194,0.755 -8.193,0.684 -8.219,0.573 -8.248,0.444 -8.266,0.312 -8.285,0.184 -8.292,0.125 -8.301,0.066 -8.31,0.009 l -0.062,-0.39 C -8.401,-0.56 -8.429,-0.741 -8.458,-0.92 l -0.06,-0.39 c -0.027,-0.174 -0.054,-0.346 -0.081,-0.519 -0.011,-0.065 -0.02,-0.13 -0.029,-0.196 -0.021,-0.151 -0.043,-0.307 -0.079,-0.457 -0.129,-0.535 -0.272,-1.07 -0.382,-1.476 -0.018,-0.064 -0.046,-0.124 -0.077,-0.188 -0.021,-0.043 -0.043,-0.087 -0.059,-0.131 -0.055,-0.139 -0.106,-0.278 -0.159,-0.417 -0.1,-0.266 -0.203,-0.541 -0.317,-0.805 -0.239,-0.554 -0.499,-1.109 -0.726,-1.585 -0.05,-0.104 -0.124,-0.203 -0.197,-0.298 l -0.037,-0.049 c -0.062,-0.082 -0.156,-0.131 -0.252,-0.131 -0.087,0 -0.159,0.041 -0.205,0.116 -0.116,0.191 -0.178,0.368 -0.243,0.553 -0.052,0.148 -0.106,0.3 -0.19,0.466 -0.074,0.149 -0.127,0.336 -0.177,0.517 -0.027,0.095 -0.053,0.189 -0.081,0.273 -0.109,0.323 -0.221,0.671 -0.311,1.026 -0.028,0.109 -0.078,0.199 -0.125,0.286 -0.051,0.093 -0.099,0.181 -0.119,0.287 -0.03,0.157 -0.028,0.342 -0.028,0.52 10e-4,0.169 0.002,0.345 -0.022,0.501 -0.087,0.535 -0.215,1.055 -0.339,1.557 -0.01,0.044 -0.022,0.095 -0.026,0.145 -0.036,0.464 -0.11,0.928 -0.182,1.378 l -0.041,0.259 c -0.043,0.279 -0.071,0.566 -0.098,0.844 -0.009,0.099 -0.02,0.2 -0.03,0.3 -0.013,0.126 0.024,0.175 0.145,0.193 0.032,0.005 0.063,0.006 0.096,0.006 m -2.169,-3.696 c 0,0.087 -0.007,0.176 -0.012,0.265 -0.006,0.074 -0.011,0.15 -0.012,0.224 -0.003,0.115 0.001,0.224 0.013,0.324 0.026,0.211 0.054,0.424 0.082,0.635 0.029,0.223 0.058,0.446 0.085,0.67 0.036,0.3 0.113,0.533 0.24,0.73 0.018,0.027 0.053,0.056 0.07,0.062 0.016,-0.01 0.044,-0.047 0.051,-0.078 0.014,-0.058 0.019,-0.118 0.026,-0.181 0.003,-0.049 0.007,-0.097 0.016,-0.145 0.026,-0.155 0.056,-0.31 0.084,-0.466 0.05,-0.271 0.101,-0.551 0.142,-0.829 l 0.004,-0.03 c 0.072,-0.483 0.145,-0.981 0.289,-1.46 0.016,-0.051 0.023,-0.104 0.031,-0.161 l 0.052,-0.329 c 0.036,-0.233 0.072,-0.468 0.107,-0.702 0.01,-0.065 0.02,-0.132 0.031,-0.197 0.029,-0.188 0.061,-0.383 0.066,-0.573 0.008,-0.33 0.104,-0.641 0.197,-0.942 0.031,-0.103 0.063,-0.207 0.092,-0.31 0.022,-0.086 0.04,-0.176 0.056,-0.263 0.027,-0.142 0.053,-0.29 0.111,-0.428 0.076,-0.185 0.163,-0.369 0.248,-0.545 0.058,-0.121 0.116,-0.243 0.17,-0.364 0.058,-0.128 0.112,-0.257 0.166,-0.386 0.077,-0.181 0.157,-0.369 0.242,-0.551 0.088,-0.183 0.195,-0.397 0.337,-0.587 0.393,-0.532 0.964,-0.661 1.571,-0.357 0.222,0.112 0.41,0.258 0.557,0.436 0.189,0.228 0.376,0.458 0.563,0.686 l 0.172,0.211 c 0.289,0.353 0.481,0.755 0.616,1.065 0.039,0.09 0.082,0.179 0.124,0.268 0.053,0.11 0.107,0.224 0.155,0.341 0.071,0.172 0.134,0.35 0.196,0.523 l 0.177,0.484 c 0.099,0.272 0.201,0.544 0.296,0.818 0.125,0.36 0.237,0.711 0.334,1.021 0.026,0.08 0.045,0.142 0.113,0.181 L -7.177,-3 c 0.037,-0.043 0.073,-0.089 0.106,-0.135 0.086,-0.121 0.171,-0.242 0.256,-0.364 0.171,-0.245 0.347,-0.499 0.528,-0.743 0.1,-0.136 0.225,-0.266 0.363,-0.377 0.25,-0.203 0.556,-0.235 0.879,-0.088 0.159,0.074 0.315,0.159 0.466,0.241 0.065,0.037 0.131,0.073 0.196,0.108 0.012,0.006 0.024,0.013 0.037,0.021 0.01,0.005 0.021,0.012 0.032,0.017 0.136,0.071 0.224,0.1 0.292,0.1 0.097,0 0.178,-0.056 0.324,-0.224 0.233,-0.267 0.474,-0.543 0.739,-0.795 0.26,-0.244 0.484,-0.527 0.702,-0.802 0.099,-0.124 0.198,-0.249 0.301,-0.371 0.012,-0.015 0.024,-0.031 0.035,-0.047 0.022,-0.028 0.042,-0.054 0.065,-0.079 0.587,-0.611 0.946,-1.371 1.237,-2.035 0.057,-0.131 0.112,-0.262 0.167,-0.394 0.085,-0.203 0.173,-0.413 0.267,-0.616 0.069,-0.154 0.147,-0.303 0.222,-0.453 0.101,-0.196 0.204,-0.4 0.291,-0.605 0.095,-0.224 0.177,-0.461 0.254,-0.689 0.049,-0.139 0.095,-0.277 0.146,-0.413 0.158,-0.424 0.195,-0.879 0.23,-1.318 l 0.009,-0.112 c 0.008,-0.09 0.019,-0.18 0.03,-0.269 0.021,-0.179 0.043,-0.364 0.037,-0.543 -0.031,-1.052 -0.14,-1.85 -0.35,-2.586 -0.023,-0.079 -0.04,-0.159 -0.056,-0.24 -0.019,-0.095 -0.036,-0.185 -0.065,-0.272 -0.197,-0.61 -0.514,-1.2 -0.974,-1.807 -0.017,-0.024 -0.035,-0.047 -0.055,-0.069 l -0.191,-0.187 c -0.539,-0.535 -1.098,-1.087 -1.738,-1.522 -0.242,-0.164 -0.523,-0.325 -0.859,-0.492 -0.13,-0.064 -0.294,-0.11 -0.488,-0.135 -0.302,-0.038 -0.623,-0.065 -1.012,-0.085 -0.174,-0.007 -0.349,-0.003 -0.559,0.019 -0.374,0.038 -0.74,0.076 -1.106,0.135 -0.237,0.038 -0.436,0.092 -0.607,0.166 -0.448,0.192 -0.911,0.392 -1.345,0.631 -0.592,0.327 -1.125,0.756 -1.628,1.311 -0.433,0.476 -0.795,1.019 -1.145,1.543 -0.089,0.134 -0.179,0.268 -0.269,0.402 -0.235,0.344 -0.452,0.697 -0.644,1.047 -0.215,0.392 -0.428,0.814 -0.67,1.329 -0.079,0.168 -0.143,0.35 -0.206,0.525 -0.028,0.08 -0.057,0.16 -0.086,0.239 l -0.078,0.208 c -0.132,0.345 -0.268,0.701 -0.364,1.065 -0.195,0.734 -0.404,1.478 -0.607,2.197 l -0.02,0.073 c -0.027,0.095 -0.06,0.189 -0.092,0.283 -0.047,0.133 -0.095,0.269 -0.123,0.406 -0.089,0.434 -0.171,0.907 -0.252,1.444 -0.023,0.153 -0.035,0.311 -0.047,0.463 -0.009,0.133 -0.02,0.264 -0.036,0.395 -0.027,0.216 -0.07,0.445 -0.125,0.681 -0.167,0.707 -0.261,1.411 -0.329,2.006 -0.013,0.107 -0.007,0.214 0,0.329 0.002,0.044 0.004,0.089 0.006,0.132 0.002,0.102 0.007,0.204 0.011,0.305 0.008,0.18 0.016,0.36 0.017,0.54 0.004,0.431 0.004,0.899 0,1.475 M 5.391,0.694 C 5.386,0.631 5.38,0.567 5.374,0.503 5.364,0.378 5.37,0.252 5.376,0.129 5.38,0.044 5.383,-0.043 5.382,-0.128 5.377,-0.39 5.365,-0.646 5.346,-0.889 5.319,-1.268 5.286,-1.708 5.242,-2.138 5.218,-2.357 5.18,-2.596 5.126,-2.868 5.101,-2.99 5.069,-3.115 5.037,-3.234 5.011,-3.333 4.985,-3.433 4.962,-3.533 4.943,-3.624 4.925,-3.72 4.907,-3.818 4.852,-4.108 4.797,-4.407 4.684,-4.636 4.601,-4.804 4.522,-4.975 4.445,-5.146 4.392,-5.261 4.339,-5.376 4.286,-5.49 4.234,-5.597 4.198,-5.661 4.158,-5.73 4.125,-5.786 4.091,-5.846 4.048,-5.932 4.032,-5.962 3.977,-6.017 3.937,-6.057 3.913,-6.081 3.891,-6.103 3.876,-6.12 3.841,-6.161 3.794,-6.169 3.761,-6.169 c -0.059,0 -0.123,0.027 -0.167,0.072 -0.074,0.075 -0.141,0.162 -0.193,0.251 -0.315,0.546 -0.512,1.07 -0.604,1.605 -0.046,0.264 -0.119,0.525 -0.19,0.778 -0.031,0.109 -0.063,0.219 -0.091,0.329 l -0.027,0.105 c -0.033,0.13 -0.068,0.259 -0.106,0.39 -0.034,0.117 -0.07,0.235 -0.106,0.353 -0.051,0.169 -0.102,0.339 -0.15,0.509 -0.061,0.22 -0.115,0.447 -0.165,0.666 L 1.949,-1.056 C 1.881,-0.765 1.813,-0.472 1.751,-0.18 1.702,0.059 1.646,0.336 1.605,0.609 1.584,0.745 1.642,0.829 1.793,0.879 L 1.974,0.94 C 2.317,1.054 2.658,1.168 3.001,1.28 L 3.718,1.515 C 4.125,1.648 4.532,1.781 4.938,1.916 5,1.936 5.06,1.963 5.117,1.989 5.149,2.004 5.181,2.018 5.214,2.032 5.245,2.046 5.274,2.052 5.3,2.052 5.361,2.052 5.396,2.008 5.404,1.922 5.408,1.875 5.406,1.829 5.406,1.782 5.405,1.758 5.404,1.735 5.405,1.703 5.455,1.367 5.423,1.026 5.391,0.694 M -0.594,1.999 C -0.776,2.015 -0.951,2.012 -1.172,1.994 -1.564,1.964 -1.963,1.926 -2.347,1.889 L -2.482,1.875 C -2.758,1.849 -2.987,1.837 -3.203,1.837 c -0.352,0 -0.666,0.035 -0.958,0.105 -0.054,0.013 -0.112,0.02 -0.187,0.023 -0.382,0.018 -0.762,0.036 -1.144,0.052 l -1.02,0.046 c -0.112,0.005 -0.229,0.01 -0.342,0.023 -0.308,0.039 -0.615,0.081 -0.923,0.123 l -0.202,0.028 c -0.218,0.03 -0.437,0.061 -0.656,0.091 L -9.16,2.401 c -0.049,0.007 -0.098,0.014 -0.146,0.017 -0.336,0.013 -0.681,0.064 -1.054,0.155 -0.245,0.061 -0.497,0.103 -0.741,0.144 l -0.15,0.026 c -0.064,0.011 -0.13,0.016 -0.196,0.022 -0.093,0.008 -0.181,0.016 -0.264,0.038 -0.48,0.134 -0.934,0.199 -1.39,0.2 -0.145,0 -0.303,0.018 -0.455,0.035 -0.125,0.014 -0.254,0.029 -0.375,0.034 -0.167,0.007 -0.3,0.055 -0.429,0.102 -0.121,0.044 -0.237,0.086 -0.366,0.086 -0.109,0 -0.216,-0.031 -0.326,-0.095 -0.186,-0.106 -0.332,-0.231 -0.448,-0.379 -0.276,-0.354 -0.449,-0.767 -0.517,-1.229 l -0.012,-0.091 c -0.011,-0.087 -0.022,-0.17 -0.044,-0.25 -0.097,-0.384 -0.156,-0.786 -0.173,-1.196 -0.003,-0.065 -0.005,-0.13 -0.006,-0.195 -0.006,-0.199 -0.012,-0.404 -0.045,-0.599 -0.058,-0.339 -0.05,-0.676 -0.036,-0.991 0.031,-0.774 0.054,-1.604 -0.002,-2.427 l -0.003,-0.045 c -0.009,-0.141 -0.019,-0.289 -0.007,-0.435 0.01,-0.132 0.021,-0.266 0.03,-0.399 0.043,-0.57 0.087,-1.159 0.213,-1.733 0.056,-0.252 0.086,-0.498 0.091,-0.727 0.011,-0.529 0.084,-1.042 0.153,-1.472 l 0.031,-0.193 c 0.032,-0.198 0.064,-0.402 0.107,-0.602 0.02,-0.091 0.053,-0.178 0.086,-0.264 0.023,-0.061 0.046,-0.122 0.064,-0.185 0.047,-0.164 0.09,-0.328 0.134,-0.494 0.033,-0.125 0.067,-0.251 0.101,-0.376 0.042,-0.156 0.086,-0.311 0.131,-0.467 0.057,-0.203 0.115,-0.406 0.169,-0.61 0.039,-0.142 0.075,-0.285 0.11,-0.428 0.054,-0.215 0.11,-0.438 0.174,-0.656 0.056,-0.187 0.126,-0.373 0.192,-0.554 0.039,-0.105 0.078,-0.211 0.116,-0.317 0.037,-0.111 0.073,-0.222 0.109,-0.333 0.061,-0.191 0.125,-0.389 0.199,-0.579 0.12,-0.306 0.258,-0.619 0.422,-0.957 0.144,-0.295 0.286,-0.582 0.46,-0.851 l 0.183,-0.284 c 0.356,-0.551 0.722,-1.121 1.109,-1.666 0.666,-0.941 1.507,-1.715 2.249,-2.355 0.15,-0.091 0.3,-0.183 0.45,-0.275 0.352,-0.217 0.716,-0.441 1.085,-0.642 0.21,-0.115 0.436,-0.203 0.655,-0.29 0.126,-0.049 0.253,-0.098 0.376,-0.154 0.126,-0.054 0.205,-0.117 0.283,-0.176 0.116,-0.091 0.226,-0.176 0.453,-0.202 0.091,-0.01 0.181,-0.018 0.272,-0.027 0.086,-0.007 0.171,-0.015 0.255,-0.025 0.056,-0.006 0.117,-0.008 0.179,-0.008 0.086,0 0.176,0.004 0.266,0.008 0.164,0.009 0.317,0.014 0.464,0 0.196,0.019 0.375,0.03 0.548,0.041 0.241,0.013 0.469,0.027 0.733,0.061 0.217,0.03 0.433,0.088 0.621,0.17 0.157,0.069 0.321,0.133 0.487,0.198 0.459,0.183 0.936,0.372 1.329,0.66 0.133,0.096 0.257,0.216 0.377,0.334 0.145,0.141 0.294,0.287 0.459,0.388 0.371,0.229 0.686,0.518 0.939,0.859 0.108,0.146 0.213,0.293 0.319,0.441 0.107,0.151 0.215,0.302 0.324,0.451 0.25,0.338 0.442,0.653 0.588,0.964 0.104,0.222 0.228,0.416 0.349,0.605 0.131,0.204 0.267,0.417 0.377,0.665 0.067,0.15 0.147,0.316 0.229,0.486 0.129,0.264 0.261,0.538 0.354,0.776 0.102,0.262 0.174,0.502 0.244,0.735 0.067,0.22 0.135,0.446 0.228,0.691 0.082,0.22 0.169,0.452 0.248,0.685 0.029,0.089 0.056,0.179 0.082,0.27 0.03,0.103 0.06,0.208 0.096,0.31 0.213,0.591 0.312,0.96 0.41,1.517 0.004,0.025 0.008,0.05 0.012,0.075 0.011,0.066 0.02,0.128 0.039,0.186 0.105,0.332 0.227,0.895 0.242,1.288 0.009,0.224 0.029,0.419 0.06,0.596 0.041,0.227 0.038,0.451 0.034,0.668 -0.004,0.245 -0.008,0.476 0.047,0.714 0.04,0.174 0.149,0.36 0.254,0.541 0.087,0.148 0.177,0.303 0.229,0.451 0.091,0.264 0.193,0.529 0.292,0.786 0.073,0.191 0.147,0.381 0.217,0.572 0.042,0.113 0.075,0.231 0.108,0.344 0.021,0.074 0.042,0.148 0.066,0.221 0.125,0.394 0.198,0.757 0.252,1.058 0.022,0.067 0.058,0.267 0.067,0.33 0.038,0.273 0.096,0.541 0.154,0.799 0.102,0.453 0.206,0.921 0.187,1.419 -0.002,0.056 0.002,0.11 0.005,0.166 0.003,0.035 0.005,0.071 0.006,0.106 l 0.008,0.253 c 0.009,0.294 0.019,0.59 0.025,0.886 0.005,0.212 0.006,0.426 0.006,0.639 0,0.127 0,0.255 0.002,0.383 0,0.046 0.003,0.092 0.006,0.138 0.005,0.078 0.009,0.16 0.003,0.24 C 6.639,1.746 6.674,2.3 6.707,2.835 L 6.715,2.957 C 6.718,3.004 6.726,3.052 6.74,3.097 L 6.786,3.245 C 6.85,3.454 6.915,3.671 6.989,3.881 7.129,4.285 7.168,4.667 7.107,5.05 L 7.097,5.112 C 7.075,5.243 7.052,5.38 7.037,5.513 6.978,6.053 6.8,6.57 6.509,7.048 6.445,7.155 6.373,7.247 6.297,7.323 6.18,7.439 6.02,7.424 5.935,7.285 5.883,7.202 5.851,7.098 5.846,7.001 5.842,6.913 5.85,6.825 5.857,6.741 5.862,6.689 5.867,6.637 5.869,6.585 5.892,5.906 5.724,4.996 5.478,4.469 5.315,4.117 5.107,3.857 4.845,3.673 4.39,3.354 3.911,3.085 3.419,2.873 3.256,2.803 3.083,2.744 2.914,2.688 2.826,2.658 2.736,2.628 2.649,2.596 2.533,2.555 2.42,2.512 2.306,2.468 1.87,2.303 1.419,2.132 0.939,2.08 L 0.791,2.064 C 0.446,2.026 0.091,1.986 -0.26,1.986 c -0.117,0 -0.226,0.004 -0.334,0.013" fill="#181716" transform="matrix(1.33333 0 0 -1.33333 58.187 43.066)"/><path style="mix-blend-mode:multiply" d="m 0,0 c 0.279,-0.258 0.558,-0.515 0.839,-0.772 0.316,-0.288 0.697,-0.62 1.133,-0.893 l 0.364,-0.227 c 0.2,-0.127 0.4,-0.253 0.602,-0.377 0.132,-0.08 0.243,-0.142 0.351,-0.192 l 0.233,-0.11 C 4.006,-2.797 4.505,-3.031 5.001,-3.252 5.164,-3.325 5.334,-3.386 5.5,-3.445 5.597,-3.48 5.695,-3.516 5.793,-3.553 5.933,-3.608 6.072,-3.665 6.212,-3.723 6.479,-3.833 6.757,-3.946 7.037,-4.039 7.194,-4.09 7.349,-4.148 7.505,-4.206 7.934,-4.364 8.378,-4.53 8.856,-4.567 9.054,-4.582 9.129,-4.735 9.157,-4.86 9.168,-4.909 9.18,-4.959 9.192,-5.008 9.21,-5.08 9.228,-5.15 9.241,-5.222 c 0.086,-0.422 0.28,-0.805 0.594,-1.172 0.198,-0.231 0.64,-0.392 1.075,-0.392 0.214,0 0.397,0.039 0.531,0.113 0.334,0.187 0.454,0.506 0.522,0.762 0.01,0.036 0.018,0.073 0.023,0.111 0.008,0.048 0.016,0.093 0.031,0.132 0.132,0.344 0.215,0.722 0.25,1.124 0.012,0.16 0.085,0.257 0.235,0.319 0.22,0.089 0.43,0.222 0.67,0.425 0.217,0.184 0.444,0.375 0.669,0.556 0.27,0.216 0.481,0.295 0.727,0.275 0.303,-0.028 0.585,-0.123 0.838,-0.284 0.127,-0.081 0.209,-0.203 0.249,-0.374 0.093,-0.394 0.229,-0.907 0.461,-1.388 0.178,-0.368 0.425,-0.56 0.758,-0.589 0.269,-0.024 0.53,0.004 0.781,0.08 0.381,0.117 0.749,0.46 0.712,0.967 l -0.006,0.085 c -0.004,0.084 -0.009,0.17 -0.026,0.254 -0.092,0.484 -0.274,0.957 -0.536,1.407 -0.137,0.235 -0.137,0.235 0.031,0.424 l 0.024,0.028 c 0.015,0.016 0.03,0.032 0.043,0.048 0.238,0.3 0.478,0.626 0.57,1.028 0.076,0.326 0.146,0.678 0.146,1.043 0.001,0.317 -0.041,0.588 -0.13,0.832 -0.028,0.076 -0.057,0.151 -0.084,0.227 -0.064,0.165 -0.129,0.337 -0.184,0.509 -0.15,0.469 -0.332,0.885 -0.559,1.267 -0.04,0.069 -0.08,0.139 -0.12,0.209 -0.153,0.266 -0.311,0.54 -0.517,0.769 -0.53,0.593 -1.135,1.131 -1.798,1.598 l -0.014,0.011 c -0.02,0.016 -0.046,0.037 -0.079,0.041 -0.056,0.008 -0.12,0 -0.151,-0.028 -0.044,-0.035 -0.065,-0.103 -0.063,-0.153 0.005,-0.054 0.038,-0.101 0.06,-0.135 0.125,-0.192 0.251,-0.384 0.379,-0.574 0.094,-0.14 0.189,-0.278 0.284,-0.417 0.179,-0.262 0.365,-0.531 0.538,-0.802 0.071,-0.11 0.132,-0.23 0.192,-0.347 0.054,-0.108 0.11,-0.219 0.175,-0.323 0.289,-0.472 0.511,-1 0.661,-1.57 L 17.21,0.849 c 0.055,-0.208 0.112,-0.424 0.123,-0.636 0.039,-0.67 -0.469,-1.482 -1.354,-1.627 -0.226,-0.037 -0.412,-0.054 -0.585,-0.054 -0.249,0 -0.473,0.036 -0.684,0.112 -0.217,0.079 -0.347,0.178 -0.437,0.332 -0.074,0.127 -0.15,0.259 -0.216,0.391 -0.234,0.475 -0.553,0.862 -0.947,1.149 -0.187,0.136 -0.388,0.26 -0.581,0.38 C 12.458,0.94 12.387,0.984 12.316,1.03 12.286,1.048 12.24,1.073 12.188,1.073 12.155,1.073 12.105,1.063 12.061,1.01 12.015,0.957 11.976,0.87 12.053,0.756 12.075,0.723 12.097,0.69 12.12,0.657 c 0.018,-0.026 0.037,-0.052 0.055,-0.079 0.042,-0.064 0.084,-0.126 0.127,-0.189 0.1,-0.145 0.202,-0.295 0.293,-0.448 0.227,-0.386 0.352,-0.81 0.369,-1.257 0.008,-0.238 -0.044,-0.442 -0.16,-0.619 -0.24,-0.368 -0.589,-0.653 -1.069,-0.873 -0.492,-0.225 -1.039,-0.28 -1.51,-0.304 C 9.999,-3.123 9.798,-3.13 9.608,-3.13 c -0.746,0 -1.35,0.089 -1.904,0.277 -0.185,0.063 -0.369,0.125 -0.555,0.186 -0.261,0.088 -0.522,0.175 -0.783,0.265 -0.201,0.071 -0.401,0.145 -0.6,0.221 -0.1,0.038 -0.201,0.075 -0.3,0.112 -0.089,0.033 -0.177,0.064 -0.265,0.095 -0.18,0.061 -0.365,0.126 -0.539,0.204 -0.298,0.134 -0.606,0.251 -0.906,0.365 -0.379,0.145 -0.772,0.296 -1.142,0.478 -0.161,0.079 -0.328,0.15 -0.488,0.218 -0.276,0.118 -0.561,0.239 -0.818,0.4 -0.055,0.034 -0.11,0.07 -0.165,0.106 -0.1,0.065 -0.199,0.129 -0.302,0.188 C 0.648,0.097 0.438,0.21 0.199,0.332 0.153,0.357 0.097,0.381 0.035,0.381 -0.044,0.381 -0.116,0.34 -0.176,0.26 L -0.207,0.218 -0.115,0.119 C -0.075,0.076 -0.04,0.036 0,0" fill="#181716" transform="matrix(1.33333 0 0 -1.33333 33.679 23.889)"/></g><path style="mix-blend-mode:multiply" d="M 0,0 H 67.294 V 116.026 H 0 Z" fill="none" stroke="#181716" stroke-width="1.605" stroke-miterlimit="10" transform="matrix(1.33333 0 0 -1.33333 1.07 155.771)"/></svg>