<svg xmlns="http://www.w3.org/2000/svg" width="91.865" height="156.841"><path style="mix-blend-mode:multiply" d="m 206.791,171.212 h 67.294 v 116.025 h -67.294 z" fill="#fff" transform="matrix(1.33333 0 0 -1.33333 -274.65 384.053)"/><g style="mix-blend-mode:multiply"><g style="mix-blend-mode:multiply"><path style="mix-blend-mode:multiply" d="m 0,0 c -0.545,-0.034 -0.818,-0.307 -1.023,-0.307 -0.205,0 -0.682,-0.887 -0.682,-1.33 0,-0.443 0.171,-1.16 0.205,-1.433 0.033,-0.273 0.511,-0.955 0.647,-1.058 0.137,-0.102 1.194,-0.409 1.331,-0.579 0.136,-0.171 0.647,-0.307 1.022,-0.239 0.376,0.068 0.888,0.034 1.195,0.17 0.307,0.137 0.716,0.273 0.853,0.785 0.136,0.512 0.239,0.512 0.307,0.989 0.068,0.478 0,0.342 -0.068,0.819 C 3.718,-1.705 3.821,-1.671 3.65,-1.262 3.479,-0.853 3.104,-0.511 2.763,-0.478 2.422,-0.444 2.251,-0.444 1.91,-0.614 1.569,-0.785 1.364,-0.648 1.194,-0.41 1.023,-0.171 0.785,-0.034 0.511,-0.034 0.239,-0.034 0,0 0,0" fill="#fc0" fill-rule="evenodd" transform="matrix(1.33333 0 0 -1.33333 33.595 127.144)"/></g><g style="mix-blend-mode:multiply"><path style="mix-blend-mode:multiply" d="M 0,0 C -0.068,0.819 -0.034,1.023 -0.136,1.671 -0.239,2.319 0,2.148 -0.239,2.387 -0.478,2.626 -0.17,2.695 -0.716,3.07 -1.262,3.445 -1.193,3.479 -1.568,3.65 -1.944,3.821 -2.114,3.957 -2.558,4.059 -3.002,4.162 -3.411,4.4 -3.547,4.298 -3.684,4.196 -3.343,3.241 -3.377,3.309 -3.508,3.571 -3.718,2.797 -3.786,2.626 -3.855,2.456 -3.923,2.046 -3.923,1.705 c 0,-0.341 -0.17,-0.75 -0.238,-1.194 -0.069,-0.443 -0.137,-0.92 -0.307,-1.5 -0.171,-0.58 0,-0.75 -0.376,-1.262 -0.375,-0.512 -0.681,-1.126 -0.955,-1.433 -0.272,-0.307 -0.886,-1.398 -1.227,-1.637 -0.341,-0.239 -0.648,-0.819 -1.092,-1.125 -0.443,-0.308 -0.819,-0.649 -1.33,-1.092 -0.512,-0.443 -0.648,-0.511 -1.16,-0.819 -0.512,-0.307 -0.648,-0.443 -0.989,-0.648 -0.278,-0.167 -0.443,-0.273 -0.852,-0.444 -0.531,-0.049 -0.59,-0.346 -0.785,-0.375 -0.239,-0.034 -0.307,-0.136 -0.955,-0.341 -0.649,-0.205 -0.478,-0.341 -1.127,-0.443 -0.647,-0.103 -0.852,-0.341 -1.5,-0.409 -0.648,-0.069 -0.545,-0.103 -1.091,-0.171 -0.546,-0.068 0.068,-0.102 -0.716,-0.171 -0.785,-0.068 -0.375,0.239 -0.751,-0.136 -0.375,-0.375 -0.276,-0.313 -0.136,-0.648 0.171,-0.409 0.341,-0.784 0.648,-0.955 0.307,-0.17 0.546,-0.409 0.784,-0.58 0.239,-0.17 0.444,-0.238 0.614,-0.443 0.17,-0.205 0.478,-0.478 0.648,-0.478 0.171,0 0.614,0.068 0.955,0.068 0.341,0 0.17,-0.17 0.853,-0.034 0.682,0.137 0.716,0.034 1.228,0.137 0.512,0.102 0.717,0.102 1.126,0.239 0.409,0.136 0.409,0.068 0.818,0.205 0.41,0.136 0.137,-0.137 0.546,0.17 0.409,0.307 0.853,0.239 0.409,0.307 -0.443,0.068 -0.989,0.273 -1.159,0.58 -0.171,0.307 -0.444,0.272 -0.648,0.648 -0.205,0.375 -0.341,0.238 -0.205,0.852 0.136,0.614 0.034,0.58 0.239,0.785 0.205,0.204 0.716,0.341 0.716,0.341 l 0.027,0.072 c 0.088,-0.075 0.173,-0.144 0.212,-0.209 0.102,-0.17 0.17,-0.068 0.273,-0.443 0.102,-0.375 -0.103,-0.273 0.17,-0.614 0.273,-0.341 0.239,-0.375 0.511,-0.443 0.274,-0.068 0.171,0.204 0.308,0.477 0.136,0.273 0.375,0.478 0.545,0.444 0.171,-0.034 0.307,0.034 0.41,-0.137 0.101,-0.171 0.17,-0.205 0.238,-0.511 0.068,-0.307 0.034,-0.478 0.068,-0.649 0.034,-0.17 0.478,-0.067 0.683,0.103 0.205,0.17 0.978,0.54 1.433,0.819 0.614,0.375 1.091,0.779 1.535,1.193 0.511,0.477 0.886,0.477 1.329,1.057 0.444,0.581 0.576,0.712 0.955,1.229 0.376,0.511 0.683,1.023 1.058,1.671 0.243,0.419 0.512,0.614 0.819,1.432 0.307,0.819 0.477,0.614 0.682,1.296 0.204,0.683 0.478,0.785 0.58,1.809 C 0,-0.682 0.068,-0.819 0,0" fill="#e30015" transform="matrix(1.33333 0 0 -1.33333 49.74 114.592)"/></g><g style="mix-blend-mode:multiply"><path style="mix-blend-mode:multiply" d="m 0,0 c -0.147,-0.207 -0.305,-0.407 -0.466,-0.604 -0.096,-0.118 -0.233,-0.135 -0.376,-0.122 -0.196,0.018 -0.391,0.043 -0.587,0.049 -0.601,0.019 -1.203,0.03 -1.804,0.046 -0.125,0.003 -0.25,0 -0.372,0.018 -0.212,0.031 -0.31,0.16 -0.283,0.372 0.021,0.162 0.046,0.325 0.09,0.482 0.078,0.284 0.238,0.434 0.538,0.451 0.764,0.044 1.527,0.106 2.29,0.162 0.152,0.006 0.287,-0.041 0.404,-0.13 C -0.389,0.589 -0.217,0.448 -0.048,0.303 0.079,0.195 0.093,0.132 0,0 m -3.62,-1.994 c -0.128,-0.055 -0.254,-0.123 -0.389,-0.157 -0.125,-0.032 -0.263,-0.053 -0.388,-0.032 -0.316,0.051 -0.452,0.38 -0.262,0.637 0.08,0.109 0.195,0.206 0.315,0.267 0.178,0.09 0.371,0.159 0.564,0.208 0.359,0.093 0.486,-0.016 0.489,-0.422 0.036,-0.233 -0.092,-0.401 -0.329,-0.501 m -2.434,1.132 c -0.146,0.073 -0.271,0.17 -0.259,0.324 0.012,0.166 0.155,0.255 0.333,0.294 0.245,0.055 0.494,0.095 0.742,0.141 0.263,-0.004 0.496,-0.07 0.721,-0.158 0.284,-0.111 0.311,-0.343 0.065,-0.508 -0.509,-0.341 -1.039,-0.372 -1.602,-0.093 m 0.024,1.744 c 0.08,0.133 0.163,0.265 0.247,0.398 0.069,0.11 0.176,0.151 0.301,0.152 0.156,0 0.312,0 0.47,0 V 1.427 C -4.85,1.416 -4.686,1.415 -4.524,1.395 -4.436,1.385 -4.347,1.352 -4.268,1.31 -4.071,1.207 -4.029,1.032 -4.16,0.855 -4.234,0.756 -4.301,0.658 -4.345,0.538 -4.367,0.48 -4.455,0.429 -4.523,0.408 -4.609,0.383 -4.705,0.384 -4.795,0.391 -5.088,0.412 -5.38,0.435 -5.672,0.474 -5.777,0.488 -5.886,0.534 -5.975,0.593 -6.09,0.667 -6.1,0.764 -6.03,0.882 m -2.987,-2.934 c -0.553,-0.199 -1.096,-0.423 -1.645,-0.635 -0.184,-0.071 -0.371,-0.131 -0.557,-0.119 -0.355,0.005 -1.065,0.254 -1.371,0.39 -0.17,0.076 -0.195,0.229 -0.065,0.367 0.281,0.302 0.567,0.598 0.853,0.894 0.091,0.094 0.208,0.132 0.337,0.138 0.803,0.041 1.607,0.083 2.41,0.124 0.046,0.002 0.092,0 0.136,-0.011 0.134,-0.033 0.199,-0.137 0.155,-0.267 -0.116,-0.33 0.108,-0.751 -0.253,-0.881 m -2.692,-1.569 c -0.181,-0.133 -0.364,-0.276 -0.603,-0.234 -0.068,0.013 -0.14,0.002 -0.21,0.002 v 0.002 c -0.101,0 -0.203,0.007 -0.304,-0.002 -0.118,-0.01 -0.209,0.036 -0.295,0.123 -0.162,0.163 -0.173,0.311 -0.002,0.452 0.144,0.119 0.307,0.208 0.463,0.307 0.033,0.021 0.075,0.037 0.112,0.037 0.31,-0.005 0.598,-0.117 0.867,-0.273 0.145,-0.085 0.126,-0.3 -0.028,-0.414 m -1.778,0.866 c -0.172,-0.061 -0.348,-0.112 -0.524,-0.164 -0.15,-0.046 -0.301,-0.088 -0.453,-0.128 -0.069,-0.018 -0.141,-0.028 -0.179,-0.036 -0.258,0.002 -0.386,0.179 -0.302,0.386 0.058,0.146 0.134,0.284 0.208,0.423 0.056,0.105 0.154,0.171 0.268,0.179 0.273,0.014 0.548,0.026 0.821,0.011 0.167,-0.01 0.278,-0.143 0.352,-0.285 0.081,-0.151 -0.006,-0.321 -0.191,-0.386 m -6.393,9.793 c -0.512,-1.074 -3.07,-1.842 -3.07,-1.842 0,0 1.995,-2.097 0.41,-3.377 -1.587,-1.279 -3.377,1.228 -3.377,1.228 -3.378,-2.149 -5.987,0.358 -5.987,0.358 -5.781,-1.995 -9.311,-0.87 -9.311,-0.87 -1.996,-2.251 -6.549,-3.735 -7.522,-2.66 -0.972,1.075 1.125,3.428 1.125,3.428 l -3.018,2.149 c 0,0 -6.242,-2.149 -6.754,-0.308 -0.511,1.843 3.276,3.634 3.276,3.634 0,0 -0.666,0.869 -0.512,0.921 0.153,0.051 -0.615,0.102 -2.15,0 -1.534,-0.103 -2.712,1.228 -2.148,2.814 0.562,1.585 1.995,2.251 1.995,2.251 -1.177,2.66 -1.177,7.828 -1.177,7.828 0,0 -2.404,2.098 -2.507,4.758 -0.102,2.661 1.433,4.861 3.121,5.014 1.689,0.154 2.507,-1.33 2.507,-1.33 0,0 2.149,1.637 3.991,2.251 1.842,0.614 5.628,0.051 7.879,-0.869 2.251,-0.922 4.503,-4.503 4.912,-5.424 0.41,-0.921 1.177,-4.758 1.177,-4.758 4.604,-1.893 10.13,-1.535 10.232,-1.381 1.909,2.861 2.61,4.041 4.657,4.246 2.046,0.205 2.916,-1.33 2.916,-1.33 0,0 2.405,3.274 3.428,2.865 1.023,-0.409 0.869,-2.353 -0.204,-4.554 -1.075,-2.2 -2.712,-3.632 -3.787,-3.888 -1.075,-0.256 -1.688,0.204 -1.688,0.204 -0.46,-3.735 -1.74,-6.037 -1.74,-6.037 l 1.791,-1.075 c 1.995,1.177 5.27,-0.818 6.549,-2.814 1.279,-1.994 0.358,-2.814 -1.125,-2.814 -1.484,0 -3.889,1.382 -3.889,1.382 m 2.689,-8.061 c -0.147,-0.208 -0.305,-0.407 -0.466,-0.604 -0.097,-0.118 -0.234,-0.135 -0.377,-0.122 -0.195,0.018 -0.39,0.042 -0.586,0.049 -0.602,0.018 -1.203,0.03 -1.804,0.045 -0.125,0.003 -0.25,0.001 -0.372,0.019 -0.212,0.03 -0.31,0.16 -0.283,0.371 0.021,0.162 0.046,0.326 0.09,0.482 0.077,0.284 0.238,0.435 0.538,0.452 0.764,0.044 1.527,0.106 2.29,0.162 0.152,0.006 0.287,-0.041 0.404,-0.131 0.177,-0.134 0.349,-0.275 0.518,-0.42 0.127,-0.109 0.141,-0.171 0.048,-0.303 m -2.936,-2.168 c -0.279,-0.026 -0.559,-0.046 -0.838,-0.068 l -0.001,0.003 c -0.11,-0.007 -0.22,-0.015 -0.331,-0.019 -0.075,-0.003 -0.147,0.012 -0.175,0.095 -0.026,0.078 0.013,0.139 0.068,0.19 0.014,0.014 0.031,0.023 0.047,0.036 0.19,0.148 0.382,0.293 0.569,0.445 0.189,0.156 0.4,0.237 0.648,0.215 0.138,-0.013 0.196,-0.037 0.229,-0.169 0.034,-0.138 0.054,-0.282 0.06,-0.424 0.009,-0.195 -0.077,-0.285 -0.276,-0.304 m -1.957,0.578 c -0.25,-0.037 -0.494,-0.118 -0.741,-0.176 -0.083,-0.02 -0.167,-0.042 -0.25,-0.046 -0.208,-0.011 -0.361,0.106 -0.402,0.296 -0.042,0.195 0.042,0.374 0.233,0.444 0.165,0.059 0.338,0.102 0.511,0.129 0.174,0.028 0.351,0.029 0.473,0.038 0.201,0.021 0.305,-0.042 0.377,-0.167 0.01,-0.018 0.02,-0.034 0.029,-0.052 0.157,-0.29 0.095,-0.419 -0.23,-0.466 m -1.61,1.542 c -0.145,0.028 -0.225,0.136 -0.177,0.271 0.068,0.197 0.156,0.388 0.245,0.577 0.043,0.091 0.134,0.123 0.231,0.123 0.307,0 0.614,0 0.922,-0.009 0.067,-0.003 0.15,-0.029 0.196,-0.075 0.132,-0.134 0.257,-0.277 0.369,-0.429 0.068,-0.091 0.028,-0.193 -0.099,-0.254 -0.26,-0.126 -0.529,-0.226 -0.938,-0.216 -0.117,0 -0.346,-0.001 -0.574,0 -0.058,0 -0.118,0 -0.175,0.012 m 9.682,0.306 c 0.309,-0.046 0.627,-0.045 0.925,-0.16 0.043,-0.016 0.085,-0.033 0.124,-0.058 0.099,-0.064 0.129,-0.141 0.084,-0.251 -0.048,-0.115 -0.104,-0.227 -0.167,-0.333 -0.073,-0.124 -0.188,-0.176 -0.332,-0.136 -0.248,0 -0.496,-0.002 -0.744,0.001 -0.058,10e-4 -0.118,0.009 -0.173,0.027 -0.242,0.081 -0.319,0.277 -0.187,0.495 0.069,0.117 0.15,0.232 0.246,0.327 0.053,0.053 0.153,0.097 0.224,0.088 M 2.124,-12.478 V 1.963 16.404 31.139 L 2.099,32.293 1.947,32.441 1.204,32.533 1.106,32.426 1.033,31.684 0.896,31.659 l -0.693,0.512 -1.056,0.707 -1.704,1.242 -1.037,0.732 -0.658,0.521 -3.227,2.077 -0.585,0.3 -1.331,0.731 -0.653,0.231 -0.569,0.314 -1.318,0.453 -1.408,0.653 -0.683,0.201 -2.181,0.767 -0.943,0.235 -0.619,0.266 -2.226,0.722 -4.435,1.179 -2.028,0.299 -0.771,0.142 -0.579,0.059 -1.46,0.247 -1.257,0.215 -1.832,0.231 -0.797,0.088 -1.119,0.06 -1.493,0.251 -0.447,-0.069 -0.472,0.049 -0.824,0.069 -3.812,0.034 h -0.639 l -2.952,-0.069 -1.748,-0.256 -1.464,-0.009 -2.27,-0.383 -1.119,-0.06 -1.44,-0.329 -1.036,-0.142 -0.427,-0.162 -2.824,-0.713 -2.348,-0.599 -1.631,-0.726 -2.436,-0.806 -1.218,-0.55 -1.272,-0.495 -0.992,-0.483 -1.798,-0.855 -2.118,-1.124 -0.795,-0.383 -1.125,-0.643 -0.84,-0.34 -1.13,-0.638 -0.118,-0.177 -0.044,-0.251 0.015,-9.444 V 11.099 -3.342 l -0.009,-14.745 0.088,-0.206 0.206,-0.088 2.662,0.01 h 14.441 14.441 14.441 l 14.35,-0.064 h 14.441 l 1.867,0.054 0.206,0.088 0.089,0.206 z" fill="#3a3a39" fill-rule="evenodd" transform="matrix(1.33333 0 0 -1.33333 94.598 139.507)"/></g></g><path style="mix-blend-mode:multiply" d="M 0,0 -0.707,-0.103 C -10.389,-0.119 -20.09,-2.54 -28.941,-6.45 l -1.628,-0.862 v -3.058 l 0.383,0.076 1.058,0.129 c 4.534,0.696 10.144,1.05 14.681,0.902 l 1.422,-0.039 1.676,-0.088 c 5.102,-0.315 8.032,-0.746 12.899,-2.46 l 0.226,-0.023 0.13,0.128 -1.499,0.942 c -6.369,2.276 -13.295,3.216 -20,2.704 l -1.435,0.015 0.306,0.11 1.419,0.053 c 4.777,0.259 9.179,0.336 13.958,0.118 l 0.769,-0.118 0.795,-0.083 c 6.211,-1.061 12.325,-3.049 17.874,-6.005 l 0.013,-0.005 0.193,0.016 v 0.199 l -0.858,0.687 C 9.28,-10.67 2.954,-8.573 -1.592,-7.486 l -0.761,0.128 -0.796,0.083 -2.007,0.355 -1.323,0.158 -1.166,0.004 -2.069,0.289 -1.566,0.193 -3.292,-0.085 -0.459,-0.092 -1.453,0.264 -0.009,0.002 -1.038,-0.143 -1.76,-0.031 -0.489,-0.096 -0.019,0.004 0.651,0.153 1.021,0.151 1.129,0.056 0.786,0.092 1.142,0.05 0.934,0.23 h 1.441 l 0.758,-0.137 2.921,-0.03 1.3,-0.04 0.66,-0.039 1.597,-0.191 1.145,-0.025 4.303,-0.7 1.875,-0.487 c 6.345,-1.268 14.58,-4.647 20.021,-7.965 l 0.018,-0.011 0.203,0.03 0.037,0.21 -0.316,0.346 -2.592,1.845 -1.67,0.989 -6.142,2.703 -2.51,1.027 -0.85,0.336 -1.8,0.539 -0.567,0.334 -1.12,0.36 -2.629,0.614 -1.953,0.404 -2.633,0.609 -0.586,0.132 0.543,0.036 c 8.346,-1.125 16.718,-3.462 23.99,-7.826 l 0.204,-0.048 0.145,0.138 -0.178,0.349 -0.815,0.734 c -2.733,1.732 -5.529,2.858 -8.28,4.403 l -1.939,0.72 -0.674,0.205 c -4.36,1.4 -8.898,2.442 -13.448,3.079 l -1.143,0.048 -0.23,0.095 1.061,0.009 c 12.404,-0.82 24.142,-2.947 34.135,-10.951 l 0.198,0.016 0.03,0.201 -0.222,0.407 c -3.739,3.567 -8.463,5.755 -13.099,7.897 l -2.417,0.833 -1.673,0.385 c -4.179,1.235 -9.07,1.772 -13.401,2.532 l -1.731,0.024 -0.662,0.131 0.492,0.156 0.547,-0.005 C 2.809,-1.409 6.57,-1.355 11.277,-2.081 l 2.394,-0.549 1.379,-0.394 c 7.028,-1.472 13.674,-4.473 19.74,-8.227 l 1.429,-0.929 0.507,-0.342 v 0.851 l -0.542,0.374 C 26.37,-4.138 14.304,-0.454 2.247,-0.093 l -0.77,0.109 z" fill="#181716" transform="matrix(1.33333 0 0 -1.33333 41.829 80.043)"/><g style="mix-blend-mode:multiply"><path style="mix-blend-mode:multiply" d="m 0,0 c -0.339,-0.115 -0.686,-0.169 -1.042,-0.07 -0.101,0.028 -0.208,0.032 -0.309,0.056 -0.152,0.035 -0.302,0.078 -0.452,0.119 -0.026,0.007 -0.048,0.029 -0.072,0.03 -0.209,0.012 -0.387,0.115 -0.572,0.196 -0.22,0.097 -0.445,0.188 -0.651,0.312 -0.319,0.19 -0.627,0.402 -0.934,0.612 -0.191,0.131 -0.2,0.167 -0.135,0.397 0.073,0.256 0.013,0.508 -0.014,0.76 -0.004,0.03 -0.047,0.081 -0.068,0.079 C -4.287,2.488 -4.333,2.459 -4.358,2.428 -4.538,2.204 -4.7,1.963 -4.894,1.751 -5.166,1.452 -5.46,1.173 -5.746,0.885 -5.759,0.872 -5.779,0.863 -5.793,0.849 -6.109,0.509 -6.502,0.272 -6.906,0.057 -7.097,-0.045 -7.283,-0.18 -7.516,-0.188 -7.56,-0.189 -7.602,-0.216 -7.645,-0.23 -7.763,-0.267 -7.88,-0.306 -7.999,-0.339 c -0.081,-0.023 -0.175,-0.02 -0.247,-0.059 -0.183,-0.101 -0.376,-0.098 -0.573,-0.097 -0.379,0.003 -0.759,0.003 -1.139,0.002 -0.12,0 -0.234,0.015 -0.339,0.081 -0.133,0.084 -0.285,0.092 -0.436,0.087 -0.134,-0.004 -0.261,0.01 -0.368,0.104 -0.028,0.025 -0.07,0.045 -0.107,0.045 -0.236,-0.004 -0.418,0.14 -0.62,0.225 -0.139,0.059 -0.267,0.136 -0.425,0.134 -0.041,-0.001 -0.084,0.031 -0.123,0.052 -0.205,0.113 -0.401,0.245 -0.638,0.294 -0.053,0.012 -0.1,0.059 -0.147,0.094 -0.061,0.046 -0.117,0.047 -0.177,-0.001 -0.127,-0.101 -0.158,-0.291 -0.063,-0.423 0.049,-0.069 0.113,-0.128 0.164,-0.195 0.087,-0.112 0.086,-0.177 -0.024,-0.269 -0.141,-0.117 -0.281,-0.239 -0.439,-0.329 -0.489,-0.278 -0.986,-0.538 -1.477,-0.811 -0.211,-0.118 -0.413,-0.25 -0.621,-0.373 -0.049,-0.029 -0.106,-0.046 -0.161,-0.067 -0.072,-0.027 -0.145,-0.051 -0.217,-0.08 -0.03,-0.012 -0.055,-0.037 -0.086,-0.046 -0.247,-0.077 -0.495,-0.151 -0.742,-0.227 -0.069,-0.02 -0.136,-0.045 -0.204,-0.068 -0.092,-0.032 -0.184,-0.064 -0.277,-0.095 -0.116,-0.04 -0.231,-0.083 -0.35,-0.117 -0.08,-0.023 -0.164,-0.034 -0.247,-0.049 -0.076,-0.013 -0.165,-0.005 -0.227,-0.042 -0.139,-0.084 -0.291,-0.11 -0.446,-0.144 -0.095,-0.02 -0.186,-0.056 -0.281,-0.08 -0.1,-0.026 -0.202,-0.049 -0.303,-0.068 -0.046,-0.008 -0.094,0.002 -0.137,-0.008 -0.39,-0.083 -0.779,-0.171 -1.168,-0.254 -0.133,-0.029 -0.269,-0.049 -0.403,-0.071 -0.219,-0.035 -0.437,-0.07 -0.656,-0.105 -0.135,-0.022 -0.269,-0.048 -0.405,-0.064 -0.24,-0.026 -0.481,-0.045 -0.721,-0.068 -0.071,-0.008 -0.143,-0.03 -0.214,-0.027 -0.392,0.015 -0.784,0.035 -1.176,0.057 -0.19,0.01 -0.379,0.024 -0.567,0.046 -0.117,0.013 -0.234,0.035 -0.345,0.071 -0.148,0.047 -0.176,0.137 -0.094,0.272 0.068,0.111 0.148,0.215 0.212,0.329 0.026,0.045 0.05,0.125 0.028,0.156 -0.023,0.034 -0.107,0.053 -0.153,0.04 -0.086,-0.024 -0.166,-0.07 -0.242,-0.118 -0.126,-0.08 -0.249,-0.165 -0.37,-0.254 -0.084,-0.061 -0.168,-0.124 -0.241,-0.198 -0.217,-0.22 -0.444,-0.426 -0.715,-0.579 -0.067,-0.039 -0.136,-0.083 -0.188,-0.139 -0.273,-0.295 -0.622,-0.474 -0.959,-0.674 -0.395,-0.233 -0.785,-0.472 -1.186,-0.692 -0.205,-0.113 -0.441,-0.168 -0.639,-0.289 -0.237,-0.145 -0.523,-0.109 -0.755,-0.253 -0.069,-0.042 -0.172,-0.024 -0.246,-0.06 -0.221,-0.104 -0.449,-0.165 -0.694,-0.16 -0.037,0 -0.079,-0.019 -0.109,-0.043 -0.137,-0.112 -0.296,-0.128 -0.463,-0.12 -0.111,0.006 -0.223,-0.003 -0.334,0.004 -0.083,0.007 -0.168,0.023 -0.248,0.047 -0.131,0.04 -0.258,0.093 -0.386,0.139 -0.224,0.079 -0.349,0.248 -0.411,0.466 -0.066,0.237 -0.04,0.47 0.072,0.688 0.109,0.215 0.232,0.423 0.345,0.637 0.269,0.513 0.679,0.912 1.093,1.299 0.339,0.318 0.724,0.581 1.144,0.785 0.262,0.127 0.527,0.249 0.792,0.372 0.065,0.031 0.107,0.074 0.103,0.149 -0.004,0.075 -0.049,0.12 -0.118,0.139 -0.126,0.034 -0.252,0.066 -0.378,0.097 -0.025,0.006 -0.055,0.011 -0.078,0.004 -0.198,-0.063 -0.402,-0.111 -0.591,-0.195 -0.237,-0.106 -0.465,-0.235 -0.69,-0.366 -0.169,-0.098 -0.329,-0.213 -0.49,-0.325 -0.112,-0.078 -0.148,-0.078 -0.265,-0.01 -0.09,0.052 -0.187,0.089 -0.278,0.137 -0.138,0.074 -0.276,0.147 -0.409,0.231 -0.041,0.028 -0.062,0.09 -0.123,0.183 0.201,0.03 0.349,0.046 0.495,0.075 0.113,0.024 0.222,0.067 0.334,0.097 0.094,0.027 0.189,0.044 0.284,0.067 0.112,0.028 0.224,0.059 0.335,0.089 0,0 0.011,0.008 0.018,0.01 0.28,0.079 0.557,0.169 0.842,0.234 0.128,0.029 0.256,0.04 0.365,0.124 0.101,0.078 0.199,0.064 0.306,-0.004 0.08,-0.052 0.178,-0.076 0.269,-0.108 0.031,-0.011 0.066,-0.009 0.095,-0.021 0.437,-0.18 0.898,-0.149 1.354,-0.152 0.026,0 0.054,-0.001 0.077,0.008 0.374,0.154 0.713,0.355 0.955,0.689 0.055,0.256 0.2,0.508 0.174,0.815 -0.043,0.136 -0.038,0.211 0.106,0.284 0.527,0.265 1.005,0.609 1.499,0.927 0.367,0.237 0.705,0.519 1.05,0.789 0.735,0.575 1.378,1.248 2.012,1.928 0.35,0.376 0.683,0.773 0.942,1.225 0.116,0.203 0.262,0.39 0.392,0.585 0.029,0.043 0.066,0.089 0.074,0.137 0.031,0.188 0.146,0.332 0.236,0.49 0.197,0.347 0.394,0.694 0.576,1.047 0.09,0.173 0.144,0.363 0.22,0.542 0.066,0.156 0.147,0.305 0.208,0.462 0.107,0.273 0.205,0.549 0.303,0.824 0.093,0.265 0.184,0.53 0.274,0.795 0.124,0.358 0.27,0.717 0.289,1.092 0.011,0.224 0.079,0.435 0.084,0.654 0.01,0.378 0.059,0.755 0.021,1.136 -0.022,0.221 -0.005,0.445 -0.001,0.668 0.004,0.16 -0.02,0.312 -0.105,0.452 -0.013,0.023 -0.025,0.046 -0.034,0.071 -0.049,0.142 0,0.223 0.149,0.216 0.162,-0.008 0.333,-0.012 0.484,-0.063 0.217,-0.074 0.433,-0.095 0.657,-0.098 0.216,-0.004 0.428,-0.02 0.625,-0.133 0.079,-0.045 0.19,-0.043 0.286,-0.045 0.484,-0.009 0.968,-0.001 1.451,-0.017 0.213,-0.007 0.429,-0.044 0.64,-0.086 0.415,-0.084 0.834,-0.059 1.253,-0.068 0.678,-0.012 1.358,-0.021 2.037,-0.034 0.192,-0.004 0.23,0.023 0.313,0.198 0.143,0.306 0.299,0.605 0.442,0.912 0.089,0.188 0.147,0.391 0.249,0.573 0.129,0.231 0.196,0.488 0.364,0.707 0.292,0.38 0.567,0.77 0.926,1.091 0.073,0.065 0.144,0.136 0.225,0.189 0.292,0.197 0.586,0.391 0.905,0.541 0.116,0.055 0.24,0.097 0.364,0.134 0.297,0.088 0.569,0.27 0.899,0.246 0.051,-0.005 0.106,0.001 0.155,0.014 0.315,0.082 0.607,-0.002 0.897,-0.115 0.109,-0.042 0.222,-0.076 0.332,-0.121 0.448,-0.182 0.734,-0.532 0.965,-0.938 0.114,-0.199 0.22,-0.402 0.339,-0.598 0.029,-0.049 0.09,-0.096 0.145,-0.109 0.075,-0.017 0.138,0.036 0.166,0.109 0.072,0.195 0.187,0.371 0.198,0.591 0.011,0.219 0.147,0.391 0.288,0.547 0.304,0.334 0.618,0.659 0.924,0.991 0.19,0.207 0.379,0.416 0.555,0.635 0.224,0.277 0.512,0.462 0.823,0.618 0.037,0.018 0.093,0.023 0.13,0.008 0.268,-0.108 0.502,-0.285 0.494,-0.655 -0.009,-0.399 0,-0.798 -0.009,-1.197 -0.001,-0.089 -0.031,-0.182 -0.07,-0.261 -0.07,-0.139 -0.105,-0.281 -0.098,-0.436 0.006,-0.126 -0.01,-0.248 -0.101,-0.348 -0.017,-0.018 -0.039,-0.046 -0.037,-0.067 0.019,-0.241 -0.157,-0.423 -0.196,-0.647 -0.011,-0.063 -0.036,-0.127 -0.066,-0.183 -0.148,-0.276 -0.294,-0.553 -0.45,-0.822 -0.292,-0.505 -0.597,-1.002 -0.991,-1.435 -0.507,-0.557 -1.026,-1.102 -1.633,-1.553 -0.087,-0.065 -0.197,-0.095 -0.299,-0.135 -0.055,-0.021 -0.117,-0.023 -0.171,-0.043 -0.355,-0.141 -0.696,-0.067 -1.031,0.065 -0.144,0.056 -0.157,0.095 -0.142,0.259 0.046,0.502 0.088,1.004 0.058,1.508 -0.014,0.247 -0.03,0.498 -0.136,0.728 -0.076,0.163 -0.147,0.217 -0.239,0.184 C -6.205,15.256 -6.183,15.14 -6.195,15.037 -6.232,14.694 -6.271,14.35 -6.309,14.006 -6.317,13.935 -6.332,13.864 -6.336,13.792 -6.348,13.575 -6.375,13.366 -6.471,13.164 -6.525,13.051 -6.539,12.91 -6.54,12.782 -6.543,12.589 -6.567,12.405 -6.639,12.225 -6.667,12.153 -6.683,12.073 -6.691,11.997 -6.71,11.8 -6.726,11.605 -6.825,11.428 -6.834,11.411 -6.84,11.391 -6.84,11.372 -6.842,10.973 -7.037,10.634 -7.174,10.276 -7.188,10.241 -7.202,10.2 -7.2,10.162 -7.181,9.833 -7.359,9.561 -7.454,9.263 -7.463,9.233 -7.485,9.206 -7.495,9.175 -7.572,8.933 -7.647,8.691 -7.724,8.451 -7.742,8.395 -7.758,8.338 -7.78,8.284 -7.871,8.061 -7.976,7.843 -8.052,7.616 -8.106,7.455 -8.23,7.329 -8.244,7.149 -8.25,7.068 -8.346,7.06 -8.436,7.123 -8.557,7.211 -8.677,7.302 -8.8,7.387 -8.868,7.434 -8.937,7.521 -9.024,7.452 -9.106,7.389 -9.105,7.276 -9.065,7.197 c 0.158,-0.306 0.259,-0.645 0.51,-0.899 0.281,-0.282 0.551,-0.575 0.919,-0.758 0.167,-0.082 0.3,-0.229 0.459,-0.331 0.241,-0.156 0.492,-0.296 0.736,-0.445 0.24,-0.147 0.473,-0.118 0.705,0.016 0.123,0.072 0.24,0.158 0.369,0.218 0.386,0.179 0.793,0.264 1.22,0.234 C -4.115,5.229 -4.075,5.231 -4.052,5.213 -3.855,5.071 -3.597,5.1 -3.393,4.979 -3.196,4.864 -2.993,4.758 -2.797,4.638 -2.099,4.212 -1.509,3.657 -0.939,3.076 -0.505,2.632 -0.142,2.135 0.131,1.583 0.281,1.277 0.416,0.953 0.405,0.592 0.396,0.263 0.309,0.104 0,0 m -11.622,-4.006 c 0.159,0.091 0.317,0.184 0.464,0.291 0.144,0.105 0.149,0.115 0.301,10e-4 0.146,-0.111 0.295,-0.218 0.442,-0.327 l -0.99,0.001 z m -16.633,-1.725 c 0.119,0.061 0.234,0.131 0.343,0.214 0.057,0.043 0.116,0.088 0.182,0.114 0.241,0.097 0.435,0.255 0.629,0.425 0.255,0.224 0.532,0.421 0.802,0.628 0.075,0.057 0.158,0.078 0.258,0.061 0.16,-0.029 0.324,-0.052 0.487,-0.054 0.883,-0.009 1.767,-0.014 2.652,-0.009 0.168,0 0.335,0.032 0.503,0.059 l -0.298,-0.142 -0.708,-0.175 -0.774,-0.417 -1.869,-0.767 -0.99,-0.179 z m 7.774,-3.792 0.656,-0.211 1.326,-0.744 0.585,-0.284 3.233,-2.334 0.027,-0.111 -0.064,-0.108 -0.402,-0.16 -1.569,-0.214 -0.652,-0.224 -0.812,-0.064 -1.305,-0.478 -3.422,-1.003 -2.178,-0.783 -0.191,-0.013 -0.155,0.075 -0.673,0.804 -1.607,1.637 -2.241,2.191 -1.023,0.74 -0.484,0.409 -0.32,0.249 -0.052,0.15 0.029,0.169 0.258,0.313 2.182,1.327 1.478,0.584 1.278,0.491 0.493,-0.057 1.703,-0.651 1.926,-0.719 1.222,-0.538 z m 12.836,7.151 c 0.062,-0.13 0.07,-0.288 0.091,-0.436 0.012,-0.083 0.001,-0.169 0.001,-0.254 h 0.01 c 0.005,-0.059 0.004,-0.119 0.014,-0.176 0.043,-0.223 -0.095,-0.389 -0.19,-0.561 -0.073,-0.129 -0.579,-0.245 -0.715,-0.177 -0.131,0.064 -0.271,0.083 -0.407,0.122 -0.222,0.065 -0.433,0.175 -0.642,0.279 -0.382,0.192 -0.715,0.458 -1.047,0.722 -0.082,0.065 -0.148,0.147 -0.226,0.215 -0.092,0.083 -0.18,0.171 -0.282,0.239 -0.089,0.058 -0.151,0.034 -0.184,-0.063 -0.096,-0.289 -0.34,-0.415 -0.587,-0.538 -0.111,-0.055 -0.228,-0.097 -0.341,-0.146 -0.018,-0.008 -0.035,-0.026 -0.035,-0.026 -0.241,-0.009 -0.425,-0.135 -0.628,-0.198 -0.086,-0.027 -0.181,-0.028 -0.272,-0.03 -0.195,-0.002 -0.39,0.008 -0.579,-0.072 -0.065,-0.027 -0.154,-0.006 -0.229,0.007 -0.156,0.024 -0.311,0.053 -0.463,0.088 -0.145,0.034 -0.288,0.079 -0.432,0.122 -0.05,0.014 -0.098,0.044 -0.148,0.049 -0.233,0.022 -0.405,0.176 -0.601,0.276 -0.028,0.013 -0.051,0.042 -0.069,0.068 -0.055,0.078 -0.036,0.142 0.059,0.16 0.379,0.072 0.695,0.289 1.04,0.44 0.213,0.092 0.408,0.205 0.568,0.373 0.014,0.014 0.03,0.025 0.046,0.036 0.351,0.228 0.703,0.454 1.05,0.686 0.114,0.076 0.218,0.167 0.328,0.249 0.217,0.164 0.348,0.146 0.595,0.032 0.269,-0.125 0.536,-0.273 0.843,-0.299 0.051,-0.004 0.108,-0.008 0.153,-0.031 0.197,-0.104 0.408,-0.132 0.627,-0.133 0.058,0 0.118,-0.009 0.174,-0.025 0.531,-0.146 1.072,-0.152 1.615,-0.111 0.12,0.009 0.214,-0.026 0.298,-0.113 0.224,-0.233 0.427,-0.483 0.565,-0.774 m -24.942,-6.635 -0.453,-0.041 -0.343,0.222 -0.463,0.434 -0.874,0.597 -2.736,1.957 -0.003,0.014 0.428,0.114 0.992,0.065 0.692,-0.079 0.009,-10e-4 0.48,0.078 0.533,-0.075 c 0.015,-0.087 0.043,-0.172 0.085,-0.254 0.13,-0.25 0.326,-0.44 0.539,-0.614 0.055,-0.045 0.116,-0.094 0.182,-0.113 0.219,-0.063 0.44,-0.137 0.664,-0.163 0.272,-0.031 0.549,-0.022 0.823,-0.024 0.065,-0.001 0.136,0.008 0.192,0.036 0.22,0.11 0.456,0.1 0.691,0.122 0.127,0.013 0.254,0.05 0.379,0.086 0.271,0.079 0.552,0.131 0.813,0.248 0.005,0.002 0.013,0.002 0.013,0.002 0.067,0.009 0.125,0.027 0.183,0.048 l 0.518,-0.166 0.51,-0.075 0.08,-0.077 -0.026,-0.07 -1.439,-0.619 -1.785,-1.165 z m -6.946,4.393 -0.626,0.233 c -4.53,2.302 -8.773,4.171 -13.661,5.517 l -0.049,0.054 0.195,0.228 3.378,2.227 1.322,0.734 2.036,0.915 0.784,0.392 0.81,0.377 0.74,0.428 0.648,0.272 c -0.002,-0.005 -0.005,-0.009 -0.007,-0.014 -0.076,-0.247 -0.106,-0.516 -0.268,-0.732 -0.021,-0.031 -0.028,-0.075 -0.032,-0.113 -0.03,-0.392 -0.05,-0.782 0.01,-1.173 0.009,-0.057 0.028,-0.114 0.049,-0.169 0.125,-0.321 0.344,-0.585 0.534,-0.866 0.025,-0.038 0.06,-0.073 0.099,-0.095 0.315,-0.166 0.6,-0.404 0.984,-0.407 0.091,-0.002 0.182,-0.024 0.27,-0.047 0.546,-0.145 1.088,-0.127 1.628,0.029 0.055,0.016 0.116,0.025 0.174,0.023 0.206,-0.008 0.402,-0.008 0.568,0.154 0.075,0.074 0.15,0.043 0.211,-0.049 0.057,-0.087 0.112,-0.174 0.169,-0.261 0.045,-0.068 0.034,-0.125 -0.034,-0.167 -0.039,-0.024 -0.082,-0.041 -0.123,-0.06 -0.302,-0.146 -0.593,-0.307 -0.838,-0.541 -0.043,-0.039 -0.097,-0.066 -0.147,-0.097 -0.216,-0.135 -0.457,-0.241 -0.643,-0.409 -0.355,-0.318 -0.679,-0.671 -1.011,-1.014 -0.095,-0.098 -0.184,-0.205 -0.255,-0.321 -0.107,-0.17 -0.238,-0.344 -0.28,-0.533 -0.071,-0.319 -0.049,-0.651 -0.013,-0.977 0.006,-0.045 0.025,-0.089 0.047,-0.128 0.116,-0.201 0.263,-0.376 0.473,-0.486 0.172,-0.091 0.343,-0.187 0.521,-0.269 0.074,-0.035 0.162,-0.053 0.245,-0.055 0.321,-0.007 0.638,-0.041 0.954,-0.104 0.17,-0.033 0.352,-0.02 0.527,-0.006 0.338,0.028 0.676,0.068 1.012,0.108 0.118,0.013 0.239,0.023 0.346,0.065 0.219,0.08 0.445,0.089 0.67,0.121 0.327,0.046 0.649,0.139 0.964,0.239 0.133,0.043 0.258,0.083 0.398,0.081 0.097,-10e-4 0.201,-10e-4 0.288,0.034 0.176,0.07 0.343,0.161 0.512,0.246 0.191,0.096 0.348,0.086 0.505,-0.052 0.54,-0.472 1.145,-0.85 1.773,-1.19 0.143,-0.077 0.287,-0.158 0.44,-0.215 0.29,-0.107 0.314,-0.182 0.098,-0.401 -0.086,-0.088 -0.194,-0.156 -0.279,-0.245 -0.355,-0.366 -0.514,-0.844 -0.726,-1.29 -0.008,-0.017 -0.005,-0.04 -0.009,-0.059 -0.012,-0.043 -0.023,-0.087 -0.035,-0.132 l -1.256,0.17 -0.7,-0.059 -1.362,0.064 z m -2.815,19.69 c -10e-4,0.145 -0.007,0.285 -0.064,0.423 -0.019,0.044 -0.009,0.124 0.022,0.158 0.048,0.053 0.102,-0.003 0.152,-0.034 0.359,-0.215 0.717,-0.429 1.08,-0.637 0.18,-0.103 0.369,-0.194 0.558,-0.281 0.142,-0.065 0.29,-0.115 0.435,-0.174 0.145,-0.058 0.289,-0.119 0.434,-0.178 0.023,-0.01 0.049,-0.02 0.049,-0.02 0.371,-0.008 0.474,-0.293 0.618,-0.526 0.057,-0.092 0.09,-0.202 0.137,-0.303 0.139,-0.301 0.283,-0.602 0.421,-0.904 0.096,-0.213 0.212,-0.422 0.273,-0.645 0.056,-0.207 0.095,-0.415 0.208,-0.601 0.009,-0.016 0.008,-0.038 0.009,-0.05 0,-0.096 -0.039,-0.162 -0.12,-0.193 -0.158,-0.062 -0.321,-0.108 -0.476,-0.174 -0.241,-0.102 -0.499,-0.14 -0.746,-0.214 -0.284,-0.087 -0.543,-0.253 -0.815,-0.381 -0.427,-0.201 -0.828,-0.446 -1.214,-0.716 -0.108,-0.077 -0.202,-0.061 -0.259,0.059 -0.049,0.105 -0.067,0.223 -0.098,0.336 -0.037,0.131 -0.073,0.262 -0.11,0.393 -0.016,0.056 -0.038,0.112 -0.049,0.169 -0.043,0.204 -0.085,0.409 -0.122,0.613 -0.022,0.115 -0.035,0.232 -0.051,0.35 -0.033,0.239 -0.066,0.478 -0.097,0.717 -0.022,0.174 -0.152,0.447 -0.161,0.622 -0.017,0.373 -0.021,0.746 -0.031,1.118 -0.002,0.033 -10e-4,0.068 -0.009,0.098 -0.103,0.353 0.03,0.615 0.026,0.975 m 3.266,-12.825 c 0.103,0.042 0.164,0.013 0.214,-0.068 0.207,-0.334 0.525,-0.583 0.715,-0.933 0.067,-0.122 0.184,-0.22 0.285,-0.322 0.384,-0.383 0.773,-0.763 1.157,-1.146 0.053,-0.053 0.095,-0.117 0.143,-0.176 l -0.019,-0.055 c -0.073,-0.012 -0.147,-0.033 -0.221,-0.033 -0.244,-0.002 -0.485,-0.005 -0.7,-0.146 -0.005,-0.003 -0.012,-0.005 -0.018,-0.007 -0.339,-0.067 -0.677,-0.135 -1.015,-0.201 -0.212,-0.042 -0.422,-0.084 -0.633,-0.123 -0.096,-0.018 -0.193,-0.032 -0.289,-0.047 -0.019,-0.002 -0.039,0.003 -0.039,0.003 -0.62,-0.057 -1.219,-0.027 -1.82,-0.008 -0.111,0.004 -0.204,0.027 -0.285,0.105 -0.066,0.063 -0.138,0.119 -0.206,0.181 -0.111,0.1 -0.143,0.23 -0.078,0.356 0.074,0.147 0.104,0.306 0.162,0.455 0.094,0.245 0.256,0.458 0.46,0.627 0.252,0.21 0.506,0.415 0.702,0.681 0.02,0.026 0.04,0.056 0.066,0.071 0.475,0.258 0.916,0.579 1.419,0.786 m -4.18,3.598 c 0.02,0.407 0.14,0.783 0.38,1.116 0.212,0.292 0.412,0.594 0.645,0.866 0.177,0.207 0.39,0.386 0.606,0.556 0.282,0.221 0.574,0.433 0.876,0.629 0.312,0.201 0.628,0.41 0.967,0.558 0.256,0.111 0.511,0.226 0.763,0.347 0.181,0.087 0.355,0.191 0.535,0.282 0.075,0.036 0.158,0.056 0.238,0.082 0.08,0.027 0.162,0.051 0.242,0.078 0.061,0.021 0.121,0.055 0.183,0.068 0.205,0.04 0.415,0.057 0.6,0.17 0.026,0.016 0.063,0.019 0.095,0.018 0.272,-0.009 0.532,0.066 0.795,0.118 0.14,0.028 0.285,0.039 0.428,0.042 0.288,0.006 0.577,0.002 0.864,0.002 v -0.012 c 0.334,0 0.668,0.002 1.002,-10e-4 0.065,0 0.137,10e-4 0.192,-0.027 0.165,-0.085 0.34,-0.078 0.516,-0.096 0.194,-0.021 0.386,-0.061 0.576,-0.108 0.202,-0.05 0.4,-0.12 0.6,-0.177 0.036,-0.01 0.078,-0.009 0.116,-0.002 0.085,0.016 0.177,0.039 0.197,0.136 0.022,0.1 -0.073,0.13 -0.14,0.164 -0.276,0.134 -0.553,0.266 -0.832,0.394 -0.058,0.027 -0.126,0.042 -0.19,0.045 -0.154,0.009 -0.292,0.048 -0.426,0.13 -0.074,0.045 -0.173,0.057 -0.263,0.062 -0.178,0.008 -0.346,0.033 -0.513,0.107 -0.109,0.048 -0.242,0.045 -0.364,0.061 -0.136,0.017 -0.272,0.037 -0.409,0.04 -0.293,0.007 -0.587,0.007 -0.88,0 -0.15,-0.004 -0.299,-0.031 -0.448,-0.042 -0.273,-0.019 -0.547,-0.017 -0.806,-0.14 -0.173,-0.084 -0.269,-0.012 -0.255,0.178 0.01,0.126 -0.021,0.23 -0.091,0.331 -0.03,0.041 -0.058,0.094 -0.06,0.143 -0.006,0.318 -0.185,0.577 -0.297,0.858 -0.066,0.163 -0.131,0.327 -0.208,0.484 -0.087,0.175 -0.19,0.342 -0.28,0.513 -0.021,0.041 -0.022,0.093 -0.032,0.14 0.042,0.004 0.086,0.017 0.129,0.013 0.038,-0.003 0.076,-0.021 0.111,-0.038 0.188,-0.088 0.388,-0.104 0.593,-0.113 0.147,-0.007 0.294,0.021 0.435,-0.024 0.176,-0.054 0.35,-0.099 0.537,-0.1 0.562,-0.006 1.125,-0.015 1.689,-0.03 0.129,-0.003 0.259,-0.027 0.386,-0.055 0.113,-0.025 0.216,-0.021 0.326,0.02 0.095,0.036 0.202,0.054 0.304,0.059 0.23,0.009 0.463,-0.062 0.692,-0.045 0.266,0.021 0.531,0.065 0.796,0.101 0.207,0.029 0.414,0.063 0.621,0.094 0.117,0.017 0.191,-0.034 0.257,-0.136 0.103,-0.157 0.224,-0.303 0.34,-0.452 0.04,-0.052 0.092,-0.095 0.129,-0.148 0.21,-0.307 0.415,-0.618 0.626,-0.925 0.071,-0.103 0.067,-0.202 0.033,-0.316 -0.049,-0.162 -0.082,-0.329 -0.126,-0.492 -0.087,-0.334 -0.174,-0.668 -0.268,-1.001 -0.056,-0.193 -0.115,-0.387 -0.191,-0.574 -0.235,-0.575 -0.409,-1.239 -0.77,-1.75 -0.19,-0.266 -0.395,-0.53 -0.589,-0.793 -0.291,-0.395 -0.589,-0.693 -0.895,-1.074 -0.164,-0.204 -0.473,-0.341 -0.644,-0.538 -0.068,-0.078 -0.148,-0.095 -0.245,-0.095 -0.386,0.006 -0.772,0.005 -1.158,0.009 -0.141,0.002 -0.269,-0.029 -0.399,-0.085 -0.105,-0.044 -0.226,-0.058 -0.34,-0.069 -0.137,-0.014 -0.276,-0.002 -0.412,-0.018 -0.089,-0.01 -0.175,-0.047 -0.26,-0.076 -0.081,-0.026 -0.16,-0.057 -0.239,-0.087 -0.078,-0.03 -0.156,-0.061 -0.235,-0.091 -0.066,-0.026 -0.133,-0.051 -0.2,-0.076 -0.102,-0.038 -0.205,-0.077 -0.306,-0.116 -0.018,-0.007 -0.035,-0.028 -0.051,-0.028 -0.244,0.011 -0.414,-0.18 -0.635,-0.233 -0.144,-0.035 -0.283,-0.104 -0.413,-0.175 -0.245,-0.134 -0.503,-0.198 -0.782,-0.227 -0.251,-0.027 -0.495,-0.12 -0.744,-0.174 -0.139,-0.032 -0.282,-0.046 -0.425,-0.065 -0.24,-0.032 -0.479,-0.064 -0.718,-0.09 -0.083,-0.009 -0.168,-0.008 -0.25,0.004 -0.167,0.023 -0.333,0.071 -0.501,0.084 -0.261,0.019 -0.478,0.122 -0.663,0.302 -0.071,0.068 -0.145,0.134 -0.206,0.21 -0.155,0.19 -0.281,0.388 -0.264,0.653 0.015,0.215 -0.008,0.432 0.003,0.647 m 11.753,-5.051 c 0.014,-0.091 0.027,-0.181 0.046,-0.27 0.012,-0.056 0.022,-0.117 0.051,-0.164 0.108,-0.171 0.22,-0.339 0.338,-0.504 0.118,-0.164 0.076,-0.332 -0.119,-0.341 -0.347,-0.018 -0.637,-0.248 -0.985,-0.242 -0.272,-0.137 -0.579,-0.096 -0.861,-0.165 -0.296,-0.072 -0.595,-0.08 -0.892,-0.124 -0.058,-0.01 -0.117,-0.01 -0.176,-0.014 -0.185,-0.021 -0.329,0.049 -0.454,0.185 -0.151,0.163 -0.316,0.311 -0.524,0.404 -0.076,0.034 -0.139,0.098 -0.205,0.151 -0.194,0.155 -0.387,0.311 -0.578,0.47 -0.032,0.026 -0.048,0.071 -0.071,0.107 0.042,0.024 0.081,0.064 0.125,0.07 0.064,0.007 0.129,-0.015 0.194,-0.018 0.143,-0.007 0.347,0.11 0.489,0.113 0.112,0.001 0.222,0.019 0.333,0.03 0,0 0.013,-0.001 0.02,0.001 0.321,0.079 0.603,0.08 0.921,0.171 0.251,0.07 0.476,0.102 0.72,0.194 0.171,0.065 0.331,0.154 0.498,0.228 0.203,0.09 0.408,0.175 0.611,0.263 0.096,0.041 0.19,0.087 0.289,0.119 0.057,0.019 0.121,0.015 0.183,0.021 0.002,-0.055 0.02,-0.113 0.006,-0.163 -0.051,-0.181 0.013,-0.35 0.041,-0.522 m -6.371,22.865 c 0.193,0.261 0.307,0.309 0.463,0.461 0.173,0.168 0.362,0.304 0.613,0.324 0.035,0.003 0.074,0.013 0.103,0.032 0.19,0.125 0.417,0.156 0.614,0.105 0.377,-0.097 0.778,-0.183 0.976,-0.597 0.109,-0.229 0.121,-0.223 0.124,-0.642 0,-0.12 0.006,-0.242 -0.002,-0.363 -0.013,-0.208 -0.155,-0.324 -0.365,-0.314 -0.259,0.012 -0.52,0.015 -0.78,0.033 -0.086,0.006 -0.171,0.043 -0.256,0.07 -0.062,0.022 -0.122,0.05 -0.183,0.075 -0.09,0.035 -0.18,0.069 -0.269,0.103 -0.028,0.012 -0.053,0.036 -0.082,0.04 -0.322,0.047 -0.567,0.259 -0.85,0.392 -0.037,0.018 -0.069,0.048 -0.101,0.076 -0.094,0.084 -0.095,0.114 -0.005,0.205 m -5.184,-6.031 c -0.51,0.36 -0.871,0.844 -1.172,1.38 -0.114,0.205 -0.235,0.41 -0.322,0.627 -0.094,0.235 -0.153,0.482 -0.227,0.725 -0.026,0.087 -0.033,0.184 -0.076,0.262 -0.085,0.157 -0.111,0.321 -0.108,0.493 0.01,0.576 0.023,1.152 0.036,1.728 10e-4,0.032 10e-4,0.067 0.01,0.097 0.067,0.197 0.129,0.397 0.208,0.59 0.064,0.155 0.151,0.302 0.228,0.453 0.254,0.502 0.607,0.928 1.013,1.313 0.098,0.093 0.212,0.181 0.334,0.237 0.212,0.096 0.338,0.282 0.588,0.282 0.051,0 0.102,0.025 0.15,0.045 0.145,0.06 0.378,0.081 0.528,0.034 0.213,0.025 0.188,-0.017 0.44,-0.039 0.043,-0.004 0.093,0.024 0.133,0.012 0.233,-0.067 0.463,-0.142 0.661,-0.287 0.04,-0.029 0.067,-0.08 0.095,-0.123 0.138,-0.206 0.275,-0.414 0.412,-0.621 0.076,-0.114 0.15,-0.23 0.228,-0.343 0.124,-0.177 0.231,-0.369 0.378,-0.523 0.324,-0.341 0.664,-0.663 1.055,-0.934 0.315,-0.218 0.649,-0.391 0.983,-0.569 0.051,-0.027 0.109,-0.041 0.165,-0.058 0.025,-0.007 0.054,-0.002 0.077,-0.011 0.218,-0.086 0.434,-0.175 0.652,-0.259 0.065,-0.025 0.135,-0.043 0.205,-0.058 0.152,-0.034 0.307,-0.061 0.459,-0.099 0.409,-0.099 0.812,-0.112 1.215,0.037 0.108,0.039 0.23,0.057 0.345,0.052 0.203,-0.008 0.352,0.073 0.479,0.221 0.147,0.17 0.088,0.364 -0.133,0.411 -0.082,0.018 -0.169,0.011 -0.253,0.027 -0.102,0.017 -0.149,0.072 -0.112,0.163 0.078,0.191 0.048,0.387 0.054,0.582 10e-4,0.047 -0.006,0.093 10e-4,0.138 0.045,0.318 -0.102,0.569 -0.277,0.812 -0.046,0.064 -0.101,0.124 -0.134,0.193 -0.108,0.228 -0.299,0.366 -0.514,0.461 -0.321,0.142 -0.656,0.229 -1.013,0.162 -0.038,-0.007 -0.079,-0.016 -0.112,-0.035 -0.151,-0.087 -0.31,-0.138 -0.487,-0.118 -0.007,0.001 -0.014,0.001 -0.019,0 -0.204,-0.081 -0.42,-0.141 -0.61,-0.247 -0.186,-0.104 -0.345,-0.257 -0.519,-0.384 -0.151,-0.111 -0.241,-0.21 -0.349,-0.354 -0.074,-0.099 -0.17,-0.164 -0.255,-0.076 -0.258,0.261 -0.486,0.485 -0.608,0.849 -0.017,0.017 -0.023,0.046 -0.049,0.097 0.073,0.046 0.133,0.083 0.193,0.119 0.184,0.113 0.288,0.135 0.468,0.252 0.379,0.244 0.768,0.469 1.187,0.64 0.342,0.141 0.679,0.299 1.028,0.42 0.25,0.086 0.477,0.255 0.758,0.239 0.242,0.148 0.513,0.123 0.78,0.142 0.305,0.022 0.608,0.079 0.912,0.121 0.045,0.007 0.091,0.015 0.136,0.016 0.452,0.002 0.903,0.013 1.355,-0.002 0.24,-0.007 0.478,-0.066 0.718,-0.092 0.214,-0.023 0.43,-0.038 0.646,-0.046 0.126,-0.005 0.244,-0.01 0.355,-0.086 0.05,-0.034 0.121,-0.046 0.184,-0.053 0.118,-0.011 0.238,-10e-4 0.353,-0.019 0.121,-0.017 0.246,-0.042 0.358,-0.09 0.123,-0.052 0.242,-0.095 0.377,-0.088 0.114,0.006 0.219,-0.019 0.313,-0.091 0.04,-0.03 0.094,-0.045 0.144,-0.061 0.203,-0.068 0.408,-0.132 0.613,-0.201 0.03,-0.009 0.057,-0.03 0.085,-0.046 0.176,-0.101 0.354,-0.198 0.525,-0.305 0.311,-0.194 0.625,-0.384 0.923,-0.596 0.158,-0.112 0.292,-0.262 0.426,-0.406 0.27,-0.292 0.544,-0.584 0.796,-0.892 0.306,-0.375 0.608,-0.756 0.882,-1.155 0.251,-0.366 0.463,-0.759 0.69,-1.142 0.09,-0.152 0.173,-0.307 0.258,-0.462 0.133,-0.239 0.265,-0.479 0.395,-0.72 0.018,-0.034 0.033,-0.073 0.037,-0.111 0.026,-0.32 0.166,-0.606 0.314,-0.873 0.108,-0.198 0.222,-0.375 0.213,-0.607 0,-0.019 0.005,-0.041 0.016,-0.056 0.126,-0.175 0.141,-0.372 0.135,-0.578 -0.003,-0.073 0.047,-0.146 0.07,-0.22 0.03,-0.098 0.078,-0.197 0.08,-0.296 0.011,-0.373 0.01,-0.746 0.007,-1.119 -0.002,-0.129 0.015,-0.241 0.099,-0.348 0.048,-0.06 0.071,-0.153 0.074,-0.233 0.009,-0.241 0.003,-0.484 0.005,-0.726 0,-0.053 0,-0.107 0.012,-0.156 0.033,-0.122 0.117,-0.167 0.238,-0.133 0.072,0.02 0.163,0.09 0.209,0.003 0.034,-0.063 0.024,-0.173 -0.01,-0.24 -0.071,-0.141 -0.087,-0.285 -0.089,-0.437 -0.005,-0.353 -0.019,-0.705 -0.11,-1.051 -0.047,-0.182 -0.05,-0.376 -0.079,-0.563 -0.014,-0.097 -0.042,-0.191 -0.061,-0.287 -0.031,-0.152 -0.071,-0.304 -0.088,-0.458 -0.013,-0.106 -0.023,-0.205 -0.088,-0.295 -0.037,-0.051 -0.052,-0.119 -0.075,-0.18 -0.046,-0.12 -0.091,-0.242 -0.138,-0.363 -0.007,-0.018 -0.026,-0.034 -0.027,-0.051 -0.008,-0.211 -0.149,-0.373 -0.205,-0.567 -0.049,-0.166 -0.134,-0.324 -0.22,-0.476 -0.21,-0.368 -0.419,-0.736 -0.647,-1.093 -0.193,-0.302 -0.397,-0.601 -0.622,-0.88 -0.35,-0.431 -0.722,-0.845 -1.085,-1.266 -0.021,-0.025 -0.045,-0.048 -0.07,-0.069 -0.577,-0.511 -1.155,-1.024 -1.736,-1.532 -0.103,-0.09 -0.22,-0.164 -0.331,-0.244 -0.057,-0.042 -0.122,-0.078 -0.172,-0.129 -0.392,-0.393 -0.864,-0.679 -1.317,-0.99 -0.226,-0.155 -0.458,-0.303 -0.695,-0.443 -0.122,-0.072 -0.263,-0.111 -0.388,-0.18 -0.314,-0.175 -0.61,-0.39 -0.939,-0.53 -0.316,-0.134 -0.599,-0.343 -0.943,-0.422 -0.15,-0.035 -0.287,-0.12 -0.432,-0.18 -0.362,-0.149 -0.723,-0.3 -1.087,-0.442 -0.076,-0.03 -0.167,-0.023 -0.249,-0.041 -0.101,-0.021 -0.201,-0.046 -0.3,-0.076 -0.069,-0.019 -0.133,-0.057 -0.202,-0.071 -0.186,-0.036 -0.372,-0.066 -0.548,-0.147 -0.09,-0.041 -0.204,-0.035 -0.309,-0.041 -0.156,-0.009 -0.31,-0.015 -0.451,-0.106 -0.061,-0.04 -0.149,-0.05 -0.226,-0.056 -0.196,-0.011 -0.393,-0.013 -0.589,-0.019 -0.168,-0.005 -0.288,0.065 -0.41,0.186 -0.259,0.257 -0.479,0.554 -0.785,0.765 -0.078,0.055 -0.141,0.134 -0.204,0.209 -0.113,0.135 -0.221,0.274 -0.33,0.413 -0.117,0.149 -0.231,0.301 -0.347,0.449 -0.109,0.14 -0.218,0.277 -0.326,0.416 -0.028,0.036 -0.059,0.072 -0.078,0.112 -0.04,0.088 -0.016,0.145 0.08,0.158 0.436,0.056 0.804,0.289 1.201,0.451 0.22,0.09 0.431,0.205 0.668,0.269 0.185,0.049 0.258,0.099 0.455,0.106 0.03,0.001 0.168,0.048 0.192,0.069 0.2,0.016 0.321,0.064 0.49,0.05 0.233,-0.019 0.246,-0.074 0.46,0.018 0.074,0.031 -0.003,-0.024 0.086,-0.12 -0.148,-0.104 -0.05,-0.017 -0.205,-0.119 -0.279,-0.185 -0.307,-0.181 -0.465,-0.275 -0.094,-0.066 -0.032,-0.056 -0.149,-0.066 -0.148,-0.014 -0.239,-0.098 -0.266,-0.222 -0.03,-0.136 0.032,-0.246 0.17,-0.253 0.184,-0.009 0.454,0.031 0.706,0.17 0.028,0.025 0.069,0.038 0.106,0.048 0.245,0.071 0.162,0.037 0.385,0.161 0.113,0.063 0.247,0.09 0.359,0.153 0.267,0.151 0.526,0.317 0.791,0.471 0.135,0.079 0.293,0.125 0.414,0.221 0.327,0.26 0.649,0.528 0.957,0.81 0.348,0.319 0.675,0.659 0.931,1.061 0.111,0.174 0.278,0.314 0.324,0.53 0.008,0.036 0.04,0.067 0.059,0.101 0.223,0.407 0.45,0.811 0.668,1.221 0.063,0.121 0.115,0.25 0.149,0.382 0.079,0.307 0.268,0.475 0.344,0.85 -0.008,0.06 0.023,0.129 0.05,0.186 0.073,0.158 0.103,0.322 0.114,0.494 0.015,0.241 0.082,0.318 0.118,0.556 0.031,0.209 -0.069,0.273 0.137,0.427 0.21,-0.032 0.347,0.083 0.34,0.294 -0.006,0.144 -0.024,0.288 -0.123,0.406 -0.024,0.03 -0.036,0.069 -0.055,0.103 -0.092,0.179 -0.17,0.369 -0.281,0.535 -0.189,0.283 -0.4,0.55 -0.602,0.824 -0.16,0.216 -0.333,0.416 -0.565,0.565 -0.13,0.084 -0.245,0.197 -0.352,0.312 -0.202,0.216 -0.46,0.344 -0.718,0.47 -0.083,0.04 -0.19,0.039 -0.288,0.04 -0.115,10e-4 -0.19,-0.057 -0.222,-0.179 -0.053,-0.201 -0.061,-0.2 -0.267,-0.216 -0.058,-0.004 -0.116,-0.016 -0.175,-0.022 -0.194,-0.021 -0.388,-0.043 -0.583,-0.062 -0.058,-0.005 -0.119,0.006 -0.176,-0.004 -0.193,-0.036 -0.393,-0.069 -0.572,0.021 -0.09,0.044 -0.239,0.049 -0.341,0.051 -0.4,0.008 -0.744,0.061 -1.144,0.067 -0.236,0.005 -0.477,-0.011 -0.704,0.036 -0.334,0.068 -0.665,0.14 -1.007,0.144 -0.055,0 -0.111,0.037 -0.166,0.056 -0.062,0.021 -0.124,0.058 -0.186,0.059 -0.338,0.003 -0.65,0.116 -0.969,0.207 -0.081,0.023 -0.159,0.057 -0.24,0.083 -0.105,0.034 -0.211,0.063 -0.316,0.098 -0.184,0.06 -0.375,0.107 -0.551,0.189 -0.486,0.223 -0.977,0.435 -1.435,0.719 -0.402,0.248 -0.786,0.511 -1.121,0.848 -0.197,0.198 -0.422,0.373 -0.652,0.535 m -2.11,-0.637 -4.487,1.41 -1.387,0.384 -1.682,0.388 -0.499,0.056 0.388,0.034 c 1.551,-0.184 2.785,-0.148 4.337,-0.387 l 3.72,-0.646 c 0.044,-0.069 0.085,-0.139 0.13,-0.207 0.132,-0.195 0.283,-0.378 0.404,-0.579 0.178,-0.294 0.377,-0.566 0.664,-0.763 0.011,-0.007 0.021,-0.016 0.031,-0.024 0.143,-0.113 0.212,-0.262 0.211,-0.444 v -10e-4 l -1.21,0.506 z m -4.964,3.412 2.306,0.029 0.757,-0.138 1.396,-0.023 c 0.021,-0.09 0.042,-0.18 0.066,-0.269 0.018,-0.069 0.038,-0.137 0.064,-0.204 0.021,-0.054 0.061,-0.102 0.075,-0.159 0.021,-0.089 0.061,-0.171 0.091,-0.255 l -2.689,0.615 -0.77,0.113 -1.273,0.217 -0.049,0.047 z m 30.518,-4.62 c -0.055,0.033 -0.122,0.05 -0.186,0.061 -0.223,0.04 -0.413,0.198 -0.653,0.179 -0.027,-0.002 -0.056,0.03 -0.086,0.044 -0.071,0.033 -0.142,0.067 -0.214,0.097 -0.211,0.085 -0.425,0.168 -0.636,0.255 -0.048,0.02 -0.091,0.052 -0.135,0.08 -0.083,0.053 -0.119,0.128 -0.123,0.23 -0.009,0.263 -0.025,0.526 -0.043,0.788 l 0.829,-0.453 2.192,-1.044 1.209,-0.696 c -0.044,0.001 -0.088,0.003 -0.133,0.004 -0.223,0.005 -0.443,0.025 -0.653,0.112 -0.083,0.034 -0.179,0.054 -0.268,0.052 -0.208,-0.004 -0.405,0.018 -0.584,0.134 -0.026,0.017 -0.061,0.029 -0.092,0.028 -0.158,-0.007 -0.292,0.051 -0.424,0.129 M -28.085,1.783 c -0.271,0.036 -0.524,0.025 -0.781,-0.091 -0.17,-0.181 -0.35,-0.355 -0.407,-0.613 -0.009,-0.043 -0.055,-0.079 -0.109,-0.152 -0.041,0.092 -0.076,0.144 -0.089,0.202 -0.023,0.102 -0.028,0.208 -0.047,0.311 -0.037,0.199 -0.071,0.398 -0.119,0.595 -0.016,0.065 -0.067,0.125 -0.108,0.182 -0.099,0.138 -0.081,0.214 0.068,0.296 0.079,0.045 0.157,0.094 0.233,0.144 0.294,0.193 0.589,0.386 0.881,0.581 0.244,0.164 0.486,0.332 0.729,0.496 0.271,0.182 0.546,0.359 0.812,0.546 0.128,0.089 0.244,0.197 0.366,0.296 0.142,0.115 0.279,0.238 0.43,0.339 0.307,0.206 0.572,0.46 0.83,0.72 0.28,0.283 0.558,0.567 0.796,0.893 0.203,0.279 0.463,0.516 0.679,0.786 0.189,0.234 0.36,0.483 0.524,0.733 0.144,0.219 0.274,0.446 0.399,0.675 0.111,0.204 0.233,0.403 0.306,0.628 0.043,0.136 0.122,0.261 0.182,0.391 0.08,0.171 0.164,0.341 0.232,0.517 0.093,0.242 0.17,0.491 0.257,0.735 0.09,0.25 0.184,0.5 0.276,0.75 0.005,0.012 0.014,0.024 0.014,0.036 0.001,0.363 0.23,0.681 0.207,1.053 -0.007,0.112 0.052,0.227 0.072,0.342 0.024,0.134 0.052,0.269 0.055,0.405 0.005,0.202 -0.009,0.405 -0.016,0.608 -0.001,0.033 0.01,0.069 -0.001,0.097 -0.076,0.207 -0.163,0.408 -0.216,0.623 -0.015,0.062 -0.127,0.1 -0.208,0.159 0.049,0.127 0.094,0.261 0.152,0.39 0.037,0.079 0.105,0.064 0.166,0.021 0.068,-0.05 0.129,-0.114 0.204,-0.153 0.318,-0.166 0.642,-0.321 1.011,-0.338 0.044,-0.001 0.089,-0.019 0.131,-0.033 0.111,-0.036 0.221,-0.079 0.333,-0.111 0.126,-0.037 0.156,-0.073 0.169,-0.204 0.028,-0.26 0.056,-0.52 0.094,-0.779 0.075,-0.508 0.069,-1.018 0.023,-1.528 -0.027,-0.292 -0.079,-0.581 -0.122,-0.872 -0.008,-0.057 -0.03,-0.113 -0.048,-0.169 -0.032,-0.099 -0.065,-0.197 -0.097,-0.296 -0.082,-0.25 -0.186,-0.49 -0.227,-0.758 -0.035,-0.231 -0.175,-0.446 -0.258,-0.672 -0.076,-0.206 -0.137,-0.419 -0.205,-0.628 -0.011,-0.031 -0.021,-0.063 -0.034,-0.092 -0.16,-0.335 -0.302,-0.681 -0.485,-1.001 C -21.316,7.344 -21.558,6.82 -21.938,6.377 -22.115,6.17 -22.25,5.927 -22.404,5.7 -22.441,5.645 -22.476,5.589 -22.515,5.538 -23.088,4.778 -23.72,4.071 -24.434,3.441 -24.747,3.164 -25.066,2.892 -25.399,2.638 -25.616,2.471 -25.86,2.342 -26.091,2.195 -26.147,2.161 -26.204,2.129 -26.25,2.084 c -0.261,-0.255 -0.578,-0.425 -0.897,-0.592 -0.057,-0.03 -0.106,-0.076 -0.16,-0.111 -0.113,-0.073 -0.197,-0.066 -0.268,0.049 -0.116,0.188 -0.332,0.248 -0.51,0.353 m -0.683,-0.968 c -0.026,0.155 0.04,0.26 0.156,0.355 0.076,0.061 0.15,0.099 0.25,0.081 0.057,-0.01 0.116,-0.015 0.175,-0.017 0.146,-0.008 0.247,-0.07 0.29,-0.219 0.016,-0.055 0.058,-0.103 0.078,-0.157 0.023,-0.06 0.052,-0.125 0.047,-0.186 -0.012,-0.182 -0.025,-0.366 -0.066,-0.542 -0.023,-0.104 -0.091,-0.2 -0.155,-0.291 -0.051,-0.074 -0.126,-0.132 -0.186,-0.2 -0.177,-0.195 -0.379,-0.318 -0.622,-0.261 -0.205,-0.025 -0.424,0.047 -0.614,0.039 -0.128,-0.007 -0.24,0.02 -0.351,0.093 -0.157,0.104 -0.302,0.134 -0.468,0.277 -0.179,0.128 -0.305,0.321 -0.399,0.493 -0.081,0.147 -0.129,0.314 -0.208,0.462 -0.127,0.241 -0.137,0.502 -0.164,0.762 -0.018,0.177 0.042,0.227 0.132,0.381 0.09,0.064 0.115,0.089 0.166,0.128 0.282,0.077 0.522,0.003 0.602,-0.216 0.048,-0.134 0.099,-0.269 0.135,-0.407 0.022,-0.08 0.018,-0.167 0.022,-0.216 -0.046,-0.374 0.147,-0.602 0.388,-0.778 0.151,-0.11 0.36,-0.123 0.549,-0.087 0.165,0.032 0.235,0.134 0.244,0.31 0.004,0.066 0.01,0.132 -0.001,0.196 m 8.905,20.581 1.207,-0.566 1.911,-0.734 1.769,-0.885 1.381,-0.676 0.562,-0.326 2.103,-1.064 c -0.094,-0.127 -0.203,-0.24 -0.29,-0.373 -0.11,-0.171 -0.243,-0.325 -0.343,-0.5 -0.145,-0.255 -0.268,-0.522 -0.404,-0.782 -0.202,-0.393 -0.29,-0.404 -0.622,-0.387 -0.209,0.012 -0.417,0.049 -0.626,0.052 -0.733,0.011 -1.467,0.013 -2.2,0.016 -0.118,0 -0.234,0.011 -0.348,0.031 l -0.32,0.214 -2.582,1.557 -1.867,0.779 -1.322,0.696 c -0.007,0.115 -0.019,0.229 -0.053,0.337 -0.058,0.186 -0.147,0.361 -0.132,0.566 0.003,0.036 -0.019,0.075 -0.032,0.111 -0.057,0.152 -0.118,0.304 -0.174,0.456 -0.061,0.165 -0.113,0.333 -0.181,0.495 -0.161,0.378 -0.33,0.752 -0.493,1.129 -0.063,0.142 -0.107,0.296 -0.185,0.429 -0.119,0.205 -0.244,0.406 -0.364,0.61 l 0.513,-0.16 z M 14.781,0.011 13.904,0.614 C 10.116,2.917 5.397,3.456 1.097,2.576 L 0.727,2.523 C 0.528,2.85 0.306,3.161 0.038,3.442 -0.215,3.707 -0.472,3.97 -0.744,4.215 -1.01,4.457 -1.309,4.662 -1.571,4.907 -1.818,5.137 -2.088,5.327 -2.374,5.5 -2.458,5.55 -2.554,5.587 -2.627,5.65 -3.1,6.059 -3.699,6.119 -4.274,6.217 -4.598,6.271 -4.943,6.258 -5.25,6.081 -5.283,6.062 -5.325,6.058 -5.36,6.039 -5.527,5.954 -5.702,5.877 -5.859,5.775 -6.038,5.659 -6.128,5.647 -6.303,5.77 -6.369,5.816 -6.435,5.861 -6.502,5.906 l 0.42,0.226 3.383,1.324 2.071,0.574 2.288,0.362 0.773,0.109 1.286,0.121 2.372,0.017 1.785,-0.286 1.113,-0.052 3.57,-0.844 1.572,-0.53 0.258,-0.004 0.136,0.139 -0.096,0.196 C 7.884,10.852 -0.33,10.231 -6.902,7.015 L -7.421,6.767 c 0.084,0.205 0.161,0.413 0.253,0.614 0.115,0.248 0.259,0.483 0.321,0.755 0.009,0.042 0.042,0.08 0.06,0.122 0.023,0.06 0.06,0.121 0.06,0.183 0.001,0.317 0.176,0.585 0.241,0.883 0.032,0.147 0.091,0.287 0.127,0.432 0.066,0.265 0.122,0.533 0.183,0.8 0.008,0.031 0.02,0.061 0.03,0.093 0.102,0.315 0.206,0.63 0.175,0.971 -0.011,0.136 0.088,0.206 0.217,0.161 0.037,-0.013 0.067,-0.043 0.103,-0.057 0.084,-0.032 0.169,-0.082 0.256,-0.085 0.366,-0.013 0.732,-0.014 1.099,-0.013 0.07,0 0.151,0.009 0.208,0.045 0.305,0.19 0.631,0.36 0.898,0.595 0.422,0.37 0.805,0.786 1.201,1.187 0.072,0.073 0.128,0.164 0.182,0.253 0.129,0.206 0.247,0.417 0.376,0.621 0.133,0.21 0.278,0.412 0.397,0.63 l 0.543,0.315 c 4.937,1.65 10.102,1.944 15.043,0.028 l 0.211,0.05 v 0.198 L 14.38,15.816 C 10.486,17.914 4.175,17.943 0.033,16.591 l -0.315,-0.115 c 0.045,0.102 0.094,0.205 0.117,0.312 0.068,0.306 0.201,0.594 0.223,0.911 0.002,0.039 0.027,0.074 0.035,0.112 0.032,0.167 0.08,0.332 0.09,0.5 0.015,0.254 0.15,0.535 0.15,0.791 h 0.004 c 0,0.282 -0.083,0.888 -0.09,1.17 -0.002,0.082 -0.028,0.166 -0.055,0.244 -0.036,0.105 -0.09,0.204 -0.126,0.307 -0.049,0.15 -0.132,0.294 -0.266,0.351 -0.208,0.089 -0.435,0.17 -0.657,0.176 -0.249,0.008 -0.54,-0.141 -0.791,-0.183 -0.03,-0.006 -0.06,-0.026 -0.087,-0.044 -0.326,-0.23 -0.692,-0.714 -0.969,-1.007 -0.256,-0.27 -0.547,-0.506 -0.764,-0.816 -0.142,-0.202 -0.315,-0.384 -0.483,-0.566 -0.137,-0.147 -0.164,-0.145 -0.295,0.002 -0.132,0.148 -0.282,0.271 -0.455,0.368 -0.188,0.106 -0.367,0.23 -0.558,0.328 -0.309,0.158 -0.622,0.305 -0.987,0.282 -0.209,-0.014 -0.419,-0.006 -0.629,-0.003 -0.23,0.004 -0.459,0.004 -0.666,-0.121 -0.032,-0.02 -0.074,-0.03 -0.112,-0.034 -0.243,-0.023 -0.452,-0.143 -0.655,-0.254 -0.469,-0.257 -0.921,-0.542 -1.354,-0.863 -0.2,-0.147 -0.368,-0.32 -0.544,-0.486 l -0.618,0.453 c -3.944,2.107 -9.091,4.68 -13.534,5.634 l -0.037,0.023 c -0.128,0.161 -0.262,0.319 -0.402,0.47 -0.275,0.298 -0.564,0.586 -0.861,0.86 -0.317,0.292 -0.632,0.589 -1.035,0.768 -0.04,0.018 -0.077,0.05 -0.11,0.081 -0.231,0.219 -0.523,0.344 -0.793,0.5 -0.151,0.087 -0.323,0.143 -0.492,0.19 -0.151,0.041 -0.309,0.049 -0.44,0.151 -0.038,0.028 -0.101,0.031 -0.152,0.03 -0.109,-0.003 -0.201,0.03 -0.296,0.084 -0.084,0.047 -0.182,0.071 -0.274,0.101 -0.063,0.02 -0.131,0.023 -0.19,0.049 -0.445,0.193 -0.868,0.343 -1.348,0.376 -0.221,0.016 -0.442,0.039 -0.661,0.073 -0.412,0.064 -0.868,0.064 -1.279,0.133 -0.032,0.005 -0.066,0.001 -0.098,0.001 -0.184,0 -0.367,0.007 -0.55,-0.002 -0.162,-0.01 -0.324,-0.037 -0.486,-0.057 -0.194,-0.025 -0.387,-0.059 -0.582,-0.071 -0.222,-0.015 -0.441,-0.02 -0.649,-0.123 -0.091,-0.046 -0.202,-0.051 -0.304,-0.074 -0.077,-0.017 -0.157,-0.024 -0.23,-0.049 -0.215,-0.074 -0.425,-0.164 -0.642,-0.232 -0.305,-0.093 -0.603,-0.203 -0.891,-0.341 -0.029,-0.015 -0.061,-0.023 -0.091,-0.034 -0.189,-0.065 -0.379,-0.129 -0.567,-0.197 -0.03,-0.01 -0.055,-0.035 -0.084,-0.05 -0.176,-0.085 -0.35,-0.174 -0.528,-0.252 -0.049,-0.021 -0.098,-0.039 -0.147,-0.059 l -1.423,0.016 -0.319,0.022 c -0.116,0.186 -0.164,0.342 -0.428,0.392 -0.064,0.012 -0.195,0.046 -0.256,0.068 -0.074,0.028 -0.267,0.093 -0.34,0.094 -0.434,0.002 -0.93,0.072 -1.341,-0.161 -0.017,-0.01 -0.038,-0.016 -0.057,-0.016 -0.184,-10e-4 -0.333,-0.099 -0.494,-0.172 -0.082,-0.036 -0.18,-0.088 -0.28,-0.143 l -1.557,-0.383 c -4.207,-0.523 -8.485,-1.309 -12.449,-2.936 l -0.175,-0.16 0.137,-0.136 0.982,0.192 3.535,0.885 2.446,0.495 3.147,0.388 1.593,0.177 0.778,0.108 c -0.028,-0.037 -0.059,-0.072 -0.087,-0.108 -0.293,-0.374 -0.452,-0.952 -0.571,-1.414 -0.012,-0.044 -0.03,-0.088 -0.056,-0.124 -0.073,-0.102 -0.079,-0.216 -0.089,-0.336 -0.012,-0.128 -0.035,-0.256 -0.055,-0.384 l -0.707,-0.131 -1.454,-0.031 -3.006,-0.529 -0.996,-0.183 -3.015,-0.527 -1.428,-0.358 -0.582,-0.292 -1.099,-0.387 -0.781,-0.413 -0.51,-0.398 -0.013,-0.01 -0.084,-0.204 0.071,-0.198 0.435,-0.2 0.646,0.031 0.638,-0.226 0.759,-0.116 0.682,-0.201 1.153,-0.036 0.77,-0.118 0.794,-0.082 3.912,-0.8 2.818,-0.724 0.739,-0.134 1.547,-0.511 1.307,-0.553 c 0.007,-0.074 0.018,-0.148 0.042,-0.221 0.021,-0.064 0.017,-0.149 -0.01,-0.208 -0.113,-0.254 -0.082,-0.511 -0.038,-0.771 0.02,-0.122 -0.056,-0.258 -0.045,-0.382 0.004,-0.054 0,-0.127 -0.001,-0.192 l -0.891,0.132 -1.436,0.03 c -3.88,0.537 -7.82,0.438 -11.726,0.45 l -1.738,-0.34 -0.228,-0.144 -0.112,-0.224 0.082,-0.227 0.235,-0.103 3.862,-0.022 2.218,-0.132 2.337,-0.009 0.757,-0.138 1.73,-0.029 0.77,-0.124 0.851,-0.024 1.799,-0.27 0.824,-0.054 0.759,-0.116 c 0.005,-0.034 0.004,-0.068 0.01,-0.101 0.058,-0.316 0.326,-0.563 0.308,-0.887 -0.014,-0.225 0.019,-0.444 0.124,-0.648 0.021,-0.04 0.043,-0.086 0.042,-0.13 -0.005,-0.221 0.073,-0.419 0.139,-0.626 0.093,-0.286 0.089,-0.581 0.232,-0.846 0.063,-0.116 0.054,-0.185 -0.019,-0.27 L -43.18,8.519 -44.4,7.967 -45.38,7.471 -47.259,6.405 -49,5.491 l -0.948,-0.534 -0.858,-0.613 -1.075,-0.708 -0.594,-0.569 -0.724,-0.456 -0.888,-0.593 -0.807,-0.657 -0.142,-0.05 -2.215,0.386 h -1.788 l -0.257,-0.11 -0.071,-0.221 0.14,-0.207 0.693,-0.266 1.733,-0.323 2.067,-0.584 3.844,-1.164 2.665,-0.868 2.14,-0.791 0.548,-0.347 0.819,-0.365 0.648,-0.235 0.839,-0.333 0.974,-0.487 0.03,-0.059 -0.063,-0.058 c -5.363,-0.804 -10.805,-1.861 -15.572,-4.55 l -0.126,-0.188 0.125,-0.123 3.337,1.079 0.725,0.163 2.488,0.751 1.431,0.34 2.302,0.637 2.528,0.417 1.797,0.259 1.131,0.056 1.818,0.249 0.52,-0.062 3.301,-1.98 0.344,-0.245 0.446,-0.151 1.709,-1.493 0.023,-0.095 L -34.2,-9.9 c -2.755,-2.152 -5.026,-3.63 -7.541,-6.051 l -0.699,-0.969 0.333,0.087 1.071,0.775 0.613,0.557 3.127,2.174 0.898,0.582 0.657,0.512 0.739,0.451 0.652,0.517 1.098,0.678 0.19,0.054 0.179,-0.027 1.713,-1.221 0.805,-0.668 1.894,-1.639 1.092,-0.981 0.843,-0.609 0.522,-0.628 0.012,-0.137 -0.073,-0.116 -0.976,-0.49 -0.732,-0.433 -0.646,-0.249 -2.487,-1.354 -0.678,-0.495 -1.872,-1.109 -0.165,-0.168 -0.018,-0.2 0.423,0.048 1.266,0.571 c 6.991,3.966 14.977,5.651 22.888,6.545 l 2.931,-0.014 0.758,-0.138 c 5.9,-0.175 12.964,-1.945 18.097,-4.855 l 0.412,-0.211 0.243,-0.035 0.138,0.14 -0.081,0.185 -1.177,0.975 -1.425,0.925 -0.507,0.395 -1.808,0.851 -2.587,0.955 -3.393,1.032 -0.972,0.215 -0.14,0.09 -0.033,0.09 0.064,0.106 c 3.823,1.711 8.615,1.385 12.688,0.681 l 0.01,-0.002 0.207,0.035 -0.009,0.195 -0.693,0.561 -1.221,0.564 -1.119,0.236 -0.008,10e-4 -0.428,-0.025 -0.781,0.119 -2.951,-0.016 -3.546,-0.585 -0.734,-0.16 -1.742,-0.62 -1.827,-0.81 -1.423,-0.02 -0.959,0.251 -2.865,0.048 -0.727,0.108 -2.072,-0.001 -0.765,-0.117 -2.061,-0.295 -0.795,-0.087 -0.818,-0.073 -0.452,0.121 -1.387,1.253 c -1.143,0.676 -2.177,1.509 -3.291,2.316 l -1.366,0.711 -1.101,0.363 -0.341,0.214 -10e-4,0.019 0.388,0.046 2.206,-0.17 0.769,-0.119 0.797,-0.083 1.255,-0.215 3.395,-0.732 6.86,-1.384 4.056,-1.248 0.918,-0.3 0.011,-0.004 0.262,0.017 0.161,0.162 -0.067,0.22 c -6.033,2.351 -12.7,4.127 -19.122,5.134 l -0.439,0.169 0.126,0.041 c 4.04,0.086 8.979,-0.511 13.072,-0.804 l 0.625,-0.082 c -0.031,0.058 -0.047,0.128 -0.036,0.216 0.021,0.161 0.046,0.324 0.089,0.482 0.049,0.176 0.135,0.295 0.261,0.369 l -1.544,0.224 c 0.131,-0.133 0.255,-0.274 0.365,-0.424 0.068,-0.091 0.029,-0.192 -0.099,-0.254 -0.26,-0.126 -0.53,-0.225 -0.937,-0.216 -0.118,0 -0.346,-0.001 -0.575,0 -0.058,0.001 -0.118,0 -0.175,0.011 -0.145,0.03 -0.224,0.137 -0.177,0.272 0.069,0.197 0.156,0.388 0.245,0.577 0.026,0.055 0.071,0.083 0.123,0.101 l -0.749,0.085 -0.572,0.004 -0.613,0.255 -1.131,0.063 -0.958,0.201 -0.01,0.002 -0.673,-0.07 -1.048,0.137 -1.15,0.022 -0.466,0.137 -0.14,0.086 -10e-4,0.016 0.401,0.064 C -8.873,-5.108 -2.376,-5.801 4.09,-6.91 l 0.493,-0.136 c 0.516,0.026 1.032,0.053 1.548,0.079 0.045,0.002 0.093,0 0.136,-0.01 0.134,-0.033 0.2,-0.139 0.155,-0.268 C 6.4,-7.305 6.375,-7.362 6.35,-7.418 L 8.213,-7.794 9.116,-8.109 9.373,-8.111 9.52,-7.965 9.461,-7.746 8.956,-7.301 8.314,-7.023 5.569,-6.232 4.197,-5.828 3.209,-5.637 0.966,-5.23 -0.49,-4.915 c -1.735,0.206 -3.627,0.678 -5.314,0.581 l -0.755,0.138 -0.259,0.008 c 0.013,0.014 0.027,0.026 0.039,0.04 0.156,0.181 0.274,0.377 0.24,0.638 -0.02,0.154 -0.01,0.314 -0.005,0.47 0,0.012 -0.003,0.023 -0.003,0.035 l 1.825,-0.042 C -0.015,-3.318 4.886,-4.7 9.504,-5.624 l 1.83,-0.5 c 0.015,0.098 0.027,0.196 0.053,0.291 0.038,0.132 0.094,0.233 0.172,0.307 l -0.568,0.248 c -0.058,-0.081 -0.114,-0.161 -0.15,-0.257 -0.023,-0.059 -0.11,-0.11 -0.179,-0.13 C 10.578,-5.691 10.481,-5.69 10.391,-5.683 10.099,-5.661 9.805,-5.638 9.514,-5.6 9.409,-5.586 9.3,-5.539 9.21,-5.482 9.096,-5.407 9.086,-5.31 9.157,-5.193 c 0.08,0.135 0.163,0.267 0.246,0.399 0.007,0.011 0.018,0.014 0.026,0.023 l -0.731,0.179 -0.967,0.506 -0.805,0.093 -1.57,0.508 -1.057,0.112 -1.18,0.295 -1.893,0.455 -0.441,0.164 c -1.807,0.344 -3.547,0.431 -5.315,0.709 l -0.493,-0.016 -2.112,0.217 c -0.026,0.046 -0.053,0.093 -0.08,0.14 -0.077,0.14 -0.044,0.204 0.123,0.21 0.149,0.006 0.28,0.049 0.413,0.11 0.329,0.15 0.643,0.321 0.936,0.533 0.279,0.2 0.557,0.399 0.771,0.661 l 0.137,0.057 0.578,0.174 c 0.308,-0.189 0.614,-0.38 0.931,-0.556 0.376,-0.209 0.759,-0.413 1.2,-0.457 0.052,-0.006 0.105,-0.018 0.153,-0.038 0.366,-0.153 0.774,-0.108 1.142,-0.251 0.018,-0.007 0.039,-0.006 0.059,-0.007 0.228,-0.005 0.458,-0.013 0.687,-0.016 0.057,0 0.121,0.002 0.174,0.024 0.261,0.102 0.533,0.186 0.777,0.322 C 1.16,-0.478 1.379,-0.238 1.36,0.14 1.355,0.258 1.375,0.377 1.37,0.494 1.351,0.887 1.411,1.279 1.209,1.662 l -0.002,0.005 0.34,0.054 c 5.159,0.668 9.022,-0.564 13.647,-2.563 l 0.236,0.025 -0.173,0.34 z" fill="#181716" transform="matrix(1.33333 0 0 -1.33333 74.35 131.409)"/><path style="mix-blend-mode:multiply" d="m 0,0 -0.613,0.289 -0.86,0.199 c -0.102,-0.134 -0.202,-0.27 -0.308,-0.4 -0.097,-0.118 -0.234,-0.135 -0.377,-0.122 -0.195,0.017 -0.39,0.042 -0.586,0.049 -0.353,0.01 -0.705,0.018 -1.057,0.026 l 3.249,-0.666 1.491,-0.342 c 0.056,0.139 0.129,0.274 0.2,0.408 0.048,0.09 0.13,0.143 0.223,0.163 l -0.435,0.16 z" fill="#181716" transform="matrix(1.33333 0 0 -1.33333 73.43 141.794)"/><path style="mix-blend-mode:multiply" d="m 0,0 c -0.158,-0.055 -0.318,-0.103 -0.478,-0.15 l 0.965,-0.223 c 0.107,0.072 0.219,0.132 0.331,0.195 0.027,0.016 0.062,0.028 0.093,0.028 0.028,-0.001 0.151,-0.007 0.178,-0.009 L 0.705,0.006 0.202,0.191 C 0.173,0.109 0.105,0.037 0,0" fill="#181716" transform="matrix(1.33333 0 0 -1.33333 76.615 143.18)"/><path style="mix-blend-mode:multiply" d="m 0,0 c 0,0.221 0,0.442 0.001,0.664 0,0.05 -0.006,0.104 0.01,0.15 0.196,0.561 0.438,1.092 0.96,1.434 0.121,0.079 0.244,0.158 0.37,0.23 C 1.382,2.503 1.435,2.509 1.484,2.52 1.539,2.533 1.604,2.528 1.649,2.555 1.818,2.658 1.987,2.634 2.162,2.582 2.241,2.559 2.323,2.532 2.403,2.535 2.647,2.543 2.863,2.448 3.07,2.346 3.222,2.272 3.355,2.16 3.49,2.056 3.644,1.936 3.797,1.812 3.94,1.678 4.147,1.483 4.333,1.271 4.42,0.989 4.459,0.864 4.525,0.747 4.579,0.627 4.666,0.432 4.755,0.238 4.837,0.041 4.866,-0.028 4.88,-0.103 4.891,-0.176 4.928,-0.413 4.962,-0.65 4.994,-0.888 5.024,-1.101 5.055,-1.314 4.946,-1.518 4.928,-1.55 4.911,-1.59 4.912,-1.625 4.916,-1.842 4.822,-2.033 4.739,-2.221 4.636,-2.454 4.484,-2.658 4.272,-2.808 4.108,-2.923 3.953,-3.061 3.733,-3.062 c 0,0 -0.038,-0.008 -0.053,-0.019 C 3.485,-3.216 3.264,-3.214 3.041,-3.204 2.908,-3.199 2.775,-3.2 2.642,-3.203 2.475,-3.207 2.315,-3.184 2.171,-3.09 2.145,-3.074 2.111,-3.054 2.084,-3.056 1.901,-3.077 1.772,-2.964 1.638,-2.873 1.257,-2.615 0.871,-2.364 0.594,-1.978 0.459,-1.788 0.312,-1.607 0.21,-1.396 0.188,-1.35 0.157,-1.304 0.154,-1.257 0.144,-1.132 0.101,-1.025 0.033,-0.922 0.008,-0.882 -0.002,-0.826 -0.002,-0.777 -0.006,-0.518 -0.004,-0.26 -0.004,0 Z m -0.48,-1.691 c 0.067,-0.194 0.19,-0.374 0.311,-0.543 0.263,-0.369 0.571,-0.695 0.948,-0.955 0.242,-0.169 0.474,-0.347 0.765,-0.428 0.03,-0.009 0.055,-0.037 0.084,-0.051 0.205,-0.101 0.411,-0.201 0.647,-0.202 0.34,-0.004 0.681,0.005 1.02,-0.005 0.272,-0.008 0.504,0.119 0.748,0.202 0.201,0.069 0.383,0.193 0.582,0.273 0.302,0.123 0.472,0.384 0.675,0.612 0.02,0.022 0.021,0.061 0.033,0.091 0.088,0.217 0.177,0.432 0.263,0.651 0.034,0.088 0.072,0.18 0.087,0.273 0.089,0.544 -0.023,1.084 -0.034,1.625 0,0.051 -0.016,0.104 -0.034,0.153 C 5.528,0.243 5.438,0.48 5.349,0.718 5.343,0.736 5.339,0.756 5.336,0.775 5.297,0.993 5.194,1.179 5.061,1.352 4.997,1.435 4.932,1.523 4.898,1.619 4.847,1.769 4.753,1.878 4.641,1.981 4.435,2.172 4.234,2.368 4.029,2.562 3.992,2.598 3.951,2.63 3.909,2.662 3.69,2.828 3.456,2.97 3.199,3.07 3.085,3.115 2.965,3.145 2.848,3.18 2.786,3.198 2.709,3.195 2.664,3.232 2.558,3.32 2.44,3.327 2.313,3.325 2.195,3.324 2.077,3.332 1.96,3.332 1.773,3.333 1.577,3.363 1.428,3.203 1.42,3.195 1.405,3.187 1.393,3.187 1.186,3.185 1.003,3.113 0.831,3.002 0.751,2.95 0.654,2.923 0.577,2.869 0.454,2.782 0.336,2.687 0.226,2.585 0.128,2.492 0.042,2.386 -0.044,2.28 -0.244,2.034 -0.358,1.741 -0.482,1.453 -0.553,1.286 -0.625,1.118 -0.691,0.948 -0.709,0.901 -0.712,0.845 -0.712,0.794 -0.715,0.493 -0.713,0.191 -0.713,-0.109 h 0.001 c 0,-0.222 0.022,-0.447 -0.005,-0.666 -0.043,-0.342 0.135,-0.619 0.237,-0.916" fill="#181716" transform="matrix(1.33333 0 0 -1.33333 31.56 103.743)"/><g style="mix-blend-mode:multiply"><path style="mix-blend-mode:multiply" d="m 0,0 c -0.478,0.341 -0.75,0.375 -0.989,0.648 -0.239,0.273 -2.627,0.886 -2.968,0.886 -0.341,0 -1.125,0.034 -1.774,0 C -6.379,1.5 -6.651,1.5 -7.606,1.262 -8.561,1.023 -8.903,0.716 -9.517,0.579 c -0.614,-0.136 -0.955,-0.272 -1.808,-0.75 -0.852,-0.477 -0.852,-0.477 -1.432,-1.057 -0.58,-0.58 -0.682,-0.75 -1.057,-1.296 -0.375,-0.546 -0.307,-0.409 -0.478,-1.399 -0.17,-0.989 -0.443,-1.296 -0.307,-1.944 0.137,-0.648 0.512,-1.193 0.785,-1.33 0.273,-0.137 0.887,-0.443 1.228,-0.512 0.341,-0.068 0.716,-0.409 1.5,-0.238 0.784,0.17 0.887,-0.068 1.706,0.273 0.819,0.34 0.853,0.136 1.535,0.375 0.682,0.239 1.057,0.341 1.535,0.477 0.477,0.137 0.614,0.171 1.125,0.443 0.512,0.273 1.979,0.819 2.422,1.297 0.444,0.477 0.853,0.511 1.194,1.091 0.341,0.58 0.614,0.614 0.921,1.331 0.307,0.716 0.648,1.125 0.75,1.807 C 0.204,-0.171 0,0 0,0" fill="#f3a1bc" fill-rule="evenodd" transform="matrix(1.33333 0 0 -1.33333 33.822 117.412)"/></g></g><path style="mix-blend-mode:multiply" d="M 0,0 H 67.294 V 116.026 H 0 Z" fill="none" stroke="#181716" stroke-width="1.605" stroke-miterlimit="10" transform="matrix(1.33333 0 0 -1.33333 1.07 155.771)"/></svg>