<svg xmlns="http://www.w3.org/2000/svg" width="91.865" height="156.841"><path style="mix-blend-mode:multiply" d="m 206.791,731.079 h 67.294 v 116.025 h -67.294 z" fill="#fff" transform="matrix(1.33333 0 0 -1.33333 -274.65 1130.542)"/><g style="mix-blend-mode:multiply"><g style="mix-blend-mode:multiply"><path style="mix-blend-mode:multiply" d="m 0,0 c 0,0.273 0.205,3.684 0.205,3.684 0,0 -0.341,0.75 -0.341,1.091 0,0.341 -1.092,2.183 -1.092,2.183 l -1.228,0.75 c 0,0 -1.501,0.956 -1.706,1.024 C -4.366,8.8 -6.208,9.141 -6.208,9.141 -6.89,9.414 -9.96,9.755 -9.96,9.755 l -1.228,0.341 -1.773,0.069 c 0,0 -1.433,-2.252 -1.638,-2.593 -0.205,-0.341 -0.75,-1.705 -0.75,-1.705 l -0.614,-1.774 -0.546,-0.75 -4.503,-0.478 c 0,0 -2.183,-0.341 -2.455,-0.205 -0.273,0.137 -4.094,0.137 -4.094,0.137 l -0.818,0.205 c 0,0 1.16,2.046 1.227,2.251 0.069,0.204 0.205,0.682 0.205,0.682 0,0 0.546,4.161 0.341,4.366 -0.204,0.205 -0.136,1.432 -0.136,1.432 l -0.341,0.205 -2.524,0.273 -1.91,-0.137 -1.91,-0.341 c 0,0 0.068,-2.455 0.136,-3.069 0.068,-0.615 0.546,-1.842 0.478,-2.116 -0.069,-0.272 0.068,-1.363 0.068,-1.636 V 4.298 c 0,0 0.273,-1.365 0,-1.365 -0.273,0 -2.865,-0.068 -3.206,0.069 -0.341,0.136 -4.844,0.545 -4.844,0.545 0,0 -2.66,-0.136 -3.002,0 -0.341,0.137 -2.25,0.137 -2.524,0.273 -0.272,0.137 -1.841,0.273 -1.841,0.273 0,0 -1.433,1.91 -1.433,2.319 0,0.41 -0.478,2.32 -0.546,2.593 -0.068,0.273 -1.091,0.682 -1.091,0.682 l -0.683,-0.068 c 0,0 -2.523,-0.819 -2.728,-0.75 -0.205,0.068 -1.774,-0.888 -2.047,-0.888 -0.273,0 -2.182,-0.955 -2.182,-0.955 l -0.956,-1.023 -0.682,-1.159 -0.205,-2.388 0.274,-2.729 c 0,0 0.068,-1.228 0.068,-1.432 0,-0.205 0.136,-0.955 0.136,-1.16 0,-0.205 0.409,-4.571 0.409,-4.571 l 0.683,-1.569 c 0,0 1.841,-1.16 1.705,-1.365 -0.137,-0.204 1.159,-0.682 1.159,-0.682 0,0 0.887,-0.136 0.751,-0.341 -0.137,-0.204 0.136,-2.865 0.136,-3.138 0,-0.273 0.273,-1.978 0.205,-2.183 -0.068,-0.204 -0.068,-1.023 -0.068,-1.023 l 0.819,-1.159 33.028,0.186 c -0.005,0.789 0.262,2.746 0.262,2.746 0,0 0.068,1.843 0,2.048 -0.069,0.204 0.068,0.75 0.068,0.75 l 0.137,1.364 1.228,0.409 0.273,0.478 0.204,1.842 c 0,0 0.069,1.364 0.069,1.774 0,0.409 -0.205,2.319 -0.205,2.319 0,0 0.205,0.409 0.205,0.613 0,0.205 0.068,2.525 0.068,2.525 l -0.137,1.296 3.138,0.478 2.866,-0.137 0.136,-0.955 v -1.159 -3.889 l -0.136,-0.682 c 0,0 0.136,-2.115 0,-2.32 -0.136,-0.204 0.068,-0.955 -0.136,-1.228 -0.205,-0.273 -1.502,-0.477 -1.502,-0.477 0,0 -0.273,-3.001 -0.273,-3.206 0,-0.205 -0.136,-2.184 -0.136,-2.184 l -0.137,-2.046 c 0,0 -0.025,-0.131 -0.069,-0.325 l 9.211,0.052 0.955,0.546 c 0,0 0.341,1.5 0.341,1.705 0,0.205 0.068,2.593 0.136,2.934 0.068,0.341 0.068,1.978 0.137,2.182 0.068,0.205 0.955,0.41 1.296,0.751 0.341,0.341 1.365,0.818 1.569,1.092 0.205,0.273 0.887,1.091 0.887,1.091 0,0 0.477,2.592 0.477,3.001 0,0.41 0.614,3.003 0.546,3.276 C 0,-1.774 0,-0.273 0,0" fill="#75b726" fill-rule="evenodd" transform="matrix(1.33333 0 0 -1.33333 86.35 137.15)"/></g><g style="mix-blend-mode:multiply"><path style="mix-blend-mode:multiply" d="m 0,0 -0.796,-0.349 -0.82,-0.048 -0.924,0.269 -0.206,-0.033 -0.27,-0.325 -0.299,-0.879 -0.261,-2.097 -1.164,-4.731 -0.275,-1.493 -0.299,-1.173 -0.133,-0.733 0.108,-0.481 -0.128,-0.99 v -0.013 l 0.158,-1.031 0.147,-1.325 0.118,-0.766 0.029,-0.856 0.059,-1.119 -0.035,-0.649 0.246,-0.908 0.147,-1.901 0.129,-0.771 0.166,-0.437 0.187,-0.094 0.221,0.019 0.353,0.261 0.62,1.15 0.421,1.64 0.586,2.067 0.156,0.728 0.134,0.458 0.314,1.159 0.259,1.507 0.286,0.894 0.024,1.154 0.442,2.505 0.167,0.718 0.26,1.507 -0.059,0.472 0.084,0.678 0.261,1.787 -0.079,0.453 0.063,0.451 0.04,1.744 -0.049,1.135 -0.216,0.378 z" fill="#fc0" transform="matrix(1.33333 0 0 -1.33333 45.567 90.38)"/></g><g style="mix-blend-mode:multiply"><path style="mix-blend-mode:multiply" d="M 0,0 -0.146,-0.141 -0.19,-0.364 v -0.009 l 0.142,-0.751 0.178,-0.413 0.593,-0.583 0.855,-0.62 0.619,-0.56 1.111,-0.953 0.387,-0.495 0.864,-0.905 0.904,-1.159 0.574,-0.604 0.32,-0.565 0.413,-0.471 0.353,-0.531 0.983,-1.375 0.795,-1.267 0.776,-1.287 1.047,-2.195 0.515,-0.959 0.992,-1.955 1.189,-2.642 0.501,-0.973 0.688,-0.805 0.217,-0.049 h 0.007 l 0.424,0.163 0.732,0.451 0.972,0.501 0.772,0.408 1.14,0.334 1.654,0.407 0.767,0.413 0.117,0.181 0.069,0.526 -0.442,1.641 -0.201,0.977 -0.58,0.894 -0.653,1.115 -0.383,0.501 -0.845,1.218 -0.476,0.408 -0.697,0.775 -3.194,3.292 -0.953,1.11 -1.719,1.522 -1.551,1.101 -0.551,0.334 -1.296,0.767 -0.993,0.48 -0.858,0.615 -0.625,0.259 -3.36,1.651 L 1.49,-0.175 0.444,-0.019 0.021,0 Z" fill="#3a3a39" transform="matrix(1.33333 0 0 -1.33333 -2.118 34.209)"/></g><g style="mix-blend-mode:multiply"><path style="mix-blend-mode:multiply" d="m 0,0 -1.209,-0.28 -2.412,-1.125 -1.513,-0.845 -0.79,-0.388 -1.603,-1.051 -0.618,-0.56 -2.313,-1.812 -0.982,-0.786 -0.61,-0.57 -1.301,-1.056 -0.835,-0.934 -0.702,-0.77 -0.703,-0.771 -0.889,-1.174 -2.008,-2.412 -0.345,-0.54 -0.8,-0.968 -0.403,-0.481 -1.983,-3.026 -0.95,-1.704 -0.347,-0.536 -0.61,-1.159 -0.109,-0.481 -1.217,-2.909 -0.958,-2.577 -0.034,-0.87 0.118,-0.472 0.3,-0.289 0.918,-0.261 1.311,-0.456 0.949,-0.526 1.159,-0.903 0.578,-0.61 0.428,-0.157 0.227,0.044 0.182,0.129 0.603,1.168 0.221,0.957 0.545,1.519 0.575,1.193 2.113,4.371 0.746,1.611 0.928,2.019 1.625,2.795 0.924,1.729 0.913,1.444 0.522,0.659 0.628,1.138 1.709,1.828 0.3,0.584 0.383,0.502 0.491,0.688 0.545,0.633 0.585,0.888 0.943,0.826 0.492,0.688 1.144,1.213 0.658,0.52 1.502,1.445 0.792,0.683 0.535,0.642 0.107,0.801 -0.069,0.536 -0.151,0.151 z" fill="#3a3a39" transform="matrix(1.33333 0 0 -1.33333 95.471 13.493)"/></g><g style="mix-blend-mode:multiply"><path style="mix-blend-mode:multiply" d="m 0,0 -0.481,0.118 -1.479,-0.31 -3.203,-1.218 -1.316,-0.746 -0.643,-0.24 -0.84,-0.34 -1.779,-1.168 -1.168,-0.6 -1.071,-0.697 -1.188,-0.875 -0.703,-0.476 -0.57,-0.315 -1.292,-0.771 -1.115,-0.948 -1.473,-1.178 -0.8,-0.698 -0.374,-0.147 -0.068,0.074 0.845,1.757 0.81,1.253 0.786,1.277 0.844,1.218 0.56,1.209 1.267,1.975 0.463,0.716 1.89,2.53 0.732,1.037 0.521,0.657 0.683,1.086 1.017,1.046 0.902,1.159 0.866,0.904 0.962,1.394 0.325,0.266 0.418,0.467 0.873,0.894 0.506,0.673 0.569,0.608 0.434,0.452 0.554,0.625 0.536,0.643 0.491,0.393 0.245,0.344 1.415,1.237 0.152,0.448 -0.044,0.839 -0.197,0.408 -0.196,0.069 L -0.57,17.02 -2.702,16.17 -4.671,15.192 -6.027,14.191 -6.974,13.665 -8.408,12.742 -9.224,12.069 -9.553,11.807 -9.7,11.838 -9.745,12 l 0.069,0.206 0.791,1.307 0.387,0.79 0.374,0.511 0.309,0.575 0.486,0.693 0.884,1.767 0.502,0.973 0.403,0.482 0.604,0.869 0.467,0.712 0.672,1.095 1.057,1.302 0.579,0.894 0.379,0.506 1.055,1.302 0.236,0.658 -0.039,0.54 -0.182,0.393 -0.167,0.039 -1.041,-0.437 -0.692,-0.486 -0.782,-0.398 -0.879,-0.594 -0.87,-0.605 -0.947,-0.525 -0.998,-0.771 -0.653,-0.526 -1.847,-1.395 -1.546,-1.4 -0.645,-0.535 -1.498,-1.448 -0.535,-0.645 -0.491,-0.392 -0.422,-0.462 -0.683,-0.791 -0.702,-0.771 -0.555,-0.624 -0.806,-0.962 -2.446,-3.154 -0.821,-1.243 -1.08,-1.571 -1.012,-1.346 -0.491,-0.688 -0.256,-0.629 -0.726,-1.042 -0.708,-1.354 -0.515,-0.703 -0.163,-0.049 -0.083,0.084 0.064,0.461 0.014,0.889 0.153,1.91 0.138,1.052 -0.05,0.693 0.207,1.498 0.147,1.325 0.31,2.049 0.79,4.116 -0.128,1.307 -0.147,0.152 -0.206,0.025 -0.536,-0.364 -0.52,-0.068 -0.772,-0.114 -1.154,-0.034 -1.321,0.163 -1.145,0.019 -0.397,0.196 -0.176,0.01 -0.163,-0.103 -0.525,-0.968 -0.634,-2.018 -0.079,-1.101 -0.624,-2.323 -0.102,-0.781 -0.168,-0.717 -0.82,-5.074 -0.025,-0.86 -0.093,-0.79 -0.053,-0.831 -0.241,-1.822 -0.06,-0.825 -0.239,-1.233 -0.055,-0.83 -0.236,-1.532 -0.088,-1.74 -0.221,-1.802 -0.041,-1.12 -0.121,-0.761 -0.026,-0.859 -0.27,-1.793 -0.023,-1.155 -0.094,-0.79 -0.054,-0.83 -0.123,-0.762 -0.063,-2.651 0.034,-1.741 -0.138,-0.746 -0.015,-2.637 -0.142,-0.447 -0.235,-0.944 -0.943,-2.593 -0.447,-1.34 c 0.461,0.002 0.813,0.011 0.889,0.03 0.273,0.068 4.775,-0.068 4.775,-0.068 0,0 4.502,0.409 4.776,0.477 0.244,0.061 4.524,0.449 5.615,0.579 l 0.478,1.035 0.687,1.08 0.702,1.066 0.765,1.592 2.217,3.383 0.343,0.541 0.683,1.086 0.869,0.898 0.605,0.87 1.537,1.998 0.467,0.418 0.678,0.796 0.555,0.624 0.643,0.829 1.419,1.528 0.806,0.963 0.933,0.835 2.25,2.171 2.79,2.81 0.771,0.702 1.228,1.13 0.221,0.372 0.114,1.047 z" fill="#3a3a39" fill-rule="evenodd" transform="matrix(1.33333 0 0 -1.33333 96.315 95.776)"/></g><g style="mix-blend-mode:multiply"><path style="mix-blend-mode:multiply" d="m 0,0 -0.093,0.79 -0.055,1.125 -0.21,1.557 -0.157,1.493 -0.075,1.222 -0.24,1.529 -0.054,0.83 -0.148,1.032 -0.805,4.499 -0.407,2.834 -0.212,0.672 -0.216,1.847 -0.192,0.693 -0.088,0.795 -0.118,0.767 -0.034,0.85 -0.226,0.658 -0.27,1.497 -0.972,3.743 -0.182,0.703 -0.895,2.938 -0.456,1.605 -0.412,0.766 -0.148,0.736 -1.381,3.337 -0.417,0.761 -0.643,1.125 -0.521,0.658 -0.428,0.177 -0.524,-0.006 -0.605,-0.294 -1.763,-0.594 -2.21,-0.443 -0.423,-0.167 -0.132,-0.161 -0.158,-0.433 -0.044,-0.824 0.968,-3.459 0.368,-2.284 0.3,-1.174 0.677,-3.448 0.487,-2.461 0.432,-2.219 0.216,-1.259 0.088,-0.794 0.453,-2.515 -0.05,-0.575 -0.108,-0.108 -0.133,0.078 -0.191,0.436 -0.359,0.527 -0.899,1.754 -1.222,2.017 -0.634,1.136 -0.358,0.526 -0.983,1.669 -1.98,3.031 -0.471,0.707 -1.881,2.54 -1.267,1.68 -1.002,1.059 -0.31,0.576 -0.545,0.633 -1.62,1.917 -0.551,0.628 -1.125,1.233 -0.594,0.585 -0.423,0.461 -0.913,0.855 -1.375,1.276 -1.994,1.248 -1.003,0.772 -0.437,0.172 -0.26,-0.015 -0.207,-0.108 -0.098,-0.196 v -0.242 l 0.383,-1.119 0.432,-0.747 0.546,-0.928 0.722,-1.046 0.521,-0.658 1.169,-1.778 0.741,-1.028 0.654,-1.115 0.387,-0.496 0.359,-0.82 0.305,-0.285 0.599,-0.875 0.796,-1.266 1.409,-2.422 0.359,-0.525 0.923,-2.023 0.418,-1.057 0.314,-0.569 0.87,-2.078 0.736,-1.621 0.192,-0.693 0.889,-2.058 0.266,-0.619 0.79,-2.155 0.437,-1.037 0.138,-0.472 c -0.225,-0.255 -0.79,0.367 -0.79,0.367 l -1.706,1.569 -2.046,1.364 -3.001,2.047 c 0,0 -2.593,1.023 -2.798,1.023 -0.204,0 -1.432,0.205 -1.432,0.205 -0.409,-0.409 0.409,-1.91 0.409,-1.91 0,0 2.524,-1.979 2.456,-2.183 -0.068,-0.205 3.343,-3.275 3.275,-3.479 -0.068,-0.205 2.592,-4.093 2.592,-4.366 0,-0.273 2.251,-4.094 2.183,-4.503 -0.068,-0.409 1.569,-3.479 1.296,-3.684 -0.273,-0.205 0.41,-1.705 0.41,-1.705 l 1.363,-0.383 0.001,-0.163 3.616,-0.545 6.617,-0.819 5.594,0.068 c 0,0 0.764,-0.014 1.626,-0.022 l -0.077,0.479 z" fill="#3a3a39" fill-rule="evenodd" transform="matrix(1.33333 0 0 -1.33333 43.995 132.364)"/></g><g style="mix-blend-mode:multiply"><path style="mix-blend-mode:multiply" d="m 0,0 0.145,-0.429 0.005,-0.016 0.801,-0.702 0.535,-0.652 0.727,-0.736 0.526,-0.663 1.154,-1.194 1.448,-1.79 0.491,-0.69 0.89,-1.162 0.434,-0.762 0.406,-0.46 0.632,-1.145 0.959,-1.391 1.402,-2.42 1.806,-4.08 0.22,-0.679 0.172,-0.202 0.251,-0.074 h 0.005 l 0.234,0.096 0.087,0.229 -1.223,2.956 -0.271,0.617 -1.177,2.367 -1.775,2.945 -0.951,1.402 -0.553,0.928 -1.112,1.533 -0.343,0.562 -0.595,0.604 -0.041,0.103 0.016,0.015 0.305,-0.148 3.062,-3.121 0.769,-1.005 0.552,-0.62 1.384,-1.856 0.497,-0.683 1.002,-1.344 2.024,-3.576 0.431,-0.771 0.208,-0.145 0.231,0.006 0.162,0.162 0.017,0.236 -1.022,1.97 -1.8,2.92 -0.831,1.234 -2.171,2.849 -0.567,0.606 -1.35,1.607 -0.603,0.573 -2.211,2.22 -0.82,0.668 -0.11,0.14 v 0.044 l 0.078,0.018 0.575,-0.284 1.009,-0.77 0.745,-0.424 2.004,-1.533 0.502,-0.374 0.771,-0.702 1.412,-1.224 0.632,-0.859 0.79,-0.673 1.669,-1.865 1.621,-1.904 0.912,-1.454 0.649,-0.814 0.451,-0.736 0.663,-0.886 0.237,-0.038 0.171,0.17 0.022,0.27 -0.295,0.661 -0.927,1.44 -1.551,1.982 -0.509,0.677 -1.644,1.899 -3.251,3.242 -0.64,0.522 -0.54,0.638 L 9.251,-5.52 7.318,-3.911 6.292,-3.163 5.21,-2.474 3.538,-1.49 2.201,-0.763 0.635,0.052 0.159,0.158 Z" fill="#181716" transform="matrix(1.33333 0 0 -1.33333 -.246 35.482)"/></g><g style="mix-blend-mode:multiply"><path style="mix-blend-mode:multiply" d="m 0,0 -0.303,-0.039 -1.957,-0.724 -2.911,-1.523 -1.024,-0.741 -1.585,-1.072 -2.538,-1.891 -0.901,-0.861 -0.664,-0.524 -1.025,-1.036 -0.607,-0.577 -1.55,-1.698 -1.326,-1.632 -0.444,-0.727 -1.032,-1.328 -1.982,-2.741 -0.535,-0.937 -1.208,-2.05 -0.307,-0.861 -0.239,-0.347 -0.627,-1.151 -1.664,-3.966 -0.088,-0.457 -0.003,-0.013 0.063,-0.24 0.167,-0.196 0.213,-0.019 0.175,0.163 0.213,0.713 1.032,2.498 1.008,2.224 0.76,1.313 0.345,0.822 1.374,2.159 1.545,2.282 0.74,1.024 0.527,0.656 0.876,1.17 0.623,0.573 1.001,1.345 1.604,1.625 1.171,0.914 0.377,0.486 0.501,0.392 0.749,0.712 2.58,1.834 1.364,0.845 -0.797,-0.795 -0.792,-0.685 -0.771,-0.702 -0.621,-0.552 -0.826,-0.668 -0.382,-0.491 -1.608,-1.646 -1.02,-1.335 -0.525,-0.654 -1.559,-1.982 -1.093,-1.564 -0.919,-1.429 -0.408,-0.488 -0.772,-1.295 -1.155,-2.089 -1.906,-3.708 -0.277,-0.891 -0.556,-1.218 -0.318,-0.89 0.016,-0.466 0.158,-0.177 0.217,-0.025 0.179,0.15 0.338,0.888 0.756,1.893 0.647,1.412 2.487,4.872 0.586,0.89 1.137,1.803 1.888,2.528 0.804,0.971 0.604,0.858 0.323,0.264 0.735,0.746 0.799,0.964 0.838,0.917 0.665,0.528 0.419,0.458 1.233,1.141 0.117,0.043 -0.939,-1.002 -0.446,-0.446 -1.505,-1.743 -0.615,-0.85 -0.562,-0.631 -0.796,-1.257 -0.663,-0.821 -2.296,-3.605 -0.706,-1.354 -0.842,-1.522 -1.371,-3.05 -0.645,-1.424 -0.534,-1.525 -0.347,-0.841 -0.594,-2.06 -0.261,-0.957 -0.004,-0.014 0.057,-0.293 0.179,-0.178 0.229,0.044 0.156,0.183 1.169,3.599 1.354,3.353 0.414,0.772 0.426,1.04 0.311,0.578 0.722,1.624 0.572,0.906 0.74,1.318 1.271,1.968 0.842,1.216 1.266,1.678 1.997,2.418 1.855,1.973 1.653,1.585 1.373,1.274 0.831,0.664 0.506,0.655 0.946,0.819 1.488,1.183 0.123,0.253 -0.018,0.265 -0.182,0.182 z" fill="#181716" transform="matrix(1.33333 0 0 -1.33333 94.902 14.774)"/></g><g style="mix-blend-mode:multiply"><path style="mix-blend-mode:multiply" d="m 0,0 c 0.856,-0.157 1.712,-0.32 2.559,-0.514 0.708,-0.163 1.405,-0.37 2.104,-0.568 0.395,-0.111 0.788,-0.238 1.178,-0.37 0.892,-0.303 1.734,-0.704 2.459,-1.318 0.427,-0.363 0.704,-0.81 0.816,-1.37 0.259,-1.3 0.319,-2.612 0.275,-3.929 -0.043,-1.276 -0.117,-2.551 -0.258,-3.82 -0.071,-0.638 -0.135,-1.276 -0.206,-1.913 -0.014,-0.13 -0.046,-0.258 -0.07,-0.387 -0.021,-0.122 -0.06,-0.244 -0.063,-0.367 -0.009,-0.346 -0.125,-0.668 -0.194,-1.001 -0.043,-0.21 -0.16,-0.365 -0.332,-0.491 -0.367,-0.27 -0.767,-0.476 -1.192,-0.633 -0.484,-0.18 -0.968,-0.364 -1.462,-0.515 -0.469,-0.144 -0.949,-0.25 -1.425,-0.369 -0.323,-0.082 -0.647,-0.165 -0.973,-0.236 -0.326,-0.071 -0.655,-0.128 -0.983,-0.191 -0.09,-0.017 -0.181,-0.028 -0.27,-0.05 -0.559,-0.146 -1.131,-0.218 -1.7,-0.306 -0.524,-0.081 -1.045,-0.183 -1.57,-0.255 -0.947,-0.129 -1.894,-0.254 -2.844,-0.362 -0.728,-0.083 -1.458,-0.145 -2.189,-0.206 -1.141,-0.094 -2.283,-0.188 -3.426,-0.264 -0.764,-0.051 -1.531,-0.064 -2.296,-0.101 -1.623,-0.08 -3.246,-0.101 -4.87,-0.103 h -0.452 v -0.005 c -1.147,0.012 -2.293,0.018 -3.438,0.043 -0.792,0.017 -1.583,0.06 -2.374,0.09 -0.334,0.012 -0.669,0.017 -1.002,0.036 -0.562,0.033 -1.123,0.08 -1.685,0.112 -0.759,0.043 -1.517,0.077 -2.276,0.115 -0.052,0.003 -0.115,-0.011 -0.154,0.013 -0.197,0.121 -0.42,0.081 -0.629,0.125 -0.033,0.006 -0.067,0.013 -0.098,0.009 -0.481,-0.063 -0.952,0.044 -1.426,0.084 -0.777,0.067 -1.553,0.136 -2.326,0.23 -0.988,0.12 -1.972,0.27 -2.958,0.4 -0.344,0.046 -0.69,0.066 -1.034,0.111 -0.278,0.036 -0.555,0.087 -0.831,0.143 -0.391,0.078 -0.78,0.167 -1.17,0.25 -0.409,0.087 -0.821,0.166 -1.229,0.261 -0.535,0.125 -1.072,0.245 -1.599,0.399 -0.602,0.177 -1.211,0.341 -1.781,0.611 -0.289,0.136 -0.572,0.288 -0.859,0.428 -0.349,0.171 -0.543,0.463 -0.649,0.822 -0.09,0.307 -0.161,0.618 -0.233,0.93 -0.143,0.629 -0.219,1.265 -0.285,1.902 -0.081,0.787 -0.134,1.579 -0.185,2.369 -0.047,0.751 -0.095,1.504 -0.109,2.256 -0.013,0.746 -0.015,1.494 0.032,2.237 0.066,1.063 0.531,1.942 1.343,2.637 0.516,0.443 1.092,0.789 1.708,1.068 0.584,0.266 1.179,0.504 1.796,0.681 0.673,0.194 1.341,0.402 2.019,0.573 0.158,0.04 0.317,0.07 0.477,0.104 l 0.737,-1.847 0.025,-0.087 c -0.252,-0.078 -0.503,-0.16 -0.747,-0.261 -0.339,-0.138 -0.665,-0.306 -0.938,-0.561 -0.417,-0.388 -0.396,-0.776 0.064,-1.108 0.283,-0.206 0.597,-0.353 0.926,-0.468 0.271,-0.095 0.545,-0.183 0.821,-0.261 0.29,-0.082 0.582,-0.157 0.876,-0.218 0.365,-0.076 0.736,-0.123 1.099,-0.203 0.334,-0.074 0.667,-0.135 1.005,-0.173 0.878,-0.101 1.752,-0.233 2.632,-0.324 0.989,-0.104 1.98,-0.196 2.973,-0.259 1.13,-0.071 2.263,-0.108 3.394,-0.153 1.073,-0.041 2.147,-0.083 3.22,-0.104 1.191,-0.024 2.383,-0.025 3.575,-0.035 v 0.028 c 0.812,0 1.624,-0.013 2.436,0.003 1.164,0.022 2.329,0.073 3.494,0.099 1.65,0.036 3.299,0.077 4.944,0.221 0.594,0.051 1.191,0.073 1.783,0.129 0.959,0.091 1.915,0.191 2.871,0.3 0.566,0.065 1.129,0.147 1.692,0.234 0.523,0.082 1.047,0.167 1.565,0.279 0.568,0.124 1.138,0.239 1.688,0.438 0.276,0.099 0.558,0.186 0.826,0.304 0.307,0.133 0.594,0.297 0.825,0.554 0.188,0.209 0.18,0.474 0.056,0.67 -0.112,0.178 -0.247,0.335 -0.428,0.452 -0.331,0.212 -0.684,0.376 -1.045,0.534 -0.422,0.184 -0.865,0.297 -1.305,0.414 -0.525,0.14 -0.511,0.091 -1.053,0.148 -0.136,0.015 -0.272,0.039 -0.409,0.05 -0.033,0.003 -0.094,-0.02 -0.097,-0.039 -0.006,-0.038 0.008,-0.102 0.035,-0.116 0.095,-0.052 0.197,-0.1 0.302,-0.129 0.461,-0.122 0.381,-0.08 0.836,-0.223 0.41,-0.13 0.81,-0.296 1.205,-0.468 C 1.82,-2.905 2.07,-3.076 2.264,-3.316 2.454,-3.553 2.435,-3.715 2.188,-3.893 2.162,-3.912 2.133,-3.927 2.106,-3.946 1.868,-4.103 1.599,-4.192 1.329,-4.268 0.914,-4.385 0.494,-4.48 0.075,-4.583 -0.066,-4.618 -0.21,-4.625 -0.349,-4.598 L -1.192,-4.92 c 0,0 -0.905,-0.084 -1.671,-0.171 l 0.088,0.233 1.272,2.853 0.932,2.013 0.039,0.081 C -0.355,0.061 -0.177,0.032 0,0 m -29.142,-5.645 -0.039,0.248 -0.56,2.98 -1.44,5.933 -1.337,4.266 -0.975,2.568 -0.627,1.43 -0.552,1.518 -0.931,2.009 -0.407,1.079 -0.534,0.936 -1.886,3.715 -1.364,2.474 -3.001,4.672 -0.951,1.133 -0.062,0.166 1.476,-1.708 0.974,-1.081 0.992,-1.365 0.377,-0.504 0.36,-0.539 0.565,-0.592 0.538,-0.942 0.356,-0.519 0.314,-0.584 0.374,-0.5 1.625,-2.794 0.426,-0.748 1.783,-3.52 1.68,-3.625 0.823,-1.822 0.308,-0.883 0.31,-0.558 0.204,-0.691 0.271,-0.6 0.396,-1.382 0.42,-1.046 0.771,-2.469 0.593,-2.052 0.178,-1.011 0.436,-1.323 0.43,-2.235 0.058,-0.152 -1.129,0.025 -0.734,0.051 z m -3.558,0.352 -0.23,2.365 -0.214,0.641 -0.035,0.851 -0.708,3.418 -0.797,3.629 -0.646,2.29 -0.156,1.042 -0.844,2.1 -0.549,1.513 -0.645,1.716 -2.135,5.242 -0.406,0.766 -1.096,2.445 -1.101,2.144 -2.027,3.76 0.005,0.005 0.291,-0.155 1.12,-1.539 0.54,-0.626 2.415,-3.77 0.744,-1.31 0.731,-1.641 0.469,-0.701 0.617,-1.146 0.279,-0.602 0.335,-0.848 0.471,-1 0.266,-0.621 0.471,-1.001 1.06,-2.471 1.483,-4.116 0.597,-1.754 0.324,-1.148 0.855,-3.271 0.731,-3.093 0.099,-0.792 0.343,-1.419 0.098,-0.788 0.082,-0.407 -1.874,0.154 z m -3.486,0.474 -0.158,0.591 -0.232,0.952 -1.251,3.756 -0.33,1.144 -0.676,1.104 -0.652,1.42 -0.326,0.549 -0.547,1.228 -0.955,1.703 -0.579,0.893 -1.023,1.633 -1.891,2.708 v 10e-4 l 0.293,-0.155 0.542,-0.648 0.739,-0.74 0.471,-0.401 0.546,-0.636 0.568,-0.606 0.79,-0.964 0.337,-0.565 0.701,-0.758 1.957,-3.048 1.619,-2.794 0.363,-0.816 1.295,-2.824 1.083,-3.08 -0.911,0.139 c -0.169,-0.07 -0.324,-0.083 -0.495,-0.043 -0.179,0.042 -0.357,0.086 -0.538,0.113 -0.25,0.036 -0.495,0.091 -0.74,0.144 m -0.798,0.213 c -0.177,0.056 -0.358,0.1 -0.531,0.168 -0.221,0.086 -0.425,0.205 -0.584,0.388 -0.122,0.142 -0.142,0.258 -0.038,0.409 0.084,0.124 0.181,0.244 0.292,0.341 0.126,0.109 0.264,0.2 0.405,0.282 z m 3.023,2.768 c -0.002,0.022 -0.004,0.042 -0.006,0.065 l -0.019,-0.004 -0.23,0.576 -1.112,2.43 -1.156,2.09 -1.883,3.133 -0.613,0.858 -0.72,1.054 -1.838,2.3 -0.443,0.423 -0.359,0.537 -0.404,0.455 0.01,0.068 0.084,0.019 0.366,-0.191 0.911,-0.862 1.292,-1.057 0.871,-0.88 0.366,-0.535 1.323,-1.321 1.202,-1.448 0.767,-0.991 0.582,-0.965 0.536,-2.693 0.542,-3.235 z m 18.945,3.087 -0.012,-0.714 -0.123,-0.761 -0.002,-0.008 0.029,-0.199 c -0.28,0.006 -0.553,0.013 -0.806,0.019 -0.738,-0.009 -1.35,-0.013 -1.918,-0.02 l -0.006,0.321 -0.117,0.764 -0.068,0.607 c 1.008,0.007 2.015,-0.001 3.023,-0.009 m 7.293,-6.764 0.923,1.726 0.549,0.923 1.358,2.173 2.115,2.889 0.527,0.656 1.392,1.843 0.554,0.622 0.844,0.923 0.72,0.759 0.533,0.64 1.461,1.483 1.927,1.897 0.491,0.402 0.439,0.439 1.092,0.965 3.012,2.311 0.142,0.042 L 10.295,15.074 8.925,13.778 8.413,13.385 7.087,11.772 5.908,10.583 4.873,9.265 3.909,8.163 2.459,6.367 1.109,4.478 0.335,3.476 -0.229,2.569 -1.189,1.166 -3.59,-2.926 -4.676,-5.281 -5.917,-5.38 c 0,0 -0.929,-0.072 -1.814,-0.152 z m -2.449,0.967 0.579,0.883 0.563,0.633 0.743,1.311 1.888,2.538 0.454,0.707 0.868,0.909 1.049,1.304 1.11,1.245 1.613,1.635 0.516,0.653 1.921,1.902 0.664,0.523 1.342,1.304 1.111,0.938 0.565,0.337 1.069,0.981 2.477,1.67 0.084,0.028 L 8.118,14.581 6.199,12.958 5.445,12.243 4.478,11.433 3.169,10.097 2.691,9.677 1.636,8.384 -0.428,6.31 -0.946,5.656 -1.505,5.036 -1.712,4.643 -2.551,3.715 -5.502,-0.416 -6.04,-1.346 -6.643,-2.225 -7.27,-3.36 -7.964,-4.441 -8.565,-5.612 c -0.262,-0.027 -0.481,-0.054 -0.609,-0.075 h -1.125 l -0.594,-0.022 z m -2.626,0.142 0.765,2.178 0.835,2.112 1.62,3.974 1.16,2.379 0.277,0.602 1.311,2.518 1.674,3.038 0.56,0.913 1.83,2.88 2.058,2.942 0.56,0.63 0.837,1.218 0.801,0.969 1.7,2.122 4.279,4.258 0.662,0.525 1.047,1.009 1.458,1.2 0.446,0.421 0.733,0.454 0.676,0.526 0.172,0.069 0.077,-0.013 10e-4,-0.042 L 11.282,30.997 10.623,30.191 9.445,29.003 8.926,28.346 8.377,27.708 7.896,27.023 7.177,26.263 6.376,25.285 5.91,24.574 4.947,23.191 4.38,22.56 3.961,21.811 3.085,20.617 -0.11,15.556 -1.584,12.908 -1.93,12.414 -2.105,11.962 -3.797,8.33 -5.477,4.405 -5.683,3.726 -5.687,3.715 -5.63,3.055 -5.953,2.553 -7.002,1.239 -8.987,-1.494 -11.804,-5.742 -13.113,-5.789 -13.212,-5.8 Z m -2.908,-1.072 1.169,3.25 1.374,3.632 1.08,2.454 1.455,2.969 0.277,0.601 1.536,2.88 1.736,2.971 0.379,0.52 0.389,0.78 0.583,0.887 1.709,2.415 0.379,0.508 0.724,1.038 0.407,0.487 0.463,0.707 0.522,0.65 0.571,0.61 0.951,1.108 0.434,0.453 0.844,0.923 0.573,0.613 0.375,0.494 2.329,2.092 1.381,1.264 1.357,1.012 0.433,0.433 1.08,0.696 0.503,0.386 0.628,0.541 0.702,0.493 0.578,0.589 0.744,0.43 1.045,0.707 0.613,0.274 -1.3,-1.02 L 10.032,31.526 8.303,30.014 5.951,27.935 3.817,25.645 2.885,24.516 2.314,23.906 1.773,23.266 0.337,21.456 -1.401,19.071 -1.914,18.399 -2.855,16.988 -3.496,16.149 -3.964,15.435 -6.839,10.643 -9.155,6.185 -9.49,5.622 -9.985,4.351 -10.329,3.517 -11.33,1.276 l -0.669,-1.689 -0.35,-0.835 -0.723,-2.228 -0.195,-0.682 -0.493,-1.281 -0.127,-0.431 -0.199,-0.021 -1.724,0.084 z m -25.193,41.952 0.987,1.067 2.187,1.63 1.192,0.592 0.339,0.204 0.769,0.119 1.541,0.523 2.594,0.358 1.503,-0.242 0.31,-0.239 0.131,-0.469 0.048,-0.746 -0.235,-0.93 -0.664,-1.079 -0.622,-0.527 -0.554,-0.321 -1.143,-0.31 -1.278,-0.186 -1.476,0.005 -0.853,0.039 -0.446,0.068 -0.01,10e-4 -0.746,-0.119 -0.829,0.069 -0.797,0.094 -2.028,0.024 -0.064,0.065 z m 10.334,8.006 -0.091,-0.077 -0.782,-0.087 -1.159,-0.019 -1.777,-0.616 -0.753,-0.415 -0.65,-0.251 -1.782,-1.172 -0.678,-0.519 -1.208,-1.444 -1.092,-1.269 -1.45,-1.812 -0.09,-0.043 -0.043,0.043 0.025,0.449 0.281,0.926 0.366,1.394 0.485,1.28 0.342,0.83 0.791,1.565 0.302,0.565 0.792,0.96 0.818,0.659 0.613,0.548 1.122,0.635 2.106,0.531 0.831,-0.019 1.039,-0.405 1.191,-1.133 0.451,-0.993 z m 1.055,-2.747 -0.156,-0.067 -0.498,0.087 -0.848,0.072 -1.829,-0.246 -1.898,-0.468 -2.576,-0.979 -0.888,-0.585 -1.092,-0.696 -0.224,-0.052 0.676,0.793 0.365,0.503 0.913,0.837 0.556,0.328 0.43,0.467 0.895,0.557 2.615,1.205 1.521,0.243 0.505,0.005 0.664,-0.204 0.121,-0.128 0.529,-0.938 0.269,-0.601 z m 15.026,15.693 -0.009,-0.157 -0.076,-0.077 -0.406,0.021 -1.164,0.335 -0.727,0.145 -0.73,0.423 -0.414,0.442 -0.531,1.214 -0.104,0.645 0.313,0.503 0.342,0.207 0.425,-0.069 0.782,-0.381 0.814,-0.649 0.624,-0.827 0.648,-1.103 z m 2.771,-14.02 0.4,0.463 0.542,0.306 0.856,0.02 1.501,0.205 1.138,0.103 0.792,-0.097 0.815,-0.058 1.192,-0.273 3.238,-1.171 1.536,-0.811 0.454,-0.425 0.649,-0.518 0.027,-0.085 -0.08,-0.08 -0.22,-0.056 -3.111,0.156 -0.786,-0.094 -1.127,-0.059 -2.508,-0.442 -1.174,-0.269 -1.045,0.087 -1.416,0.06 -0.644,0.214 -0.787,0.651 -0.372,0.487 -0.139,1.135 z m -1.252,4.283 -0.257,-1.497 -0.462,-1.29 -0.791,-1.265 -0.135,-0.132 -0.16,-0.041 -0.413,0.124 -0.144,0.118 -0.204,0.649 -0.229,1.231 0.008,1.453 0.353,1.995 0.776,1.556 0.43,0.444 0.141,0.046 0.124,-0.056 0.71,-1.033 0.272,-1.172 z m 2.322,-0.402 -0.489,-0.646 -0.494,-0.377 -0.017,-0.014 -0.127,-0.504 0.143,-0.755 -0.139,-0.388 -0.727,-1.034 -0.237,-0.975 -0.098,-0.117 -0.11,-0.01 -0.875,0.759 0.158,0.359 0.593,1.197 0.632,2.019 0.078,1.713 0.071,0.152 0.098,0.036 0.325,-0.176 1.131,-0.952 0.089,-0.148 z m 2.482,0.301 0.862,-0.009 1.711,-0.341 1.283,-0.472 2.619,-1.492 0.648,-0.538 0.687,-0.474 0.719,-0.749 0.68,-0.797 0.061,-0.123 -0.027,-0.068 -0.118,-0.047 -0.34,0.112 -0.948,0.547 -1.199,0.577 -1.526,0.547 -0.954,0.22 -1.37,0.398 -2.635,0.017 H -8.01 l -2.271,-0.2 -0.666,0.194 -0.145,0.113 -0.087,0.176 -0.019,0.536 0.149,0.423 0.709,0.729 0.99,0.453 z m 6.328,-1.701 -0.702,0.492 -0.799,0.377 -0.995,0.49 -1.752,0.616 -1.774,0.304 -0.009,0.002 -1.577,-0.226 -0.408,-0.176 -0.132,0.016 -0.096,0.115 -0.095,0.481 0.038,0.846 0.314,1.142 0.502,0.959 0.751,0.694 0.774,0.374 0.969,0.2 0.97,0.083 0.971,-0.168 1.551,-0.775 0.641,-0.524 0.966,-1.092 0.635,-0.83 L 0.478,46.74 1.596,44.326 2.182,42.849 2.177,42.7 2.141,42.663 1.929,42.833 1.207,43.614 0.572,44.161 -0.905,45.35 Z m -9.024,3.375 -0.087,-0.444 -0.089,-0.026 -1.026,0.701 -0.563,0.603 -0.547,1.194 -0.372,1.387 v 1.73 l 0.136,0.753 0.084,0.172 0.114,0.044 0.331,-0.209 0.631,-0.542 0.642,-0.818 0.531,-1.218 0.315,-1.142 0.07,-1.169 z m -10.748,-10.083 -0.742,1.926 -1.018,1.62 0.017,0.086 0.154,0.066 0.816,-0.055 0.891,-0.278 0.339,-0.226 0.798,-0.944 0.495,-1.248 0.436,-1.917 0.295,-1.765 0.088,-0.797 0.21,-1.549 -0.014,-4.223 -0.227,1.217 -0.346,2.022 -0.564,1.791 -0.326,1.157 z m -0.246,-0.916 0.357,-0.816 0.838,-2.394 0.16,-0.736 0.317,-0.851 0.406,-1.945 0.21,-1.844 -0.004,-2.075 -0.062,-0.155 -0.087,-0.018 -0.967,0.776 -1.248,1.111 -1.105,0.957 -1.249,1.102 -0.713,0.752 -0.393,0.509 -0.641,0.526 -0.939,1.397 -0.728,1.321 -0.499,1.553 -0.239,1.521 0.389,1.951 0.393,0.756 1.132,0.9 1.015,0.414 0.506,-0.043 0.771,-0.314 0.743,-0.993 0.563,-0.905 0.508,-0.956 z m 0.621,9.758 -1.222,-2.325 -0.612,-1.737 -0.113,-0.166 -0.184,-0.079 -0.199,0.025 -0.133,0.13 -0.177,0.975 0.033,2.028 0.404,2.252 0.077,0.502 0.357,0.816 0.545,1.504 0.758,1.295 1.159,1.17 0.807,0.346 0.685,0.193 0.564,0.011 0.219,-0.055 0.14,-0.113 0.16,-0.401 -0.033,-0.784 -0.207,-0.651 -1.247,-1.993 -0.704,-1.069 z m 2.938,-3.687 -0.295,-0.867 -0.267,-0.285 -1.016,-0.433 -0.505,-0.052 -0.392,0.169 -0.529,0.376 -0.827,0.331 -0.102,0.147 -0.004,0.496 0.61,1.737 0.436,0.741 0.899,1.464 0.123,0.103 0.132,0.004 0.891,-0.551 0.409,-0.446 0.468,-1.281 0.069,-0.611 z m 0.174,-12.155 -0.031,1.157 -0.121,0.762 -0.203,2.451 -0.394,2.265 -0.577,2.08 -0.256,0.639 -0.034,0.231 0.038,0.189 0.311,0.251 0.812,0.348 0.661,0.226 0.632,0.241 0.839,-0.038 0.433,-0.034 0.444,0.042 1.09,-0.356 0.857,-0.585 0.688,-0.766 0.636,-1.122 0.336,-0.832 0.169,-1.291 10e-4,-0.806 -0.32,-2.027 -0.618,-1.722 -0.905,-1.442 -1.206,-1.444 -0.691,-0.768 -0.823,-0.665 -0.844,-0.923 -0.557,-0.625 -0.299,-0.152 -0.05,0.05 -0.028,0.523 0.074,0.958 -0.138,1.883 z m -11.225,17.092 0.226,1.569 0.07,0.162 0.067,0.029 0.253,-0.202 1.162,-1.772 0.479,-1.275 0.298,-1.752 -0.026,-1.429 -0.249,-0.919 -0.226,-0.331 -0.14,-0.037 -0.333,0.203 -0.536,0.621 -0.63,1.128 -0.484,1.86 -0.061,0.516 0.141,0.765 z m 0.318,4.036 -0.09,0.373 0.127,0.998 0.199,1.264 0.346,1.117 0.555,0.895 0.791,0.959 0.67,0.512 1.058,0.879 0.036,-0.033 0.013,-0.82 -0.277,-0.894 -0.101,-0.475 -2.297,-3.287 -0.702,-1.069 -0.305,-0.433 z M 5.291,29.172 4.563,28.454 3.389,27.546 2.856,26.913 2.218,26.365 0.758,24.874 0.347,24.396 0.054,24.242 l -0.017,0.016 0.095,0.37 0.369,0.832 1.324,2.796 2.121,3.771 0.667,1.101 1.461,2.363 0.748,1.024 0.348,0.522 0.72,0.76 1.048,1.304 0.572,0.611 0.682,0.789 1.402,1.54 2.208,2.195 0.501,0.372 -1.331,-1.89 L 12.564,42.23 9.513,37.32 8.667,35.805 8.083,34.623 7.356,33.286 5.546,29.785 Z M 11.592,43.361 11.064,42.717 9.74,41.381 6.847,37.782 5.541,35.846 3.545,32.826 2.049,30.186 1.633,29.134 0.189,26.158 l -0.593,-1.172 -0.639,-1.128 -0.16,-0.7 0.01,-0.377 -0.289,-0.53 -0.689,-0.799 -0.328,-0.543 -1.091,-1.278 -0.449,-0.723 -1.019,-1.346 -0.687,-1.078 -0.703,-1.065 -1.215,-1.752 -0.08,-0.048 -0.041,0.041 v 0.798 l 0.732,1.615 1.251,3.167 0.545,1.222 0.746,1.609 0.673,1.391 0.761,1.595 0.981,1.963 1.452,2.669 1.581,2.541 0.479,0.695 2.296,3.002 3.239,3.535 0.751,0.713 0.497,0.387 0.511,0.67 3.252,2.666 0.159,0.087 0.068,-0.01 0.008,-0.055 z m -29.052,-49.105 -0.074,0.637 -0.025,0.868 -0.122,0.753 -0.025,1.162 -0.123,0.752 -0.009,0.534 c 0.928,0.003 1.855,-0.008 2.784,-0.022 l -0.058,-0.954 -0.415,-1.067 -0.35,-1.112 -0.389,-0.806 -0.193,-0.775 -0.748,0.036 z m -2.159,-0.064 -0.003,0.095 -0.122,0.753 -0.006,1.479 -0.136,0.737 -0.03,0.864 -0.123,0.754 -0.054,1.128 -0.093,0.788 -0.055,1.128 -0.383,3.152 -0.147,1.327 -0.093,0.798 -0.034,0.483 0.545,1.53 0.106,1.059 0.236,0.763 0.15,-0.673 0.578,-2.948 0.041,-1.146 0.118,-0.763 0.382,-3.445 0.054,-1.128 0.149,-1.617 0.151,-0.731 0.03,-1.157 0.122,-0.752 0.006,-2.069 0.066,-0.363 -1.089,-0.027 z M 8.3,33.573 l 1.099,2.141 0.414,0.769 0.285,0.586 0.483,0.7 0.799,1.261 0.587,0.879 0.402,0.481 0.272,0.627 1.027,1.32 1.754,2.362 0.719,0.759 1.486,1.742 0.639,0.551 0.69,0.773 0.463,0.452 0.11,0.191 -0.043,0.186 -0.188,0.056 -1.646,-0.736 -1.424,-0.932 -1.986,-1.259 -2.587,-1.84 L 9.365,42.796 8.04,41.479 7.376,40.953 6.21,39.758 4.801,38.222 4.228,37.607 2.809,35.787 2.016,34.805 0.679,32.898 l -1.171,-1.781 -1.589,-2.825 -0.369,-0.53 -0.37,-0.8 -0.955,-1.705 -1.111,-2.424 -2.151,-4.335 -0.3,-0.649 -0.016,1.638 0.285,2.074 0.149,1.328 0.058,0.82 0.236,1.539 0.052,0.822 0.242,1.242 0.029,0.844 0.256,1.228 0.038,0.836 0.252,1.228 0.122,1.051 0.625,3.216 0.028,0.551 0.243,0.629 0.049,0.602 -0.059,0.3 -0.174,0.174 -0.237,-0.046 -0.249,-0.416 -0.323,-1.475 -0.274,-1.496 -0.211,-1.554 -0.232,-1.246 -0.53,-4.183 -0.211,-1.264 -0.089,-0.796 -0.206,-1.563 -0.084,-0.797 -0.212,-1.269 -0.058,-0.82 -0.384,-2.571 -0.028,-0.846 -0.125,-0.77 -0.047,-1.356 -0.183,-1.655 -0.059,-1.12 -0.023,-0.844 -0.824,-1.516 -0.311,-0.578 -0.46,-1.006 -0.853,-1.502 -0.436,-0.727 -0.074,-0.026 -0.086,0.084 -0.05,0.208 0.151,1.036 0.033,1.152 0.064,0.447 0.002,0.008 -0.098,0.741 0.141,0.752 0.029,1.141 0.124,0.769 0.024,1.147 0.117,0.768 0.152,1.325 0.054,1.12 0.236,1.829 0.089,0.794 0.505,3.914 0.29,1.775 0.148,1.324 0.112,0.768 0.302,1.478 0.057,1.111 0.261,1.215 0.116,0.763 1.014,4.901 v 0.211 l -0.101,0.229 -0.216,0.134 -0.24,-0.024 -0.163,-0.174 -0.37,-1.175 -0.118,-1.056 -0.33,-1.736 -0.594,-3.537 -0.052,-0.823 -0.527,-2.724 -0.039,-0.839 -0.118,-0.769 -0.088,-0.794 -0.246,-1.816 -0.255,-1.812 -0.088,-0.793 -0.212,-1.561 -0.073,-1.219 -0.222,-1.728 -0.053,-0.827 -0.095,-0.794 -0.053,-1.123 -0.089,-0.797 -0.148,-2.212 -0.057,-1.115 -0.094,-0.798 -0.025,-1.733 -0.127,-0.772 -0.002,-0.009 0.079,-0.705 -0.233,-0.56 -0.695,-1.381 -0.509,-1.249 -0.231,-0.333 -0.045,0.989 0.029,1.73 0.123,0.771 0.004,1.163 0.138,0.757 0.049,2.323 0.104,1.058 0.053,1.122 0.094,0.796 0.024,1.146 0.118,0.772 0.147,2.212 0.236,2.117 0.443,3.389 0.5,3.626 0.084,0.797 0.888,5.298 0.5,2.74 0.678,3.447 0.214,0.986 v 0.599 l -0.07,0.278 -0.174,0.172 -0.224,-0.006 -0.19,-0.15 -0.181,-0.463 -0.482,-2.416 -0.011,0.039 0.009,0.897 0.153,1.041 0.001,0.01 -0.311,1.805 0.018,0.205 0.08,0.08 0.581,-0.208 1.109,-0.087 0.811,-0.099 0.791,0.099 1.129,0.053 0.539,0.061 1.162,0.303 1.535,0.231 0.96,0.088 1.453,-0.152 0.985,-0.044 2.342,-0.335 0.864,-0.008 0.742,-0.123 0.019,-0.003 0.217,0.102 0.076,0.202 -0.874,2.378 -0.451,1.02 -0.686,1.681 -0.737,1.327 -1.093,1.862 -1.457,2.085 -0.665,0.823 -0.918,0.849 -1.592,0.791 -2.004,0.395 -0.776,-0.112 -1.342,-0.427 -0.889,-0.621 -0.316,-0.264 -0.172,-0.024 -0.156,0.068 -0.201,0.362 -0.201,0.7 -0.834,1.545 -0.696,0.784 -1.054,1.014 -0.469,0.393 -0.727,1.905 -0.991,1.403 -0.9,0.869 -1.159,0.648 -0.474,0.142 -0.485,-0.061 -0.649,-0.264 -0.319,-0.334 -0.073,-0.56 0.146,-0.783 0.285,-0.89 0.73,-1.061 0.492,-0.415 3.229,-1.205 0.132,-0.124 0.138,-0.413 -0.132,-1.001 v -2.052 l -0.152,-0.404 -0.824,-1.25 -0.579,-1.205 -0.488,-1.885 -0.049,-1.198 0.064,-1.718 0.142,-0.769 -0.045,-0.22 -0.124,-0.122 -0.994,-0.191 -0.215,0.03 -0.121,0.121 -0.038,0.533 0.078,0.948 0.001,0.008 -0.306,1.771 -0.003,0.016 -1.058,1.328 -0.67,0.706 0.087,0.312 1.114,1.838 0.476,0.713 0.677,1.386 0.065,1.167 -0.096,0.512 -0.541,0.661 -0.439,0.208 -0.76,0.141 -1.267,-0.55 -1.025,-0.759 -0.859,-0.931 -0.736,-1.339 -0.865,-2.381 -0.41,-1.372 -0.29,-2.66 -0.059,-1.124 0.009,-0.88 -0.077,-0.168 -0.177,-0.075 -0.814,-0.103 -0.219,-0.036 -0.148,0.058 -0.077,0.172 -0.026,2.638 -0.223,0.963 -0.537,1.547 -1.034,1.613 -0.633,1.123 -0.061,0.513 0.101,0.473 0.466,0.993 1.239,1.71 1.196,1.758 0.639,1.147 0.347,1.145 -0.045,0.836 -0.293,0.662 -0.193,0.128 -0.219,-0.006 -0.715,-0.508 -0.754,-0.714 -0.486,-0.418 -0.747,-1.011 -0.427,-0.457 -0.781,-1.62 -0.321,-1.461 -0.028,-0.842 -0.113,-0.486 -0.003,-0.011 0.106,-0.777 0.145,-0.705 -0.392,-1.902 -0.038,-0.838 -0.128,-0.774 0.039,-0.868 0.363,-2.013 0.556,-1.229 0.485,-0.69 0.579,-0.895 0.054,-0.216 -0.017,-0.226 -0.356,-0.54 -0.2,-0.229 -0.039,0.027 -0.343,1.108 -0.734,1.045 -0.114,0.456 -0.089,0.502 -0.739,1.362 -0.393,0.492 -1.559,1.117 -0.5,0.129 -1.478,-0.041 -1.166,-0.324 -1.569,-0.809 -1.75,-1.506 -0.95,-1.129 -1.266,-2.281 -1.004,-2.543 -0.752,-3.084 -0.18,-1.035 0.079,-0.57 0.166,-0.166 0.203,0.005 1.903,0.777 1.439,0.083 2.603,-0.043 0.746,-0.138 0.01,-0.002 0.718,0.108 0.747,-0.121 0.009,-10e-4 1.336,0.163 0.773,0.125 1.744,0.614 0.87,0.628 0.664,0.847 0.117,0.069 0.081,-0.026 0.249,-0.901 0.748,-1.626 1.734,-2.403 0.572,-0.611 1.802,-1.743 0.652,-0.525 0.962,-0.804 0.626,-0.556 0.478,-0.391 1.096,-1.264 0.417,-0.454 0.246,-0.364 0.206,-0.148 0.235,-0.018 0.792,0.726 0.303,0.294 0.398,0.468 0.512,0.394 0.516,0.651 1.637,1.609 1.444,1.514 1.002,1.366 0.418,0.74 0.285,0.305 0.142,0.47 0.021,-0.073 -0.298,-2.085 -0.501,-3.624 -0.731,-4.862 -0.176,-0.643 -0.003,-0.009 10e-4,-0.639 -0.152,-1.337 -0.142,-1.327 -0.212,-1.266 -0.088,-0.796 -0.265,-2.681 -0.325,-2.922 -0.054,-1.12 -0.103,-1.026 0.053,-0.425 -0.108,-0.756 -0.022,-1.732 -0.226,-1.19 -0.003,-0.009 0.103,-0.742 -0.142,-0.752 -0.008,-1.159 -0.108,-0.589 c -0.711,0.007 -1.423,0.015 -2.135,0.016 -0.347,0.001 -0.695,-0.007 -1.042,-0.013 l -0.032,0.365 -0.236,2.12 -0.058,0.829 -0.423,3.115 -0.49,3.064 -0.333,0.841 0.136,1.253 0.574,3.563 0.285,2.072 0.168,1.025 0.069,0.721 v 0.01 l -0.046,0.216 -0.151,0.217 -0.228,0.064 -0.172,-0.178 -0.203,-1.615 -0.245,-1.518 -0.169,-0.724 -0.343,-2.598 -0.392,-1.967 -0.397,-2.246 -0.366,-1.15 -0.052,0.109 -0.593,3.565 -0.106,0.489 0.013,0.216 0.39,0.481 0.156,0.476 0.363,2.291 0.555,3.864 0.159,1.05 -0.078,0.575 -0.162,0.155 -0.201,-0.047 -0.23,-0.406 -0.139,-1.366 -0.216,-1.259 -0.226,-1.538 -0.36,-1.708 -0.081,-0.522 -0.083,-0.19 -0.068,-0.047 -0.065,0.048 -0.391,1.558 -0.394,2.082 -0.254,0.916 -0.1,0.791 -0.343,1.421 -0.188,0.998 -0.555,2.097 -0.727,2.813 -0.286,0.903 -0.323,0.338 -0.203,0.04 -0.127,-0.135 0.05,-0.462 0.293,-0.894 0.076,-0.527 0.224,-0.648 0.134,-0.759 0.604,-2.045 0.74,-3.087 0.271,-1.499 0.465,-2.184 0.295,-1.765 0.139,-1.046 0.451,-2.196 0.305,-2.35 0.084,-0.513 0.195,-0.674 0.039,-0.85 0.413,-2.526 0.011,-1.18 0.137,-0.739 0.058,-1.125 0.24,-1.816 0.04,-1.124 0.255,-2.115 0.006,-1.184 0.137,-0.74 0.058,-1.124 0.078,-0.646 -1.552,-0.082 -0.073,0.391 -0.01,1.476 -0.137,0.741 0.034,0.503 -0.044,0.964 -0.118,0.761 -0.089,1.388 -0.088,0.796 -0.294,2.356 -0.236,2.12 -0.054,1.128 -0.089,0.799 -0.211,1.261 -0.163,1.017 -0.367,2.573 -0.06,0.831 -0.457,2.789 -0.49,2.155 -0.1,0.794 -0.293,1.172 -0.139,1.045 -1.185,5.6 -0.269,0.904 -0.223,0.964 -0.534,1.523 -0.286,1.195 -0.388,1.094 -0.31,0.372 -0.215,-0.049 -0.098,-0.237 0.138,-0.796 0.548,-1.821 0.281,-0.591 0.099,-0.785 0.529,-1.821 0.189,-1.002 0.224,-0.653 0.588,-2.352 0.37,-2.289 0.303,-1.166 0.378,-2.273 0.777,-4.822 0.294,-2.061 0.084,-0.803 0.446,-3.084 0.06,-0.828 0.088,-0.793 0.059,-0.828 0.088,-0.793 0.054,-0.836 0.123,-0.753 0.025,-1.162 0.123,-0.756 0.088,-1.388 0.089,-0.798 0.117,-0.758 0.025,-0.866 0.171,-1.544 -1.287,0.078 -0.083,0.447 -0.01,1.18 -0.137,0.736 -0.011,1.178 -0.147,1.038 -0.142,1.613 -0.055,1.131 -0.24,1.52 -0.025,1.163 -0.264,1.494 -0.031,1.156 -0.269,1.788 -0.05,0.843 -0.236,1.237 -0.978,5.803 -1.297,6.662 -1.225,4.972 -0.159,0.416 -0.116,0.783 -0.387,1.085 -0.315,0.901 -0.122,0.2 -0.187,0.103 -0.194,-0.107 -0.134,-0.472 0.106,-0.52 0.306,-0.564 0.432,-1.632 0.451,-1.605 0.234,-1.255 0.252,-0.618 0.688,-3.143 0.884,-4.415 0.128,-1.059 0.166,-0.712 1.046,-6.613 0.447,-3.965 -0.085,-0.706 0.222,-0.644 0.064,-1.111 0.241,-1.818 0.054,-1.128 0.24,-2.113 0.055,-1.837 0.167,-1.382 -1.554,0.035 -0.467,2.165 -0.475,1.876 -0.111,0.744 0.258,0.613 0.025,1.172 -0.285,2.07 -0.443,3.982 -0.432,2.811 -0.304,1.752 -0.055,0.839 -0.373,1.686 -0.197,1.277 -0.265,1.504 -0.579,2.956 -0.134,0.755 -0.16,0.715 -0.068,0.54 -0.228,0.646 -0.724,3.114 -0.431,1.332 -0.599,2.35 -0.324,1.147 -0.344,1.429 -0.125,0.209 -0.225,0.152 -0.244,0.007 -0.17,-0.163 0.071,-0.496 0.929,-3.224 0.352,-1.117 1.256,-4.926 0.111,-1.14 0.288,-0.821 0.903,-4.693 0.148,-1.037 0.167,-0.712 0.275,-1.792 0.165,-0.711 0.125,-1.059 0.338,-2.013 0.054,-0.832 0.471,-4.24 0.062,-1.083 C -27.876,2 -27.934,1.996 -27.993,1.992 l -0.957,2.884 -0.395,0.774 -0.861,2.387 -0.461,1.009 -0.249,0.645 -0.306,0.567 -0.409,1.07 -0.954,1.995 -0.393,0.788 -0.706,1.353 -0.563,1.212 -0.843,1.511 -0.401,0.785 -0.342,0.538 -0.754,1.316 -0.357,0.522 -0.757,1.308 -0.346,0.543 -1.824,2.602 -1.43,1.814 -1.351,1.597 -0.825,0.941 -0.407,0.488 -0.603,0.571 -2.466,2.546 -0.897,0.885 -0.509,0.364 -1.669,1.58 -1.661,1.301 -0.443,0.193 -0.207,-0.041 -0.041,-0.209 0.216,-0.407 1.758,-1.801 0.522,-0.94 0.808,-0.686 0.605,-0.858 2.361,-3.236 1.157,-1.783 0.318,-0.575 0.718,-1.042 1.369,-2.459 0.693,-1.369 1.274,-2.577 0.161,-0.278 0.59,-1.886 0.467,-0.715 0.398,-1.077 0.246,-0.639 0.344,-0.832 1.33,-3.677 1.482,-4.701 0.102,-0.425 -0.099,0.154 -0.67,0.808 -0.551,0.629 -1.118,1.236 -0.409,0.488 -0.779,0.691 -2.241,2.19 -1.839,1.406 -1.924,1.325 -2.475,1.393 -0.219,0.084 -0.227,-0.018 -0.161,-0.153 -0.018,-0.239 0.23,-0.406 0.886,-1.186 0.807,-0.964 0.555,-0.623 0.676,-0.784 0.459,-0.724 1.314,-1.923 1.326,-2.21 1.318,-2.209 0.546,-1.224 0.573,-1.168 0.232,-0.668 0.558,-1.211 0.012,-0.041 c -0.407,-0.089 -0.816,-0.175 -1.218,-0.279 -0.747,-0.193 -1.485,-0.426 -2.214,-0.679 -0.555,-0.193 -1.097,-0.428 -1.632,-0.674 -0.938,-0.433 -1.77,-1.018 -2.437,-1.816 -0.346,-0.414 -0.627,-0.872 -0.801,-1.387 -0.08,-0.235 -0.142,-0.476 -0.187,-0.719 -0.052,-0.282 -0.098,-0.569 -0.109,-0.855 -0.019,-0.471 -0.015,-0.943 -0.01,-1.414 0.006,-0.569 0.015,-1.139 0.04,-1.708 0.023,-0.537 0.071,-1.072 0.104,-1.607 0.018,-0.281 0.018,-0.564 0.044,-0.844 0.052,-0.574 0.103,-1.148 0.18,-1.719 0.072,-0.537 0.169,-1.072 0.271,-1.605 0.048,-0.257 0.136,-0.505 0.196,-0.759 0.06,-0.251 0.163,-0.483 0.303,-0.697 0.29,-0.447 0.711,-0.747 1.162,-1.005 0.55,-0.311 1.144,-0.521 1.739,-0.722 0.396,-0.134 0.801,-0.238 1.204,-0.353 0.071,-0.02 0.118,-0.059 0.131,-0.128 0.012,-0.064 0.017,-0.13 0.016,-0.195 -0.006,-0.413 -0.02,-0.826 0.099,-1.228 0.007,-0.025 0.009,-0.052 0.01,-0.078 0.021,-0.379 0.04,-0.758 0.065,-1.137 0.007,-0.11 0.01,-0.228 0.054,-0.326 0.106,-0.235 0.114,-0.478 0.124,-0.729 0.021,-0.52 -0.062,-1.05 0.114,-1.559 0.006,-0.018 0.006,-0.039 0.006,-0.058 0.015,-0.321 0.026,-0.64 0.042,-0.961 0.006,-0.096 0.019,-0.194 0.042,-0.289 0.031,-0.127 0.077,-0.249 0.112,-0.375 0.061,-0.227 0.24,-0.358 0.475,-0.361 0.115,-10e-4 0.234,-0.016 0.345,-0.047 0.243,-0.066 0.406,0.045 0.398,0.298 -0.006,0.216 -0.026,0.431 -0.044,0.647 -0.01,0.13 -0.023,0.26 -0.039,0.39 -0.027,0.2 -0.072,0.4 -0.084,0.601 -0.029,0.509 -0.028,1.02 -0.156,1.519 -0.017,0.062 -0.012,0.131 -0.014,0.196 -0.008,0.458 -0.014,0.916 -0.025,1.374 -0.002,0.097 -0.019,0.195 -0.036,0.292 -0.099,0.555 -0.156,1.113 -0.174,1.676 -10e-4,0.024 0.015,0.048 0.03,0.09 0.059,-0.011 0.115,-0.02 0.169,-0.032 0.127,-0.031 0.252,-0.069 0.38,-0.094 0.366,-0.074 0.733,-0.143 1.099,-0.213 0.405,-0.079 0.809,-0.162 1.215,-0.234 0.296,-0.054 0.594,-0.093 0.891,-0.139 0.149,-0.024 0.297,-0.051 0.446,-0.072 0.467,-0.063 0.934,-0.123 1.401,-0.188 0.596,-0.083 1.191,-0.17 1.787,-0.254 0.104,-0.014 0.21,-0.016 0.314,-0.026 0.319,-0.032 0.638,-0.063 0.956,-0.097 0.176,-0.019 0.35,-0.051 0.527,-0.066 0.762,-0.063 1.526,-0.124 2.289,-0.182 0.737,-0.057 1.477,-0.101 2.213,-0.164 0.959,-0.082 1.919,-0.151 2.882,-0.172 1.236,-0.027 2.473,-0.097 3.709,-0.132 0.805,-0.024 1.612,-0.024 2.416,-0.026 1.972,-0.007 3.942,0.003 5.911,0.114 0.712,0.041 1.427,0.031 2.14,0.076 1.162,0.074 2.323,0.175 3.485,0.266 0.495,0.038 0.99,0.083 1.487,0.127 0.28,0.024 0.56,0.05 0.839,0.085 0.617,0.076 1.231,0.169 1.852,0.213 0.293,0.02 0.582,0.086 0.874,0.131 0.568,0.088 1.137,0.175 1.706,0.265 0.542,0.086 1.086,0.166 1.625,0.269 0.707,0.136 1.411,0.285 2.114,0.442 0.304,0.068 0.601,0.17 0.901,0.261 0.101,0.03 0.15,0.014 0.174,-0.088 0.013,-0.05 0.013,-0.105 0.012,-0.156 -0.009,-0.53 -0.022,-1.06 -0.028,-1.59 -0.002,-0.183 0.011,-0.366 -0.076,-0.538 -0.021,-0.039 -0.022,-0.089 -0.023,-0.134 -0.015,-0.542 -0.023,-1.086 -0.044,-1.628 -0.009,-0.208 -0.028,-0.42 -0.074,-0.622 -0.058,-0.257 -0.091,-0.515 -0.088,-0.778 10e-4,-0.11 -0.006,-0.226 -0.041,-0.329 -0.099,-0.29 -0.105,-0.591 -0.13,-0.891 -0.017,-0.197 0.065,-0.342 0.197,-0.47 0.153,-0.149 0.396,-0.099 0.485,0.099 0.029,0.061 0.06,0.122 0.104,0.212 0.077,-0.074 0.132,-0.126 0.187,-0.178 0.092,-0.084 0.166,-0.095 0.268,-0.046 0.091,0.042 0.11,0.119 0.112,0.21 0.004,0.157 -0.019,0.323 0.026,0.468 0.106,0.336 0.15,0.676 0.147,1.025 0,0.079 0.01,0.157 0.019,0.235 0.078,0.603 0.166,1.206 0.137,1.817 -0.002,0.053 0.006,0.106 0.013,0.157 0.034,0.219 0.085,0.438 0.101,0.658 0.026,0.353 0.04,0.706 0.04,1.059 0,0.497 -0.018,0.994 -0.026,1.491 0,0.071 0.008,0.143 0.013,0.215 0.01,0.167 0.101,0.263 0.259,0.303 0.478,0.121 0.936,0.296 1.382,0.502 0.381,0.176 0.762,0.349 1.104,0.596 0.313,0.225 0.589,0.485 0.742,0.846 0.06,0.143 0.091,0.299 0.126,0.451 0.087,0.382 0.191,0.763 0.247,1.15 0.121,0.822 0.227,1.647 0.315,2.474 0.058,0.534 0.071,1.071 0.108,1.607 0.057,0.823 0.134,1.644 0.129,2.47 -0.005,0.773 0.029,1.546 -0.057,2.316 -0.04,0.365 -0.081,0.729 -0.108,1.094 -0.029,0.397 -0.162,0.768 -0.275,1.142 -0.044,0.142 -0.109,0.282 -0.188,0.408 -0.353,0.572 -0.838,1.02 -1.383,1.403 -0.646,0.454 -1.352,0.803 -2.093,1.07 C 5.976,-0.199 5.075,0.097 4.146,0.302 3.661,0.409 3.184,0.551 2.7,0.661 2.017,0.817 1.333,0.958 0.648,1.106 0.591,1.118 0.532,1.124 0.474,1.133 0.316,1.159 0.158,1.185 0,1.211 l 0.381,0.805 0.13,0.448 1.289,1.933 0.522,0.66 0.874,1.168 0.477,0.408 0.697,1.08 0.72,0.759 0.54,0.639 1.464,1.769 2.968,2.919 0.646,0.537 0.77,0.701 1.117,0.942 0.824,0.647 1.706,1.244 0.974,0.789 0.877,0.601 1.684,1.27 0.33,0.3 0.101,0.201 -0.142,0.141 H 18.403 L 16.277,20.298 15.431,19.956 14.106,19.22 12.346,18.317 11.66,17.836 10.282,17.139 8.362,15.824 7.607,15.387 6.953,14.869 5.912,14.135 4.446,12.952 3.104,11.926 2.499,11.36 1.187,10.304 -0.726,8.372 -1.087,7.862 -1.908,7.208 -2.902,6.138 -3.745,5.214 -4.467,4.453 -4.863,3.945 -4.897,3.922 l 0.888,2.469 0.313,0.583 0.221,0.648 0.431,0.757 0.361,0.812 2.268,4.508 2.443,4.328 0.939,1.418 0.848,1.213 0.86,1.203 1.241,1.701 0.526,0.655 1.536,1.998 0.518,0.656 0.572,0.61 1.491,1.746 0.721,0.762 0.383,0.489 0.508,0.361 0.397,0.496 0.647,0.537 0.894,0.876 0.433,0.441 0.662,0.527 0.728,0.737 3.217,2.677 0.258,0.376 0.065,0.294 -0.039,0.275 -0.176,0.177 -0.232,-0.006 -3.168,-1.625 -3.166,-1.85 -0.525,-0.357 -1.623,-1.05 -0.702,-0.753 -2.442,-1.696 -0.328,-0.236 -0.076,0.015 -0.036,0.112 0.305,0.855 z" fill="#181716" transform="matrix(1.33333 0 0 -1.33333 69.407 126.157)"/></g><g style="mix-blend-mode:multiply"><path style="mix-blend-mode:multiply" d="m 0,0 c -0.082,-0.017 -0.169,-0.02 -0.253,-0.031 -0.091,-0.011 -0.182,-0.023 -0.272,-0.038 -0.524,-0.086 -1.046,-0.174 -1.569,-0.259 -0.07,-0.012 -0.143,-0.013 -0.214,-0.021 -0.221,-0.025 -0.443,-0.049 -0.663,-0.078 -0.168,-0.021 -0.336,-0.054 -0.505,-0.072 -0.729,-0.075 -1.459,-0.148 -2.189,-0.218 -0.795,-0.076 -1.589,-0.158 -2.386,-0.22 -1.038,-0.079 -2.077,-0.145 -3.116,-0.208 -0.444,-0.027 -0.89,-0.031 -1.335,-0.051 -0.889,-0.04 -1.778,-0.106 -2.668,-0.123 -1.636,-0.034 -3.274,-0.06 -4.91,-0.056 -1.919,0.006 -3.838,0.022 -5.755,0.08 -1.577,0.049 -3.154,0.108 -4.726,0.252 -0.717,0.066 -1.437,0.1 -2.155,0.153 -0.202,0.015 -0.404,0.042 -0.606,0.061 -0.775,0.072 -1.552,0.132 -2.326,0.216 -0.638,0.069 -1.272,0.167 -1.907,0.251 -0.04,0.005 -0.079,0.005 -0.118,0.01 -0.266,0.035 -0.532,0.065 -0.797,0.106 -0.433,0.066 -0.866,0.14 -1.298,0.212 -0.399,0.066 -0.801,0.127 -1.199,0.206 -0.384,0.075 -0.766,0.167 -1.148,0.256 -0.791,0.182 -1.574,0.397 -2.333,0.689 -0.538,0.207 -1.063,0.445 -1.534,0.785 -0.221,0.159 -0.405,0.351 -0.535,0.592 -0.018,0.035 -0.033,0.077 -0.062,0.099 -0.043,0.034 -0.103,0.081 -0.145,0.072 -0.039,-0.008 -0.085,-0.079 -0.092,-0.127 -0.022,-0.164 -0.006,-0.322 0.077,-0.475 0.175,-0.319 0.428,-0.556 0.724,-0.761 0.638,-0.439 1.352,-0.717 2.078,-0.963 0.538,-0.182 1.088,-0.328 1.635,-0.482 0.258,-0.072 0.52,-0.129 0.781,-0.189 0.186,-0.042 0.371,-0.076 0.557,-0.114 0.115,-0.023 0.232,-0.041 0.346,-0.068 0.367,-0.087 0.754,-0.091 1.103,-0.26 0.028,-0.013 0.064,-0.018 0.095,-0.017 0.222,0.008 0.437,-0.095 0.662,-0.04 0.024,0.006 0.052,0 0.077,-0.007 0.452,-0.12 0.916,-0.154 1.377,-0.211 0.643,-0.079 1.283,-0.182 1.927,-0.252 0.807,-0.089 1.618,-0.145 2.424,-0.234 0.625,-0.069 1.25,-0.133 1.88,-0.128 0.254,0.002 0.508,-0.024 0.762,-0.043 0.569,-0.043 1.135,-0.102 1.704,-0.131 0.792,-0.039 1.584,-0.064 2.376,-0.083 1.04,-0.025 2.081,-0.048 3.122,-0.056 1.356,-0.009 2.712,-0.002 4.067,-0.002 v -0.015 c 1.067,0.03 2.134,0.057 3.2,0.087 0.838,0.024 1.676,0.041 2.514,0.076 1.105,0.047 2.211,0.106 3.315,0.167 0.444,0.023 0.887,0.067 1.331,0.1 0.294,0.022 0.588,0.042 0.882,0.063 0.3,0.023 0.6,0.042 0.9,0.067 0.321,0.028 0.639,0.061 0.959,0.09 0.671,0.062 1.344,0.109 2.013,0.188 0.754,0.089 1.504,0.206 2.256,0.311 0.025,0.004 0.052,0.005 0.077,0.009 0.474,0.068 0.948,0.125 1.418,0.207 0.406,0.071 0.805,0.171 1.209,0.257 0.025,0.006 0.051,0.009 0.077,0.015 0.338,0.075 0.676,0.145 1.013,0.226 0.21,0.05 0.417,0.109 0.623,0.175 C 2.994,0.123 3.238,0.218 3.487,0.297 4.253,0.539 4.978,0.871 5.646,1.316 5.97,1.531 6.255,1.79 6.489,2.104 6.765,2.474 6.843,2.882 6.743,3.33 6.719,3.437 6.67,3.526 6.582,3.59 6.505,3.646 6.453,3.629 6.415,3.539 6.405,3.514 6.399,3.488 6.394,3.463 6.309,3.024 6.092,2.66 5.783,2.342 5.333,1.879 4.791,1.553 4.215,1.28 3.426,0.904 2.602,0.627 1.757,0.411 1.548,0.357 1.339,0.301 1.129,0.252 0.753,0.165 0.377,0.081 0,0" fill="#181716" transform="matrix(1.33333 0 0 -1.33333 71.9 136.164)"/></g><g style="mix-blend-mode:multiply"><path style="mix-blend-mode:multiply" d="m 0,0 -0.516,-0.049 -0.977,-0.505 -0.265,-0.325 -0.236,-0.648 -0.207,-1.282 0.104,-1.066 0.407,-0.776 1.17,-1.229 0.039,-0.166 -0.103,-0.093 h -0.625 l -1.084,-0.393 -0.482,-0.403 -1.37,-1.576 -0.374,-0.511 -0.382,-0.502 -0.388,-1.085 -0.271,-0.615 -0.275,-0.904 -0.521,-1.541 -0.24,-1.233 -0.3,-1.175 -0.368,-2.283 -0.349,-0.24 -0.801,-0.378 -0.437,-0.153 -1.198,-0.83 -0.133,0.04 -0.432,0.746 -0.299,0.584 -0.467,0.713 -0.585,1.477 -0.231,0.359 -1.537,1.116 -1.61,0.682 -1.204,-0.137 -1.336,-0.138 -0.669,-0.217 -1.331,-0.73 -0.821,-0.654 -0.534,-0.643 -0.556,-0.625 -0.333,-0.55 -0.359,-0.526 -0.834,-1.817 -0.335,-0.549 -0.319,-0.861 -0.231,-0.947 -0.437,-1.331 -0.315,-0.865 -0.166,-1.307 -0.295,-1.178 -0.349,-2.009 0.044,-0.231 0.153,-0.157 0.24,-0.064 0.492,0.103 1.188,0.589 2.953,0.59 2.976,-0.162 0.786,-0.078 1.748,-0.036 h 0.638 l 1.395,0.094 1.695,0.388 0.246,-0.015 0.373,-0.23 1.312,-1.635 1.199,-1.16 0.868,-0.604 1.115,-0.948 0.467,-0.418 0.26,-0.329 0.566,-0.32 0.554,-0.623 0.506,-0.377 0.531,-0.649 0.643,-0.536 1.175,-1.479 0.766,-0.702 0.382,-0.244 0.217,-0.045 h 0.007 l 0.188,0.077 0.354,0.555 0.595,0.581 0.958,1.105 0.948,0.82 1.36,1.587 0.383,0.501 0.319,0.564 1.022,1.042 0.644,1.125 0.506,0.968 0.383,1.09 0.398,1.939 -0.113,1.008 -0.029,0.865 -0.105,0.481 0.06,0.21 0.142,0.124 1.503,-0.118 0.462,-0.054 0.771,0.123 0.825,0.054 0.796,0.087 2.27,0.385 1.267,0.206 0.992,0.073 0.815,-0.059 0.662,-0.2 1.567,-0.203 0.527,-0.04 0.393,0.017 1.026,-0.384 1.542,-0.241 0.207,0.089 0.083,0.196 -0.466,1.321 -0.407,0.772 -0.693,2.254 -0.457,1.312 -0.428,1.045 -1.257,2.574 -0.482,0.992 -0.628,1.14 -0.448,0.731 -0.834,0.934 -0.418,0.467 -0.431,0.452 -0.885,0.589 -1.685,0.672 -0.796,0.089 -2.058,-0.014 -1.252,-0.22 -1.208,-0.561 -1.032,-1.032 -0.737,-1.62 -0.054,-1.131 0.114,-0.716 -0.261,-0.604 -0.431,-0.747 -0.427,-1.341 -0.079,-1.1 -0.281,-0.9 -0.216,-0.377 -0.158,-0.153 -0.196,-0.078 -0.201,0.034 -0.353,0.28 -0.187,0.064 -0.314,-0.113 -0.365,0.329 -0.486,0.113 -1.301,0.152 -1.243,-0.24 -0.678,-0.207 -0.648,-0.236 -0.89,-0.29 -0.186,0.016 -0.982,0.781 -0.084,0.206 0.054,0.476 0.747,1.626 1.198,2.043 1.287,1.955 0.801,1.557 0.383,1.091 0.089,1.104 -0.128,0.758 -0.384,0.82 0.02,0.131 0.374,-0.02 1.787,-0.307 1.445,-0.365 0.236,0.024 0.152,0.153 0.029,1.164 -0.211,1.263 -0.826,1.827 -0.918,1.145 -0.585,0.594 -0.289,0.298 -1.061,0.709 z" fill="#5c3867" transform="matrix(1.33333 0 0 -1.33333 44.754 42.191)"/></g><g style="mix-blend-mode:multiply"><path style="mix-blend-mode:multiply" d="m 0,0 -1.188,-0.58 -0.29,-0.299 -0.535,-0.643 -0.752,-1.017 -1.065,-2.707 -0.064,-1.773 0.092,-0.79 0.07,-1.111 0.236,-0.943 0.471,-1.022 0.18,-0.092 h 0.008 l 0.205,0.029 0.315,0.299 0.534,0.938 0.359,0.526 0.334,0.55 1.797,2.034 0.668,1.1 0.659,1.11 0.51,1.257 0.089,1.459 -0.235,0.948 -0.384,0.501 -0.545,0.344 -0.492,0.093 z" fill="#5c3867" transform="matrix(1.33333 0 0 -1.33333 33.85 44.038)"/></g></g><path style="mix-blend-mode:multiply" d="M 0,0 H 67.294 V 116.026 H 0 Z" fill="none" stroke="#181716" stroke-width="1.605" stroke-miterlimit="10" transform="matrix(1.33333 0 0 -1.33333 1.07 155.771)"/></svg>