<svg xmlns="http://www.w3.org/2000/svg" width="91.865" height="156.841"><path style="mix-blend-mode:multiply" d="m 291.625,917.701 h 67.294 v 116.025 h -67.294 z" fill="#fff" transform="matrix(1.33333 0 0 -1.33333 -387.764 1379.372)"/><g style="mix-blend-mode:multiply"><g style="mix-blend-mode:multiply"><path style="mix-blend-mode:multiply" d="m 0,0 c -0.051,-0.461 -0.102,-0.359 -0.256,-0.793 -0.153,-0.435 -0.255,-0.486 -0.46,-0.741 -0.205,-0.257 -0.384,0.05 -0.742,0.152 -0.358,0.103 -0.205,0.409 -0.231,0.743 -0.025,0.332 0.077,0.537 0.18,0.92 0.102,0.384 0.281,0.435 0.434,0.614 0.154,0.18 0.364,0.457 0.512,0.308 C -0.537,1.177 -0.077,1.075 0.051,0.895 0.18,0.716 0.051,0.461 0,0 m -6.524,1.151 c -0.05,-0.256 -0.255,-0.767 -0.434,-1.074 -0.18,-0.307 -0.461,-0.358 -0.691,-0.358 -0.23,0 -0.332,0.076 -0.537,0.511 -0.205,0.435 0.076,0.793 0.178,1.279 0.103,0.486 0.359,0.768 0.512,0.921 0.154,0.154 0.282,0.154 0.615,0.103 0,0 -0.052,0.076 0.153,-0.051 0.204,-0.129 0.23,-0.179 0.282,-0.436 0.05,-0.255 -0.026,-0.639 -0.078,-0.895 m 23.025,-3.444 c 0,0 -1.024,0.545 -1.16,0.75 -0.137,0.204 -1.637,0.34 -2.115,0.614 -0.478,0.272 -1.501,0.272 -1.501,0.272 0,0 -2.183,0.614 -2.524,0.682 -0.341,0.069 -1.432,0.614 -1.023,0.751 0.41,0.136 1.364,0.75 1.91,0.819 0.546,0.068 1.023,0.273 1.296,0.478 0.272,0.204 -0.682,0.545 -0.887,0.75 C 10.292,3.028 9.474,3.505 9.338,3.709 9.201,3.914 6.813,4.323 6.813,4.323 c 0,0 -0.887,1.092 -1.023,1.569 C 5.654,6.37 5.449,7.257 5.244,7.53 5.04,7.803 4.971,8.963 4.835,9.44 4.698,9.917 4.631,10.736 4.631,10.941 c 0,0.204 -0.342,2.046 -0.342,2.387 0,0.342 -0.546,1.774 -0.546,2.047 0,0.273 -0.681,2.182 -0.545,2.796 0.136,0.615 -0.341,1.911 -0.409,2.116 -0.068,0.205 -0.41,0.886 -0.751,0.886 -0.341,0 -1.433,-0.477 -1.706,-0.614 -0.272,-0.136 -1.159,-0.613 -1.568,-1.023 -0.41,-0.409 -2.456,-1.365 -2.661,-1.774 -0.205,-0.409 -1.842,-1.091 -2.115,-1.569 -0.273,-0.477 -1.227,-1.091 -1.432,-1.5 -0.205,-0.409 -1.228,-1.433 -1.706,-1.911 -0.477,-0.477 -1.16,-1.364 -1.501,-1.978 -0.341,-0.614 -1.364,-2.046 -1.5,-2.251 -0.137,-0.204 -1.023,-0.409 -1.023,-0.409 l -1.978,-0.068 c 0,0 -2.116,0.273 -2.389,0.341 -0.273,0.068 -2.114,0.341 -2.387,0.205 -0.273,-0.137 -2.661,0.272 -3.002,0.136 l 0.341,-29.061 c 0,0 2.183,0.545 2.525,0.545 0.341,0 2.591,0.614 2.591,0.614 0.273,0.069 2.184,0.75 2.457,0.887 0,0 1.364,0.614 1.637,0.682 0.273,0.068 2.319,0.887 2.592,0.955 0.273,0.068 1.365,0.204 1.365,0.204 0,0 1.091,-0.886 1.364,-1.295 0.273,-0.409 1.296,-1.16 1.296,-1.16 0,0 0.546,0.137 1.023,0.137 0.478,0 0.273,-0.274 0.409,-0.614 0.137,-0.341 0.273,-1.16 0.478,-1.501 0.204,-0.341 1.501,-1.228 1.91,-1.638 0.41,-0.409 0.819,-0.545 1.228,-0.955 0.41,-0.409 0.955,-0.682 1.433,-1.023 0.477,-0.341 1.569,-1.773 1.842,-1.91 0.273,-0.136 1.092,-1.365 1.092,-1.365 0,0 0.75,-0.204 0.886,0 0.137,0.205 0.204,0.819 0.614,1.365 0.409,0.546 0.136,0.751 0.409,1.228 0.273,0.478 0.341,1.228 0.341,1.501 0,0.272 0.137,0.955 0.205,1.227 0.068,0.273 0.273,1.843 0.204,2.321 0,0 0.546,1.295 0.614,1.978 0.069,0.681 0.409,2.728 0.409,3.206 0,0.477 -0.136,1.91 -0.068,2.183 0.068,0.272 0.273,1.636 0.273,1.636 l 1.297,0.751 c 0,0 2.115,1.502 2.592,1.57 0.477,0.068 1.296,1.159 1.569,1.227 0.272,0.069 0.955,0.955 1.637,1.16 0.683,0.205 0.819,0.955 1.16,1.227 0.341,0.274 1.364,1.297 1.637,1.639 0.273,0.34 0.546,1.091 0.546,1.091 z" fill="#fc0" fill-rule="evenodd" transform="matrix(1.33333 0 0 -1.33333 24.055 89.567)"/></g><g style="mix-blend-mode:multiply"><path style="mix-blend-mode:multiply" d="m 0,0 -1.17,-1.203 -1.198,-1.748 -0.354,-0.532 -0.801,-0.967 -1.11,-1.837 -0.637,-1.424 -0.291,-0.594 -1.273,-3.443 -0.334,-1.435 -0.343,-1.145 -0.138,-0.132 H -7.85 l -1.129,0.673 -2.27,1.561 -1.051,0.718 -1.68,1.268 -0.909,0.53 -0.132,-0.05 -0.408,-0.467 -0.515,-0.367 -0.732,-0.152 -0.094,-0.202 -0.024,-4.106 v -1.179 l -0.039,-0.427 0.059,-0.472 -0.114,-0.727 0.546,-1.227 0.29,-0.594 0.343,-0.836 0.57,-0.905 0.564,-0.907 1.386,-1.861 0.099,-0.207 v -0.53 l -0.216,-0.389 -0.379,-0.505 -0.394,-0.787 -0.608,-1.454 -0.202,-0.681 -0.451,-1.023 -0.256,-0.628 -0.24,-0.349 -0.168,-1.012 -0.608,-2.632 -0.358,-1.652 -0.06,-1.708 0.079,-1.031 -0.103,-0.492 0.029,-0.236 0.413,-0.481 0.122,-0.055 0.432,0.379 0.537,0.648 1.379,0.978 1.617,1.33 0.632,0.546 0.394,0.491 0.821,0.654 1.247,1.109 0.894,0.875 0.652,0.527 1.626,1.32 0.458,0.417 0.19,0.015 0.561,-0.304 0.31,-0.07 0.452,-0.362 0.952,-0.526 1.046,-0.427 0.766,-0.413 1.238,-0.531 1.626,-0.732 0.909,-0.206 0.54,-0.098 0.781,-0.412 0.933,-0.246 1.106,-0.368 2.735,-0.8 2.324,-0.624 0.893,-0.286 1.494,-0.275 1.306,-0.461 1.979,-0.388 0.615,-0.143 0.599,-0.098 0.639,-0.255 1.503,-0.266 0.692,-0.206 0.231,0.049 0.147,0.153 0.034,0.211 -0.176,0.417 -0.546,0.643 -0.52,0.953 -0.85,0.918 -0.653,0.821 -0.545,0.633 -0.487,0.694 -0.717,0.755 -0.418,0.466 -1.267,1.091 -0.392,0.492 -0.663,0.515 -0.246,0.344 -0.496,0.388 -0.413,0.766 -0.501,0.384 -0.614,0.27 -0.452,0.432 -0.894,0.579 -1.144,0.924 -0.397,0.192 -0.045,0.133 0.103,0.132 1.798,0.878 2.004,0.945 0.544,0.337 0.595,0.291 0.526,0.358 0.574,0.31 1.838,1.404 1.105,0.664 0.53,0.353 1.567,1.086 0.417,0.467 0.816,0.657 0.86,0.909 0.393,0.501 0.117,0.462 -0.059,0.239 -0.289,0.315 -1.567,0.511 -0.629,0.01 -1.15,-0.034 -1.026,0.152 h -1.179 l -1.189,0.296 -1.851,0.2 -0.791,0.094 -0.869,0.029 -2.063,0.216 -1.42,-0.147 -0.899,-0.043 -0.491,0.083 -1.193,-0.286 -1.778,-0.309 -0.271,0.019 -0.181,0.09 -0.049,0.152 0.058,0.467 -0.142,1.055 0.059,0.693 -0.162,0.359 -0.039,0.564 0.088,0.692 L 2.853,-9.912 2.73,-8.856 2.543,-7.863 2.515,-7.008 2.042,-4.528 1.89,-3.208 1.718,-2.617 1.664,-2.263 1.069,-0.789 0.815,-0.161 0.51,0.142 0.333,0.196 Z" fill="#e30015" transform="matrix(1.33333 0 0 -1.33333 17.001 109.706)"/></g><g style="mix-blend-mode:multiply"><path style="mix-blend-mode:multiply" d="m 0,0 -0.83,-0.054 -1.822,-0.241 -1.125,-0.053 -1.293,-0.183 -1.114,-0.357 -0.821,-0.064 -0.893,-0.286 -0.836,-0.343 -1.821,-0.536 -1.234,-0.535 -1.158,-0.315 -0.673,-0.211 -0.875,-0.303 -2.087,-0.286 -0.202,-0.099 -0.073,-0.166 0.073,-0.173 0.777,-0.431 0.727,-0.153 0.662,-0.221 5.143,-1.636 2.146,-0.8 2.323,-0.919 0.585,-0.299 1.587,-0.476 3.247,-1.175 0.81,-0.074 3.782,-0.932 0.79,-0.094 0.659,-0.226 1.04,-0.143 0.321,-0.264 v -0.182 l -0.109,-0.172 -0.515,-0.388 -0.756,-0.717 -1.111,-1.248 -0.487,-0.693 -0.583,-0.594 -0.271,-0.613 -0.982,-1.081 -2.034,-3.271 -0.343,-0.541 -0.32,-0.565 -0.918,-1.439 -0.683,-0.79 -0.246,-0.639 -0.629,-1.139 -0.514,-0.664 -0.384,-0.805 -0.192,-0.506 -0.201,-0.256 -0.276,-0.363 -0.038,-0.242 0.068,-0.18 0.163,-0.05 0.742,0.168 0.422,-0.016 0.466,-0.005 0.541,0.296 0.378,-0.006 0.85,0.31 1.832,0.525 0.831,0.35 1.625,0.731 1.645,0.713 0.702,0.476 0.9,0.279 0.348,0.242 1.311,0.751 1.136,0.634 0.523,0.359 0.791,0.387 0.459,0.427 0.53,0.354 1.571,1.08 2.028,1.508 0.688,0.491 0.629,0.556 0.364,0.226 0.202,-0.03 0.161,-0.138 0.786,-1.585 1.203,-2.923 0.339,-0.545 0.29,-0.595 0.433,-0.747 0.776,-1.285 1.153,-2.089 0.718,-0.756 1.134,-1.518 1.067,-1.586 0.476,-0.997 0.52,-0.659 0.594,-0.879 0.286,-0.6 0.274,-0.343 0.192,-0.073 0.187,0.049 0.275,0.329 0.358,0.825 0.374,1.1 0.466,3.364 0.088,0.796 0.089,0.796 0.064,0.82 -0.147,3.694 -0.123,0.762 -0.034,1.144 -0.123,0.467 -0.163,0.721 -0.304,1.774 -0.093,0.795 -0.196,0.663 -0.311,1.169 -0.431,1.041 -0.178,0.707 -1.016,2.815 -0.762,1.891 -0.958,1.694 -0.765,0.723 -0.417,0.103 -1.445,-0.613 -0.933,-0.541 -1.273,-0.497 -2.224,-0.721 -0.968,-0.211 -0.815,-0.364 -1.031,-0.148 -0.85,-0.329 -1.268,-0.191 -0.682,0.138 -0.157,0.157 -0.089,0.417 0.285,0.202 0.325,0.274 0.658,1.111 0.382,0.5 0.777,1.288 0.309,0.869 0.693,1.075 0.893,1.754 0.408,0.202 0.152,0.147 0.034,0.202 -0.083,0.201 -0.702,0.495 -1.272,0.144 -0.496,0.142 -1.211,0.432 -1.231,0.083 -1.767,0.295 L 9.872,-0.855 6.989,-0.496 4.45,-0.088 3.297,-0.063 2.534,0.058 0.791,0.093 Z" fill="#e30015" transform="matrix(1.33333 0 0 -1.33333 48.605 83.372)"/></g><g style="mix-blend-mode:multiply"><path style="mix-blend-mode:multiply" d="m 0,0 -1.449,-0.034 -0.761,-0.124 -0.864,-0.019 -1.637,-0.427 -0.683,-0.202 -0.775,-0.403 -1.385,-0.378 -0.501,-0.097 -0.157,-0.148 -0.049,-0.226 0.138,-0.462 0.603,-0.58 0.266,-0.324 0.658,-0.521 1.641,-1.601 0.79,-0.682 0.566,-0.615 0.981,-0.785 1.115,-0.948 0.364,-0.26 0.088,-0.178 -0.059,-0.176 -0.83,-0.373 -1.1,-0.373 -2.569,-0.674 -0.767,-0.412 -0.618,-0.266 -1.655,-0.996 -0.963,-0.511 -0.506,-0.378 -0.751,-0.428 -0.782,-0.693 -0.982,-1.09 -0.177,-0.423 0.069,-0.181 0.191,-0.069 0.693,0.098 1.263,-0.236 1.35,-0.422 0.419,-0.147 0.613,0.01 0.423,-0.172 1.095,-0.083 0.794,-0.089 0.801,-0.083 1.258,-0.217 1.773,-0.29 0.576,-0.014 0.186,-0.108 0.392,-0.79 0.029,-0.551 -0.578,-1.793 -0.074,-0.516 -0.226,-0.658 -0.31,-2.342 -0.024,-0.86 -0.402,-1.366 -0.119,-1.061 -0.628,-2.613 -0.055,-0.83 -0.378,-0.835 -0.015,-0.261 0.074,-0.191 0.162,-0.049 1.375,0.707 1.779,1.169 0.815,0.363 0.511,0.375 3.63,2.264 1.09,0.973 0.555,0.327 0.742,0.733 0.662,0.516 0.502,0.677 0.663,0.517 0.402,0.776 0.629,0.55 0.924,1.159 0.162,0.127 0.191,0.045 0.526,-0.354 1.115,-0.948 0.555,-0.33 0.624,-0.554 1.326,-0.737 0.614,-0.27 0.86,-0.615 0.8,-0.377 2.324,-1.508 0.972,-0.501 0.795,-0.383 0.614,-0.565 1.012,-0.461 0.771,-0.703 0.561,-0.32 0.481,-0.446 0.197,-0.015 0.137,0.142 0.005,0.531 -0.025,0.412 0.305,1.409 -0.168,1.548 -0.098,0.506 0.163,1.026 -0.403,1.96 -0.162,0.428 -0.098,0.786 -0.286,0.599 -0.648,2.299 -0.378,0.801 -0.392,0.49 -0.212,0.673 -0.476,0.702 -0.498,0.978 -0.386,0.496 -0.31,0.575 -0.742,0.732 -0.472,0.412 -0.795,0.987 -0.073,0.227 0.01,0.235 0.22,0.378 0.628,0.55 0.438,0.742 0.579,0.599 1.439,2.098 0.948,1.114 0.329,0.556 0.747,0.746 0.094,0.207 -0.005,0.226 -0.118,0.181 -0.461,0.143 -1.764,0.299 -2.334,0.04 -0.451,0.073 -0.914,-0.246 -1.036,-0.146 -0.634,0.024 -1.08,-0.368 -1.198,-0.276 -2.167,-0.785 -0.417,-0.188 -0.215,-0.019 -0.355,0.217 -1.022,1.345 -1.198,1.159 -1.759,1.189 -1.198,0.57 L 5.368,-0.821 4.73,-0.575 2.943,-0.3 1.219,-0.078 0.767,-0.118 Z" fill="#e30015" transform="matrix(1.33333 0 0 -1.33333 61.264 -2.021)"/></g><g style="mix-blend-mode:multiply"><path style="mix-blend-mode:multiply" d="m 0,0 -0.212,-0.083 -0.153,-0.147 -0.048,-0.187 0.127,-0.712 0.315,-0.575 0.816,-1.837 0.853,-1.798 0.345,-0.834 0.259,-0.624 0.508,-0.967 0.185,-0.698 0.222,-0.369 0.344,-0.834 1.315,-2.516 0.782,-1.548 -0.054,-0.141 -0.168,-0.103 -0.736,-0.168 -0.657,-0.22 -0.974,-0.206 -0.692,-0.192 -1.341,-0.428 -0.834,-0.344 -0.949,-0.23 -0.571,-0.314 -1.085,-0.389 -0.593,-0.289 -2.697,-1.135 -1.493,-0.57 -1.248,-0.521 -1.39,-0.377 -1.07,-0.697 -0.275,-0.33 -0.059,-0.24 0.108,-0.473 0.157,-0.147 1.085,-0.388 1.896,-0.461 0.653,-0.232 0.826,-0.058 1.463,-0.306 0.895,-0.284 1.384,-0.383 1.12,-0.355 2.298,-0.647 1.264,-0.506 0.854,-0.029 0.427,-0.162 0.86,-0.335 0.142,-0.147 0.034,-0.212 -0.063,-0.221 -0.403,-0.5 L 3.418,-27 3.04,-27.506 l -0.844,-1.217 -1.42,-2.117 -1.145,-2.098 -0.122,-0.762 -0.35,-1.125 -0.324,-0.854 -0.088,-0.795 -0.344,-0.855 v -0.466 l 0.118,-0.188 0.187,-0.118 0.52,-0.054 1.612,0.472 1.027,0.153 1.374,0.392 1.98,0.673 0.801,0.084 0.761,0.123 2.5,1.037 1.606,0.455 1.768,0.59 1.347,0.717 0.646,0.237 1.224,0.545 0.914,0.56 0.659,0.549 0.215,0.055 0.207,-0.069 0.353,-0.555 0.438,-0.447 0.535,-0.643 0.717,-0.757 0.521,-0.659 0.49,-0.393 0.247,-0.344 1.149,-0.912 0.756,-0.718 1.365,-0.992 0.949,-0.825 0.161,0.02 0.109,0.132 0.084,0.551 -0.011,6.782 0.04,2.039 -0.093,0.791 0.023,0.446 0.021,2.063 -0.089,0.679 -0.015,2.352 0.083,1.228 -0.054,0.87 0.054,0.598 -0.019,1.022 0.044,0.836 -0.093,0.751 -0.006,7.967 -0.059,0.53 -0.156,0.153 -0.236,0.059 -0.26,-0.025 -0.212,-0.099 -0.303,-0.294 -0.595,-0.289 -0.757,-0.423 -1.153,-0.909 -0.64,-0.54 -0.751,-0.732 -0.359,-0.216 -0.19,0.044 -0.168,0.128 -0.476,0.717 -0.768,1.001 -1.266,1.386 -0.496,0.388 -0.629,0.55 -0.962,0.806 -0.812,0.663 -3.461,2.136 -0.604,0.28 -0.53,0.354 -1.077,0.398 -1.566,0.791 -1.411,0.653 -0.682,0.201 -0.987,0.487 -1.302,0.466 -1.1,0.374 -1.189,0.594 z" fill="#3a3a39" transform="matrix(1.33333 0 0 -1.33333 63.073 52.035)"/></g><g style="mix-blend-mode:multiply"><path style="mix-blend-mode:multiply" d="m 0,0 -0.226,-0.045 -0.182,-0.132 -1.307,-1.651 -1.026,-1.92 -1.125,-2.426 -0.177,-0.123 -0.205,-0.025 -0.202,0.079 -0.565,0.633 -0.535,0.349 -0.972,0.796 -0.551,0.334 -0.476,0.408 -0.993,0.48 -1.38,0.683 -0.515,0.374 -0.527,0.083 -1.148,0.595 -0.969,0.211 -1.359,0.407 -1.533,0.53 -1.719,0.345 -7.667,0.015 -0.206,-0.094 -0.064,-0.176 0.058,-0.217 0.663,-0.849 1.277,-1.081 2.505,-2.504 0.354,-0.531 0.609,-0.865 0.437,-0.742 0.511,-0.667 1.425,-2.113 0.937,-1.135 -0.004,-0.171 -0.123,-0.147 -0.752,-0.466 -0.726,-0.169 -0.31,-0.245 -0.785,-0.403 -1.838,-1.109 -1.419,-0.938 -0.821,-0.655 -1.178,-0.588 -0.692,-0.486 -0.668,-0.217 -1.528,-0.83 -0.683,-0.201 -1.342,-0.722 -0.53,-0.358 -0.092,-0.216 -0.02,-0.256 0.058,-0.241 0.29,-0.314 0.904,-0.29 0.973,-0.177 1.792,-0.285 1.154,-0.024 0.797,-0.089 1.763,-0.299 1.125,-0.055 0.76,-0.122 5.586,-0.03 0.196,-0.078 0.044,-0.158 -0.084,-0.196 -0.79,-1.012 -1.689,-2.731 -0.556,-0.918 -0.265,-0.618 -1.056,-2.187 -0.712,-1.35 -0.28,-0.604 -0.59,-1.475 -0.987,-2.843 0.02,-0.211 0.117,-0.187 0.192,-0.123 0.231,-0.038 1.125,0.348 0.747,0.433 1.625,0.731 1.567,0.496 0.54,0.344 1.243,0.526 0.57,0.314 2.22,1.316 1.007,0.467 0.786,0.393 0.839,0.633 0.601,0.285 0.75,0.427 0.993,0.482 1.857,1.091 1.423,0.932 0.56,0.33 0.196,-0.03 0.162,-0.132 0.89,-1.484 0.378,-0.506 0.664,-0.81 0.304,-0.581 0.5,-0.382 0.594,-0.584 0.645,-0.536 0.264,-0.324 0.934,-0.835 1.625,-1.321 2.589,-1.832 2.809,-1.907 0.526,-0.358 0.469,-0.152 h 0.01 l 0.44,0.054 0.039,0.152 -0.069,0.841 -0.211,1.257 -0.09,0.795 -0.176,1.003 -0.466,1.89 -0.123,0.761 -0.575,2.668 -0.141,0.742 -0.266,0.913 -0.221,0.958 -0.707,2.24 -0.777,2.185 -0.058,0.472 0.225,0.363 0.933,0.84 0.772,0.702 0.79,0.683 1.493,1.454 0.797,0.678 1.174,1.788 0.112,0.427 -0.074,0.202 -0.156,0.147 -1.793,0.574 -0.56,0.045 -0.635,0.231 -2.813,0.722 -0.929,0.25 -0.814,0.068 -1.73,0.335 L 3.65,-11.386 3.56,-11.18 3.383,-9.883 3.06,-8.439 2.21,-5.458 1.911,-4.574 1.724,-3.9 1.41,-3.02 0.688,-1.381 0.355,-0.236 0.211,-0.069 Z" fill="#3a3a39" transform="matrix(1.33333 0 0 -1.33333 43.203 5.64)"/></g></g><path style="mix-blend-mode:multiply" d="M 0,0 0.247,0.465 0.537,1.339 0.959,2.11 0.968,2.128 0.925,2.595 0.535,3.121 0,3.971 Z" fill="#181716" transform="matrix(1.33333 0 0 -1.33333 1.071 144.773)"/><path style="mix-blend-mode:multiply" d="m 0,0 -0.17,-0.472 -0.314,-1.449 c -0.97,-3.44 -1.786,-7.021 -2.818,-10.439 l -0.908,-2.625 -0.432,-1.024 -0.286,-0.277 -0.196,-0.035 -0.2,0.042 -1.389,0.676 -1.807,1.433 -1.285,1.069 -0.945,0.827 -0.341,0.287 v -1.257 l 1.537,-1.392 0.509,-0.379 0.527,-0.351 2.323,-1.812 1.091,-0.677 0.74,-0.193 0.232,0.059 0.229,0.409 0.495,1.571 c 0.906,2.846 1.441,6.046 2.306,8.898 l 0.652,2.584 0.239,0.7 0.039,-0.473 -0.216,-2.444 c -0.453,-3.375 -0.814,-6.707 -1.41,-10.079 l 0.179,-0.744 0.004,-0.017 0.183,-0.172 h 0.244 l 0.742,0.482 2.697,1.126 3.098,1.026 2.934,0.894 1.663,0.397 2.172,0.466 0.763,-0.013 -1.266,-0.561 c -4.453,-1.236 -8.609,-3.279 -12.784,-5.223 l -0.149,-0.169 0.058,-0.212 0.37,-0.294 1.352,-0.697 0.514,-0.375 1.421,-0.93 0.838,-0.642 0.71,-0.465 1.877,-1.357 0.471,-0.421 1.712,-1.258 0.106,-0.131 10e-4,-0.008 -0.236,0.046 -1,0.51 c -2.504,1.058 -5.101,1.999 -7.382,3.514 l -1.381,0.676 -2.063,1.189 -0.583,0.038 -0.275,-0.07 -0.316,-0.312 -0.251,-0.319 -0.498,-0.4 -0.426,-0.456 -0.44,-0.449 -0.677,-0.784 -1.255,-1.108 -1.858,-1.844 0.041,0.111 0.383,0.542 0.568,1.183 0.784,0.99 0.467,0.702 1.38,1.566 0.461,1.052 0.007,0.015 -0.042,0.473 c -1.126,1.453 -2.686,2.442 -3.796,3.906 l -0.557,0.614 -0.258,0.356 v -1.594 l 0.082,-0.104 3.517,-3.523 0.019,-0.136 -0.054,-0.155 -0.858,-0.923 -0.456,-0.721 -0.466,-0.712 -1.072,-1.583 -0.696,-1.08 -0.016,-0.031 v -2.73 l 0.509,0.52 0.64,0.551 0.41,0.469 1.167,1.186 1.541,1.404 0.794,0.685 1.477,1.455 0.341,0.211 0.183,-0.017 0.759,-0.408 0.698,-0.489 2.085,-1.16 1.368,-0.691 c 3.46,-1.717 7.391,-3.392 10.941,-4.986 l 1.412,-0.267 0.03,-0.006 0.159,0.152 -0.033,0.211 -0.652,0.575 -1.291,1.074 -1.038,0.725 -1.321,1.045 -0.534,0.338 -0.644,0.545 -2.284,1.562 -0.822,0.345 -0.943,0.817 -0.51,0.381 -0.706,0.471 -1.598,1.039 -0.301,0.288 -0.031,0.156 0.061,0.131 0.93,0.53 1.924,1.015 2.315,0.928 0.832,0.343 2.582,0.951 3.752,1.252 1.207,0.278 1.062,0.4 0.724,0.163 1.445,0.367 0.173,0.166 v 0.22 l -0.141,0.179 -0.457,0.195 -1.951,0.137 -1.806,-0.205 c -2.605,0.052 -7.622,-1.639 -10.176,-2.504 l -1.991,-0.67 -1.217,-0.562 -0.376,-0.09 -0.094,0.083 -0.082,0.403 c 0.198,2.01 0.464,4.011 0.662,6.019 l 0.132,1.612 0.296,2.086 c 0.007,1.98 0.44,4.006 0.038,5.975 L 0.381,0.088 0.169,0.131 Z" fill="#181716" transform="matrix(1.33333 0 0 -1.33333 15.858 116.218)"/><path style="mix-blend-mode:multiply" d="m 0,0 0.085,-0.399 0.394,-0.57 1.741,-1.779 1.779,-2.644 0.609,-0.864 0.506,-0.391 0.815,-1.245 0.543,-0.63 1.138,-1.514 1.271,-1.67 0.931,-1.438 0.069,-0.181 -0.023,-0.125 -0.333,-0.185 -0.626,-0.232 c -5.101,0.023 -10.05,-0.51 -15.099,-0.546 l -1.214,-0.26 -0.513,-0.123 -0.164,-0.163 -0.031,-0.197 0.127,-0.173 0.45,-0.179 1.085,-0.116 3.923,-0.507 2.047,-0.004 0.757,-0.139 1.168,-0.013 0.686,-0.075 1.791,-0.088 1.804,-0.265 2.466,-0.175 1.231,-0.249 0.546,-0.043 0.206,-0.08 0.108,-0.109 0.019,-0.11 -0.673,-1.011 -3.071,-3.121 -0.975,-1.075 -1.304,-1.065 -0.859,-0.9 -0.939,-0.831 -1.069,-0.981 -0.623,-0.281 -0.183,-0.163 0.017,-0.2 0.218,-0.066 0.496,0.142 c 2.859,1.363 5.88,3.792 8.319,5.85 l 1.014,0.759 1.607,1.341 0.97,0.799 0.191,0.085 h 0.204 l 0.17,-0.09 0.75,-1.026 0.874,-0.884 0.391,-0.509 0.48,-0.391 0.51,-0.607 v 1.067 l -0.165,0.162 -0.526,0.656 -1.35,1.594 -0.782,0.992 -0.371,0.258 -0.234,0.038 -0.512,-0.378 -1.667,-1.57 -1.099,-0.962 -1.266,-1.088 -2.011,-1.546 -0.144,-0.046 0.061,0.114 2.4,2.338 1.042,1.022 0.737,0.737 0.659,1.142 0.107,0.522 -0.084,0.252 -0.186,0.165 -0.534,0.091 -1.507,0.019 -1.293,0.129 -1.516,0.024 -0.523,-0.025 -2.06,0.33 -0.885,-0.03 -0.767,0.138 -2.32,0.029 -0.77,0.124 -1.458,0.004 -0.756,0.138 -0.855,0.037 -0.047,0.048 0.047,0.049 0.854,0.037 1.474,0.012 0.74,0.136 1.123,0.059 0.785,0.094 1.751,0.024 0.752,0.123 4.11,-0.014 0.761,-0.139 1.432,0.056 1.171,0.317 0.459,0.182 0.077,0.22 -0.343,0.589 -0.461,0.455 -0.316,0.258 -0.688,1.078 -0.397,0.474 -0.337,0.565 -0.551,0.622 -0.786,0.968 -0.42,0.777 -0.685,0.782 -0.503,0.67 -0.588,0.895 -0.271,0.332 -0.04,0.187 0.135,-0.065 0.819,-0.692 1.109,-0.952 0.612,-0.571 0.472,-0.396 1.352,-1.605 0.891,-0.89 0.508,-0.364 0.65,-0.816 1.364,-1.581 0.966,-1.144 0.255,-0.062 0.245,0.056 1.291,1.115 0.863,0.552 v 1.039 l -0.558,-0.398 -0.622,-0.538 -0.77,-0.412 -0.368,-0.039 -1.038,0.97 -1.298,1.366 -0.656,0.511 -0.372,0.516 -1.174,1.175 -0.688,0.796 -0.61,0.56 -0.426,0.475 -0.663,0.496 -0.54,0.658 -2.481,1.932 -0.468,0.436 -0.74,0.428 -0.732,0.741 -0.485,0.378 -0.653,0.82 L 0.94,-0.492 0.229,-0.011 0.214,0 Z m 16.405,-14.654 -0.683,-0.506 -0.129,-0.199 -0.039,-0.249 0.575,-1.226 0.673,-1.084 0.005,-0.017 v 1.76 l -0.206,0.339 v 0.136 l 0.206,0.227 v 1.287 z" fill="#181716" transform="matrix(1.33333 0 0 -1.33333 68.387 58.69)"/><g style="mix-blend-mode:multiply"><path style="mix-blend-mode:multiply" d="M 0,0 0.33,-1.439 0.304,-1.527 0.301,-1.526 0.045,-0.927 C -0.752,1.254 -1.686,4.51 -2.892,6.472 l -0.02,0.186 0.073,0.159 0.364,0.214 0.19,0.013 0.154,-0.073 0.493,-0.955 0.84,-2.402 0.219,-0.658 0.456,-1.894 z m -11.357,4.122 -0.557,-0.897 -1.031,-1.043 c -1.274,-1.802 -3.429,-3.474 -4.82,-5.183 l -0.636,-0.546 -0.9,-0.861 c -1.602,-1.435 -1.705,-1.978 -3.946,-3.172 l -0.119,-0.213 0.06,-0.218 0.225,-0.081 0.715,0.233 0.928,0.538 c 2.017,0.495 6.22,3.834 7.639,5.352 l 0.637,0.541 1.104,0.956 c 1.435,1.183 3.71,4.026 4.9,5.453 l 0.286,0.575 0.505,0.343 0.443,0.125 0.795,0.106 0.854,0.33 0.206,-0.004 0.342,-0.205 0.872,-1.457 0.776,-1.876 0.667,-1.687 0.39,-1.074 0.341,-1.434 c 1.369,-3.005 1.384,-6.512 2.978,-9.401 l 0.265,-0.658 0.008,-0.02 0.197,-0.113 0.162,0.162 0.037,0.277 -0.301,1.22 -0.3,1.763 C 2.013,-5.236 1.146,-2.334 0.582,0.485 L 0.33,2.01 -0.535,4.979 -0.905,6.085 -1.287,7.158 -1.274,7.353 -1.187,7.517 -0.03,8.111 0.287,8.147 0.544,7.886 1.368,6.072 2.486,3.075 2.645,2.341 2.958,1.481 3.439,-0.396 3.991,-2.494 V -3.356 L 4.297,-4.535 4.371,-5.348 4.458,-6.134 4.542,-7.979 4.459,-8.484 4.458,-8.493 4.61,-9.519 l -0.033,-2.912 -0.503,-2.741 -0.097,-0.12 -0.114,-0.01 -0.289,0.248 -0.549,0.624 c -1.393,1.881 -2.241,4.045 -3.39,6.031 l -0.747,1.624 -1.516,2.294 c -0.58,1.744 -2.126,3.962 -2.613,5.646 L -5.399,1.362 -5.643,1.451 -5.907,1.43 c -7.011,-5.627 -10.141,-7.512 -18.191,-11.028 l -0.941,-0.268 -0.171,-0.005 -0.059,0.058 0.107,0.35 0.969,1.701 0.476,0.701 1.211,1.731 1.99,2.443 0.663,1.094 0.524,0.661 0.949,1.401 1.466,1.772 0.555,0.623 0.7,0.768 1.497,1.448 0.129,0.041 0.431,-0.314 1.026,0.104 1.172,0.045 h 0.34 l 0.022,-0.088 z m 1.74,-0.555 -1.117,-1.521 c -2.213,-1.888 -4.653,-4.599 -6.896,-6.084 l -0.029,-0.01 0.736,0.792 1.265,1.384 1.63,1.612 1.448,1.506 0.529,0.646 0.705,0.775 1.182,1.477 0.469,0.693 0.33,0.226 0.496,0.105 L -8.593,5.155 -8.436,5.087 -8.416,5 Z m -0.686,7.831 -0.041,-0.182 -0.122,-0.137 -0.196,-0.064 -0.467,0.087 -0.843,0.299 -1.391,0.141 -3.29,0.545 -0.497,0.101 c -1.939,-0.294 -3.902,0.345 -5.847,0.333 l -0.791,0.117 -0.167,0.022 0.945,0.037 1.383,-0.092 c 1.992,-0.108 3.523,-0.249 5.477,-0.412 l 1.264,-0.209 0.423,-0.137 0.011,-0.005 1.287,0.084 1.116,-0.058 0.803,-0.088 h 0.584 l 0.2,-0.07 0.118,-0.134 z M 11.032,30.569 10.617,30.387 8.932,29.091 8.037,28.216 6.726,26.879 6.536,26.795 H 6.332 L 6.163,26.884 4.604,29.162 4.037,29.769 3.496,30.417 2.291,31.574 1.815,31.98 c -1.385,1.322 -3.66,2.512 -5.374,3.486 l -1.126,0.636 -0.367,0.243 -0.862,0.306 -0.503,0.368 -1.777,0.609 -2.954,0.859 -0.783,0.408 -0.524,0.118 -0.231,-0.091 -0.08,-0.231 0.286,-0.648 1.344,-2.778 0.883,-2.061 0.248,-0.644 1.781,-3.53 0.552,-0.926 0.956,-1.404 0.089,-0.205 v -0.166 l -0.099,-0.11 -2.596,-0.633 -0.757,-0.128 -0.508,-0.097 -1.03,-0.441 -2.159,-0.779 -0.722,-0.175 -2.464,-1.077 -0.786,-0.388 -0.526,-0.113 -0.519,-0.307 -2.154,-0.803 -0.835,-0.362 -0.17,-0.16 -0.083,-0.223 0.086,-0.212 0.417,-0.237 1.754,-0.612 1.882,-0.463 1.68,-0.684 1.577,-0.493 1.208,-0.258 0.686,-0.209 1.507,-0.254 1.172,-0.305 1.221,-0.25 1.431,-0.342 0.16,-0.089 0.047,-0.126 -0.354,-0.79 -0.229,-0.358 -0.143,-0.093 -0.408,0.016 -0.986,0.217 -1.794,0.264 -1.459,0.31 c -3.47,0.971 -8.362,1.079 -12.056,1.17 l -3.798,-0.624 -1.752,-0.322 -2.924,-0.942 -0.167,0.087 c -0.328,0.17 -0.666,0.347 -1.004,0.507 -0.353,0.165 -0.717,0.324 -1.067,0.478 l -0.327,0.142 c -0.074,0.033 -0.15,0.064 -0.226,0.096 -0.124,0.05 -0.251,0.103 -0.371,0.163 l -0.028,0.013 c -0.347,0.171 -0.704,0.35 -1.092,0.452 -0.123,0.032 -0.185,0.09 -0.212,0.195 -0.058,0.232 -0.121,0.463 -0.182,0.695 l -0.07,0.261 c -0.019,0.068 -0.041,0.135 -0.063,0.203 -0.049,0.144 -0.093,0.279 -0.096,0.415 -0.005,0.213 -0.068,0.405 -0.128,0.592 -0.046,0.142 -0.089,0.275 -0.109,0.415 l -0.003,0.024 c -0.005,0.039 -0.01,0.084 -0.034,0.125 -0.12,0.214 -0.119,0.451 -0.119,0.701 v 0.062 c 0.001,0.099 0.003,0.213 -0.045,0.307 -0.107,0.206 -0.122,0.416 -0.133,0.691 -0.004,0.097 -0.022,0.238 -0.09,0.352 -0.056,0.095 -0.068,0.187 -0.07,0.315 -0.004,0.154 -0.022,0.319 -0.053,0.503 -0.026,0.153 -0.059,0.304 -0.092,0.455 -0.017,0.078 -0.033,0.156 -0.051,0.245 -0.039,0.192 -0.078,0.383 -0.113,0.576 -0.017,0.093 -0.031,0.186 -0.045,0.28 l -0.022,0.144 c -0.005,0.031 -0.007,0.064 -0.01,0.096 -0.007,0.084 -0.016,0.171 -0.056,0.25 -0.094,0.187 -0.118,0.382 -0.129,0.547 -0.009,0.154 -0.035,0.28 -0.079,0.387 -0.043,0.105 -0.066,0.212 -0.073,0.334 -0.008,0.142 -0.035,0.249 -0.084,0.331 -0.072,0.122 -0.108,0.254 -0.112,0.414 l -10e-4,0.042 c -0.001,0.091 -0.003,0.196 -0.052,0.279 -0.087,0.148 -0.099,0.311 -0.112,0.483 l -0.008,0.104 c -0.017,0.175 -0.048,0.351 -0.077,0.521 l -0.013,0.077 c -0.019,0.114 -0.043,0.225 -0.067,0.338 l -0.023,0.109 c -0.025,0.12 -0.051,0.241 -0.077,0.362 -0.012,0.053 -0.025,0.106 -0.038,0.16 -0.014,0.059 -0.027,0.118 -0.041,0.176 -0.008,0.039 -0.016,0.077 -0.023,0.117 -0.013,0.069 -0.027,0.139 -0.045,0.207 -0.013,0.047 -0.03,0.092 -0.047,0.137 -0.022,0.058 -0.043,0.112 -0.052,0.167 -0.047,0.294 -0.154,0.58 -0.328,0.874 -0.025,0.042 -0.037,0.095 -0.052,0.152 -0.006,0.028 -0.013,0.056 -0.02,0.083 -0.022,0.072 -0.042,0.145 -0.063,0.218 -0.043,0.157 -0.088,0.319 -0.145,0.476 -0.033,0.095 -0.078,0.184 -0.121,0.27 -0.03,0.061 -0.062,0.122 -0.087,0.184 -0.098,0.232 -0.304,0.312 -0.486,0.384 l -0.075,0.019 c -0.046,0 -0.091,-0.021 -0.115,-0.034 l -0.102,-0.053 c -0.106,-0.056 -0.217,-0.114 -0.319,-0.185 -0.147,-0.101 -0.306,-0.19 -0.461,-0.277 -0.243,-0.136 -0.496,-0.277 -0.712,-0.474 -0.028,-0.025 -0.081,-0.041 -0.137,-0.058 -0.142,-0.042 -0.248,-0.118 -0.324,-0.232 -0.031,-0.047 -0.076,-0.082 -0.097,-0.085 -0.151,-0.019 -0.255,-0.093 -0.367,-0.181 -0.099,-0.078 -0.211,-0.158 -0.349,-0.251 -0.627,-0.425 -1.124,-0.809 -1.564,-1.21 -0.141,-0.13 -0.295,-0.254 -0.444,-0.373 l -0.156,-0.127 c -0.036,-0.029 -0.072,-0.055 -0.11,-0.082 -0.064,-0.046 -0.13,-0.094 -0.189,-0.152 l -0.338,-0.333 c -0.591,-0.583 -1.203,-1.185 -1.796,-1.786 -0.353,-0.359 -0.7,-0.733 -1.036,-1.096 l -0.315,-0.341 c -0.049,-0.052 -0.093,-0.109 -0.137,-0.166 -0.041,-0.052 -0.081,-0.104 -0.126,-0.153 -0.142,-0.152 -0.285,-0.303 -0.428,-0.452 -0.148,-0.155 -0.295,-0.31 -0.441,-0.466 -0.217,-0.234 -0.442,-0.482 -0.668,-0.741 -0.108,-0.122 -0.21,-0.249 -0.314,-0.376 l -0.098,-0.119 c -0.02,-0.026 -0.042,-0.05 -0.065,-0.074 -0.063,-0.068 -0.127,-0.138 -0.161,-0.226 -0.068,-0.18 -0.179,-0.328 -0.323,-0.494 -0.309,-0.355 -0.57,-0.75 -0.823,-1.133 -0.152,-0.228 -0.309,-0.466 -0.475,-0.692 -0.014,-0.02 -0.031,-0.043 -0.041,-0.074 -0.032,-0.094 -0.084,-0.106 -0.125,-0.106 -0.03,0 -0.065,0.008 -0.104,0.023 -0.133,0.052 -0.271,0.053 -0.42,0.003 -0.108,-0.035 -0.211,-0.03 -0.325,0.02 -0.096,0.042 -0.186,0.065 -0.268,0.068 -0.491,0.017 -1.049,0.037 -1.598,0.042 -0.272,0.003 -0.562,0.015 -0.843,0.086 -0.104,0.027 -0.212,0.033 -0.305,0.037 -0.394,0.017 -0.788,0.031 -1.181,0.043 -0.292,0.008 -0.583,0.008 -0.874,0.008 h -0.052 c -0.493,0 -1.003,0 -1.515,0.044 -0.153,0.013 -0.307,0.008 -0.46,0.002 -0.111,-0.004 -0.222,-0.008 -0.332,-0.005 -0.15,0.004 -0.309,0.024 -0.475,0.061 -0.158,0.034 -0.33,0.051 -0.541,0.051 -0.116,0 -0.231,-0.005 -0.347,-0.009 -0.075,-0.003 -0.15,-0.007 -0.224,-0.008 -0.036,-0.001 -0.072,-0.011 -0.101,-0.028 -0.178,-0.107 -0.377,-0.11 -0.588,-0.113 l -0.097,-0.002 c -0.113,-0.002 -0.233,-0.029 -0.347,-0.076 -0.089,-0.038 -0.171,-0.088 -0.25,-0.136 -0.123,-0.075 -0.241,-0.147 -0.381,-0.169 -0.132,-0.022 -0.21,-0.147 -0.19,-0.305 0.016,-0.13 0.102,-0.208 0.243,-0.221 0.047,-0.004 0.117,-0.011 0.175,-0.035 0.328,-0.136 0.626,-0.174 0.916,-0.114 0.13,0.025 0.258,0.015 0.404,-0.036 0.087,-0.03 0.196,-0.067 0.304,-0.069 0.548,-0.018 1.095,-0.029 1.644,-0.041 l 0.967,-0.02 c 0.525,-0.011 1.051,-0.024 1.595,-0.027 0.212,-0.001 0.413,-0.003 0.604,-0.076 0.084,-0.034 0.179,-0.041 0.252,-0.043 0.241,-0.008 0.483,-0.013 0.725,-0.019 0.173,-0.004 0.345,-0.008 0.518,-0.013 h 0.043 c 0.17,0 0.303,0.031 0.42,0.099 0.118,0.065 0.237,0.072 0.393,0.019 0.108,-0.038 0.235,-0.078 0.364,-0.082 0.566,-0.019 1.152,-0.032 1.743,-0.039 0.225,-0.003 0.481,-0.007 0.71,-0.123 0.182,-0.092 0.375,-0.075 0.554,0.056 0.123,0.089 0.222,0.196 0.313,0.336 l 0.084,0.128 c 0.174,0.27 0.356,0.55 0.553,0.808 0.182,0.238 0.382,0.471 0.574,0.696 0.091,0.107 0.182,0.213 0.272,0.321 0.023,0.026 0.042,0.055 0.061,0.084 l 0.026,0.041 c 0.057,0.083 0.114,0.168 0.171,0.253 0.125,0.187 0.254,0.38 0.394,0.557 0.098,0.125 0.201,0.245 0.305,0.365 0.192,0.223 0.391,0.453 0.553,0.71 0.023,0.036 0.055,0.069 0.089,0.105 l 0.65,0.704 c 0.293,0.317 0.586,0.632 0.878,0.95 0.726,0.79 1.511,1.628 2.334,2.41 0.418,0.397 0.85,0.807 1.289,1.194 0.272,0.239 0.559,0.472 0.838,0.697 0.119,0.096 0.238,0.193 0.357,0.291 0.098,0.08 0.197,0.159 0.296,0.237 l 0.135,0.109 c 0.066,0.053 0.128,0.104 0.195,0.148 0.312,0.202 0.628,0.399 0.944,0.596 0.157,0.099 0.316,0.196 0.478,0.295 l 0.151,0.091 c 0.093,-0.115 0.159,-0.246 0.217,-0.434 0.025,-0.08 0.06,-0.154 0.093,-0.227 0.018,-0.04 0.037,-0.08 0.053,-0.12 0.007,-0.018 0.016,-0.035 0.024,-0.053 0.017,-0.036 0.036,-0.076 0.034,-0.1 -0.014,-0.178 0.029,-0.319 0.136,-0.443 0.01,-0.013 0.018,-0.04 0.026,-0.066 0.006,-0.022 0.013,-0.044 0.021,-0.065 0.014,-0.033 0.029,-0.066 0.043,-0.098 0.018,-0.042 0.037,-0.084 0.054,-0.126 l 0.008,-0.02 c 0.022,-0.055 0.043,-0.107 0.056,-0.161 0.023,-0.102 0.044,-0.203 0.066,-0.306 0.042,-0.208 0.086,-0.422 0.152,-0.628 0.019,-0.055 0.039,-0.111 0.061,-0.165 0.055,-0.147 0.107,-0.285 0.1,-0.437 -0.002,-0.045 0.015,-0.084 0.028,-0.116 0.004,-0.01 0.008,-0.02 0.012,-0.03 0.015,-0.05 0.032,-0.1 0.048,-0.149 0.036,-0.109 0.07,-0.212 0.094,-0.318 0.021,-0.092 0.048,-0.182 0.075,-0.271 0.054,-0.174 0.105,-0.338 0.102,-0.514 -0.001,-0.046 0.019,-0.087 0.034,-0.119 0.006,-0.013 0.012,-0.027 0.016,-0.041 0.044,-0.151 0.088,-0.302 0.131,-0.453 0.006,-0.024 0.01,-0.049 0.015,-0.073 0.009,-0.054 0.019,-0.11 0.046,-0.162 0.08,-0.157 0.092,-0.323 0.099,-0.509 0.005,-0.114 0.029,-0.225 0.055,-0.338 0.014,-0.067 0.031,-0.133 0.048,-0.199 0.02,-0.074 0.038,-0.147 0.053,-0.221 0.033,-0.164 0.062,-0.33 0.09,-0.495 l 0.023,-0.135 c 0.023,-0.134 0.046,-0.269 0.067,-0.404 l 0.039,-0.252 c 0.02,-0.134 0.041,-0.268 0.063,-0.402 0.012,-0.072 0.025,-0.145 0.04,-0.217 0.015,-0.082 0.03,-0.164 0.043,-0.246 0.01,-0.057 0.015,-0.113 0.021,-0.168 0.01,-0.103 0.02,-0.208 0.049,-0.31 0.063,-0.226 0.127,-0.493 0.121,-0.772 -0.003,-0.1 0.012,-0.2 0.027,-0.296 l 0.045,-0.313 c 0.043,-0.297 0.086,-0.603 0.141,-0.903 0.036,-0.196 0.064,-0.391 0.092,-0.587 0.02,-0.144 0.041,-0.288 0.064,-0.432 0.043,-0.254 0.106,-0.509 0.167,-0.756 0.027,-0.112 0.055,-0.224 0.08,-0.336 0.049,-0.205 0.115,-0.409 0.179,-0.605 0.033,-0.101 0.067,-0.203 0.097,-0.305 0.079,-0.26 0.168,-0.372 0.501,-0.355 0.157,0.012 0.285,-0.013 0.386,-0.079 0.032,-0.023 0.081,-0.049 0.135,-0.053 0.161,-0.013 0.308,-0.075 0.462,-0.142 l 0.096,-0.04 c 0.195,-0.079 0.388,-0.169 0.577,-0.257 l 0.209,-0.096 c 0.11,-0.05 0.225,-0.093 0.34,-0.135 0.066,-0.025 0.134,-0.049 0.199,-0.076 0.035,-0.015 0.068,-0.034 0.102,-0.053 l 0.118,-0.067 c 0.045,-0.026 0.091,-0.051 0.136,-0.073 l 0.279,-0.137 0.381,-0.19 -0.379,-0.045 -0.836,-0.368 -0.58,-0.291 -0.904,-0.281 -0.393,-0.259 -0.025,-0.211 0.123,-0.197 0.656,-0.306 0.53,-0.015 h 0.028 l 0.173,0.191 -0.02,0.448 0.042,0.096 1.621,0.386 1.884,0.477 1.792,0.559 6.151,1.207 0.828,0.059 0.782,0.092 2.03,-0.032 0.771,-0.125 1.753,-0.004 0.752,-0.137 0.822,-0.059 1.827,-0.241 0.827,-0.048 5.386,-1.089 0.444,-0.143 0.117,-0.11 0.026,-0.119 -0.532,-0.861 -0.302,-0.251 c -3.94,0.19 -8.047,0.57 -11.998,0.833 l -2.025,0.029 -0.771,0.124 -2.337,-0.045 h -0.636 l -1.684,0.103 -0.486,0.068 -0.008,0.001 -0.692,-0.078 -1.033,0.024 -0.458,-0.041 -0.447,0.064 -0.008,10e-4 -1.314,-0.159 -1.162,-0.339 -0.206,-0.114 -0.159,-0.189 0.043,-0.211 0.544,-0.112 1.929,-0.138 1.163,-0.004 c 2.324,-0.307 4.884,-0.443 7.237,-0.727 l 0.823,-0.059 1.593,-0.179 1.921,-0.161 1.64,-0.102 1.531,-0.236 3.523,-0.598 1.412,-0.346 0.151,-0.117 0.098,-0.166 0.023,-0.169 -0.918,-1.668 -0.398,-0.767 -0.279,-0.27 c -2.702,-0.228 -7.454,1.115 -10.256,1.671 l -0.445,0.16 -0.511,0.062 -0.524,0.341 -1.543,0.249 -2.675,1.153 -1.328,0.436 -1.056,0.423 -3.138,0.994 -0.988,0.207 -0.541,0.059 -0.011,0.002 -0.204,-0.046 -0.023,-0.207 c 0.874,-0.944 5.031,-1.61 6.82,-2.705 L -28.58,9.483 C -28.741,9.335 -28.909,9.187 -29.104,9.02 -29.272,8.878 -29.462,8.728 -29.685,8.562 -29.792,8.483 -29.902,8.408 -30.012,8.331 -30.201,8.201 -30.396,8.065 -30.575,7.913 -31.104,7.459 -31.657,7.049 -32.273,6.599 -32.537,6.406 -32.811,6.223 -33.02,6.087 -33.231,5.948 -33.443,5.812 -33.656,5.676 -33.891,5.525 -34.126,5.375 -34.359,5.221 -34.512,5.12 -34.662,5.015 -34.812,4.909 -34.91,4.839 -35.009,4.769 -35.108,4.701 -35.237,4.613 -35.367,4.526 -35.497,4.438 -35.723,4.287 -35.948,4.136 -36.17,3.98 -36.337,3.862 -36.502,3.741 -36.667,3.62 -36.921,3.435 -37.183,3.243 -37.448,3.067 -37.738,2.876 -37.989,2.641 -38.231,2.414 l -0.126,-0.118 c -0.129,-0.12 -0.255,-0.278 -0.222,-0.539 0.008,-0.069 0.005,-0.141 10e-4,-0.217 -0.004,-0.055 -0.007,-0.112 -0.005,-0.169 0.002,-0.103 0.014,-0.205 0.035,-0.3 0.049,-0.219 0.099,-0.446 0.027,-0.671 -0.026,-0.081 -0.033,-0.165 -0.04,-0.246 l -0.002,-0.038 c -0.015,-0.155 -0.022,-0.31 -0.029,-0.465 -0.013,-0.279 -0.025,-0.567 -0.084,-0.844 -0.023,-0.111 -0.029,-0.225 -0.035,-0.334 -0.008,-0.14 -0.015,-0.273 -0.056,-0.394 -0.108,-0.32 -0.124,-0.649 -0.137,-0.939 -0.004,-0.106 -0.004,-0.213 -0.004,-0.318 0,-0.101 0,-0.203 -0.004,-0.305 -0.003,-0.061 -0.004,-0.126 -0.004,-0.188 -0.002,-0.183 -0.004,-0.355 -0.049,-0.513 -0.103,-0.359 -0.121,-0.714 -0.133,-1.106 -0.007,-0.242 -0.02,-0.499 -0.077,-0.745 -0.062,-0.262 -0.097,-0.535 -0.11,-0.835 -0.021,-0.563 -0.12,-1.115 -0.237,-1.728 -0.053,-0.274 -0.107,-0.559 -0.107,-0.853 0,-0.103 -0.016,-0.186 -0.045,-0.243 -0.087,-0.169 -0.129,-0.352 -0.136,-0.574 -0.005,-0.238 -0.042,-0.428 -0.113,-0.597 -0.05,-0.12 -0.075,-0.262 -0.072,-0.397 0.008,-0.28 -0.048,-0.547 -0.111,-0.82 -0.012,-0.054 -0.035,-0.113 -0.059,-0.113 0,0 -0.042,0.005 -0.105,0.051 l -0.025,0.019 c -0.358,0.264 -0.727,0.537 -1.085,0.814 -0.247,0.19 -0.488,0.387 -0.729,0.582 l -0.578,0.466 c -0.349,0.281 -0.709,0.571 -1.057,0.865 -0.258,0.217 -0.515,0.446 -0.763,0.666 -0.145,0.129 -0.289,0.258 -0.435,0.386 -0.052,0.044 -0.106,0.087 -0.159,0.13 -0.074,0.056 -0.143,0.11 -0.205,0.17 -0.417,0.408 -0.831,0.818 -1.245,1.227 l -0.018,0.048 c -0.073,0.207 -0.127,0.356 -0.182,0.83 -0.009,0.074 -0.038,0.126 -0.062,0.169 -0.014,0.025 -0.026,0.047 -0.028,0.064 l -0.088,0.241 -0.369,1.401 -0.207,0.724 -0.173,0.161 h -0.226 l -1.032,-1.313 c -0.167,0.188 -0.332,0.374 -0.512,0.558 -0.617,0.627 -1.251,1.257 -1.865,1.867 l -0.468,0.466 c -0.056,0.056 -0.12,0.107 -0.195,0.107 -0.035,-0.001 -0.071,-0.001 -0.107,-0.001 -0.19,-0.002 -0.388,-0.003 -0.576,-0.106 -0.151,-0.083 -0.329,-0.178 -0.509,-0.257 -0.222,-0.098 -0.447,-0.187 -0.672,-0.277 l -0.147,-0.058 c -0.032,-0.014 -0.061,-0.021 -0.093,-0.021 -0.138,0 -0.268,-0.039 -0.409,-0.126 -0.049,-0.03 -0.107,-0.053 -0.168,-0.065 -0.096,-0.022 -0.187,-0.056 -0.274,-0.089 -0.137,-0.052 -0.267,-0.1 -0.406,-0.1 -0.023,0 -0.045,10e-4 -0.082,0.005 -0.024,0 -0.044,-0.009 -0.065,-0.016 -0.062,-0.024 -0.126,-0.046 -0.19,-0.069 -0.142,-0.051 -0.289,-0.103 -0.432,-0.167 -0.136,-0.06 -0.273,-0.092 -0.429,-0.097 -0.075,-0.002 -0.143,-0.027 -0.209,-0.05 -0.023,-0.009 -0.045,-0.017 -0.068,-0.024 -0.045,-0.014 -0.089,-0.028 -0.134,-0.042 -0.079,-0.026 -0.157,-0.052 -0.237,-0.071 -0.183,-0.047 -0.368,-0.09 -0.551,-0.133 l -0.308,-0.073 c -0.021,-0.005 -0.038,-0.014 -0.062,-0.027 l -0.07,-0.023 c -0.106,-0.036 -0.212,-0.07 -0.318,-0.104 -0.027,-0.008 -0.054,-0.014 -0.083,-0.02 -0.047,-0.011 -0.096,-0.021 -0.144,-0.042 -0.16,-0.067 -0.326,-0.103 -0.502,-0.141 -0.166,-0.034 -0.337,-0.07 -0.5,-0.135 -0.019,-0.008 -0.048,-0.01 -0.077,-0.013 -0.033,-0.002 -0.067,-0.005 -0.097,-0.013 -0.227,-0.061 -0.451,-0.126 -0.675,-0.191 -0.023,-0.007 -0.04,-0.018 -0.061,-0.032 l -0.077,-0.031 c -0.062,-0.026 -0.121,-0.05 -0.182,-0.066 -0.166,-0.042 -0.332,-0.082 -0.498,-0.12 -0.12,-0.028 -0.24,-0.057 -0.359,-0.087 -0.053,-0.012 -0.096,-0.038 -0.124,-0.058 -0.103,-0.079 -0.231,-0.102 -0.37,-0.128 -0.104,-0.018 -0.214,-0.053 -0.33,-0.107 -0.053,-0.026 -0.104,-0.057 -0.154,-0.09 -0.067,-0.042 -0.13,-0.083 -0.194,-0.099 -0.272,-0.066 -0.507,-0.201 -0.735,-0.331 -0.116,-0.067 -0.236,-0.135 -0.359,-0.192 -0.112,-0.054 -0.215,-0.123 -0.315,-0.19 -0.14,-0.095 -0.271,-0.184 -0.428,-0.23 -0.062,-0.018 -0.107,-0.057 -0.131,-0.11 -0.026,-0.056 -0.022,-0.123 0.01,-0.188 0.045,-0.094 0.116,-0.113 0.167,-0.113 0.032,0 0.065,0.007 0.108,0.022 0.074,0.026 0.157,0.054 0.235,0.058 0.27,0.01 0.566,0.015 0.929,0.017 0.188,0.001 0.34,0.034 0.49,0.111 0.053,0.027 0.113,0.058 0.16,0.058 h 0.044 c 0.226,0 0.434,0.067 0.634,0.132 l 0.056,0.019 c 0.05,0.016 0.105,0.026 0.164,0.034 0.045,0.008 0.09,0.016 0.133,0.026 0.088,0.02 0.174,0.048 0.261,0.076 l 0.019,0.006 c 0.08,0.025 0.159,0.053 0.239,0.081 0.163,0.056 0.332,0.115 0.502,0.151 0.038,0.009 0.078,0.016 0.116,0.023 0.141,0.025 0.286,0.051 0.42,0.142 0.011,0.007 0.035,0.012 0.059,0.016 0.019,0.004 0.039,0.008 0.056,0.014 0.111,0.031 0.223,0.065 0.334,0.099 0.024,0.007 0.049,0.015 0.073,0.024 0.038,0.014 0.076,0.028 0.115,0.036 0.042,0.008 0.084,0.014 0.126,0.021 0.158,0.026 0.322,0.055 0.476,0.142 0.029,0.017 0.082,0.019 0.143,0.021 0.155,0.004 0.292,0.052 0.425,0.099 l 0.035,0.012 c 0.253,0.086 0.514,0.165 0.761,0.238 0.071,0.021 0.144,0.038 0.216,0.056 0.12,0.029 0.242,0.06 0.36,0.103 0.05,0.018 0.103,0.027 0.16,0.037 0.039,0.007 0.078,0.015 0.116,0.024 0.08,0.021 0.158,0.044 0.236,0.068 0.197,0.06 0.384,0.118 0.584,0.118 h 0.023 l 0.022,0.013 c 0.095,0.063 0.209,0.089 0.329,0.117 0.153,0.035 0.31,0.073 0.443,0.183 0.215,-0.023 0.41,0.053 0.594,0.125 l 0.08,0.03 c 0.144,0.055 0.291,0.102 0.438,0.148 0.203,0.065 0.413,0.132 0.614,0.22 0.121,0.053 0.244,0.099 0.367,0.145 0.19,0.069 0.386,0.142 0.571,0.242 0.047,0.025 0.1,0.05 0.129,0.05 0.027,0 0.065,-0.035 0.144,-0.118 0.205,-0.216 0.38,-0.387 0.552,-0.539 0.05,-0.046 0.102,-0.09 0.154,-0.135 0.201,-0.171 0.391,-0.333 0.52,-0.556 0.02,-0.036 0.052,-0.063 0.09,-0.094 0.403,-0.346 0.743,-0.679 1.04,-1.019 0.035,-0.039 0.072,-0.077 0.107,-0.115 -0.014,-0.019 -0.031,-0.041 -0.041,-0.057 -0.021,-0.03 -0.037,-0.054 -0.057,-0.076 l -0.191,-0.294 -0.372,-0.801 -0.318,-0.258 -0.015,-0.018 c -0.001,-10e-4 -0.092,-0.168 -0.179,-0.305 -0.032,-0.052 -0.067,-0.094 -0.102,-0.136 -0.061,-0.076 -0.124,-0.155 -0.182,-0.281 l -0.152,-0.327 -0.133,-0.238 -0.565,-1.217 -0.293,-0.282 c -0.114,-0.083 -0.316,-0.575 -0.418,-0.902 l -0.145,-0.305 -0.629,-1.466 -0.513,-1.262 -1.252,-4.037 -0.089,-0.084 -0.345,0.066 -0.902,0.579 -0.754,0.404 -0.623,0.572 -2.156,1.38 -0.708,0.464 -1.015,0.766 -0.385,0.207 -0.138,0.142 -0.068,0.08 -0.246,0.142 -0.02,0.007 c -0.2,0.034 -0.295,0.099 -0.405,0.173 -0.063,0.044 -0.134,0.094 -0.232,0.14 l -0.034,0.015 -0.271,-0.205 -0.096,-0.232 0.04,-0.236 0.153,-0.176 1.269,-0.816 0.802,-0.683 1.777,-1.168 1.394,-0.962 2.071,-1.47 1.118,-0.684 0.402,-0.142 0.023,-0.009 0.201,0.091 0.123,0.193 0.181,0.752 0.137,1.037 0.457,2.177 0.55,1.232 0.252,0.916 1.129,2.685 0.612,0.87 1.162,2.075 1.372,2.158 0.305,0.174 0.125,-0.046 0.114,-0.144 0.34,-1.427 0.357,-1.405 0.355,-2.007 0.401,-1.646 0.006,-4.112 -0.39,-2.577 -0.004,-0.467 0.197,-0.759 0.22,-0.083 1.654,0.441 2.015,0.339 0.798,0.089 0.759,0.117 1.159,0.031 0.735,0.136 1.173,0.006 c 3.155,-0.467 6.352,0.059 9.482,-0.809 l 0.366,-0.173 0.025,-0.074 -0.364,-0.416 -0.51,-0.377 -0.694,-0.479 -0.926,-0.552 -1.426,-0.934 -1.033,-0.723 -0.789,-0.401 -1.041,-0.719 -0.931,-0.533 -0.835,-0.344 -1.008,-0.768 -4.234,-1.362 -0.366,-0.289 v -0.231 c 4.08,-3.936 7.919,-5.899 11.546,-10.882 l 0.171,-0.388 -0.019,-0.09 -0.101,-0.026 -1.433,0.329 -1.772,0.591 -1.652,0.407 -1.548,0.502 -0.804,0.393 -1.872,0.466 -0.776,0.403 -0.8,0.096 -1.34,0.441 -0.992,0.174 -0.766,0.417 -0.933,0.241 -1.703,0.646 -2.189,1.057 -0.611,0.261 -0.373,0.224 -0.774,0.385 -1.286,1.07 -0.892,0.345 -0.482,-0.066 -0.726,-0.521 -0.411,-0.469 c -1.847,-2.026 -4.097,-3.483 -5.873,-5.609 l -1.311,-1.055 -1.208,-1.17 -0.487,-0.758 0.709,0.209 1.531,1.159 1.356,1.001 0.39,0.498 0.839,0.652 0.532,0.63 2.435,1.994 0.738,0.727 1.147,0.922 0.761,0.697 0.188,0.012 0.206,-0.067 1.072,-0.709 c 4.266,-2.965 9.428,-3.837 14.216,-5.552 l 0.703,-0.175 2.452,-0.792 1.827,-0.53 1.131,-0.357 c 2.257,-0.448 3.477,-0.962 1.411,2.054 l -0.569,0.599 -1.14,1.513 -0.71,0.485 -1.063,1.287 -0.856,0.933 -0.52,0.346 -0.444,0.453 -1.195,0.861 -0.789,0.699 -0.711,0.448 -0.885,0.894 -0.496,0.389 -0.843,0.637 -0.218,0.226 0.038,0.066 0.499,0.359 0.566,0.311 c 2.856,1.26 5.901,2.704 8.399,4.584 l 3.446,2.443 0.731,0.465 0.314,0.293 0.012,0.012 0.129,0.401 -0.084,0.21 -0.373,0.251 -1.014,0.2 -1.921,0.437 -1.481,0.301 -2.346,0.005 -2.023,0.227 c -1.896,0.215 -3.762,-0.209 -5.655,-0.218 l -1.555,-0.21 -1.078,-0.116 -0.655,-0.213 -0.818,-0.069 -0.172,0.078 -0.077,0.172 0.023,1.168 0.251,1.806 0.03,2.327 0.023,1.174 -0.017,0.079 -0.007,0.021 c -0.082,0.126 -0.082,0.199 -0.081,0.415 v 0.05 c 0,0.147 -0.04,0.255 -0.074,0.343 -0.019,0.052 -0.035,0.096 -0.042,0.137 l -0.018,0.225 -0.08,0.219 -0.164,1.048 -0.033,0.093 0.169,-0.148 c 0.191,-0.168 0.383,-0.335 0.573,-0.504 0.052,-0.046 0.102,-0.095 0.153,-0.142 0.07,-0.067 0.141,-0.135 0.216,-0.197 0.159,-0.131 0.318,-0.265 0.476,-0.398 0.454,-0.38 0.923,-0.774 1.4,-1.142 0.446,-0.346 0.92,-0.718 1.372,-1.126 0.533,-0.481 1.014,-0.835 1.513,-1.114 0.095,-0.054 0.207,-0.083 0.313,-0.083 0.124,0 0.227,0.039 0.29,0.113 0.093,0.107 0.163,0.229 0.214,0.322 0.034,0.062 0.058,0.125 0.084,0.189 0.015,0.04 0.031,0.082 0.049,0.12 0.028,0.06 0.058,0.12 0.088,0.179 0.102,0.196 0.206,0.398 0.217,0.66 0.126,0.205 0.132,0.425 0.139,0.638 l 0.004,0.115 c 0.006,0.201 0.011,0.39 0.1,0.564 0.034,0.066 0.053,0.153 0.056,0.257 0.005,0.222 0.052,0.448 0.099,0.665 0.058,0.274 0.119,0.559 0.095,0.837 0.123,0.269 0.15,0.556 0.177,0.831 0.01,0.096 0.019,0.19 0.032,0.285 0.007,0.054 0.017,0.101 0.033,0.145 0.094,0.277 0.103,0.563 0.113,0.84 l 0.003,0.106 c 0.005,0.167 0.011,0.34 0.055,0.494 0.088,0.303 0.101,0.61 0.113,0.908 l 0.006,0.157 c 0.01,0.21 0.039,0.423 0.068,0.629 0.01,0.076 0.021,0.152 0.031,0.228 0.007,0.055 0.016,0.112 0.026,0.168 0.017,0.092 0.032,0.189 0.039,0.288 0.005,0.12 0.004,0.241 0.004,0.362 -10e-4,0.102 -10e-4,0.202 0.002,0.302 0.01,0.282 0.021,0.6 0.094,0.909 0.052,0.215 0.091,0.442 0.036,0.632 -0.067,0.233 -0.071,0.455 -0.012,0.767 0.036,0.188 0.043,0.382 0.049,0.568 0.003,0.095 0.006,0.192 0.013,0.287 0.017,0.221 0.037,0.458 0.066,0.696 0.014,0.109 0.031,0.216 0.049,0.325 0.044,0.272 0.089,0.554 0.071,0.842 -0.006,0.098 0.031,0.174 0.114,0.231 l 0.379,0.258 c 0.226,0.156 0.452,0.311 0.679,0.468 0.29,0.201 0.578,0.404 0.867,0.609 l 0.047,0.034 c 0.021,0.014 0.04,0.032 0.059,0.05 0.012,0.012 0.024,0.023 0.037,0.034 l 0.216,0.167 c 0.293,0.227 0.585,0.455 0.882,0.677 0.228,0.172 0.463,0.339 0.696,0.506 l 0.142,0.101 c 0.134,0.096 0.269,0.194 0.403,0.291 0.394,0.286 0.801,0.583 1.223,0.841 0.353,0.217 0.677,0.467 0.947,0.683 0.042,0.034 0.082,0.067 0.122,0.101 0.119,0.099 0.23,0.193 0.359,0.269 0.219,0.128 0.429,0.278 0.608,0.407 0.116,0.083 0.229,0.17 0.341,0.257 0.196,0.149 0.398,0.304 0.607,0.437 0.291,0.183 0.526,0.412 0.734,0.631 0.076,0.079 0.154,0.157 0.232,0.236 0.085,0.084 0.17,0.168 0.254,0.252 l 0.47,-0.187 c 4.248,-1.627 7.911,-1.657 12.077,-2.912 l 0.033,-0.064 -0.445,-0.626 -0.505,-0.653 -0.5,-0.402 -1.595,-1.929 c -2.046,-1.769 -2.947,-4.462 -4.84,-6.372 l -0.525,-0.664 -0.913,-1.444 -0.565,-0.907 -0.474,-0.712 -1.14,-2.091 -0.569,-0.607 -0.193,-0.469 0.082,-0.227 0.225,-0.071 0.806,0.411 2.619,0.919 1.256,0.511 0.653,0.236 4.846,2.232 c 3.252,1.489 5.551,3.47 8.36,5.508 l 2.009,1.535 0.145,0.049 0.108,-0.035 1.014,-1.893 1.104,-2.147 0.466,-0.699 0.283,-0.607 1.048,-1.893 0.372,-0.815 0.748,-1.305 0.262,-0.641 0.359,-0.515 0.639,-1.142 0.382,-0.509 0.276,-0.295 0.143,-0.43 0.529,-0.675 1.22,-1.742 0.899,-0.879 0.448,-0.191 0.24,0.034 0.192,0.154 0.17,0.455 0.296,0.889 0.326,1.456 0.027,0.844 0.114,0.486 0.002,0.009 -0.055,0.531 -0.087,0.491 0.106,0.707 10e-4,0.009 -0.113,0.753 -0.059,2.071 -0.083,1.029 -0.031,0.862 -0.118,0.764 C 4.554,-0.221 3.027,4.205 1.361,8.483 L 1.389,8.649 2.193,9.282 3.313,9.916 4.415,10.29 4.877,10.258 5.16,9.985 5.607,9.252 6.943,7.642 7.752,6.675 9.361,5.046 9.774,4.575 10.604,4.172 10.62,4.164 10.814,4.188 10.831,4.38 9.896,5.852 9.092,6.548 8.457,7.077 7.773,7.869 7.075,8.634 6.766,9.22 6.215,9.839 5.717,10.515 5.123,11.397 5.01,11.583 4.802,11.728 4.541,11.746 3.715,11.329 2.575,10.42 -0.26,8.848 -1.352,8.464 -3.457,7.625 -5.458,6.979 -7.717,6.297 -9.639,5.871 -10.492,5.83 -11.67,5.603 l -0.399,0.13 -0.179,0.115 -0.081,0.131 0.118,0.357 0.424,1.049 0.742,1.036 0.524,0.935 0.408,0.49 0.427,0.738 0.523,0.662 0.722,1.035 0.565,0.614 0.396,0.801 0.523,0.933 0.679,0.797 0.537,0.657 0.328,0.555 0.047,0.198 -0.112,0.193 -0.41,0.141 -1.794,0.071 -0.748,0.111 -0.923,0.266 -0.783,0.087 -0.671,0.228 -0.784,0.093 -1.687,0.373 -2.518,0.721 -1.125,0.36 -1.032,0.137 -1.61,0.739 -0.622,0.253 -0.022,0.031 0.253,0.154 c 5.343,2.248 9.046,3.631 14.776,4.719 l 0.134,0.172 -0.132,0.418 -1.226,1.765 -0.47,0.704 -0.761,1.303 -0.343,0.538 -1.152,2.082 -1.093,2.45 -0.726,1.334 -0.578,1.207 -0.051,0.205 0.03,0.113 0.112,0.03 0.893,-0.273 C -5.722,35.708 -0.756,33.587 2.851,29.78 L 4.409,27.812 5.4,26.166 5.808,25.1 l 0.008,-0.017 0.378,-0.271 0.273,-0.053 0.217,0.091 0.281,0.628 1.56,1.953 0.463,0.432 1.062,1.288 1.046,1.056 0.012,0.012 0.056,0.217 z" fill="#181716" transform="matrix(1.33333 0 0 -1.33333 81.185 106.114)"/><path style="mix-blend-mode:multiply" d="m 0,0 0.156,0.178 0.017,0.218 c -0.524,1.113 -1.366,1.99 -2.329,2.745 L -3.074,3.98 -3.898,4.941 C -5.28,5.928 -6.346,7.269 -7.693,8.239 l -0.113,0.126 0.01,0.067 0.126,0.042 0.211,-0.034 C -5.097,7.236 -2.014,5.036 0.032,3.254 L 0.672,2.723 1.566,1.839 2.22,1.322 3.128,0.447 3.14,0.436 3.406,0.371 3.672,0.392 3.907,0.49 4.2,0.831 4.342,1.33 4.376,2.467 4.494,3.236 4.65,4.544 5.083,5.63 5.145,5.503 5.256,4.713 5.354,2.569 5.256,0.886 5.242,-0.025 5.292,-0.281 5.45,-0.492 5.855,-0.57 l 0.01,-0.002 1.808,0.222 1.129,0.054 0.781,0.093 1.451,-0.034 0.575,-0.182 -0.112,-0.107 -0.652,-0.238 -0.738,-0.16 L 5.52,-2.831 5.332,-2.995 5.258,-3.235 5.391,-3.705 6.112,-4.79 c 1.608,-2.063 3.732,-5.798 4.807,-8.152 l 0.028,-0.398 -0.055,-0.054 -0.077,0.032 -0.824,0.925 C 7.777,-9.386 5.359,-6.401 3.21,-3.289 l -0.012,0.02 -0.222,0.076 -0.383,-0.236 -0.714,-0.808 -0.986,-1.356 -2.246,-2.168 -0.963,-0.798 -1.732,-1.212 -1.254,-0.811 -1.248,-0.824 -1.431,-1.217 -0.311,-0.131 0.285,0.444 c 3.452,3.055 6.151,6.795 9.276,10.165 l 0.506,0.394 -0.114,0.171 -0.76,0.174 -3.542,-0.016 -0.736,-0.137 -3.832,-0.01 -0.738,-0.136 -0.862,-0.031 -0.754,-0.123 -1.133,-0.054 -0.522,-0.097 -0.21,0.026 -0.03,0.029 0.232,0.182 1.11,0.357 2.321,0.335 3.693,0.716 1.741,0.05 0.438,0.067 0.747,-0.122 h 0.008 l 0.544,0.069 z m -12.513,-1.442 -0.797,-0.369 -1.16,-0.334 -0.379,-0.243 0.076,-0.167 0.215,-0.098 0.992,-0.197 0.014,-0.002 0.487,0.109 0.48,-0.014 2.146,0.045 1.768,0.284 2.62,0.05 c 1.773,0.108 3.529,0.177 5.293,0.23 L -0.09,-2.347 0.029,-2.478 0.063,-2.637 0.004,-2.794 C -0.884,-3.913 -2.628,-5.212 -3.084,-6.191 L -3.73,-6.71 -4.347,-7.582 c -1.507,-1.696 -2.896,-2.841 -4.387,-4.741 l -0.749,-0.74 -0.379,-0.525 -0.288,-0.605 0.149,-0.149 0.264,-0.022 0.256,0.066 0.98,0.544 2.842,1.87 0.935,0.549 1.168,0.885 0.744,0.455 0.588,0.581 0.981,0.784 0.684,0.507 1.202,1.152 1.085,0.977 0.478,0.41 0.598,0.576 0.311,0.182 0.136,-0.046 1.026,-1.02 1.435,-1.809 1.068,-1.284 1.372,-1.874 1.06,-1.294 0.507,-0.674 0.516,-0.653 0.338,-0.555 1.433,-1.808 0.795,-1.018 0.182,-0.048 0.058,0.524 -0.551,1.867 c -1.566,3.499 -2.941,6.679 -5.352,9.688 l -0.678,1.07 0.012,0.136 c 1.724,1.184 5.088,2.432 7.094,2.86 l 0.458,0.178 0.134,0.172 -0.063,0.19 -1.08,0.457 L 11.034,0.622 8.99,0.65 7.507,0.366 6.642,0.274 6.35,0.331 6.282,0.464 6.258,1.021 C 6.401,3.83 6.023,6.64 5.82,9.434 L 5.657,9.942 5.463,10.039 5.292,9.913 C 4.64,7.348 3.814,4.882 3.455,2.257 L 3.289,1.636 3.21,1.622 3.063,1.7 C 2.03,3.034 -0.659,4.668 -1.832,5.969 L -2.6,6.384 -3.089,6.792 c -2.225,1.25 -4.048,3.014 -6.606,3.428 l -0.637,0.252 -1.323,0.449 -0.148,-0.148 0.209,-0.379 0.514,-0.418 C -8.147,7.528 -5,5.315 -2.539,2.318 L -1.709,1.391 -1.523,0.982 -1.535,0.794 -1.653,0.677 -1.882,0.632 -2.801,0.656 -4.45,0.415 -7.071,-0.086 -9.345,-0.464 -9.949,-0.75 Z" fill="#181716" transform="matrix(1.33333 0 0 -1.33333 35.524 26.082)"/><path style="mix-blend-mode:multiply" d="M 0,0 0.01,0.255 -0.16,0.425 -0.446,0.474 -0.969,0.36 H -1.674 L -3.98,0.12 -5.915,0.006 l -0.791,0.083 -1.79,-0.127 -0.634,0.051 -0.554,0.172 0.149,0.058 1.523,0.275 c 2.982,0.705 6.311,0.267 9.124,1.547 L 1.347,2.467 1.205,2.892 0.435,3.931 -1.143,5.036 -2.222,5.714 -3.186,6.521 -4,7.177 -4.639,7.708 -5.074,8.172 -5.925,8.804 -6.476,9.134 -6.783,9.385 V 9.42 l 0.082,0.019 0.644,-0.233 c 1.69,-0.618 4.583,-2.229 5.985,-3.428 L 0.973,5.068 2.342,3.768 3.089,3.292 H 3.357 L 4.244,3.907 5.623,4.59 7.022,5.246 7.67,5.482 8.566,5.786 8.758,5.774 8.801,5.731 8.615,5.488 8.041,5.154 7.094,4.323 6.541,3.711 5.885,3.2 5.139,2.768 4.691,2.275 4.68,2.262 4.631,2.009 4.712,1.767 5.087,1.522 c 2.217,-1.919 4.222,-4.553 6.066,-6.879 l 0.646,-1.107 -0.021,-0.087 -0.091,-0.022 -0.171,0.067 C 9.462,-4.644 7.927,-2.949 5.753,-1.043 L 3.925,0.371 3.089,0.684 2.887,0.592 1.787,-1.279 0.994,-2.258 0.616,-2.766 0.021,-3.633 l -0.575,-0.616 -0.599,-0.874 -1.094,-1.556 -1.889,-2.526 -0.678,-0.797 -0.257,-0.193 -0.017,0.017 0.008,0.165 0.149,0.447 1.237,2.02 0.538,1.222 1.067,1.885 0.377,0.798 0.833,1.534 z m -4.993,4.133 0.63,0.295 0.168,0.168 0.041,0.208 -0.335,0.254 -0.656,0.247 -1.4,0.958 -1.06,0.698 -1.749,1.502 -0.686,0.482 -1.245,1.108 -0.897,0.868 -0.109,0.171 -0.025,0.176 0.068,0.157 0.356,0.205 2.288,0.652 1.49,0.274 1.306,0.157 1.414,-0.057 2.433,-0.504 0.937,-0.535 1.265,-0.492 L 0.18,10.605 0.981,9.951 1.378,9.456 2.524,8.262 3.791,6.278 3.981,6.15 l 0.393,0.117 1.723,0.94 1.025,0.433 0.741,0.162 0.998,0.463 1.607,0.452 0.705,0.165 0.895,0.01 0.457,0.093 L 13.526,8.872 14.65,8.83 15.123,8.713 15.296,8.618 15.372,8.471 15.348,8.301 14.667,7.506 13.977,6.727 11.906,4.685 11.211,4.186 10.361,3.279 9.445,2.713 9.292,2.541 9.251,2.323 9.354,2.118 9.992,1.838 c 3.462,-3.081 5.493,-6.882 6.966,-11.243 l 0.48,-1.574 0.161,-1.013 -0.074,-0.69 0.029,-0.432 -0.058,-0.21 -0.11,-0.152 -0.14,-0.046 -0.383,0.16 -0.783,0.693 -0.848,0.614 -0.749,0.739 -1.409,0.955 -1.301,0.753 -0.863,0.616 -1.078,0.702 -1.015,0.448 -1.097,0.674 -0.738,0.427 -0.665,0.524 -1.247,0.798 -0.305,0.3 -0.229,0.105 -0.255,0.006 -0.225,-0.11 c -2.748,-3.459 -6.386,-6.07 -9.898,-8.7 l -2.143,-1.693 -0.479,-0.424 -0.173,-0.067 -0.103,0.029 -0.034,0.113 0.43,1.034 0.223,0.593 0.07,0.009 0.349,-0.141 0.333,0.286 0.844,0.936 c 3.249,3.876 6.948,8.274 9.678,12.441 l 0.152,0.106 0.171,0.016 c 3.341,-2.396 6.447,-5.957 9.762,-8.466 l 1.262,-1.109 0.207,-0.056 0.135,0.135 -0.077,0.441 -0.349,0.871 c -1.438,2.372 -2.832,4.023 -4.43,6.19 L 8.78,-1.132 7.355,0.694 6.354,1.744 6.256,2.137 6.41,2.513 7.444,3.528 8.708,4.616 10.884,6.263 11.636,6.715 11.917,7.062 11.767,7.211 10.88,7.22 9.403,6.919 7.216,6.15 5.831,5.486 5.129,5.291 3.343,4.461 2.979,4.583 1.481,5.75 0.538,6.272 -0.334,6.878 c -2.523,1.823 -6.445,4.001 -9.602,3.948 l -0.027,0.002 -0.123,-0.123 0.228,-0.36 0.768,-0.478 1.873,-1.069 1.959,-1.263 0.584,-0.612 0.526,-0.35 0.952,-0.814 1.1,-0.971 1.184,-0.862 0.71,-0.768 0.07,-0.174 L -0.137,2.818 -0.226,2.686 C -3.92,1.571 -8.429,1.592 -12.177,0.498 L -13.042,0.149 -13.237,0.006 V -0.18 l 1.275,-0.212 1.118,-0.073 0.799,-0.089 0.822,-0.058 2.133,-0.246 0.827,0.068 0.8,0.094 2.147,0.201 0.785,0.094 h 1.185 l 0.153,-0.063 0.031,-0.114 -0.591,-1.749 C -3.491,-5.989 -5.84,-9.426 -7.441,-13.144 l -0.343,-0.553 -0.022,-0.017 -0.009,0.105 0.126,1.085 0.355,1.711 0.132,0.748 0.999,3.999 0.595,1.472 0.388,1.069 0.456,0.747 0.078,0.255 -0.016,0.251 -0.151,0.192 -0.489,0.156 -1.627,0.132 -1.298,0.187 -1.146,0.024 -3.278,0.56 -1.116,0.06 -0.798,0.093 -1.469,-0.005 -0.429,0.137 -0.06,0.108 0.037,0.122 0.864,0.599 c 1.863,0.999 4.016,2.148 6.035,2.795 l 0.636,0.245 1.33,0.431 L -5.744,4 Z m -29.373,-8.467 0.134,0.165 -0.087,0.703 -0.486,1.035 c -1.798,2.215 -4.301,4.98 -6.246,7.022 l -0.544,0.652 -0.642,0.529 -0.225,0.337 -0.004,0.128 0.065,0.069 1.267,-0.081 1.139,-0.029 1.499,-0.264 2.337,-0.602 3.426,-1.279 1.367,-0.712 0.673,-0.198 1.201,-0.556 1.249,-0.807 1.318,-1.025 0.338,-0.532 0.704,-0.5 1.295,-1.105 h 0.225 l 0.151,0.157 0.289,0.935 0.431,0.757 0.362,0.814 1.168,2.352 0.622,0.846 0.323,0.216 0.092,-0.022 0.167,-0.365 0.455,-1.311 0.178,-0.714 0.716,-1.927 0.608,-2.627 0.152,-1.321 0.201,-1.572 0.003,-0.02 0.148,-0.155 1.465,0.209 2.265,-0.37 0.7,-0.193 1.27,-0.196 2.077,-0.566 0.318,-0.216 0.015,-0.096 -1.401,-1.451 -0.993,-0.767 -1.961,-1.292 -0.626,-0.539 -1.1,-0.673 -0.138,-0.207 -0.045,-0.28 0.263,-0.691 0.592,-0.872 0.91,-1.437 1.095,-2.438 0.499,-1.263 0.873,-2.948 0.24,-1.528 0.251,-1.514 0.165,-1.628 -0.066,-0.415 -0.069,-0.012 -1.02,0.731 -0.858,0.604 c -2.933,2.608 -5.149,4.214 -7.506,7.516 l -0.555,0.613 -0.86,1.218 -0.173,0.145 -0.217,0.066 -0.818,-0.266 -0.807,-0.697 -1.519,-0.827 -1.093,-0.399 -1.071,-0.69 -1.895,-1.05 -0.787,-0.394 -0.762,-0.41 -1.218,-0.558 -1.506,-0.849 -1.764,-0.896 -1.067,-0.689 -0.923,-0.262 -1.922,-1.035 -0.17,-0.004 -0.122,0.096 -0.075,0.358 1.813,4.306 c 0.866,1.896 2.659,3.807 3.947,5.454 l 0.758,0.729 2.014,2.677 0.019,0.025 -0.062,0.199 -0.223,0.102 -1.03,-0.134 -3.523,0.014 -0.745,0.129 -1.039,-0.143 -1.163,-0.026 -0.749,-0.126 -0.852,0.038 -0.77,0.124 -1.736,0.024 -2.836,0.424 -0.154,0.058 -0.002,0.03 1.52,0.8 0.816,0.372 1.68,0.971 1.878,1.073 1.255,0.796 1.02,0.459 0.566,0.306 1.095,0.378 0.533,0.36 1.818,0.552 z m -14.751,-6.946 1.14,-0.089 1.594,-0.177 1.379,-0.087 0.771,-0.125 1.166,-0.004 0.717,-0.103 0.01,-10e-4 0.472,0.089 1.025,-0.128 3.207,-0.024 0.77,-0.123 2.879,-0.053 0.081,-0.078 -0.004,-0.125 -0.378,-0.486 c -2.738,-3.175 -4.395,-5.146 -6.043,-9.02 l -0.834,-2.421 -0.289,-1.68 -0.002,-0.01 0.06,-0.37 0.146,-0.133 0.417,0.069 5.751,2.846 0.952,0.513 0.837,0.351 1.511,0.86 0.642,0.519 1.968,0.977 1.425,0.654 0.685,0.482 1.755,0.899 2.086,1.158 0.178,0.017 0.332,-0.201 1.877,-2.249 1.573,-1.67 0.714,-0.754 0.416,-0.484 0.643,-0.527 1.042,-1.031 0.656,-0.518 0.786,-0.697 0.689,-0.484 1.29,-1.072 2.184,-1.66 0.205,-0.047 0.154,0.154 0.056,0.257 -0.292,1.208 -0.416,2.525 -0.016,0.865 -0.295,0.89 -0.095,0.801 -0.347,1.12 -0.368,1.71 -1.434,3.575 -0.423,1.065 -0.897,1.456 -0.102,0.406 0.127,0.402 0.289,0.284 2.004,1.529 0.813,0.664 0.939,0.83 0.615,0.558 0.504,0.396 0.401,0.469 0.825,0.683 0.017,0.014 0.046,0.216 -0.153,0.183 -1.962,0.745 -1.872,0.49 -0.57,0.187 -0.013,0.003 -0.463,-0.049 -0.436,0.121 -0.61,0.281 -2.023,0.058 -0.989,0.17 -0.121,0.113 -0.107,1.053 -0.093,0.495 0.057,0.856 0.083,0.08 2.593,0.015 1.625,-0.133 0.798,-0.083 c 1.941,-0.294 3.872,-0.482 5.826,-0.606 l 0.433,0.064 0.393,-0.142 0.111,-0.14 0.025,-0.179 -0.585,-1.466 -0.806,-2.443 -0.351,-1.717 -0.27,-1.494 -1.034,-4.263 -0.377,-1.097 -0.495,-1.615 -0.016,-0.247 0.101,-0.211 0.216,-0.099 0.421,0.167 1.369,1.032 0.621,0.552 5.419,4.015 1.113,0.939 0.733,0.465 1.927,1.896 0.652,0.535 0.882,0.874 0.516,0.377 0.441,0.403 0.151,0.012 2.877,-1.805 1.036,-0.747 1.604,-0.743 2.659,-1.764 1.096,-0.657 0.629,-0.559 2.221,-1.628 1.037,-0.455 0.448,-0.062 0.189,0.104 0.187,0.46 -0.065,0.842 -0.248,2.122 -0.324,1.147 -0.229,0.962 -0.416,1.051 -0.417,1.35 -0.469,0.72 -1.364,3.077 -1.019,1.344 -1.513,1.74 -0.775,0.686 -0.544,0.623 -0.355,0.741 0.106,0.314 0.648,0.808 0.664,0.525 1.469,1.491 0.358,0.505 0.639,0.55 1.866,1.984 0.014,0.014 L 16.671,8.78 16.573,9.006 16.155,9.243 15.02,9.581 13.838,9.604 13.177,9.648 10.384,9.506 9.295,9.384 5.572,8.09 4.758,7.716 4.541,7.68 4.348,7.718 3.893,8.128 3.172,9.171 2.797,9.682 l -3.1,2.521 -1.71,0.679 -1.376,0.405 -1.048,0.138 -1.749,0.029 -0.575,0.049 -1.477,-0.14 -0.663,-0.209 -1.055,-0.14 -0.86,-0.307 -1.098,-0.083 -0.861,-0.318 -1.047,-0.752 v -0.177 l 1.862,-1.708 0.611,-0.572 0.642,-0.534 0.628,-0.558 L -9.078,7.24 -7.611,6.058 -6.978,5.513 -6.381,5.238 -6.343,5.144 -6.506,4.822 -6.82,4.564 -7.987,4.265 l -2.127,-0.82 -1.67,-0.688 -2.119,-0.838 -1.132,-0.632 -0.602,-0.295 -0.519,-0.354 -0.789,-0.403 -0.86,-0.622 -0.217,-0.058 -0.204,0.03 -0.132,0.129 -0.824,2.397 -0.286,1.194 -0.825,2.415 -0.142,0.461 -0.154,0.2 -0.211,0.084 -0.201,-0.091 -1.01,-1.403 -0.427,-0.739 -0.657,-0.826 -0.678,-1.089 -0.477,-0.718 -0.429,-1.024 -0.16,-0.11 -0.208,-0.025 -0.394,0.176 -1.806,1.447 -1.926,1.333 -0.602,0.263 -0.51,0.373 -0.881,0.309 -0.759,0.43 -1.67,0.695 -1.368,0.409 -0.741,0.13 -0.44,0.164 -0.758,0.117 -0.702,0.193 -1.312,0.163 -2.348,0.246 -0.63,0.015 -0.841,-0.002 -0.46,-0.086 -0.484,0.1 -0.009,0.003 -0.262,-0.017 -0.167,-0.168 0.044,-0.227 1.676,-1.626 0.834,-0.933 0.678,-0.784 0.482,-0.719 0.608,-0.56 0.824,-0.941 0.927,-1.153 1.103,-0.947 1.271,-1.969 0.054,-0.194 -0.025,-0.177 -0.112,-0.137 -1.45,-0.602 c -3.743,-1.424 -7.261,-4.709 -11.129,-5.984 l -0.904,-0.595 -0.143,-0.174 0.05,-0.19 z" fill="#181716" transform="matrix(1.33333 0 0 -1.33333 70.934 16.583)"/><path style="mix-blend-mode:multiply" d="M 0,0 C 0.017,0.02 0.042,0.048 0.04,0.07 0.018,0.298 0.206,0.441 0.268,0.634 0.317,0.787 0.463,0.769 0.579,0.79 0.678,0.808 0.749,0.753 0.795,0.664 0.904,0.453 0.943,0.235 0.863,0.004 0.837,-0.067 0.79,-0.142 0.796,-0.211 0.819,-0.472 0.679,-0.668 0.56,-0.876 0.448,-1.075 0.173,-1.103 0.021,-0.931 -0.108,-0.784 -0.13,-0.61 -0.116,-0.429 -0.131,-0.27 -0.11,-0.123 0,0 m -1.143,-4.135 c 0.151,-0.092 0.323,-0.149 0.486,-0.221 0.012,-0.005 0.029,-0.005 0.041,0 0.192,0.072 0.402,0.102 0.557,0.257 0.223,0.223 0.409,0.466 0.525,0.763 0.128,0.326 0.276,0.644 0.401,0.971 0.101,0.262 0.173,0.535 0.268,0.8 0.108,0.305 0.2,0.612 0.219,0.937 0.003,0.061 0.043,0.117 0.059,0.177 0.026,0.1 0.063,0.2 0.069,0.301 C 1.504,0.229 1.515,0.609 1.535,1.103 1.525,1.252 1.518,1.515 1.486,1.774 1.448,2.09 1.28,2.326 0.989,2.466 0.887,2.516 0.777,2.539 0.672,2.475 0.477,2.357 0.28,2.241 0.149,2.043 0.096,1.963 0.033,1.888 -0.031,1.816 -0.152,1.681 -0.238,1.526 -0.303,1.356 -0.38,1.151 -0.476,0.954 -0.561,0.752 -0.646,0.549 -0.727,0.346 -0.809,0.142 -0.819,0.116 -0.82,0.087 -0.827,0.061 -0.898,-0.173 -0.969,-0.408 -1.041,-0.641 -1.045,-0.654 -1.052,-0.668 -1.062,-0.677 -1.186,-0.787 -1.17,-0.934 -1.177,-1.08 -1.181,-1.201 -1.185,-1.336 -1.238,-1.439 -1.334,-1.626 -1.359,-1.815 -1.36,-2.02 c -0.002,-0.163 0.001,-0.342 -0.06,-0.489 -0.089,-0.214 -0.114,-0.426 -0.084,-0.647 0.026,-0.197 0.072,-0.392 0.11,-0.587 0.032,-0.164 0.112,-0.308 0.251,-0.392" fill="#181716" transform="matrix(1.33333 0 0 -1.33333 13.905 87.893)"/><path style="mix-blend-mode:multiply" d="m 0,0 c -0.131,-0.2 -0.35,-0.207 -0.498,-0.025 -0.194,0.241 -0.202,0.378 -0.062,0.66 0.047,0.095 0.075,0.208 0.08,0.314 0.009,0.213 0.139,0.357 0.275,0.488 0.088,0.084 0.22,0.073 0.334,0.027 C 0.237,1.42 0.243,1.319 0.243,1.219 V 0.869 H 0.237 C 0.235,0.834 0.229,0.798 0.236,0.765 0.294,0.468 0.151,0.231 0,0 M 0.722,2.896 C 0.71,2.93 0.666,2.96 0.631,2.975 0.305,3.111 -0.069,3.195 -0.299,2.802 -0.351,2.713 -0.42,2.634 -0.468,2.543 -0.691,2.117 -0.932,1.698 -1.12,1.257 -1.219,1.022 -1.275,0.765 -1.354,0.519 -1.446,0.233 -1.492,-0.066 -1.559,-0.359 c -0.011,-0.047 -0.024,-0.096 -0.05,-0.136 -0.09,-0.148 -0.098,-0.312 -0.107,-0.479 -0.011,-0.178 -0.027,-0.359 -0.066,-0.532 -0.086,-0.379 -0.148,-0.76 -0.125,-1.149 0.007,-0.122 0.039,-0.244 0.073,-0.362 0.031,-0.112 0.068,-0.228 0.127,-0.326 0.078,-0.126 0.165,-0.259 0.28,-0.349 0.09,-0.069 0.233,-0.117 0.344,-0.103 0.359,0.043 0.574,0.312 0.762,0.585 0.115,0.167 0.181,0.37 0.268,0.557 0.056,0.122 0.098,0.255 0.171,0.368 0.082,0.125 0.13,0.256 0.152,0.402 0.009,0.06 0.04,0.116 0.061,0.174 0.031,0.09 0.064,0.18 0.095,0.27 0.022,0.065 0.046,0.129 0.066,0.194 0.039,0.124 0.08,0.248 0.113,0.373 0.022,0.081 0.012,0.173 0.049,0.243 0.105,0.2 0.092,0.414 0.102,0.627 0.011,0.268 0.002,0.541 0.1,0.797 0.076,0.199 0.095,0.401 0.085,0.61 C 0.937,1.509 0.94,1.613 0.94,1.716 0.94,1.889 0.938,2.061 0.941,2.235 0.946,2.482 0.801,2.678 0.722,2.896" fill="#181716" transform="matrix(1.33333 0 0 -1.33333 23.163 90.73)"/></g><path style="mix-blend-mode:multiply" d="M 0,0 H 67.294 V 116.026 H 0 Z" fill="none" stroke="#181716" stroke-width="1.605" stroke-miterlimit="10" transform="matrix(1.33333 0 0 -1.33333 1.07 155.771)"/></svg>