<svg xmlns="http://www.w3.org/2000/svg" width="91.865" height="156.841"><path style="mix-blend-mode:multiply" d="M 121.956,544.457 H 189.25 V 660.482 H 121.956 Z" fill="#fff" transform="matrix(1.33333 0 0 -1.33333 -161.538 881.712)"/><g style="mix-blend-mode:multiply"><g style="mix-blend-mode:multiply"><path style="mix-blend-mode:multiply" d="m 0,0 -0.138,-0.028 -0.078,-0.193 v -5.913 -14.44 -14.735 l 0.137,-0.747 0.01,-13.841 -0.06,-4.19 -0.058,-3.881 -0.016,-0.633 0.03,-0.948 0.02,-1.336 -0.078,-0.948 0.093,-0.211 0.206,-0.094 2.662,0.01 h 14.441 14.441 14.439 14.441 14.441 l 1.778,-0.01 0.206,0.089 0.089,0.206 -0.011,9.146 0.035,14.705 -0.02,0.624 -0.015,5.005 v 14.44 l -0.023,14.712 -0.492,0.696 -0.3,0.261 -2.071,0.305 -2.035,0.624 -0.835,0.043 -0.559,-0.004 -0.202,-0.098 -0.133,-0.162 -0.123,-0.466 -0.009,-1.769 0.102,-0.801 -0.044,-0.157 -0.191,-0.069 -1.635,-0.132 -2.359,-0.01 -2.323,-0.329 -1.728,-0.629 -1.336,-0.137 -0.791,-0.099 -1.783,0.295 -1.169,0.011 -1.484,0.308 -0.555,-0.034 -0.148,-0.157 -0.078,-1.316 0.182,-0.56 -0.246,-1.219 0.055,-0.467 0.069,-1.128 -0.128,-0.773 0.029,-0.486 0.01,-0.417 -0.325,-0.86 -0.393,-0.491 -1.169,-2.343 0.025,-0.407 -0.128,-1.283 -0.304,-0.873 -0.379,-0.507 -1.969,-1.272 -0.914,-1.149 -0.372,-0.805 -0.659,-0.521 -1.527,-0.83 -0.993,-0.187 -1.095,-0.672 -2.093,-1.101 -0.191,0.035 -1.153,0.633 -1.814,0.545 -0.854,0.326 -1.022,0.137 -0.681,-0.08 -1.803,0.56 -1.135,0.634 -0.742,0.732 -0.535,0.643 -0.551,0.334 -0.918,0.275 -0.943,0.206 -0.831,0.364 -1.36,0.703 -0.608,0.57 -0.531,0.648 -0.628,0.55 -0.394,0.785 -0.61,0.865 -0.249,0.634 -0.816,1.247 -0.442,0.443 -0.565,0.319 -0.761,0.417 -0.256,0.628 -0.294,0.305 -0.403,0.117 -2.137,-0.309 -2.263,0.094 -1.268,0.206 -1.179,0.295 -0.765,0.118 -0.62,0.265 -1.714,0.643 -0.737,0.443 L 8.895,-9.401 6.39,-8.958 5.913,-8.845 5.707,-8.463 5.26,-6.846 5.181,-5.22 4.916,-3.653 4.616,-3.07 4.41,-2.391 3.874,-1.748 2.966,-1.183 1.965,-0.701 1.252,-0.775 0.922,-0.588 0.006,0 Z" fill="#fc0" transform="matrix(1.33333 0 0 -1.33333 -5.429 79.594)"/></g><g style="mix-blend-mode:multiply"><path style="mix-blend-mode:multiply" d="M 0,0 -0.618,-0.265 -1.92,-1.026 -2.593,-1.237 -3.856,-2.333 -4.504,-3.158 -5.005,-4.131 -5.354,-5.549 -5.54,-7.421 -5.545,-8.895 -5.649,-9.085 -6.1,-9.223 -7.652,-9.44 l -1.243,-0.525 -1.611,-1.041 -1.066,-1.008 -0.417,-0.098 -0.766,0.129 -0.766,-0.138 -1.617,-0.738 -0.205,0.03 -0.831,0.653 -0.669,0.511 -0.892,0.58 -1.269,0.501 -1.261,0.212 -1.749,-0.04 -0.388,-0.015 -0.339,0.226 -0.585,0.894 -0.61,0.864 -1.364,0.992 -2.102,0.845 -0.972,0.207 -1.421,-0.054 -1.129,-0.345 -0.875,-0.304 -0.711,-0.172 -0.954,-0.521 -0.8,-0.084 -2.338,-0.019 -0.614,-0.27 -1.071,-0.697 -0.742,-0.437 -2.312,-0.929 -1.529,-0.535 -0.5,-0.383 -0.835,-0.933 -0.29,-0.595 -0.771,-1.881 -1.14,-1.513 -0.594,-1.174 -0.417,-1.645 -0.265,-1.503 0.033,-3.218 0.177,-1.238 -0.059,-1.591 -0.014,-1.175 -0.045,-0.652 0.084,-1.095 0.324,-0.855 0.148,-0.147 0.526,-0.063 1.423,-0.032 0.949,-0.244 0.825,-0.063 0.673,-0.212 1.021,-0.157 0.717,-0.168 1.916,-0.441 0.452,-0.138 0.747,-0.137 1.615,-0.447 0.727,-0.158 1.317,-0.157 1.748,-0.029 1.055,-0.098 0.448,-0.158 0.683,-0.496 0.604,-0.279 0.958,-0.812 0.844,-0.923 0.831,-0.938 0.456,-0.722 0.541,-0.638 0.638,-0.541 1.159,-0.903 1.282,-0.781 1.729,-1.219 0.733,-0.446 2.106,-1.43 1.224,-0.544 1.763,-0.595 1.532,-0.236 0.83,-0.054 0.663,-0.221 0.516,-0.074 0.658,-0.226 0.711,-0.172 1.008,-0.466 0.722,-0.462 0.491,-0.093 0.442,0.153 0.993,0.78 0.334,0.256 1.98,0.673 2.469,0.77 0.536,0.348 1.738,1.8 0.659,0.815 0.697,0.481 0.678,0.795 0.722,1.047 0.864,1.787 0.472,1.887 1.36,3.059 0.767,3.064 0.025,0.862 0.064,0.244 0.147,0.138 0.403,0.011 1.154,-0.11 1.754,0.041 1.55,0.2 3.921,1.09 0.913,0.267 1.121,0.058 0.77,0.127 0.909,-0.043 1.247,0.112 1.524,-0.207 0.176,0.085 0.109,0.201 0.009,0.566 -0.442,1.634 -0.285,0.895 -0.162,1.017 0.034,1.153 0.551,2.398 -0.016,2.323 -0.481,1.582 -1.07,1.581 -0.32,0.87 0.01,0.53 0.079,0.452 -0.197,1.257 -0.348,1.126 -0.418,0.76 -1.095,1.263 -3.684,2.8 -2.495,1.925 -1.577,0.781 L 9.022,-0.24 5.84,-0.245 5.368,-0.338 4.44,-0.107 3.546,0.177 2.712,0.24 Z" fill="#3a3a39" transform="matrix(1.33333 0 0 -1.33333 62.568 53.895)"/></g></g><path style="mix-blend-mode:multiply" d="M 0,0 0.087,0.968 C 1.068,9.161 11.083,13.314 17.476,7.834 L 17.822,7.431 17.808,7.419 15.203,7.375 14.166,7.529 12.639,7.469 11.504,7.533 10.7,7.454 10.286,7.221 10.173,7.004 10.117,6.432 10.205,6.179 10.374,6.026 10.63,5.948 l 2.655,-0.012 1.644,-0.117 2.357,-0.043 0.499,0.112 0.16,0.161 0.093,0.237 0.041,0.834 0.057,0.057 0.12,-0.032 0.329,-0.26 C 22.791,2.333 22.268,-5.136 17.337,-8.947 L 16.101,-9.764 15.135,-10.26 C 9.166,-12.843 2.423,-9.85 0.48,-3.616 l -0.539,2.408 0.084,0.785 z M 22.809,2.36 22.496,3.53 21.739,5.444 C 15.108,16.811 -1.629,12.738 -1.812,-0.65 l 0.093,-0.787 0.06,-0.833 c 2.474,-14.47 22.858,-14.465 24.848,0.629 l 0.034,1.458 -0.159,1.321 z" fill="#181716" transform="matrix(1.33333 0 0 -1.33333 31.385 132.11)"/><path style="mix-blend-mode:multiply" d="m 0,0 -0.886,0.021 -0.752,0.142 -0.01,0.002 -0.785,-0.084 -2.742,0.094 -0.248,-0.101 -0.137,-0.19 -0.109,-0.505 -0.003,-0.015 0.143,-0.479 0.381,-0.267 1.424,-0.053 0.163,-0.089 0.086,-0.162 0.011,-4.983 -0.059,-2.117 -0.074,-0.689 -0.025,-1.772 0.207,-0.735 0.474,-0.193 0.515,0.035 0.215,0.128 0.137,0.206 0.058,0.272 0.035,3.273 -0.04,2.028 0.124,0.769 0.087,2.678 0.112,1.221 0.114,0.114 0.837,0.024 0.835,0.054 0.211,0.128 0.132,0.204 -0.035,0.451 -0.185,0.476 z" fill="#181716" transform="matrix(1.33333 0 0 -1.33333 43.418 126.228)"/><path style="mix-blend-mode:multiply" d="M 0,0 -0.142,0.762 0,2.359 -0.142,3.119 -0.085,3.639 -0.12,4.035 -0.26,4.206 -0.486,4.326 -1.096,4.363 -1.334,4.25 -1.451,4.041 -1.598,2.96 -1.47,2.193 l 0.035,-3.505 -0.083,-0.794 0.079,-0.673 -0.035,-0.864 0.049,-1.788 0.12,-0.247 0.218,-0.099 0.493,0.076 0.444,0.211 0.112,0.209 0.047,0.284 0.004,3.55 -0.106,0.743 z" fill="#181716" transform="matrix(1.33333 0 0 -1.33333 37.968 134.746)"/><path style="mix-blend-mode:multiply" d="m 0,0 0.002,0.009 -0.065,0.539 -0.025,1.019 -0.074,1.234 0.123,0.782 -0.039,0.441 0.035,0.426 0.048,2.063 -0.113,0.5 L -0.28,7.185 -0.788,7.306 -0.799,7.308 -1.371,7.236 -1.545,7.062 -1.616,6.789 -1.511,5.984 -1.443,5.172 -1.591,4.113 -1.467,2.797 -1.591,1.471 -1.542,0.659 -1.585,0.002 -1.61,-1.781 l 0.129,-0.792 0.224,-0.117 0.3,-0.042 0.008,-10e-4 0.539,0.08 0.019,0.003 0.171,0.16 0.103,0.222 0.124,0.797 -0.138,0.741 z" fill="#181716" transform="matrix(1.33333 0 0 -1.33333 43.683 138.666)"/><path style="mix-blend-mode:multiply" d="m 0,0 -0.091,-0.148 -0.423,-0.135 -0.496,0.049 -0.46,0.649 0.162,0.979 0.081,0.174 0.164,0.087 h 0.825 L -0.072,1.568 0.015,1.406 Z m -1.326,-2.258 0.07,0.201 0.106,0.095 0.918,-0.059 0.219,-0.069 0.106,-0.121 0.001,-0.388 -0.062,-0.521 -0.076,-0.181 -0.167,-0.079 -0.835,0.019 -0.299,0.525 z M 1.655,-2.16 1.75,-2.029 C 3.554,-1.136 3.862,-3.67 2.027,-3.36 l -0.193,0.062 -0.179,0.53 z M 3.046,-0.203 2.878,-0.284 2.048,-0.256 1.64,0.15 1.616,1.287 1.669,1.501 1.786,1.611 2.852,1.645 3.04,1.58 3.169,1.45 3.281,0.992 3.127,-0.029 Z M 4.568,2.955 4.354,3.089 3.185,3.108 2.148,3.262 0.314,3.212 -1.089,3.256 -1.85,3.37 -2.558,3.241 -2.955,2.99 -3.046,2.76 -3.08,-4.325 l 0.221,-0.734 0.574,-0.074 0.01,-0.001 0.771,0.138 4.688,0.03 1.147,0.049 0.191,0.128 0.135,0.195 0.063,0.285 -0.038,1.201 0.034,5.571 -0.14,0.47 z" fill="#181716" transform="matrix(1.33333 0 0 -1.33333 49.178 135.262)"/><path style="mix-blend-mode:multiply" d="M 0,0 0.027,0.097 0.201,0.174 2.493,0.222 4.029,0.18 4.253,0.124 4.353,0.032 4.346,-0.089 4.242,-0.21 3.76,-0.303 2.281,-0.275 1.633,-0.21 H 1.629 L 0.564,-0.244 0.099,-0.109 Z m -1.337,-1.778 0.227,-0.074 0.448,0.065 0.705,-0.082 0.008,-0.002 0.472,0.088 0.697,-0.091 0.011,-10e-4 0.481,0.106 0.711,-0.11 0.01,-10e-4 0.755,0.111 2.03,-0.277 0.008,-0.001 0.56,0.067 0.174,0.174 0.06,0.272 L 6.024,0.847 5.958,1.391 5.79,1.571 5.082,1.767 0.353,1.775 -1.077,1.731 -1.475,1.5 -1.49,1.491 -1.602,1.265 l -0.159,-0.74 -0.004,-1.459 0.13,-0.478 z" fill="#181716" transform="matrix(1.33333 0 0 -1.33333 47.25 127.386)"/><path style="mix-blend-mode:multiply" d="m 0,0 0.272,-0.066 1.771,0.01 1.451,-0.039 h 0.64 L 5.009,-0.065 5.56,-0.003 5.74,0.175 5.811,0.449 5.737,1.012 5.558,1.188 4.547,1.387 4.538,1.39 3.77,1.314 3.349,1.354 1.371,1.443 0.178,1.34 -0.047,1.206 -0.237,0.757 -0.243,0.742 -0.18,0.179 Z" fill="#181716" transform="matrix(1.33333 0 0 -1.33333 35.957 124.127)"/><g style="mix-blend-mode:multiply"><path style="mix-blend-mode:multiply" d="m 0,0 -0.294,-0.889 -0.004,-0.012 0.052,-0.842 0.227,-0.948 -0.028,-0.103 -0.046,-0.002 c -2.042,2.545 -4.985,4.017 -7.323,6.215 l -10e-4,0.003 0.376,0.052 1.007,-0.181 1.485,-0.558 1.06,-0.722 0.798,-0.377 0.413,-0.216 0.265,-0.007 0.144,0.143 -0.253,0.343 -1.927,1.386 -1.899,0.757 -1.311,0.461 -0.416,0.014 -0.69,-0.196 -0.493,0.047 -0.953,0.5 -0.68,0.505 -0.096,0.138 v 0.144 c 1.217,1.507 6.372,0.042 7.601,-1.104 L -2.732,4.525 -2.577,4.679 -2.65,4.9 -3.26,5.247 -5.655,6.4 l -1.557,0.519 -1.562,0.21 -0.011,0.002 -1.97,-0.435 -0.802,-0.388 -0.352,-0.186 -0.392,0.096 -1.331,0.737 -0.154,0.122 -0.054,0.132 0.041,0.135 0.34,0.234 1.29,0.456 1.468,0.289 1.161,0.031 0.476,0.111 1.801,-0.223 0.978,-0.208 0.777,-0.097 0.118,0.119 -0.342,0.278 -1.066,0.464 -0.963,0.227 -1.108,0.069 -0.79,0.098 -0.008,0.002 -1.033,-0.163 -0.879,-0.022 -1.855,-0.521 -1.339,-0.728 -0.214,-0.054 -0.454,0.091 -1.615,0.752 -0.113,0.121 -0.02,0.102 0.21,0.268 1.126,0.636 1.181,0.57 1.655,0.401 1.034,0.148 0.977,0.191 0.853,-0.039 1.512,-0.266 1.135,-0.027 1.455,-0.371 h 0.237 l 0.143,0.144 -0.107,0.199 -1.608,0.536 -2.222,0.428 -0.341,0.145 -0.515,-0.102 -1.133,0.054 -2.77,-0.471 -0.99,-0.507 -2.17,-1.07 -0.612,-0.289 -0.339,-0.227 -0.379,-0.009 -1.285,0.206 -0.445,0.08 -0.016,0.081 0.474,0.668 1.767,1.757 1.347,0.704 1.124,0.628 1.102,0.362 0.773,0.119 1.147,0.318 0.807,0.126 0.22,0.082 0.077,0.163 -0.705,0.186 -0.012,0.003 -2.037,-0.29 -1.98,-0.684 -1.653,-0.719 -0.368,-0.187 0.027,0.222 0.407,0.776 0.906,1.152 0.443,0.494 v 0.217 l -0.404,-0.084 -0.628,-0.31 -1.038,-1.076 -0.748,-1.322 -0.539,-1.21 -0.508,-0.656 -0.47,-0.431 -0.61,-0.844 -0.459,-0.402 -0.68,-0.132 -0.115,0.038 -0.187,0.334 c 0.029,3.437 -0.628,4.512 2.642,7.182 l 1.57,0.466 1.282,0.195 1.791,-0.274 1.75,-0.341 c 3.787,0.704 5.489,0.207 8.294,-2.525 l 0.535,-0.643 0.653,-0.82 C 0.842,8.604 -2.381,7.797 0.165,4.253 L 0.529,3.453 0.582,2.349 0.305,1.165 Z m -15.464,-3.029 -0.869,1.476 -0.511,2.139 -0.389,1.104 -0.579,0.905 -0.95,1.116 -0.714,0.768 -0.504,0.399 -0.067,0.154 0.04,0.113 0.137,0.055 1.207,0.039 1.311,-0.161 1.435,-0.31 0.116,-0.123 0.087,-1.071 0.291,-2.666 0.371,-1.407 0.507,-1.267 0.698,-1.379 0.74,-1.035 0.977,-1.136 0.142,0.141 -0.032,0.235 -0.288,0.357 -0.937,1.406 -0.542,1.216 -0.495,1.58 -0.013,0.475 0.059,0.059 0.088,-0.043 c 1.669,-2.348 2.833,-3.195 5.28,-4.84 l 0.204,0.023 0.008,0.204 -0.707,0.525 -1.041,1.029 -0.64,0.533 -1.049,0.999 -1.023,1.327 -0.881,1.468 -0.484,0.979 -0.134,0.443 -0.014,1.456 0.082,0.176 0.166,0.069 0.227,-0.016 3.624,-1.111 0.313,-0.24 0.537,-1.221 0.67,-1.101 0.47,-0.718 1.073,-1.289 1.405,-1.562 0.679,-0.457 0.041,-0.028 0.144,0.142 -0.163,0.412 c -1.453,1.154 -2.754,3.178 -3.337,4.927 l 0.03,0.108 0.108,0.029 c 2.746,-1.031 7.139,-4.359 8.913,-6.924 l 0.006,-0.085 -0.113,-0.091 -1.575,-0.48 -1.119,-0.054 -1.425,0.054 -1.34,0.069 -0.013,10e-4 -2.175,-0.795 -0.884,-0.277 -1.103,-0.079 c -1.752,-0.039 -3.713,-0.602 -5.276,0.544 l -0.091,0.176 -0.249,1.494 z m -14.221,2.068 0.09,-1.392 c 0.458,-5.162 0.903,-10.365 1.305,-15.522 l -0.025,-0.173 -0.29,1.261 -0.143,0.744 c -0.712,5.262 -2.314,10.318 -3.386,15.484 l -0.528,1.527 -0.337,1.44 -0.461,1.299 0.055,0.434 0.25,0.311 0.811,0.646 0.443,0.135 0.479,-0.055 0.448,-0.402 0.516,-0.93 0.293,-0.856 0.055,-0.834 0.186,-1.003 z m 7.669,6.114 -0.073,-0.011 -0.685,0.203 -1.203,0.006 -1.726,-0.353 -1.026,-0.461 -1.062,-0.689 -0.377,-0.019 -0.673,-0.093 -0.54,0.005 -0.164,0.09 -0.436,1.01 -0.079,0.424 c 0.657,2.448 4.461,4.401 6.557,1.668 l 1.148,-1.195 0.346,-0.527 z m -0.48,3.322 2.025,-0.032 2.398,-0.538 2.117,-0.816 0.463,-0.406 0.967,-0.234 1.983,-0.955 0.544,-0.346 0.572,-0.301 0.29,-0.263 -0.545,0.053 -0.924,0.272 -0.485,0.096 -0.901,0.287 -2.75,0.497 -1.324,0.152 -2.513,0.148 -0.853,0.061 -1.12,1.135 -0.658,0.798 -0.019,0.096 0.249,0.208 z m -27.407,-15.07 0.218,0.944 0.378,0.474 1.795,1.728 1.931,1.297 1.422,0.63 1.36,0.419 0.516,-0.027 0.085,-0.085 -0.019,-0.141 -0.908,-1.16 -1.164,-1.203 c -1.368,-1.84 -2.947,-3.404 -3.922,-5.504 l -0.413,-0.476 -0.266,-0.643 0.127,-0.138 0.324,0.302 1.862,2.572 0.704,0.774 c 1.327,1.52 2.738,3.559 4.405,4.71 l 0.687,0.5 1.381,1.264 c 2.402,1.474 2.555,2.684 5.235,3.197 l 0.125,-0.08 0.711,-1.931 0.024,-0.53 -0.172,-0.395 -1.618,-1.619 -0.759,-1.016 -0.578,-0.892 -1.087,-1.547 -0.3,-0.271 -0.863,-0.308 -1.615,-0.757 c -2.009,-0.978 -3.316,-2.794 -4.819,-4.336 l -0.567,-0.628 -0.354,-0.57 -0.054,-0.223 0.123,-0.123 1.304,1.107 c 1.525,1.731 3.21,3.505 5.563,4.108 l 0.094,-0.02 0.017,-0.085 -0.527,-1.232 -1.175,-2.366 -0.78,-1.887 -0.159,-0.712 -0.422,-1.052 -0.344,-0.874 -0.009,-0.254 0.154,-0.155 0.212,0.083 0.219,0.448 0.672,1.682 1.274,2.843 0.435,0.75 0.286,0.59 0.891,1.472 0.307,0.569 2.598,3.874 0.829,0.937 1.121,1.233 0.347,0.148 0.119,-0.028 0.216,-0.31 0.74,-3.349 c -2.408,-4.272 -4.265,-8.213 -5.564,-13.008 l -0.006,-0.02 0.071,-0.219 0.206,-0.037 0.186,0.146 0.721,1.705 0.278,0.893 1.575,3.726 0.559,1.205 1.383,2.737 0.682,1.084 0.122,0.051 0.124,-0.046 0.21,-0.357 0.341,-1.418 0.308,-1.759 -0.067,-0.515 -0.713,-1.34 -0.537,-1.235 -0.646,-1.722 -0.229,-0.942 -0.532,-1.537 -0.825,-3.302 -0.172,-0.723 -0.108,-0.486 -0.004,-0.017 0.084,-0.238 0.204,-0.009 0.209,0.452 0.402,1.675 0.242,0.942 0.088,0.482 0.557,1.22 0.425,1.334 1.172,2.641 0.502,0.677 0.13,0.509 0.093,0.108 0.075,-0.018 0.147,-0.391 0.551,-2.996 1.751,-8.881 -0.06,-0.409 -0.091,-0.018 -1.376,0.383 -0.643,0.24 -0.999,0.088 -0.687,-0.001 -2.267,0.392 -0.718,0.154 -0.625,0.246 -1.106,0.65 -0.675,0.781 -0.525,0.64 -0.318,0.564 -0.211,0.148 -0.84,0.055 -0.994,0.167 -1.056,0.418 -0.817,0.342 -1.705,1.224 -0.693,0.77 -0.731,1.035 -0.718,1.054 -0.362,0.503 -0.345,0.851 -0.604,0.869 -0.409,0.221 -0.725,0.159 -0.12,0.129 -0.515,1.523 -0.344,1.428 -0.714,2.528 z m -1.325,5.747 -2.435,-0.523 c -2.634,-0.939 -6.436,-2.347 -8.29,-4.399 l -0.586,-0.4 0.559,1.012 0.594,0.868 c 1.511,1.876 3.504,3.282 5.592,4.398 l 0.772,0.395 1.749,0.602 1.629,0.427 2.335,0.317 0.804,-0.082 0.177,-0.077 0.077,-0.102 -0.085,-0.374 -0.584,-0.901 -0.654,-1.077 -0.457,-0.088 z m 16.474,4.866 -1.028,-0.435 -1.12,-0.957 -1.074,-0.701 -1.817,-1.415 -0.726,-0.435 -2.323,-0.331 -0.651,-0.237 -2.069,-0.896 -1.758,-1.196 -0.968,-0.811 -0.854,-0.912 -0.59,-0.59 -0.329,-0.91 -0.043,-0.051 0.146,1.524 0.531,1.811 1.533,2.876 0.734,1.019 0.456,0.447 0.344,0.528 2.422,2.001 0.671,0.79 0.627,0.548 0.967,0.783 1.369,0.372 1.419,-0.02 1.132,-0.318 0.999,-0.462 1.053,-0.702 0.404,-0.473 0.57,-0.612 0.038,-0.128 z m -13.838,6.511 1.701,-0.349 1.033,-0.429 1.332,-1 0.415,-0.453 0.461,-0.727 0.388,-0.485 0.083,-0.457 -0.166,-0.391 -0.558,-0.612 -0.968,-1.084 -0.703,-0.47 -0.176,-0.024 -0.151,0.067 -0.205,0.373 -0.307,0.584 -0.442,0.736 -1.65,1.623 -0.654,0.517 -0.457,0.427 -1.602,0.783 -0.576,0.266 -0.007,0.047 0.7,0.374 1.711,0.635 z m -16.359,-18.953 -0.168,0.359 -0.039,0.845 -0.122,0.754 -0.027,0.873 -0.185,0.669 -0.024,0.462 -0.073,0.62 0.024,1.737 0.034,0.65 0.103,0.953 c 0.988,3.166 1.829,1.874 2.417,4.644 l 0.61,1.438 0.72,0.72 0.993,0.454 1.622,0.457 0.598,0.3 1.002,0.748 0.464,0.111 0.187,0.144 0.242,0.358 0.33,0.228 0.657,0.206 c 3.872,0.279 3.453,-0.184 6.702,-2.553 l 0.958,-1.093 0.704,-1.052 -0.01,-0.066 -0.087,-0.018 c -2.514,1.125 -4.263,1.733 -6.998,2.164 l -0.862,-0.07 0.062,-0.184 0.196,-0.12 0.967,-0.254 0.783,-0.108 1.391,-0.364 1.662,-0.691 1.763,-0.881 1.246,-0.815 0.075,-0.165 -0.016,-0.162 -0.091,-0.08 -1.289,0.062 -0.782,-0.117 -2.288,-0.371 -1.662,-0.405 -0.528,0.019 -0.872,0.3 -2.514,1.022 -1.257,0.524 -1.448,0.335 -1.173,0.006 -0.494,-0.149 -0.072,-0.178 0.171,-0.137 1.799,-0.295 1.756,-0.591 1.003,-0.472 1.421,-0.64 0.33,-0.215 0.014,-0.111 -0.084,-0.133 -0.364,-0.233 -0.585,-0.151 c -2.501,0.493 -5.337,0.93 -7.673,-0.434 l -0.327,-0.344 0.016,-0.202 0.192,-0.015 0.411,0.201 c 1.898,0.785 4.043,0.764 5.988,0.167 l 0.033,-0.068 -0.053,-0.104 c -2.218,-1.67 -5.032,-4.072 -6.009,-6.713 l -0.384,-0.782 -1.001,-1.01 z m 12.91,-3.705 -1.094,0.087 c -3.89,0.466 -5.524,1.757 -8.893,2.898 l -1.999,0.254 v 0.037 l 0.936,1.092 c 3.1,2.508 4.525,3.758 8.35,5.183 l 0.898,0.3 0.212,-0.029 0.116,-0.117 0.013,-0.186 -0.411,-0.787 -0.279,-0.589 -0.878,-1.182 -0.645,-0.812 -1.739,-1.504 -0.962,-0.843 -0.017,-0.015 -0.044,-0.231 0.145,-0.143 0.204,0.045 1.842,1.476 0.839,0.651 1.095,1.274 0.475,0.7 0.157,0.137 0.119,0.032 0.075,-0.075 0.019,-2.004 -0.737,-2.778 -0.452,-0.73 -0.26,-0.679 0.006,-0.252 0.146,-0.147 0.301,0.332 1.214,2.048 0.469,1.622 0.183,1.009 -0.011,2.064 -0.145,0.743 0.061,0.506 0.252,0.608 0.297,0.251 0.676,0.182 1.146,-0.015 0.164,-0.081 0.05,-0.12 -0.22,-0.622 -0.131,-0.747 -0.292,-0.902 -0.143,-1.333 -0.063,-0.826 -10e-4,-0.007 0.431,-2.244 0.873,-2.941 -0.04,-0.131 -0.367,-0.176 -1.438,-0.332 z m 24.719,-8.239 -0.122,0.752 -0.026,2.341 -0.122,0.75 0.034,1.145 0.079,0.08 0.108,-0.033 0.972,-1.376 0.701,-1.652 0.761,-2.178 0.312,-1.45 0.082,-0.57 0.167,-0.159 0.149,0.148 -0.001,1.464 -0.208,1.274 -0.362,1.403 -0.241,0.954 -0.685,1.571 0.043,0.043 0.422,-0.054 1.001,-0.473 0.533,-0.339 0.624,-0.534 0.752,-1.041 0.194,-0.126 0.192,0.063 0.083,0.205 -0.149,0.428 -1.395,1.615 -0.648,0.53 -1.259,0.548 -0.953,0.208 -0.478,0.382 -0.615,0.566 -0.298,0.26 -0.207,1.235 -0.059,0.829 -0.093,0.782 0.024,1.724 0.119,0.117 0.522,0.033 0.71,-0.17 0.777,-0.387 1.537,-1.096 c 1.7,-1.625 2.639,-3.825 3.386,-6.007 l 0.134,-0.496 0.113,-0.201 0.182,-0.139 0.136,0.135 -0.286,1.194 -1.232,3.499 -0.896,1.484 -0.076,0.178 0.234,-0.03 c 1.525,-0.559 2.508,-1.81 3.493,-3.025 l 0.215,-0.019 -0.08,0.409 -1.433,2.168 -1.515,1.187 -0.824,0.366 -1.588,0.457 -0.756,0.414 -0.715,0.484 -1.284,0.492 -0.91,0.251 -0.175,0.094 -0.088,0.164 -0.161,1.589 -0.148,1.918 -0.054,1.116 -0.117,0.803 0.014,0.284 0.073,0.174 0.172,0.073 1.115,-0.058 1.847,-0.778 1.273,-0.774 1.236,-1.126 0.634,-0.526 0.514,-0.671 c 1.411,-1.419 2.657,-4.36 3.362,-6.039 l 0.354,-0.864 0.171,-0.172 0.205,0.014 0.054,0.218 -0.641,2.063 -1.133,2.41 -1.191,2.057 -0.972,1.417 -0.162,0.184 0.462,-0.208 c 1.289,-0.622 3.456,-2.64 4.369,-3.611 l 0.205,-0.094 0.132,0.131 -0.162,0.416 -1.354,1.656 c -1.715,1.353 -2.978,2.995 -5.345,3.227 l -0.867,0.595 -1.332,0.746 -2.21,0.755 -0.783,0.077 -0.117,0.116 -0.194,1.55 -0.085,0.806 -0.138,0.701 0.037,0.1 0.411,0.103 c 4.549,-0.009 7.916,-3.836 10.77,-6.895 l 0.191,-0.12 0.126,0.126 -0.156,0.415 -0.676,0.845 -0.879,1.195 -1.719,1.827 -1.134,0.944 -0.544,0.32 -0.631,0.569 -1.9,1.054 -0.81,0.356 -0.044,0.129 0.065,0.141 1.547,0.801 0.679,0.194 0.85,-0.003 c 3.209,-0.065 5.723,-2.97 5.908,-6.072 l 0.776,-1.606 0.733,-1.607 0.334,-1.729 0.149,-0.744 0.434,-1.321 -0.003,-1.986 -0.505,-2.136 -1.023,-1.621 -0.421,-0.77 -0.226,-0.659 -0.035,-0.856 -0.274,-1.189 -0.539,-0.906 -0.67,-0.788 -0.986,-0.771 -0.545,-0.34 -0.395,-0.533 -0.418,-0.749 -1.032,-0.996 -0.916,-0.539 -1.131,-0.353 -2.249,-0.99 -0.661,-0.548 -0.185,-0.075 -0.155,0.008 -0.101,0.105 -0.065,0.506 0.01,0.896 z M 1.993,-5.544 1.381,-3.741 0.734,-1.456 0.696,-0.605 0.82,-0.152 c 0.934,2.629 1.261,3.813 -0.317,6.18 l -0.404,0.463 -0.126,0.434 -0.029,1.436 -0.279,0.644 -1.301,2.247 -0.654,0.821 -0.89,0.612 -0.527,0.344 -1.521,1.706 -0.532,0.661 -0.638,0.557 -0.543,0.328 -0.492,0.41 -1.369,0.706 -1.316,0.452 -0.01,0.004 h -0.852 l -2.367,-0.281 -0.851,0.038 -1.965,0.405 c -2.788,0.192 -5.526,-0.043 -6.828,-2.951 l -0.393,-0.491 -0.558,-1.548 -0.236,-1.536 -10e-4,-0.01 0.289,-1.777 -0.119,-0.731 -0.091,-0.158 -0.13,-0.048 -1.065,0.389 -0.01,0.005 -0.855,-0.002 -1.224,-0.289 -0.549,-0.105 -0.58,-0.428 -0.335,-0.365 -0.803,-0.686 -0.909,-1.122 -0.462,-0.088 -0.894,0.01 -0.471,-0.14 -1.093,-0.71 -0.462,-0.396 -0.119,-0.013 -0.26,0.259 c -1.799,2.095 -4.125,3.36 -6.901,2.328 l -0.902,-0.266 -0.184,0.021 -0.146,0.101 -0.192,0.377 -0.24,0.644 -1.783,1.789 -1.169,0.639 -1.577,0.499 -0.997,0.133 -1.045,-0.118 -0.564,0.044 -0.291,-0.023 c -0.167,-0.041 -0.451,-0.114 -0.491,-0.141 l -0.413,-0.205 -0.512,-0.361 -0.418,-0.159 -1.492,-0.083 -1.133,0.064 -0.825,-0.059 -0.913,-0.304 L -57.423,9.426 -58.157,8.7 -59,8.09 -60.259,7.878 -61.56,7.412 l -0.823,-0.698 -0.8,-0.967 -1.104,-2.734 -0.483,-0.69 -0.919,-1.145 -0.45,-1.064 -0.33,-2.042 0.036,-1.75 0.122,-0.757 0.054,-0.834 0.24,-1.814 0.03,-1.164 0.064,-0.627 -0.089,-0.84 -0.001,-0.017 0.12,-0.241 0.232,-0.116 1.021,0.144 1.438,-0.032 1.204,-0.259 0.651,-0.242 0.716,-0.154 1.635,-0.728 2.18,-0.773 1.635,-0.439 2.625,-0.33 2.07,0.016 0.75,0.156 0.214,-0.039 0.124,-0.128 0.148,-0.429 0.304,-0.323 1.089,-0.41 0.479,-0.374 0.937,-1.71 1.617,-2.227 0.901,-0.88 1.366,-1.009 1.818,-0.842 1.315,-0.458 0.683,-0.189 0.336,-0.224 0.838,-1.209 0.703,-0.521 1.418,-0.663 2.193,-0.462 3.05,-0.479 1.402,-0.357 0.555,-0.306 0.516,-0.393 0.388,0.042 0.577,0.363 0.47,0.394 1.368,0.692 2.081,0.879 0.703,0.461 0.629,0.255 0.953,0.86 0.869,1.183 1.999,1.526 0.838,1.269 0.436,1.053 0.382,1.964 0.555,0.903 0.667,1.116 0.554,1.525 0.353,2.274 0.002,0.009 -0.09,0.705 0.015,0.394 -0.197,0.689 -0.01,0.563 0.082,0.182 0.164,0.067 2.057,-0.309 1.753,0.036 2.014,0.357 2.147,0.786 3.795,0.036 0.756,0.122 0.833,0.055 1.203,0.145 0.961,-0.191 0.257,0.016 0.163,0.163 z" fill="#181716" transform="matrix(1.33333 0 0 -1.33333 88.516 78.715)"/><path style="mix-blend-mode:multiply" d="m 0,0 c 0.111,0.145 0.225,0.289 0.347,0.423 0.142,0.155 0.289,0.305 0.445,0.445 0.131,0.117 0.276,0.218 0.415,0.325 0.092,0.072 0.182,0.151 0.28,0.215 0.301,0.195 0.591,0.413 0.912,0.57 0.288,0.14 0.56,0.299 0.83,0.468 0.16,0.1 0.339,0.168 0.513,0.241 C 4.001,2.795 4.26,2.9 4.522,2.996 4.742,3.077 4.974,3.131 5.19,3.22 5.388,3.302 5.587,3.364 5.798,3.408 5.973,3.445 6.138,3.541 6.3,3.628 6.402,3.682 6.503,3.712 6.617,3.711 6.809,3.71 6.997,3.725 7.169,3.825 7.202,3.843 7.243,3.858 7.28,3.857 7.534,3.849 7.788,3.84 8.041,3.823 8.113,3.817 8.186,3.783 8.229,3.868 8.272,3.953 8.233,4.022 8.168,4.076 8.004,4.212 7.814,4.314 7.606,4.338 7.335,4.371 7.058,4.371 6.784,4.367 6.669,4.366 6.556,4.318 6.442,4.291 6.303,4.259 6.165,4.224 6.024,4.197 5.974,4.187 5.917,4.204 5.868,4.191 5.643,4.128 5.48,4.217 5.329,4.378 5.182,4.536 5.017,4.677 4.862,4.826 4.558,5.119 4.197,5.307 3.79,5.407 3.726,5.422 3.654,5.436 3.646,5.517 3.637,5.603 3.7,5.653 3.771,5.671 3.904,5.702 4.04,5.732 4.175,5.739 4.372,5.751 4.561,5.768 4.751,5.837 4.895,5.889 5.061,5.876 5.216,5.901 5.357,5.923 5.495,5.959 5.635,5.988 5.73,6.008 5.824,6.035 5.921,6.046 6.037,6.059 6.156,6.062 6.274,6.065 6.358,6.067 6.449,6.081 6.528,6.058 6.837,5.967 7.152,6.017 7.465,6.006 7.55,6.004 7.638,6.019 7.719,6.003 8.042,5.939 8.368,5.922 8.691,5.884 8.916,5.857 9.126,5.716 9.366,5.72 9.804,5.547 10.243,5.375 10.597,5.049 10.688,4.965 10.78,4.876 10.846,4.773 11.042,4.473 11.226,4.165 11.409,3.857 11.435,3.814 11.44,3.758 11.447,3.707 11.453,3.669 11.44,3.625 11.451,3.59 11.571,3.23 11.515,2.869 11.471,2.507 11.461,2.424 11.459,2.326 11.415,2.263 11.325,2.139 11.303,2.004 11.287,1.859 11.278,1.782 11.247,1.708 11.227,1.633 11.183,1.469 11.265,1.331 11.435,1.332 11.612,1.333 11.714,1.255 11.792,1.109 11.859,0.983 11.941,0.864 12.009,0.738 12.094,0.576 12.09,0.575 11.925,0.497 11.792,0.435 11.732,0.311 11.769,0.178 11.803,0.055 11.88,0.006 12.004,0.031 c 0.031,0.006 0.066,0.015 0.092,0.032 0.142,0.1 0.299,0.116 0.467,0.114 0.085,-0.001 0.171,0.049 0.256,0.077 0.104,0.036 0.205,0.088 0.311,0.105 0.251,0.04 0.504,0.075 0.754,0.111 0.443,0.062 0.895,0.107 1.34,-0.053 0.16,-0.058 0.348,-0.039 0.522,-0.066 0.134,-0.02 0.266,-0.053 0.399,-0.083 0.081,-0.02 0.162,-0.045 0.243,-0.067 0.114,-0.031 0.231,-0.051 0.338,-0.095 0.109,-0.045 0.213,-0.088 0.332,-0.108 0.117,-0.02 0.225,-0.097 0.336,-0.151 0.217,-0.106 0.439,-0.205 0.599,-0.398 0.029,-0.035 0.068,-0.061 0.105,-0.088 0.259,-0.188 0.521,-0.373 0.779,-0.562 0.341,-0.25 0.641,-0.539 0.881,-0.889 0.063,-0.091 0.135,-0.176 0.202,-0.265 0.028,-0.036 0.068,-0.071 0.077,-0.112 0.034,-0.159 0.123,-0.284 0.222,-0.407 0.069,-0.086 0.052,-0.132 -0.036,-0.219 -0.238,-0.235 -0.476,-0.468 -0.71,-0.706 -0.078,-0.079 -0.145,-0.168 -0.215,-0.254 -0.061,-0.074 -0.114,-0.151 -0.04,-0.246 0.059,-0.074 0.194,-0.098 0.289,-0.047 0.052,0.027 0.095,0.07 0.147,0.097 0.256,0.133 0.506,0.273 0.718,0.474 0.04,0.039 0.101,0.066 0.156,0.074 0.301,0.043 0.576,0.172 0.864,0.254 0.32,0.092 0.642,0.104 0.968,0.028 0.347,-0.08 0.667,-0.232 0.967,-0.414 0.239,-0.144 0.459,-0.325 0.671,-0.508 0.197,-0.172 0.266,-0.432 0.396,-0.649 0.19,-0.314 0.175,-0.693 0.328,-1.019 0.003,-0.006 0.004,-0.012 0.004,-0.019 0.004,-0.523 0.216,-1.025 0.149,-1.556 -0.016,-0.135 -0.002,-0.275 0.003,-0.412 0.007,-0.163 -0.009,-0.306 -0.099,-0.463 -0.116,-0.205 -0.151,-0.455 -0.233,-0.681 -0.063,-0.177 -0.136,-0.352 -0.218,-0.521 -0.1,-0.204 -0.239,-0.389 -0.279,-0.622 -0.009,-0.053 -0.056,-0.102 -0.09,-0.149 -0.133,-0.187 -0.253,-0.385 -0.405,-0.556 -0.25,-0.283 -0.521,-0.549 -0.785,-0.822 -0.072,-0.075 -0.144,-0.149 -0.219,-0.223 -0.073,-0.074 -0.145,-0.15 -0.224,-0.218 -0.333,-0.285 -0.667,-0.57 -1.004,-0.85 -0.09,-0.073 -0.195,-0.129 -0.293,-0.19 -0.028,-0.018 -0.063,-0.023 -0.091,-0.04 -0.055,-0.033 -0.096,-0.087 -0.057,-0.145 0.023,-0.032 0.091,-0.057 0.131,-0.048 0.089,0.017 0.176,0.052 0.259,0.089 0.361,0.167 0.721,0.337 1.08,0.51 0.088,0.042 0.17,0.098 0.247,0.159 0.163,0.131 0.312,0.28 0.519,0.346 0.035,0.011 0.064,0.045 0.092,0.072 0.304,0.297 0.637,0.565 0.893,0.908 0.023,0.032 0.052,0.061 0.082,0.084 0.064,0.046 0.118,0.038 0.164,-0.034 0.163,-0.252 0.344,-0.494 0.489,-0.756 0.102,-0.185 0.221,-0.374 0.229,-0.598 10e-4,-0.02 10e-4,-0.043 0.009,-0.059 0.107,-0.181 0.146,-0.386 0.213,-0.582 0.085,-0.246 0.174,-0.49 0.261,-0.734 0.028,-0.08 0.042,-0.169 0.087,-0.238 0.078,-0.121 0.111,-0.248 0.108,-0.39 -0.003,-0.185 0.025,-0.363 0.109,-0.533 0.033,-0.067 0.049,-0.153 0.041,-0.228 -0.053,-0.492 0.081,-0.961 0.168,-1.436 0.015,-0.083 0.029,-0.169 0.029,-0.253 0.003,-0.595 0.008,-1.191 -0.001,-1.787 -0.002,-0.154 -0.039,-0.312 -0.086,-0.46 -0.08,-0.254 -0.11,-0.51 -0.113,-0.774 0,-0.108 -0.039,-0.215 -0.06,-0.324 -0.028,-0.146 -0.064,-0.292 -0.083,-0.44 -0.022,-0.174 -0.013,-0.356 -0.051,-0.526 -0.042,-0.19 -0.123,-0.371 -0.183,-0.557 -0.034,-0.104 -0.07,-0.21 -0.091,-0.317 -0.039,-0.198 -0.109,-0.261 -0.311,-0.234 -0.581,0.079 -1.163,0.059 -1.745,0.03 -0.143,-0.007 -0.288,-0.006 -0.431,0.004 -0.459,0.033 -0.915,0.004 -1.368,-0.076 -0.045,-0.007 -0.09,-0.018 -0.136,-0.019 -0.66,-0.017 -1.321,-0.067 -1.98,-0.036 -0.503,0.024 -1.006,0.021 -1.509,0.039 -0.253,0.009 -0.505,0.065 -0.758,0.087 -0.209,0.018 -0.419,0.022 -0.628,0.026 -0.236,0.005 -0.467,0.017 -0.693,0.11 -0.116,0.047 -0.255,0.048 -0.385,0.055 -0.133,0.007 -0.255,0.034 -0.378,0.09 -0.097,0.044 -0.211,0.064 -0.319,0.072 -0.113,0.009 -0.219,0.018 -0.316,0.085 -0.037,0.026 -0.081,0.045 -0.124,0.057 -0.567,0.167 -1.099,0.411 -1.598,0.726 -0.148,0.094 -0.29,0.199 -0.426,0.313 -0.327,0.272 -0.648,0.551 -0.969,0.829 -0.284,0.245 -0.518,0.533 -0.735,0.839 -0.28,0.397 -0.523,0.813 -0.739,1.247 -0.006,0.012 -0.01,0.026 -0.019,0.035 -0.221,0.201 -0.295,0.484 -0.412,0.743 -0.018,0.042 -0.047,0.086 -0.046,0.129 0.01,0.288 -0.161,0.52 -0.245,0.778 -0.012,0.038 -0.032,0.072 -0.044,0.11 -0.051,0.166 -0.006,0.212 0.165,0.194 0.26,-0.027 0.516,-0.059 0.769,-0.14 0.124,-0.04 0.272,-0.02 0.407,-0.003 0.233,0.031 0.464,0.081 0.696,0.123 0.045,0.008 0.091,0.012 0.135,0.025 0.11,0.032 0.181,0.115 0.202,0.22 0.021,0.097 -0.066,0.164 -0.14,0.193 -0.187,0.074 -0.345,0.201 -0.55,0.249 -0.201,0.045 -0.395,0.133 -0.583,0.223 -0.172,0.083 -0.348,0.108 -0.533,0.1 -0.117,-0.005 -0.212,0.026 -0.31,0.095 -0.171,0.119 -0.346,0.226 -0.562,0.264 -0.137,0.025 -0.265,0.11 -0.392,0.175 -0.412,0.211 -0.822,0.421 -1.208,0.686 -0.306,0.211 -0.576,0.453 -0.83,0.716 -0.216,0.225 -0.414,0.471 -0.618,0.71 -0.02,0.024 -0.038,0.053 -0.05,0.083 -0.101,0.262 -0.206,0.521 -0.297,0.786 -0.036,0.103 -0.054,0.218 -0.056,0.327 -0.007,0.393 -0.007,0.786 0,1.178 10e-4,0.082 0.037,0.163 0.06,0.244 0.028,0.1 0.086,0.199 0.085,0.298 -0.006,0.25 0.096,0.456 0.226,0.655 0.161,0.246 0.322,0.494 0.498,0.73 0.075,0.102 0.186,0.178 0.283,0.262 0.064,0.056 0.138,0.102 0.196,0.162 0.171,0.177 0.371,0.304 0.603,0.389 0.226,0.084 0.445,0.186 0.666,0.279 l 0.018,0.009 c 0.291,0.071 0.582,0.143 0.873,0.215 0.057,0.013 0.123,0.009 0.168,0.039 0.043,0.028 0.087,0.092 0.085,0.137 C 9.152,-6.674 9.102,-6.612 9.057,-6.593 9.001,-6.567 8.929,-6.572 8.865,-6.577 8.674,-6.59 8.487,-6.583 8.3,-6.532 8.141,-6.489 7.981,-6.476 7.818,-6.536 7.727,-6.568 7.625,-6.57 7.529,-6.588 7.478,-6.597 7.416,-6.596 7.378,-6.625 7.207,-6.755 6.993,-6.728 6.809,-6.809 c -0.016,0.027 -0.034,0.045 -0.033,0.06 0.018,0.201 0.036,0.403 0.06,0.603 0.026,0.227 0.065,0.452 0.086,0.679 0.009,0.107 0.027,0.202 0.076,0.3 0.043,0.084 0.068,0.183 0.072,0.277 0.006,0.134 0.029,0.257 0.093,0.376 0.043,0.079 0.077,0.169 0.092,0.257 0.042,0.244 0.135,0.463 0.267,0.669 0.014,0.022 0.029,0.046 0.034,0.071 0.119,0.536 0.512,0.913 0.79,1.357 0.044,0.069 0.129,0.109 0.189,0.168 0.117,0.114 0.235,0.228 0.339,0.352 0.07,0.083 0.039,0.18 -0.067,0.189 -0.132,0.01 -0.197,0.09 -0.262,0.18 C 8.407,-1.08 8.273,-0.89 8.238,-0.645 8.212,-0.465 7.912,-0.307 7.741,-0.366 7.7,-0.379 7.651,-0.406 7.632,-0.441 7.562,-0.565 7.485,-0.691 7.446,-0.825 7.413,-0.935 7.373,-1.026 7.272,-1.07 7.046,-1.169 6.859,-1.35 6.597,-1.372 6.555,-1.376 6.515,-1.41 6.473,-1.428 6.187,-1.553 5.912,-1.708 5.587,-1.708 5.531,-1.708 5.467,-1.728 5.421,-1.759 5.304,-1.835 5.178,-1.848 5.045,-1.845 4.887,-1.839 4.73,-1.834 4.573,-1.841 4.355,-1.848 4.147,-1.818 3.936,-1.75 3.79,-1.703 3.627,-1.702 3.472,-1.69 c -0.106,0.008 -0.21,0.016 -0.293,0.091 -0.089,0.08 -0.086,0.167 0.02,0.217 0.133,0.064 0.238,0.158 0.336,0.265 0.043,0.046 0.104,0.078 0.157,0.115 0.118,0.083 0.237,0.165 0.355,0.246 0.15,0.104 0.299,0.21 0.452,0.311 0.111,0.072 0.214,0.143 0.233,0.294 0.009,0.067 0.062,0.128 0.092,0.192 0.02,0.041 0.044,0.082 0.05,0.126 C 4.885,0.238 4.822,0.291 4.767,0.252 4.632,0.158 4.481,0.178 4.333,0.158 4.218,0.142 4.105,0.1 3.992,0.074 3.878,0.048 3.764,0.01 3.65,0.009 3.4,0.005 3.157,-0.018 2.918,-0.108 2.787,-0.157 2.638,-0.169 2.496,-0.177 2.202,-0.193 1.906,-0.188 1.613,-0.205 1.485,-0.213 1.355,-0.245 1.232,-0.283 1.121,-0.32 1.018,-0.313 0.905,-0.294 0.668,-0.253 0.427,-0.229 0.188,-0.199 0.15,-0.195 0.109,-0.2 0.071,-0.191 -0.034,-0.165 -0.066,-0.087 0,0 m 17.499,0.878 c 0.005,0.004 0.009,0.009 0.015,0.011 0.242,0.11 0.479,0.234 0.728,0.323 0.152,0.054 0.222,-0.007 0.299,-0.146 C 18.657,0.855 18.727,0.635 18.705,0.391 18.701,0.354 18.691,0.317 18.674,0.237 18.482,0.331 18.295,0.34 18.126,0.439 17.944,0.545 17.776,0.688 17.543,0.698 17.43,0.703 17.414,0.795 17.499,0.878 m 7.779,-10.643 c 0.044,0.122 0.125,0.233 0.156,0.358 0.07,0.278 0.175,0.542 0.295,0.801 0.026,0.059 0.035,0.125 0.053,0.188 0.016,0.062 0.019,0.137 0.054,0.186 0.102,0.137 0.102,0.29 0.099,0.449 -0.004,0.308 0.018,0.617 -0.006,0.923 -0.022,0.274 0.04,0.517 0.117,0.778 0.081,0.275 0.213,0.482 0.417,0.661 0.029,0.026 0.054,0.058 0.081,0.087 0.139,0.148 0.134,0.14 0.316,0.03 0.073,-0.043 0.172,-0.063 0.259,-0.06 0.149,0.003 0.279,-0.017 0.407,-0.105 0.204,-0.139 0.43,-0.248 0.632,-0.39 0.143,-0.1 0.268,-0.227 0.392,-0.352 0.216,-0.219 0.427,-0.441 0.635,-0.667 0.101,-0.109 0.191,-0.23 0.282,-0.348 0.032,-0.042 0.045,-0.099 0.08,-0.135 0.124,-0.127 0.123,-0.282 0.111,-0.442 -0.009,-0.102 -0.05,-0.186 -0.14,-0.247 -0.069,-0.048 -0.134,-0.104 -0.198,-0.16 -0.075,-0.064 -0.142,-0.053 -0.206,0.014 -0.009,0.009 -0.017,0.019 -0.026,0.029 -0.161,0.198 -0.326,0.391 -0.48,0.594 -0.148,0.196 -0.337,0.344 -0.524,0.498 -0.295,0.243 -0.642,0.401 -0.954,0.615 -0.056,0.039 -0.126,0.074 -0.178,0.018 -0.039,-0.043 -0.078,-0.122 -0.065,-0.171 0.033,-0.116 0.075,-0.242 0.152,-0.332 0.14,-0.163 0.294,-0.321 0.466,-0.447 0.337,-0.245 0.6,-0.566 0.901,-0.847 0.096,-0.088 0.099,-0.193 0.046,-0.305 -0.086,-0.182 -0.171,-0.365 -0.261,-0.545 -0.038,-0.076 -0.087,-0.146 -0.13,-0.219 -0.029,-0.051 -0.075,-0.102 -0.08,-0.155 -0.025,-0.274 -0.195,-0.477 -0.325,-0.7 -0.074,-0.129 -0.133,-0.266 -0.197,-0.401 -0.092,-0.193 -0.182,-0.387 -0.27,-0.583 -0.086,-0.19 -0.166,-0.383 -0.249,-0.574 -0.016,-0.036 -0.024,-0.075 -0.04,-0.111 -0.105,-0.236 -0.169,-0.256 -0.383,-0.123 -0.044,0.028 -0.086,0.06 -0.132,0.085 -0.126,0.068 -0.235,0.03 -0.28,-0.105 -0.041,-0.124 -0.034,-0.25 0.042,-0.358 0.178,-0.252 0.347,-0.51 0.596,-0.7 0.165,-0.125 0.291,-0.279 0.387,-0.463 0.051,-0.098 0.124,-0.184 0.192,-0.271 0.338,-0.434 0.664,-0.877 0.916,-1.367 0.106,-0.208 0.177,-0.433 0.264,-0.651 0.052,-0.134 0.095,-0.272 0.159,-0.4 0.154,-0.308 0.531,-0.34 0.689,-0.047 0.151,0.281 0.41,0.351 0.679,0.398 0.155,0.028 0.307,0.035 0.448,0.121 0.062,0.038 0.149,0.045 0.226,0.049 0.157,0.007 0.314,0 0.472,0.007 0.172,0.008 0.33,-0.01 0.486,-0.106 0.172,-0.106 0.355,-0.038 0.473,0.142 0.088,0.135 0.046,0.311 -0.104,0.433 -0.026,0.02 -0.055,0.036 -0.081,0.056 -0.102,0.082 -0.114,0.112 -0.043,0.232 0.066,0.112 0.094,0.227 0.089,0.356 -0.003,0.05 0.006,0.106 0.027,0.151 0.065,0.135 0.138,0.265 0.208,0.397 0.142,0.264 0.283,0.528 0.427,0.792 0.017,0.032 0.044,0.065 0.076,0.084 0.059,0.034 0.129,0 0.126,-0.067 -0.002,-0.062 -0.014,-0.138 -0.052,-0.183 -0.096,-0.114 -0.118,-0.247 -0.13,-0.383 -0.011,-0.124 -0.019,-0.249 -0.011,-0.372 0.004,-0.057 0.035,-0.133 0.079,-0.163 0.069,-0.045 0.138,0.004 0.189,0.06 0.053,0.058 0.116,0.112 0.15,0.18 0.098,0.197 0.245,0.366 0.295,0.594 0.033,0.148 0.13,0.284 0.212,0.417 0.069,0.111 0.171,0.107 0.254,-0.002 0.106,-0.136 0.182,-0.28 0.175,-0.464 -0.007,-0.197 0.003,-0.394 0.02,-0.589 0.009,-0.101 0.036,-0.207 0.081,-0.297 0.062,-0.12 0.095,-0.241 0.092,-0.376 -0.008,-0.353 -0.007,-0.705 0.065,-1.055 0.03,-0.144 0.014,-0.3 0.018,-0.45 10e-4,-0.039 -0.01,-0.081 -10e-4,-0.117 0.087,-0.335 0.053,-0.678 0.066,-1.017 0.021,-0.489 0.007,-0.98 0.004,-1.471 -0.001,-0.196 -0.013,-0.392 -0.016,-0.589 -0.003,-0.171 -0.009,-0.338 -0.09,-0.497 -0.029,-0.056 -0.038,-0.126 -0.038,-0.19 -0.002,-0.163 -0.05,-0.308 -0.138,-0.443 -0.022,-0.033 -0.042,-0.069 -0.052,-0.106 -0.04,-0.161 -0.152,-0.261 -0.292,-0.323 -0.303,-0.137 -0.611,-0.262 -0.917,-0.392 -0.024,-0.01 -0.055,-0.012 -0.073,-0.028 -0.153,-0.141 -0.352,-0.114 -0.534,-0.156 -0.272,-0.065 -0.541,-0.146 -0.807,-0.235 -0.222,-0.074 -0.438,-0.168 -0.656,-0.254 -0.054,-0.021 -0.105,-0.051 -0.158,-0.077 -0.041,-0.02 -0.082,-0.055 -0.123,-0.056 -0.304,-0.012 -0.544,-0.201 -0.816,-0.299 -0.171,-0.062 -0.338,-0.138 -0.508,-0.208 -0.325,-0.133 -0.653,-0.26 -0.975,-0.4 -0.215,-0.094 -0.424,-0.204 -0.633,-0.31 -0.308,-0.155 -0.621,-0.303 -0.921,-0.474 -0.528,-0.3 -1.068,-0.582 -1.556,-0.949 -0.087,-0.066 -0.197,-0.101 -0.288,-0.163 -0.703,-0.478 -1.407,-0.953 -2.105,-1.44 -0.573,-0.401 -1.157,-0.79 -1.612,-1.337 -0.166,-0.2 -0.372,-0.369 -0.526,-0.577 -0.114,-0.154 -0.19,-0.343 -0.251,-0.527 -0.078,-0.243 0.144,-0.634 0.394,-0.716 0.235,-0.077 0.442,-0.204 0.625,-0.362 0.157,-0.135 0.232,-0.335 0.265,-0.533 0.033,-0.197 0.036,-0.402 -0.093,-0.587 -0.041,-0.058 -0.043,-0.147 -0.055,-0.223 -0.01,-0.064 0.005,-0.134 -0.015,-0.195 -0.083,-0.259 -0.175,-0.515 -0.264,-0.773 -0.016,-0.05 -0.034,-0.099 -0.049,-0.148 -0.086,-0.292 -0.188,-0.573 -0.444,-0.765 -0.075,-0.058 -0.099,-0.137 -0.091,-0.226 0.014,-0.155 -0.02,-0.299 -0.094,-0.435 -0.012,-0.023 -0.026,-0.048 -0.027,-0.073 -0.012,-0.249 -0.132,-0.461 -0.224,-0.682 -0.114,-0.271 -0.232,-0.54 -0.401,-0.784 -0.022,-0.031 -0.046,-0.065 -0.076,-0.088 -0.098,-0.078 -0.195,-0.039 -0.207,0.087 -0.013,0.129 -0.01,0.261 -0.02,0.391 -0.011,0.155 -0.036,0.311 -0.039,0.466 -0.001,0.116 0.024,0.233 0.036,0.349 0.013,0.13 0.032,0.261 0.031,0.391 0,0.048 -0.041,0.125 -0.079,0.136 -0.04,0.012 -0.124,-0.024 -0.145,-0.063 -0.092,-0.172 -0.186,-0.346 -0.245,-0.53 -0.059,-0.185 -0.076,-0.385 -0.114,-0.576 -0.014,-0.064 -0.029,-0.13 -0.058,-0.187 -0.045,-0.087 -0.16,-0.089 -0.179,10e-4 -0.07,0.339 -0.302,0.646 -0.199,1.018 0.016,0.057 0.026,0.115 0.038,0.172 0.019,0.087 -0.019,0.136 -0.1,0.162 -0.151,0.049 -0.301,-0.004 -0.393,-0.141 -0.028,-0.044 -0.055,-0.088 -0.086,-0.131 -0.006,-0.009 -0.022,-0.012 -0.055,-0.029 -0.04,0.036 -0.092,0.073 -0.129,0.122 -0.085,0.108 -0.162,0.222 -0.241,0.334 -0.058,0.084 -0.032,0.157 0.027,0.231 0.164,0.211 0.159,0.302 -0.015,0.493 -0.066,0.073 -0.131,0.147 -0.199,0.217 -0.11,0.115 -0.172,0.125 -0.281,0.02 -0.099,-0.094 -0.209,-0.13 -0.338,-0.129 -0.438,0.007 -0.878,-0.006 -1.313,0.031 -0.2,0.017 -0.393,0.126 -0.584,0.207 -0.095,0.04 -0.176,0.111 -0.264,0.167 -0.221,0.137 -0.409,0.303 -0.519,0.547 -0.059,0.131 -0.169,0.248 -0.197,0.382 -0.056,0.272 -0.244,0.505 -0.219,0.8 0.006,0.082 -0.012,0.17 -0.032,0.251 -0.081,0.331 -0.158,0.66 -0.152,1.005 0.003,0.149 -0.04,0.298 -0.061,0.447 -0.007,0.058 -0.026,0.121 -0.012,0.174 0.048,0.186 0.024,0.364 -0.031,0.542 -0.012,0.037 -0.02,0.077 -0.017,0.115 0.018,0.272 0.033,0.544 0.061,0.815 0.01,0.091 0.006,0.17 -0.053,0.238 -0.143,0.171 -0.282,0.345 -0.433,0.508 -0.203,0.22 -0.414,0.433 -0.588,0.683 -0.242,0.348 -0.508,0.679 -0.76,1.022 -0.089,0.12 -0.169,0.249 -0.243,0.378 -0.213,0.369 -0.419,0.741 -0.631,1.109 -0.178,0.305 -0.365,0.604 -0.54,0.911 -0.061,0.106 -0.113,0.222 -0.144,0.341 -0.063,0.247 -0.223,0.453 -0.265,0.712 -0.026,0.16 -0.146,0.304 -0.213,0.459 -0.044,0.101 -0.076,0.207 -0.104,0.313 -0.081,0.309 -0.159,0.619 -0.233,0.931 -0.023,0.093 -0.035,0.19 -0.049,0.286 -0.007,0.052 0.001,0.107 -0.012,0.156 -0.029,0.103 -0.106,0.133 -0.196,0.075 -0.098,-0.064 -0.157,-0.155 -0.172,-0.273 -0.007,-0.059 -0.01,-0.12 -0.03,-0.174 -0.027,-0.076 -0.093,-0.127 -0.17,-0.09 -0.23,0.11 -0.476,0.064 -0.715,0.087 -0.084,0.009 -0.176,0.007 -0.249,0.041 -0.265,0.124 -0.544,0.129 -0.826,0.141 -0.141,0.007 -0.281,0.044 -0.421,0.073 -0.096,0.02 -0.142,0.087 -0.14,0.186 10e-4,0.045 0,0.092 0.007,0.137 0.076,0.41 0.058,0.82 0.019,1.232 -0.03,0.332 -0.04,0.666 -0.079,0.996 -0.026,0.213 -0.099,0.42 -0.127,0.633 -0.018,0.141 -0.06,0.266 -0.132,0.385 -0.043,0.07 -0.094,0.133 -0.186,0.112 -0.101,-0.021 -0.123,-0.102 -0.136,-0.192 -0.026,-0.167 -0.065,-0.332 -0.086,-0.501 -0.008,-0.074 0.009,-0.153 0.021,-0.229 0.018,-0.116 0.058,-0.231 0.059,-0.346 0.006,-0.342 0.025,-0.68 0.121,-1.011 0.019,-0.067 0.012,-0.142 0.014,-0.214 0.009,-0.334 0.011,-0.668 0.03,-1 0.005,-0.1 0.053,-0.2 0.095,-0.294 0.031,-0.07 0.09,-0.128 0.128,-0.197 0.068,-0.123 0.019,-0.26 -0.117,-0.268 -0.222,-0.014 -0.456,-0.086 -0.659,0.086 -0.053,0.044 -0.131,0.056 -0.197,0.085 -0.093,0.043 -0.121,0.101 -0.054,0.165 0.152,0.146 0.148,0.326 0.093,0.493 -0.134,0.406 -0.123,0.825 -0.157,1.242 -0.015,0.188 -0.068,0.372 -0.101,0.558 -0.026,0.148 -0.05,0.296 -0.072,0.444 -0.018,0.116 -0.015,0.24 -0.054,0.348 -0.109,0.289 -0.094,0.593 -0.12,0.892 -0.014,0.17 0.163,0.348 0.355,0.39 0.242,0.053 0.482,0.018 0.723,-0.013 0.041,-0.006 0.085,-0.034 0.119,-0.062 0.296,-0.252 0.713,-0.225 0.992,0.003 0.078,0.065 0.142,0.075 0.227,0.017 0.396,-0.267 0.825,-0.469 1.269,-0.642 0.128,-0.05 0.25,-0.111 0.376,-0.167 0.075,-0.033 0.098,-0.091 0.101,-0.172 0.003,-0.117 0.023,-0.232 0.036,-0.348 0.003,-0.026 0.016,-0.051 0.017,-0.077 10e-4,-0.317 0.089,-0.615 0.179,-0.917 0.066,-0.228 0.175,-0.433 0.267,-0.647 0.024,-0.054 0.073,-0.103 0.078,-0.157 0.045,-0.46 0.357,-0.787 0.573,-1.16 0.22,-0.383 0.525,-0.701 0.811,-1.032 0.038,-0.045 0.081,-0.091 0.101,-0.144 0.074,-0.204 0.221,-0.354 0.37,-0.501 0.295,-0.288 0.607,-0.555 0.953,-0.785 0.278,-0.185 0.555,-0.369 0.852,-0.519 0.185,-0.093 0.378,-0.173 0.569,-0.252 0.229,-0.094 0.459,-0.184 0.691,-0.271 0.073,-0.027 0.151,-0.038 0.226,-0.057 0.164,-0.045 0.327,-0.09 0.49,-0.135 0.05,-0.013 0.1,-0.042 0.15,-0.042 0.226,0 0.437,-0.06 0.651,-0.129 0.122,-0.039 0.259,-0.041 0.389,-0.037 0.305,0.009 0.598,-0.051 0.893,-0.115 0.114,-0.025 0.232,-0.046 0.348,-0.046 1.363,-0.007 2.724,-0.012 4.086,-0.014 0.256,-0.001 0.511,0.009 0.767,0.013 0.045,0.002 0.092,0.004 0.137,0.012 0.67,0.11 1.342,0.213 2.01,0.337 0.197,0.035 0.397,0.103 0.57,0.201 0.18,0.101 0.358,0.159 0.559,0.145 0.176,-0.013 0.335,0.002 0.479,0.123 0.154,0.131 0.263,0.287 0.327,0.477 0.07,0.204 0.137,0.408 0.209,0.613 0.014,0.042 0.043,0.08 0.064,0.119 0.022,0.04 0.049,0.079 0.061,0.121 0.05,0.17 0.1,0.338 0.139,0.509 0.031,0.133 0.047,0.27 0.067,0.405 0.017,0.117 0.013,0.238 0.045,0.349 0.093,0.327 0.101,0.659 0.099,0.993 -0.002,0.15 0.023,0.299 0.035,0.449 0.006,0.091 0.019,0.183 0.016,0.274 -0.01,0.391 0.017,0.783 -0.046,1.175 -0.034,0.21 -0.007,0.431 -0.008,0.647 0,0.23 -0.007,0.459 -0.113,0.672 -0.014,0.029 -0.025,0.063 -0.024,0.094 0.005,0.21 -0.041,0.399 -0.174,0.57 -0.038,0.049 -0.035,0.137 -0.037,0.207 -0.006,0.151 -0.022,0.299 -0.089,0.439 -0.031,0.064 -0.047,0.137 -0.055,0.207 -0.019,0.158 -0.05,0.31 -0.142,0.445 -0.014,0.021 -0.022,0.047 -0.029,0.073 -0.06,0.212 -0.116,0.426 -0.177,0.638 -0.02,0.069 -0.05,0.134 -0.075,0.201 -0.032,0.085 -0.061,0.171 -0.098,0.254 -0.056,0.124 -0.111,0.25 -0.181,0.368 -0.151,0.259 -0.324,0.506 -0.465,0.771 -0.117,0.219 -0.274,0.397 -0.46,0.555 -0.025,0.021 -0.049,0.043 -0.074,0.065 -0.221,0.189 -0.214,0.184 -0.018,0.405 0.231,0.26 0.424,0.547 0.543,0.879 m 3.387,-2.367 c 0.163,0.002 0.236,-0.066 0.23,-0.212 -0.022,-0.04 -0.049,-0.115 -0.096,-0.175 -0.174,-0.228 -0.354,-0.453 -0.533,-0.676 -0.092,-0.116 -0.193,-0.126 -0.272,-0.01 -0.118,0.173 -0.285,0.285 -0.445,0.408 -0.128,0.098 -0.132,0.126 -0.046,0.252 0.054,0.081 0.106,0.165 0.145,0.253 0.036,0.082 0.09,0.125 0.177,0.128 0.28,0.012 0.56,0.03 0.84,0.032 m -17.17,-14.295 c -0.077,-0.011 -0.157,-0.002 -0.235,-0.002 v -0.028 c -0.248,0 -0.495,-0.004 -0.743,0.001 -0.228,0.006 -0.27,0.06 -0.255,0.29 0.007,0.11 0.012,0.221 0.01,0.332 -0.004,0.186 0.022,0.362 0.098,0.534 0.035,0.079 0.031,0.177 0.038,0.268 0.006,0.057 -0.008,0.119 0.005,0.174 0.009,0.037 0.048,0.087 0.08,0.092 0.031,0.004 0.094,-0.035 0.101,-0.065 0.051,-0.243 0.231,-0.407 0.364,-0.598 0.179,-0.256 0.372,-0.503 0.56,-0.753 0.02,-0.026 0.046,-0.048 0.062,-0.076 0.047,-0.086 0.014,-0.157 -0.085,-0.169 m -2.212,3.614 c -0.2,0.068 -0.407,0.098 -0.616,0.081 -0.174,-0.013 -0.299,0.063 -0.422,0.169 -0.074,0.065 -0.079,0.126 -0.029,0.205 0.07,0.11 0.14,0.22 0.203,0.334 0.123,0.221 0.241,0.444 0.361,0.667 0.012,0.023 0.028,0.044 0.056,0.089 0.062,-0.064 0.116,-0.1 0.144,-0.151 0.04,-0.073 0.063,-0.157 0.094,-0.235 0.045,-0.115 0.096,-0.227 0.133,-0.344 0.085,-0.272 0.259,-0.509 0.305,-0.842 -0.094,0.009 -0.166,0.005 -0.229,0.027 M 5.616,-3.95 c -0.044,0.072 -0.035,0.144 0.033,0.19 0.129,0.085 0.264,0.163 0.399,0.239 0.219,0.123 0.488,0.142 0.685,0.315 0.027,0.024 0.072,0.028 0.128,0.048 C 6.884,-3.19 6.923,-3.221 6.926,-3.256 6.93,-3.305 6.918,-3.362 6.894,-3.405 6.821,-3.541 6.73,-3.669 6.661,-3.807 6.57,-3.987 6.487,-4.17 6.415,-4.358 6.39,-4.427 6.42,-4.515 6.407,-4.591 6.397,-4.641 6.367,-4.704 6.327,-4.727 6.3,-4.743 6.23,-4.711 6.193,-4.682 5.938,-4.488 5.779,-4.218 5.616,-3.95 M 4.204,-19.826 c 0.042,-0.162 0.004,-0.232 -0.16,-0.23 -0.144,0.003 -0.268,-0.035 -0.394,-0.098 -0.072,-0.036 -0.162,-0.05 -0.245,-0.054 -0.169,-0.007 -0.34,0.005 -0.51,0 -0.192,-0.005 -0.375,0.006 -0.551,0.103 -0.076,0.043 -0.177,0.056 -0.266,0.057 -0.233,0.003 -0.39,0.136 -0.533,0.292 -0.089,0.097 -0.165,0.204 -0.252,0.302 -0.1,0.111 -0.128,0.245 -0.105,0.384 0.031,0.182 -0.027,0.315 -0.167,0.429 -0.169,0.136 -0.321,0.289 -0.423,0.485 -0.018,0.034 -0.058,0.065 -0.06,0.099 -0.015,0.29 -0.091,0.587 0.101,0.853 0.038,0.053 0.076,0.106 0.11,0.163 0.08,0.138 0.025,0.291 -0.126,0.349 -0.037,0.013 -0.077,0.018 -0.116,0.022 -0.096,0.008 -0.159,0.05 -0.175,0.152 -0.006,0.044 -0.019,0.095 -0.047,0.126 -0.191,0.208 -0.124,0.455 -0.112,0.693 0.002,0.053 0.04,0.11 0.074,0.155 0.123,0.164 0.27,0.298 0.456,0.393 0.145,0.074 0.278,0.173 0.411,0.268 0.139,0.1 0.299,0.087 0.454,0.084 0.093,-0.001 0.124,-0.06 0.123,-0.187 C 1.69,-15.065 1.684,-15.143 1.683,-15.221 1.682,-15.3 1.682,-15.379 1.682,-15.457 h 0.004 c 0,-0.092 0.003,-0.184 -10e-4,-0.275 -0.01,-0.18 0.016,-0.347 0.117,-0.506 0.079,-0.125 0.113,-0.28 0.197,-0.402 0.106,-0.155 0.232,-0.3 0.368,-0.429 0.172,-0.164 0.457,-0.162 0.648,-0.021 0.046,0.035 0.097,0.074 0.151,0.086 0.304,0.066 0.428,0.301 0.53,0.555 0.045,0.115 0.079,0.235 0.116,0.353 0.012,0.037 0.032,0.08 0.023,0.113 -0.015,0.053 -0.041,0.122 -0.081,0.141 -0.038,0.018 -0.115,-0.005 -0.152,-0.038 -0.068,-0.059 -0.121,-0.137 -0.176,-0.21 -0.074,-0.1 -0.144,-0.203 -0.215,-0.305 -0.115,-0.164 -0.335,-0.174 -0.463,-0.018 -0.181,0.221 -0.309,0.484 -0.363,0.752 -0.055,0.272 -0.079,0.564 0.077,0.84 0.12,0.212 0.297,0.262 0.506,0.263 0.122,10e-4 0.246,-0.027 0.369,-0.046 0.161,-0.025 0.267,-0.135 0.358,-0.256 0.025,-0.032 0.028,-0.085 0.031,-0.13 0.002,-0.045 -0.006,-0.091 -0.015,-0.136 -0.045,-0.219 0.031,-0.394 0.214,-0.507 0.139,-0.085 0.179,-0.195 0.162,-0.344 -0.065,-0.561 -0.034,-1.125 -0.02,-1.686 0.004,-0.2 0.07,-0.397 0.103,-0.596 0.023,-0.135 0.047,-0.271 0.056,-0.406 0.019,-0.308 0.031,-0.614 -0.056,-0.917 -0.021,-0.072 0.013,-0.165 0.034,-0.244 M -0.139,-0.662 C -0.088,-0.688 -0.02,-0.687 0.025,-0.719 0.173,-0.827 0.339,-0.84 0.511,-0.841 0.805,-0.842 1.1,-0.83 1.379,-0.954 1.425,-0.975 1.481,-0.976 1.533,-0.98 c 0.308,-0.025 0.615,-0.027 0.911,0.085 0.073,0.027 0.153,0.039 0.23,0.044 0.035,0.002 0.072,-0.031 0.142,-0.063 C 2.708,-0.97 2.633,-1.005 2.562,-1.046 2.49,-1.089 2.424,-1.145 2.349,-1.185 2.103,-1.319 2.083,-1.542 2.305,-1.713 c 0.146,-0.111 0.29,-0.225 0.437,-0.333 0.063,-0.045 0.131,-0.086 0.203,-0.118 0.22,-0.101 0.44,-0.199 0.663,-0.292 0.071,-0.028 0.152,-0.049 0.228,-0.05 0.55,-0.006 1.1,-0.011 1.65,-0.005 0.106,0.002 0.212,0.053 0.317,0.081 0.1,0.027 0.201,0.052 0.301,0.081 0.085,0.024 0.171,0.051 0.256,0.079 0.061,0.02 0.121,0.044 0.182,0.067 0.067,0.025 0.14,0.041 0.199,0.079 0.18,0.119 0.368,0.231 0.529,0.374 0.254,0.226 0.232,0.202 0.45,-0.08 C 7.78,-1.908 7.775,-1.985 7.716,-2.064 7.594,-2.227 7.475,-2.391 7.357,-2.556 7.291,-2.649 7.206,-2.696 7.094,-2.705 7.003,-2.713 6.908,-2.715 6.821,-2.739 6.595,-2.801 6.368,-2.865 6.149,-2.947 5.937,-3.027 5.733,-3.13 5.527,-3.225 5.386,-3.291 5.212,-3.331 5.114,-3.438 4.961,-3.608 4.861,-3.828 4.927,-4.072 4.965,-4.217 5.012,-4.364 5.086,-4.493 5.271,-4.82 5.508,-5.106 5.812,-5.334 5.88,-5.385 5.945,-5.441 6.009,-5.497 6.091,-5.567 6.108,-5.653 6.097,-5.761 6.054,-6.177 6.049,-6.597 5.941,-7.005 5.927,-7.055 5.929,-7.109 5.929,-7.162 5.93,-7.294 5.871,-7.394 5.786,-7.494 5.567,-7.753 5.358,-8.021 5.145,-8.285 5.129,-8.306 5.116,-8.329 5.103,-8.352 4.908,-8.683 4.742,-9.029 4.601,-9.386 4.587,-9.422 4.581,-9.462 4.572,-9.5 4.54,-9.633 4.505,-9.766 4.477,-9.9 4.443,-10.053 4.397,-10.206 4.39,-10.361 4.373,-10.7 4.386,-11.042 4.369,-11.382 c -0.02,-0.408 0.148,-0.763 0.289,-1.126 0.078,-0.201 0.172,-0.396 0.233,-0.601 0.058,-0.193 0.143,-0.364 0.267,-0.519 0.157,-0.198 0.319,-0.392 0.49,-0.601 -0.042,-0.013 -0.055,-0.02 -0.055,-0.02 -0.031,0.003 -0.05,0.009 -0.068,0.016 -0.413,0.165 -0.784,0.03 -1.139,-0.172 -0.16,-0.092 -0.184,-0.103 -0.319,0.017 -0.136,0.122 -0.277,0.239 -0.417,0.357 -0.304,0.254 -0.666,0.273 -1.023,0.194 -0.218,-0.049 -0.429,-0.167 -0.589,-0.339 -0.143,-0.154 -0.289,-0.187 -0.47,-0.074 -0.11,0.069 -0.238,0.087 -0.36,0.047 -0.284,-0.092 -0.586,-0.115 -0.849,-0.286 -0.409,-0.265 -0.778,-0.554 -0.895,-1.063 -0.016,-0.07 -0.05,-0.135 -0.074,-0.203 -0.044,-0.12 -0.06,-0.244 -0.014,-0.365 0.114,-0.297 0.198,-0.612 0.456,-0.832 0.065,-0.055 0.079,-0.127 0.054,-0.214 -0.023,-0.081 -0.032,-0.167 -0.033,-0.251 -0.004,-0.354 -0.004,-0.707 -0.001,-1.061 0,-0.064 0.007,-0.133 0.034,-0.19 0.128,-0.268 0.291,-0.5 0.621,-0.539 0.091,-0.011 0.136,-0.071 0.147,-0.159 0.005,-0.045 0.014,-0.091 0.012,-0.136 -0.007,-0.289 0.137,-0.514 0.316,-0.717 0.276,-0.315 0.633,-0.514 1.003,-0.703 0.327,-0.168 0.68,-0.1 1.015,-0.179 0.035,-0.009 0.077,0.013 0.115,0.016 0.13,0.012 0.264,0.045 0.39,0.028 0.328,-0.046 0.599,0.111 0.874,0.237 0.126,0.059 0.246,0.112 0.385,0.132 0.205,0.031 0.403,-0.01 0.603,-0.041 0.147,-0.024 0.299,-0.04 0.447,-0.029 0.316,0.022 0.58,0.183 0.828,0.367 0.073,0.054 0.139,0.119 0.207,0.18 0.074,0.067 0.156,0.083 0.255,0.06 0.1,-0.024 0.206,-0.032 0.31,-0.042 0.156,-0.016 0.314,-0.017 0.469,-0.041 0.249,-0.042 0.484,-0.171 0.749,-0.119 0.005,0.001 0.013,-10e-4 0.013,-10e-4 0.112,-0.023 0.143,-0.1 0.079,-0.189 -0.018,-0.026 -0.045,-0.047 -0.067,-0.071 -0.244,-0.28 -0.505,-0.548 -0.728,-0.844 -0.183,-0.244 -0.332,-0.517 -0.479,-0.786 -0.122,-0.224 -0.064,-0.565 0.113,-0.747 0.21,-0.215 0.449,-0.375 0.759,-0.413 0.122,-0.015 0.241,-0.063 0.363,-0.085 0.18,-0.032 0.36,-0.063 0.541,-0.078 0.15,-0.013 0.302,-0.002 0.452,-0.004 0.089,-10e-4 0.165,-0.026 0.216,-0.11 0.057,-0.095 0.124,-0.184 0.18,-0.279 0.111,-0.188 0.128,-0.36 -0.019,-0.503 -0.051,-0.049 -0.069,-0.136 -0.094,-0.209 -0.086,-0.25 -0.22,-0.485 -0.229,-0.758 -10e-4,-0.012 -0.011,-0.024 -0.018,-0.036 -0.153,-0.275 -0.184,-0.583 -0.231,-0.887 -0.008,-0.048 0.012,-0.103 0.028,-0.151 0.022,-0.068 0.059,-0.132 0.079,-0.201 0.068,-0.222 0.222,-0.345 0.442,-0.4 0.12,-0.031 0.236,-0.078 0.355,-0.108 0.264,-0.068 0.529,-0.079 0.794,0.002 0.118,0.036 0.239,0.067 0.36,0.082 0.156,0.02 0.314,0.022 0.454,0.107 0.093,0.057 0.172,0.024 0.253,-0.033 0.133,-0.094 0.269,-0.184 0.41,-0.268 0.116,-0.069 0.162,-0.162 0.145,-0.294 -0.013,-0.097 -0.025,-0.195 -0.024,-0.293 0.003,-0.14 -0.017,-0.269 -0.075,-0.4 -0.038,-0.086 -0.046,-0.19 -0.047,-0.286 -0.005,-0.327 0.019,-0.657 -0.007,-0.982 -0.039,-0.51 0.09,-0.998 0.159,-1.493 0.007,-0.05 0.041,-0.095 0.06,-0.143 0.036,-0.091 0.082,-0.18 0.103,-0.275 0.05,-0.24 0.154,-0.458 0.283,-0.661 0.245,-0.386 0.576,-0.695 0.945,-0.959 0.223,-0.16 0.473,-0.284 0.739,-0.356 0.27,-0.073 0.549,-0.117 0.824,-0.168 0.091,-0.016 0.183,-0.02 0.274,-0.02 0.249,-0.001 0.498,0.007 0.746,0.005 0.159,0 0.194,-0.038 0.216,-0.192 0.009,-0.065 0.004,-0.139 0.036,-0.191 0.136,-0.222 0.272,-0.447 0.431,-0.652 0.128,-0.164 0.294,-0.299 0.435,-0.453 0.092,-0.101 0.185,-0.207 0.25,-0.326 0.145,-0.271 0.346,-0.492 0.574,-0.69 0.322,-0.279 0.755,-0.311 1.128,-0.109 0.174,0.094 0.307,0.211 0.398,0.388 0.127,0.25 0.282,0.487 0.406,0.738 0.091,0.186 0.152,0.387 0.228,0.581 0.068,0.178 0.123,0.361 0.211,0.528 0.108,0.207 0.248,0.398 0.365,0.602 0.094,0.164 0.188,0.33 0.256,0.506 0.114,0.29 0.208,0.589 0.308,0.884 0.015,0.043 0.027,0.088 0.034,0.133 0.023,0.173 0.015,0.354 0.14,0.5 0.015,0.017 0.011,0.051 0.019,0.076 0.04,0.137 0.08,0.275 0.121,0.412 0.106,0.356 0.108,0.684 -0.154,0.996 -0.211,0.251 -0.415,0.505 -0.671,0.711 -0.047,0.037 -0.093,0.073 -0.138,0.112 -0.1,0.087 -0.11,0.118 -0.044,0.235 0.048,0.084 0.105,0.167 0.17,0.239 0.305,0.334 0.614,0.66 0.994,0.915 0.325,0.218 0.628,0.468 0.943,0.702 0.03,0.024 0.068,0.038 0.101,0.06 0.088,0.054 0.176,0.109 0.262,0.168 0.069,0.048 0.132,0.108 0.202,0.154 0.224,0.148 0.449,0.292 0.674,0.439 0.53,0.346 1.057,0.699 1.592,1.039 0.303,0.192 0.611,0.382 0.933,0.54 0.519,0.254 1.024,0.542 1.571,0.741 0.256,0.093 0.481,0.253 0.752,0.323 0.205,0.054 0.394,0.172 0.591,0.258 0.167,0.072 0.333,0.152 0.506,0.203 0.126,0.037 0.254,0.058 0.363,0.138 0.025,0.018 0.06,0.024 0.091,0.035 0.227,0.077 0.456,0.153 0.683,0.233 0.147,0.052 0.296,0.099 0.438,0.165 0.247,0.114 0.475,0.271 0.756,0.301 0.05,0.006 0.097,0.04 0.145,0.059 0.055,0.022 0.11,0.06 0.166,0.06 0.327,0 0.614,0.173 0.932,0.217 0.173,0.024 0.319,0.125 0.323,0.337 0.002,0.112 0.073,0.152 0.171,0.138 0.175,-0.024 0.276,0.07 0.375,0.197 0.107,0.137 0.154,0.287 0.15,0.456 -0.005,0.25 0.025,0.494 0.089,0.737 0.033,0.125 0.042,0.259 0.043,0.389 0.005,0.445 0.007,0.891 -10e-4,1.336 -0.003,0.142 -0.024,0.289 -0.067,0.423 -0.048,0.153 -0.07,0.303 -0.066,0.463 0.008,0.268 0.012,0.539 -0.081,0.797 -0.076,0.212 -0.099,0.43 -0.108,0.655 -0.016,0.338 -0.141,0.657 -0.225,0.982 -0.056,0.215 -0.133,0.42 -0.123,0.648 0.005,0.091 0.002,0.184 -0.009,0.275 -0.009,0.061 -0.022,0.134 -0.06,0.179 -0.089,0.107 -0.103,0.22 -0.087,0.35 0.021,0.179 -0.012,0.347 -0.086,0.515 -0.1,0.226 -0.178,0.461 -0.264,0.692 -0.046,0.127 -0.146,0.215 -0.277,0.211 -0.212,-0.007 -0.422,-0.026 -0.564,-0.218 -0.046,-0.064 -0.103,-0.12 -0.146,-0.185 -0.049,-0.074 -0.105,-0.101 -0.197,-0.086 -0.081,0.013 -0.168,0.005 -0.248,-0.013 -0.21,-0.045 -0.379,-0.17 -0.551,-0.291 -0.237,-0.165 -0.358,-0.419 -0.485,-0.658 -0.148,-0.278 -0.372,-0.527 -0.39,-0.866 -10e-4,-0.029 -0.032,-0.055 -0.047,-0.084 -0.034,-0.063 -0.076,-0.124 -0.097,-0.191 -0.031,-0.103 -0.092,-0.125 -0.191,-0.124 -0.216,0.002 -0.432,-0.001 -0.647,-0.018 -0.088,-0.007 -0.172,-0.052 -0.259,-0.081 -0.098,-0.034 -0.194,-0.088 -0.295,-0.099 -0.15,-0.018 -0.293,-0.035 -0.431,-0.112 -0.105,-0.059 -0.17,-0.018 -0.206,0.098 -0.021,0.069 -0.031,0.142 -0.06,0.206 -0.121,0.27 -0.268,0.522 -0.453,0.755 -0.139,0.176 -0.142,0.212 0.016,0.366 0.384,0.372 0.593,0.839 0.756,1.334 0.066,0.198 -0.043,0.494 -0.232,0.572 -0.154,0.065 -0.322,0.112 -0.488,0.129 -0.154,0.018 -0.313,-0.012 -0.469,-0.023 -0.077,-0.004 -0.163,-0.039 -0.216,0.045 -0.05,0.081 0.001,0.148 0.049,0.213 0.031,0.042 0.057,0.088 0.078,0.136 0.088,0.203 0.179,0.405 0.257,0.612 0.043,0.114 0.061,0.237 0.09,0.356 0.015,0.063 0.01,0.137 0.043,0.187 0.143,0.217 0.193,0.466 0.263,0.708 0.042,0.144 0.059,0.178 0.211,0.17 0.117,-0.007 0.218,0.02 0.314,0.085 0.043,0.029 0.094,0.05 0.143,0.062 0.195,0.048 0.335,0.172 0.463,0.316 0.074,0.084 0.141,0.172 0.214,0.257 0.226,0.263 0.282,0.566 0.203,0.899 -0.021,0.089 -0.044,0.178 0.024,0.266 0.032,0 0.067,0.009 0.094,-0.001 0.134,-0.052 0.25,-0.033 0.368,0.054 0.06,0.045 0.144,0.057 0.216,0.088 0.089,0.038 0.19,0.064 0.262,0.123 0.217,0.179 0.431,0.363 0.629,0.562 0.148,0.149 0.262,0.327 0.277,0.55 0.003,0.038 0.015,0.08 0.036,0.111 0.13,0.187 0.122,0.394 0.093,0.605 -0.012,0.077 -0.022,0.157 -0.017,0.234 0.009,0.158 -0.022,0.298 -0.12,0.424 -0.083,0.108 -0.074,0.215 0.011,0.323 0.236,0.306 0.202,0.652 0.061,0.966 -0.171,0.38 -0.453,0.683 -0.832,0.886 -0.126,0.067 -0.252,0.106 -0.393,0.107 -0.22,10e-4 -0.322,-0.155 -0.224,-0.352 0.027,-0.057 0.074,-0.11 0.125,-0.148 0.088,-0.067 0.185,-0.122 0.279,-0.182 0.172,-0.106 0.33,-0.221 0.311,-0.458 -10e-4,-0.024 0.006,-0.053 0.017,-0.076 0.069,-0.145 0.059,-0.287 0.002,-0.436 -0.039,-0.104 -0.061,-0.227 0.024,-0.318 0.141,-0.152 0.179,-0.345 0.241,-0.531 0.058,-0.172 0.044,-0.334 -0.039,-0.493 -0.028,-0.052 -0.072,-0.107 -0.071,-0.161 0.003,-0.234 -0.126,-0.386 -0.293,-0.523 -0.041,-0.033 -0.064,-0.087 -0.105,-0.117 -0.185,-0.143 -0.357,-0.319 -0.566,-0.41 -0.176,-0.076 -0.354,-0.122 -0.475,-0.282 -0.01,-0.014 -0.035,-0.014 -0.055,-0.021 -0.19,0.083 -0.277,0.254 -0.358,0.425 -0.129,0.274 -0.337,0.483 -0.566,0.665 -0.293,0.231 -0.602,0.442 -0.904,0.66 -0.257,0.184 -0.529,0.344 -0.849,0.377 -0.346,0.036 -0.576,0.341 -0.495,0.676 0.036,0.152 0.059,0.308 0.093,0.461 0.014,0.055 0.03,0.117 0.065,0.16 0.18,0.215 0.367,0.425 0.552,0.636 0.065,0.074 0.145,0.1 0.245,0.097 0.17,-0.006 0.34,0.003 0.51,0 0.064,-10e-4 0.141,0.006 0.191,-0.025 0.198,-0.125 0.394,-0.256 0.58,-0.398 0.283,-0.215 0.372,-0.56 0.537,-0.852 0.068,-0.121 -0.024,-0.245 -0.163,-0.235 -0.143,0.011 -0.284,0.045 -0.425,0.07 -0.11,0.018 -0.218,0.047 -0.328,0.055 -0.16,0.011 -0.308,0.042 -0.449,0.124 -0.149,0.088 -0.319,0.121 -0.492,0.103 -0.127,-0.014 -0.161,-0.085 -0.093,-0.19 0.089,-0.137 0.19,-0.263 0.349,-0.335 0.159,-0.074 0.319,-0.151 0.469,-0.244 0.105,-0.066 0.209,-0.095 0.331,-0.099 0.228,-0.008 0.459,-0.017 0.684,-0.052 0.143,-0.021 0.272,-0.013 0.403,0.035 0.18,0.066 0.226,0.131 0.222,0.323 -0.003,0.163 -0.025,0.327 -0.012,0.49 0.023,0.306 -0.09,0.57 -0.252,0.809 -0.225,0.331 -0.493,0.627 -0.873,0.796 -0.077,0.034 -0.146,0.087 -0.214,0.138 -0.027,0.021 -0.041,0.059 -0.061,0.089 0.361,0.235 0.381,0.229 0.752,0.253 0.212,0.013 0.36,-0.062 0.499,-0.211 0.082,-0.09 0.187,-0.163 0.292,-0.228 0.093,-0.057 0.163,-0.022 0.195,0.083 0.033,0.111 0.023,0.222 -0.037,0.323 -0.083,0.141 -0.172,0.281 -0.32,0.365 -0.129,0.074 -0.265,0.139 -0.392,0.219 -0.19,0.119 -0.38,0.112 -0.584,0.043 -0.11,-0.037 -0.227,-0.06 -0.343,-0.069 -0.168,-0.014 -0.321,-0.051 -0.453,-0.163 -0.119,-0.102 -0.24,-0.203 -0.369,-0.292 -0.134,-0.091 -0.269,-0.213 -0.419,-0.242 -0.22,-0.042 -0.399,-0.149 -0.544,-0.289 -0.342,-0.332 -0.682,-0.675 -0.765,-1.18 -0.003,-0.019 -0.008,-0.039 -0.017,-0.056 -0.13,-0.25 -0.137,-0.516 -0.103,-0.786 0.015,-0.12 -0.021,-0.203 -0.129,-0.258 -0.168,-0.087 -0.341,-0.167 -0.466,-0.32 -0.016,-0.019 -0.042,-0.032 -0.065,-0.043 -0.072,-0.034 -0.14,-0.021 -0.153,0.06 -0.029,0.192 -0.171,0.322 -0.247,0.488 -0.183,0.397 -0.462,0.734 -0.762,1.041 -0.288,0.295 -0.584,0.61 -1.026,0.688 -0.246,0.157 -0.518,0.153 -0.797,0.151 -0.18,-0.002 -0.361,0.044 -0.542,0.063 -0.096,0.009 -0.195,0.02 -0.288,0.004 -0.136,-0.022 -0.266,-0.071 -0.398,-0.103 -0.237,-0.057 -0.296,-0.015 -0.349,0.232 -0.019,0.088 -0.034,0.184 -0.079,0.26 -0.113,0.191 -0.228,0.384 -0.366,0.555 -0.283,0.352 -0.58,0.694 -0.937,0.975 -0.125,0.099 -0.17,0.217 -0.164,0.375 0.01,0.242 0.01,0.485 -0.104,0.71 -0.023,0.045 -0.036,0.104 -0.03,0.153 0.036,0.279 -0.091,0.511 -0.214,0.741 C 19.081,1.633 18.966,1.826 18.76,1.848 18.524,1.872 18.277,1.845 18.042,1.796 17.875,1.762 17.719,1.66 17.562,1.579 17.256,1.418 16.951,1.252 16.647,1.085 16.587,1.052 16.525,1.017 16.465,1.061 16.329,1.16 16.169,1.153 16.016,1.181 15.836,1.216 15.656,1.246 15.477,1.286 15.262,1.335 15.051,1.336 14.838,1.273 14.745,1.247 14.644,1.246 14.548,1.238 14.476,1.232 14.399,1.251 14.333,1.231 14.102,1.161 13.867,1.174 13.632,1.166 13.518,1.162 13.419,1.128 13.321,1.067 13.235,1.014 13.127,0.988 13.026,0.973 12.901,0.955 12.857,0.996 12.807,1.12 12.701,1.385 12.554,1.62 12.304,1.777 12.266,1.8 12.229,1.829 12.194,1.859 12.088,1.948 12.083,2.01 12.147,2.131 c 0.073,0.139 0.135,0.282 0.209,0.419 0.168,0.319 0.11,0.65 0.06,0.98 -0.014,0.095 -0.09,0.183 -0.094,0.276 C 12.313,4.002 12.259,4.176 12.155,4.34 12.092,4.438 12.036,4.542 11.989,4.649 11.907,4.833 11.784,4.982 11.637,5.115 11.5,5.239 11.358,5.355 11.23,5.486 10.874,5.847 10.436,6.072 9.974,6.264 9.805,6.335 9.639,6.404 9.452,6.411 9.409,6.411 9.368,6.443 9.325,6.457 9.227,6.491 9.13,6.529 9.029,6.552 8.934,6.574 8.831,6.566 8.738,6.595 8.333,6.726 7.917,6.749 7.496,6.732 7.123,6.717 6.748,6.726 6.38,6.679 6.082,6.641 5.787,6.582 5.487,6.562 5.258,6.547 5.038,6.491 4.814,6.437 4.577,6.379 4.333,6.375 4.107,6.243 3.943,6.148 3.739,6.108 3.548,6.076 3.381,6.048 3.256,5.964 3.132,5.869 3.018,5.781 3.007,5.704 3.082,5.581 3.113,5.531 3.158,5.487 3.177,5.433 3.225,5.292 3.332,5.216 3.454,5.144 3.571,5.075 3.678,4.987 3.786,4.904 3.916,4.803 4.041,4.7 4.168,4.597 4.386,4.419 4.605,4.243 4.818,4.06 4.924,3.97 4.899,3.897 4.761,3.858 4.711,3.844 4.659,3.835 4.61,3.817 4.228,3.668 3.845,3.518 3.464,3.367 3.385,3.336 3.312,3.295 3.234,3.262 3.175,3.237 3.114,3.201 3.052,3.198 2.871,3.188 2.707,3.131 2.549,3.048 2.41,2.975 2.269,2.908 2.13,2.834 1.872,2.694 1.608,2.563 1.362,2.405 1.06,2.21 0.777,1.989 0.482,1.784 0.107,1.523 -0.199,1.192 -0.476,0.833 -0.586,0.689 -0.694,0.537 -0.769,0.372 -0.881,0.127 -0.889,-0.206 -0.638,-0.4 c 0.146,-0.114 0.329,-0.179 0.499,-0.262" fill="#181716" transform="matrix(1.33333 0 0 -1.33333 20.056 17.73)"/><path style="mix-blend-mode:multiply" d="m 0,0 c 0.066,0.192 0.135,0.208 0.308,0.102 0.039,-0.024 0.075,-0.065 0.117,-0.07 0.411,-0.053 0.787,-0.28 1.222,-0.23 0.225,0.026 0.456,-0.003 0.685,-0.011 0.051,-0.002 0.106,-0.008 0.154,-0.028 0.218,-0.089 0.445,-0.097 0.675,-0.091 0.099,0.002 0.197,0.002 0.295,-0.008 0.224,-0.021 0.441,0.016 0.66,0.069 0.157,0.037 0.321,0.061 0.483,0.065 0.257,0.007 0.507,0.022 0.754,0.107 0.116,0.04 0.243,0.046 0.364,0.075 0.12,0.029 0.238,0.065 0.356,0.101 0.037,0.011 0.073,0.043 0.109,0.042 0.286,-0.006 0.54,0.139 0.817,0.18 0.089,0.014 0.182,0.036 0.259,0.08 0.105,0.059 0.206,0.103 0.33,0.108 0.063,0.003 0.128,0.054 0.186,0.094 0.13,0.092 0.181,0.094 0.283,-0.026 0.162,-0.188 0.328,-0.375 0.47,-0.577 0.186,-0.264 0.448,-0.395 0.742,-0.478 0.07,-0.02 0.159,-0.009 0.227,0.019 0.185,0.075 0.347,0.194 0.453,0.364 0.144,0.232 0.293,0.465 0.402,0.715 0.091,0.212 0.127,0.45 0.189,0.675 0.026,0.094 0.056,0.187 0.085,0.28 0.024,0.074 0.063,0.145 0.072,0.221 0.02,0.175 0.12,0.294 0.267,0.362 0.219,0.102 0.402,0.243 0.56,0.421 0.018,0.02 0.036,0.039 0.056,0.055 0.085,0.06 0.166,0.03 0.159,-0.074 C 11.729,2.381 11.71,2.217 11.665,2.062 11.596,1.833 11.497,1.613 11.42,1.385 11.34,1.148 11.235,0.926 11.091,0.722 11.004,0.6 10.926,0.472 10.846,0.345 10.676,0.075 10.456,-0.149 10.203,-0.336 9.976,-0.502 9.741,-0.661 9.494,-0.791 9.277,-0.905 9.065,-1.033 8.816,-1.089 8.543,-1.15 8.282,-1.258 8.014,-1.339 7.927,-1.365 7.833,-1.368 7.743,-1.381 7.659,-1.393 7.566,-1.384 7.492,-1.418 7.261,-1.526 7.018,-1.557 6.769,-1.572 6.73,-1.575 6.689,-1.578 6.654,-1.591 6.089,-1.808 5.493,-1.744 4.929,-1.791 4.4,-1.766 3.89,-1.746 3.381,-1.716 3.293,-1.711 3.199,-1.685 3.12,-1.644 2.994,-1.576 2.867,-1.539 2.725,-1.548 2.546,-1.558 2.374,-1.53 2.209,-1.454 2.179,-1.441 2.147,-1.427 2.116,-1.426 1.816,-1.418 1.553,-1.282 1.278,-1.188 1.137,-1.14 1.003,-1.068 0.867,-1.005 0.667,-0.911 0.465,-0.821 0.27,-0.717 -0.153,-0.488 -0.142,-0.413 0,0 M 8.728,0.954 C 8.968,0.96 9.143,1.14 9.373,1.174 9.432,1.182 9.483,1.24 9.541,1.269 9.656,1.326 9.774,1.378 9.89,1.432 9.902,1.418 9.914,1.405 9.926,1.391 9.879,1.192 9.861,0.992 9.769,0.795 9.686,0.617 9.6,0.445 9.49,0.283 9.358,0.087 9.216,0.081 9.068,0.262 8.96,0.393 8.849,0.521 8.74,0.651 8.706,0.692 8.67,0.731 8.648,0.777 8.604,0.869 8.633,0.951 8.728,0.954 M -0.644,1.545 C -0.734,1.385 -0.741,1.221 -0.648,1.059 -0.605,0.983 -0.566,0.902 -0.613,0.817 -0.693,0.673 -0.685,0.518 -0.696,0.361 c -0.016,-0.24 0.014,-0.485 -0.101,-0.713 -0.185,-0.367 -0.282,-0.758 -0.286,-1.17 0,-0.047 0.019,-0.094 0.036,-0.168 0.295,0.167 0.591,0.28 0.71,0.605 0.161,-0.028 0.276,-0.11 0.371,-0.203 0.381,-0.375 0.893,-0.504 1.353,-0.728 0.028,-0.014 0.064,-0.015 0.097,-0.013 0.126,0.01 0.223,-0.047 0.32,-0.122 0.194,-0.151 0.401,-0.261 0.666,-0.236 0.104,0.01 0.225,-0.017 0.32,-0.065 0.147,-0.072 0.295,-0.101 0.454,-0.098 0.085,10e-4 0.17,-0.008 0.254,-0.018 0.279,-0.032 0.557,-0.08 0.836,-0.097 0.268,-0.017 0.537,0.002 0.805,-0.004 0.269,-0.006 0.534,0.011 0.799,0.069 0.165,0.036 0.338,0.03 0.507,0.053 0.153,0.02 0.311,0.039 0.458,0.086 0.134,0.043 0.259,0.069 0.401,0.053 0.231,-0.027 0.451,0.013 0.665,0.122 0.208,0.105 0.432,0.178 0.649,0.265 0.03,0.012 0.061,0.022 0.09,0.036 0.286,0.141 0.568,0.293 0.859,0.424 0.489,0.218 0.908,0.542 1.33,0.861 0.077,0.058 0.137,0.14 0.199,0.216 0.153,0.187 0.309,0.373 0.45,0.569 0.125,0.174 0.243,0.354 0.341,0.543 0.091,0.172 0.149,0.36 0.221,0.542 0.111,0.281 0.254,0.557 0.192,0.876 -0.005,0.025 0.004,0.053 0.012,0.078 0.114,0.312 0.11,0.628 0.031,0.946 -0.033,0.133 0.005,0.246 0.096,0.342 0.04,0.044 0.087,0.08 0.126,0.124 0.154,0.18 0.272,0.383 0.354,0.604 0.032,0.089 0.03,0.18 -0.023,0.265 C 12.835,4.499 12.757,4.526 12.642,4.501 12.542,4.48 12.537,4.409 12.521,4.326 12.506,4.241 12.478,4.139 12.418,4.083 12.11,3.791 11.792,3.508 11.473,3.229 11.33,3.104 11.178,2.99 11.023,2.88 10.837,2.749 10.651,2.612 10.451,2.504 10.13,2.331 9.798,2.178 9.47,2.018 9.335,1.952 9.2,1.885 9.062,1.828 8.851,1.743 8.637,1.666 8.425,1.584 8.182,1.491 7.941,1.392 7.697,1.304 7.495,1.232 7.288,1.174 7.085,1.107 7.06,1.1 7.04,1.079 7.016,1.071 6.906,1.032 6.798,0.98 6.684,0.961 6.383,0.911 6.104,0.765 5.793,0.76 5.793,0.76 5.78,0.758 5.774,0.754 5.621,0.651 5.443,0.647 5.267,0.628 5.138,0.615 5.012,0.575 4.883,0.55 4.736,0.522 4.589,0.483 4.44,0.478 3.937,0.462 3.433,0.464 2.93,0.449 2.808,0.445 2.682,0.42 2.569,0.377 2.395,0.31 2.225,0.297 2.049,0.34 1.652,0.438 1.251,0.48 0.843,0.461 0.608,0.45 0.389,0.508 0.18,0.609 0.036,0.677 -0.046,0.783 -0.053,0.944 -0.055,0.996 -0.064,1.049 -0.062,1.101 -0.053,1.28 -0.123,1.432 -0.227,1.572 -0.363,1.754 -0.532,1.746 -0.644,1.545" fill="#181716" transform="matrix(1.33333 0 0 -1.33333 32.95 31.834)"/><path style="mix-blend-mode:multiply" d="m 0,0 c -0.022,-0.024 -0.039,-0.052 -0.056,-0.08 -0.113,-0.174 -0.268,-0.305 -0.441,-0.413 -0.256,-0.158 -0.514,-0.312 -0.773,-0.463 -0.113,-0.066 -0.229,-0.129 -0.346,-0.185 -0.329,-0.158 -0.659,-0.312 -0.988,-0.466 -0.035,-0.017 -0.075,-0.025 -0.111,-0.037 -0.079,-0.028 -0.158,-0.055 -0.236,-0.085 -0.066,-0.025 -0.13,-0.065 -0.199,-0.079 -0.254,-0.055 -0.478,-0.214 -0.747,-0.209 0,0 -0.026,-0.006 -0.037,-0.013 -0.18,-0.121 -0.384,-0.103 -0.587,-0.111 -0.293,-0.011 -0.589,-0.012 -0.865,-0.143 -0.072,-0.035 -0.168,-0.047 -0.248,-0.036 -0.348,0.05 -0.691,-0.021 -1.036,-0.026 -0.046,0 -0.092,-0.004 -0.138,-0.009 -0.063,-0.006 -0.126,-0.032 -0.122,-0.101 0.003,-0.05 0.032,-0.125 0.071,-0.143 0.192,-0.092 0.369,-0.221 0.603,-0.212 0.135,0.005 0.272,-0.028 0.407,-0.05 0.246,-0.038 0.49,-0.08 0.753,-0.124 0.161,0.032 0.333,0.067 0.505,0.098 0.154,0.027 0.309,0.069 0.463,0.067 0.324,-0.007 0.595,0.182 0.906,0.219 0.012,10e-4 0.022,0.016 0.034,0.02 0.078,0.03 0.156,0.06 0.236,0.087 0.08,0.026 0.166,0.039 0.243,0.072 0.227,0.097 0.451,0.199 0.677,0.301 0.088,0.041 0.173,0.092 0.264,0.126 0.278,0.104 0.541,0.228 0.739,0.46 0.03,0.035 0.067,0.066 0.106,0.088 0.23,0.132 0.411,0.322 0.598,0.505 0.231,0.225 0.403,0.497 0.558,0.777 C 0.281,-0.076 0.262,0.002 0.192,0.042 0.116,0.085 0.054,0.058 0,0" fill="#181716" transform="matrix(1.33333 0 0 -1.33333 47.519 36.201)"/><path style="mix-blend-mode:multiply" d="m 0,0 -6.58,-0.146 -0.025,-7.039 -3.354,0.442 0.98,8.469 10.335,0.115 1.625,-1.458 0.203,-7.708 -4.303,0.069 0.191,3 1.62,-0.584 z" fill="#181716" transform="matrix(1.33333 0 0 -1.33333 21.283 118.083)"/><path style="mix-blend-mode:multiply" d="M 0,0 -0.238,2.189 12.202,1.863 12.082,0.05 Z" fill="#181716" transform="matrix(1.33333 0 0 -1.33333 9.11 114.656)"/><path style="mix-blend-mode:multiply" d="m 0,0 0.302,1.774 -3.563,0.2 0.299,-1.9 z" fill="#181716" transform="matrix(1.33333 0 0 -1.33333 18.968 113.288)"/><path style="mix-blend-mode:multiply" d="m 0,0 -0.053,-1.496 -1.625,0.301 -0.121,0.97 z m -3.639,1.284 0.273,-4.107 5.131,0.145 0.19,2.949 -0.988,0.908 z" fill="#181716" transform="matrix(1.33333 0 0 -1.33333 18.24 123.356)"/><path style="mix-blend-mode:multiply" d="M 0,0 -0.434,2.459 -3.497,2.473 -2.133,-0.19 Z" fill="#181716" transform="matrix(1.33333 0 0 -1.33333 15.631 116.603)"/><path style="mix-blend-mode:multiply" d="m 0,0 1.192,2.302 -2.957,0.264 -0.41,-2.648 z" fill="#181716" transform="matrix(1.33333 0 0 -1.33333 21.592 116.59)"/><path style="mix-blend-mode:multiply" d="M 0,0 0.262,-3.279 4.374,-3.885 4.432,-1.782 1.941,-2.156 2.24,-0.202 Z" fill="#181716" transform="matrix(1.33333 0 0 -1.33333 17.071 116.653)"/><path style="mix-blend-mode:multiply" d="m 0,0 -2.323,-2.185 1.875,-1.25 1.709,2.212 z" fill="#181716" transform="matrix(1.33333 0 0 -1.33333 14.814 117.926)"/><path style="mix-blend-mode:multiply" d="M 0,0 -0.203,1.315 7.118,1.117 7.079,0.158 Z" fill="#181716" transform="matrix(1.33333 0 0 -1.33333 15.441 143.397)"/><path style="mix-blend-mode:multiply" d="m 0,0 0.051,-1.602 -4.297,0.201 0.127,0.938 z m -6.236,0.91 0.359,-3.466 7.645,-0.116 0.486,2.891 -0.793,0.826 z" fill="#181716" transform="matrix(1.33333 0 0 -1.33333 22.645 137.67)"/><path style="mix-blend-mode:multiply" d="m 0,0 0.037,1.098 -8.095,0.123 0.077,-1.639 z" fill="#181716" transform="matrix(1.33333 0 0 -1.33333 25.34 145.406)"/><path style="mix-blend-mode:multiply" d="m 0,0 -1.891,2.3 1.179,0.077 0.062,2.265 -1.219,0.037 0.195,1.793 -2.177,0.265 0.12,-2.004 -1.661,0.006 0.233,-2.782 1.478,0.118 -2.249,-2.944 1.26,-2.682 h 0.042 l 1.354,3.508 -0.657,-5.951 2.713,0.07 -0.736,5.915 0.672,-1.781 h 0.043 z" fill="#181716" transform="matrix(1.33333 0 0 -1.33333 15.68 141.746)"/><path style="mix-blend-mode:multiply" d="M 0,0 8.088,0.38 8.044,1.9 -0.16,2.251 Z" fill="#181716" transform="matrix(1.33333 0 0 -1.33333 14.608 135.872)"/><path style="mix-blend-mode:multiply" d="m 0,0 0.391,-2.327 -1.165,0.395 -0.018,-2.239 3.098,0.185 0.053,3.939 z" fill="#181716" transform="matrix(1.33333 0 0 -1.33333 18.445 144.265)"/><path style="mix-blend-mode:multiply" d="m 0,0 -1.998,-2.107 1.959,-1.479 1.198,2.718 z" fill="#181716" transform="matrix(1.33333 0 0 -1.33333 16.192 145.27)"/><path style="mix-blend-mode:multiply" d="m 0,0 -1.338,-1.28 1.469,-2.31 2.041,1.768 z" fill="#181716" transform="matrix(1.33333 0 0 -1.33333 23.153 145.321)"/><path style="mix-blend-mode:multiply" d="M 0,0 0.399,-4.01 H 1.415 V 0.06 Z" fill="#181716" transform="matrix(1.33333 0 0 -1.33333 17.682 135.053)"/><path style="mix-blend-mode:multiply" d="m 0,0 -0.134,-4.12 h 1.012 l 0.614,4.117 z" fill="#181716" transform="matrix(1.33333 0 0 -1.33333 20.402 134.66)"/><path style="mix-blend-mode:multiply" d="m 0,0 -1.931,2.196 1.134,0.078 0.063,2.262 -1.218,0.037 0.195,1.792 -2.175,0.264 0.119,-2.001 -1.659,0.006 0.234,-2.78 1.476,0.118 -2.247,-2.941 1.259,-2.679 h 0.042 l 1.306,3.504 h 0.047 l -0.657,-5.944 2.838,0.07 -0.777,5.909 h 0.046 l 0.76,-2.074 h -0.004 z" fill="#181716" transform="matrix(1.33333 0 0 -1.33333 73.572 141.569)"/><path style="mix-blend-mode:multiply" d="M 0,0 -0.177,0.997 5.854,1.093 5.825,-0.062 Z" fill="#181716" transform="matrix(1.33333 0 0 -1.33333 74.872 144.252)"/><path style="mix-blend-mode:multiply" d="M 0,0 -0.02,1.17 -5.789,1 -5.686,0.179 Z" fill="#181716" transform="matrix(1.33333 0 0 -1.33333 82.68 146.389)"/><path style="mix-blend-mode:multiply" d="M 0,0 -1.525,-2.646 0.899,-3.41 2.082,-0.423 Z" fill="#181716" transform="matrix(1.33333 0 0 -1.33333 74.164 132.682)"/><path style="mix-blend-mode:multiply" d="M 0,0 6.187,0.288 6.127,-1.84 -0.119,-1.289 Z" fill="#181716" transform="matrix(1.33333 0 0 -1.33333 74.55 134.054)"/><path style="mix-blend-mode:multiply" d="m 0,0 -8.037,-0.081 0.129,-1.55 8.068,-0.063 z" fill="#181716" transform="matrix(1.33333 0 0 -1.33333 83.016 137.323)"/><path style="mix-blend-mode:multiply" d="M 0,0 -0.425,3.999 4.23,3.859 4.276,5.247 -1.552,5.16 -2.617,4.096 -2.691,-1.658 4.45,-1.944 4.524,0.189 Z" fill="#181716" transform="matrix(1.33333 0 0 -1.33333 77.303 147.323)"/><path style="mix-blend-mode:multiply" d="M 0,0 -0.419,5.024 -2.076,4.929 -2.264,-0.04 Z" fill="#181716" transform="matrix(1.33333 0 0 -1.33333 81.5 148.133)"/><path style="mix-blend-mode:multiply" d="M 0,0 0.634,1.852 2.692,1.76 1.572,-0.082 Z" fill="#181716" transform="matrix(1.33333 0 0 -1.33333 78.715 141.191)"/><path style="mix-blend-mode:multiply" d="m 0,0 -4.826,-5.2 0.862,-2.963 h 0.043 l 5.549,7.666 z" fill="#181716" transform="matrix(1.33333 0 0 -1.33333 78.297 134.835)"/><path style="mix-blend-mode:multiply" d="M 0,0 -3.55,0.74 -1.889,8.738 4.048,9.024 6.096,7.153 6.342,0.03 1.788,0.135 2.043,2.415 3.419,2.044 3.111,6.91 0.195,6.88 Z" fill="#181716" transform="matrix(1.33333 0 0 -1.33333 73.127 127.98)"/><path style="mix-blend-mode:multiply" d="M 0,0 -0.383,2.803 12.179,2.324 12.012,0.423 Z" fill="#181716" transform="matrix(1.33333 0 0 -1.33333 66.859 115.262)"/><path style="mix-blend-mode:multiply" d="m 0,0 -5.718,-6.849 2.113,-2.13 5.866,8.307 z" fill="#181716" transform="matrix(1.33333 0 0 -1.33333 73.02 110.069)"/><path style="mix-blend-mode:multiply" d="m 0,0 -4.677,-0.393 0.06,1.612 4.572,-0.21 z" fill="#181716" transform="matrix(1.33333 0 0 -1.33333 78.749 123.743)"/><path style="mix-blend-mode:multiply" d="m 0,0 -4.541,-0.09 0.045,1.372 4.451,-0.226 z" fill="#181716" transform="matrix(1.33333 0 0 -1.33333 78.385 121.259)"/><g style="mix-blend-mode:multiply"><path style="mix-blend-mode:multiply" d="m 0,0 c 0,-0.154 -0.281,-0.742 -0.307,-0.896 -0.025,-0.153 -0.87,-0.998 -0.896,-1.074 -0.025,-0.076 -0.69,-0.717 -0.767,-0.844 -0.076,-0.128 -0.869,-0.461 -0.972,-0.537 -0.102,-0.077 -1.151,-0.358 -1.356,-0.486 -0.204,-0.128 -2.762,-0.18 -2.762,-0.18 h -1.126 l -1.817,0.282 -2.481,1.1 0.077,0.486 0.205,0.691 c 0,0 0.511,-0.231 0.588,-0.256 0.076,-0.025 0.819,-0.18 0.972,-0.18 0.154,0 1.432,-0.076 1.611,-0.05 0.179,0.025 0.845,0.025 1.023,0.025 h 0.512 c 0.077,0 2.098,0.537 2.098,0.537 0,0 2.533,0.896 2.661,0.947 0.128,0.051 0.998,0.537 1.125,0.46 0.088,-0.052 1.101,1.126 1.407,1.024 C -0.205,1.049 0,0.154 0,0 m 14.113,-8.527 c -0.102,0.068 -0.205,0.989 -0.205,0.989 0,0 -0.17,0.921 -0.238,1.125 -0.069,0.205 -0.171,0.989 -0.205,1.16 -0.034,0.171 -0.102,1.194 -0.137,1.364 -0.034,0.171 -0.102,1.092 -0.204,1.058 -0.103,-0.034 -0.205,0.273 -0.205,0.273 0,0 -0.615,0.034 -0.751,-0.034 -0.136,-0.068 -0.614,-0.444 -0.75,-0.41 -0.137,0.034 -0.478,-0.307 -0.58,-0.307 -0.102,0 -0.341,-0.239 -0.512,-0.409 C 10.156,-3.889 9.781,-4.537 9.712,-4.639 9.645,-4.742 9.44,-5.253 9.44,-5.253 c 0,0 -0.375,-0.204 -0.512,-0.204 -0.136,0 -0.882,-0.15 -0.989,-0.137 -0.273,0.034 -0.477,0.341 -0.477,0.341 l -0.137,0.307 0.58,0.853 c 0,0 0.349,0.776 0.273,0.852 -0.307,0.308 -0.921,0.444 -1.024,0.478 -0.102,0.034 -0.443,-0.034 -0.443,-0.034 0,0 0.068,0.375 0.102,0.58 0.034,0.205 0.171,0.682 0.171,0.784 0,0.103 0.239,0.58 0.239,0.58 0,0 0.955,0.171 1.023,0.273 0.068,0.102 0.41,0.239 0.477,0.375 0.069,0.137 0.239,0.58 0.239,0.716 0,0.137 -0.136,0.614 -0.136,0.614 0,0 0.921,0.137 0.955,0.273 0.034,0.136 0.443,0.478 0.545,0.58 0.103,0.102 0.444,0.478 0.478,0.614 0.034,0.137 0.171,0.819 0.136,1.024 -0.034,0.205 -0.102,0.511 -0.102,0.614 0,0.102 0.034,0.409 0.068,0.682 0.034,0.273 0,0.545 -0.068,0.716 -0.068,0.171 -0.273,0.443 -0.341,0.58 -0.068,0.136 -0.477,0.375 -0.58,0.443 -0.102,0.068 -0.511,0.102 -0.511,0.102 0,0 -0.239,0.41 -0.341,0.546 C 8.962,7.435 8.417,7.572 8.383,7.708 8.348,7.845 7.598,7.981 7.496,7.947 7.393,7.913 6.711,7.606 6.711,7.606 L 6.063,7.026 5.619,6.719 c 0,0 -0.545,-0.341 -0.648,-0.375 C 4.869,6.31 4.63,5.833 4.562,5.73 4.494,5.628 4.357,4.946 4.426,4.844 4.494,4.741 4.051,4.366 4.051,4.366 L 3.777,4.161 3.198,5.253 2.584,6.003 1.629,6.378 c 0,0 -0.888,0.068 -1.024,0.068 -0.136,0 -0.785,-0.068 -0.785,-0.068 0,0 -0.272,0.614 -0.272,0.716 0,0.103 -0.341,0.546 -0.478,0.717 -0.136,0.17 -0.614,0.477 -0.614,0.477 -0.272,0.273 -0.409,0.171 -0.409,0.171 l -0.136,1.399 c 0,0 -0.205,0.579 -0.205,0.682 0,0.102 -0.273,0.443 -0.375,0.443 -0.102,0 -1.501,-0.341 -1.501,-0.341 L -5.091,10.131 -5.33,9.994 c 0,0 -0.852,0.273 -0.955,0.273 -0.102,0 -1.091,0.034 -1.194,0.034 -0.102,0 -1.023,-0.273 -1.023,-0.273 l -0.238,-0.034 -0.239,0.409 -0.273,0.307 0.307,0.989 v 0.819 l -0.205,0.614 c 0,0 -0.341,0.716 -0.443,0.75 -0.102,0.034 -1.399,1.092 -1.502,1.126 -0.102,0.034 -1.227,0.409 -1.398,0.444 -0.17,0.034 -1.125,0.068 -1.296,0.102 -0.17,0.034 -2.524,-0.205 -2.524,-0.205 l -1.194,-0.307 -0.478,-0.17 -0.954,-0.376 -0.341,-0.409 0.136,-0.239 c 0,0 0.853,-0.307 0.955,-0.444 0.103,-0.136 0.443,-0.341 0.58,-0.375 0.136,-0.034 0.341,-0.306 0.341,-0.306 l -1.262,-0.308 -1.603,-0.716 -1.125,-0.648 c 0,0 -0.785,-0.648 -0.888,-0.716 -0.102,-0.068 -0.955,-1.194 -0.955,-1.194 l -0.068,-0.375 -0.034,-0.341 c 0,0 0.238,-0.546 0.341,-0.546 0.102,0 0.58,-0.171 0.58,-0.171 0,0 0.614,-0.136 0.751,-0.068 0.136,0.068 1.296,0 1.296,0 l -0.205,-0.58 0.273,-0.307 c 0,0 0.375,-0.239 0.443,-0.273 0.069,-0.034 1.399,-0.341 1.399,-0.341 l 1.193,-0.102 1.775,0.58 0.409,0.273 0.443,0.238 0.205,-0.409 0.409,-0.205 -0.477,-0.477 c 0,0 -0.512,-0.204 -0.649,-0.204 -0.136,0 -0.75,-0.205 -0.75,-0.205 0,0 -0.683,-0.273 -0.785,-0.273 -0.102,0 -0.614,-0.307 -0.614,-0.307 l -0.136,-0.307 0.511,-0.886 0.444,-0.614 0.341,-0.274 -0.171,-0.989 -0.102,-0.58 c 0,0 -0.955,-0.92 -1.092,-0.989 -0.136,-0.068 -0.579,-1.023 -0.579,-1.023 l -0.136,-1.091 c 0,0 0.067,-0.887 0.067,-0.99 0,-0.102 0.205,-0.989 0.308,-1.126 0.102,-0.136 0.443,-0.75 0.443,-0.75 l 0.341,-0.477 -0.409,-0.205 -0.341,-0.103 -0.683,0.614 c 0,0 -0.409,0.205 -0.511,0.171 -0.102,-0.034 -0.546,-0.068 -0.648,-0.102 -0.102,-0.034 -0.444,-0.444 -0.444,-0.444 l -0.784,-0.034 c 0,0 -0.819,-0.17 -1.023,-0.273 -0.205,-0.102 -0.546,-0.477 -0.649,-0.545 -0.102,-0.068 -0.443,-0.682 -0.477,-0.819 -0.035,-0.136 0.136,-0.477 0.136,-0.682 0,-0.204 0.205,-0.443 0.205,-0.443 0.307,-0.239 0.068,-1.058 0.068,-1.058 l 0.034,-0.785 c 0,0 0,-0.17 0.137,-0.443 0.136,-0.273 0.239,-0.307 0.341,-0.409 0.102,-0.103 0.375,-0.239 0.375,-0.239 l 0.648,-1.296 c 0,0 0.342,-0.273 0.444,-0.341 0.102,-0.068 0.58,-0.102 0.682,-0.171 0.102,-0.068 0.409,-0.068 0.58,-0.136 0.171,-0.068 0.341,-0.102 0.58,-0.068 0.238,0.034 0.58,0.136 0.58,0.136 l 0.92,0.409 c 0,0 0.887,0.069 0.989,0.034 0.103,-0.034 0.615,0.069 0.751,0.069 0.137,0 0.717,0.205 0.717,0.205 0.136,0.17 1.193,0.17 1.193,0.17 l -0.238,-0.341 -0.512,-0.75 -0.443,-1.024 v -0.443 l 1.023,-0.819 c 0,0 0.955,-0.103 0.852,-0.068 -0.102,0.034 0.819,-0.069 0.819,-0.069 l 0.034,-0.341 -0.444,-1.193 -0.102,-0.614 -0.034,-0.614 0.171,-0.443 0.954,-0.103 0.853,-0.034 0.956,0.102 0.307,-0.34 -0.034,-0.41 -0.137,-1.126 0.103,-1.194 0.272,-1.227 0.41,-1.331 c 0.034,-0.068 0.648,-0.647 0.648,-0.647 0,0 0.545,-0.512 0.648,-0.546 0.102,-0.034 0.75,-0.239 0.852,-0.205 0.103,0.034 0.853,-0.102 0.955,-0.068 0.102,0.034 0.614,-0.137 0.614,-0.137 l 0.751,-0.955 0.444,-0.682 0.58,-0.512 0.852,-0.614 c 0,0 0.75,-0.136 0.716,-0.034 -0.034,0.102 0.41,0.648 0.41,0.648 0,0 0.647,0.921 0.613,1.057 -0.034,0.137 0.342,1.058 0.342,1.058 0,0 0.579,0.921 0.579,1.16 0,0.239 0.239,0.784 0.307,1.091 0.068,0.307 0.307,0.751 0.307,0.887 0,0.136 -0.068,0.989 -0.102,1.159 -0.034,0.171 -0.034,0.649 -0.171,0.717 -0.136,0.068 -0.307,0.239 -0.307,0.409 0,0.171 0.409,0.615 0.546,0.751 0.136,0.137 1.058,0.921 1.126,1.057 0.069,0.137 2.251,1.364 2.183,1.398 -0.068,0.035 0.853,0.376 0.955,0.41 0.102,0.034 1.262,0.648 1.262,0.648 l 1.365,0.614 1.909,0.819 c 0,0 0.717,0.102 0.717,0.204 0,0.103 1.5,0.307 1.603,0.342 0.102,0.034 1.194,0.443 1.194,0.443 l 0.58,0.546 c 0,0 0.443,0.648 0.375,0.784 -0.068,0.136 0.068,1.194 0.102,1.296 0.034,0.103 -0.034,2.524 -0.136,2.593" fill="#5c3867" fill-rule="evenodd" transform="matrix(1.33333 0 0 -1.33333 49.024 29.227)"/></g></g><path style="mix-blend-mode:multiply" d="M 0,0 H 67.294 V 116.026 H 0 Z" fill="none" stroke="#181716" stroke-width="1.605" stroke-miterlimit="10" transform="matrix(1.33333 0 0 -1.33333 1.07 155.771)"/></svg>