<svg xmlns="http://www.w3.org/2000/svg" width="91.865" height="156.841"><path style="mix-blend-mode:multiply" d="m 291.625,544.457 h 67.294 v 116.025 h -67.294 z" fill="#fff" transform="matrix(1.33333 0 0 -1.33333 -387.764 881.712)"/><g style="mix-blend-mode:multiply"><g style="mix-blend-mode:multiply"><path style="mix-blend-mode:multiply" d="m 0,0 -1.081,-0.329 -1.115,-0.653 -0.771,-0.703 -0.638,-0.541 -0.34,-0.25 -0.918,-1.439 -0.397,-1.012 -0.075,-0.304 -0.363,-0.501 -0.216,-0.668 -0.344,-0.54 -0.216,-0.669 -0.51,-0.667 -0.934,-0.835 -0.952,-1.111 -0.439,-0.447 -0.486,-0.692 -0.452,-1.316 -0.23,-0.959 0.236,-1.807 0.52,-0.953 1.479,-1.714 0.103,-0.143 0.27,-0.112 0.809,-0.968 0.763,-0.712 1.331,-1.027 0.677,-0.206 1.444,0.03 0.791,0.078 1.091,0.682 0.608,0.576 0.158,0.024 0.261,-0.265 0.28,-0.325 1.64,-0.716 0.678,-0.148 1.081,-0.054 1.895,0.221 1.14,0.609 0.805,0.963 0.776,1.287 0.874,2.077 0.114,0.708 -0.083,2.205 0.005,1.469 0.573,1.783 0.203,0.683 0.367,0.81 0.177,0.707 0.138,0.453 0.172,1.315 -0.074,0.53 -0.402,1.071 -0.609,0.57 -1.061,0.708 -0.845,0.334 -1.185,0.295 -1.285,-0.124 -0.241,0.06 -0.266,0.329 -0.442,0.736 -0.471,0.413 -0.384,0.501 -1.277,0.491 -1.046,0.134 z" fill="#e30015" transform="matrix(1.33333 0 0 -1.33333 56.373 8.313)"/></g><g style="mix-blend-mode:multiply"><path style="mix-blend-mode:multiply" d="m 0,0 c 0,-0.204 -0.75,-2.08 -0.75,-2.08 h -0.478 l -0.58,0.853 -0.375,0.579 c 0,0 -0.375,1.262 -0.409,1.399 -0.034,0.136 -0.171,0.92 -0.171,0.92 0,0 -0.307,2.048 -0.273,2.15 0.034,0.102 0.034,0.682 0,0.784 -0.034,0.103 0.069,0.819 0.069,0.819 l 0.307,1.637 0.409,0.75 0.443,0.307 0.989,-0.784 c 0,0 0.853,-2.422 0.921,-2.899 C 0.171,3.957 0.239,2.899 0.273,2.626 0.307,2.353 0,0.205 0,0 M -6.199,5.63 C -6.204,5.545 -6.244,5.461 -6.271,5.378 -6.286,5.335 -6.312,5.295 -6.324,5.251 -6.389,5.006 -6.452,4.759 -6.516,4.513 -6.524,4.484 -6.527,4.453 -6.54,4.428 -6.681,4.16 -6.842,3.901 -6.961,3.624 -7.065,3.381 -7.26,3.206 -7.387,2.982 -7.443,2.881 -7.534,2.797 -7.618,2.717 -7.822,2.523 -8.022,2.323 -8.243,2.151 -8.473,1.971 -8.723,1.817 -8.969,1.659 -9.116,1.564 -9.265,1.469 -9.423,1.397 -9.604,1.314 -9.796,1.257 -9.982,1.187 c -0.073,-0.028 -0.142,-0.066 -0.214,-0.094 -0.069,-0.027 -0.14,-0.05 -0.211,-0.071 -0.103,-0.031 -0.206,-0.058 -0.31,-0.086 -0.104,-0.028 -0.207,-0.058 -0.312,-0.082 -0.133,-0.031 -0.267,-0.063 -0.401,-0.086 -0.213,-0.036 -0.425,-0.076 -0.639,-0.097 -0.433,-0.043 -0.867,-0.09 -1.301,-0.104 -0.262,-0.007 -0.527,0.04 -0.79,0.068 -0.338,0.038 -0.676,0.077 -1.012,0.123 -0.185,0.025 -0.37,0.053 -0.549,0.101 -0.233,0.062 -0.463,0.138 -0.688,0.22 -0.245,0.088 -0.484,0.19 -0.726,0.287 -0.033,0.013 -0.066,0.028 -0.097,0.045 -0.166,0.096 -0.336,0.188 -0.496,0.292 -0.198,0.13 -0.39,0.271 -0.584,0.408 -0.074,0.053 -0.151,0.103 -0.22,0.162 -0.344,0.291 -0.654,0.613 -0.917,0.978 -0.148,0.206 -0.257,0.438 -0.402,0.647 -0.201,0.292 -0.268,0.643 -0.433,0.95 -0.019,0.034 -0.027,0.074 -0.037,0.112 -0.073,0.31 -0.152,0.621 -0.231,0.928 -0.108,0.428 -0.138,0.86 -0.16,1.293 -0.037,0.718 0.03,1.43 0.183,2.134 0.04,0.182 0.052,0.367 0.154,0.533 0.041,0.067 0.034,0.16 0.064,0.235 0.081,0.205 0.17,0.408 0.256,0.611 0.009,0.021 0.025,0.04 0.029,0.061 0.053,0.313 0.272,0.543 0.424,0.8 0.187,0.318 0.431,0.607 0.677,0.885 0.214,0.241 0.469,0.446 0.698,0.673 0.279,0.277 0.631,0.449 0.951,0.666 0.135,0.092 0.299,0.143 0.449,0.215 0.167,0.079 0.332,0.161 0.5,0.241 0.056,0.026 0.113,0.054 0.172,0.068 0.509,0.125 1.021,0.232 1.541,0.288 0.551,0.058 1.105,0.056 1.657,0.012 0.068,-0.005 0.133,-0.034 0.2,-0.046 0.128,-0.025 0.257,-0.045 0.385,-0.068 0.128,-0.022 0.258,-0.042 0.386,-0.068 0.14,-0.031 0.281,-0.065 0.419,-0.105 0.065,-0.018 0.126,-0.051 0.188,-0.079 0.045,-0.02 0.087,-0.045 0.133,-0.061 0.178,-0.062 0.359,-0.118 0.536,-0.184 0.066,-0.024 0.124,-0.068 0.186,-0.104 0.034,-0.02 0.066,-0.045 0.103,-0.056 0.312,-0.099 0.577,-0.287 0.844,-0.467 0.197,-0.132 0.394,-0.268 0.59,-0.403 0.035,-0.024 0.065,-0.054 0.096,-0.081 0.095,-0.084 0.192,-0.166 0.283,-0.254 0.114,-0.113 0.223,-0.229 0.332,-0.346 0.077,-0.081 0.153,-0.162 0.223,-0.249 0.119,-0.151 0.238,-0.302 0.349,-0.459 0.153,-0.22 0.306,-0.44 0.444,-0.668 0.096,-0.161 0.17,-0.336 0.25,-0.506 0.091,-0.192 0.177,-0.385 0.265,-0.577 0.009,-0.021 0.023,-0.04 0.031,-0.062 0.058,-0.179 0.126,-0.357 0.172,-0.539 0.103,-0.412 0.203,-0.825 0.288,-1.24 0.041,-0.205 0.056,-0.416 0.067,-0.625 0.01,-0.234 0.002,-0.471 0.002,-0.706 0,0 0.02,0 0.032,0 C -6.168,6.309 -6.178,5.969 -6.199,5.63 m 27.903,14.756 -0.197,0.623 -0.025,0.501 -0.206,0.796 -0.894,1.468 -0.908,0.86 -0.545,0.929 -0.334,0.255 -0.276,0.314 -0.55,0.629 -0.432,0.747 -0.634,0.545 -0.791,0.683 -1.472,0.589 -1.131,0.059 -1.757,-0.275 -0.173,0.088 -0.201,0.404 -0.398,0.486 -0.152,0.437 -0.933,1.719 -0.943,1.12 L 7.328,34.296 6.359,34.507 5.206,34.541 4.449,34.414 3.447,33.932 2.994,33.8 2.784,33.864 2.646,34.031 2.342,35.204 1.64,36.27 l -0.85,0.625 -1.331,0.436 -1.764,0.005 -0.746,-0.138 -1.76,-0.008 -2.386,0.559 -1.434,0.02 -1.174,-0.3 -2.402,-1.43 -0.889,-0.878 -0.653,-0.526 -0.275,-0.315 -0.133,-0.466 -0.142,-0.157 -0.226,-0.049 -0.87,0.324 -3.605,0.796 -0.432,-0.049 -0.708,0.053 -1.772,-0.521 -0.678,-0.205 -2.024,-0.334 -1.002,-0.766 -0.265,-0.325 -0.457,-0.427 -0.457,-0.723 -0.967,-0.8 -0.654,-0.525 -0.742,-0.732 -0.781,-0.398 -0.417,-0.761 -0.433,-0.452 -0.677,-1.091 -0.418,-1.35 -0.147,-0.148 -0.677,-0.206 -0.364,-0.227 -1.503,-0.853 -0.648,-0.531 -0.482,-0.403 -0.849,-1.802 -0.236,-1.534 0.063,-1.124 0.098,-0.791 -0.22,-0.972 0.015,-0.628 -0.216,-1.234 -0.02,-2.613 0.299,-1.468 0.364,-0.522 0.692,-0.78 0.546,-0.635 0.467,-0.417 1.498,-1.168 0.058,-0.172 1.493,-0.653 1.091,-0.614 c 0,0 0.887,0.409 0.955,0.614 0.042,0.124 0.486,0.048 0.828,-0.032 0.221,-0.052 0.4,-0.104 0.4,-0.104 l 0.887,-0.58 1.023,-1.194 0.819,-1.569 0.341,-0.956 0.512,-1.602 0.102,-0.989 0.068,-0.819 -0.034,-0.921 -0.102,-1.228 -0.41,-1.262 -0.632,-1.15 c -0.056,-0.085 -0.1,-0.162 -0.118,-0.214 -0.029,-0.046 -0.052,-0.083 -0.076,-0.122 -0.179,-0.229 -0.641,-0.739 -0.675,-0.799 -0.04,-0.073 -0.818,-0.58 -0.818,-0.58 0,0 -0.853,-0.546 -0.989,-0.546 -0.137,0 -0.614,-0.887 -0.512,-0.99 0.102,-0.102 0.921,-0.886 0.921,-0.886 0,0 1.057,-0.682 1.228,-0.751 0.17,-0.068 2.115,-0.204 2.115,-0.204 0,0 0.887,-0.102 1.023,-0.137 0.137,-0.034 1.466,0.103 1.466,0.103 0,0 0.137,0.716 0.069,0.921 -0.069,0.204 -0.069,1.125 -0.102,1.296 -0.033,0.167 0.647,1.306 0.805,1.58 0.143,0.124 0.282,0.248 0.408,0.362 0.486,0.355 1.232,0.836 1.209,0.957 -0.002,0.009 -0.005,0.037 -0.008,0.054 0.698,0.426 1.651,0.951 1.781,1.037 0.205,0.137 2.729,1.024 2.729,1.024 0,0 2.046,0.273 2.32,0.341 0.272,0.068 2.592,0.341 2.592,0.341 0,0 1.91,0.205 2.115,0.136 0.204,-0.068 1.705,-0.273 1.705,-0.273 l 1.091,-1.364 0.341,-1.91 0.273,-3.275 -0.418,-1.903 0.761,-0.354 0.997,-0.182 0.673,-0.212 0.727,-0.132 1.017,0.168 1.095,0.377 0.662,0.811 0.536,0.938 0.6,0.58 0.152,0.732 0.285,0.599 0.713,1.055 0.952,0.522 1.164,0.898 1.179,1.179 0.683,0.791 0.279,0.604 0.393,0.786 0.266,0.324 1.036,0.142 1.071,0.403 0.574,0.311 1.16,0.608 2.839,0.698 1.512,0.55 0.359,0.23 0.697,1.071 0.334,1.434 0.216,1.567 -0.162,1.032 -0.687,2.8 0.087,0.146 0.197,0.1 1.199,0.284 0.683,0.79 0.505,0.379 0.482,0.697 0.384,0.796 0.127,0.756 0.821,3.011 0.191,1.282 0.254,0.629 0.026,0.86 0.084,0.78 z" fill="#e30015" fill-rule="evenodd" transform="matrix(1.33333 0 0 -1.33333 47.238 116.139)"/></g><g style="mix-blend-mode:multiply"><path style="mix-blend-mode:multiply" d="M 0,0 -1.399,-0.35 -3.388,-1.013 -3.914,-1.372 -4.465,-1.705 -5.241,-2.402 -6.051,-3.36 -6.616,-3.679 -6.88,-4.003 -8.098,-4.847 -8.389,-5.149 -8.442,-5.388 v -1.179 l 0.137,-0.747 0.011,-1.465 -0.138,-0.746 -0.021,-2.044 -0.339,-1.429 -0.206,-0.383 -0.383,-0.205 -1.974,-0.384 -1.601,-0.462 -1.548,-0.81 -0.707,-0.177 -0.663,-0.221 -1.449,-0.318 -0.429,-0.163 -0.352,-0.531 -0.495,-2.451 0.043,-0.22 0.412,-0.482 0.487,-0.987 1.144,-1.508 1.822,-1.42 0.792,-0.976 0.637,-0.541 1.013,-1.346 0.56,-0.913 0.5,-0.678 0.487,-0.693 0.726,-1.042 1.277,-1.08 1.062,-0.707 1.316,-0.761 0.511,-0.04 0.201,0.103 0.108,0.207 0.03,0.27 -0.138,0.482 -0.29,0.299 -0.531,0.943 -0.534,1.822 -0.015,1.479 0.093,0.206 0.206,0.093 0.978,-0.103 1.119,-0.176 1.121,-0.06 2.209,-0.442 1.798,-0.56 1.268,-0.501 0.796,-0.383 1.576,-0.78 1.547,-1.105 1.621,-1.621 0.824,-0.958 0.149,-0.03 0.118,0.118 0.068,0.536 -0.146,0.755 -0.015,1.469 0.088,0.796 0.55,1.218 0.485,0.692 0.503,0.973 0.858,1.498 0.349,0.831 0.359,1.408 0.054,0.831 0.143,0.757 -0.054,0.51 0.038,0.664 -0.058,0.613 -0.074,1.282 -0.162,0.428 -0.334,1.139 -0.432,0.746 -0.481,0.699 -0.874,1.448 0.019,0.177 0.118,0.157 1.124,0.658 0.614,0.565 0.536,0.349 1.021,0.747 0.541,0.647 0.014,0.418 -0.225,0.374 -0.89,0.289 -0.707,0.477 -0.516,0.068 -0.123,0.463 -0.628,0.51 0.025,0.142 1.478,1.474 0.77,0.702 0.646,0.55 0.196,0.333 -0.026,0.213 -0.225,0.373 -0.536,0.353 -0.642,0.241 -0.64,0.246 -0.657,0.226 -0.649,0.236 -0.84,0.339 -1.149,0.618 -1.587,0.772 -0.697,0.186 -1.106,0.369 -1.424,0.344 -0.835,0.048 -0.761,0.124 z" fill="#3a3a39" transform="matrix(1.33333 0 0 -1.33333 79.804 95.52)"/></g><g style="mix-blend-mode:multiply"><path style="mix-blend-mode:multiply" d="m 0,0 -0.211,-0.035 -0.379,-0.236 -0.418,-0.466 -1.626,-1.027 -0.599,-0.284 -0.619,-0.266 -0.643,-0.24 -1.43,-0.339 -1.14,-0.334 -0.593,-0.29 -0.855,-0.324 -0.982,-0.196 -2.225,-1.018 -1.734,-0.918 -0.677,-0.501 -0.36,-0.526 -0.937,-1.124 -0.772,-0.997 -0.992,-2.25 -0.191,-0.692 -0.502,-2.446 0.006,-0.418 -0.073,-0.683 -0.025,-1.754 -0.212,-0.928 0.089,-0.397 0.152,-0.124 0.196,0.01 0.383,0.241 0.933,1.13 0.949,0.821 1.847,1.689 1.208,0.565 0.501,0.084 0.416,-0.177 0.802,-0.973 1.055,-1.302 0.571,-0.609 0.52,-0.658 0.315,-0.275 0.462,-0.142 0.524,0.054 0.728,0.457 0.796,0.382 1.193,0.28 1.14,-0.024 0.624,0.02 2.863,-0.378 1.576,-0.467 0.861,-0.025 1.017,-0.162 1.159,-0.314 1.031,-0.148 1.93,-0.427 0.741,-0.142 1.681,-0.384 1.105,-0.368 1.444,-0.62 0.54,-0.343 0.668,-0.511 0.657,-0.521 2.084,-1.453 0.879,-0.624 0.339,-0.079 0.112,0.127 0.099,0.811 -0.127,0.772 -0.688,1.965 -0.094,0.79 -0.226,0.659 -0.108,1.66 -0.658,1.7 -0.728,1.04 -1.174,1.185 -0.357,0.23 -1.764,0.595 -1.223,0.249 -0.825,0.065 -1.238,-0.241 -0.825,-0.354 -0.594,-0.255 -0.167,0.073 -0.127,0.162 -0.27,0.63 -0.581,1.188 -1.002,1.356 -1.006,1.056 -0.707,0.766 -1.981,1.263 -1.326,0.441 -0.378,0.212 -0.098,0.201 0.009,0.835 0.393,1.38 0.02,2.043 0.105,0.797 0.037,0.51 -0.107,0.207 z" fill="#3a3a39" transform="matrix(1.33333 0 0 -1.33333 71.482 52.82)"/></g><g style="mix-blend-mode:multiply"><path style="mix-blend-mode:multiply" d="m 0,0 -1.342,-0.104 -1.414,-0.368 -1.011,-0.166 -1.538,-0.527 -2.377,-0.568 -0.835,-0.045 -0.442,-0.157 -0.152,-0.157 -0.049,-0.226 0.053,-0.232 0.427,-0.476 0.718,-0.462 2.358,-0.589 0.991,-0.191 0.816,-0.183 2.22,-0.314 0.698,-0.166 0.585,-0.024 1.458,-0.31 2.49,-0.457 3.581,-0.545 3.595,-1.12 0.938,-0.536 0.114,-0.186 0.102,-1.032 0.01,-0.786 -0.05,-0.466 0.124,-0.766 v -0.885 l 0.138,-0.451 0.359,-0.821 0.22,-0.958 0.157,-0.726 0.378,-1.111 0.122,-0.334 -0.102,-0.338 v -0.658 l -0.452,-1.327 -0.335,-0.845 -1.021,-1.925 -0.618,-0.855 -0.579,-0.894 -0.929,-1.43 -0.753,-1.901 -0.519,-1.836 -0.309,-0.576 -0.153,-0.441 -0.29,-0.305 -0.162,-0.024 -0.107,0.113 0.019,0.442 0.073,0.836 0.026,1.743 0.131,0.767 -0.167,1.32 0.04,1.508 -0.467,2.191 -0.064,1.115 -0.392,1.081 -0.29,0.594 -0.26,0.624 -0.915,1.738 -1.601,2.525 -0.284,0.598 -0.59,0.885 -0.26,0.33 -0.315,0.864 -0.461,1.306 -0.364,0.541 -0.141,0.088 -0.153,-0.024 -0.285,-0.3 -0.319,-0.869 -0.683,-1.38 -0.615,-1.744 -0.436,-1.037 -0.6,-1.483 -0.147,-0.128 -0.191,0.016 -0.625,0.583 -0.481,0.403 -0.712,0.467 -1.1,0.668 -1.041,0.432 -1.336,0.138 -2.966,0.569 -1.126,0.35 -0.687,0.196 -0.605,0.28 -1.38,0.388 -2.392,1.439 -0.486,0.398 -1.17,0.894 -0.308,0.574 -1.017,0.772 -0.181,0.054 -0.183,-0.05 -0.152,-0.152 -0.088,-0.221 0.073,-1.13 0.197,-0.314 0.244,-0.358 0.35,-0.83 0.354,-1.415 0.849,-2.392 0.997,-1.95 0.447,-1.322 0.325,-1.149 0.393,-1.375 0.28,-2.593 -0.108,-0.761 -0.084,-2.152 0.074,-0.502 -0.049,-0.652 0.157,-1.233 -0.084,-0.177 -0.388,-0.215 -2.426,-0.463 -0.451,0.074 -0.203,-0.074 -0.078,-0.196 0.137,-0.457 1.136,-1.823 1.085,-2.45 0.628,-1.14 0.438,-0.742 0.554,-0.623 0.845,-0.924 0.816,-0.658 1.198,-1.17 0.344,-0.23 0.152,-0.024 1.13,0.879 0.727,0.747 0.929,0.545 1.547,0.515 1.443,0.02 0.639,-0.221 0.972,0.079 1.64,-0.438 0.822,-0.358 0.589,-0.295 1.09,-0.383 0.619,-0.28 0.471,0.064 0.158,0.147 0.221,0.663 0.673,0.801 0.319,0.566 0.668,0.805 0.771,0.702 1.759,0.894 1.591,0.481 0.496,-0.029 2.274,-0.393 0.736,-0.153 0.86,0.03 1.312,0.456 0.373,0.216 0.143,0.153 0.206,0.679 0.295,0.588 0.633,3.198 0.069,1.415 0.083,0.786 0.326,0.859 0.666,1.1 0.972,0.797 0.654,0.819 0.57,0.61 0.771,0.995 0.929,2.02 0.681,1.97 0.133,0.456 0.419,0.466 0.333,0.845 1.213,1.735 0.452,1.606 0.168,0.732 0.147,0.142 0.466,-0.044 2.407,-0.86 1.498,-0.859 1.021,-0.453 1.298,-0.766 2.018,-1.222 0.516,-0.369 0.83,-0.348 0.988,-0.487 1.679,-0.677 1.547,-0.516 2.5,-0.447 0.855,-0.03 1.198,-0.235 0.418,0.156 0.132,0.168 0.03,0.211 -0.167,0.418 -0.309,0.289 -1.145,0.624 -1.165,0.604 -1.458,1.194 -0.693,0.781 -0.456,0.722 -0.575,0.603 -1.345,2.191 -0.301,0.291 -0.795,0.382 -0.531,0.354 -1.483,0.584 -1.494,0.27 -0.83,0.055 -2.209,0.451 -0.614,0.143 -0.672,0.02 -1.274,0.215 -1.443,0.03 -1.42,0.644 -0.89,0.598 -0.205,0.036 -0.409,-0.178 -1.252,-0.815 -0.888,-0.289 -1.067,-0.113 -0.825,-0.07 -0.5,0.098 -0.348,0.242 -0.635,0.839 -0.462,0.423 -0.52,0.658 -0.776,0.698 -0.772,0.702 -1.05,1.012 -1.587,0.771 -2.293,0.947 -1.12,0.354 L 5.26,-0.58 3.836,-0.531 3.021,-0.167 1.164,0.039 Z" fill="#3a3a39" transform="matrix(1.33333 0 0 -1.33333 29.673 24.358)"/></g><g style="mix-blend-mode:multiply"><path style="mix-blend-mode:multiply" d="m 0,0 -0.565,-0.044 -0.158,-0.157 -0.028,-0.24 0.191,-0.433 1.336,-1.321 1.116,-0.949 2.342,-1.193 0.973,-0.501 1.119,-0.353 1.469,-0.595 1.081,-0.688 1.321,-1.331 0.752,-0.722 0.52,-0.658 0.953,-1.11 0.575,-0.898 0.913,-1.151 0.782,-0.406 0.48,-0.089 0.486,0.109 0.345,0.25 0.48,0.992 0.03,1.748 -0.163,0.723 -0.431,0.746 -0.536,0.939 -0.377,0.505 -0.541,0.933 -0.614,1.449 -0.255,0.924 -0.595,0.879 -0.477,0.407 -0.407,0.476 -0.314,0.276 -0.678,0.206 -0.805,0.078 -1.046,0.133 -0.472,-0.058 -0.422,0.034 -0.865,0.034 -1.041,0.138 -1.381,0.113 -2.225,0.407 -0.8,0.084 z" fill="#3a3a39" transform="matrix(1.33333 0 0 -1.33333 27.872 5.229)"/></g><g style="mix-blend-mode:multiply"><path style="mix-blend-mode:multiply" d="m 0,0 -0.978,-0.206 -1.62,-0.737 -0.526,-0.358 -0.359,-0.232 -0.383,-0.501 -0.898,-0.574 -0.801,-0.673 -0.482,-0.403 -0.118,-0.176 -0.083,-1.096 -0.344,-1.129 -0.334,-0.885 -0.014,-0.261 0.092,-0.205 0.202,-0.083 0.237,0.038 0.55,0.368 0.859,0.321 2.142,0.514 1.517,0.232 1.453,0.034 0.762,0.123 1.743,-0.034 0.766,-0.118 0.801,-0.084 1.257,-0.216 1.033,-0.147 2.037,-0.03 0.472,-0.093 1.032,0.127 1.395,0.099 0.354,0.221 0.412,0.054 0.389,0.019 0.642,0.255 0.153,0.158 0.044,0.216 -0.192,0.399 -0.313,0.283 -0.522,0.069 L 9.814,-4.327 8.227,-3.556 7.003,-3.01 5.481,-1.881 4.759,-1.13 3.512,-0.609 2.053,-0.005 0.904,-0.04 0.482,-0.078 Z" fill="#3a3a39" transform="matrix(1.33333 0 0 -1.33333 77.002 10.756)"/></g><g style="mix-blend-mode:multiply"><path style="mix-blend-mode:multiply" d="m 0,0 -0.157,0.142 -0.506,0.084 -0.864,0.02 -1.587,0.771 -0.612,0.284 C -3.757,1.109 -3.801,0.928 -3.869,0.815 -4.073,0.474 -4.414,-0.822 -4.55,-1.027 -4.687,-1.232 -5.233,-2.459 -5.437,-2.596 -5.642,-2.732 -7.143,-3.347 -7.348,-3.551 -7.552,-3.756 -9.463,-3.961 -9.667,-4.029 -9.872,-4.097 -13.692,-4.37 -13.692,-4.37 l -1.842,0.136 -2.387,0.546 -1.911,0.956 c 0,0 -0.818,1.364 -0.955,1.774 -0.136,0.409 -0.273,2.046 -0.273,2.046 0,0 -1.637,-0.068 -1.841,-0.068 -0.205,0 -2.116,0.477 -2.116,0.477 l -1.909,1.023 -0.683,0.683 -0.314,0.472 -0.624,-0.624 -1.817,-2.604 -0.599,-1.169 -0.261,-0.624 -0.889,-1.468 -1.154,-1.498 -0.761,-0.713 -0.644,-0.535 -0.462,-0.741 -0.009,-0.237 0.097,-0.196 0.207,-0.098 0.771,-0.118 1.095,-0.378 1.494,-0.275 0.191,-0.104 0.109,-0.191 0.004,-0.555 -0.413,-2.255 -0.712,-1.645 -0.599,-0.874 -1.149,-1.209 -0.187,-0.693 0.098,-0.431 0.138,-0.172 0.192,-0.084 0.427,0.109 1.213,0.569 1.242,0.82 1.224,0.546 0.948,0.525 1.291,0.476 2.638,0.605 1.139,0.039 0.762,0.122 1.449,-0.034 0.486,-0.112 1.011,0.127 0.625,-0.019 1.415,0.063 0.765,0.118 0.801,0.084 1.71,0.353 0.751,0.133 1.199,0.295 0.225,-0.01 0.31,-0.281 0.516,-1.252 0.501,-1.856 0.058,-0.835 0.148,-0.153 0.226,-0.015 0.427,0.197 0.741,0.448 0.551,0.059 0.422,0.436 0.791,0.388 2.269,1.857 0.442,0.442 1.557,1.979 0.885,1.18 0.486,0.692 0.339,0.84 0.5,0.972 0.325,0.855 0.609,1.464 0.069,0.392 0.02,0.678 0.377,2.02 -0.005,0.274 z" fill="#3a3a39" fill-rule="evenodd" transform="matrix(1.33333 0 0 -1.33333 45.666 130.505)"/></g><path style="mix-blend-mode:multiply" d="m 0,0 c -0.082,0.172 -0.177,0.339 -0.266,0.508 -0.013,0.023 -0.024,0.047 -0.032,0.071 -0.068,0.201 -0.131,0.404 -0.203,0.604 -0.084,0.235 -0.176,0.467 -0.263,0.7 -0.005,0.013 -0.012,0.025 -0.014,0.038 -0.047,0.376 -0.218,0.728 -0.221,1.113 -0.002,0.104 -0.023,0.209 -0.05,0.309 -0.092,0.349 -0.117,0.704 -0.132,1.061 -0.023,0.529 -0.049,1.059 -0.065,1.589 -0.004,0.146 0.021,0.293 0.034,0.44 0.032,0.358 0.062,0.717 0.099,1.074 0.015,0.133 0.048,0.264 0.072,0.395 0.018,0.09 0.034,0.18 0.052,0.269 0.026,0.132 0.051,0.263 0.079,0.394 0.028,0.141 0.059,0.281 0.089,0.422 0.015,0.071 0.016,0.147 0.046,0.211 0.163,0.331 0.193,0.702 0.311,1.046 0.074,0.218 0.165,0.43 0.25,0.645 0.011,0.031 0.028,0.058 0.041,0.089 0.063,0.153 0.101,0.325 0.195,0.455 0.124,0.17 0.198,0.338 0.226,0.547 0.02,0.139 0.109,0.271 0.176,0.4 0.153,0.292 0.306,0.583 0.469,0.868 0.137,0.236 0.288,0.464 0.436,0.695 0.125,0.193 0.246,0.391 0.383,0.578 0.19,0.261 0.393,0.513 0.589,0.77 0.086,0.112 0.165,0.227 0.253,0.337 0.072,0.092 0.152,0.179 0.232,0.264 0.258,0.274 0.51,0.554 0.778,0.817 0.223,0.219 0.464,0.421 0.701,0.624 0.206,0.177 0.415,0.351 0.629,0.516 0.204,0.159 0.414,0.308 0.626,0.455 0.22,0.153 0.443,0.301 0.669,0.444 0.126,0.08 0.261,0.145 0.393,0.219 0.11,0.062 0.22,0.127 0.331,0.188 0.171,0.093 0.341,0.189 0.516,0.275 0.154,0.075 0.316,0.137 0.473,0.205 0.215,0.093 0.428,0.194 0.645,0.28 0.214,0.084 0.433,0.155 0.65,0.23 0.084,0.029 0.169,0.049 0.253,0.074 0.094,0.029 0.188,0.057 0.282,0.087 0.107,0.035 0.215,0.072 0.323,0.11 0.034,0.012 0.066,0.035 0.1,0.038 0.219,0.018 0.421,0.091 0.625,0.165 0.035,0.014 0.076,0.021 0.115,0.021 0.19,0 0.367,0.05 0.541,0.123 0.065,0.027 0.14,0.034 0.211,0.044 0.256,0.035 0.512,0.071 0.767,0.1 0.287,0.034 0.573,0.069 0.86,0.09 0.499,0.036 0.999,0.074 1.498,0.087 0.267,0.007 0.535,-0.039 0.802,-0.054 0.399,-0.024 0.798,-0.037 1.197,-0.064 0.131,-0.009 0.261,-0.048 0.392,-0.075 0.128,-0.025 0.254,-0.054 0.382,-0.08 0.202,-0.039 0.403,-0.077 0.605,-0.117 0.064,-0.012 0.127,-0.026 0.19,-0.045 0.097,-0.028 0.191,-0.064 0.288,-0.091 0.125,-0.035 0.252,-0.062 0.378,-0.097 0.081,-0.022 0.159,-0.052 0.239,-0.082 0.027,-0.01 0.052,-0.027 0.079,-0.037 0.191,-0.066 0.386,-0.125 0.573,-0.199 0.205,-0.082 0.405,-0.178 0.607,-0.268 0.03,-0.013 0.057,-0.034 0.087,-0.043 0.224,-0.07 0.42,-0.193 0.616,-0.314 0.1,-0.062 0.208,-0.109 0.308,-0.17 0.32,-0.195 0.648,-0.38 0.955,-0.595 0.305,-0.213 0.592,-0.453 0.882,-0.686 0.173,-0.139 0.343,-0.283 0.503,-0.437 0.266,-0.255 0.527,-0.517 0.782,-0.783 0.188,-0.196 0.368,-0.399 0.543,-0.607 0.148,-0.174 0.284,-0.358 0.422,-0.541 0.158,-0.211 0.33,-0.416 0.462,-0.642 0.189,-0.324 0.435,-0.61 0.586,-0.959 0.062,-0.144 0.177,-0.265 0.262,-0.4 0.092,-0.146 0.183,-0.293 0.259,-0.446 0.097,-0.196 0.182,-0.398 0.265,-0.599 0.076,-0.185 0.142,-0.372 0.213,-0.558 0.03,-0.076 0.061,-0.151 0.092,-0.227 0.007,-0.018 0.021,-0.033 0.028,-0.051 0.074,-0.215 0.156,-0.428 0.219,-0.646 0.074,-0.254 0.131,-0.512 0.198,-0.768 0.01,-0.04 0.038,-0.077 0.05,-0.116 0.03,-0.093 0.058,-0.186 0.082,-0.28 C 28.344,9.899 28.363,9.79 28.387,9.681 28.42,9.529 28.456,9.377 28.488,9.223 28.518,9.077 28.547,8.929 28.57,8.781 28.604,8.555 28.646,8.329 28.659,8.102 28.681,7.697 28.707,7.29 28.686,6.886 28.668,6.519 28.583,6.156 28.537,5.789 28.508,5.562 28.502,5.333 28.476,5.106 28.454,4.908 28.415,4.712 28.387,4.515 28.362,4.34 28.348,4.164 28.32,3.99 28.296,3.843 28.256,3.699 28.227,3.552 28.183,3.321 28.144,3.09 28.1,2.86 28.084,2.778 28.06,2.697 28.038,2.616 28.024,2.566 28.009,2.516 27.99,2.467 27.96,2.392 27.928,2.319 27.895,2.244 27.88,2.212 27.854,2.182 27.846,2.148 27.774,1.826 27.592,1.568 27.377,1.324 27.241,1.17 27.135,0.99 27.004,0.832 26.803,0.588 26.604,0.34 26.382,0.116 26.168,-0.104 25.941,-0.315 25.693,-0.495 25.46,-0.662 25.237,-0.856 24.945,-0.931 24.898,-0.943 24.857,-0.984 24.816,-1.017 24.707,-1.108 24.59,-1.08 24.55,-0.943 c -0.041,0.145 -0.065,0.293 -0.103,0.438 -0.023,0.088 -0.06,0.171 -0.088,0.257 -0.025,0.077 -0.048,0.155 -0.071,0.232 -0.031,0.117 -0.054,0.235 -0.094,0.348 -0.07,0.201 -0.153,0.396 -0.224,0.596 -0.012,0.033 0,0.094 0.023,0.112 0.025,0.02 0.085,0.02 0.116,0.003 0.22,-0.115 0.435,-0.237 0.653,-0.355 0.054,-0.03 0.11,-0.062 0.169,-0.075 0.141,-0.029 0.229,0.076 0.166,0.206 -0.066,0.138 -0.141,0.275 -0.232,0.397 -0.194,0.254 -0.436,0.455 -0.723,0.605 -0.248,0.131 -0.495,0.261 -0.77,0.331 -0.043,0.012 -0.081,0.042 -0.123,0.06 C 23.19,2.238 23.13,2.265 23.067,2.281 22.911,2.324 22.753,2.374 22.593,2.399 22.288,2.448 22.002,2.562 21.713,2.66 21.096,2.867 20.452,2.825 19.82,2.888 19.53,2.916 19.238,2.911 18.946,2.922 18.945,2.928 18.945,2.934 18.944,2.941 18.497,2.903 18.052,2.861 17.606,2.827 17.413,2.812 17.218,2.825 17.027,2.801 16.761,2.768 16.499,2.715 16.235,2.665 15.956,2.612 15.679,2.545 15.398,2.5 14.986,2.434 14.591,2.311 14.191,2.201 14.153,2.191 14.116,2.178 14.078,2.17 13.734,2.1 13.407,1.978 13.086,1.837 12.769,1.699 12.449,1.568 12.133,1.428 12.019,1.379 11.913,1.313 11.804,1.253 11.55,1.112 11.299,0.967 11.044,0.828 10.721,0.651 10.393,0.484 10.074,0.301 9.839,0.165 9.612,0.017 9.391,-0.139 9.112,-0.334 8.839,-0.538 8.571,-0.746 8.411,-0.87 8.263,-1.009 8.11,-1.142 7.861,-1.359 7.606,-1.569 7.367,-1.795 7.204,-1.945 7.06,-2.116 6.912,-2.281 6.79,-2.418 6.665,-2.554 6.555,-2.699 6.453,-2.834 6.366,-2.979 6.277,-3.123 6.237,-3.187 6.211,-3.259 6.175,-3.324 6.131,-3.403 6.115,-3.479 6.185,-3.549 6.241,-3.606 6.354,-3.61 6.431,-3.555 c 0.043,0.03 0.074,0.078 0.119,0.101 0.051,0.026 0.122,0.058 0.166,0.04 C 6.752,-3.427 6.778,-3.509 6.779,-3.561 6.785,-3.698 6.776,-3.836 6.771,-3.973 6.765,-4.089 6.703,-4.157 6.583,-4.155 6.42,-4.151 6.256,-4.139 6.094,-4.114 5.895,-4.083 5.699,-4.033 5.501,-3.992 5.479,-3.987 5.458,-3.974 5.436,-3.972 5.109,-3.938 4.803,-3.819 4.485,-3.744 4.26,-3.691 4.031,-3.644 3.812,-3.57 3.625,-3.506 3.449,-3.408 3.271,-3.324 3.153,-3.268 3.034,-3.214 2.922,-3.149 2.701,-3.018 2.482,-2.882 2.265,-2.744 1.85,-2.479 1.509,-2.133 1.195,-1.76 1.045,-1.583 0.893,-1.407 0.748,-1.227 0.693,-1.159 0.654,-1.078 0.605,-1.004 0.388,-0.679 0.169,-0.355 0,0 m 5.785,-5.653 -1.467,0.01 C 2.769,-5.722 2.179,-5.683 0.723,-6.263 l -0.114,-0.193 0.128,-0.128 1.586,0.17 1.312,0.132 1.862,-0.068 1.297,-0.165 0.098,-0.026 c 0.007,-0.032 0.014,-0.063 0.02,-0.094 0.117,-0.557 0.325,-1.076 0.663,-1.537 0.107,-0.145 0.229,-0.277 0.342,-0.416 0.056,-0.068 0.118,-0.124 0.178,-0.186 L 6.502,-8.472 3.58,-8.454 2.605,-8.68 2.16,-8.891 2.078,-9.104 2.242,-9.268 2.521,-9.32 l 0.011,-0.003 0.788,0.139 0.865,0.024 0.766,0.084 1.697,-0.24 1.657,-0.407 1.682,-0.371 0.798,-0.288 -0.002,-0.022 -1.93,-0.667 c -4.337,0.143 -5.564,0.587 -9.763,-1.445 l -0.105,0.03 -0.049,0.137 0.031,0.217 0.56,1.215 0.756,1.026 0.233,0.413 v 0.253 L 0.351,-9.06 0.127,-9.076 c -1.382,-1.101 -1.481,-1.321 -3.136,-1.947 l -0.433,-0.05 -0.024,0.025 0.195,0.254 c 1.555,1.968 2.276,4.485 3.995,6.338 l 0.625,0.786 c 0.272,-0.182 0.564,-0.334 0.879,-0.45 0.325,-0.12 0.649,-0.237 0.974,-0.356 0.022,-0.008 0.042,-0.019 0.063,-0.027 0.125,-0.045 0.25,-0.09 0.376,-0.133 0.058,-0.022 0.116,-0.042 0.176,-0.061 0.099,-0.031 0.198,-0.061 0.298,-0.091 0.066,-0.019 0.131,-0.038 0.196,-0.058 0.094,-0.028 0.186,-0.064 0.281,-0.082 0.212,-0.041 0.428,-0.055 0.628,-0.15 0.069,-0.032 0.153,-0.035 0.231,-0.04 0.3,-0.019 0.601,-0.031 0.902,-0.047 0.187,-0.01 0.25,-0.059 0.292,-0.242 0.03,-0.133 0.057,-0.266 0.086,-0.398 z m 18.302,1.194 C 24.079,-4.584 24.034,-4.708 24.004,-4.83 23.99,-4.891 23.971,-4.95 23.955,-5.01 23.906,-5.186 23.859,-5.362 23.811,-5.538 23.796,-5.592 23.776,-5.644 23.768,-5.699 23.736,-5.931 23.633,-6.138 23.515,-6.333 23.333,-6.635 23.142,-6.931 22.938,-7.219 22.734,-7.507 22.473,-7.747 22.173,-7.929 21.899,-8.095 21.603,-8.222 21.292,-8.307 21.191,-8.334 21.096,-8.38 21,-8.417 20.975,-8.427 20.952,-8.441 20.927,-8.448 20.692,-8.515 20.457,-8.583 20.22,-8.645 19.848,-8.743 19.476,-8.847 19.1,-8.93 c -0.405,-0.09 -0.812,-0.177 -1.222,-0.23 -0.461,-0.059 -0.925,-0.087 -1.389,-0.114 -0.353,-0.023 -0.707,-0.024 -1.177,-0.038 -0.471,0.037 -1.058,0.085 -1.645,0.128 -0.31,0.023 -0.621,0.031 -0.93,0.056 -0.156,0.012 -0.31,0.044 -0.465,0.068 -0.142,0.022 -0.284,0.043 -0.426,0.067 -0.323,0.055 -0.634,0.151 -0.934,0.282 -0.048,0.021 -0.098,0.036 -0.148,0.051 -0.199,0.064 -0.405,0.111 -0.595,0.194 -0.178,0.075 -0.347,0.178 -0.507,0.289 -0.206,0.143 -0.41,0.294 -0.592,0.464 -0.171,0.159 -0.31,0.353 -0.471,0.523 -0.189,0.2 -0.304,0.448 -0.437,0.682 -0.1,0.177 -0.158,0.376 -0.235,0.566 -0.005,0.012 -0.006,0.025 -0.011,0.037 -0.252,0.685 -0.313,1.398 -0.309,2.121 0.002,0.329 0.029,0.653 0.105,0.974 0.039,0.171 0.131,0.291 0.27,0.391 0.162,0.116 0.312,0.248 0.47,0.369 0.122,0.092 0.249,0.179 0.375,0.266 0.227,0.159 0.455,0.318 0.686,0.473 0.132,0.088 0.271,0.166 0.407,0.249 0.113,0.07 0.226,0.142 0.34,0.211 0.226,0.135 0.451,0.273 0.682,0.399 0.151,0.083 0.314,0.144 0.469,0.22 0.166,0.082 0.328,0.172 0.495,0.252 0.174,0.083 0.351,0.158 0.525,0.238 0.077,0.036 0.15,0.075 0.226,0.114 0.019,0.01 0.035,0.029 0.056,0.038 0.179,0.069 0.359,0.137 0.538,0.206 0.231,0.088 0.46,0.18 0.693,0.265 0.086,0.03 0.178,0.04 0.265,0.064 0.079,0.022 0.154,0.05 0.231,0.077 0.083,0.028 0.164,0.061 0.249,0.083 0.38,0.095 0.76,0.187 1.14,0.281 0.054,0.014 0.107,0.038 0.162,0.044 0.531,0.059 1.05,0.189 1.591,0.215 0.57,0.028 1.141,0.101 1.714,0.098 0.689,-0.001 1.382,0.049 2.065,-0.092 0.102,-0.021 0.21,-0.014 0.312,-0.034 0.256,-0.051 0.512,-0.105 0.765,-0.171 0.06,-0.017 0.121,-0.079 0.155,-0.136 0.125,-0.206 0.237,-0.42 0.357,-0.629 0.079,-0.135 0.163,-0.265 0.246,-0.398 0.013,-0.021 0.029,-0.043 0.038,-0.068 0.067,-0.18 0.132,-0.361 0.197,-0.542 0.007,-0.015 0.007,-0.033 0.016,-0.046 0.113,-0.165 0.134,-0.365 0.204,-0.545 0.089,-0.233 0.113,-0.468 0.126,-0.711 0.015,-0.261 0.016,-0.523 0.042,-0.784 0.029,-0.292 0.087,-0.578 0.212,-0.851 0.055,-0.121 0.072,-0.266 0.074,-0.401 0.007,-0.265 0,-0.53 -0.018,-0.794 m 0.398,-1.984 c 0.006,0.028 0.031,0.051 0.042,0.078 0.034,0.079 0.069,0.16 0.096,0.242 0.029,0.09 0.052,0.182 0.076,0.273 0.014,0.055 0.027,0.11 0.04,0.163 l 0.418,-0.27 0.961,-0.231 0.328,-0.224 0.067,-0.192 -0.324,-2.586 -0.797,-2.14 -0.811,-1.534 -1.846,-2.561 -1.621,-1.605 -1.058,-0.713 -1.034,-0.745 -0.148,-0.054 -0.099,0.037 -0.224,0.609 -0.456,1.887 v 0.852 l 0.152,0.757 0.001,0.009 -0.025,0.268 -0.118,0.245 -0.389,0.222 -0.015,0.007 -0.219,-0.005 -1.387,-0.691 -1.329,-0.431 -2.205,-0.441 -0.802,-0.089 -1.714,-0.343 -2.635,-0.308 c -2.313,-0.313 -5.12,-0.13 -7.138,-0.545 l -1.747,-0.615 -0.61,-0.266 -0.091,0.019 -0.022,0.095 0.478,1.593 0.337,2.009 0.074,0.204 0.125,0.134 1.631,0.699 2.289,0.647 1.058,0.116 1.114,0.065 0.809,-0.086 0.216,-0.069 -1.863,-0.686 c -1.959,-0.873 -4.477,-1.955 -5.744,-3.775 l -0.061,-0.219 0.136,-0.135 0.231,0.037 0.339,0.314 0.434,0.44 1.211,0.841 1.716,0.931 1.007,0.46 1.973,0.678 3.096,1.025 1.424,0.366 h 0.186 l 0.029,-0.029 -0.423,-0.629 -0.816,-0.649 -0.777,-0.689 -2.549,-1.905 -0.138,-0.194 0.008,-0.198 0.195,-0.016 c 2.413,1.198 4.549,2.93 6.272,4.983 l 1.635,0.746 c 0.548,-0.065 1.098,-0.099 1.649,-0.11 l -0.031,-0.047 c -1.447,-1.528 -2.139,-2.465 -3.909,-3.783 l -0.061,-0.19 0.141,-0.141 0.406,0.103 1.743,1.274 2.502,2.522 0.171,0.252 c 0.335,0.006 0.669,0.015 1.002,0.032 0.24,0.013 0.479,0.03 0.718,0.053 l -0.503,-0.869 -0.507,-0.711 -0.094,-0.221 -0.011,-0.254 0.146,-0.146 0.225,0.051 0.592,0.664 1.103,1.646 c 0.292,0.068 0.584,0.148 0.871,0.239 0.2,0.063 0.404,0.104 0.619,0.065 0.136,-0.024 0.269,-0.008 0.402,0.023 l -0.071,-1.431 c 0.013,-1.421 -1.264,-4.434 -1.248,-5.512 l 0.142,-0.15 0.196,0.104 0.548,1.004 0.871,2.675 0.408,2.256 v 1.174 l 0.092,0.276 c 0.065,0.033 0.134,0.056 0.198,0.091 0.009,0.005 0.017,0.009 0.025,0.014 l 0.141,-0.125 0.624,-1.136 0.542,-1.508 0.026,-0.879 0.068,-0.263 0.162,-0.16 0.197,0.064 0.105,0.215 0.006,1.476 -0.449,1.357 -0.754,1.315 -0.013,0.018 c 0.13,0.082 0.262,0.162 0.381,0.262 0.356,0.296 0.673,0.631 0.961,0.991 0.139,0.175 0.241,0.379 0.366,0.567 0.138,0.209 0.276,0.42 0.333,0.67 m 0.395,25.529 0.925,0.238 1.164,-0.073 c 3.523,-0.865 3.01,2.234 6.373,2.253 l 1.214,-0.241 0.266,-0.274 c 1.314,-2.806 -0.936,-7.225 -3.512,-8.57 l -1.136,-0.617 -1.138,-0.196 c -0.055,0.165 -0.103,0.333 -0.164,0.496 -0.202,0.543 -0.421,1.078 -0.642,1.613 -0.122,0.296 -0.253,0.589 -0.398,0.875 -0.199,0.393 -0.403,0.784 -0.629,1.163 -0.123,0.206 -0.297,0.381 -0.441,0.575 -0.183,0.247 -0.356,0.501 -0.539,0.748 -0.342,0.464 -0.696,0.917 -1.099,1.33 -0.172,0.177 -0.347,0.35 -0.53,0.515 z m -3.262,1.812 v 2.423 l 0.056,0.204 0.301,0.247 0.566,0.325 0.204,0.048 0.198,-0.038 0.143,-0.118 0.163,-0.404 0.078,-1.094 0.093,-0.783 -0.008,-1.895 c -0.029,0.019 -0.057,0.041 -0.086,0.061 -0.394,0.263 -0.786,0.531 -1.194,0.772 -0.165,0.096 -0.339,0.176 -0.514,0.252 m -2.23,0.876 -0.132,0.679 0.06,0.489 0.262,0.286 0.598,0.24 0.366,-0.018 0.163,-0.09 0.12,-0.148 0.09,-0.473 0.009,-1.553 c -0.115,0.046 -0.229,0.096 -0.345,0.139 -0.227,0.083 -0.462,0.142 -0.686,0.235 -0.169,0.07 -0.334,0.154 -0.505,0.214 m -2.406,0.526 0.765,0.39 0.436,0.131 0.138,-0.061 0.113,-0.444 0.039,-0.348 c -0.179,0.018 -0.36,0.023 -0.54,0.043 -0.128,0.014 -0.253,0.055 -0.38,0.084 -0.076,0.017 -0.151,0.043 -0.227,0.054 -0.134,0.02 -0.271,0.027 -0.402,0.052 z m -8.32,-1.125 -0.006,1.703 0.053,1.114 0.82,1.803 0.917,1.424 0.692,0.469 0.413,0.48 0.31,0.263 0.999,0.362 1.154,0.716 2.122,0.813 2.191,0.465 0.776,-0.091 0.979,-0.461 0.741,-0.992 0.633,-1.718 0.023,-0.471 -0.458,-1.002 -0.986,-1.65 -0.627,-0.524 -0.548,-0.324 -0.695,0.067 -0.445,-0.074 -1.047,-0.462 -0.648,-0.526 -0.813,-0.066 -0.473,-0.143 -0.032,-0.049 c -0.06,-0.006 -0.12,-0.008 -0.18,-0.017 -0.369,-0.055 -0.74,-0.106 -1.111,-0.131 -0.333,-0.022 -0.668,0.003 -0.994,-0.089 -0.044,-0.013 -0.091,-0.015 -0.137,-0.019 -0.348,-0.027 -0.698,-0.044 -1.034,-0.162 -0.064,-0.022 -0.136,-0.02 -0.203,-0.035 C 10.624,21.754 10.196,21.675 9.777,21.557 9.4,21.45 9.03,21.315 8.662,21.175 m -6.036,-3.603 -0.007,0.024 0.019,0.829 0.608,1.745 0.242,0.952 0.014,1.478 -0.186,1.571 0.058,1.467 0.34,0.52 0.131,0.468 0.189,0.378 0.52,0.347 1.683,1.253 0.753,0.414 1.183,0.28 0.527,-0.013 0.633,-0.234 0.46,-0.394 0.198,-0.372 V 28.088 L 9.508,27.396 8.241,25.127 7.85,23.422 7.787,22.58 8.012,20.898 C 7.9,20.847 7.785,20.802 7.673,20.75 7.465,20.656 7.262,20.549 7.057,20.447 6.843,20.337 6.628,20.227 6.415,20.115 6.259,20.033 6.105,19.948 5.951,19.864 5.812,19.79 5.677,19.711 5.535,19.644 5.358,19.561 5.164,19.509 4.998,19.408 4.64,19.192 4.286,18.968 3.949,18.721 3.636,18.49 3.347,18.227 3.05,17.977 2.899,17.85 2.77,17.705 2.626,17.572 m -3.398,-4.638 -0.389,0.079 -0.851,0.59 -2.38,2.341 -0.471,0.403 -0.544,0.611 -0.088,0.466 0.038,2.321 0.095,0.482 -0.133,1.028 0.033,2.322 0.386,1.961 0.576,1.169 0.895,0.844 0.756,0.415 1.096,0.658 1.198,0.227 L 0.344,28.603 1,28.109 1.858,27.212 2.443,26.048 2.486,25.556 2.397,24.856 2.643,23.325 2.76,21.455 1.909,18.77 1.906,18.761 l 0.007,-0.893 0.19,-0.8 C 1.73,16.673 1.377,16.259 1.053,15.82 0.674,15.308 0.314,14.781 -0.035,14.247 -0.31,13.827 -0.568,13.396 -0.772,12.934 m 47.5,66.25 0.03,0.117 0.605,0.585 1.085,0.969 1.188,0.858 1.029,0.434 1.134,0.322 2.182,0.082 0.249,-0.199 1.185,-0.578 0.847,-0.622 0.791,-0.652 -0.004,-0.044 -0.108,-0.029 c -3.306,0.538 -6.601,-0.338 -9.765,-1.206 l -0.39,-0.095 z M 29.78,8.425 30.247,7.862 30.586,7.34 30.629,6.547 30.394,5.617 29.753,4.604 c 0.11,0.647 0.134,1.302 0.134,1.956 0,0.623 -0.035,1.245 -0.107,1.865 m 9.714,56.655 0.249,0.317 0.394,0.158 0.691,-0.161 1.294,-0.47 0.85,-0.342 2.888,-0.648 1.931,-0.416 0.727,-0.428 1.164,-1.162 1.246,-1.991 0.314,-0.57 0.761,-0.765 0.083,-0.144 -0.017,-0.089 -0.1,-0.027 -1.202,0.548 -0.94,0.527 -1.223,0.831 -0.481,0.404 -1.206,0.567 -1.206,0.868 -1.531,0.833 -1.444,0.632 -0.927,0.243 -2.108,0.832 -0.152,0.123 -0.076,0.158 z m 0.372,16.39 -0.531,-0.652 -0.384,-0.796 -0.367,-0.808 -1.408,-2.728 -0.318,-0.856 -0.976,-2.281 -0.498,-2.16 -0.092,-0.131 -0.093,-0.019 -0.899,0.842 -0.996,0.761 c -1.448,1.44 -1.962,2.455 -1.783,4.567 l 0.315,1.144 0.674,1.378 1.285,1.941 1.329,1.31 1.338,1.006 0.436,0.131 0.834,-0.024 1.032,-0.406 0.674,-0.481 0.484,-1.26 z m -4.807,-15.263 -0.027,-0.545 -0.212,-0.959 -0.37,-0.484 -0.745,-0.708 -0.732,-0.428 -0.128,0.004 -0.251,0.269 -0.237,0.924 -0.145,0.758 0.003,0.267 0.082,0.17 0.425,0.128 0.994,0.201 0.844,0.357 0.347,0.218 0.087,-0.017 z m 5.966,0.612 -0.935,-0.231 -0.679,-0.135 -0.913,0.216 -0.505,0.351 -0.511,0.646 -0.57,0.892 -0.205,0.673 -0.234,0.644 -0.126,0.453 c -0.245,2.907 2.64,7.912 3.744,10.078 l 0.327,0.538 0.339,0.218 0.901,0.252 0.823,0.058 1.114,-0.058 1.009,-0.433 0.407,-0.444 0.458,-0.698 0.049,-0.799 -0.136,-0.441 C 43.01,74.406 44.376,74.317 43.737,69.918 l -0.303,-1.159 -0.586,-0.857 -1.183,-0.853 z m -10.713,9.186 0.176,-0.008 0.121,-0.122 0.572,-1.495 0.385,-0.813 1.066,-1.31 1.449,-1.194 1.455,-1.475 0.356,-0.807 0.022,-0.196 -0.157,-0.377 -0.735,-0.716 -0.862,-0.6 -1.088,-0.372 -0.459,-0.091 -0.663,0.175 -0.511,0.339 -1.721,1.829 -0.662,0.514 -0.634,0.529 -0.516,0.93 -0.232,0.921 -0.006,1.154 0.519,1.418 0.087,0.308 0.274,0.197 0.288,0.081 1.084,0.972 z m -0.942,-8.192 0.063,-0.175 -0.043,-0.124 -0.118,-0.041 -1.177,0.579 -2.223,1.03 -1.364,0.414 -2.503,0.453 -0.847,0.029 -0.77,0.123 -1.735,0.024 -2.3,0.348 -0.977,0.213 -0.823,0.059 -1.069,0.105 -0.224,0.07 -0.118,0.103 -0.01,0.105 0.287,0.238 1.698,0.642 2.02,0.328 0.87,0.031 0.459,0.09 2.426,-0.476 2.175,-0.764 1.612,-0.747 1.616,-0.734 0.576,-0.31 0.534,-0.069 0.351,-0.21 0.662,-0.515 0.812,-0.655 z m 1.948,-11.158 0.005,1.715 -0.405,1.377 -0.191,0.987 -0.978,1.974 -0.317,1.158 0.048,0.502 0.622,1.727 0.236,0.285 0.144,0.012 0.354,-0.191 0.356,-0.507 0.155,-0.412 0.073,-1.389 0.448,-1.054 0.318,-0.305 0.72,-0.215 0.463,0.127 1.485,0.906 0.59,0.924 0.336,1.163 0.269,1.194 0.326,0.544 0.14,0.09 0.138,-0.004 1.376,-1.266 0.574,-0.313 0.067,-0.084 -0.138,-0.306 -0.54,-0.628 -0.673,-0.505 -0.513,-0.691 -0.31,-0.905 -0.234,-1.228 -0.31,-0.854 -1.63,-1.907 -0.428,-0.769 -0.837,-2.982 -0.641,-1.403 -0.912,-1.138 -1.201,-1.151 -0.643,-0.536 -0.689,-1.115 -0.485,-1.005 -0.226,-0.952 -0.125,-0.481 -0.013,-1.154 -0.307,-1.741 -0.948,-2.279 -0.219,-0.353 -0.152,-0.102 -0.8,-0.063 -1.037,0.156 -0.171,0.084 -0.044,0.115 0.21,0.333 0.525,0.672 0.914,1.46 0.247,0.646 0.404,1.665 0.387,2.256 0.632,1.4 1.172,1.476 0.551,0.641 0.93,1.445 0.488,1.29 z m -0.747,20.657 -0.086,-0.139 -0.11,-0.064 -0.269,0.134 -0.802,0.677 -1.025,1.622 -0.509,0.666 -0.749,1.035 -1.503,1.462 -1.084,0.697 -1.637,0.715 -0.789,0.395 -2.881,1.25 -0.166,0.125 -0.046,0.085 0.039,0.039 2.588,0.054 0.756,0.131 1.028,-0.146 0.616,0.025 0.749,-0.131 0.992,-0.46 1.098,-0.932 0.619,-0.841 0.992,-1.937 0.241,-0.956 0.799,-1.568 1.139,-1.781 z m 28.899,-41.796 0.256,-0.004 0.135,0.135 -0.748,0.508 -1.197,0.578 -0.677,0.199 -0.627,0.274 -0.745,0.15 -0.234,0.152 0.156,0.179 0.665,0.524 0.851,0.299 0.792,0.087 0.789,-0.091 1.536,-0.788 0.788,-0.669 0.65,-0.807 0.428,-1.326 0.516,-1.545 0.197,-0.686 -0.025,-0.098 -0.082,-0.013 c -4.292,2.613 -9.231,2.865 -13.801,4.191 l -0.334,0.039 0.946,0.167 c 2.308,-0.04 4.503,-0.145 6.777,-0.577 l 1.623,-0.436 z M 32.397,5.865 l -0.564,0.603 -0.475,0.998 0.013,0.191 0.089,0.092 1,-0.111 4.723,0.017 1.198,0.275 1.087,0.718 0.667,0.511 0.631,0.867 0.251,0.672 0.212,1.561 10e-4,0.011 -0.259,1.25 -0.379,1.091 -0.005,0.363 0.475,0.932 0.366,0.183 0.761,0.114 0.739,-0.132 0.826,-0.34 0.965,-0.78 0.488,-0.659 0.345,-0.818 0.236,-1.227 0.015,-0.838 L 45.518,9.622 45.492,7.894 45.184,7.358 44.867,7.117 43.292,6.63 42.708,6.346 41.373,6.207 40.197,5.892 39.421,5.49 37.666,4.605 36.463,4.421 35.786,4.48 35.169,4.548 33.97,4.825 33.061,5.366 Z m -26.364,30.913 0.471,0.181 0.199,0.33 0.704,0.448 0.635,0.238 0.847,0.033 0.763,-0.128 0.832,-0.037 1.166,-0.297 1.045,-0.434 1.764,-0.581 0.492,-0.357 0.008,-0.1 L 14.854,35.973 14.376,35.84 12.604,34.945 10.581,33.413 9.903,32.618 9.629,31.967 9.413,31 9.411,30.99 9.503,29.963 9.447,29.907 8.743,30.017 7.613,29.962 6.475,29.59 5.736,29.146 5.017,28.674 4.225,28 3.057,27.128 2.919,27.124 2.783,27.219 2.538,27.58 1.67,28.487 l -0.781,0.694 -1.01,0.466 -0.07,0.171 0.012,0.227 0.143,0.46 1.035,1.896 0.922,1.127 1.083,0.674 0.537,0.359 z m 15.548,8.581 -0.133,-0.388 -0.101,-1.764 0.069,-0.834 0.071,-0.457 -0.075,-0.156 -0.178,-0.09 -1.053,-0.129 -1.111,-0.378 -0.571,-0.332 -0.784,-0.706 -1.151,-1.519 -0.555,-1.203 -0.277,-0.258 -0.4,0.018 -1.032,0.447 -0.411,0.172 -0.135,0.13 -0.061,0.166 0.101,0.401 0.737,1.315 1.38,1.253 1.312,1.056 1.028,1.05 0.716,1.061 0.633,1.147 0.5,1.306 0.005,0.258 -0.155,0.156 -0.278,-0.349 -0.923,-1.458 -0.585,-0.878 -0.806,-0.953 -1.2,-1.152 -1.755,-1.498 -0.703,-0.785 -0.566,-0.908 -0.141,-0.067 -0.15,0.035 -0.611,0.558 -0.757,1.283 0.023,0.468 0.486,1.275 0.602,0.845 1.763,1.764 0.664,0.527 0.881,0.901 1.792,2.64 0.697,1.381 0.695,2.302 -0.006,0.251 -0.149,0.148 -0.214,-0.082 -0.863,-2.152 c -0.558,-1.912 -2.117,-3.193 -3.165,-4.766 l -0.503,-0.389 -0.168,-0.065 -0.101,0.017 -0.04,0.07 0.233,1.608 0.157,1.909 -0.153,1.033 -0.373,2.284 -0.223,0.456 -0.212,0.082 -0.164,-0.165 -0.047,-0.274 -0.002,-0.01 0.315,-2.082 -0.013,-1.751 -0.264,-1.206 -0.307,-1.153 -0.672,-1.377 -0.606,-0.872 -0.458,-0.738 -0.234,-0.651 -0.078,-0.059 -0.064,0.032 -0.638,1.396 -0.49,1.293 -0.472,1.554 0.288,2.045 0.088,0.8 0.049,0.83 -0.137,1.324 -0.056,0.846 -0.408,1.658 -0.426,1.353 -0.657,1.444 -0.179,0.15 L 7.53,57.668 8.375,53.813 8.488,52.14 8.537,50.438 8.378,49.749 8.372,49.746 7.716,51.3 c -0.977,2.261 -5.015,8.535 -6.72,10.132 l -0.035,0.065 0.85,-0.477 0.713,-0.477 1.699,-0.678 1.248,-0.177 1.471,0.005 0.615,-0.013 1.187,-0.3 0.735,-0.133 1.637,-0.701 0.493,-0.376 1.149,-1.196 0.598,-0.859 0.545,-1.205 0.291,-1.483 0.126,-0.213 0.2,-0.137 0.255,-0.026 0.209,0.126 0.151,0.499 0.333,2.607 0.387,1.671 0.782,2.461 0.135,0.469 0.091,0.145 0.066,0.02 0.213,-0.258 c 2.224,-4.397 4.68,-7.064 4.714,-12.366 l 0.102,-0.787 z m 8.426,-6.808 -0.256,-1.519 c -0.187,-4.714 -0.36,-1.755 -4.396,-4.081 l -0.448,-0.338 -0.276,0.115 -1.323,1.351 -1.443,0.912 -1.059,0.715 -0.742,0.437 -1.435,0.36 -0.01,0.002 -0.872,-0.041 -0.473,-0.1 -0.218,0.022 -0.177,0.095 -0.086,0.133 0.075,0.407 0.324,0.858 0.914,1.423 0.74,0.714 0.915,0.544 1.212,0.237 0.863,0.031 0.746,0.127 0.827,-0.063 2.412,-0.535 0.007,-10e-4 1.668,0.055 1.289,0.244 0.811,-0.058 0.79,-0.35 0.058,-0.121 z m 11.512,8.731 -0.806,-1.296 c -1.978,-4.28 -1.687,-5.85 -1.416,-10.099 l -0.069,-0.068 -0.118,0.026 -0.269,0.335 -0.548,0.616 -0.349,0.815 -0.454,0.452 -0.201,0.36 -0.136,1.027 -0.064,0.816 0.437,2.196 0.504,1.259 1.067,2.195 0.008,0.019 -0.048,0.211 -0.196,0.023 -0.177,-0.139 C 37.137,44.373 36.55,42.143 36.391,39.958 L 36.459,39.257 36.404,39.123 36.257,39.034 35.12,39 34.653,38.86 33.034,37.783 32.303,37.031 31.409,35.862 30.77,35.037 l -0.308,-0.243 -0.069,0.01 -0.032,0.092 c -0.273,6.195 4.853,12.592 11.193,12.804 l 0.079,-0.079 z m 3.859,-0.371 -0.121,-0.456 -0.103,-0.155 -0.386,-0.177 -0.832,-0.351 -1.781,-0.883 -0.888,-0.61 -0.182,-0.065 -0.087,0.018 -0.021,0.091 c 2.248,5.745 0.959,2.328 4.469,4.935 l 0.115,0.034 0.075,-0.076 0.039,-0.527 z m -5.3,-15.913 -0.504,-0.952 -0.799,-1.259 -1.236,-1.715 -0.137,-0.096 -0.137,0.004 -0.851,0.869 -0.49,0.673 -0.446,1.594 -0.036,1.735 -0.262,1.52 -0.253,0.651 -0.476,0.702 -0.724,0.489 -0.682,0.233 -0.013,0.004 -0.522,-0.046 -0.445,-0.055 -0.075,0.075 0.018,0.142 0.605,0.874 1.942,1.57 0.631,0.238 h 0.449 l 0.634,-0.237 0.596,-0.548 0.744,-1.029 0.939,-1.126 0.834,-0.932 0.395,-0.471 0.403,-0.762 0.169,-0.966 z m 8.976,-10.029 -0.052,-1.407 -0.292,-1.169 -0.563,-0.882 -0.719,-0.748 -0.905,-0.849 -0.895,-0.587 -0.201,-0.04 -0.194,0.039 -0.311,0.264 -0.423,0.461 -1.013,0.497 -0.412,0.178 -1.564,0.202 -0.121,0.113 -0.076,1.076 -0.508,1.273 -0.164,1.271 0.224,1.54 0.212,1.547 0.001,0.01 -0.312,1.484 -0.325,0.583 -0.664,0.564 -0.944,0.523 -0.088,0.137 0.008,0.172 0.749,1.317 0.779,1.293 0.554,1.231 0.262,1.197 0.102,0.15 0.621,0.227 0.965,0.209 c 3.101,0.036 6.95,-4.293 7.308,-7.324 l 0.139,-0.446 -0.048,-0.505 -0.869,-2.378 z m 6.858,-2.62 -0.824,-0.393 -1.926,-1.323 -1.113,-0.948 -0.506,-0.398 -0.526,-0.652 -0.799,-0.956 -0.449,-0.415 -1.916,-1.039 -1.03,-0.717 -0.081,0.02 -0.194,0.632 -0.036,0.856 -0.199,0.696 -0.188,0.411 -0.038,0.217 0.04,0.191 0.559,0.599 1.04,0.746 0.986,1.053 c 2.301,0.539 4.55,1.31 6.905,1.628 l 0.524,-0.033 0.018,-0.018 z m -26.472,4.936 0.093,0.169 0.37,0.178 0.779,0.076 0.399,-0.159 0.235,-0.308 0.181,-1.217 -0.067,-0.17 -0.319,-0.25 -0.564,-0.336 -0.474,-0.417 -0.197,-0.089 -0.167,-0.004 -0.102,0.102 -0.077,1.273 -0.113,0.9 z m -5.353,-0.126 -0.046,0.409 0.175,0.343 0.327,0.229 0.701,0.158 0.204,-0.048 0.149,-0.119 0.156,-0.397 0.068,-1.802 -0.038,-0.814 0.112,-0.489 -0.025,-0.166 -0.113,-0.119 -1.184,-0.314 h -0.171 l -0.097,0.104 -0.183,1.27 z m -13.738,8.354 0.332,0.797 0.788,0.953 1.428,0.912 1.12,0.634 1.301,0.455 1.014,0.173 0.683,0.19 1.294,0.171 0.822,-0.061 1.106,-0.356 1.576,-1.058 0.997,-0.762 0.744,-0.725 0.837,-0.906 -0.018,-0.395 -0.486,-1.305 -0.114,-0.746 -0.277,-0.269 -0.543,-0.355 -0.61,-0.571 -0.167,-0.024 -0.146,0.074 -0.465,1.007 -0.432,0.748 -0.889,0.901 -0.579,0.329 -0.738,0.17 -0.008,0.001 -1.447,-0.062 -1.382,-0.388 -1.585,-0.489 -1.979,-0.969 -1.397,-0.662 -0.189,-0.047 -0.163,0.033 -0.138,0.114 -0.168,0.401 -0.189,0.995 z m 16.302,-8.108 0.592,0.554 0.398,0.168 0.545,0.035 0.214,-0.058 0.122,-0.127 0.257,-1.368 -0.052,-2.222 -0.059,-0.219 -0.127,-0.135 -0.364,-0.102 -1.496,0.402 -0.059,0.48 -0.069,1.229 -0.073,0.972 z m 2.723,0.92 -0.871,0.52 -0.462,0.13 -0.013,0.004 -0.462,-0.088 -0.555,-0.366 -0.369,-0.217 -0.166,-0.004 -0.282,0.255 -0.435,0.48 -0.495,0.128 -0.012,0.004 -0.797,-0.144 -0.595,-0.249 -0.379,0.049 -0.456,0.156 -0.011,0.003 -0.513,-0.023 -0.674,-0.266 -0.373,-0.235 -0.203,-0.042 -0.137,0.051 -0.032,0.109 0.413,0.765 c 1.247,3.476 2.421,3.778 5.957,3.074 l 1.115,-0.053 1.07,-0.381 c 1.28,-0.66 2.728,-2.031 1.99,-3.607 l -0.111,-0.029 -1.418,0.068 z m 3.056,-1.071 0.246,0.933 0.002,0.01 -0.058,1.139 c -1.33,4.202 -4.495,3.607 -7.792,4.104 l -0.17,0.088 -0.066,0.142 c 0.382,4.407 4.047,2.896 6.727,4.633 l 0.884,0.282 h 1.108 l 0.596,-0.257 0.28,-0.278 0.369,-0.783 0.204,-1.25 0.03,-2.033 0.328,-1.174 0.438,-1.036 0.986,-1.089 0.232,-0.624 -0.027,-0.417 -0.337,-1.167 -0.08,-1.375 -0.28,-0.884 -0.3,-0.585 -0.122,-0.106 -0.152,-0.007 -1.23,0.524 -1.036,0.162 h -0.006 l -0.591,-0.009 -0.171,0.074 -0.078,0.174 z m 20.36,14.521 -0.161,-0.078 c -3.079,-0.035 -5.492,0.176 -8.51,-0.257 l -0.004,0.004 0.051,0.077 1.688,1.27 1.713,0.931 3.34,1.415 0.152,0.179 -0.159,0.159 -0.575,0.02 -1.171,-0.349 -2.852,-1.278 -1.546,-0.826 -1.017,-0.762 -1.638,-1.587 -1.257,-0.504 -0.393,-0.098 -0.136,0.082 -0.095,0.178 -0.036,0.239 0.084,0.465 0.523,0.63 1.248,1.102 1.36,0.987 1.501,0.854 2.932,1.505 0.359,0.297 0.066,0.215 -0.138,0.138 -0.476,-0.103 -2.732,-1.128 -1.337,-0.729 -1.498,-0.866 -1.214,-0.85 -0.627,-0.855 -0.049,-0.02 -0.056,0.07 -0.099,0.492 0.067,0.804 0.246,0.302 1.401,1.245 1.168,0.885 0.734,0.447 1.266,0.796 0.559,0.339 0.495,0.423 0.099,0.251 -0.06,0.208 -0.209,0.064 -0.255,-0.063 -1.215,-0.591 -2.275,-1.271 -1.725,-1.209 -0.062,0.006 -0.021,0.091 0.259,0.91 0.21,0.351 1.48,1.149 1.439,0.904 1.237,0.493 0.364,-0.113 1.498,-0.299 1.814,-0.524 1.299,-0.753 1.029,-1.008 0.862,-1.182 0.254,-0.622 0.852,-2.926 z m -50.709,6.597 0.23,0.114 0.127,0.208 -0.012,0.225 -0.409,0.815 -0.411,1.349 -0.019,0.863 -0.122,0.754 -0.031,2.61 0.138,0.758 -0.001,2.351 -0.316,1.459 -0.707,2.24 -0.292,0.893 -0.25,0.633 -0.325,0.857 -0.951,2.192 0.004,0.004 L 0.26,61.978 0.501,61.711 0.491,61.343 0.623,60.934 1.067,60.463 1.422,59.93 2.88,57.866 3.282,57.077 3.767,56.388 4.756,54.719 5.114,54.196 5.561,53.478 5.998,52.458 5.956,52.332 5.835,52.291 5.663,52.357 5.153,52.76 3.98,53.634 2.333,55.26 1.943,55.489 1.698,55.428 1.547,55.253 1.553,55.045 2.028,54.642 3.096,53.343 C 3.923,52.108 6.019,51.062 6.969,50.159 L 7.21,49.533 7.829,47.775 7.826,47.433 7.721,47.401 C 6.797,47.507 3.627,50.472 3,51.186 L 2.509,51.604 2.319,51.559 2.275,51.368 3.007,50.308 3.696,49.531 4.198,48.853 4.568,48.619 5.651,47.627 6.689,46.902 7.355,46.375 8.294,45.848 8.63,45.624 9.442,43.231 9.631,42.19 9.599,42.189 C 7.251,43.628 4.854,46.705 3.294,48.833 L 2.95,49.11 2.793,48.952 C 2.95,47.247 7.227,42.942 8.891,41.43 l 1.649,-0.985 1.276,-1.824 -1.06,0.293 -0.393,0.48 -0.811,0.679 -1.526,0.85 -1.151,0.318 -1.97,0.683 -0.878,0.293 -1.002,0.464 -2.421,1.423 -0.016,0.01 -0.233,-0.012 -0.144,-0.143 0.007,-0.221 0.25,-0.369 0.543,-0.376 0.82,-0.654 0.825,-0.37 L 3.239,41.656 5.186,40.948 6.749,40.454 8.42,39.773 9.004,39.488 9.596,39.045 9.579,39.029 8.728,39.003 7.746,38.794 6.688,38.361 5.811,37.751 5.051,37.039 4.699,36.85 4.544,36.858 4.385,36.946 3.33,37.664 2.706,38.209 1.861,39.132 1.314,39.746 0.542,41.024 0.134,42.09 l -0.291,0.316 -0.823,1.216 0.006,0.093 0.501,0.272 1.851,0.474 z m 43.025,-51.974 0.175,-0.989 -0.133,0.071 -0.64,0.848 -0.555,0.342 -0.214,0.345 -0.282,0.608 -1.135,2.071 -0.045,0.34 -1.01,1.018 -0.694,0.784 c -1.499,1.547 -2.857,2.436 -3.893,4.35 l -0.422,0.455 -0.041,0.194 0.182,0.66 0.131,0.115 1.254,0.197 3.036,1.392 0.94,0.223 0.201,-0.031 0.155,-0.099 0.16,-0.396 c 0.503,-1.933 0.445,-6.262 0,-7.977 l -0.002,-0.009 0.035,-0.271 0.165,-0.166 0.212,0.082 c 1.081,2.512 1.274,5.233 0.74,7.918 l 0.043,0.122 0.08,0.014 0.483,-0.366 1.344,-1.868 0.736,-1.618 0.754,-1.893 0.69,-2.245 0.049,-0.567 -0.04,-0.229 L 47.444,-4.298 46.039,-4.337 45.8,-4.449 45.354,-5.206 45.082,-6.134 45.08,-6.143 Z M 60.753,13.18 60.738,13.177 60.562,12.996 60.556,12.741 60.7,12.528 62.554,11.695 63.626,11.007 64.435,10.351 64.47,10.235 64.253,9.984 62.668,8.888 62.078,8.318 60.827,7.823 60.116,7.609 60.002,7.42 60.112,6.957 60.563,6.484 61.949,4.932 62.442,4.244 62.816,3.754 C 65.89,-0.622 63.035,-4.571 61.24,-8.582 l -0.169,-0.37 -0.091,-0.022 -0.326,0.216 -0.552,0.632 c -1.935,2.67 -7.901,3.232 -10.914,3.566 l -0.666,0.208 -0.159,0.1 -0.171,0.377 -0.422,2.247 -0.133,0.508 -0.377,1.341 -0.857,1.802 -0.963,1.703 -0.518,0.654 -0.379,0.533 -0.272,0.285 0.002,0.031 0.836,0.115 2.38,-0.495 0.744,-0.123 0.615,-0.251 0.432,-0.45 1.008,-0.744 0.695,-0.759 1.073,-1.866 0.448,-1.015 0.766,-2.471 0.264,-1.233 0.109,-0.221 0.009,-0.016 0.189,-0.112 0.168,0.17 c 0.271,2.005 -1.498,6.722 -2.976,8.231 l 0.011,0.063 0.599,0.114 c 4.744,-0.209 7.164,-6.18 7.776,-10.237 l 0.181,-0.315 0.201,0.476 0.077,0.73 0.002,0.009 -0.491,2.485 -0.495,1.265 -0.24,0.937 -1.087,1.897 -0.926,1.141 -0.565,0.614 -0.039,0.134 0.04,0.114 0.309,0.221 0.508,0.028 1.5,-0.289 0.988,-0.173 0.839,-0.359 0.019,-0.008 0.209,0.044 V 3.075 L 60.057,3.347 C 55.82,5.373 51.779,4.37 47.57,5.904 l -0.066,0.073 0.026,0.055 c 3.367,1.602 6.601,1.509 10.152,1.321 l 0.242,0.078 -0.018,0.187 -0.434,0.206 C 53.591,8.751 49.59,7.84 45.939,6.483 l -0.388,-0.019 1.022,0.506 0.849,0.335 2.025,0.918 0.85,0.335 1.18,0.583 2.278,0.956 1.127,0.337 1.753,0.304 0.828,0.06 0.783,0.092 0.923,10e-4 0.241,0.059 0.016,0.005 0.152,0.151 -0.114,0.167 -0.473,0.149 -0.009,0.003 -2.925,-0.006 -1.701,-0.37 L 51.95,10.207 48.008,8.553 46.506,7.992 H 46.36 l -0.064,0.065 0.155,1.771 0.152,0.403 1.415,1.197 1.161,0.596 3.018,1.103 2.268,0.678 3.027,0.8 3.667,0.794 0.231,0.1 0.128,0.178 -0.16,0.163 -0.568,0.01 -0.769,-0.132 -0.839,-0.056 -3.912,-0.805 -3.105,-0.755 -0.194,0.014 -0.037,0.037 0.729,0.902 1.725,1.501 2.026,1.213 1.304,0.717 0.379,-0.048 1.922,-0.737 1.697,-0.967 2.3,-0.948 0.421,-0.153 0.036,-0.086 -0.228,-0.255 -1.31,-1.052 -1.272,-0.781 z M 29.525,9.914 c -0.013,0.029 -0.012,0.064 -0.02,0.096 -0.064,0.252 -0.123,0.505 -0.195,0.755 l 0.436,0.064 c 3.161,1.068 5.501,3.584 6.143,6.903 l 0.05,2.604 0.862,1.493 0.263,0.932 0.057,1.4 0.402,1.345 0.441,0.402 0.412,0.159 0.495,-0.052 0.743,-0.41 0.365,-0.49 0.333,-0.829 0.056,-0.513 -0.46,-2.51 0.04,-0.87 0.394,-1.672 0.287,-1.182 -0.052,-0.448 -0.753,-1.908 -0.034,-0.516 C 42.874,7.719 34.838,7.622 30.522,8.887 L 30.029,9.263 29.633,9.552 C 29.609,9.675 29.577,9.797 29.525,9.914 M 24.849,-2.338 c -0.04,0.112 0.003,0.169 0.116,0.209 0.207,0.071 0.412,0.144 0.618,0.219 0.034,0.012 0.067,0.029 0.097,0.049 0.19,0.13 0.384,0.259 0.571,0.396 0.176,0.129 0.339,0.279 0.521,0.4 0.444,0.293 0.845,0.639 1.159,1.064 0.269,0.363 0.48,0.77 0.716,1.157 0.053,0.087 0.11,0.171 0.156,0.261 0.078,0.155 0.148,0.313 0.222,0.47 0.064,0.135 0.122,0.273 0.191,0.405 0.065,0.126 0.114,0.255 0.156,0.387 l 0.011,0.01 0.545,0.644 0.83,1.249 0.429,1.048 0.103,0.136 0.107,0.04 0.304,-0.18 0.935,-0.868 0.965,-0.526 1.58,-0.474 0.166,-0.102 0.103,-0.154 0.051,-0.49 -0.383,-1.089 -0.344,-0.821 -0.551,-0.599 -2.031,-1.198 -1.338,-1.337 -0.471,-1.013 -0.384,-0.513 -0.418,-0.748 -1.192,-1.134 -0.849,-0.3 -0.422,0.027 -1.097,0.381 -0.874,0.29 -0.212,0.12 c 0.011,0.071 0.022,0.142 0.029,0.214 0.078,0.796 0.16,1.591 -0.115,2.37 m 38.344,15.851 0.63,0.541 1.537,1.109 0.565,0.333 0.129,0.188 -0.011,0.214 -0.161,0.172 -1.654,0.437 -2.728,1.384 -0.52,0.38 -0.793,0.388 -0.62,0.273 c -3.363,1.486 -6.194,-0.038 -9.398,-0.597 l -0.412,-0.184 -0.067,0.005 -0.019,0.084 0.322,0.792 0.004,0.012 v 0.639 l 0.146,1.333 0.452,1.888 0.29,0.594 0.064,1.167 -0.179,1.012 -0.909,2.643 -0.882,1.494 -0.701,0.771 -0.42,0.479 -0.656,0.517 -0.91,0.879 -1.131,0.646 -0.834,0.362 -1.243,0.212 -0.012,0.002 -1.642,-0.428 -0.264,-0.01 -0.212,0.062 -0.133,0.128 -0.262,0.612 -0.205,0.38 -0.009,0.5 0.094,0.168 0.695,0.453 1.373,0.374 1.298,0.166 1.753,-0.013 0.757,-0.139 2.023,-0.028 3.72,-0.703 1.52,-0.239 c 3.658,-0.752 7.644,-1.557 10.341,-4.351 l 0.758,-0.757 0.012,-0.013 0.222,-0.049 0.151,0.151 -0.108,0.463 -0.337,0.875 -0.876,1.766 -0.539,1.518 c -0.403,3.765 -3.49,5.414 -6.89,4.445 l -1.248,-0.827 -0.954,-0.206 -0.185,0.037 -0.13,0.126 -0.465,1.289 -0.535,1.823 -0.708,1.09 -0.903,1.178 -0.795,0.695 -1.297,0.773 -1.02,0.472 -1.691,0.363 -0.18,0.086 -0.062,0.107 0.173,1.228 0.208,0.978 0.152,1.318 0.067,0.831 0.057,0.247 -0.035,0.243 -0.176,0.176 -0.251,0.035 -0.208,-0.101 -0.399,-0.537 -1.16,-0.88 -1.128,-0.629 -1.637,-0.41 -1.28,-0.197 -1.472,-0.307 -2.398,-0.859 -1.31,-0.768 -0.799,-0.68 -1.183,-1.184 -1.058,-1.305 -0.743,-1.028 -0.585,-0.87 -0.126,-0.057 -0.636,0.167 -0.404,0.192 -1.337,0.113 -0.436,-0.066 -0.16,0.058 -0.061,0.152 0.123,0.432 0.486,1.015 0.557,2.404 c 0.141,4.908 2.164,4.151 3.939,6.937 l 0.827,1.832 0.37,1.111 0.444,1.9 0.454,0.696 0.704,0.772 0.695,0.795 0.432,0.747 0.403,1.969 0.307,0.546 0.548,0.626 0.291,0.3 0.16,0.065 0.344,-0.105 3.063,-1.075 c 4.523,-1.162 8.216,-6.211 12.902,-6.212 l 1.193,-0.088 0.009,-10e-4 0.291,0.059 0.158,0.158 -0.074,0.215 -0.428,0.247 c -3.215,1.052 -3.635,2.419 -5.307,5.243 l -1.238,1.16 -0.711,0.467 C 46.828,64.779 43.867,64.953 42,65.918 l -0.117,0.094 v 0.079 l 0.893,0.536 1.024,1.062 0.627,1.467 0.305,2.082 0.048,3.477 0.765,2.159 0.382,0.779 0.312,0.246 1.881,0.751 1.148,0.324 2.365,0.568 0.852,0.04 0.75,0.122 1.761,-0.02 1.779,-0.263 1.599,-0.467 1.654,-0.424 2.018,-0.048 0.462,-0.079 0.013,-0.002 0.236,0.056 0.34,0.34 0.045,0.235 -0.095,0.209 -0.436,0.213 -1.553,-0.081 -0.478,0.095 -1.209,0.544 -1.406,0.954 -0.526,0.341 -0.455,0.444 -1.06,0.722 -1.431,0.647 -0.968,0.228 H 52.65 l -1.727,-0.353 -1.642,-0.726 -0.755,-0.438 -2.098,-1.746 -0.144,-0.048 -0.103,0.042 -0.427,0.733 -0.54,0.638 -0.746,0.481 -1.115,0.371 -1.146,-0.006 -1.243,-0.249 -0.192,0.008 -0.119,0.115 -0.27,0.899 -0.618,0.882 -0.893,0.631 -1.287,0.496 -0.493,0.005 -0.693,-0.23 -0.348,-0.254 -0.658,-0.212 -0.905,-0.611 -1.431,-1.529 -0.608,-0.864 -0.383,-0.516 -0.284,-0.596 -0.523,-0.957 -0.178,-0.409 -0.076,-0.042 -0.234,0.211 -0.555,0.621 -0.906,1.737 c -1.152,3.995 -2.756,5.704 -6.993,5.432 l -0.753,-0.122 -1.835,-0.044 -1.341,0.101 -1.429,0.379 -0.009,0.002 -0.259,-0.017 -0.184,-0.183 -0.038,-0.279 0.072,-0.277 0.362,-0.292 1.489,-0.877 2.241,-1.003 1.232,-0.542 c 3.821,-0.699 4.921,-4.418 7.325,-6.786 l 0.207,-0.339 v -0.136 l -0.251,-0.267 -0.541,-0.354 -0.687,-0.812 -0.256,-0.641 -0.529,-0.637 -0.25,-0.681 -0.084,-0.81 0.056,-1.183 0.041,-0.216 -0.027,-0.106 -0.11,-0.033 c -9.708,4.301 -8.721,2.115 -18.626,0.814 l -0.185,-0.174 0.076,-0.221 0.482,-0.19 0.959,-0.227 c 6.411,-2.068 13.59,-0.072 19.382,-4.169 l 0.249,-0.257 -0.035,-0.383 -0.336,-1.175 0.05,-0.845 0.49,-1.583 0.724,-1.625 0.563,-1.781 0.088,-0.788 -0.014,-1.456 -0.334,-1.417 -1.028,-2.201 -1.121,-1.23 -0.775,-1.004 -0.758,-1.323 -0.217,-0.679 -0.26,-1.796 -0.598,-2.329 -0.716,-1.332 -1.161,-1.46 -0.473,-0.097 -0.521,0.07 -0.155,0.104 -0.102,0.152 -0.053,1.11 0.064,0.817 0.388,2.862 -0.016,1.479 -0.137,0.741 -0.177,2.189 -0.261,1.212 -0.102,0.503 -0.442,1.033 -0.546,1.223 -0.935,2.018 -0.737,1.327 -1.667,3.038 -0.526,1.224 -0.126,0.801 -0.182,0.187 -0.242,0.018 -0.181,-0.174 -0.148,-0.73 -0.046,-0.871 -0.378,-1.397 -1.004,-3.131 -0.408,-1.938 -0.022,-0.023 -0.175,0.23 -0.957,1.443 -1.777,1.759 -0.806,0.412 -1.791,0.577 -1.006,0.181 -0.447,0.081 -0.439,-0.059 -1.77,0.269 -1.113,0.054 -1.574,0.757 -2.002,1.252 -1.229,0.534 -1.398,0.717 -0.239,0.064 -0.22,-0.079 -0.109,-0.244 0.03,-0.584 0.499,-1.314 0.305,-0.566 0.157,-0.432 0.381,-0.513 0.395,-0.775 C 1.236,54.701 0.622,53.514 0.734,48.225 L 1.232,45.756 1.379,45.33 1.361,45.244 0.446,45.068 -1.553,44.415 -2.09,44.049 -2.109,44.035 -2.16,43.827 -1.955,43.448 -1.039,42.305 0.259,39.756 1.291,38.419 2.341,37.391 3.56,36.537 3.952,36.332 4.026,36.238 4.002,36.155 3.357,35.64 2.727,35.099 1.367,34.101 0.876,33.405 0.405,32.992 0.203,32.585 -0.384,32.008 -0.87,30.981 -1.226,29.876 -1.464,29.564 -2.342,29.271 -4.005,28.259 -5.192,27.07 l -0.564,-0.908 -0.363,-1.438 -0.237,-1.549 0.129,-0.737 -0.03,-0.652 -0.004,-0.886 0.062,-0.518 -0.156,-1.033 0.016,-1.776 0.28,-1.194 0.496,-0.713 1.401,-0.971 1.472,-1.481 0.636,-0.555 0.885,-0.574 c -0.035,-0.065 -0.068,-0.131 -0.1,-0.198 -0.072,-0.145 -0.155,-0.289 -0.205,-0.443 -0.08,-0.241 -0.137,-0.49 -0.204,-0.736 C -1.691,10.658 -1.701,10.605 -1.72,10.557 -1.959,9.954 -2.099,9.326 -2.182,8.686 -2.234,8.296 -2.326,7.915 -2.342,7.519 -2.381,6.62 -2.516,5.727 -2.482,4.844 -2.507,4.378 -2.486,3.935 -2.373,3.498 c 0.058,-0.221 0.12,-0.446 0.137,-0.672 0.038,-0.479 0.172,-0.939 0.248,-1.409 0.012,-0.073 0.043,-0.144 0.071,-0.213 0.083,-0.205 0.171,-0.41 0.253,-0.615 0.081,-0.207 0.15,-0.418 0.238,-0.621 0.145,-0.335 0.292,-0.671 0.456,-0.998 0.116,-0.229 0.245,-0.456 0.399,-0.663 0.346,-0.468 0.726,-0.91 1.136,-1.325 0.046,-0.047 0.096,-0.088 0.143,-0.132 L 0.475,-3.344 -0.033,-4.009 C -1.507,-5.58 -2.44,-8.101 -3.595,-9.88 l -1.066,-1.292 -0.285,-0.638 -0.005,-0.233 0.156,-0.149 0.557,-0.071 0.009,-0.002 1.023,0.196 0.921,0.279 0.383,0.094 0.056,-0.055 -0.54,-2.62 -0.293,-1.471 -0.366,-1.39 -0.256,-0.617 -0.782,-1.312 -0.023,-0.248 0.123,-0.2 0.208,-0.092 0.369,0.157 1.15,0.942 1.496,0.844 1.131,0.326 1.098,0.084 0.785,0.093 c 4.537,0.209 9.653,0.199 13.968,1.676 l 0.815,0.354 0.091,-0.026 0.129,-1.042 0.548,-2.388 0.008,-1.194 0.067,-0.263 0.17,-0.168 0.219,0.012 1.154,0.951 1.145,0.918 1.296,1.07 0.892,0.872 0.48,0.424 0.616,0.85 1.098,1.279 0.599,1.167 0.833,1.534 0.686,1.688 0.301,1.772 0.019,0.852 0.079,0.172 0.352,0.198 0.865,0.314 0.705,0.519 0.801,0.96 c 1.478,1.876 0.443,1.879 2.772,3.688 l 1.858,1.091 0.708,0.804 0.417,0.671 0.063,-0.004 1.015,-1.316 1.645,-1.604 0.642,-0.525 1.004,-1.053 0.91,-1.144 0.445,-0.729 1.382,-2.465 0.798,-0.975 0.982,-1.081 1.169,-0.656 0.466,-0.128 0.019,-0.005 0.243,0.091 0.076,0.229 -0.815,1.579 -0.059,1.11 0.029,0.55 0.397,1.053 0.112,0.149 0.175,0.085 0.807,-0.014 0.776,-0.124 1.754,-0.004 c 3.112,-0.679 6.324,-0.416 8.924,-2.515 l 0.563,-0.602 0.601,-0.877 0.756,-1.011 0.706,-0.518 0.193,0.057 0.1,0.206 0.05,1.464 0.508,1.529 0.738,1.329 0.958,2.005 0.31,1.166 0.4,1.679 c 0.401,3.324 -1.204,5.63 -3.143,8.104 l -0.295,0.294 -0.047,0.142 0.051,0.118 0.803,0.387 0.641,0.533 0.524,0.376 0.417,0.456 0.888,0.558 0.985,0.195 0.017,0.003 0.184,0.177 0.017,0.26 -0.105,0.231 -1.16,0.959 -0.48,0.417 -0.897,0.575 -0.542,0.362 -0.374,0.182 -0.025,0.053 0.235,0.205 z" fill="#181716" transform="matrix(1.33333 0 0 -1.33333 7.972 122.997)"/><path style="mix-blend-mode:multiply" d="m 0,0 c -0.017,-0.131 -0.076,-0.241 -0.215,-0.275 -0.146,-0.035 -0.273,-0.004 -0.364,0.127 -0.147,0.21 -0.231,0.444 -0.262,0.696 -0.01,0.072 -0.007,0.144 -0.011,0.216 h 0.005 c 0,0.076 0.003,0.151 -0.001,0.225 -0.007,0.161 0.087,0.272 0.187,0.375 0.079,0.083 0.218,0.064 0.309,-0.026 C -0.256,1.242 -0.199,1.124 -0.131,1.007 0.056,0.686 0.044,0.347 0,0 M 0.75,-1.247 C 0.707,-0.756 0.694,-0.26 0.528,0.214 0.51,0.265 0.511,0.323 0.496,0.377 0.423,0.643 0.348,0.91 0.275,1.177 0.274,1.18 0.271,1.182 0.27,1.185 0.227,1.295 0.184,1.403 0.142,1.513 0.037,1.784 -0.157,1.967 -0.429,2.051 -0.681,2.128 -0.878,1.966 -1.048,1.826 -1.225,1.679 -1.289,1.443 -1.344,1.223 -1.376,1.098 -1.371,0.963 -1.371,0.833 c 0,-0.406 0.004,-0.812 0.008,-1.218 0.003,-0.314 0.01,-0.628 0.122,-0.929 0.026,-0.069 0.025,-0.148 0.044,-0.221 0.064,-0.257 0.132,-0.512 0.199,-0.768 0.007,-0.024 0.024,-0.046 0.035,-0.07 0.089,-0.178 0.227,-0.318 0.364,-0.458 0.149,-0.151 0.339,-0.227 0.545,-0.265 0.041,-0.008 0.086,-0.006 0.126,0.004 0.282,0.077 0.491,0.251 0.564,0.533 0.077,0.295 0.107,0.603 0.158,0.905 -0.007,0.002 -0.015,0.003 -0.023,0.005 -0.007,0.134 -0.009,0.268 -0.021,0.402" fill="#181716" transform="matrix(1.33333 0 0 -1.33333 28.62 126.23)"/><path style="mix-blend-mode:multiply" d="m 0,0 c -0.011,-0.114 -0.017,-0.229 -0.033,-0.342 -0.012,-0.085 -0.056,-0.158 -0.16,-0.181 -0.105,-0.024 -0.209,-0.006 -0.28,0.069 -0.055,0.057 -0.105,0.125 -0.129,0.195 -0.106,0.312 -0.171,0.629 -0.103,0.951 0.012,0.059 0.034,0.125 0.078,0.166 0.165,0.151 0.401,0.076 0.519,-0.136 C 0.025,0.485 0.025,0.246 0,0 M 0.512,0.101 C 0.5,0.169 0.491,0.238 0.466,0.301 0.384,0.513 0.35,0.722 0.286,0.939 0.217,1.174 0.077,1.346 -0.104,1.49 -0.212,1.576 -0.411,1.668 -0.558,1.633 -0.755,1.587 -0.927,1.487 -1.009,1.279 -1.117,1.005 -1.174,0.722 -1.173,0.427 c 0.003,-0.443 0.023,-0.88 0.114,-1.316 0.08,-0.386 0.082,-0.781 0.202,-1.166 0.078,-0.249 0.19,-0.476 0.283,-0.715 0.051,-0.131 0.117,-0.256 0.236,-0.342 0.077,-0.055 0.154,-0.109 0.232,-0.163 0.101,-0.071 0.199,-0.068 0.299,0.005 0.425,0.142 0.53,0.419 0.55,0.784 0.015,0.254 0.003,0.51 0.003,0.766 h 0.018 c -0.012,0.401 -0.065,0.905 -0.165,1.301 -0.042,0.17 -0.057,0.347 -0.087,0.52" fill="#181716" transform="matrix(1.33333 0 0 -1.33333 35.92 124.861)"/></g><path style="mix-blend-mode:multiply" d="M 0,0 H 67.294 V 116.026 H 0 Z" fill="none" stroke="#181716" stroke-width="1.605" stroke-miterlimit="10" transform="matrix(1.33333 0 0 -1.33333 1.07 155.771)"/></svg>