<svg xmlns="http://www.w3.org/2000/svg" width="91.865" height="156.841"><path style="mix-blend-mode:multiply" d="m 291.625,343.871 h 67.294 v 116.025 h -67.294 z" fill="#fff" transform="matrix(1.33333 0 0 -1.33333 -387.764 614.265)"/><g style="mix-blend-mode:multiply"><g style="mix-blend-mode:multiply"><path style="mix-blend-mode:multiply" d="m 0,0 -0.824,-0.074 -0.537,-0.348 -0.564,-0.615 -0.408,-1.36 -0.034,-2.038 0.094,-0.79 0.059,-0.827 0.087,-0.794 0.06,-1.121 0.407,-1.95 0.501,-1.857 0.368,-0.81 0.392,-0.791 0.302,-0.284 0.197,-0.01 0.184,0.088 0.149,0.157 0.873,1.788 0.491,1.867 0.467,2.774 0.089,0.797 0.088,0.795 0.064,1.125 -0.093,0.791 -0.069,0.815 -0.191,0.692 -0.618,1.15 -0.409,0.476 -0.594,0.29 z" fill="#fc0" transform="matrix(1.33333 0 0 -1.33333 71.894 24.103)"/></g><g style="mix-blend-mode:multiply"><path style="mix-blend-mode:multiply" d="m 0,0 0.317,-0.382 c 0.579,0.122 1.382,0.249 2.131,0.212 0.863,-0.044 1.615,-0.196 2.104,-0.319 L 3.708,1.646 2.922,2.922 2.152,3.919 1.248,4.488 0.383,4.818 -0.113,4.794 -0.688,4.469 -1.109,3.713 -1.356,3.055 -1.291,2.549 -1.056,2.186 -0.726,1.041 -0.452,0.726 Z" fill="#fc0" fill-rule="evenodd" transform="matrix(1.33333 0 0 -1.33333 34.787 120.55)"/></g><g style="mix-blend-mode:multiply"><path style="mix-blend-mode:multiply" d="m 0,0 v 14.441 3.262 l -0.059,0.176 -0.118,-0.005 -0.585,-0.609 -0.756,-0.422 -0.781,-0.712 -0.368,-0.158 -0.099,0.099 0.124,0.397 0.835,1.847 0.156,0.418 -0.103,0.422 -0.511,0.976 -0.187,0.404 -0.087,0.796 -0.256,0.628 -0.058,1.532 0.004,0.468 -0.236,0.953 -0.068,1.404 -0.094,0.791 -0.024,0.859 -0.196,1.46 -0.064,1.522 -0.064,1.243 -0.005,0.628 -0.192,1.7 -0.192,1.282 -0.023,1.154 -0.266,1.797 -0.083,0.801 -0.217,1.273 0.044,0.908 -0.128,0.761 -0.196,0.688 -0.069,0.815 -0.093,0.792 -0.024,0.86 -0.123,0.76 -0.054,1.125 -0.088,0.796 -0.089,0.796 -0.148,1.326 -0.118,1.356 -0.24,1.822 -0.05,0.835 -0.211,0.678 -0.039,1.429 -0.275,0.904 -0.187,0.992 -0.432,1.926 -1.159,4.734 -0.692,2.844 -0.369,1.105 -0.687,2.554 -0.28,0.605 -0.178,0.707 -0.328,0.849 -0.286,0.6 -0.421,1.051 -0.497,0.683 -0.294,0.883 -0.33,0.556 -0.501,0.972 -0.289,0.595 -0.692,1.075 -0.315,0.57 -0.707,0.767 -0.536,0.643 -1.145,0.938 -0.176,0.059 -0.153,-0.049 -0.314,-0.565 -0.299,-1.174 -0.62,-1.738 -0.294,-0.885 -0.245,-0.368 -0.167,-0.113 -0.178,0.01 -0.265,0.314 -0.712,1.95 -0.314,1.748 -0.148,0.158 -0.24,0.058 -0.496,-0.112 -0.388,-0.138 -0.364,-0.01 -0.171,-0.088 -0.226,-0.373 -0.265,-0.624 -0.595,-0.585 -0.526,-0.652 -0.265,-0.62 -0.368,-0.515 -0.933,-2.014 -0.265,-0.619 -0.654,-1.999 -0.226,-0.953 -0.506,-1.263 -0.235,-0.943 -0.389,-1.085 -0.368,-0.811 -0.486,-1.281 -0.379,-1.391 -0.678,-1.974 -0.22,-0.957 -0.251,-0.634 -0.128,-0.757 -0.206,-0.678 -0.785,-2.456 -0.237,-0.943 -0.264,-0.914 -0.231,-1.832 -0.226,-0.953 -0.143,-0.741 -0.162,-0.722 -0.27,-1.498 -0.442,-1.621 -0.178,-1.592 -0.353,-2.593 -0.388,-2.265 -0.054,-0.83 -0.324,-2.621 -0.148,-1.328 -0.112,-1.361 -0.393,-2.259 -0.025,-1.154 -0.265,-1.503 -0.059,-1.119 v -0.412 l 0.054,-0.512 -0.142,-0.757 -0.01,-1.462 -0.137,-0.747 -0.011,-1.759 -0.137,-0.747 0.01,-1.463 0.138,-0.746 0.029,-1.445 0.108,-0.757 -0.025,-0.628 0.035,-1.444 -0.137,-0.452 -0.188,-0.117 h -0.52 l -1.223,0.27 -2.349,0.304 -1.153,0.024 -0.933,0.227 -0.688,-0.069 h -0.648 l -0.796,-0.099 -0.167,-0.127 -0.177,-0.433 0.044,-0.495 0.365,-0.428 -0.497,0.062 c 0,0 -2.115,2.047 -4.98,2.934 -2.631,0.814 -5.946,1.511 -6.47,1.62 l -0.097,0.47 c -0.076,1.855 -0.448,8.993 -1.688,12.713 -1.432,4.297 -3.206,12.075 -4.502,13.78 -1.297,1.706 -2.388,4.708 -3.343,4.844 -0.092,0.013 -0.203,0.007 -0.321,-0.007 l -0.156,-0.129 c -0.143,-0.014 -0.281,-0.009 -0.416,-0.003 -0.531,-0.169 -1.154,-0.464 -1.719,-0.785 l -0.013,0.023 c -0.786,-1.078 -3.31,-4.011 -3.515,-4.42 -0.204,-0.409 -1.432,-3.071 -1.636,-2.525 -0.026,0.067 -0.312,-0.838 -0.342,-0.682 -0.618,-0.975 -1.058,-2.483 -1.228,-2.864 -0.546,-1.229 -2.729,-8.324 -2.796,-8.596 -0.069,-0.274 0.886,-48.981 0.681,-48.913 -0.204,0.069 54.917,0.341 54.917,0.341 l -0.007,0.231 2.612,-10e-4 h 14.441 l 5.018,-0.009 0.207,0.087 0.089,0.207 z" fill="#3a3a39" fill-rule="evenodd" transform="matrix(1.33333 0 0 -1.33333 97.232 141.999)"/></g></g><path style="mix-blend-mode:multiply" d="M 0,0 H 0.1 V 0.065 Z" fill="#181716" transform="matrix(1.33333 0 0 -1.33333 90.663 155.77)"/><path style="mix-blend-mode:multiply" d="M 0,0 0.428,-0.753 1.1,-1.871 1.327,-1.924 1.563,-1.861 1.776,-1.707 1.853,-1.479 1.569,-0.846 1.147,0.22 0.808,0.749 0.487,1.608 0.202,2.242 0.195,2.258 0.008,2.376 -0.186,2.316 -0.298,2.093 -0.293,0.924 Z" fill="#181716" transform="matrix(1.33333 0 0 -1.33333 59.458 46.534)"/><g style="mix-blend-mode:multiply"><path style="mix-blend-mode:multiply" d="m 0,0 c -0.071,-0.007 -0.144,-0.003 -0.216,-0.002 -0.199,0.001 -0.386,-0.039 -0.565,-0.136 -0.093,-0.051 -0.21,-0.065 -0.318,-0.076 -0.138,-0.015 -0.261,-0.051 -0.391,-0.106 -0.25,-0.107 -0.524,-0.149 -0.768,-0.279 -0.062,-0.032 -0.155,-0.012 -0.232,-0.01 -0.161,0.004 -0.308,-0.026 -0.454,-0.101 -0.221,-0.112 -0.453,-0.198 -0.679,-0.302 -0.207,-0.096 -0.41,-0.2 -0.616,-0.3 -0.047,-0.022 -0.093,-0.051 -0.143,-0.063 -0.246,-0.062 -0.455,-0.192 -0.656,-0.34 -0.031,-0.024 -0.065,-0.047 -0.101,-0.058 -0.104,-0.027 -0.189,0.042 -0.172,0.148 0.009,0.054 0.038,0.114 0.077,0.152 0.167,0.165 0.347,0.317 0.511,0.484 0.238,0.243 0.466,0.496 0.698,0.744 0.108,0.114 0.224,0.221 0.326,0.341 0.146,0.175 0.282,0.358 0.422,0.539 0.129,0.164 0.245,0.341 0.389,0.492 0.231,0.241 0.38,0.533 0.538,0.817 0.084,0.151 0.167,0.294 0.288,0.417 0.043,0.043 0.075,0.105 0.095,0.163 0.008,0.027 -0.019,0.082 -0.046,0.098 C -2.038,2.637 -2.095,2.63 -2.118,2.609 -2.18,2.553 -2.23,2.482 -2.289,2.421 -2.369,2.336 -2.45,2.251 -2.535,2.172 -2.832,1.896 -3.131,1.622 -3.427,1.346 -3.48,1.297 -3.519,1.234 -3.574,1.187 -4.2,0.658 -4.704,0.007 -5.3,-0.552 c -0.061,-0.058 -0.109,-0.13 -0.167,-0.193 -0.079,-0.089 -0.142,-0.096 -0.208,-0.007 -0.088,0.119 -0.182,0.23 -0.214,0.39 -0.056,0.274 -0.118,0.553 -0.225,0.811 -0.082,0.198 -0.166,0.388 -0.194,0.604 -0.012,0.094 -0.08,0.178 -0.116,0.269 -0.105,0.268 -0.108,0.505 0.121,0.735 0.75,0.759 1.495,1.523 2.224,2.302 0.311,0.333 0.581,0.705 0.864,1.064 0.088,0.113 0.126,0.244 10e-4,0.405 C -3.271,5.784 -3.317,5.751 -3.361,5.715 -3.624,5.499 -3.885,5.283 -4.147,5.067 -4.207,5.017 -4.271,4.97 -4.325,4.914 -4.929,4.296 -5.532,3.677 -6.133,3.056 -6.246,2.94 -6.346,2.809 -6.458,2.691 -6.49,2.659 -6.552,2.622 -6.586,2.634 c -0.034,0.01 -0.061,0.076 -0.07,0.121 -0.011,0.057 -0.001,0.118 0.002,0.176 0.01,0.185 -0.017,0.364 -0.074,0.541 -0.033,0.104 -0.047,0.217 -0.051,0.327 -0.007,0.163 0.006,0.327 0.003,0.491 -0.007,0.328 0.013,0.651 0.09,0.974 0.046,0.194 0.023,0.404 0.044,0.605 0.011,0.107 0.045,0.214 0.075,0.318 0.027,0.094 0.065,0.185 0.098,0.277 0.053,0.147 0.105,0.294 0.158,0.441 0.005,0.012 0.014,0.023 0.016,0.036 0.108,0.533 0.466,0.892 0.858,1.226 0.059,0.051 0.122,0.098 0.183,0.147 0.101,0.081 0.212,0.126 0.345,0.12 0.307,-0.014 0.614,-0.012 0.92,0.033 0.115,0.017 0.217,-0.012 0.312,-0.084 C -3.62,8.34 -3.552,8.31 -3.487,8.28 -3.063,8.086 -2.688,7.834 -2.45,7.416 -2.399,7.326 -2.333,7.242 -2.26,7.166 -2.044,6.941 -1.895,6.675 -1.755,6.4 -1.578,6.05 -1.39,5.705 -1.218,5.353 -1.106,5.125 -1.014,4.887 -0.911,4.655 -0.888,4.602 -0.855,4.553 -0.83,4.5 -0.807,4.448 -0.775,4.394 -0.772,4.34 -0.764,4.225 -0.736,4.121 -0.662,4.031 -0.591,3.946 -0.569,3.846 -0.575,3.737 -0.588,3.491 -0.552,3.259 -0.421,3.04 c 0.049,-0.084 0.054,-0.201 0.057,-0.304 0.005,-0.166 0.032,-0.32 0.102,-0.474 0.05,-0.11 0.074,-0.239 0.073,-0.36 -0.002,-0.3 0.07,-0.584 0.13,-0.872 C -0.031,0.897 -0.002,0.761 0.008,0.626 0.018,0.487 0.037,0.358 0.116,0.235 0.208,0.092 0.166,0.016 0,0 M 4.282,3.116 4.22,2.96 4.138,2.945 3.302,3.818 3.222,4.593 3.195,6.64 3.074,7.393 3.034,9.989 2.99,10.907 2.895,12.242 2.799,12.718 2.823,13.347 2.665,13.765 2.636,14.906 2.747,15.635 2.537,16.184 3.689,14.857 3.803,14.494 3.693,13.751 3.692,13.739 3.904,12.932 4.131,11.51 4.287,10.198 4.341,9.069 4.434,8.287 4.414,6.227 4.276,4.602 Z M 6.395,10.4 6.497,9.612 6.463,3.457 6.339,2.688 6.322,1.835 6.21,1.348 6.13,1.199 6.05,1.185 5.581,1.561 5.191,1.955 5.439,3.11 C 5.355,6.649 5.5,9.4 4.991,12.999 l 0.044,0.127 H 5.084 L 6.092,12.104 6.575,11.444 6.571,11.312 6.377,10.931 6.369,10.917 Z M 8.987,6.5 9.075,4.983 9.144,2.534 9.141,-0.69 9.03,-1.173 8.939,-1.306 8.844,-1.325 7.879,-0.56 7.29,0.013 7.075,0.37 7.061,0.884 7.351,2.675 7.504,4.003 7.508,7.228 7.647,7.986 v 2.067 L 7.694,10.19 7.757,10.2 8.305,9.585 8.607,9.311 8.667,9.143 8.585,8.47 8.584,8.46 Z M 10.898,-0.385 10.761,-1.437 10.722,-2.275 10.559,-2.632 10.462,-2.647 9.969,-2.321 9.847,-1.602 9.826,5.755 9.705,6.507 9.728,7.936 9.762,7.969 11.061,6.75 11.137,6.597 11.06,5.333 11.095,3.288 11.197,2.817 11.054,1.804 11.032,0.95 10.856,0.07 10.853,0.061 Z m 1.341,-3.273 -0.063,-0.157 -0.106,-0.032 -0.32,0.228 -0.079,0.17 0.087,0.682 0.029,2.932 0.088,1.022 -0.098,0.741 0.143,0.754 v 2.95 l 0.052,0.143 0.073,0.013 0.115,-0.103 0.079,-0.21 -0.049,-1.243 0.049,-1.699 0.015,-2.065 0.078,-0.781 -0.098,-0.979 z m 3.877,82.81 -0.489,1.222 -0.314,1.448 -0.156,1.313 -0.101,1.881 0.421,2.2 0.465,1.301 0.119,0.102 h 0.13 l 0.593,-0.546 0.311,-0.548 0.3,-1.447 0.064,-0.829 0.026,-0.426 -0.177,-1.59 -0.142,-1.033 -0.3,-1.45 -0.371,-0.816 -0.226,-0.677 -0.095,-0.11 z m 1.26,-84.72 -0.053,1.243 0.048,1.702 0.01,3.495 0.11,-0.309 0.182,-1.011 1.146,-4.458 0.29,-0.868 -0.012,-0.163 -1.05,-1.562 -0.376,-0.525 -0.146,-0.086 -0.092,0.019 -0.062,0.157 -0.083,1.326 z m 6.492,17.853 -0.398,1.963 -0.348,1.429 -0.286,0.367 -0.203,0.037 -0.172,-0.1 -0.143,-0.218 -0.01,-0.874 0.099,-0.727 0.682,-3.14 0.066,-0.832 0.19,-0.69 0.598,-2.636 0.116,-1.075 0.538,-2.112 V 3.17 L 23.477,1.36 23.363,1.315 23.257,1.379 23.17,1.561 22.913,3.089 22.524,4.16 l -0.6,3.53 -0.491,2.155 -0.171,1.299 -0.083,1.389 -0.286,0.649 -0.007,0.017 -0.203,0.132 -0.226,-0.043 -0.156,-0.172 -0.088,-0.259 -0.027,-0.606 0.174,-1.316 0.633,-3.199 0.59,-2.65 0.79,-3.929 0.249,-0.931 0.028,-0.423 -0.643,-1.097 -0.329,-0.433 -0.044,0.022 -0.143,0.406 -0.305,1.476 -1.297,5.184 -0.298,1.466 -0.392,2.254 -0.083,1.389 -0.252,0.678 -0.257,0.386 -0.237,0.006 -0.167,-0.173 -0.075,-0.269 0.016,-1.495 0.727,-3.399 0.325,-1.448 0.648,-2.294 0.857,-3.867 0.287,-0.892 0.096,-0.462 -0.053,-0.212 -0.471,-0.71 -0.579,-0.891 -0.256,-0.288 -0.099,0.007 -0.098,0.121 -0.591,2.363 -0.383,1.677 -0.216,1.255 -0.408,2.834 -0.268,0.632 -0.417,1.053 0.062,0.703 -0.068,0.438 0.068,0.486 0.074,0.829 -0.126,0.777 0.107,0.713 -0.002,2.047 0.113,0.452 0.315,0.249 1.103,0.965 0.756,0.716 1.943,1.885 0.772,0.704 0.451,0.43 0.781,0.684 0.687,0.473 0.16,-0.024 0.115,-0.124 0.651,-3.766 0.383,-1.68 0.481,-2.171 0.277,-1.2 L 26.667,7.542 26.57,7.099 25.93,5.971 25.627,5.393 25.358,5.177 25.281,5.206 25.202,5.359 24.503,8.495 24.33,9.79 Z m 3.682,8.524 0.115,0.412 0.7,0.751 0.094,0.019 0.076,-0.08 0.792,-4.51 0.244,-1.539 0.444,-1.247 -0.184,-0.607 -0.428,-0.763 -0.093,-0.089 -0.047,0.01 -0.228,0.606 -0.172,0.713 -0.475,1.877 -0.393,1.961 -0.123,1.062 z m -1.687,-4.909 -0.24,1.224 -0.04,0.868 -0.076,0.44 0.158,0.372 0.792,0.991 0.128,0.108 0.04,-0.002 0.351,-1.908 0.314,-1.456 0.551,-2.105 0.676,-2.291 0.164,-0.38 -0.069,-0.367 -0.656,-1.403 -0.563,-0.914 -0.11,-0.07 -0.085,0.03 -0.166,0.361 -0.506,2.451 -0.315,1.453 -0.293,1.466 z M -7.611,-3.251 c -0.302,-0.207 -0.6,-0.419 -0.896,-0.634 -0.217,-0.159 -0.428,-0.324 -0.639,-0.49 -0.221,-0.172 -0.439,-0.351 -0.663,-0.52 -0.034,-0.026 -0.119,-0.041 -0.138,-0.022 -0.04,0.042 -0.07,0.11 -0.069,0.168 0.003,0.261 0.018,0.522 0.027,0.735 -0.012,0.298 -0.011,0.548 -0.036,0.795 -0.02,0.214 -0.067,0.425 -0.11,0.636 -0.016,0.078 -0.021,0.141 0.057,0.186 0.095,0.056 0.182,0.141 0.285,0.168 0.228,0.058 0.447,0.131 0.653,0.244 0.322,-0.02 0.616,0.104 0.916,0.189 0.044,0.013 0.091,0.012 0.136,0.02 0.132,0.024 0.223,-0.021 0.288,-0.145 0.094,-0.178 0.206,-0.349 0.304,-0.526 0.031,-0.056 0.047,-0.121 0.062,-0.183 0.01,-0.045 -0.005,-0.097 0.013,-0.137 0.1,-0.227 -0.014,-0.363 -0.19,-0.484 m -2.905,3.425 c -0.158,-0.011 -0.237,0.075 -0.264,0.234 -0.008,0.051 -0.011,0.104 -0.009,0.155 0.006,0.156 -0.041,0.288 -0.12,0.425 -0.109,0.189 -0.182,0.398 -0.269,0.599 -0.051,0.119 -0.099,0.239 -0.149,0.358 -0.01,0.025 -0.027,0.048 -0.029,0.073 -0.023,0.307 -0.209,0.542 -0.343,0.802 -0.094,0.178 -0.171,0.365 -0.257,0.547 -0.121,0.26 -0.245,0.518 -0.367,0.776 -0.017,0.036 -0.036,0.072 -0.045,0.109 -0.029,0.121 0.008,0.19 0.131,0.217 0.088,0.021 0.18,0.029 0.271,0.03 0.115,0.001 0.221,0.02 0.313,0.092 0.124,0.099 0.268,0.121 0.422,0.132 0.155,0.009 0.307,0.05 0.461,0.076 0.167,0.03 0.332,0.066 0.5,0.083 0.143,0.014 0.288,0.004 0.431,0.005 0.193,0 0.375,0.033 0.547,0.131 0.157,0.09 0.246,0.047 0.27,-0.139 0.025,-0.194 0.025,-0.391 0.032,-0.587 0.004,-0.098 0,-0.196 0,-0.294 h 0.002 c 0,-0.184 -0.001,-0.367 0,-0.55 C -8.986,3.27 -8.957,3.1 -8.893,2.931 -8.846,2.806 -8.825,2.663 -8.829,2.529 -8.837,2.256 -8.811,1.996 -8.683,1.748 -8.642,1.671 -8.637,1.572 -8.63,1.481 -8.622,1.352 -8.623,1.22 -8.626,1.089 -8.628,0.947 -8.6,0.817 -8.509,0.703 -8.489,0.677 -8.471,0.649 -8.459,0.62 -8.4,0.486 -8.468,0.381 -8.613,0.381 -8.639,0.382 -8.667,0.384 -8.69,0.394 -9.026,0.54 -9.345,0.365 -9.671,0.339 c -0.013,0 -0.027,-0.006 -0.036,-0.014 -0.24,-0.208 -0.535,-0.132 -0.809,-0.151 m -1.326,-5.343 c -0.088,-0.131 -0.124,-0.275 -0.115,-0.429 0.014,-0.247 -0.034,-0.481 -0.12,-0.711 -0.032,-0.083 -0.052,-0.178 -0.052,-0.267 -0.001,-0.155 -0.04,-0.294 -0.103,-0.434 -0.048,-0.105 -0.078,-0.222 -0.094,-0.336 -0.018,-0.133 -0.039,-0.256 -0.14,-0.357 -0.035,-0.034 -0.066,-0.089 -0.071,-0.136 -0.015,-0.134 -0.098,-0.222 -0.176,-0.32 -0.294,-0.373 -0.655,-0.679 -1.012,-0.984 -0.184,-0.157 -0.4,-0.287 -0.665,-0.302 -0.12,-0.006 -0.243,-0.055 -0.353,-0.109 -0.127,-0.062 -0.254,-0.094 -0.395,-0.092 -0.341,0.004 -0.682,0.004 -1.022,0.002 -0.121,-10e-4 -0.233,0.02 -0.336,0.087 -0.039,0.025 -0.079,0.049 -0.123,0.061 -0.3,0.085 -0.602,0.165 -0.902,0.248 -0.093,0.027 -0.184,0.062 -0.275,0.097 -0.067,0.025 -0.129,0.066 -0.197,0.084 -0.31,0.084 -0.577,0.235 -0.812,0.455 -0.113,0.106 -0.25,0.189 -0.385,0.27 -0.275,0.163 -0.486,0.396 -0.7,0.626 -0.11,0.118 -0.1,0.167 0.024,0.273 0.011,0.008 0.021,0.017 0.032,0.024 0.617,0.39 1.071,0.958 1.587,1.457 0.565,0.547 1.115,1.109 1.668,1.667 0.183,0.186 0.355,0.384 0.535,0.574 0.103,0.109 0.202,0.226 0.321,0.317 0.166,0.125 0.282,0.288 0.396,0.456 0.065,0.098 0.135,0.195 0.217,0.276 0.521,0.509 0.992,1.061 1.407,1.659 0.108,0.156 0.23,0.302 0.345,0.452 0.02,0.025 0.052,0.052 0.052,0.08 0.002,0.04 -0.006,0.098 -0.033,0.12 -0.025,0.021 -0.08,0.007 -0.122,0.002 -0.016,-0.003 -0.031,-0.024 -0.043,-0.039 -0.361,-0.438 -0.839,-0.747 -1.25,-1.129 -0.182,-0.17 -0.345,-0.36 -0.527,-0.529 -0.216,-0.2 -0.447,-0.382 -0.663,-0.581 -0.23,-0.213 -0.454,-0.433 -0.675,-0.656 -0.101,-0.102 -0.178,-0.228 -0.282,-0.327 -0.66,-0.625 -1.265,-1.305 -1.926,-1.929 -0.324,-0.305 -0.634,-0.627 -0.941,-0.949 -0.152,-0.16 -0.282,-0.342 -0.43,-0.509 -0.147,-0.163 -0.273,-0.144 -0.39,0.04 -0.115,0.181 -0.242,0.356 -0.359,0.537 -0.064,0.099 -0.118,0.203 -0.178,0.304 -0.139,0.236 -0.278,0.472 -0.418,0.708 -0.004,0.005 -0.007,0.012 -0.008,0.017 -0.015,0.26 -0.189,0.457 -0.272,0.69 -0.065,0.184 -0.173,0.349 -0.201,0.549 -0.008,0.065 -0.072,0.122 -0.11,0.183 -0.077,0.124 -0.085,0.181 0.01,0.283 0.191,0.204 0.36,0.431 0.608,0.58 0.127,0.076 0.237,0.185 0.345,0.289 0.263,0.256 0.517,0.52 0.781,0.774 0.189,0.182 0.392,0.347 0.582,0.527 0.161,0.153 0.306,0.323 0.47,0.474 0.376,0.345 0.764,0.676 1.136,1.025 0.377,0.354 0.745,0.718 1.109,1.085 0.393,0.395 0.791,0.785 1.155,1.204 0.26,0.298 0.512,0.609 0.69,0.971 0.057,0.115 0.153,0.211 0.229,0.317 0.034,0.047 0.088,0.107 0.026,0.153 -0.034,0.024 -0.105,0.002 -0.159,-0.005 -0.017,-0.002 -0.033,-0.02 -0.048,-0.033 -0.218,-0.197 -0.435,-0.395 -0.655,-0.591 -0.562,-0.5 -1.128,-0.995 -1.687,-1.498 -0.36,-0.323 -0.73,-0.634 -1.062,-0.99 -0.186,-0.2 -0.405,-0.369 -0.604,-0.558 -0.56,-0.533 -1.103,-1.084 -1.68,-1.596 -0.333,-0.296 -0.628,-0.627 -0.952,-0.932 -0.123,-0.115 -0.215,-0.263 -0.317,-0.398 -0.122,-0.158 -0.188,-0.154 -0.287,0.015 -0.085,0.145 -0.119,0.302 -0.138,0.467 -0.017,0.154 -0.061,0.306 -0.095,0.458 -0.031,0.14 -0.064,0.279 -0.1,0.417 -0.017,0.062 -0.036,0.127 -0.07,0.181 -0.1,0.161 -0.137,0.334 -0.132,0.524 0.009,0.288 0.003,0.576 0.003,0.864 h 0.011 c 0,0.295 -0.008,0.589 0.004,0.884 0.007,0.148 0.031,0.302 0.083,0.44 0.072,0.188 0.106,0.377 0.106,0.575 0,0.118 0.006,0.236 -0.001,0.354 -0.01,0.169 0.018,0.325 0.119,0.465 0.019,0.026 0.032,0.057 0.043,0.088 0.132,0.346 0.264,0.694 0.395,1.04 0.01,0.025 0.017,0.05 0.031,0.072 0.272,0.459 0.577,0.893 1.009,1.216 0.203,0.152 0.428,0.275 0.642,0.414 0.114,0.075 0.224,0.158 0.338,0.231 0.055,0.035 0.117,0.057 0.176,0.082 0.059,0.026 0.131,0.037 0.178,0.077 0.104,0.089 0.22,0.1 0.348,0.097 0.282,-0.005 0.564,-0.005 0.845,-0.005 0.277,0 0.548,-0.012 0.811,-0.12 0.087,-0.036 0.191,-0.031 0.289,-0.04 0.077,-0.007 0.164,0.012 0.233,-0.016 0.238,-0.097 0.477,-0.198 0.703,-0.321 0.194,-0.106 0.368,-0.25 0.555,-0.369 0.502,-0.316 0.917,-0.738 1.369,-1.114 0.253,-0.211 0.438,-0.479 0.586,-0.777 0.134,-0.269 0.297,-0.523 0.447,-0.784 0.16,-0.275 0.332,-0.544 0.441,-0.845 0.029,-0.078 0.034,-0.165 0.046,-0.249 0.023,-0.183 0.047,-0.365 0.164,-0.517 0.004,-0.005 0.009,-0.011 0.01,-0.017 0.079,-0.239 0.156,-0.478 0.235,-0.716 0.046,-0.135 0.095,-0.269 0.138,-0.404 0.024,-0.074 0.04,-0.15 0.059,-0.225 0.035,-0.145 0.067,-0.29 0.105,-0.435 0.024,-0.094 0.055,-0.188 0.087,-0.28 0.05,-0.148 0.109,-0.294 0.154,-0.443 0.036,-0.124 0.076,-0.252 0.079,-0.379 0.009,-0.255 -0.002,-0.508 0.127,-0.746 0.04,-0.075 0.04,-0.178 0.043,-0.268 0.007,-0.177 -0.01,-0.355 0.009,-0.53 0.028,-0.246 0.061,-0.495 0.127,-0.732 0.066,-0.24 0.065,-0.479 0.058,-0.72 -0.002,-0.061 -0.034,-0.127 -0.068,-0.18 m 1.56,24.983 c -0.224,0.133 -0.449,0.268 -0.662,0.419 -0.128,0.09 -0.264,0.168 -0.397,0.25 l 0.026,0.1 0.122,0.121 0.174,0.023 0.598,-0.264 0.746,-0.697 0.408,-0.707 c -0.064,0.024 -0.121,0.06 -0.174,0.114 -0.25,0.252 -0.535,0.459 -0.841,0.641 m -2.024,-0.856 c -0.09,-0.013 -0.173,-0.061 -0.262,-0.08 -0.076,-0.016 -0.157,-0.007 -0.234,-0.02 -0.179,-0.033 -0.365,-0.051 -0.534,-0.114 -0.213,-0.08 -0.426,-0.125 -0.651,-0.116 -0.134,0.006 -0.257,-0.022 -0.379,-0.081 -0.085,-0.043 -0.185,-0.072 -0.28,-0.076 -0.069,-0.004 -0.133,-0.018 -0.194,-0.039 l 0.445,0.818 0.254,0.818 c 0.021,-0.009 0.043,-0.019 0.064,-0.027 0.144,-0.064 0.281,-0.159 0.431,-0.184 0.244,-0.041 0.422,-0.202 0.634,-0.297 0.203,-0.09 0.39,-0.213 0.597,-0.291 0.165,-0.062 0.258,-0.182 0.385,-0.323 -0.113,0.007 -0.197,0.024 -0.276,0.012 m -5.9,-1.657 c -0.137,-0.073 -0.29,-0.114 -0.436,-0.169 -0.048,-0.019 -0.095,-0.048 -0.145,-0.055 -0.232,-0.036 -0.427,-0.156 -0.634,-0.252 l -0.104,0.392 -0.114,1.065 -0.285,0.648 -0.007,0.017 -0.195,0.119 -0.207,-0.077 -0.114,-0.218 -0.03,-1.221 0.162,-1.07 c -0.181,-0.091 -0.364,-0.175 -0.568,-0.211 -0.023,-0.005 -0.047,-0.02 -0.07,-0.033 -0.101,-0.057 -0.204,-0.114 -0.305,-0.173 l -0.125,0.269 -0.23,0.11 -0.218,-0.082 -0.114,-0.233 -0.077,-0.466 c -0.042,-0.018 -0.084,-0.034 -0.123,-0.056 -0.414,-0.224 -0.823,-0.456 -1.237,-0.68 -0.183,-0.098 -0.378,-0.175 -0.561,-0.274 -0.189,-0.103 -0.368,-0.225 -0.555,-0.331 -0.415,-0.236 -0.831,-0.468 -1.249,-0.698 -0.02,-0.011 -0.04,-0.02 -0.061,-0.029 l 0.253,0.284 c 1.631,2.306 4.708,5.592 5.685,7.901 v 0.01 c 0.098,-0.016 0.195,-0.026 0.296,-0.023 0.077,0.003 0.155,-0.02 0.232,-0.033 0.219,-0.038 0.437,-0.078 0.655,-0.118 0.148,-0.028 0.299,-0.045 0.44,-0.09 0.161,-0.053 0.314,-0.129 0.49,-0.128 0.049,10e-4 0.101,-0.025 0.147,-0.048 0.171,-0.087 0.337,-0.181 0.508,-0.264 l -0.408,-0.869 -0.228,-0.96 -0.199,-1.848 c -0.092,-0.029 -0.183,-0.06 -0.269,-0.106 m -11.759,-6.479 c -0.238,-0.12 -0.424,-0.304 -0.616,-0.482 -0.071,-0.066 -0.145,-0.129 -0.218,-0.194 l -0.024,2.261 0.066,0.503 0.56,0.597 0.516,0.654 1.325,1.336 0.651,0.808 0.47,0.421 0.872,0.911 0.482,0.687 0.546,0.636 0.9,1.155 0.868,0.907 0.517,0.654 0.514,0.523 c 0.315,-0.009 0.632,-0.014 0.948,-0.015 0.121,0 0.228,-0.027 0.337,-0.084 0.095,-0.049 0.207,-0.092 0.311,-0.093 0.095,-0.002 0.188,-0.015 0.281,-0.028 l -0.539,-0.99 -4.16,-5.565 -0.495,-0.681 -1.705,-2.18 c -0.037,-0.024 -0.075,-0.046 -0.111,-0.072 -0.301,-0.208 -0.594,-0.426 -0.89,-0.64 -0.011,-0.008 -0.023,-0.013 -0.034,-0.021 -0.125,-0.081 -0.256,-0.156 -0.375,-0.246 -0.297,-0.224 -0.589,-0.455 -0.884,-0.684 -0.036,-0.029 -0.072,-0.058 -0.113,-0.078 M -32.09,9.024 c -0.119,-0.103 -0.227,-0.218 -0.342,-0.325 -0.245,-0.227 -0.501,-0.442 -0.753,-0.661 l 0.009,0.827 0.123,0.77 c 0.221,3.974 0.303,7.683 0.408,11.661 l 0.21,2.761 -0.116,0.762 0.054,0.457 0.058,0.829 0.128,0.784 -0.029,0.725 0.112,2.242 -0.058,1.115 0.049,1.702 -0.053,2.128 -0.233,0.664 -0.067,0.814 0.159,0.883 0.022,-0.302 0.211,-1.857 c -0.072,-2.329 0.211,-4.429 0.079,-6.698 l 0.128,-0.756 -0.059,-0.712 0.068,-0.438 0.01,-1.773 0.084,-0.77 -0.088,-0.982 -0.001,-0.008 0.128,-0.766 0.025,-0.866 0.141,-1.006 -0.103,-0.483 V 9.491 L -31.793,9.282 C -31.892,9.196 -31.991,9.111 -32.09,9.024 m -7.145,33.965 c 0.119,0.261 0.255,0.514 0.379,0.772 0.016,0.034 0.031,0.069 0.047,0.104 l 0.347,-0.713 0.955,-1.703 1.53,-2.292 0.309,-0.589 0.505,-0.67 1.203,-1.743 0.667,-0.515 0.151,-0.41 -0.092,-0.777 -0.077,-1.661 -0.042,-0.043 -0.102,0.044 -0.497,0.402 -0.561,0.904 -0.61,0.852 -0.953,1.712 -0.386,0.494 -0.717,1.036 -0.268,0.627 -0.444,0.738 -0.7,1.062 -0.431,0.757 -0.569,0.765 c 0.038,0.084 0.083,0.164 0.118,0.25 0.082,0.199 0.149,0.403 0.238,0.597 m 1.4,2.84 c 0.157,0.285 0.312,0.571 0.469,0.857 l 1.181,-2.146 2.226,-3.389 0.836,-0.884 0.1,-0.738 -0.157,-1.308 0.025,-0.617 -0.076,-0.49 -0.073,-0.09 -0.063,0.015 c -1.635,2.031 -3.901,5.575 -4.847,8.07 l -0.006,0.019 c 0.005,0.011 0.01,0.023 0.015,0.034 0.117,0.225 0.248,0.444 0.37,0.667 m 1.389,2.654 c 0.057,0.086 0.118,0.17 0.177,0.255 l 0.441,-0.596 0.676,-1.088 1.248,-2.302 0.517,-0.655 0.222,-0.343 0.029,-1.155 -0.066,-0.422 -0.056,-0.008 -0.671,0.752 c -1.038,1.472 -1.884,3.065 -2.699,4.676 l -0.134,0.211 c 0.043,0.088 0.094,0.173 0.127,0.267 0.051,0.141 0.108,0.284 0.189,0.408 m 1.733,2.424 c 0.147,0.184 0.291,0.37 0.447,0.545 0.154,0.169 0.311,0.335 0.467,0.502 l 0.056,-0.231 0.203,-0.686 0.535,-1.509 -0.146,-1.017 0.06,-2.143 -0.149,-0.337 -0.052,-0.01 -0.353,0.427 -0.266,0.623 -0.444,0.725 -0.933,2.015 -0.098,0.219 c 0.146,0.212 0.3,0.419 0.473,0.611 0.074,0.082 0.131,0.18 0.2,0.266 m 2.254,2.355 c 0.184,0.171 0.414,0.244 0.639,0.325 0.015,0.005 0.03,0.007 0.045,0.011 l -0.068,-0.472 -0.537,-2.137 -0.067,-0.106 -0.029,0.004 -0.391,1.326 -0.126,0.644 c 0.062,0.052 0.126,0.099 0.188,0.148 0.112,0.091 0.241,0.161 0.346,0.257 m 2.355,-0.572 c 0.037,-0.069 0.083,-0.133 0.126,-0.199 0.169,-0.257 0.338,-0.513 0.507,-0.77 0.013,-0.021 0.027,-0.048 0.028,-0.072 0.004,-0.074 0.031,-0.136 0.062,-0.197 l -0.324,-0.749 -0.516,-0.959 -0.697,-1.35 -0.455,-0.415 -0.29,-0.616 -0.059,-0.032 -0.061,0.061 -0.159,1.332 v 0.444 l 0.181,0.406 0.077,0.526 0.591,2.363 0.159,1.158 c 0.348,-0.247 0.629,-0.553 0.83,-0.931 m 2.412,-4.676 c 0.037,-0.084 0.077,-0.168 0.113,-0.253 l -0.107,-0.255 -0.931,-1.715 -0.58,-0.895 -1.249,-1.974 -0.866,-0.879 -0.043,10e-4 -0.043,0.129 -0.05,0.913 -0.248,1.45 0.086,0.831 0.563,1.125 1.317,2.223 0.944,1.709 0.003,0.007 c 0.073,-0.125 0.146,-0.248 0.216,-0.374 0.1,-0.182 0.201,-0.366 0.279,-0.558 0.105,-0.253 0.18,-0.517 0.28,-0.77 0.097,-0.242 0.21,-0.476 0.316,-0.715 m 1.134,-2.6 c 0.081,-0.203 0.134,-0.418 0.187,-0.632 l -1.316,-2.275 c -0.995,-1.446 -1.995,-2.888 -3.193,-4.177 l -0.276,-0.161 -0.063,0.071 -0.197,1.28 0.105,0.768 0.45,0.713 0.329,0.543 0.406,0.485 1.665,2.459 0.618,0.867 0.73,1.417 c 0.019,-0.065 0.037,-0.13 0.043,-0.199 0.002,-0.026 0.017,-0.05 0.03,-0.072 0.206,-0.342 0.335,-0.721 0.482,-1.087 m 2.148,-7.034 -0.326,-0.594 c -1.573,-2.695 -3.488,-4.844 -5.477,-7.175 l -0.595,-0.549 -0.079,0.02 -0.148,0.384 -0.043,0.77 -0.025,0.63 0.047,0.492 0.669,0.784 0.706,0.775 2.447,3.144 0.576,0.616 0.954,1.406 0.696,1.083 0.075,0.158 c 0,-0.003 0.002,-0.006 0.003,-0.009 0.019,-0.129 0.046,-0.262 0.104,-0.375 0.068,-0.133 0.119,-0.258 0.113,-0.409 -0.002,-0.068 0.019,-0.145 0.052,-0.206 0.077,-0.135 0.094,-0.28 0.117,-0.43 0.024,-0.153 0.058,-0.309 0.119,-0.451 0.008,-0.021 0.008,-0.044 0.015,-0.064 m -1.604,2.156 -1.896,-2.809 -0.541,-0.652 -0.554,-0.905 -0.409,-0.478 -1.314,-1.636 -0.294,-0.169 -0.101,0.057 -0.088,0.168 -0.048,1.429 0.067,0.798 0.953,1.371 0.85,0.929 0.708,1.052 0.547,0.635 0.528,0.657 0.467,0.713 0.923,1.446 0.204,0.437 c 0.089,-0.101 0.1,-0.22 0.096,-0.346 -0.007,-0.178 0.004,-0.357 0.086,-0.517 0.087,-0.17 0.114,-0.346 0.108,-0.532 -0.006,-0.187 0.029,-0.363 0.131,-0.526 0.028,-0.045 0.04,-0.099 0.052,-0.152 z m 1.09,-7.281 -0.458,-0.712 -2.443,-3.15 -1.126,-1.235 -0.937,-1.122 -0.836,-0.908 h -0.039 l -0.187,1.17 0.01,0.832 0.217,0.344 0.516,0.662 0.527,0.656 0.615,0.849 0.708,0.767 1.623,1.92 0.505,0.671 0.527,0.656 1.242,1.702 0.412,0.518 c 0.009,-0.015 0.009,-0.031 0.018,-0.045 0.07,-0.103 0.086,-0.215 0.092,-0.336 0.005,-0.109 0.032,-0.218 0.054,-0.327 0.039,-0.184 0.08,-0.369 0.124,-0.552 0.03,-0.124 0.065,-0.248 0.097,-0.371 z m 1.542,-6.54 -0.804,-0.975 -0.572,-0.894 -0.528,-0.656 -1.451,-2.079 -2.081,-2.631 -0.537,-0.634 -0.606,-0.588 -0.373,-0.508 -0.312,-0.227 -0.104,0.028 -0.063,0.153 0.02,1.18 0.004,0.849 0.16,0.399 0.58,0.598 1.25,1.68 0.469,0.431 2.184,2.834 0.329,0.543 0.804,0.971 1.962,2.761 0.317,0.538 c 0.006,-0.048 0.008,-0.096 0.022,-0.141 0.092,-0.311 0.134,-0.626 0.142,-0.948 0.007,-0.27 0.06,-0.532 0.14,-0.791 0.024,-0.077 0.027,-0.16 0.038,-0.243 z m 1.194,-0.6 c 0.008,-0.661 0.007,-1.322 0.009,-1.984 0,-0.009 10e-4,-0.017 10e-4,-0.026 l -0.616,-0.742 c -0.317,-0.006 -0.633,-0.012 -0.949,-0.017 -0.153,-0.002 -0.299,-0.027 -0.436,-0.097 -0.151,-0.077 -0.258,-0.182 -0.259,-0.361 -0.001,-0.185 0.1,-0.304 0.258,-0.385 0.185,-0.095 0.383,-0.126 0.585,-0.103 l -0.22,-0.266 c -2.128,-2.575 -4.309,-5.432 -6.765,-7.652 l -0.098,-0.02 -0.082,0.079 -0.053,0.214 0.02,0.86 0.167,0.392 0.431,0.45 0.483,0.688 0.547,0.636 1.284,1.657 0.556,0.626 0.533,0.641 0.573,0.612 1.051,1.307 1.806,2.327 1.124,1.676 c 0.03,-0.168 0.048,-0.34 0.05,-0.512 m -1.044,7.105 c 0.052,-0.151 0.09,-0.296 0.094,-0.456 0.003,-0.136 0.007,-0.28 0.051,-0.405 0.022,-0.062 0.033,-0.125 0.047,-0.187 l -0.081,-0.125 c -2.177,-3.717 -4.729,-7.2 -7.486,-10.502 l -0.1,-0.039 -0.074,0.074 -0.121,1.057 -0.068,0.816 0.067,0.805 1.807,2.276 0.648,0.552 1.125,1.515 0.882,0.893 1.212,1.438 0.561,0.633 0.334,0.548 1.008,1.539 c 0.024,-0.146 0.046,-0.294 0.094,-0.432 m 7.469,-12.538 c 0.061,-0.025 0.122,-0.059 0.184,-0.061 0.143,-0.003 0.269,-0.034 0.384,-0.125 0.038,-0.03 0.096,-0.035 0.145,-0.053 0.036,-0.011 0.07,-0.025 0.106,-0.037 l -0.281,-0.979 -0.637,-1.118 -0.193,-0.243 c -0.015,-0.005 -0.031,-0.007 -0.046,-0.012 -0.25,-0.095 -0.487,-0.213 -0.751,-0.266 -0.064,-0.011 -0.125,-0.041 -0.185,-0.069 l 0.08,0.575 0.02,0.855 0.454,1.288 0.223,0.413 c 0.119,-0.032 0.239,-0.063 0.358,-0.096 0.049,-0.014 0.092,-0.052 0.139,-0.072 m 50.492,-24.474 -0.22,-0.023 c -4.827,-2.765 -9.273,-6.191 -14.107,-8.963 l -0.386,-0.083 -0.034,0.033 0.725,1.522 0.334,0.525 1.398,0.649 0.56,0.323 2.644,1.484 1.477,0.886 1.398,0.965 0.653,0.518 1.611,1.042 2.666,1.761 0.669,0.511 0.695,0.554 0.051,0.225 -0.157,0.159 -0.26,0.018 -0.252,-0.072 -0.536,-0.396 -0.909,-0.565 -2.163,-1.376 -1.043,-0.706 -0.639,-0.245 -1.043,-0.742 -0.901,-0.57 -0.927,-0.544 -2.445,-1.385 -1.534,-0.815 -0.071,0.01 -0.02,0.087 0.452,0.998 0.345,0.506 0.708,0.167 1.174,0.601 1.077,0.694 2.651,1.767 1.991,1.255 1.731,1.228 0.608,0.552 0.566,0.337 1.232,1.14 0.247,0.41 -0.067,0.22 -0.213,0.058 -0.22,-0.08 -1.178,-0.941 -2.783,-1.928 -2.887,-1.828 -1.091,-0.67 -0.975,-0.494 -0.631,-0.265 -0.923,-0.572 -0.271,-0.031 -0.003,0.044 1.001,2.228 0.334,0.526 0.17,0.084 0.567,0.02 0.481,0.109 1.202,0.893 2.073,1.465 1.544,1.112 2.98,2.33 0.776,0.707 0.23,0.424 L 34.819,4.275 34.614,4.318 34.395,4.231 33.517,3.58 31.122,1.853 29.702,0.914 28.831,0.317 l -2.384,-1.442 -0.908,-0.461 -0.015,0.015 0.021,0.139 0.514,1.286 0.38,0.789 0.252,0.299 0.684,0.178 0.883,0.626 1.278,1.071 0.533,0.355 1.69,1.259 1.32,1.034 1.188,0.889 0.433,0.496 0.014,0.016 0.011,0.25 -0.16,0.162 L 34.34,7.261 33.727,6.905 32.564,6.007 31.029,4.893 28.041,2.889 27.303,2.543 27.259,2.588 v 0.179 l 0.324,1.166 0.272,0.588 0.506,0.363 2.105,1.73 0.62,0.552 1,0.774 1.089,0.973 1.278,1.1 0.271,0.369 0.012,0.529 v 0.026 l -0.163,0.162 -0.201,-0.053 -1.368,-1.071 -0.736,-0.727 -2.989,-2.305 -0.5,-0.276 -0.031,0.031 0.008,0.167 0.353,1.139 0.367,0.789 0.544,0.324 0.829,0.651 0.607,0.567 0.662,0.525 2.387,2.349 0.231,0.374 0.008,0.014 0.02,0.585 -0.1,0.256 -0.203,0.048 c -1.343,-1.112 -2.459,-2.575 -4.003,-3.442 l -0.23,-0.067 -0.01,0.058 0.159,0.424 0.218,0.961 0.311,0.875 0.3,1.148 0.277,0.281 0.767,0.398 0.393,0.508 0.493,0.403 0.724,0.753 0.83,0.949 0.012,0.015 0.048,0.531 10e-4,0.017 -0.217,0.427 -0.193,-0.046 -0.248,-0.356 -0.501,-0.393 -1.148,-1.203 -0.339,-0.219 -0.072,0.01 -0.017,0.084 0.586,1.763 0.815,1.822 0.478,0.716 0.262,0.602 0.383,0.512 0.011,0.012 0.07,0.546 0.002,0.016 -0.091,0.24 -0.181,-0.017 C 33.038,21.382 31.405,18.139 30.909,16.16 l -0.173,-0.378 -0.085,-0.015 -0.103,0.096 c -0.419,1.795 -1.082,5.037 -1.104,6.855 l 0.102,0.774 0.631,1.105 0.407,0.487 0.472,0.698 1.08,1.286 0.948,1.409 0.299,0.927 0.057,0.562 -0.103,0.239 -0.208,0.049 -0.175,-0.148 -0.658,-1.164 -1.917,-2.496 -0.557,-0.626 -1.474,-1.77 -0.76,-0.993 -0.468,-0.431 -1.277,-1.66 -5.446,-5.454 -1.539,-1.403 -0.646,-0.538 -0.602,-0.558 h -0.051 l -0.044,0.129 0.063,0.762 0.001,0.013 -0.208,0.572 0.009,0.226 0.09,0.195 0.289,0.296 0.957,1.103 3.798,4.162 0.542,0.629 1.339,1.321 0.534,0.642 0.573,0.611 0.524,0.653 1.467,1.78 2.183,2.823 0.942,1.118 0.559,0.627 0.378,0.508 0.734,1.039 0.343,0.54 0.21,1.019 0.004,0.017 -0.092,0.233 -0.214,0.055 -0.5,-0.449 C 28.422,28.296 22.768,21.901 18.118,17.206 l -0.6,-0.558 -0.078,0.015 -0.087,0.443 0.078,0.844 -0.045,0.9 0.079,0.185 0.472,0.414 0.534,0.633 0.62,0.572 1.323,1.606 0.812,0.675 0.844,0.925 0.559,0.626 0.506,0.663 0.499,0.39 0.271,0.322 c 2.297,2.926 4.972,5.691 7.238,8.672 l 0.55,0.64 0.472,0.72 0.564,1.237 0.108,0.504 -0.096,0.241 -0.218,0.065 -0.199,-0.116 -1.883,-2.602 -0.549,-0.638 -0.483,-0.688 -0.539,-0.638 -0.544,-0.623 -0.484,-0.414 -0.821,-0.951 -0.768,-0.993 c -2.368,-2.821 -4.645,-5.233 -7.114,-7.92 l -0.517,-0.654 -1.03,-1.044 -0.117,-0.035 -0.077,0.077 -0.042,0.532 0.072,0.814 c 2.721,2.552 4.403,4.396 6.815,7.304 l 0.671,0.81 0.748,1.023 c 1.82,2.525 3.403,4.944 5.134,7.542 l 0.92,1.441 0.63,1.158 0.201,0.728 -0.097,0.236 -0.223,0.081 -0.222,-0.082 -0.201,-0.174 -2.111,-2.921 -0.395,-0.776 -1.38,-2.153 -0.979,-1.383 -0.446,-0.719 -0.555,-0.635 c -1.447,-2.432 -3.489,-4.574 -5.342,-6.726 l -1.594,-1.643 -1.381,-1.284 -0.13,-0.022 -0.079,0.085 0.024,0.448 -0.035,0.651 0.399,0.741 0.933,1.119 0.457,0.438 0.787,0.973 0.735,0.745 0.807,0.966 0.884,1.176 0.52,0.649 0.756,0.737 0.458,0.713 1.67,2.16 0.518,0.667 2.493,3.702 0.422,0.745 0.385,0.503 1.341,1.902 0.487,0.705 0.49,0.999 0.324,1.173 0.003,0.011 -0.05,0.58 -0.002,0.022 -0.172,0.172 -0.23,-0.045 C 27.668,40.002 23.253,33.426 18.046,27.581 l -0.522,-0.549 -0.028,0.01 -0.042,0.112 -0.078,1.154 0.044,1.123 0.547,0.884 0.452,0.443 1.705,2.117 2.215,2.226 0.438,0.72 0.737,0.75 0.615,0.849 0.566,0.627 0.58,0.883 c 2.407,3.127 4.838,6.329 6.655,9.873 l 0.039,0.896 -0.134,0.518 -0.212,0.061 -0.269,-0.349 C 27.629,43.244 23.071,36.985 17.611,31.583 l -0.054,-0.002 -0.137,0.324 -0.058,1.429 0.116,0.441 0.43,0.431 0.309,0.583 1.349,1.595 0.975,1.091 0.941,1.119 0.704,0.773 0.532,0.641 0.572,0.61 1.108,1.257 0.497,0.674 0.559,0.627 1.671,2.164 1.642,2.488 1.217,2.021 0.964,1.398 0.762,1.302 0.23,1.55 0.002,0.019 -0.107,0.222 -0.195,0.062 -0.165,-0.134 C 27.87,47.521 23.08,41.252 17.677,35.886 l -0.173,-0.154 -0.043,0.052 -0.094,0.481 0.058,1.122 c 1.003,1.581 3.567,4.218 4.982,5.886 l 0.905,1.16 2.032,2.681 c 1.885,2.579 3.552,5.304 5.319,7.966 l 0.619,1.444 0.108,0.822 10e-4,0.008 -0.083,0.574 -0.169,0.17 -0.231,0.006 -0.189,-0.129 -0.139,-0.199 -0.277,-0.916 -0.862,-1.49 -1.31,-1.94 -0.312,-0.566 C 25.465,48.993 23.162,45.61 20.243,42.185 l -2.178,-2.238 -0.448,-0.413 -0.048,0.004 -0.188,1.171 -0.01,1.154 0.168,0.391 1.775,1.756 0.899,1.156 0.574,0.612 0.513,0.65 0.475,0.426 1.013,1.328 0.944,0.836 0.961,1.108 1.397,1.85 1.183,1.753 0.413,0.471 0.198,0.406 0.554,0.918 0.684,1.087 1.217,2.023 0.273,1.207 0.003,0.013 -0.209,0.993 -0.186,-0.01 -0.134,-0.179 c -0.92,-2.673 -3.105,-5.463 -4.594,-7.811 l -0.56,-0.63 -0.719,-1.042 c -1.576,-2.047 -3.324,-3.94 -4.999,-5.895 l -1.346,-1.309 -0.281,-0.174 -0.067,0.048 -0.125,0.414 -0.024,0.847 0.131,0.432 0.704,0.754 2.04,2.383 1.352,1.599 0.615,0.85 0.564,0.624 1.116,1.528 0.562,0.632 c 1.357,2.101 4.789,6.074 5.717,8.47 l -0.024,0.828 -0.213,0.456 -0.206,0.034 L 29.56,63.555 28.905,62.094 28.425,61.386 28.119,60.817 24.305,55.205 21.624,51.7 19.916,49.58 18.563,48 l -0.972,-0.817 -0.11,-0.03 -0.074,0.078 -0.153,0.718 -0.04,2.035 0.066,0.502 0.26,0.308 0.521,0.648 2.211,2.221 0.88,1.164 0.483,0.415 c 1.675,1.998 3.772,4.207 5.121,6.379 l 2.13,2.889 0.544,0.952 0.005,1.17 -0.122,0.246 -0.207,0.078 -0.194,-0.12 -0.451,-1.06 -0.404,-0.473 -3.957,-5.468 -0.683,-0.804 c -0.804,-1.514 -2.342,-2.862 -3.41,-4.233 l -2.18,-2.229 -0.483,-0.38 -0.076,0.013 -0.049,0.133 -0.005,1.478 0.071,0.498 1.102,1.23 c 1.987,2.431 4.499,4.803 6.336,7.22 l 0.557,0.626 1.69,2.141 0.668,0.816 0.693,1.105 0.19,0.585 -0.024,0.879 -0.208,0.451 -0.189,0.067 -0.189,-0.113 -0.676,-1.428 -0.359,-0.527 -1.042,-1.6 -0.802,-0.969 -1.03,-1.325 -1.728,-2.102 -1.767,-2.061 -1.122,-1.239 -1.629,-1.903 -0.341,-0.21 -0.165,0.02 -0.12,0.125 -0.058,0.217 -0.005,1.183 0.066,0.503 0.52,0.635 0.91,1.137 0.799,0.69 1.179,1.472 1.351,1.6 0.507,0.661 0.498,0.392 0.268,0.316 0.866,0.917 0.836,1.218 1.741,2.105 0.874,1.484 0.067,0.572 -0.064,0.839 -0.132,0.22 -0.209,0.131 -0.22,-0.005 -0.182,-0.152 C 26.156,70.038 22.95,66.306 21.423,64.575 l -0.533,-0.641 -0.572,-0.614 -2.082,-2.631 -0.808,-0.977 -0.152,-0.076 -0.122,0.042 -0.078,0.176 -0.014,0.271 0.073,1.123 0.229,0.332 0.876,1.181 0.561,0.633 0.326,0.548 c 2.55,3.105 4.798,6.148 7.133,9.375 l 0.11,0.532 -0.059,0.852 -0.232,0.417 -0.2,0.056 -0.305,-0.284 C 23.61,70.971 20.273,66.81 17.53,63.467 l -0.397,-0.348 -0.037,0.034 -0.18,0.981 0.069,0.496 c 3.007,3.27 6.352,7.745 8.318,11.725 l 0.026,0.575 -0.214,0.748 -0.184,0.167 -0.239,0.03 -0.209,-0.137 -0.502,-1.59 -1.614,-2.802 -0.81,-1.252 -0.711,-1.055 -1.073,-1.572 -1.486,-1.752 -1.138,-1.228 -0.115,-0.033 -0.102,0.075 -0.082,0.186 -0.016,0.435 0.203,0.96 0.277,0.287 0.433,0.757 1.524,2.005 0.562,0.635 1.06,1.882 0.479,0.709 0.501,0.959 0.506,0.684 0.526,0.936 0.383,0.514 0.614,1.155 0.113,0.512 0.002,0.008 -0.034,0.592 -0.12,0.246 -0.208,0.088 -0.212,-0.097 -0.611,-0.916 -1.832,-3.18 -0.837,-1.512 -1.433,-2.1 -1.029,-1.334 -0.711,-1.059 -0.101,-0.04 -0.091,0.07 -0.143,0.439 0.018,0.773 0.158,0.717 1.081,1.283 0.458,0.722 0.441,0.735 0.945,1.419 1.142,2.095 0.796,1.281 0.336,0.833 0.845,1.523 0.063,0.487 -0.213,0.43 -0.012,0.023 -0.23,0.074 -0.223,-0.103 -0.729,-1.392 -0.841,-1.517 -1.163,-2.077 -0.544,-0.926 -0.697,-1.07 -1.448,-2.101 -0.097,-0.037 -0.073,0.072 -0.076,1.489 0.171,0.351 0.415,0.491 0.423,0.744 0.381,0.514 0.314,0.567 2.192,3.708 0.776,1.527 0.009,0.017 -0.052,0.44 -0.179,0.472 -0.008,0.02 -0.193,0.115 -0.203,-0.085 c -0.869,-2.263 -2.495,-4.086 -3.563,-6.22 l -0.237,-0.186 0.531,1.435 0.326,1.156 c 0.547,2.899 1.588,6.976 -0.743,9.395 l -0.823,0.41 -0.582,0.011 -0.228,-0.125 -0.475,-1.042 -0.458,-1.906 -0.24,-1.842 0.112,-1.042 -0.093,-0.702 -0.002,-0.008 0.145,-1.053 0.438,-2.219 0.298,-1.173 0.115,-0.665 -0.185,0.217 c -0.855,1.932 -1.892,4.065 -2.477,6.073 l -0.24,0.413 h -0.208 l -0.234,-0.398 -0.169,-0.755 -0.002,-0.011 0.187,-1.028 0.265,-0.617 0.679,-1.683 1.582,-3.443 0.725,-1.027 0.113,-0.456 -0.073,-1.43 -0.144,-0.339 -0.067,-0.008 -0.11,0.106 -0.432,0.778 -0.356,0.523 -1.212,2.01 -0.21,0.686 -0.38,0.788 -0.642,2.005 -0.248,0.942 -0.173,0.418 -0.651,0.595 -0.191,-0.064 -0.099,-0.205 c -0.21,-2.04 0.932,-3.878 1.711,-5.677 l 0.246,-0.638 0.413,-0.488 0.38,-0.801 0.576,-0.89 0.311,-0.578 0.573,-0.897 0.421,-0.738 0.059,-1.106 -0.091,-0.495 -0.075,-0.09 -0.073,0.008 -0.727,1.017 -0.639,0.823 -0.347,0.837 -0.694,1.064 -1.27,2.555 L 9.979,78.721 9.522,79.756 9.514,79.773 9.313,79.912 9.081,79.906 8.915,79.739 8.847,79.478 8.845,79.47 8.846,78.85 c 0.597,-3.071 4.064,-8.174 5.845,-10.963 l 0.048,-0.792 -0.22,-0.914 -0.082,-0.022 -0.136,0.084 -0.274,0.328 -1.232,2.019 -0.501,0.668 -1.001,1.647 -1.195,2.33 -0.557,1.515 -1.184,2.362 -0.354,0.326 -0.222,-0.067 -0.115,-0.249 0.005,-0.608 0.598,-1.807 0.735,-1.326 1.23,-2.31 1.769,-2.95 1.068,-1.575 0.702,-1.361 0.435,-0.457 0.222,-0.344 0.02,-1.425 -0.203,-1.169 -0.036,-0.002 -0.412,0.424 -1.181,2.064 -2.178,3.71 -1.28,2.585 -0.257,0.316 -0.721,-0.198 -0.022,-0.178 0.403,-0.815 1.817,-3.191 1.378,-2.46 1.395,-2.128 0.277,-0.626 0.614,-0.847 0.15,-0.412 0.102,-0.749 -0.22,-0.912 L 14,58.35 13.701,58.59 11.914,61.219 11.212,62.285 9.495,64.983 8.76,66.305 7.807,68.302 6.681,70.4 6.498,71.108 6.257,71.786 6.252,71.802 6.069,71.948 5.864,71.914 5.653,71.483 C 5.262,69.207 11.775,59.95 13.492,57.505 l 0.588,-0.526 -0.067,-2.133 -0.091,-0.495 -0.075,-0.091 -0.075,0.009 -0.629,0.821 -0.671,0.785 -0.513,0.966 -2.013,3.29 -1.548,2.581 -0.793,1.262 -0.696,1.363 -0.744,1.62 -0.732,1.313 -0.27,0.926 -0.22,0.408 L 4.732,69.748 4.53,69.701 4.428,69.464 4.429,68.537 c 0.37,-2.557 2.4,-4.619 3.438,-6.909 l 1.286,-1.952 1.422,-2.417 0.751,-1.014 1.516,-2.324 0.794,-0.958 0.2,-0.371 0.033,-0.539 -0.25,-1.238 -0.091,-0.109 -0.065,0.01 -0.209,0.354 -0.427,0.456 -1.859,2.555 -1.002,1.649 -2.181,3.713 -0.971,1.677 -0.708,1.358 -0.523,0.944 -0.748,1.612 -0.486,0.999 -0.38,0.559 -0.218,0.062 -0.196,-0.11 -0.106,-0.213 -0.021,-0.265 0.181,-1.02 0.553,-1.225 0.894,-1.464 1.638,-2.788 0.483,-0.689 1.946,-3.371 0.514,-0.66 0.356,-0.522 0.881,-1.482 1.669,-2.466 0.94,-1.101 0.204,-0.657 -0.143,-1.239 -0.031,-0.031 -0.835,0.787 C 8.768,53.259 5.523,58.191 2.604,64.051 L 2.406,64.148 2.252,63.995 2.209,63.714 2.3,63.164 l 0.319,-1.177 1.126,-2.122 1.038,-1.616 3.724,-5.71 1.344,-1.892 0.451,-0.738 3.01,-3.756 0.206,-0.365 0.055,-0.515 -0.132,-0.747 0.06,-0.434 -0.116,-0.965 -0.077,-0.267 -0.091,-0.015 -0.16,0.072 -0.454,0.433 -1.194,1.449 -2.147,3.159 -0.471,0.706 -1.03,1.619 -1.867,3.144 -0.553,0.916 -0.311,0.576 -0.947,1.704 -1.134,2.089 -0.339,1.14 -0.262,0.41 -0.225,0.056 -0.191,-0.117 -0.092,-0.217 0.012,-0.831 0.216,-0.938 0.75,-1.34 3.955,-6.362 1.746,-2.681 0.376,-0.503 2.321,-3.286 1.866,-2.249 0.168,-0.391 0.016,-2.322 -0.122,-0.411 -0.061,-0.027 -0.555,0.508 -0.802,0.959 -0.742,1.028 -1.522,2.011 -1.09,1.563 -2.48,3.412 L 5.426,48.836 4.287,50.642 2.013,54.54 1.39,56.299 1.203,56.49 0.961,56.514 0.782,56.335 0.692,55.07 0.691,55.054 l 0.821,-1.846 2.29,-3.312 0.368,-0.503 0.314,-0.58 0.36,-0.528 1.257,-1.69 3.094,-4.273 1.227,-1.728 0.54,-0.628 0.356,-0.533 0.903,-1.179 0.796,-0.66 0.088,-0.172 0.018,-1.142 -0.058,-1.115 -0.112,-1.047 -0.037,-0.038 -0.087,0.046 -0.884,0.903 c -1.484,1.861 -3.224,4.395 -4.5,6.396 L 6.136,43.35 5.823,43.931 5.339,44.62 4.571,45.92 3.965,46.778 2.953,48.714 2.021,50.441 1.633,51.219 0.81,52.457 0.713,52.942 0.559,53.432 0.366,53.539 0.173,53.438 0.012,52.948 0.009,52.937 0.033,52.068 0.571,50.803 1.589,48.87 2.251,47.753 2.763,47.097 3.024,46.485 3.437,46 l 1.347,-2.194 0.726,-1.04 1.189,-1.758 0.719,-1.053 2.228,-3.074 0.483,-0.687 0.237,-0.635 0.744,-0.75 0.354,-0.533 0.496,-0.692 0.828,-0.926 0.169,-0.393 0.03,-0.847 -0.1,-0.794 -0.081,-1.078 -0.039,-0.039 -0.08,0.049 -0.248,0.356 c -1.841,1.94 -3.289,4.221 -4.757,6.452 l -0.38,0.497 -1.049,1.598 -0.627,1.151 -0.497,0.671 -1.572,2.849 -1.162,2.073 -0.379,0.816 -0.359,0.512 -0.5,0.985 -0.465,0.699 -0.41,1.357 -0.291,0.367 -0.207,0.04 L -0.368,49.826 -0.432,49.569 -0.434,49.56 -0.379,48.412 -0.086,47.49 2.496,42.991 3.1,42.135 3.386,41.532 4.139,40.217 4.613,39.519 C 6.99,35.505 9.89,31.84 12.644,28.085 l 0.128,-0.352 -0.149,-1.168 h -0.028 l -0.65,0.803 -1.605,1.926 C 8.948,31.159 7.523,32.98 6.202,34.877 l -1.039,1.607 -0.716,1.347 -0.533,0.944 -1.493,2.338 -0.777,1.289 -1.546,2.267 -0.407,1.07 -0.298,0.377 -0.211,0.051 -0.174,-0.129 -0.099,-0.221 -0.074,-0.534 -10e-4,-0.013 0.436,-1.354 0.724,-1.066 1.391,-2.147 2.025,-2.978 1.078,-1.874 1.661,-2.477 0.539,-0.628 0.357,-0.533 0.377,-0.504 c 1.583,-2.095 3.331,-4.46 5.011,-6.482 L 12.616,24.868 12.603,24.2 12.554,23.894 12.46,23.857 12.315,23.909 11.57,24.637 C 9.173,27.163 6.922,29.878 4.979,32.78 l -0.404,0.474 -1.501,2.031 -0.474,0.699 -0.531,0.942 -2.359,4.112 -0.318,0.873 -0.443,0.799 -0.225,0.108 -0.226,-0.076 -0.11,-0.235 -0.009,-0.639 0.216,-0.977 0.637,-1.158 C 0.783,37.04 2.285,34.747 4.253,32.372 l 0.728,-1.042 0.994,-1.368 0.789,-0.977 0.897,-1.17 1.735,-2.098 1.091,-1.269 0.843,-0.922 1.103,-1.25 0.061,-0.172 -0.038,-0.413 0.068,-0.452 -0.005,-0.557 -0.152,-0.307 -0.078,0.007 -0.644,0.497 C 10.071,22.805 8.447,24.484 6.927,26.47 L 3.83,30.736 2.888,32.16 2.372,32.813 2.033,33.37 l -0.398,0.474 -0.9,1.461 -0.469,0.715 -1.512,2.012 -0.41,1.058 -0.271,0.38 -0.202,0.049 -0.133,-0.134 0.109,-1.588 c 1.747,-2.571 3.389,-5.231 5.381,-7.631 l 2.131,-2.878 0.494,-0.69 2.611,-3.29 0.575,-0.596 1.849,-2.28 0.548,-0.646 0.804,-0.658 0.272,-0.303 0.02,-0.202 -0.112,-0.496 -0.028,-0.575 -0.059,-0.422 -0.071,-0.013 -0.155,0.084 C 9.266,19.697 8.039,21.206 5.609,23.965 L 5.273,24.53 4.728,25.153 c -2.205,3.149 -4.722,6.374 -6.341,9.863 l -0.322,0.343 -0.192,-0.017 -0.138,-0.693 -10e-4,-0.01 0.118,-0.962 0.645,-1.167 1.923,-2.788 0.693,-1.087 0.929,-1.124 0.929,-1.441 0.405,-0.473 0.886,-1.183 1.102,-1.247 c 2.034,-2.922 4.572,-4.941 6.963,-7.462 l 0.14,-0.891 -0.269,-0.765 h -0.061 l -0.326,0.216 -0.534,0.645 C 9.851,16.008 8.825,17.563 7.52,18.815 l -1.189,1.465 -0.8,0.966 -3.371,4.284 -1.548,2.284 -1.551,2.265 -0.627,1.456 -0.387,0.521 -0.011,0.014 -0.215,0.084 -0.199,-0.072 -0.092,-0.213 0.329,-1.733 0.393,-0.82 c 1.85,-2.472 3.475,-5.114 5.603,-7.373 l 0.699,-0.767 1.508,-2.038 c 1.99,-2.102 4.011,-4.604 6.163,-6.5 l 0.161,-0.392 0.006,-0.575 -0.113,-1.057 -0.034,0.002 -0.637,0.516 c -2.153,2.054 -4.172,4.743 -6.276,6.974 l -1.124,1.22 -0.466,0.723 -1.45,1.783 -0.356,0.533 -1.487,2.045 -0.349,0.538 -0.633,0.85 -0.702,0.761 -0.508,0.957 -0.663,1.171 -0.198,0.096 -0.15,-0.149 -0.051,-0.611 c -0.099,-2.058 4.229,-6.137 5.422,-8.201 l 1.09,-1.267 1.622,-1.916 0.972,-1.09 1.09,-1.269 0.551,-0.629 1.127,-1.234 3.235,-3.226 0.062,-0.197 0.03,-0.556 L 12.314,7.332 12.167,6.944 12.096,6.931 9.585,9.392 C 4.821,14.278 0.64,19.801 -2.823,25.635 l -0.226,0.051 -0.157,-0.157 -0.033,-0.273 0.469,-1.665 0.309,-0.586 2.189,-3.123 1.211,-1.436 0.495,-0.673 0.245,-0.52 L 1.399,16.81 1.369,16.552 1.483,15.79 1.57,14.996 1.625,14.161 1.894,12.375 1.925,11.511 2.061,10.775 2.066,8.123 2.204,6.513 2.19,5.079 2.119,5.008 1.991,5.037 1.472,5.413 0.958,6.053 0.885,6.175 c 0.007,0.005 0.014,0.011 0.021,0.016 0.317,0.185 0.48,0.493 0.655,0.791 0.022,0.037 0.03,0.089 0.026,0.132 -0.011,0.176 0.04,0.337 0.108,0.495 0.099,0.228 0.099,0.471 0.01,0.69 -0.101,0.245 -0.126,0.489 -0.127,0.747 0,0.121 -0.033,0.244 -0.062,0.363 -0.043,0.177 -0.11,0.35 -0.139,0.529 -0.044,0.269 -0.212,0.506 -0.203,0.788 0,0.006 -0.004,0.012 -0.008,0.018 -0.114,0.166 -0.147,0.36 -0.202,0.549 -0.052,0.18 -0.168,0.34 -0.181,0.534 -0.001,0.018 -0.019,0.034 -0.027,0.052 -0.049,0.106 -0.1,0.21 -0.145,0.318 -0.035,0.085 -0.056,0.175 -0.095,0.258 -0.031,0.066 -0.063,0.131 -0.094,0.198 l -0.056,1.028 -0.088,0.798 -0.117,0.758 -0.03,1.453 -0.261,1.503 -0.223,0.413 -0.2,0.143 -0.265,0.042 -0.207,-0.091 -0.073,-0.195 0.087,-1.096 0.194,-0.677 0.237,-2.125 0.025,-0.165 c -0.008,0.013 -0.016,0.027 -0.024,0.039 -0.295,0.408 -0.548,0.846 -0.83,1.263 -0.216,0.32 -0.444,0.632 -0.675,0.941 -0.04,0.053 -0.082,0.105 -0.125,0.155 l -0.013,1.033 -0.393,2.259 -0.245,0.393 -0.343,0.279 -0.206,-0.062 -0.132,-0.5 -0.003,-0.012 0.247,-1.854 0.129,-0.901 c -0.196,0.114 -0.391,0.231 -0.588,0.345 -0.146,0.086 -0.284,0.208 -0.442,0.246 -0.084,0.02 -0.169,0.033 -0.254,0.049 l -0.374,2.46 -0.537,0.964 -0.513,0.463 -0.209,-0.048 -0.095,-0.231 -0.011,-0.303 0.311,-0.914 0.159,-1.025 0.25,-1.165 c -0.135,0.102 -0.299,0.144 -0.445,0.222 -0.14,0.073 -0.282,0.092 -0.434,0.093 -0.097,0.001 -0.205,-0.001 -0.288,0.041 -0.321,0.161 -0.664,0.186 -1.013,0.189 -0.124,10e-4 -0.248,0.012 -0.371,0.027 -0.145,0.016 -0.29,0.034 -0.435,0.052 l -0.757,1.399 -1.036,1.049 -0.451,0.196 -0.669,0.107 -0.013,0.003 -0.683,-0.205 -0.341,-0.318 -0.023,-0.095 c -0.128,0.061 -0.255,0.124 -0.383,0.182 -0.166,0.077 -0.333,0.151 -0.5,0.224 -0.113,0.049 -0.227,0.095 -0.342,0.14 -0.168,0.067 -0.322,0.174 -0.512,0.181 -0.024,10e-4 -0.045,0.025 -0.069,0.036 -0.132,0.057 -0.266,0.106 -0.393,0.17 -0.206,0.103 -0.415,0.188 -0.648,0.201 -0.024,10e-4 -0.046,0.023 -0.071,0.032 -0.287,0.104 -0.572,0.219 -0.865,0.305 -0.199,0.058 -0.409,0.078 -0.615,0.111 -0.316,0.05 -0.632,0.098 -0.948,0.147 -0.032,0.004 -0.068,0.008 -0.095,0.023 -0.212,0.124 -0.443,0.151 -0.682,0.148 -0.064,-10e-4 -0.129,0.018 -0.192,0.034 -0.317,0.08 -0.632,0.173 -0.963,0.183 -0.071,0.003 -0.14,0.03 -0.211,0.045 -0.16,0.034 -0.318,0.073 -0.478,0.099 -0.206,0.031 -0.255,0.111 -0.197,0.309 0.034,0.116 0.046,0.241 0.056,0.362 0.012,0.125 0.012,0.249 0.011,0.374 -0.003,0.136 0.005,0.278 -0.023,0.41 -0.051,0.232 -0.066,0.465 -0.061,0.702 0.004,0.268 0.009,0.537 -0.002,0.804 -0.014,0.361 -0.021,0.722 -0.073,1.077 -0.07,0.474 -0.115,0.947 -0.118,1.426 -0.002,0.175 -0.029,0.357 -0.09,0.52 -0.092,0.245 -0.117,0.49 -0.118,0.749 0,0.187 -0.015,0.385 -0.078,0.559 -0.073,0.201 -0.12,0.398 -0.108,0.611 0.008,0.152 -0.031,0.295 -0.084,0.439 -0.06,0.164 -0.092,0.338 -0.127,0.51 -0.031,0.16 -0.031,0.33 -0.082,0.483 -0.054,0.159 -0.061,0.317 -0.075,0.48 -0.013,0.161 -0.03,0.331 -0.093,0.477 -0.096,0.221 -0.142,0.444 -0.153,0.683 -0.007,0.154 -0.038,0.311 -0.09,0.457 -0.056,0.157 -0.101,0.31 -0.091,0.477 0.007,0.121 -0.019,0.232 -0.082,0.337 -0.092,0.155 -0.13,0.324 -0.137,0.506 -0.006,0.148 -0.044,0.296 -0.073,0.442 -0.023,0.128 -0.051,0.254 -0.078,0.381 -0.021,0.095 -0.021,0.203 -0.07,0.281 -0.113,0.181 -0.153,0.373 -0.15,0.58 0.002,0.134 -0.025,0.26 -0.095,0.375 -0.075,0.121 -0.094,0.253 -0.099,0.395 -0.003,0.093 -0.04,0.187 -0.068,0.279 -0.042,0.143 -0.105,0.283 -0.131,0.428 -0.031,0.181 -0.035,0.364 -0.131,0.529 -0.027,0.048 -0.021,0.115 -0.036,0.171 -0.033,0.125 -0.057,0.255 -0.109,0.372 -0.07,0.157 -0.128,0.313 -0.137,0.487 -0.003,0.071 -0.02,0.143 -0.048,0.208 -0.149,0.333 -0.192,0.701 -0.328,1.039 -0.005,0.011 -0.006,0.025 -0.008,0.038 -0.046,0.249 -0.199,0.466 -0.216,0.724 -0.002,0.043 -0.041,0.082 -0.058,0.124 -0.023,0.054 -0.054,0.108 -0.06,0.165 -0.037,0.295 -0.251,0.534 -0.255,0.838 0,0.024 -0.024,0.046 -0.034,0.071 -0.055,0.138 -0.109,0.278 -0.165,0.418 -0.106,0.265 -0.202,0.536 -0.323,0.795 -0.091,0.195 -0.224,0.369 -0.318,0.562 -0.109,0.222 -0.228,0.447 -0.286,0.684 -0.064,0.262 -0.254,0.473 -0.266,0.75 -0.002,0.034 -0.04,0.068 -0.066,0.096 -0.077,0.082 -0.108,0.176 -0.095,0.287 0.011,0.102 -0.016,0.193 -0.074,0.279 -0.036,0.053 -0.068,0.115 -0.083,0.176 -0.058,0.235 -0.22,0.432 -0.243,0.679 -0.002,0.031 -0.025,0.061 -0.039,0.09 -0.047,0.1 -0.096,0.199 -0.14,0.301 -0.085,0.197 -0.159,0.401 -0.255,0.593 -0.238,0.479 -0.481,0.956 -0.73,1.43 -0.264,0.504 -0.56,0.989 -0.883,1.458 -0.225,0.329 -0.445,0.661 -0.673,0.989 -0.066,0.095 -0.139,0.194 -0.229,0.265 -0.217,0.172 -0.396,0.379 -0.581,0.582 -0.1,0.11 -0.219,0.213 -0.348,0.283 -0.229,0.123 -0.478,0.21 -0.709,0.33 -0.27,0.139 -0.529,0.111 -0.795,0.004 -0.06,-0.024 -0.124,-0.059 -0.186,-0.057 -0.232,0.005 -0.44,-0.049 -0.62,-0.199 -0.009,-0.009 -0.023,-0.012 -0.035,-0.017 -0.408,-0.18 -0.76,-0.432 -1.035,-0.786 -0.056,-0.071 -0.128,-0.131 -0.203,-0.182 -0.276,-0.197 -0.574,-0.366 -0.798,-0.63 -0.525,-0.619 -1.099,-1.196 -1.57,-1.86 -0.356,-0.502 -0.717,-1 -1.076,-1.5 -0.019,-0.026 -0.034,-0.055 -0.053,-0.082 -0.178,-0.257 -0.329,-0.542 -0.542,-0.766 -0.339,-0.358 -0.56,-0.787 -0.802,-1.204 -0.21,-0.362 -0.399,-0.735 -0.6,-1.101 -0.132,-0.242 -0.297,-0.469 -0.397,-0.721 -0.139,-0.353 -0.373,-0.656 -0.489,-1.022 -0.087,-0.271 -0.241,-0.521 -0.366,-0.779 -0.043,-0.088 -0.093,-0.173 -0.131,-0.263 -0.11,-0.263 -0.213,-0.53 -0.326,-0.793 -0.087,-0.203 -0.204,-0.397 -0.27,-0.607 -0.052,-0.162 -0.094,-0.325 -0.176,-0.475 -0.027,-0.049 -0.021,-0.115 -0.037,-0.172 -0.04,-0.136 -0.065,-0.282 -0.129,-0.408 -0.112,-0.218 -0.097,-0.429 -0.013,-0.644 0.044,-0.109 0.098,-0.214 0.147,-0.322 0.181,-0.393 0.683,-0.553 1.029,-0.232 0.163,0.151 0.322,0.313 0.329,0.559 10e-4,0.046 0.015,0.095 0.04,0.131 0.009,0.014 0.01,0.029 0.017,0.042 l 1.004,-1.89 0.357,-0.524 0.779,-1.291 0.759,-1.003 1.254,-1.993 1.611,-2.228 0.821,-0.929 0.194,-0.635 -0.101,-1.554 -0.083,-0.164 -0.118,-0.049 -0.312,0.181 c -2.404,2.99 -4.414,6.344 -6.166,9.741 l -0.368,0.303 -0.215,-0.048 -0.08,-0.223 0.152,-1.073 0.127,-0.462 0.432,-0.473 0.26,-0.899 0.393,-0.518 0.95,-1.413 0.515,-0.653 0.179,-0.413 1.274,-1.974 1.877,-2.544 0.507,-0.674 0.645,-0.82 0.053,-0.211 -0.184,-1.273 -0.165,-0.615 -0.041,-10e-4 -0.278,0.272 -1.107,1.254 -0.507,0.675 -0.516,0.652 -0.341,0.549 -1.722,2.398 -0.69,1.095 -0.415,0.454 -0.555,1.227 -0.281,0.353 -0.223,0.072 -0.204,-0.096 -0.132,-0.195 -0.082,-0.457 0.405,-0.772 0.402,-0.469 0.361,-0.823 1.615,-2.214 1.309,-1.94 0.918,-1.142 1.266,-1.688 0.544,-0.622 0.453,-0.713 0.013,-0.222 -0.107,-0.493 -0.063,-1.405 -0.075,-0.076 -0.117,0.034 -1.475,1.47 -0.492,0.698 -0.687,0.775 -0.489,0.697 -1.053,1.298 -1.192,1.771 -0.439,0.428 -0.358,0.531 -0.356,0.293 -0.015,0.011 -0.239,0.024 -0.148,-0.147 0.012,-0.229 0.28,-0.683 1.173,-1.773 0.465,-0.731 0.567,-0.595 0.698,-1.083 1.097,-1.265 0.714,-0.752 0.525,-0.663 1.465,-1.465 0.168,-0.391 v -0.868 l -0.06,-1.117 -0.077,-0.805 -0.081,-0.455 -0.078,-0.016 -0.299,0.245 -0.687,0.804 -0.592,0.571 -0.376,0.516 -1.361,1.575 -0.356,0.533 -1.521,2.012 -1.07,1.591 -0.386,0.267 -0.221,0.007 -0.151,-0.158 -0.03,-0.241 0.436,-0.795 1.614,-2.223 1.075,-1.281 0.904,-1.159 0.79,-0.978 1.423,-1.826 0.849,-0.899 0.12,-0.444 -0.151,-1.042 -0.003,-1.749 -0.167,-0.705 -0.091,-0.072 -0.117,0.033 -0.448,0.447 -0.697,0.781 -0.456,0.415 -1.198,1.453 -0.786,0.973 -2.416,3.832 -0.23,0.106 -0.217,-0.067 -0.057,-0.212 0.08,-0.237 2.238,-3.698 1.025,-1.329 0.599,-0.887 0.702,-0.768 0.685,-0.795 1.29,-1.339 0.116,-0.441 -0.047,-0.934 C -34.088,7.186 -34.107,7.168 -34.126,7.151 -34.243,7.04 -34.36,6.927 -34.479,6.817 L -34.604,6.9 c -2.248,1.819 -3.779,4.288 -5.615,6.47 l -0.732,0.496 -0.13,-0.132 0.022,-0.219 0.412,-0.853 0.917,-1.142 1.028,-1.333 0.522,-0.659 0.808,-0.957 0.531,-0.658 0.876,-0.885 0.537,-0.655 0.251,-0.216 c -0.005,-0.006 -0.012,-0.011 -0.018,-0.018 -0.22,-0.217 -0.433,-0.437 -0.709,-0.585 -0.062,-0.034 -0.118,-0.082 -0.173,-0.127 -0.221,-0.174 -0.441,-0.349 -0.661,-0.525 -0.051,-0.04 -0.103,-0.081 -0.154,-0.122 l -0.457,0.552 -1.41,1.821 -0.443,0.749 -0.948,1.126 -0.653,0.592 -0.214,-0.05 -0.064,-0.212 0.059,-0.243 0.56,-0.994 0.394,-0.203 0.314,-0.248 0.239,-0.913 0.301,-0.322 1.034,-1.327 0.679,-0.818 c -0.235,-0.191 -0.47,-0.381 -0.723,-0.545 -0.22,-0.143 -0.441,-0.287 -0.669,-0.421 l -0.074,0.089 -1.079,1.582 -0.556,0.669 -0.343,0.251 -0.148,-0.148 0.075,-0.482 0.782,-1.343 0.706,-0.933 C -39.629,2.97 -39.726,2.929 -39.829,2.899 -39.847,2.894 -39.863,2.88 -39.88,2.871 -40.152,2.733 -40.401,2.545 -40.717,2.507 -40.766,2.501 -40.81,2.462 -40.856,2.439 -40.897,2.418 -40.936,2.384 -40.978,2.381 -41.267,2.363 -41.512,2.209 -41.776,2.118 -41.851,2.094 -41.91,2.023 -41.973,1.968 -42.064,1.887 -42.15,1.799 -42.242,1.719 -42.306,1.664 -42.381,1.62 -42.447,1.567 c -0.188,-0.149 -0.241,-0.353 -0.162,-0.564 0.079,-0.209 0.213,-0.4 0.468,-0.425 0.175,-0.018 0.353,-0.011 0.529,-0.015 0.108,-0.002 0.202,0.031 0.296,0.087 0.094,0.057 0.199,0.106 0.305,0.125 0.141,0.027 0.285,0.025 0.396,0.138 0.028,0.029 0.087,0.026 0.129,0.042 0.078,0.03 0.159,0.058 0.231,0.098 0.314,0.175 0.626,0.353 0.938,0.53 0.284,0.162 0.571,0.319 0.852,0.486 0.281,0.165 0.554,0.343 0.835,0.508 0.145,0.086 0.303,0.15 0.45,0.234 0.278,0.158 0.563,0.307 0.79,0.542 0.044,0.047 0.103,0.08 0.158,0.115 0.137,0.089 0.274,0.177 0.412,0.262 0.123,0.076 0.248,0.145 0.37,0.22 0.034,0.019 0.067,0.041 0.094,0.068 0.282,0.274 0.556,0.555 0.844,0.823 0.191,0.177 0.392,0.346 0.604,0.499 0.25,0.18 0.492,0.366 0.707,0.59 0.282,0.291 0.573,0.575 0.865,0.858 0.098,0.095 0.2,0.192 0.315,0.264 0.376,0.233 0.675,0.555 0.997,0.85 0.332,0.306 0.668,0.606 1.011,0.9 0.407,0.349 0.821,0.69 1.235,1.03 0.217,0.178 0.439,0.352 0.662,0.523 0.119,0.091 0.246,0.172 0.368,0.26 0.064,0.046 0.122,0.099 0.187,0.142 0.377,0.247 0.754,0.495 1.134,0.738 0.363,0.233 0.725,0.468 1.095,0.689 0.37,0.222 0.751,0.424 1.124,0.64 0.379,0.22 0.752,0.449 1.132,0.667 0.159,0.091 0.327,0.164 0.493,0.241 0.175,0.082 0.36,0.148 0.526,0.245 0.236,0.136 0.469,0.273 0.733,0.351 0.042,0.013 0.078,0.047 0.118,0.07 0.062,0.035 0.122,0.078 0.188,0.102 0.194,0.072 0.353,0.223 0.569,0.241 0.018,0.002 0.035,0.018 0.052,0.028 0.252,0.135 0.494,0.293 0.778,0.362 0.043,0.01 0.079,0.047 0.12,0.063 0.248,0.096 0.482,0.221 0.736,0.305 0.227,0.075 0.435,0.199 0.664,0.279 0.092,0.032 0.184,0.085 0.284,0.114 0.087,0.024 0.169,0.064 0.253,0.098 0.054,0.022 0.106,0.064 0.161,0.068 0.295,0.026 0.526,0.271 0.836,0.244 0.023,-0.002 0.047,0.02 0.072,0.03 0.277,0.11 0.553,0.224 0.832,0.328 0.065,0.024 0.143,0.012 0.213,0.021 0.078,0.011 0.166,0.006 0.229,0.043 0.198,0.116 0.404,0.181 0.634,0.173 0.032,0 0.067,0.006 0.096,0.019 0.223,0.101 0.454,0.163 0.699,0.171 0.025,0.001 0.052,0.012 0.074,0.026 0.282,0.17 0.594,0.178 0.911,0.179 0.383,0.002 0.735,0.165 1.104,0.238 0.007,10e-4 0.012,0.005 0.018,0.008 0.209,0.106 0.429,0.148 0.664,0.147 0.727,-0.004 1.454,0.005 2.181,-0.002 0.193,-0.002 0.39,-0.031 0.58,-0.071 0.372,-0.076 0.734,-0.191 1.123,-0.155 0.11,0.01 0.227,-0.047 0.34,-0.077 0.093,-0.025 0.184,-0.072 0.279,-0.081 0.202,-0.02 0.406,-0.015 0.608,-0.035 0.114,-0.011 0.234,-0.036 0.335,-0.086 0.145,-0.072 0.288,-0.114 0.451,-0.112 0.08,0.002 0.162,-0.035 0.24,-0.063 0.055,-0.019 0.105,-0.052 0.158,-0.078 0.215,-0.109 0.433,-0.213 0.645,-0.33 0.153,-0.085 0.316,-0.166 0.442,-0.285 0.377,-0.352 0.76,-0.701 1.051,-1.135 0.117,-0.174 0.257,-0.332 0.375,-0.504 0.099,-0.146 0.215,-0.293 0.262,-0.457 0.07,-0.245 0.188,-0.454 0.324,-0.663 0.163,-0.253 0.321,-0.511 0.455,-0.78 0.197,-0.397 0.371,-0.804 0.553,-1.208 0.024,-0.054 0.043,-0.11 0.061,-0.166 0.074,-0.228 0.122,-0.469 0.228,-0.682 0.091,-0.18 0.125,-0.37 0.183,-0.555 0.02,-0.063 0.033,-0.131 0.07,-0.183 C -0.002,9.874 0.006,9.762 0.015,9.642 0.032,9.402 0.056,9.161 0.09,8.922 0.116,8.738 0.126,8.559 0.067,8.379 0.04,8.292 0.013,8.197 0.021,8.11 0.044,7.849 -0.153,7.703 -0.252,7.484 c -0.057,0.034 -0.083,0.044 -0.101,0.061 -0.2,0.179 -0.328,0.403 -0.408,0.658 -0.024,0.073 -0.051,0.151 -0.098,0.208 -0.156,0.185 -0.316,0.367 -0.486,0.54 -0.22,0.223 -0.452,0.434 -0.678,0.653 -0.185,0.179 -0.336,0.405 -0.615,0.456 -0.007,0.002 -0.012,0.007 -0.018,0.01 -0.171,0.094 -0.34,0.191 -0.513,0.281 -0.056,0.03 -0.123,0.041 -0.185,0.06 -0.062,0.019 -0.125,0.039 -0.188,0.054 -0.19,0.046 -0.38,0.124 -0.571,0.128 -0.431,0.009 -0.861,0.047 -1.293,0.013 C -5.918,10.567 -6.377,10.381 -6.779,10.081 -7.089,9.851 -7.36,9.572 -7.644,9.31 -7.71,9.249 -7.766,9.172 -7.811,9.094 -7.951,8.853 -8.008,8.569 -8.191,8.348 -8.203,8.334 -8.209,8.311 -8.211,8.292 -8.24,8.046 -8.404,7.853 -8.502,7.636 -8.577,7.469 -8.638,7.316 -8.626,7.135 -8.611,6.921 -8.704,6.74 -8.803,6.562 -8.861,6.457 -8.948,6.399 -9.075,6.402 -9.139,6.403 -9.214,6.404 -9.267,6.375 -9.444,6.278 -9.631,6.281 -9.822,6.287 c -0.251,0.009 -0.499,-0.013 -0.731,-0.114 -0.192,-0.083 -0.389,-0.112 -0.594,-0.111 -0.145,0.002 -0.288,-0.003 -0.432,0 -0.167,0.003 -0.323,-0.033 -0.479,-0.091 -0.119,-0.045 -0.25,-0.066 -0.379,-0.079 -0.213,-0.023 -0.429,-0.03 -0.644,-0.049 -0.092,-0.008 -0.167,0.004 -0.225,0.083 -0.163,0.22 -0.386,0.369 -0.614,0.514 -0.12,0.077 -0.237,0.164 -0.341,0.261 -0.338,0.32 -0.674,0.642 -1.098,0.849 -0.094,0.046 -0.192,0.089 -0.276,0.149 -0.257,0.182 -0.546,0.274 -0.851,0.331 -0.057,0.012 -0.115,0.025 -0.168,0.05 -0.237,0.107 -0.471,0.221 -0.706,0.329 -0.041,0.018 -0.089,0.028 -0.133,0.027 -0.386,-0.013 -0.753,0.084 -1.118,0.187 -0.139,0.041 -0.275,0.042 -0.398,-0.035 -0.209,-0.133 -0.436,-0.172 -0.677,-0.16 -0.154,0.008 -0.294,-0.033 -0.436,-0.095 -0.11,-0.049 -0.238,-0.074 -0.358,-0.08 -0.149,-0.009 -0.281,-0.047 -0.411,-0.115 -0.212,-0.11 -0.406,-0.26 -0.649,-0.308 -0.044,-0.008 -0.085,-0.035 -0.124,-0.057 -0.188,-0.107 -0.376,-0.213 -0.561,-0.323 -0.112,-0.067 -0.22,-0.14 -0.33,-0.211 -0.114,-0.073 -0.236,-0.137 -0.341,-0.224 -0.523,-0.436 -0.932,-0.97 -1.298,-1.539 -0.115,-0.18 -0.206,-0.377 -0.305,-0.567 -0.075,-0.144 -0.142,-0.294 -0.22,-0.436 -0.127,-0.231 -0.218,-0.475 -0.26,-0.736 -0.007,-0.037 -0.03,-0.074 -0.053,-0.105 -0.09,-0.122 -0.119,-0.259 -0.102,-0.408 0.011,-0.108 -0.013,-0.203 -0.086,-0.291 -0.042,-0.052 -0.053,-0.131 -0.071,-0.199 -0.036,-0.132 -0.042,-0.278 -0.105,-0.395 -0.096,-0.177 -0.12,-0.357 -0.112,-0.549 0.006,-0.147 -0.029,-0.282 -0.09,-0.418 -0.05,-0.11 -0.071,-0.235 -0.09,-0.355 -0.014,-0.09 -0.007,-0.183 -0.007,-0.276 0,-0.14 -0.056,-0.249 -0.172,-0.333 -0.143,-0.104 -0.285,-0.21 -0.42,-0.325 -0.488,-0.415 -0.974,-0.834 -1.46,-1.252 -0.04,-0.034 -0.08,-0.068 -0.124,-0.096 -0.559,-0.359 -1.034,-0.823 -1.538,-1.249 -0.38,-0.321 -0.739,-0.667 -1.118,-0.988 -0.364,-0.31 -0.744,-0.6 -1.114,-0.903 -0.399,-0.326 -0.794,-0.661 -1.196,-0.986 -0.289,-0.235 -0.574,-0.479 -0.882,-0.686 -0.457,-0.307 -0.904,-0.624 -1.334,-0.967 -0.241,-0.192 -0.495,-0.363 -0.772,-0.504 -0.273,-0.138 -0.553,-0.266 -0.784,-0.479 -0.084,-0.079 -0.197,-0.127 -0.297,-0.189 -0.061,-0.038 -0.129,-0.067 -0.183,-0.112 -0.342,-0.287 -0.716,-0.527 -1.104,-0.744 -0.057,-0.032 -0.107,-0.075 -0.158,-0.115 -0.258,-0.2 -0.501,-0.423 -0.845,-0.467 -0.024,-0.004 -0.048,-0.02 -0.07,-0.034 -0.112,-0.068 -0.224,-0.135 -0.334,-0.206 -0.492,-0.323 -0.992,-0.632 -1.518,-0.897 -0.174,-0.088 -0.356,-0.161 -0.539,-0.231 -0.213,-0.08 -0.43,-0.15 -0.645,-0.224 -0.018,-0.007 -0.037,-0.016 -0.051,-0.029 -0.117,-0.097 -0.252,-0.131 -0.402,-0.131 -0.088,0.001 -0.173,-0.026 -0.213,-0.114 -0.061,-0.129 -0.078,-0.265 -0.014,-0.398 0.154,-0.324 0.469,-0.508 0.827,-0.492 0.182,0.008 0.366,0.018 0.549,0.021 0.355,0.003 0.667,0.173 1.003,0.25 0,0 0.011,0.005 0.017,0.009 0.433,0.244 0.865,0.489 1.298,0.733 0.353,0.199 0.71,0.39 1.06,0.594 0.311,0.18 0.613,0.377 0.923,0.559 0.672,0.395 1.34,0.794 1.975,1.245 0.187,0.132 0.377,0.259 0.567,0.386 0.324,0.219 0.654,0.431 0.975,0.655 0.371,0.259 0.729,0.534 1.102,0.788 0.181,0.123 0.339,0.264 0.479,0.429 0.071,0.083 0.16,0.16 0.258,0.204 0.123,0.054 0.227,0.124 0.318,0.221 0.049,0.053 0.099,0.107 0.159,0.147 0.309,0.202 0.562,0.467 0.827,0.72 0.237,0.225 0.482,0.442 0.73,0.655 0.194,0.166 0.402,0.315 0.594,0.483 0.612,0.534 1.217,1.074 1.829,1.608 0.182,0.159 0.378,0.302 0.563,0.459 0.27,0.228 0.544,0.45 0.797,0.696 0.118,0.117 0.242,0.171 0.397,0.174 0.127,0.003 0.181,-0.034 0.21,-0.159 0.037,-0.157 0.095,-0.313 0.034,-0.481 -0.021,-0.059 -0.018,-0.131 -0.007,-0.195 0.066,-0.391 0.135,-0.783 0.209,-1.174 0.015,-0.076 0.06,-0.146 0.083,-0.22 0.036,-0.105 0.068,-0.211 0.096,-0.318 0.023,-0.092 -0.006,-0.175 -0.086,-0.223 -0.111,-0.067 -0.226,-0.132 -0.345,-0.179 -0.23,-0.092 -0.466,-0.169 -0.697,-0.254 -0.024,-0.008 -0.042,-0.033 -0.066,-0.041 -0.257,-0.104 -0.516,-0.205 -0.773,-0.306 -0.084,-0.034 -0.17,-0.062 -0.253,-0.096 -0.083,-0.034 -0.166,-0.074 -0.251,-0.107 -0.067,-0.026 -0.137,-0.043 -0.204,-0.069 -0.222,-0.089 -0.444,-0.18 -0.665,-0.27 -0.26,-0.105 -0.521,-0.207 -0.78,-0.317 -0.269,-0.115 -0.536,-0.238 -0.806,-0.355 -0.15,-0.064 -0.312,-0.106 -0.45,-0.186 -0.231,-0.134 -0.492,-0.21 -0.706,-0.377 -0.295,-0.228 -0.598,-0.446 -0.893,-0.673 -0.125,-0.095 -0.168,-0.225 -0.143,-0.383 0.018,-0.116 0.009,-0.236 0.027,-0.353 0.019,-0.12 0.055,-0.238 0.088,-0.356 0.03,-0.112 0.077,-0.221 0.094,-0.335 0.022,-0.151 0.045,-0.296 0.144,-0.42 0.032,-0.041 0.054,-0.091 0.074,-0.138 0.326,-0.748 0.834,-0.905 1.563,-0.977 0.051,-0.005 0.104,0.006 0.155,0.016 0.329,0.069 0.633,0.2 0.923,0.364 0.32,0.18 0.643,0.352 0.958,0.538 0.345,0.201 0.683,0.411 1.02,0.622 0.201,0.125 0.395,0.256 0.59,0.388 0.265,0.18 0.524,0.37 0.793,0.542 0.501,0.32 1.009,0.628 1.512,0.945 0.2,0.126 0.35,0.093 0.481,-0.102 0.084,-0.124 0.186,-0.236 0.279,-0.353 0.056,-0.072 0.123,-0.139 0.164,-0.219 0.16,-0.321 0.392,-0.584 0.636,-0.842 0.297,-0.314 0.593,-0.629 0.868,-0.96 0.328,-0.397 0.714,-0.728 1.107,-1.054 0.264,-0.219 0.55,-0.4 0.847,-0.566 0.098,-0.054 0.18,-0.143 0.282,-0.177 0.383,-0.128 0.723,-0.367 1.127,-0.438 0.025,-0.005 0.052,-0.016 0.071,-0.033 0.102,-0.086 0.222,-0.107 0.349,-0.101 0.181,0.007 0.346,-0.045 0.512,-0.116 0.124,-0.053 0.263,-0.095 0.396,-0.096 0.642,-0.011 1.284,-0.011 1.925,-10e-4 0.161,0.002 0.322,0.051 0.481,0.084 0.197,0.042 0.394,0.089 0.59,0.134 0.038,0.009 0.078,0.015 0.112,0.033 0.22,0.114 0.46,0.175 0.684,0.284 0.26,0.126 0.517,0.244 0.736,0.437 0.063,0.055 0.137,0.104 0.214,0.137 0.172,0.074 0.315,0.185 0.448,0.312 0.268,0.253 0.515,0.521 0.707,0.839 0.067,0.111 0.15,0.214 0.222,0.324 0.162,0.252 0.357,0.485 0.455,0.777 0.032,0.097 0.079,0.192 0.13,0.281 0.09,0.159 0.133,0.321 0.117,0.507 -0.009,0.119 0.021,0.245 0.046,0.365 0.022,0.102 0.07,0.197 0.096,0.299 0.029,0.118 0.101,0.184 0.208,0.241 0.189,0.1 0.376,0.211 0.55,0.336 0.195,0.143 0.371,0.311 0.561,0.46 0.154,0.121 0.319,0.229 0.475,0.348 0.349,0.266 0.684,0.55 1.044,0.8 0.516,0.357 1.048,0.692 1.576,1.033 0.214,0.139 0.432,0.271 0.654,0.396 0.414,0.237 0.831,0.469 1.248,0.699 0.068,0.037 0.143,0.064 0.215,0.092 0.084,0.034 0.173,0.06 0.255,0.1 0.218,0.103 0.434,0.211 0.649,0.32 0.239,0.121 0.479,0.238 0.711,0.37 0.165,0.093 0.316,0.211 0.521,0.198 0.03,-0.002 0.066,0.013 0.093,0.03 0.182,0.11 0.377,0.177 0.59,0.202 0.049,0.006 0.095,0.043 0.144,0.057 0.119,0.033 0.238,0.081 0.358,0.085 0.218,0.007 0.43,0.034 0.638,0.099 0.471,0.148 0.957,0.156 1.44,0.113 0.31,-0.028 0.628,-0.045 0.923,-0.171 0.029,-0.013 0.063,-0.023 0.095,-0.021 0.274,0.013 0.528,-0.087 0.792,-0.125 C 3.813,-1.545 4.067,-1.61 4.321,-1.76 4.788,-2.037 5.271,-2.287 5.68,-2.649 5.856,-2.804 6.011,-2.983 6.175,-3.15 6.216,-3.192 6.25,-3.243 6.296,-3.279 6.501,-3.436 6.699,-3.363 6.745,-3.11 6.779,-2.922 6.752,-2.731 6.653,-2.577 6.456,-2.271 6.24,-1.974 6.01,-1.69 5.85,-1.494 5.652,-1.328 5.47,-1.149 5.438,-1.117 5.406,-1.083 5.366,-1.06 c -0.18,0.105 -0.36,0.211 -0.544,0.308 -0.196,0.103 -0.396,0.196 -0.594,0.295 -0.134,0.067 -0.267,0.136 -0.4,0.202 -0.03,0.014 -0.062,0.033 -0.093,0.031 -0.172,-0.009 -0.312,0.076 -0.463,0.14 -0.111,0.048 -0.238,0.07 -0.36,0.082 C 2.56,0.032 2.207,0.042 1.861,0.128 1.648,0.181 1.607,0.23 1.695,0.423 1.777,0.602 1.777,0.784 1.723,0.96 1.624,1.284 1.642,1.621 1.579,1.947 1.56,2.054 1.534,2.165 1.485,2.261 1.413,2.405 1.373,2.548 1.372,2.711 1.371,2.84 1.356,2.976 1.31,3.095 1.249,3.258 1.212,3.42 1.21,3.592 1.208,3.707 1.17,3.806 1.113,3.904 1.056,3.999 1.019,4.105 0.985,4.211 0.913,4.437 0.85,4.666 0.782,4.893 L 2.202,3.478 2.856,2.961 3.603,2.226 4.411,1.575 4.832,1.104 5.444,0.531 6.098,0.014 l 0.893,-0.883 1.438,-1.212 1.289,-1.072 1.154,-0.899 0.731,-0.736 0.755,-0.447 0.016,-0.011 0.407,0.033 0.177,0.146 0.114,0.222 0.021,5.606 0.159,1.037 -0.144,0.745 0.02,2.325 -0.005,1.456 0.108,1.077 0.015,2.351 0.049,1.705 c 10e-4,3.287 0.285,6.593 0.138,9.91 l 0.033,0.655 0.075,0.694 -0.001,4.414 0.138,0.757 c 0.388,12.878 0.91,25.607 1.93,38.443 l 0.049,1.131 0.108,0.305 0.006,-2.032 0.121,-0.752 c 0.75,-15.805 0.657,-31.634 0.66,-47.44 L 16.507,16.37 16.63,15.615 16.67,14.77 16.541,13.997 16.507,6.647 16.601,5.867 16.576,5.433 16.503,4.59 16.601,3.795 16.552,3.051 l 0.117,-0.95 -0.143,-1.925 -0.019,-5.027 0.119,-1.076 -0.079,-0.704 -0.024,-2.333 0.177,-0.75 0.17,-0.163 0.236,0.018 0.558,0.382 0.236,0.382 0.378,0.507 0.744,1.03 0.792,1.261 0.526,0.664 3.447,5.69 1.091,1.858 0.738,1.327 0.398,0.78 0.633,1.134 0.855,1.484 0.006,-0.047 C 25.289,0.039 21.962,-7.376 18.695,-13.47 l -0.037,-0.073 1.269,-0.251 0.012,-0.003 0.677,0.16 2.45,1.408 0.713,0.461 1.331,0.739 0.525,0.359 2.325,1.516 0.477,0.399 0.867,0.603 4.466,2.912 0.813,0.68 0.303,0.352 0.006,0.254 z" fill="#181716" transform="matrix(1.33333 0 0 -1.33333 50.379 143.805)"/><path style="mix-blend-mode:multiply" d="m 0,0 c -0.011,0.301 -0.017,0.602 -0.034,0.903 -0.006,0.103 -0.018,0.214 -0.062,0.305 -0.079,0.166 -0.101,0.336 -0.097,0.514 0.005,0.187 -0.04,0.358 -0.111,0.533 -0.06,0.148 -0.078,0.314 -0.108,0.474 -0.013,0.064 0.008,0.136 -0.015,0.194 -0.09,0.237 -0.147,0.484 -0.223,0.722 -0.1,0.308 -0.275,0.59 -0.356,0.908 C -1.019,4.609 -1.055,4.661 -1.088,4.708 -1.51,5.315 -1.919,5.931 -2.36,6.524 -2.6,6.846 -2.86,7.167 -3.264,7.31 -3.288,7.319 -3.311,7.336 -3.328,7.355 -3.557,7.605 -3.88,7.698 -4.163,7.856 -4.373,7.974 -4.587,8.091 -4.836,8.111 -4.872,8.114 -4.906,8.144 -4.942,8.16 -5.259,8.311 -5.552,8.264 -5.819,8.045 -5.908,7.973 -5.913,7.894 -5.834,7.809 -5.803,7.776 -5.766,7.747 -5.727,7.723 -5.391,7.512 -5.052,7.303 -4.715,7.09 -4.639,7.042 -4.564,6.989 -4.495,6.931 -4.132,6.635 -3.858,6.258 -3.574,5.891 -3.394,5.658 -3.203,5.433 -3.04,5.188 -2.816,4.852 -2.59,4.511 -2.541,4.093 -2.538,4.067 -2.524,4.044 -2.513,4.02 -2.456,3.889 -2.399,3.758 -2.342,3.627 -2.259,3.437 -2.157,3.254 -2.129,3.043 -2.126,3.024 -2.115,3.005 -2.103,2.99 -2.012,2.87 -2,2.727 -1.978,2.584 c 0.027,-0.16 0.053,-0.325 0.113,-0.473 0.056,-0.145 0.084,-0.285 0.094,-0.437 0.009,-0.167 0.046,-0.334 0.078,-0.5 0.029,-0.152 0.089,-0.303 0.098,-0.456 0.023,-0.418 0.021,-0.838 0.042,-1.255 0.017,-0.373 0.125,-0.721 0.354,-1.02 0.283,-0.367 0.738,-0.334 0.969,0.064 0.065,0.113 0.122,0.231 0.179,0.349 0.065,0.132 0.09,0.27 0.079,0.418 C 0.011,-0.484 0.003,-0.242 -0.009,0 Z" fill="#181716" transform="matrix(1.33333 0 0 -1.33333 66.926 159.801)"/><path style="mix-blend-mode:multiply" d="M 0,0 C -0.207,0.193 -0.468,0.281 -0.741,0.324 -0.879,0.347 -1.01,0.37 -1.129,0.449 -1.302,0.562 -1.491,0.563 -1.676,0.491 -2.004,0.362 -2.287,0.171 -2.495,-0.124 -2.657,-0.353 -2.708,-0.612 -2.742,-0.88 c -0.006,-0.038 0.004,-0.079 0.017,-0.116 0.087,-0.247 0.232,-0.455 0.442,-0.612 0.188,-0.14 0.396,-0.226 0.639,-0.204 0.143,0.013 0.287,0.015 0.431,0.022 l 0.449,0.021 c 0.001,-0.01 0.001,-0.02 0.001,-0.03 0.098,0 0.199,-0.013 0.294,0.003 0.107,0.019 0.214,0.053 0.312,0.1 0.072,0.035 0.116,0.108 0.099,0.197 -0.017,0.09 -0.085,0.128 -0.167,0.144 -0.05,0.01 -0.104,0.009 -0.156,0.016 -0.219,0.03 -0.439,0.057 -0.657,0.093 -0.056,0.01 -0.117,0.036 -0.159,0.074 -0.106,0.097 -0.231,0.139 -0.365,0.18 -0.262,0.078 -0.37,0.48 -0.184,0.679 0.029,0.032 0.076,0.06 0.117,0.065 0.383,0.039 0.77,0.098 1.134,-0.092 0.064,-0.034 0.137,-0.048 0.204,-0.072 0.055,-0.02 0.118,-0.031 0.161,-0.066 0.24,-0.198 0.545,-0.325 0.667,-0.646 0.023,-0.062 0.078,-0.112 0.155,-0.088 0.076,0.023 0.092,0.089 0.09,0.157 C 0.776,-0.894 0.743,-0.742 0.624,-0.624 0.416,-0.415 0.214,-0.201 0,0" fill="#181716" transform="matrix(1.33333 0 0 -1.33333 51.506 150.308)"/><path style="mix-blend-mode:multiply" d="M 0,0 C -0.141,0.024 -0.287,0.03 -0.43,0.02 -0.529,0.013 -0.663,-0.004 -0.716,-0.07 -0.92,-0.326 -1.187,-0.551 -1.207,-0.917 -1.21,-0.973 -1.236,-1.032 -1.264,-1.083 c -0.117,-0.212 -0.164,-0.439 -0.158,-0.681 0,-0.078 -0.002,-0.157 10e-4,-0.235 0.006,-0.151 0.107,-0.221 0.251,-0.177 0.105,0.031 0.133,0.108 0.148,0.207 0.016,0.108 0.036,0.221 0.083,0.318 0.065,0.14 0.107,0.277 0.103,0.432 -0.001,0.067 0.022,0.144 0.059,0.199 0.062,0.091 0.142,0.171 0.22,0.25 0.088,0.089 0.166,0.093 0.256,0.006 0.075,-0.072 0.141,-0.155 0.206,-0.236 0.093,-0.117 0.09,-0.239 0.017,-0.366 -0.049,-0.085 -0.091,-0.173 -0.14,-0.258 -0.042,-0.072 -0.084,-0.146 -0.138,-0.209 -0.095,-0.111 -0.117,-0.187 -0.062,-0.278 0.061,-0.098 0.199,-0.152 0.31,-0.096 0.083,0.043 0.162,0.11 0.22,0.184 0.083,0.107 0.146,0.231 0.218,0.348 0.111,0.177 0.183,0.367 0.254,0.565 0.089,0.246 0.063,0.448 -0.031,0.67 C 0.447,-0.189 0.261,-0.044 0,0" fill="#181716" transform="matrix(1.33333 0 0 -1.33333 57.535 148.522)"/></g><path style="mix-blend-mode:multiply" d="M 0,0 H 67.294 V 116.026 H 0 Z" fill="none" stroke="#181716" stroke-width="1.605" stroke-miterlimit="10" transform="matrix(1.33333 0 0 -1.33333 1.07 155.771)"/></svg>