<svg xmlns="http://www.w3.org/2000/svg" width="91.865" height="156.841"><path style="mix-blend-mode:multiply" d="m 206.791,343.871 h 67.294 v 116.025 h -67.294 z" fill="#fff" transform="matrix(1.33333 0 0 -1.33333 -274.65 614.265)"/><g style="mix-blend-mode:multiply"><g style="mix-blend-mode:multiply"><path style="mix-blend-mode:multiply" d="m 0,0 -0.948,-0.239 -0.305,-0.286 -0.868,-0.604 -0.32,-0.565 -0.236,-0.944 -0.014,-2.647 0.122,-0.761 0.04,-2.023 0.344,-1.719 0.28,-0.905 0.304,-0.28 h 0.027 l 0.155,0.006 0.461,0.422 0.649,0.531 0.34,0.839 0.696,1.071 0.584,1.185 0.305,0.578 0.398,1.076 0.412,1.93 -0.082,1.007 -0.261,0.934 -0.654,0.821 -0.972,0.509 z" fill="#fc0" transform="matrix(1.33333 0 0 -1.33333 37.354 83.287)"/></g><g style="mix-blend-mode:multiply"><path style="mix-blend-mode:multiply" d="m 0,0 -0.644,-0.535 -0.417,-0.762 -0.472,-1.886 -0.038,-0.86 0.131,-1.032 -0.059,-0.431 0.114,-1.007 0.264,-0.914 0.182,-0.702 0.821,-2.422 0.221,-0.966 0.172,-0.138 0.221,-0.049 0.226,0.053 0.884,0.614 0.712,1.35 0.309,1.165 0.099,1.09 0.25,1.802 0.034,2.923 -0.083,0.801 -0.476,1.292 -0.412,0.471 -0.59,0.3 -0.792,0.078 z" fill="#fc0" transform="matrix(1.33333 0 0 -1.33333 88.313 60.973)"/></g><g style="mix-blend-mode:multiply"><path style="mix-blend-mode:multiply" d="M 0,0 -0.477,-0.128 -0.91,-0.574 -1.229,-1.139 -1.351,-1.901 -1.665,-2.765 -1.98,-3.63 l -0.138,-1.335 0.06,-1.243 0.152,-1.316 0.28,-1.489 0.481,-1.876 0.628,-1.729 0.477,-0.712 0.364,-0.221 0.181,0.048 0.359,0.546 0.236,0.649 0.545,1.223 0.634,2.313 0.319,2.332 -0.074,0.688 0.069,0.487 0.074,0.83 -0.192,0.997 -0.207,1.267 -0.967,1.685 -0.501,0.383 z" fill="#fc0" transform="matrix(1.33333 0 0 -1.33333 -.223 25.865)"/></g><g style="mix-blend-mode:multiply"><path style="mix-blend-mode:multiply" d="m 0,0 c 0.239,0.068 0.784,0.307 1.023,0.307 0.239,0 0.921,0.272 1.399,0.375 0.401,0.086 0.974,0.268 1.592,0.446 L 3.843,1.742 3.464,3.427 2.566,4.885 1.873,5.666 0.817,6.378 0.149,6.575 -0.819,6.373 -1.521,5.897 -1.752,5.539 -2.061,4.669 -2.042,2.93 -1.3,0.725 -0.794,-0.094 C -0.493,-0.046 -0.136,-0.039 0,0" fill="#fc0" fill-rule="evenodd" transform="matrix(1.33333 0 0 -1.33333 43.6 113.455)"/></g><g style="mix-blend-mode:multiply"><path style="mix-blend-mode:multiply" d="m 0,0 c -0.17,0.205 -1.773,-0.068 -3.002,-0.546 -1.228,-0.477 -4.809,-1.671 -4.809,-1.671 0,0 0.137,1.637 0.274,2.115 0.136,0.477 -0.103,1.978 -0.103,2.455 0,0.293 -0.244,0.664 -0.432,0.906 -0.12,0.152 -0.216,0.254 -0.216,0.254 0,0 0.204,2.933 0.307,3.718 0.102,0.784 -0.683,4.025 -0.99,6.515 -0.307,2.49 -1.91,5.253 -1.842,5.355 0.069,0.102 0.026,0.723 0.205,0.58 0.171,-0.137 0.853,1.126 1.091,1.194 0.239,0.068 0.921,0.819 1.331,1.092 0.41,0.273 0.785,0.648 1.126,0.954 0.341,0.308 0.341,0.717 0.546,0.955 0.204,0.239 -0.035,1.194 -0.069,1.501 -0.034,0.307 -0.716,1.433 -1.057,1.775 -0.341,0.34 -2.115,1.329 -3.139,1.67 -0.59,0.197 -3.649,0.546 -4.059,0.409 -0.409,-0.136 -2.08,0 -2.489,-0.102 -0.41,-0.102 -2.968,-0.579 -3.309,-0.75 -0.341,-0.171 -1.535,-0.443 -1.808,-0.546 -0.273,-0.102 -1.091,-0.409 -1.159,-0.545 -0.069,-0.136 -1.74,-0.375 -1.979,-0.58 0,0 -0.819,-3.138 -0.853,-3.446 -0.034,-0.306 -0.239,-1.022 -0.239,-1.33 0,-0.306 -0.921,-3.036 -0.921,-3.036 h 4.026 c 1.978,0 4.195,-0.955 6.378,-1.978 2.183,-1.023 3.753,-4.366 5.014,-6.821 1.262,-2.457 0.989,-6.481 0.989,-6.481 0,0 0.785,-0.103 2.217,-0.307 1.434,-0.205 1.058,-0.342 1.297,-2.15 0.239,-1.807 -0.614,-3.683 -0.614,-3.683 0,0 -0.717,-0.751 -0.819,-0.955 -0.103,-0.205 -1.058,-0.239 -1.228,-0.444 -0.17,-0.204 -3.062,-0.094 -2.959,-0.128 0.102,-0.034 -1.233,-2.004 -1.688,-2.686 -0.563,-0.844 -1.748,-1.995 -2.021,-2.405 -0.273,-0.409 -2.507,-1.841 -2.405,-1.841 0.103,0 16.577,-0.785 16.679,-0.751 0.103,0.034 1.774,2.353 2.184,2.763 0.409,0.41 1.159,2.456 1.5,3.309 C 1.296,-4.81 1.296,-2.66 1.33,-1.773 1.365,-0.887 0.171,-0.205 0,0" fill="#e30015" fill-rule="evenodd" transform="matrix(1.33333 0 0 -1.33333 73.844 147.883)"/></g><path style="mix-blend-mode:multiply" d="M 0,0 -0.231,1.538 -0.29,2.362 -0.654,4.357 -0.904,4.696 -1.095,5.388 -1.999,6.866 -2.171,6.902 -2.338,6.798 -2.982,5.939 -3.742,5.212 h -0.182 l -0.138,0.137 -0.063,0.246 0.073,2.068 0.117,0.712 0.168,2.122 -0.084,0.122 -0.422,0.109 -1.179,-0.256 -0.639,-0.246 -1.183,-0.879 -0.973,-0.501 -0.624,-0.554 -0.383,-0.207 -0.53,-0.354 -0.393,-0.49 -0.467,-0.418 -0.845,-0.924 -0.991,-1.07 -0.168,-0.045 -0.161,0.075 -0.222,0.377 -0.167,1.016 c -0.161,2.703 -0.903,5.23 -1.253,7.884 l -0.372,1.69 -0.055,0.831 -0.265,1.208 -0.761,3.954 -0.27,1.498 -0.03,0.854 c -0.594,2.658 -0.999,4.991 -1.778,7.653 l -0.324,0.854 -0.162,1.312 c -1.161,3.025 -1.801,6.371 -3.507,9.166 l -0.59,0.883 -0.358,0.526 -0.398,0.781 -0.698,1.071 -1.802,2.323 -1.007,1.056 -0.531,0.649 -1.114,0.678 -0.231,0.004 -0.196,-0.098 -0.325,-0.575 -0.805,-2.146 -0.266,-0.334 -0.162,-0.01 -0.127,0.123 -0.153,0.451 -0.397,0.781 -0.158,0.728 -0.378,0.8 -0.27,0.339 -0.177,0.059 -0.176,-0.059 -0.271,-0.339 -0.55,-0.629 -1.262,-1.605 -0.152,0.167 -0.094,-0.006 -0.506,-0.683 c -0.065,-5.847 -0.068,-11.692 -0.02,-17.534 l 0.069,-1.086 -0.127,-0.746 0.152,-1.022 c -0.305,-1.435 0.125,-2.874 -0.128,-4.298 l -0.035,-2.333 0.095,-1.037 c 0.038,-3.27 -0.433,-6.435 0.019,-9.696 l -0.094,-0.466 0.02,-5.859 -0.02,-0.625 0.02,-5.86 -0.04,-1.202 c 0.305,-14.079 -0.421,-27.824 -0.083,-41.961 l 0.133,-0.133 0.186,-0.005 0.659,0.24 c 1.967,0.033 3.929,-0.06 5.893,-0.009 l 0.497,-0.069 1.856,0.059 c 1.533,-0.296 3.059,0.23 4.598,-0.089 h 1.179 2.593 1.238 l 8.967,-0.022 c -0.054,0.553 -0.103,1.268 -0.103,1.963 0,1.159 -0.409,1.841 -0.205,2.728 0.205,0.887 0.955,4.025 1.16,4.775 0.205,0.75 1.024,5.731 1.228,6.89 0.205,1.161 2.115,9.824 2.32,10.575 0.204,0.75 0.681,2.319 0.75,2.933 0.068,0.614 0.955,3.138 0.955,3.888 0,0.751 0.819,3.002 0.901,3.325 l 0.211,1.807 0.187,1.008 0.064,1.085 0.039,2.332 -0.049,1.7 z" fill="#3a3a39" fill-rule="evenodd" transform="matrix(1.33333 0 0 -1.33333 40.642 101.532)"/><path style="mix-blend-mode:multiply" d="M 0,0 -0.034,1.109 C -0.178,7.51 0.095,13.906 0.01,20.325 l -0.024,14.71 -0.462,1.012 -1.661,2.761 -0.692,0.78 -0.457,0.723 -0.569,0.608 -0.674,0.507 -0.844,0.668 -0.187,0.01 -0.142,-0.133 -0.083,-0.226 -0.232,-1.543 -0.318,-1.457 -0.217,-0.37 H -6.69 l -0.122,0.148 -0.398,1.106 -0.3,0.878 -0.295,1.174 -0.279,0.325 -0.457,0.127 -0.226,-0.049 -0.162,-0.143 -0.324,-0.564 -0.55,-0.334 -0.354,-0.826 -0.251,-0.634 -0.721,-1.34 -0.723,-1.636 -0.279,-1.193 -0.286,-0.6 -0.515,-1.841 -0.374,-0.807 -0.127,-0.756 -0.26,-0.917 -1.095,-3.326 -0.138,-1.041 -0.856,-2.978 -0.362,-0.815 -0.084,-1.095 -0.196,-0.393 -0.079,-0.511 -0.137,-0.746 -0.339,-1.136 -0.286,-1.187 -0.269,-1.794 -0.227,-0.657 -0.349,-2.295 -0.171,-0.721 -0.128,-0.756 -0.496,-3.335 -0.212,-0.379 -0.245,-0.638 0.054,-0.664 -0.122,-0.741 -0.011,-0.875 -0.24,-1.233 -0.054,-0.83 -0.241,-1.233 -0.058,-1.119 -0.193,-0.693 -0.245,-0.358 -0.206,-0.098 -0.216,-0.01 -0.182,0.088 -1.493,1.473 -0.555,0.329 -0.713,0.467 -0.614,0.27 -0.854,0.619 -0.659,0.521 -0.961,0.806 -1.089,0.544 -1.045,-1.072 c 1.433,-4.024 2.388,-8.527 2.797,-10.915 0.41,-2.387 -0.409,-5.935 -0.409,-5.935 l 0.887,-0.137 c 0,0 0.273,-1.091 0.409,-2.046 0.136,-0.955 -0.819,-3.957 -0.819,-4.161 0,-0.205 1.842,1.159 2.115,1.296 0.273,0.136 4.571,1.365 5.321,1.501 0.75,0.137 1.091,-0.136 1.501,-0.409 0.409,-0.273 0.614,-2.116 0.682,-2.661 0.068,-0.546 -0.682,-2.524 -1.023,-3.82 -0.313,-1.191 -2.176,-2.896 -2.584,-3.749 h 3.542 14.439 l 1.617,-0.156 0.462,0.152 0.113,0.177 -0.118,0.721 -0.011,11.779 v 14.736 z" fill="#3a3a39" fill-rule="evenodd" transform="matrix(1.33333 0 0 -1.33333 97.808 124.892)"/><path style="mix-blend-mode:multiply" d="M 0,0 0.248,0.415 0.206,0.626 -0.003,0.671 -0.243,0.619 -0.855,0.298 -1.507,0.066 l -2.875,-1.247 -3.454,-1.256 -0.697,-0.205 -0.435,-0.215 -0.105,-0.189 0.12,-0.127 1.113,0.069 3.171,0.965 1.011,0.454 0.665,0.222 2.146,0.801 z" fill="#181716" transform="matrix(1.33333 0 0 -1.33333 32.055 157.177)"/><path style="mix-blend-mode:multiply" d="m 0,0 -0.236,-0.02 c -5.929,-2.888 -12.307,-4.523 -18.666,-6.16 l -0.441,-0.425 0.281,-0.12 0.32,-0.024 c 2.462,0.156 4.726,1.2 7.099,1.8 l 2.279,0.667 3.434,0.989 2.252,0.692 0.707,0.183 1.311,0.462 1.031,0.443 0.609,0.603 0.291,0.596 0.012,0.022 -0.072,0.202 z" fill="#181716" transform="matrix(1.33333 0 0 -1.33333 32.803 152.557)"/><path style="mix-blend-mode:multiply" d="M 0,0 -3.095,3.109 -3.113,3.127 H -3.309 L -3.396,2.605 v -0.01 l 0.082,-0.574 0.731,-0.78 0.958,-0.792 0.518,-0.675 0.902,-0.845 0.07,-0.191 v -2.349 l -0.072,-0.169 -0.129,-0.044 -0.165,0.066 -1.037,1.032 -1.179,1.483 -0.388,0.273 -0.202,-0.041 -0.085,-0.227 0.026,-0.27 0.103,-0.239 0.604,-0.61 0.685,-0.793 0.713,-0.753 1.045,-1.299 0.228,-0.633 -0.135,-1.024 -0.082,-0.446 -0.08,-0.015 -1.013,0.72 -1.654,1.62 -0.368,0.211 0.116,-1.033 0.176,-0.434 1.918,-1.954 0.79,-0.663 0.166,-0.387 0.015,-1.162 0.118,-0.264 0.243,-0.103 0.242,0.103 0.118,0.251 -0.004,0.91 0.049,1.705 -0.06,1.24 0.148,1.044 0.005,4.112 -0.135,0.473 z" fill="#181716" transform="matrix(1.33333 0 0 -1.33333 -.316 147.01)"/><path style="mix-blend-mode:multiply" d="M 0,0 C -0.079,0.028 -0.173,0.021 -0.249,0.054 -0.76,0.278 -1.278,0.207 -1.791,0.082 -1.99,0.033 -2.183,-0.002 -2.388,-0.006 -2.515,-0.009 -2.641,-0.057 -2.767,-0.088 -2.867,-0.112 -2.965,-0.155 -3.066,-0.165 -3.258,-0.186 -3.438,-0.234 -3.614,-0.309 -3.72,-0.355 -3.839,-0.368 -3.952,-0.396 -4.033,-0.418 -4.115,-0.436 -4.193,-0.464 -4.309,-0.506 -4.42,-0.558 -4.537,-0.599 -4.61,-0.626 -4.689,-0.635 -4.763,-0.663 -4.776,-0.668 -4.788,-0.673 -4.801,-0.677 l -1.603,2.004 -1.689,2.206 c 0.006,0.05 0.009,0.102 0.017,0.152 0.043,0.265 0.099,0.527 0.143,0.792 0.02,0.121 0.035,0.246 0.035,0.37 0.004,0.976 0.01,1.951 0,2.927 -0.003,0.28 -0.03,0.566 -0.094,0.837 -0.031,0.132 -0.05,0.263 -0.065,0.395 l 0.491,-0.57 c 2.326,-2.465 4.48,-4.893 6.78,-7.369 L 0.438,-0.166 C 0.294,-0.109 0.148,-0.052 0,0 m -6.725,-1.523 c -0.185,-0.096 -0.374,-0.186 -0.566,-0.269 -0.157,-0.067 -0.243,0.003 -0.222,0.171 0.008,0.057 0.031,0.113 0.048,0.169 0.107,0.339 0.178,0.683 0.171,1.041 -0.001,0.028 0,0.055 0,0.083 l 0.97,-0.079 0.194,-0.07 0.469,-0.535 c -0.185,-0.073 -0.37,-0.143 -0.549,-0.227 -0.177,-0.083 -0.34,-0.195 -0.515,-0.284 m -1.592,1.149 c -0.009,-0.123 -0.036,-0.245 -0.054,-0.367 -0.031,-0.227 -0.073,-0.452 -0.087,-0.679 -0.011,-0.166 -0.031,-0.322 -0.105,-0.474 -0.044,-0.091 -0.068,-0.198 -0.076,-0.3 -0.029,-0.332 -0.167,-0.607 -0.419,-0.816 -0.276,-0.231 -0.562,-0.449 -0.851,-0.663 -0.057,-0.042 -0.147,-0.059 -0.221,-0.055 -0.357,0.018 -0.703,-0.036 -1.05,-0.113 -0.346,-0.077 -0.7,-0.097 -1.053,-0.094 -0.165,10e-4 -0.258,0.141 -0.157,0.264 0.151,0.183 0.169,0.388 0.195,0.602 0.011,0.081 0.05,0.164 0.098,0.232 0.067,0.097 0.097,0.199 0.087,0.313 -0.011,0.136 0.024,0.251 0.097,0.37 0.06,0.094 0.09,0.217 0.101,0.33 0.016,0.159 0.042,0.307 0.122,0.449 0.045,0.083 0.068,0.185 0.078,0.281 0.02,0.181 0.02,0.365 0.034,0.548 0.005,0.07 0.013,0.146 0.042,0.208 0.079,0.165 0.106,0.337 0.105,0.515 0,0.181 0.046,0.346 0.121,0.511 0.047,0.103 0.068,0.224 0.076,0.339 0.012,0.183 0.003,0.367 0.003,0.55 h 0.015 c 0,0.216 -0.002,0.432 0,0.647 10e-4,0.053 0.009,0.105 0.02,0.156 0.014,0.068 0.056,0.1 0.129,0.082 0.164,-0.041 0.329,-0.079 0.492,-0.12 0.039,-0.009 0.08,-0.015 0.113,-0.035 0.183,-0.114 0.383,-0.101 0.588,-0.1 0.386,0.002 0.772,-0.013 1.157,-0.04 C -8.608,2.159 -8.499,2.088 -8.4,2.03 -8.304,1.973 -8.274,1.873 -8.273,1.759 -8.271,1.577 -8.255,1.394 -8.247,1.212 -8.243,1.114 -8.239,1.015 -8.243,0.918 -8.266,0.487 -8.288,0.056 -8.317,-0.374 m -3.746,10.599 c -10e-4,0.029 -0.033,0.055 -0.047,0.085 -0.095,0.2 -0.216,0.392 -0.277,0.603 -0.058,0.197 -0.142,0.377 -0.232,0.559 -0.054,0.111 -0.112,0.221 -0.17,0.331 -0.162,0.312 -0.308,0.634 -0.49,0.934 -0.334,0.548 -0.687,1.083 -1.032,1.623 -0.043,0.065 -0.084,0.133 -0.137,0.19 -0.367,0.392 -0.731,0.787 -1.107,1.169 -0.197,0.201 -0.425,0.37 -0.624,0.569 -0.399,0.397 -0.908,0.638 -1.346,0.98 -0.015,0.012 -0.034,0.02 -0.051,0.028 -0.358,0.187 -0.716,0.374 -1.074,0.558 -0.122,0.063 -0.243,0.128 -0.37,0.18 -0.27,0.112 -0.543,0.219 -0.816,0.325 -0.285,0.111 -0.588,0.167 -0.863,0.303 -0.051,0.025 -0.116,0.016 -0.173,0.028 -0.064,0.013 -0.133,0.02 -0.187,0.053 -0.153,0.092 -0.317,0.109 -0.49,0.117 -0.108,0.005 -0.228,0.017 -0.32,0.069 -0.178,0.099 -0.366,0.138 -0.565,0.137 -0.306,0 -0.612,0.015 -0.919,0.006 -0.503,-0.014 -1.007,0.021 -1.51,0.037 -0.059,0.002 -0.117,0.014 -0.175,0.028 -0.195,0.043 -0.387,0.055 -0.582,-0.01 -0.06,-0.019 -0.129,-0.027 -0.193,-0.023 -0.512,0.04 -1.001,-0.086 -1.493,-0.194 -0.153,-0.033 -0.31,-0.057 -0.466,-0.058 -0.347,-0.004 -0.666,-0.141 -1.001,-0.2 l 0.661,0.449 1.753,0.899 0.477,0.458 0.107,0.254 -0.012,0.258 -0.164,0.165 -0.406,-0.184 c -3.783,-2.368 -8.602,-4.664 -13.035,-5.229 l -0.142,0.056 -0.03,0.11 0.462,0.985 c 0.868,1.651 1.052,0.722 2.566,1.502 l 2.714,0.82 0.932,0.252 0.661,0.234 2.943,1.479 3.503,1.82 0.477,0.408 0.236,0.419 0.038,0.288 -0.086,0.226 -0.205,0.048 c -2.892,-2.078 -8.314,-4.482 -11.693,-5.219 l -0.324,0.046 -0.042,0.115 0.165,0.39 0.416,0.757 0.305,0.248 3.671,1.041 0.814,0.363 2.478,1.062 1.203,0.558 0.648,0.251 2.178,1.283 c 0.419,0.087 1.149,0.187 1.314,0.215 0.012,0.003 0.023,0.014 0.034,0.019 0.232,0.101 0.481,0.118 0.713,0.215 0.048,0.02 0.103,0.024 0.155,0.028 0.094,0.008 0.178,0.03 0.244,0.106 0.067,0.076 0.159,0.072 0.253,0.077 0.114,0.007 0.238,0.022 0.338,0.07 0.195,0.093 0.391,0.144 0.606,0.143 0.095,-0.001 0.209,0.008 0.281,0.059 0.144,0.106 0.296,0.122 0.463,0.124 0.123,0.001 0.254,-0.002 0.368,0.037 0.203,0.068 0.392,0.179 0.595,0.25 0.319,0.112 0.643,0.207 0.967,0.306 0.042,0.014 0.091,0.007 0.136,0.015 0.134,0.027 0.274,0.043 0.4,0.091 0.133,0.05 0.265,0.072 0.403,0.066 0.384,-0.017 0.756,0.036 1.121,0.156 0.153,0.05 0.321,0.07 0.482,0.072 0.917,0.006 1.834,-0.006 2.75,0.006 0.34,0.005 0.666,-0.038 0.985,-0.147 0.208,-0.07 0.419,-0.092 0.637,-0.089 0.11,0.001 0.219,-0.026 0.329,-0.037 0.387,-0.041 0.747,-0.161 1.111,-0.3 0.347,-0.133 0.659,-0.32 0.961,-0.518 0.37,-0.241 0.626,-0.611 0.925,-0.931 0.023,-0.023 0.037,-0.054 0.054,-0.082 0.071,-0.117 0.127,-0.247 0.214,-0.35 0.13,-0.154 0.188,-0.324 0.184,-0.521 -0.002,-0.137 0.036,-0.287 -0.009,-0.407 -0.102,-0.267 -0.192,-0.544 -0.409,-0.752 -0.113,-0.108 -0.203,-0.239 -0.297,-0.364 -0.109,-0.147 -0.207,-0.3 -0.317,-0.446 -0.083,-0.109 -0.186,-0.204 -0.263,-0.317 -0.105,-0.156 -0.233,-0.288 -0.389,-0.383 -0.197,-0.12 -0.337,-0.288 -0.47,-0.466 -0.067,-0.089 -0.131,-0.18 -0.203,-0.265 -0.09,-0.104 -0.18,-0.209 -0.281,-0.301 -0.138,-0.127 -0.245,-0.095 -0.315,0.074 -0.037,0.09 -0.082,0.177 -0.126,0.265 -0.106,0.208 -0.217,0.416 -0.32,0.627 -0.1,0.204 -0.188,0.415 -0.291,0.618 -0.07,0.14 -0.151,0.276 -0.24,0.405 -0.087,0.129 -0.186,0.251 -0.289,0.369 -0.054,0.061 -0.131,0.093 -0.214,0.056 -0.084,-0.038 -0.112,-0.12 -0.095,-0.198 0.033,-0.145 0.083,-0.286 0.128,-0.429 0.025,-0.08 0.073,-0.156 0.081,-0.237 0.034,-0.352 0.19,-0.66 0.336,-0.973 0.034,-0.074 0.061,-0.161 0.06,-0.241 -0.003,-0.142 0.017,-0.271 0.098,-0.392 0.032,-0.047 0.044,-0.109 0.063,-0.163 0.086,-0.254 0.172,-0.507 0.258,-0.759 0.009,-0.025 0.022,-0.049 0.036,-0.071 0.086,-0.128 0.108,-0.276 0.147,-0.422 0.072,-0.27 0.165,-0.535 0.259,-0.799 0.096,-0.269 0.204,-0.533 0.306,-0.8 0.005,-0.012 0.002,-0.027 0.006,-0.039 0.026,-0.079 0.055,-0.158 0.082,-0.238 0.039,-0.117 0.108,-0.233 0.108,-0.35 -10e-4,-0.352 0.205,-0.648 0.245,-0.986 0.12,-0.166 0.127,-0.367 0.178,-0.556 0.062,-0.231 0.192,-0.442 0.222,-0.685 0.002,-0.012 0.01,-0.024 0.018,-0.035 0.092,-0.149 0.124,-0.314 0.134,-0.487 0.008,-0.145 0.049,-0.28 0.119,-0.41 0.047,-0.089 0.056,-0.198 0.079,-0.299 0.022,-0.101 0.018,-0.214 0.062,-0.303 0.089,-0.177 0.121,-0.359 0.119,-0.551 -10e-4,-0.173 0.029,-0.34 0.113,-0.493 0.076,-0.136 0.102,-0.28 0.095,-0.434 -0.012,-0.206 0.034,-0.4 0.096,-0.597 0.052,-0.165 0.083,-0.345 0.088,-0.519 0.009,-0.277 0.042,-0.547 0.116,-0.814 0.077,-0.272 0.108,-0.549 0.108,-0.833 0.001,-0.268 0.02,-0.538 0.065,-0.802 0.075,-0.447 0.109,-0.896 0.105,-1.348 -0.002,-0.38 -0.002,-0.76 0.001,-1.139 10e-4,-0.19 0.008,-0.38 0.011,-0.57 0.003,-0.189 -0.006,-0.38 0.013,-0.568 0.015,-0.165 -0.022,-0.31 -0.089,-0.455 -0.05,-0.106 -0.089,-0.217 -0.134,-0.325 -0.137,-0.322 -0.396,-0.526 -0.737,-0.31 -0.12,0.075 -0.252,0.103 -0.392,0.106 -0.138,0.002 -0.275,0.01 -0.412,0.014 -0.193,0.007 -0.234,0.061 -0.231,0.255 0.007,0.413 0.009,0.825 0.003,1.236 -0.001,0.088 -0.026,0.187 -0.074,0.259 -0.088,0.134 -0.09,0.263 -0.056,0.412 0.026,0.112 0.052,0.239 0.024,0.346 -0.066,0.257 -0.083,0.516 -0.083,0.778 -0.001,0.146 -0.025,0.285 -0.107,0.412 -0.088,0.137 -0.117,0.289 -0.109,0.452 0.008,0.15 0.007,0.3 0.008,0.451 0,0.121 -0.037,0.227 -0.099,0.334 -0.044,0.074 -0.065,0.17 -0.07,0.258 -0.009,0.14 -0.04,0.267 -0.105,0.393 -0.057,0.108 -0.093,0.23 -0.121,0.35 -0.058,0.252 -0.215,0.474 -0.225,0.742 m -16.423,7.243 -3.236,-1.472 -1.52,-0.539 -1.559,-0.499 -1.9,-0.47 -0.643,-0.272 -0.227,-0.121 -0.306,0.11 -1.203,-0.269 -1.002,-0.189 -0.663,-0.243 h -0.257 l -0.17,0.078 -0.045,0.126 0.306,0.538 0.278,0.288 0.869,0.277 1.314,0.17 2.123,0.53 0.931,0.251 0.902,0.287 0.997,0.464 1.146,0.342 1.297,0.65 c -0.013,-0.077 0.029,-0.145 0.126,-0.178 0.161,-0.054 0.329,-0.062 0.471,0.044 0.13,0.095 0.27,0.117 0.423,0.128 0.136,0.009 0.277,0.028 0.402,0.075 0.156,0.06 0.311,0.088 0.477,0.098 0.108,0.006 0.223,0.027 0.32,0.071 0.13,0.06 0.252,0.105 0.396,0.076 0.049,-0.01 0.103,0.008 0.155,0.015 0.142,0.019 0.284,0.036 0.426,0.057 0.119,0.017 0.239,0.031 0.358,0.048 z m -1.669,-6.41 c -0.137,-0.261 -0.281,-0.515 -0.333,-0.81 -0.01,-0.055 -0.044,-0.109 -0.077,-0.156 -0.239,-0.348 -0.319,-0.763 -0.482,-1.144 L -32.101,8.411 C -37.679,5.704 -42.873,4.241 -49.004,2.939 l -1.988,-0.29 -0.101,0.101 -0.031,0.214 0.057,0.223 0.566,0.604 0.754,0.715 0.648,0.54 1.019,1.019 0.436,0.117 0.874,0.02 3,0.541 0.718,0.161 c 3.813,0.791 7.631,1.824 11.108,3.638 l 1.137,0.346 0.755,0.34 c -0.034,-0.057 -0.072,-0.11 -0.103,-0.17 m -20.361,-11.616 0.493,-0.018 2.582,0.378 2.417,0.537 1.591,0.485 0.587,0.28 1.657,0.408 1.383,0.39 1.33,0.444 2.703,1.122 2.185,0.762 2.411,0.797 c 0.047,-0.108 0.076,-0.217 0.072,-0.337 -0.005,-0.15 0.04,-0.283 0.128,-0.403 0.058,-0.079 0.114,-0.158 0.173,-0.235 L -30.918,3.991 C -37.286,1.167 -44.04,-0.451 -50.787,-2.054 l -0.109,0.031 -0.258,0.872 0.014,0.331 0.273,0.226 z m 19.174,6.92 c 0.022,-0.09 0.025,-0.18 0.034,-0.27 l -0.577,-0.249 -2.803,-1.025 -4.154,-1.444 -4.252,-1.346 -1.85,-0.51 -0.87,-0.299 -2.015,-0.344 -1.473,-0.294 -1.006,-0.188 -0.459,-0.12 -0.175,0.025 -0.117,0.115 -0.071,0.508 0.029,0.57 0.084,0.157 0.42,0.128 1.035,0.161 0.619,0.252 0.856,0.031 1.408,0.358 1.705,0.371 1.03,0.43 2.944,0.601 1.785,0.575 3.438,1.283 1.822,0.823 1.312,0.458 1.289,0.482 0.131,0.055 c -0.01,-0.115 -0.034,-0.228 -0.036,-0.344 -0.004,-0.194 -0.045,-0.388 -0.064,-0.582 -0.013,-0.123 -0.046,-0.254 -0.019,-0.368 m -24.398,73.997 -0.244,0.302 -0.266,0.904 -0.298,1.169 -0.162,1.01 -0.059,1.124 -0.098,0.783 0.069,0.824 0.17,1.586 0.633,1.404 0.124,0.161 0.176,0.09 h 0.206 l 0.171,-0.088 0.522,-0.929 0.258,-1.176 -0.04,-0.905 -0.103,-1.78 -0.087,-0.792 -0.304,-1.753 -0.487,-1.865 -0.088,-0.084 z m 5.989,-69.121 -0.092,-0.461 -0.268,-0.285 -0.867,-0.619 -0.151,-0.015 -0.097,0.097 -0.15,1.32 -0.059,1.421 -0.122,0.752 0.029,1.728 0.041,0.041 0.075,-0.044 1.193,-2.657 0.306,-0.567 z m 20.445,28.292 0.151,1.327 0.058,1.113 0.411,2.234 0.258,0.909 0.582,0.862 0.331,0.244 0.184,0.012 0.16,-0.069 0.207,-0.353 0.04,-1.401 -0.522,-2.11 -0.415,-1.05 -0.398,-0.769 -0.751,-1.036 -0.135,-0.093 -0.091,0.021 z m 6.761,-12.443 c 0,0 -0.015,-0.004 -0.022,-0.004 l -0.223,0.702 -0.155,0.994 0.175,0.66 0.115,0.163 0.131,0.083 0.358,-0.062 0.535,-0.341 0.718,-1.012 0.189,-0.657 c -0.042,-0.012 -0.083,-0.025 -0.126,-0.035 -0.126,-0.029 -0.25,-0.065 -0.376,-0.094 -0.114,-0.026 -0.23,-0.041 -0.343,-0.072 -0.106,-0.029 -0.209,-0.073 -0.312,-0.112 -0.092,-0.034 -0.189,-0.061 -0.272,-0.11 -0.123,-0.073 -0.251,-0.101 -0.392,-0.103 m 12.667,-6.531 0.016,-0.496 0.004,-3.13 c -0.011,0.015 -0.018,0.032 -0.029,0.047 -0.178,0.251 -0.244,0.546 -0.348,0.824 -0.086,0.23 -0.223,0.444 -0.249,0.696 -10e-4,0.012 -0.01,0.024 -0.016,0.035 -0.121,0.201 -0.169,0.424 -0.227,0.646 -0.026,0.097 0.004,0.158 0.078,0.221 0.074,0.061 0.152,0.13 0.195,0.212 0.174,0.328 0.363,0.645 0.576,0.945 M -6.908,0.796 -6.852,0.65 -6.894,0.546 -7.299,0.571 C -7.31,0.848 -7.318,1.127 -7.381,1.399 Z M 3.082,5.266 2.911,3.675 2.698,2.405 2.67,1.558 2.291,-0.712 2.208,-0.907 2.116,-0.99 2.022,-0.974 1.142,-0.12 0.925,0.233 c 0.169,3.086 0.862,6.622 1.012,9.824 l 0.029,0.85 0.075,0.075 L 2.156,10.948 3.012,10.043 3.226,9.685 3.293,9.183 3.323,7.974 3.135,6.388 Z M 3.042,-1.09 3.258,0.189 3.415,1.509 3.469,2.334 3.994,5.64 4.295,7.704 4.314,8.281 4.385,8.426 4.467,8.45 5.104,7.995 5.383,7.423 5.503,6.68 5.469,4.063 5.351,3.293 5.262,2.497 5.144,1.144 4.563,-2.684 4.387,-3.09 4.293,-3.191 4.199,-3.194 3.94,-2.928 3.471,-2.213 3.032,-1.496 Z M 1.034,8.514 0.841,6.62 0.754,5.242 0.49,3.741 0.341,2.995 0.289,2.177 0.105,1.477 0.028,1.377 -0.074,1.374 -0.551,1.741 -0.97,2.19 l -0.167,0.396 0.009,0.803 0.122,0.774 0.026,0.852 0.123,0.768 0.052,1.121 0.472,4.243 0.239,1.822 0.065,0.068 0.279,-0.162 0.573,-0.596 0.255,-1.182 z m -2.049,2.473 -0.122,-0.775 C -1.263,8.162 -1.593,6.133 -1.773,4.092 l -0.174,-0.667 -0.075,-0.021 -0.879,0.845 -0.812,0.949 -0.06,0.176 0.08,0.417 0.176,0.725 0.477,2.473 0.275,1.786 0.373,1.98 0.188,0.705 0.222,1.547 0.105,0.108 0.119,-0.008 0.26,-0.284 0.309,-0.565 0.209,-1.241 z M 7.12,-5.698 7.065,-5.926 6.957,-6.034 H 6.828 l -0.891,0.856 -0.571,0.591 -0.166,0.391 0.568,3.5 0.059,0.819 0.235,1.536 0.089,0.796 0.117,1.354 0.188,1.798 v 0.01 L 6.374,6.093 6.476,6.486 6.562,6.528 7.085,6.277 7.762,5.789 7.958,5.427 7.954,4.983 7.851,4.176 7.827,2.441 7.704,1.671 7.7,0.507 7.561,-0.248 7.532,-1.685 7.408,-2.453 7.355,-3.571 7.119,-5.114 Z m 3.053,66.003 0.133,1.301 -0.019,0.387 0.328,1.099 0.256,0.311 0.133,0.04 0.304,-0.172 0.495,-0.671 0.155,-0.412 0.112,-1.055 0.064,-1.113 -0.095,-0.796 -0.053,-1.122 -0.056,-0.814 -0.256,-0.926 -0.228,-0.958 -0.102,-0.126 -0.107,-0.01 -0.101,0.109 -0.334,1.139 -0.461,2.482 z m 2.607,-51.849 1.375,1.865 1.037,1.335 0.406,0.758 0.659,0.83 0.511,0.987 0.023,0.27 -0.096,0.216 -0.205,0.06 L 16.215,14.433 15.64,13.531 13.8,11.25 12.249,9.532 12.107,9.447 12.038,9.464 11.956,11.673 c 0.747,1.2 3.565,3.876 4.357,5.367 l -0.005,0.623 -0.142,0.066 -2.139,-2.577 -1.613,-1.63 -0.132,-0.08 -0.08,0.025 -0.112,0.422 0.118,0.758 0.258,0.608 0.369,0.505 0.854,0.922 0.496,0.674 0.558,0.626 0.944,1.122 0.87,1.179 0.01,0.013 0.056,0.519 0.004,0.03 -0.128,0.117 -0.634,-0.583 c -1.043,-1.298 -2.212,-2.504 -3.432,-3.592 l -0.068,0.006 -0.08,0.256 -0.038,0.819 0.157,0.706 0.382,0.476 0.718,0.759 0.534,0.643 0.558,0.627 0.769,1.003 0.854,1.209 0.248,0.663 0.004,0.011 -0.016,0.623 -0.143,0.066 -0.398,-0.506 -0.423,-0.746 -0.872,-1.176 -1.059,-1.009 -1.009,-1.073 -0.092,-0.047 -0.06,0.036 -0.128,0.426 0.039,0.918 -0.057,0.502 0.204,0.666 0.621,0.823 0.459,0.442 0.357,0.523 0.881,1.174 0.564,0.624 0.754,1.05 0.084,0.207 -0.061,0.458 -0.122,0.203 -0.185,-0.015 -0.455,-0.754 -0.713,-0.771 -0.616,-0.852 -0.818,-0.94 -0.584,-0.602 -0.126,-0.041 -0.108,0.058 -0.137,0.439 0.076,1.351 0.18,0.7 0.498,0.653 0.852,0.921 1.091,1.268 0.939,1.127 0.394,0.505 0.172,0.427 -0.054,0.193 -0.193,0.044 -0.491,-0.422 -1.009,-1.058 -0.679,-0.787 -0.75,-0.73 -0.411,-0.471 -0.268,-0.187 -0.052,0.037 -0.133,0.418 -0.019,0.25 0.167,0.394 0.561,0.616 1.268,1.68 0.613,0.859 1.273,1.675 0.111,0.565 -0.027,0.267 -0.14,0.138 -0.647,-0.872 -0.434,-0.465 -0.45,-0.714 -0.573,-0.611 -1.348,-1.602 -0.144,-0.046 -0.125,0.051 -0.082,0.163 0.005,1.413 0.309,0.535 1.134,1.234 0.617,0.851 0.526,0.656 0.874,1.198 0.545,0.933 0.11,0.541 0.002,0.01 -0.037,0.276 -0.149,0.15 -0.295,-0.335 -0.494,-0.702 -1.39,-1.84 -1.472,-1.487 -0.127,-0.075 -0.082,0.028 -0.076,0.145 0.005,1.418 0.211,0.35 1.343,1.894 1.028,1.331 1.012,1.36 0.295,0.591 0.184,1.01 -0.145,0.145 -0.279,-0.349 -0.579,-0.908 -1.172,-1.476 -0.557,-0.626 -1.187,-1.479 -0.098,-0.056 -0.086,0.045 -0.146,0.432 0.053,0.504 0.422,0.736 0.364,0.533 0.386,0.775 0.662,0.822 1.314,2.204 1.006,1.066 0.147,0.452 -0.092,0.432 -0.169,0.121 -0.273,-0.336 c -0.797,-1.237 -2.54,-3.785 -3.595,-4.669 l -0.117,-0.034 -0.073,0.075 -0.011,2.283 0.287,0.561 0.892,1.166 0.556,0.625 0.804,0.972 1.074,1.587 0.521,0.963 0.109,0.507 0.004,0.018 -0.087,0.236 -0.217,0.042 -0.299,-0.358 C 14.9,47.644 13.536,46.699 12.4,45.04 l -0.083,-0.041 -0.039,0.045 -0.169,0.99 0.013,0.23 0.683,1.07 1.347,1.897 0.921,1.421 0.286,0.305 1.263,2.605 0.055,0.57 0.001,0.017 -0.108,0.244 -0.21,0.041 -0.161,-0.16 C 15.399,52.271 13.7,50.018 12.321,48.37 l -0.108,-0.033 -0.079,0.08 -0.025,1.417 0.226,0.625 0.478,0.705 0.666,1.097 0.729,1.044 0.885,1.477 0.519,0.95 0.553,0.928 0.388,0.813 0.118,0.492 0.002,0.009 -0.021,0.275 -0.107,0.236 -0.198,0.039 -0.842,-1.554 C 14.98,55.847 13.049,52.786 12.153,51.789 l -0.106,-0.039 -0.078,0.052 -0.165,0.702 c -0.038,3.465 2.104,7.008 0.697,10.448 l -0.29,0.594 -0.617,0.592 -0.454,0.2 -0.538,-0.027 -0.364,-0.266 -0.509,-0.696 -0.242,-0.984 v -3.234 l 0.414,-2.244 1.029,-3.686 v -0.512 l -0.202,-0.64 -0.069,-0.015 -0.749,0.967 -0.655,1.118 -0.354,0.516 -0.749,1.601 -0.239,0.641 -0.478,1.61 -0.152,0.197 H 7.079 L 6.922,58.509 6.811,57.967 6.809,57.956 7.005,56.637 7.321,55.769 7.772,54.734 8.79,53.109 9.081,52.5 l 0.603,-0.868 0.713,-1.058 0.493,-0.66 0.07,-0.491 -0.085,-1.112 -0.119,-0.355 h -0.041 l -0.69,0.744 -0.83,1.221 -1.104,2.137 -0.393,0.784 -0.376,0.81 -0.526,0.934 -0.474,1.285 -0.173,0.744 -0.105,0.219 -0.187,0.111 -0.212,-0.07 -0.241,-0.412 -0.047,-0.564 c 0.162,-3.175 2.707,-5.597 4.251,-8.181 l 0.647,-0.812 0.311,-0.561 0.094,-0.467 -0.034,-1.734 -0.084,-0.081 -0.139,0.015 L 10.08,44.346 8.903,46.1 7.426,48.448 6.821,49.614 5.662,51.681 5.295,52.784 5.104,53.52 4.94,53.691 4.726,53.67 C 2.703,50.683 10.031,44.509 10.635,42.003 L 10.602,41.525 10.338,40.006 10.189,39.693 10.123,39.701 9.29,40.595 8.597,41.669 C 7.182,43.913 4.614,48.108 3.8,50.73 L 3.628,50.866 3.423,50.842 3.259,50.677 3.132,50.169 3.131,50.16 3.169,48.698 3.61,47.911 4.123,47.252 5.175,45.65 5.878,44.595 6.457,43.408 7.014,42.78 7.787,41.476 8.181,40.994 10.128,38.242 10.219,37.774 10.16,36.358 10.068,35.855 9.984,35.684 9.869,35.639 c -3.06,2.32 -3.923,6.512 -5.962,9.58 L 2.984,47.249 2.808,47.689 2.637,47.775 2.469,47.654 2.28,47.202 2.261,46.319 2.505,45.642 4.299,42.127 5.163,40.632 5.952,39.352 9.163,34.903 9.858,33.849 9.933,33.356 9.86,32.528 9.74,31.472 9.642,31.371 l -0.146,0.01 -0.612,0.574 -1.009,1.037 -0.612,0.869 -0.916,1.14 -0.465,0.71 -1.256,1.981 -1.369,2.46 -0.866,1.772 -0.555,1.827 -0.009,0.03 L 1.608,43.856 1.415,43.732 1.398,43.721 1.132,43.045 1.077,42.189 1.324,41.516 1.909,40.334 2.278,39.519 2.607,38.943 2.885,38.644 3.263,37.845 C 5.08,35.428 6.969,32.363 8.94,30.242 L 9.525,29.661 9.608,29.474 9.575,28.997 9.472,28.192 C 9.676,26.164 8.859,26.937 7.964,28.08 L 7.021,29.2 6.092,30.324 c -2.071,2.593 -2.544,3.813 -4.209,6.68 l -0.804,1.859 -0.664,1.13 -0.186,0.121 -0.182,-0.083 -0.155,-0.495 0.066,-0.534 1.747,-3.299 0.751,-1.309 0.4,-0.787 0.699,-1.073 1.993,-2.731 0.548,-0.615 0.339,-0.557 0.522,-0.646 0.454,-0.743 1.863,-1.94 0.07,-0.498 L 9.177,23.479 9.163,22.609 9.081,22.445 8.963,22.397 8.652,22.584 c -3.478,2.893 -7.439,9.433 -9.21,13.503 l -0.201,0.064 -0.16,-0.159 -0.081,-0.57 -10e-4,-0.008 0.104,-0.828 0.417,-1.07 0.654,-1.118 0.474,-0.7 2.002,-3.308 0.601,-0.877 0.38,-0.507 0.786,-0.973 0.462,-0.727 0.671,-0.81 1.464,-1.485 0.438,-0.425 0.354,-0.551 1.043,-1.004 0.17,-0.392 -0.053,-0.767 -0.162,-0.397 -0.115,-0.041 -0.332,0.199 -1.68,1.561 -0.664,0.812 -0.553,0.621 -2.181,2.828 -0.503,0.672 -2.318,3.279 -0.692,1.063 -0.663,1.424 -0.192,0.164 -0.24,-0.012 L -1.498,31.871 -1.586,31.585 -1.367,30.3 -0.494,28.783 0.465,27.37 1.033,26.775 1.604,25.882 2,25.081 2.527,24.425 3.888,22.85 4.958,21.268 5.478,20.884 6.142,20.073 7.222,19.102 7.494,18.771 8.281,18.101 8.533,17.783 8.674,17.085 8.546,16.582 8.543,16.574 8.562,16.158 8.541,16.134 7.263,17.074 6.481,18.05 5.956,18.42 c -2.727,3.131 -5.421,6.386 -7.217,10.165 l -0.158,0.182 -0.215,0.027 -0.174,-0.175 -0.071,-0.555 -0.003,-0.016 0.186,-0.453 1.311,-2.537 1.119,-1.528 0.902,-1.466 1.187,-1.472 0.713,-0.751 0.909,-1.164 1.304,-1.344 0.69,-0.798 0.955,-0.798 0.943,-1.1 0.118,-0.444 -0.029,-1.167 -0.081,-0.157 -0.101,-0.036 -1.05,0.634 -2.793,2.794 -0.647,0.832 c -1.663,2.292 -4.278,5.176 -5.449,7.497 l -0.289,0.614 -0.187,0.183 -0.227,0.043 -0.173,-0.172 -0.044,-0.916 0.127,-0.761 0.668,-1.133 0.589,-0.897 0.554,-0.62 2.189,-2.839 0.469,-0.4 0.939,-1.115 0.493,-0.7 L 4.421,14.82 4.864,14.377 5.622,13.667 6.048,13.203 7.115,12.205 8.197,11.25 8.312,10.803 8.22,9.997 8.143,9.813 8.051,9.746 7.741,9.885 6.991,10.617 5.894,11.585 4.458,12.794 2.997,14.265 2.626,14.794 1.885,15.525 1.01,16.408 c -1.508,2.071 -3.21,3.722 -4.088,6.23 l -0.143,0.191 -0.197,0.055 -0.157,-0.158 -0.083,-0.565 -10e-4,-0.009 0.083,-0.562 0.681,-0.798 0.419,-0.774 1.844,-2.571 0.357,-0.534 1.403,-1.845 1.403,-1.551 C 4.407,11.966 5.874,9.962 7.765,8.45 L 8.015,8.134 8.065,7.784 7.95,7.349 7.858,7.25 7.747,7.26 6.225,8.671 5.451,9.375 4.163,10.436 2.386,12.205 1.733,12.721 0.421,14.053 c -1.308,1.518 -1.916,2.472 -2.963,4.099 l -0.354,0.555 -0.165,0.143 -0.213,0.053 -0.155,-0.161 -0.076,-0.556 -10e-4,-0.01 0.113,-0.525 0.316,-0.848 0.175,-0.991 L -2.911,14.359 -3.049,13.605 -3.108,12.786 -3.577,10.022 -3.77,9.321 -3.866,8.542 -4.341,6.665 -4.428,6.46 -4.545,6.347 -4.681,6.339 -4.83,6.435 l -0.113,0.172 -0.05,0.217 0.742,4.858 0.028,0.848 0.124,0.771 0.004,1.165 0.108,0.712 0.002,0.009 -0.124,0.767 -0.027,2.054 -0.186,0.697 -0.49,0.736 -0.178,0.16 -0.231,0.059 -0.162,-0.161 0.026,-0.527 0.25,-2.121 -0.068,-1.13 -0.023,-0.448 0.095,-0.782 -0.16,-1.029 L -5.317,12.634 -5.411,11.84 -5.458,10.722 -5.686,9.761 -5.806,8.716 -5.94,8.252 -6.039,8.133 -6.145,8.12 l -0.888,0.831 -0.166,0.388 0.048,2.606 0.1,1.061 0.064,0.832 0.023,0.451 -0.086,0.492 0.151,1.024 0.023,0.851 0.124,0.772 -0.028,2.927 -0.252,0.676 -0.578,0.918 -0.182,0.15 -0.187,0.014 -0.138,-0.163 C -7.695,18.478 -7.59,14.251 -8.223,10.827 L -8.288,10.71 c -0.016,0.119 -0.027,0.24 -0.027,0.362 -0.001,0.109 -0.015,0.224 -0.052,0.326 -0.071,0.195 -0.092,0.393 -0.103,0.597 -0.004,0.109 -0.013,0.227 -0.057,0.325 -0.103,0.226 -0.136,0.462 -0.16,0.704 -0.012,0.134 -0.043,0.273 -0.096,0.395 -0.055,0.131 -0.097,0.257 -0.089,0.398 0.007,0.128 -0.031,0.24 -0.088,0.356 -0.002,0.002 -0.003,0.005 -0.003,0.005 l 0.025,1.298 0.133,0.766 10e-4,0.011 -0.173,1.032 0.166,2.217 -0.156,1.323 -0.048,0.706 c 0.266,0.253 0.534,0.503 0.792,0.763 0.282,0.286 0.54,0.59 0.574,1.02 0.006,0.076 0.036,0.152 0.058,0.227 0.039,0.123 0.029,0.242 -0.004,0.366 -0.035,0.131 -0.049,0.268 -0.06,0.403 -0.008,0.097 0.011,0.196 0.005,0.294 -0.018,0.312 -0.107,0.591 -0.378,0.784 -0.191,0.136 -0.313,0.328 -0.416,0.537 -0.137,0.279 -0.327,0.521 -0.562,0.724 -0.318,0.276 -0.685,0.481 -1.053,0.677 -0.282,0.148 -0.585,0.255 -0.88,0.379 -0.215,0.091 -0.44,0.165 -0.646,0.275 -0.181,0.097 -0.363,0.135 -0.564,0.133 -0.121,-0.002 -0.246,0.022 -0.367,0.043 -0.193,0.033 -0.383,0.097 -0.576,0.107 -0.516,0.026 -1.033,0.042 -1.549,0.042 -0.806,0 -1.611,-0.014 -2.415,-0.031 -0.182,-0.004 -0.362,-0.051 -0.543,-0.076 -0.22,-0.03 -0.44,-0.084 -0.66,-0.083 -0.301,0.004 -0.582,-0.058 -0.863,-0.155 -0.139,-0.048 -0.291,-0.077 -0.438,-0.082 -0.158,-0.005 -0.308,-0.033 -0.457,-0.069 l -0.745,1.585 -0.701,0.795 -0.58,0.332 -0.536,0.101 -0.013,0.001 -0.512,-0.126 -0.384,-0.558 -0.166,-0.438 0.005,-1.136 0.372,-1.419 0.034,-0.097 c -0.191,-0.073 -0.37,-0.18 -0.581,-0.189 -0.028,-0.001 -0.055,-0.034 -0.084,-0.049 -0.047,-0.023 -0.092,-0.055 -0.142,-0.064 -0.105,-0.019 -0.201,-0.063 -0.297,-0.109 l 0.032,0.171 -0.063,0.217 -0.208,0.052 -0.628,-0.318 c -2.353,-1.546 -7.467,-4.408 -10.334,-4.657 l -0.16,0.069 -0.034,0.112 0.629,1.408 0.226,0.34 0.781,0.364 1.596,0.473 1.264,0.499 2.245,0.71 1.257,0.517 2.712,1.416 0.581,0.626 0.261,0.697 -0.059,0.214 -0.221,0.064 c -3.357,-2.02 -5.613,-3.372 -9.484,-4.395 l -0.128,0.045 -0.029,0.106 0.44,1.017 0.614,1.125 c 2.799,1.062 5.887,1.661 8.411,3.361 l 0.395,0.526 0.175,0.464 -0.006,0.223 -0.143,0.145 -0.224,-0.007 -0.668,-0.536 -1.587,-0.771 -0.583,-0.294 -3.229,-1.192 -0.636,-0.246 -0.441,-0.147 -0.383,-0.25 -0.2,-0.039 -0.156,0.066 -0.05,0.134 0.069,0.142 0.405,0.19 0.628,0.264 4.424,2.36 0.729,0.451 1.241,0.821 0.363,0.226 0.477,0.772 0.025,0.267 -0.091,0.212 -0.198,0.061 -2.627,-1.802 -2.277,-1.255 -0.797,-0.383 -0.565,-0.307 -0.89,-0.279 -0.127,0.04 -0.039,0.126 0.354,1.097 0.243,0.317 1.232,0.814 2.205,1.339 3.049,2.254 0.344,0.245 0.239,0.403 0.094,0.506 -0.107,0.226 -0.21,0.086 -0.208,-0.066 -1.079,-1.036 -2.882,-2.111 -0.807,-0.381 -0.922,-0.572 -0.148,-0.016 -0.054,0.055 0.301,1.667 0.331,0.52 c 1.591,1.228 3.404,2.244 5.053,3.474 l 0.369,0.246 0.187,0.443 0.167,0.983 0.003,0.012 -0.058,0.234 -0.162,0.19 -0.211,0.026 -2.116,-1.769 -0.882,-0.873 -1.076,-0.778 0.911,1.839 0.612,1.167 0.391,1.092 0.55,2.407 0.002,0.007 -0.016,0.553 -0.396,1.11 -0.593,0.657 -0.247,0.082 -0.267,-0.006 -0.388,-0.243 -0.835,-0.643 -0.593,-1.236 -0.452,-2.205 -0.314,-2.333 -0.351,-1.713 -0.104,-0.169 -0.11,-0.062 -0.092,0.031 -0.446,0.985 -0.077,0.517 -0.376,0.795 -0.769,2.463 -0.054,1.407 0.082,0.732 -0.142,0.142 -0.204,-0.038 -0.73,-0.787 -0.288,-0.648 0.005,-0.848 0.718,-2.26 0.648,-1.413 0.352,-0.821 0.224,-0.671 0.483,-0.98 0.198,-0.968 -0.083,-0.45 -0.55,-1.209 -0.346,-0.512 -0.071,-0.022 -0.337,0.435 -0.609,1.142 -0.916,3.197 -0.144,1.333 -0.21,1.546 0.048,1.159 0.063,0.493 -0.158,0.156 -0.251,-0.012 -0.357,-0.32 -0.298,-0.928 -0.043,-0.537 0.551,-3.294 0.346,-1.432 0.397,-1.073 0.572,-1.794 0.365,-0.8 0.242,-0.932 -0.055,-0.432 -0.784,-1.255 -0.069,-0.033 -0.225,0.208 -0.592,1.466 -0.339,1.132 -0.75,2.778 -0.579,3.545 0.054,1.228 0.001,0.011 -0.088,0.252 -0.181,0.163 -0.226,-0.039 -0.271,-0.384 -0.272,-1.232 0.425,-2.522 0.694,-2.846 0.338,-1.131 0.224,-0.967 0.855,-2.076 0.185,-0.973 -0.094,-0.331 -0.541,-0.96 -0.116,-0.112 -0.066,-0.008 -0.27,0.505 -0.464,1.293 -0.064,0.526 -0.489,0.976 -1.266,4.642 -0.278,1.477 -0.02,1.769 -0.112,0.239 -0.197,0.055 -0.31,-0.29 -0.461,-1.076 -0.035,-0.506 -0.001,-0.01 0.557,-2.149 0.219,-0.517 -0.049,-0.453 1.529,-4.985 0.621,-1.432 0.344,-1.124 -0.101,-0.434 -0.728,-1.02 -0.136,-0.045 -0.129,0.053 -0.455,0.698 -0.642,1.708 -1.11,3.312 -0.44,1.619 -0.54,2.401 -0.167,1.298 0.005,0.909 -0.101,0.25 -0.207,0.042 -0.189,-0.152 -0.634,-1.789 -0.005,-0.015 0.071,-0.478 0.297,-0.609 0.186,-0.991 0.574,-1.779 0.18,-0.717 0.268,-0.61 1.269,-3.745 0.415,-1.066 0.284,-0.582 0.213,-0.893 -0.156,-0.643 -0.476,-0.684 -0.304,-0.151 -0.081,0.047 -0.914,2.29 -1.782,5.286 -0.814,3.008 -0.006,1.186 -0.068,0.262 -0.167,0.167 -0.231,0.006 -0.189,-0.13 -0.231,-0.418 -0.275,-1.224 -0.003,-0.013 0.171,-0.742 1.105,-3.314 0.204,-0.69 0.538,-1.223 1.141,-3.286 0.444,-1.015 0.33,-1.374 -0.118,-0.365 -0.553,-0.637 -0.224,-0.369 -0.134,-0.098 -0.124,-0.012 -0.254,0.232 -0.981,2.545 -1.031,2.797 -1.211,3.788 -0.298,1.818 0.099,0.933 -0.112,0.256 -0.22,0.066 -0.212,-0.132 -0.665,-1.461 -0.026,-0.444 0.521,-1.277 0.351,-0.819 0.34,-1.135 1.371,-3.936 0.614,-1.744 0.777,-2.159 0.077,-0.489 -0.16,-0.385 -0.762,-0.708 -0.273,-0.331 -0.141,-0.087 -0.11,0.013 -0.187,0.338 -0.65,1.722 -0.37,0.8 -1.527,4.953 -0.544,2.099 -0.099,0.791 -0.205,0.962 -0.029,0.58 -0.105,0.24 -0.205,0.061 -0.301,-0.301 -0.22,-0.738 0.052,-0.844 0.519,-1.831 0.14,-0.754 0.751,-2.49 0.204,-0.688 0.254,-0.625 1.721,-5.067 0.028,-0.222 -0.056,-0.175 -1.118,-1.151 -0.063,0.02 -1.403,3.86 -0.796,2.443 -0.867,2.954 -0.431,2.506 0.003,0.918 -0.063,0.257 -0.153,0.153 -0.208,-0.04 -0.261,-0.374 -0.386,-1.121 -0.003,-0.009 c 0.038,-1.279 1.667,-6.187 2.194,-7.401 l 1.09,-3.626 0.291,-0.905 0.127,-0.37 -0.177,-0.299 -0.456,-0.436 -0.146,-0.051 -0.111,0.052 -0.463,1.293 -1.626,4.267 -0.828,2.407 -0.868,3.25 -0.15,1.047 -0.079,0.231 -0.169,0.178 -0.223,0.012 -0.194,-0.118 -0.138,-0.213 -0.117,-1.236 c 0.204,-1.787 1.078,-3.43 1.643,-5.131 l 1.101,-3.323 0.907,-2.343 0.3,-0.577 0.08,-0.485 -0.048,-0.207 -0.272,-0.283 -0.687,-0.455 -0.119,0.041 -1.062,2.156 -1.025,2.799 -0.181,0.724 -0.332,0.299 -0.17,0.107 -0.096,0.157 -0.074,1.387 -0.093,0.785 -0.03,3.219 -0.068,1.418 -0.044,1.397 0.161,0.391 0.956,0.791 1.117,0.959 c 1.745,2.087 3.938,3.718 5.649,5.846 l 0.686,0.797 0.59,0.872 c 2.515,2.667 4.272,5.533 6.813,8.228 l 0.179,0.383 -0.115,1.048 -0.106,0.237 -0.198,0.057 -0.31,-0.299 -0.542,-0.656 -0.896,-1.172 c -2.171,-3.049 -4.656,-5.97 -7.019,-8.882 l -0.703,-0.774 -1.099,-1.255 -1.403,-1.542 -2.503,-2.493 -1.005,-0.772 -0.15,-0.024 -0.117,0.066 -0.128,0.425 -0.132,1.576 0.166,0.39 0.793,0.667 1.915,1.907 0.663,0.524 1.048,1.01 c 2.16,2.137 4.364,4.047 6.083,6.614 l 0.455,0.708 0.728,0.759 c 1.1,2.149 3.992,3.411 3.995,6.049 l -0.047,0.213 -0.149,0.186 h -0.207 l -0.393,-0.544 -1.285,-1.941 c -1.603,-1.702 -3.259,-4.018 -4.758,-5.857 l -1.215,-1.432 -0.722,-0.751 c -2.161,-2.212 -4.463,-4.476 -6.751,-6.527 l -0.167,-0.063 -0.099,0.029 -0.21,0.905 -0.01,1.158 0.139,0.418 1.171,1.171 0.703,0.772 1.097,1.245 0.492,0.402 0.441,0.442 2.254,2.176 1.202,1.448 1.102,1.27 0.551,0.903 0.883,0.894 0.517,0.653 0.72,0.76 0.532,0.64 1.917,1.926 0.372,0.49 0.658,0.521 0.218,0.408 0.194,1.295 -0.072,0.244 -0.161,0.188 -0.219,0.026 -1.522,-1.477 -1.282,-1.381 -0.483,-0.689 -1.073,-1.29 -1.138,-1.51 -1.074,-1.292 -0.466,-0.711 -0.611,-0.867 -0.226,-0.351 -0.468,-0.422 -0.617,-0.851 -0.807,-0.955 -4.572,-4.565 -0.33,-0.175 -0.099,0.036 -0.072,0.153 -0.019,1.152 0.053,0.217 3.057,3.111 0.516,0.652 1.513,1.435 0.746,0.738 1.207,1.441 0.704,0.773 0.39,0.478 0.645,0.548 0.54,0.628 0.481,0.423 0.485,0.69 0.901,1.168 0.576,0.889 1.206,1.453 1.665,2.461 0.343,1.171 0.002,0.01 -0.019,0.579 -0.111,0.242 -0.2,0.058 -0.407,-0.524 -0.887,-1.468 -1.916,-2.799 -0.966,-1.387 -0.642,-0.829 -0.518,-0.654 -1.9,-1.939 -1.176,-1.473 c -1.54,-1.743 -3.293,-3.715 -4.973,-5.326 l -1.153,-0.938 -0.099,-0.042 -0.041,0.046 -0.174,1.264 0.003,1.169 0.055,0.22 0.841,0.911 0.532,0.639 3.952,4.011 0.682,0.79 0.703,0.772 1.094,1.272 c 2.241,2.627 4.925,6.096 6.564,9.097 l -0.024,0.833 -0.212,0.455 -0.218,0.037 -0.259,-0.383 -0.677,-1.1 -0.579,-0.893 c -1.63,-2.567 -3.394,-4.999 -5.289,-7.36 l -0.647,-0.549 -1.29,-1.643 -0.318,-0.29 -0.482,-0.687 -0.554,-0.622 -1.855,-1.973 -0.589,-0.59 -1.203,-1.159 -0.148,-0.052 -0.123,0.051 -0.082,0.164 -0.019,1.146 0.167,0.391 1.669,1.846 0.475,0.426 0.874,1.178 0.72,0.76 0.527,0.634 0.815,0.658 0.747,1.043 0.878,1.181 0.802,0.97 2.423,3.18 0.6,0.875 1.524,2.311 0.328,0.543 0.408,0.488 0.33,0.544 0.265,0.324 0.144,0.479 0.003,0.009 -0.02,1.168 -0.092,0.243 -0.169,0.175 -0.201,0.007 -1.306,-2.528 -0.479,-0.696 c -1.566,-2.179 -3.291,-5.45 -4.971,-7.406 l -0.649,-0.826 -0.5,-0.666 c -1.427,-1.436 -2.688,-3.025 -4.048,-4.5 l -0.818,-0.651 -0.424,-0.388 -0.075,0.026 -0.075,0.145 -0.02,0.851 0.089,0.18 0.966,1.084 1.401,1.548 1.102,1.25 1.041,1.03 0.671,0.812 0.572,0.894 0.52,0.67 0.445,0.73 0.704,1.066 2.389,3.794 0.88,1.196 0.3,0.573 1.192,1.764 0.928,1.724 0.165,1.541 0.001,0.014 -0.166,0.465 -0.182,0.172 -0.216,0.007 -0.176,-0.143 -0.541,-1.289 -0.656,-1.412 -0.258,-0.618 -0.705,-1.352 -2.442,-4.032 -0.524,-0.665 -0.873,-1.479 -1.195,-1.745 -0.534,-0.653 -0.463,-0.708 -0.53,-0.647 -0.804,-0.961 -1.146,-1.225 -0.468,-0.691 -0.543,-0.322 -0.726,-0.787 -0.163,-0.066 -0.129,0.043 -0.073,0.17 0.024,1.145 0.466,1.279 1.737,2.373 1.036,1.32 1.466,1.783 1.307,1.936 2.001,3.013 1.207,2.032 0.915,1.446 0.321,0.545 0.565,0.626 1.081,1.571 0.258,1.264 -0.056,0.843 -0.171,0.474 -0.176,0.179 -0.207,-0.05 -0.175,-0.47 -0.172,-0.698 c -1.181,-2.644 -2.556,-4.377 -3.871,-6.727 l -0.498,-0.685 -1.744,-2.678 c -1.212,-1.817 -2.388,-3.657 -3.803,-5.323 l -0.912,-1.138 -0.596,-0.548 -0.086,0.017 -0.173,0.364 -0.023,0.482 c 1.659,2.146 3.494,3.984 4.838,6.352 l 0.326,0.54 0.285,0.305 0.477,1.009 0.491,0.7 1.694,3.314 1.647,3.059 0.73,1.047 0.928,1.723 0.145,1.335 10e-4,0.011 -0.095,0.412 -0.136,0.222 -0.205,0.089 -0.192,-0.122 C -45.182,67.084 -48.857,60.771 -53.379,55.32 l -0.039,0.002 -0.167,0.603 -0.006,1.399 0.317,0.535 c 2.408,2.933 4.244,6.269 6.036,9.595 l 0.631,1.143 0.472,1.003 c 0.962,1.733 2.005,3.553 2.99,5.272 l 0.134,0.466 -0.015,1.164 -0.187,0.47 -0.176,0.132 -0.192,-0.056 -0.518,-1.012 -0.198,-0.675 -0.272,-0.618 -0.225,-0.641 -0.563,-0.919 -1.856,-3.728 -0.378,-0.506 c -1.369,-3.301 -3.31,-6.425 -5.45,-9.292 l -0.348,-0.547 -0.138,-0.112 -0.099,-0.019 -0.076,0.084 -0.217,1.251 0.066,0.799 1.164,1.456 1.277,1.386 1.948,2.763 0.402,0.491 0.222,0.348 0.447,0.437 0.961,2.018 0.742,1.613 1.455,2.973 0.992,2.544 0.059,1.15 -0.049,1.149 -0.119,0.243 -0.195,0.107 -0.203,-0.085 -0.191,-0.479 -0.158,-1.005 -1.216,-3.199 L -47.71,72 -48.101,71.218 c -1.307,-2.23 -2.878,-4.672 -4.409,-6.775 l -0.812,-0.959 -0.513,-0.642 -0.053,-0.013 -0.15,0.304 -0.083,1.404 -0.038,0.43 0.273,0.58 1.917,2.791 0.532,0.662 0.958,1.696 0.507,0.956 0.617,0.865 c 1.596,2.481 3.062,5.578 3.702,8.42 l -0.055,0.852 -0.231,0.417 -0.196,0.059 -0.194,-0.112 c -0.564,-2.072 -1.253,-4.141 -2.226,-6.068 l -0.281,-0.592 -0.353,-0.542 -0.386,-0.788 -1.461,-2.657 -0.597,-0.882 -0.226,-0.294 -0.09,-0.298 -0.895,-1.141 -0.464,-0.707 -0.752,-0.972 -0.072,0.015 -0.147,0.388 -0.137,1.345 -0.062,0.455 0.163,0.384 1.515,2.032 0.686,1.077 0.748,1.024 0.352,0.528 0.387,0.507 0.965,1.695 1.218,2.613 1.148,2.404 0.217,0.943 0.002,0.009 -0.057,0.982 -0.068,0.267 -0.171,0.171 -0.216,-0.027 -0.242,-0.417 -0.492,-1.562 -0.611,-1.162 -0.714,-1.634 -0.553,-0.93 -0.534,-1.229 -0.604,-1.153 -0.623,-0.86 -0.526,-0.937 -1.128,-1.51 -0.456,-0.447 -0.34,-0.512 h -0.038 l -0.068,0.415 0.08,0.522 1.429,2.089 1.539,2.592 0.287,0.59 0.559,0.926 0.786,1.865 0.641,1.415 0.319,0.583 0.394,1.38 0.011,0.856 -0.081,0.261 -0.169,0.2 -0.229,0.038 -0.16,-0.154 -0.686,-2.027 -2.425,-5.233 -1.055,-1.877 -1.034,-1.34 -0.216,-0.319 -0.059,0.004 -0.134,0.32 -0.061,0.896 -0.123,0.423 0.133,0.673 0.433,0.735 2.044,3.853 0.758,1.603 0.803,1.858 0.206,0.664 0.501,0.987 0.078,0.493 -0.3,0.667 -0.196,0.12 -0.205,-0.086 c -0.874,-3.07 -2.255,-6.024 -4.045,-8.665 l -0.126,-0.024 -0.068,0.069 0.205,1.475 c 0.586,1.905 1.403,6.607 0.65,8.565 l -0.67,1.168 -0.617,0.306 c -2.719,-0.325 -2.214,-6.206 -1.953,-7.856 l 0.32,-2.346 0.077,-0.42 -0.055,-0.055 -0.113,0.03 -1.186,1.478 -0.408,0.485 -0.284,0.359 -0.19,-0.008 -0.088,-0.234 0.072,-0.563 0.801,-0.999 0.885,-1.18 1.029,-1.334 0.406,-0.459 0.119,-0.667 -0.064,-1.592 -0.059,-0.162 -0.103,-0.029 -0.356,0.193 -0.547,0.625 -0.943,1.119 -0.644,0.82 -0.241,0.382 -0.181,0.143 -0.142,-0.144 -0.025,-0.569 -10e-4,-0.012 0.255,-0.687 0.461,-0.726 0.771,-0.986 0.337,-0.565 0.849,-0.906 0.47,-0.693 0.104,-0.463 0.088,-0.96 -0.11,-1.046 -0.029,-0.032 -0.538,0.502 -1.451,1.783 -0.476,0.689 -0.392,0.826 -0.159,0.169 -0.145,-0.145 -0.034,-0.913 0.098,-0.491 1.431,-2.447 0.728,-0.737 1.028,-1.311 0.121,-0.448 -0.16,-1.037 v -0.589 l -0.045,-0.133 -0.074,-0.014 -0.477,0.375 -0.708,0.756 -0.883,1.175 -0.717,1.091 -0.173,0.141 -0.144,-0.144 -0.025,-0.569 -10e-4,-0.01 0.145,-0.481 0.795,-1.295 1.254,-1.708 0.886,-0.865 0.163,-0.402 0.062,-0.976 -0.023,-1.082 -0.068,-0.223 -0.106,-0.111 -0.133,0.014 -1.24,1.409 -0.911,1.133 -0.58,1.203 -0.007,0.015 -0.164,0.112 -0.155,-0.157 -0.016,-0.505 0.247,-0.975 0.428,-0.783 0.372,-0.508 0.36,-0.539 0.716,-0.744 1.09,-1.558 0.112,-0.423 -0.015,-0.613 0.035,-1.745 -0.062,-0.155 -0.084,-0.016 -0.593,0.555 -0.713,0.75 -1.516,2.069 h -0.196 l -0.149,-0.394 0.101,-0.712 0.454,-0.77 1.262,-1.696 0.862,-0.901 0.526,-0.632 0.112,-0.452 0.059,-0.94 -0.138,-0.685 -0.077,-0.019 c -1.388,0.829 -1.935,1.961 -2.801,3.117 l -0.193,-0.022 -0.097,-0.244 0.045,-0.564 0.287,-0.65 1.12,-1.545 0.566,-0.604 0.388,-0.496 0.523,-0.368 0.327,-0.526 0.245,-1.192 -0.186,-0.548 -0.003,-0.01 v -0.643 l -0.124,-0.668 -0.036,-0.003 -1.595,1.609 -1.076,1.564 -0.298,0.608 -0.19,-0.017 -0.081,-0.334 0.119,-0.92 0.228,-0.403 1.129,-1.521 0.731,-1.049 0.694,-0.759 0.523,-0.93 0.054,-1.105 -0.02,-0.866 -0.081,-0.163 -0.118,-0.049 -0.31,0.185 -1.716,1.809 -0.724,1.094 -0.157,0.163 -0.195,-0.009 -0.087,-0.52 -0.002,-0.013 0.136,-0.505 0.387,-0.525 1.195,-1.766 1.435,-1.494 0.231,-0.615 -0.157,-0.953 -0.074,-0.078 -0.112,0.03 -0.621,0.577 -0.633,0.526 -1.262,1.676 -0.335,0.612 -0.15,-0.149 v -0.861 l 0.288,-0.65 1.756,-2.386 1.22,-1.112 0.116,-0.441 -0.03,-1.741 -0.138,-0.435 -0.123,-0.092 -0.147,0.012 -1.529,1.402 -0.875,1.179 -0.211,0.407 -0.175,0.154 -0.145,-0.146 -0.03,-0.573 -10e-4,-0.01 0.145,-0.482 0.721,-1.083 1.112,-1.251 1.308,-1.319 0.216,-0.91 -0.229,-1.771 -0.046,-0.209 -0.065,-0.065 -0.11,0.031 -0.989,1.08 -1.507,1.741 -0.284,0.358 -0.199,-0.008 -0.089,-0.533 0.131,-0.509 1.167,-1.522 0.403,-0.47 0.8,-1.262 0.659,-0.529 0.338,-0.516 -0.018,-0.402 -0.093,-0.822 -0.068,-0.152 -0.083,-0.023 -0.667,0.436 -0.405,0.474 -1.029,1.017 -0.607,0.872 -0.242,0.399 -0.19,0.019 -0.095,-0.537 0.07,-0.569 0.724,-1.084 0.754,-1.032 0.93,-0.832 0.853,-0.891 0.093,-0.458 -0.082,-1.771 -0.065,-0.071 -0.159,0.003 -0.379,0.209 -0.78,0.968 -1.07,1.568 -0.188,0.704 -0.142,0.136 -0.197,-0.098 -0.2,-0.481 0.025,-0.573 0.315,-0.616 0.686,-1.091 0.8,-0.967 0.662,-0.82 0.723,-0.743 0.128,-0.351 -0.091,-1.035 -0.063,-0.874 -0.069,-0.063 -0.141,0.015 -0.474,0.407 -0.805,0.957 -1.31,1.643 -0.266,0.367 -0.194,0.018 -0.074,-0.529 0.157,-0.504 0.783,-1.295 0.553,-0.621 0.923,-1.15 0.873,-0.873 0.12,-0.446 0.011,-0.888 -0.044,-0.557 -0.082,-0.171 -0.123,-0.054 -0.358,0.147 -0.729,0.734 -0.532,0.64 -1.246,1.757 -0.152,0.146 -0.133,-0.135 v -0.546 l 0.292,-0.654 0.546,-0.942 1.189,-1.474 1.181,-1.161 0.178,-0.381 0.11,-0.47 -0.127,-1 0.01,-0.593 -0.048,-0.133 -0.076,-0.013 -0.478,0.375 -1.297,1.356 -0.865,0.894 -0.275,0.353 -0.19,0.117 -0.15,-0.149 v -0.551 l 0.186,-0.451 1.038,-1.358 0.627,-0.549 1.337,-1.297 0.166,-0.39 -0.009,-3.464 -0.067,-0.067 -0.278,0.162 -0.803,0.974 -1.7,2.157 -0.194,0.103 -0.172,-0.077 -0.081,-0.206 0.129,-0.395 1.144,-1.547 0.484,-0.702 0.397,-0.474 0.34,-0.558 0.964,-1.136 0.164,-0.143 0.195,-0.04 0.157,0.151 0.219,1.911 -0.074,0.832 -0.083,1.962 0.029,4.97 0.128,0.762 0.001,0.01 -0.163,1.031 0.02,10.314 0.02,0.625 -0.035,14.707 -0.014,2.058 c 0.002,4.93 -0.076,10.108 0.02,15.028 v 5.031 l 0.007,0.027 0.073,-0.113 0.087,-0.817 c 0.937,-12.261 1.582,-24.405 2.215,-36.68 l -0.064,-1.602 -10e-4,-0.011 0.202,-0.62 0.035,-3.207 0.122,-0.752 0.006,-3.542 0.136,-0.736 0.054,-2.485 0.098,-1.193 0.007,-1.48 0.136,-0.737 0.015,-1.758 0.119,-0.246 0.227,-0.109 0.453,0.125 1.282,1.118 0.7,0.493 0.898,0.86 c 5.209,3.941 9.898,10.291 13.514,15.697 l 0.86,1.524 0.117,0.108 0.044,-0.001 0.016,-0.077 -0.605,-1.447 -0.391,-0.78 -0.339,-0.423 -0.174,-0.537 -0.778,-1.569 -0.531,-0.648 -0.437,-1.049 -0.776,-1.288 -1.205,-2.027 -0.506,-0.686 -0.402,-0.763 -0.893,-1.179 -0.331,-0.545 -2.276,-3.023 -1.364,-1.579 -0.845,-0.924 -0.572,-0.612 -0.53,-0.637 -1.674,-1.566 -1.092,-0.974 -0.447,-0.428 -1.655,-1.292 -0.372,-0.565 -0.05,-1.15 0.04,-2.341 0.063,-0.441 -0.073,-0.462 0.118,-2.206 -0.015,-2.939 -0.045,-0.661 0.06,-1.116 -0.005,-1.778 0.07,-0.277 0.172,-0.173 0.232,0.006 0.177,0.171 0.129,0.442 0.096,0.822 0.286,0.255 1.136,0.314 1.485,0.286 1.917,0.443 2.801,0.737 4.683,1.213 1.791,0.565 1.151,0.324 1.349,0.424 2.573,0.984 0.874,0.609 0.958,0.844 0.122,0.212 -0.034,0.207 -0.224,0.066 -0.458,-0.179 -2.144,-1.096 -2.404,-0.84 c -3.517,-1.452 -8.001,-2.579 -11.671,-3.658 l -0.559,-0.183 -0.425,0.029 -0.95,-0.252 -1.73,-0.353 -0.413,-0.061 -0.101,0.095 -0.191,0.99 0.086,0.467 0.341,0.198 2.628,0.608 1.35,0.411 c 1.792,0.256 3.479,0.87 5.061,1.136 l 1.297,0.412 1.593,0.532 c 2.616,0.876 5.06,1.975 7.61,3.002 l 1.527,1.168 0.133,0.208 0.021,0.262 -0.162,0.163 -0.225,-0.017 -1.417,-0.714 c -3.518,-1.809 -8.43,-3.422 -12.249,-4.535 l -1.413,-0.359 -1.995,-0.651 -1.162,-0.299 -0.835,-0.049 -0.651,-0.241 -1.017,-0.18 -0.209,0.026 -0.14,0.11 -0.134,0.426 -0.019,0.842 0.122,0.444 0.116,0.133 2.244,0.671 0.773,0.119 0.689,0.191 1.73,0.34 0.892,0.279 1.493,0.275 c 3.679,0.603 7.103,2.024 10.582,3.278 l 0.678,0.22 0.771,0.4 0.636,0.268 0.205,0.149 c 0.227,-0.241 0.474,-0.46 0.751,-0.647 0.204,-0.138 0.423,-0.261 0.682,-0.278 0.058,-0.004 0.119,-0.019 0.17,-0.045 0.246,-0.122 0.511,-0.095 0.771,-0.099 0.057,-10e-4 0.121,0.014 0.169,0.042 0.185,0.11 0.382,0.125 0.589,0.104 0.134,-0.014 0.258,0.02 0.373,0.093 0.072,0.046 0.152,0.076 0.225,0.12 0.117,0.069 0.24,0.134 0.344,0.221 0.414,0.344 0.793,0.721 1.081,1.182 0.144,0.227 0.292,0.45 0.434,0.678 0.089,0.144 0.146,0.313 0.258,0.435 0.293,0.32 0.351,0.739 0.515,1.112 0.01,0.023 0.007,0.052 0.009,0.078 0.009,0.215 0.017,0.43 0.031,0.645 0.003,0.05 0.015,0.108 0.043,0.148 0.101,0.139 0.121,0.3 0.143,0.463 0.013,0.094 0.029,0.2 0.079,0.279 0.101,0.159 0.118,0.326 0.117,0.506 0,0.129 0.007,0.265 0.048,0.386 0.052,0.152 0.058,0.292 0.001,0.439 -0.048,0.124 -0.056,0.25 -0.031,0.384 0.023,0.122 0.022,0.248 0.018,0.372 -0.007,0.261 -0.026,0.521 -0.035,0.782 -0.006,0.134 -0.03,0.256 -0.108,0.37 -0.047,0.068 -0.09,0.154 -0.093,0.233 -0.004,0.239 -0.094,0.441 -0.218,0.637 -0.129,0.204 -0.235,0.423 -0.366,0.625 -0.13,0.201 -0.333,0.328 -0.514,0.48 -0.234,0.199 -0.479,0.341 -0.79,0.4 -0.334,0.062 -0.656,0.187 -0.975,0.152 -0.266,0.034 -0.504,0.03 -0.728,-0.055 -0.195,-0.074 -0.384,-0.162 -0.597,-0.178 -0.031,-0.002 -0.062,-0.021 -0.09,-0.037 -0.246,-0.132 -0.476,-0.286 -0.697,-0.455 l -0.985,-0.484 C -35.296,9.886 -40.198,7.714 -46.56,7.057 l -0.051,0.05 0.386,0.665 0.855,0.895 0.598,0.251 2.045,0.327 0.859,0.306 2.262,0.395 2.177,0.482 2.238,0.714 5.51,2.165 0.553,0.328 1.92,1.026 0.422,0.522 0.108,0.491 -0.152,0.15 -0.201,-0.052 C -32.039,12.49 -38.005,10.885 -43.875,9.886 l -0.109,0.032 -0.025,0.1 0.18,0.367 1.272,1.665 0.315,0.257 0.673,0.192 2.359,0.585 0.745,0.142 2.838,0.698 0.965,0.224 1.074,0.396 1.993,0.665 0.834,0.343 1.274,0.496 0.837,0.346 1.616,0.736 0.297,0.362 0.082,0.273 -0.016,0.259 -0.035,0.034 c 0.08,0 0.16,0.002 0.241,-0.014 0.318,-0.062 0.637,-0.048 0.958,-0.017 0.071,0.008 0.145,0.026 0.214,0.014 0.345,-0.062 0.694,-0.007 1.039,-0.033 0.37,-0.028 0.737,-0.1 1.106,-0.154 0.031,-0.005 0.063,-0.018 0.092,-0.032 0.26,-0.125 0.535,-0.166 0.82,-0.166 0.095,0 0.195,-0.027 0.282,-0.066 0.128,-0.058 0.257,-0.096 0.398,-0.087 0.156,0.008 0.294,-0.037 0.43,-0.113 0.078,-0.045 0.167,-0.071 0.255,-0.094 0.263,-0.067 0.506,-0.198 0.774,-0.246 0.191,-0.175 0.456,-0.179 0.674,-0.297 0.327,-0.176 0.675,-0.311 1.002,-0.487 0.223,-0.12 0.434,-0.27 0.636,-0.423 0.375,-0.286 0.77,-0.545 1.096,-0.891 0.182,-0.197 0.389,-0.37 0.574,-0.564 0.243,-0.256 0.497,-0.506 0.708,-0.787 0.405,-0.539 0.774,-1.102 1.078,-1.705 0.206,-0.407 0.416,-0.813 0.616,-1.223 0.068,-0.139 0.112,-0.289 0.17,-0.434 0.137,-0.343 0.328,-0.668 0.37,-1.046 0.004,-0.044 0.032,-0.085 0.048,-0.127 0.035,-0.098 0.073,-0.195 0.107,-0.294 0.031,-0.093 0.043,-0.195 0.088,-0.28 0.093,-0.172 0.146,-0.348 0.134,-0.545 -0.002,-0.037 0.007,-0.079 0.022,-0.114 0.086,-0.205 0.163,-0.415 0.268,-0.61 0.075,-0.14 0.115,-0.276 0.106,-0.431 -0.012,-0.191 0.03,-0.375 0.079,-0.56 0.05,-0.189 0.072,-0.385 0.094,-0.58 0.016,-0.136 0.005,-0.275 0.017,-0.411 0.02,-0.202 0.019,-0.413 0.082,-0.601 0.09,-0.267 0.074,-0.527 0.052,-0.795 -0.011,-0.13 -0.014,-0.26 -0.011,-0.39 0.014,-0.51 0.044,-1.02 -0.083,-1.524 -0.036,-0.145 -0.044,-0.298 -0.048,-0.448 -0.006,-0.196 0.004,-0.393 0.008,-0.59 0.004,-0.159 -0.024,-0.31 -0.107,-0.451 -0.036,-0.061 -0.055,-0.133 -0.067,-0.203 -0.086,-0.443 -0.166,-0.887 -0.25,-1.33 -0.011,-0.057 -0.031,-0.115 -0.06,-0.166 -0.087,-0.153 -0.117,-0.317 -0.105,-0.491 0.006,-0.094 -0.03,-0.173 -0.067,-0.26 -0.116,-0.268 -0.21,-0.546 -0.313,-0.819 -0.002,-0.006 0,-0.013 -0.002,-0.019 -0.083,-0.259 -0.166,-0.518 -0.25,-0.778 -0.004,-0.011 -0.012,-0.022 -0.018,-0.034 -0.11,-0.235 -0.225,-0.47 -0.328,-0.709 -0.09,-0.209 -0.164,-0.424 -0.25,-0.635 -0.056,-0.139 -0.106,-0.283 -0.183,-0.409 -0.141,-0.235 -0.299,-0.459 -0.45,-0.688 -0.026,-0.038 -0.061,-0.071 -0.078,-0.113 -0.125,-0.312 -0.307,-0.59 -0.494,-0.867 -0.151,-0.221 -0.305,-0.442 -0.433,-0.676 -0.11,-0.203 -0.256,-0.36 -0.44,-0.492 -0.073,-0.052 -0.14,-0.118 -0.193,-0.191 -0.406,-0.547 -0.797,-1.103 -1.256,-1.609 -0.097,-0.106 -0.182,-0.224 -0.261,-0.343 -0.169,-0.254 -0.13,-0.697 0.072,-0.918 0.09,-0.099 0.18,-0.114 0.297,-0.044 0.084,0.052 0.161,0.115 0.247,0.161 0.187,0.1 0.345,0.235 0.481,0.397 0.101,0.12 0.202,0.242 0.308,0.358 0.225,0.245 0.424,0.517 0.718,0.691 0.038,0.023 0.068,0.061 0.097,0.096 0.264,0.309 0.529,0.617 0.787,0.929 0.118,0.141 0.224,0.291 0.333,0.438 0.144,0.194 0.293,0.384 0.426,0.585 0.142,0.22 0.277,0.444 0.398,0.675 0.122,0.237 0.273,0.463 0.293,0.743 0.005,0.073 0.049,0.147 0.086,0.214 0.191,0.336 0.38,0.671 0.497,1.041 0.029,0.094 0.092,0.124 0.178,0.114 0.124,-0.015 0.246,-0.049 0.369,-0.055 0.148,-0.008 0.299,-0.005 0.447,0.009 0.194,0.018 0.388,0.052 0.583,0.076 0.064,0.008 0.148,0.017 0.168,-0.06 0.014,-0.055 -0.003,-0.132 -0.033,-0.182 -0.127,-0.214 -0.266,-0.42 -0.396,-0.632 -0.102,-0.166 -0.201,-0.335 -0.296,-0.506 -0.067,-0.123 -0.038,-0.208 0.087,-0.275 0.116,-0.062 0.244,-0.081 0.359,-0.019 0.131,0.071 0.261,0.152 0.367,0.254 0.422,0.403 0.827,0.822 1.25,1.221 0.19,0.179 0.408,0.327 0.612,0.488 0.17,0.134 0.333,0.276 0.508,0.4 0.428,0.302 0.795,0.683 1.258,0.935 0.314,0.171 0.583,0.41 0.927,0.542 0.307,0.117 0.579,0.327 0.893,0.441 0.278,0.102 0.513,0.318 0.831,0.315 0.229,0.149 0.5,0.184 0.745,0.284 0.116,0.048 0.225,0.095 0.351,0.108 0.084,0.008 0.174,0.022 0.243,0.062 0.159,0.093 0.328,0.122 0.504,0.145 0.128,0.017 0.249,0.071 0.374,0.103 0.1,0.026 0.2,0.057 0.302,0.066 0.221,0.018 0.449,-0.003 0.665,0.04 0.305,0.062 0.598,0.029 0.896,-0.022 0.103,-0.017 0.179,-0.064 0.25,-0.14 0.098,-0.105 0.206,-0.2 0.311,-0.298 C 0.163,-1.781 0.33,-1.96 0.385,-2.219 0.4,-2.287 0.446,-2.348 0.471,-2.415 0.505,-2.512 0.558,-2.611 0.559,-2.709 0.561,-3.158 0.613,-3.615 0.423,-4.045 0.417,-4.057 0.413,-4.071 0.413,-4.083 0.42,-4.436 0.325,-4.765 0.203,-5.093 0.146,-5.243 0.134,-5.409 0.038,-5.55 0.005,-5.599 0.001,-5.674 -0.001,-5.737 c -0.005,-0.152 -0.07,-0.27 -0.156,-0.393 -0.153,-0.217 -0.312,-0.44 -0.418,-0.682 -0.173,-0.395 -0.362,-0.781 -0.587,-1.15 -0.176,-0.289 -0.354,-0.58 -0.523,-0.875 -0.067,-0.117 -0.098,-0.256 -0.171,-0.369 -0.167,-0.257 -0.325,-0.521 -0.547,-0.74 -0.174,-0.174 -0.295,-0.383 -0.38,-0.613 -0.032,-0.086 -0.065,-0.172 -0.102,-0.255 -0.124,-0.284 0.062,-0.638 0.366,-0.691 0.037,-0.007 0.081,-0.009 0.116,0.004 0.227,0.082 0.457,0.157 0.614,0.365 0.22,0.292 0.451,0.576 0.677,0.864 0.082,0.102 0.157,0.21 0.249,0.302 0.266,0.264 0.516,0.534 0.69,0.874 0.11,0.216 0.235,0.425 0.361,0.634 l 1.029,-1.127 0.496,-0.693 0.206,-0.147 0.277,-0.052 0.228,0.085 0.054,0.215 -0.447,0.509 -1.168,1.179 -0.402,0.5 c 0.028,0.052 0.058,0.103 0.083,0.157 0.111,0.236 0.21,0.478 0.329,0.71 0.062,0.121 0.1,0.241 0.091,0.375 -0.009,0.121 0.011,0.23 0.088,0.332 0.045,0.06 0.08,0.141 0.084,0.216 0.018,0.303 0.265,0.542 0.235,0.856 0,0.011 0.008,0.025 0.015,0.036 0.165,0.224 0.17,0.489 0.192,0.75 0.005,0.077 0.015,0.162 0.052,0.226 0.105,0.177 0.128,0.368 0.126,0.567 -0.002,0.163 0,0.327 0,0.491 H 1.755 c 0,0.118 0.009,0.237 -10e-4,0.354 -0.024,0.273 -0.015,0.559 -0.098,0.814 -0.093,0.288 -0.084,0.617 -0.304,0.86 -0.004,0.004 -0.003,0.013 -0.006,0.018 -0.009,0.022 -0.017,0.044 -0.026,0.065 l 0.635,-0.635 c 1.752,-1.76 3.267,-3.863 5.273,-5.382 h 0.226 l 0.253,0.371 0.13,0.809 c 0.391,6.83 1.097,13.759 1.497,20.595 l 0.123,0.769 0.053,1.121 0.178,1.595 c 0.069,2.889 0.462,5.743 0.515,8.628 l 0.129,1.329 0.033,0.852 0.123,0.772 0.005,1.164 0.29,2.075 0.024,0.852 0.123,0.771 v 1.168 l 0.218,0.63 0.004,0.012 -0.079,0.694 0.152,1.031 0.014,0.641 0.055,-0.618 0.039,-0.664 V 36.95 l -0.058,-0.467 -0.002,-0.009 0.124,-0.766 0.035,-2.051 0.062,-0.437 -0.085,-0.463 -0.003,-0.01 0.113,-0.729 -0.136,-1.017 -10e-4,-0.008 0.162,-1.03 -0.037,-1.439 -0.09,-0.477 c 0.005,-4.439 0.224,-8.951 -0.122,-13.391 L 11.293,14.648 11.347,14.216 11.239,13.458 11.231,9.344 11.138,8.877 11.136,8.867 11.25,8.149 11.088,6.225 11.225,5.201 11.092,4.176 11.058,1.253 11.025,0.817 11.082,0.354 10.945,-0.688 10.921,-4.78 l -0.123,-0.77 0.004,-4.131 0.141,-0.469 0.006,-0.022 0.221,-0.139 0.548,-0.01 h 0.014 l 0.43,0.197 0.488,0.414 0.505,0.386 0.608,0.569 0.636,0.538 1.159,0.903 0.859,0.643 0.142,0.167 0.09,0.239 -0.029,0.247 -0.156,0.156 -0.199,-0.038 c -1.261,-1.059 -2.99,-2.794 -4.382,-3.528 l -0.109,0.049 -0.052,0.322 0.046,0.564 1.245,1.385 0.549,0.628 0.703,0.771 1.107,1.256 0.912,1.177 0.192,0.432 0.011,0.256 -0.153,0.151 -0.328,-0.28 -1.446,-1.532 -0.942,-1.117 -0.714,-0.764 -0.786,-0.979 -0.284,-0.224 -0.076,0.026 -0.076,0.15 0.014,0.836 0.04,0.434 -0.029,0.645 0.172,0.444 2.01,2.122 0.516,0.653 1.17,1.202 0.752,1.031 0.295,0.623 0.006,0.496 -0.19,-0.041 c -1.23,-1.906 -2.882,-3.056 -4.258,-4.632 l -0.308,-0.153 -0.083,0.042 -0.126,0.412 0.048,0.815 0.248,0.61 1.189,1.453 1.272,1.676 0.502,0.668 0.705,0.773 0.801,0.988 0.087,0.271 -0.012,0.255 -0.136,0.14 -0.178,-0.097 C 14.936,2.952 13.45,1.159 12.033,-0.248 l -0.12,-0.036 -0.079,0.079 -0.004,1.377 0.208,0.351 0.877,0.898 0.535,0.642 0.705,0.774 2.101,2.626 0.222,0.393 0.024,0.561 L 16.335,7.583 15.996,7.302 14.983,5.941 13.876,4.696 12.392,3.22 12.133,2.876 12.034,2.838 11.977,2.894 v 2.269 l 0.215,0.337 0.968,1.096 0.95,1.107 1.309,1.348 0.688,0.796 0.108,0.242 0.026,0.287 -0.077,0.229 -0.192,0.008 C 14.78,9.35 13.661,8.248 12.388,7.063 l -0.299,-0.097 -0.039,0.041 0.115,0.9 z" fill="#181716" transform="matrix(1.33333 0 0 -1.33333 74.102 147.362)"/><path style="mix-blend-mode:multiply" d="m 0,0 c 0.018,0.005 0.04,0.002 0.059,0.002 0.129,-0.007 0.243,0.03 0.353,0.097 0.667,0.407 1.227,0.932 1.706,1.545 0.04,0.05 0.064,0.114 0.088,0.174 0.131,0.32 0.214,0.659 0.386,0.962 0.019,0.033 0.029,0.073 0.039,0.111 0.067,0.258 0.21,0.494 0.219,0.769 10e-4,0.03 0.027,0.059 0.036,0.09 0.032,0.113 0.066,0.225 0.09,0.339 0.036,0.165 0.041,0.342 0.101,0.498 0.077,0.201 0.11,0.402 0.114,0.613 0.004,0.183 0.004,0.366 0.004,0.55 0,0.412 0,0.824 -10e-4,1.237 C 3.193,7.172 3.175,7.348 3.06,7.51 3.009,7.583 3.005,7.693 2.994,7.788 2.986,7.845 3.003,7.905 3.011,7.975 3.005,8.023 3.008,8.084 2.99,8.14 2.943,8.288 2.861,8.429 2.84,8.58 2.798,8.872 2.635,9.102 2.49,9.34 2.405,9.478 2.292,9.598 2.19,9.726 1.999,9.962 1.713,10.064 1.472,10.23 1.267,10.37 1.041,10.44 0.791,10.45 0.642,10.454 0.492,10.486 0.346,10.518 0.188,10.554 0.035,10.549 -0.119,10.507 -0.233,10.476 -0.347,10.431 -0.463,10.427 -0.76,10.419 -1.006,10.268 -1.241,10.126 -1.731,9.829 -2.073,9.358 -2.496,8.98 -2.524,8.954 -2.546,8.919 -2.566,8.885 -2.628,8.777 -2.686,8.668 -2.751,8.561 -3.059,8.059 -3.334,7.542 -3.492,6.969 -3.502,6.932 -3.522,6.897 -3.54,6.862 -3.633,6.681 -3.731,6.504 -3.817,6.32 -3.849,6.252 -3.859,6.171 -3.87,6.094 -3.907,5.862 -3.927,5.627 -3.975,5.398 -4.033,5.121 -4.086,4.846 -4.08,4.562 -4.075,4.241 -4.054,3.918 -4.085,3.6 -4.129,3.134 -3.95,2.714 -3.858,2.277 -3.852,2.252 -3.836,2.229 -3.823,2.207 -3.677,1.959 -3.541,1.704 -3.381,1.465 -3.074,1.006 -2.668,0.648 -2.186,0.38 -1.998,0.275 -1.792,0.206 -1.601,0.105 -1.481,0.042 -1.361,0.001 -1.227,0.006 -0.818,0.021 -0.41,-0.109 0,0" fill="#181716" transform="matrix(1.33333 0 0 -1.33333 50.676 149.462)"/><path style="mix-blend-mode:multiply" d="M 0,0 C -0.006,0.069 -0.033,0.137 -0.058,0.203 -0.108,0.338 -0.166,0.469 -0.212,0.605 -0.3,0.863 -0.475,1.06 -0.692,1.205 -0.813,1.286 -0.972,1.31 -1.116,1.351 -1.156,1.363 -1.211,1.358 -1.25,1.341 -1.472,1.238 -1.742,1.246 -1.924,1.052 -2.427,0.79 -2.664,0.313 -2.897,-0.165 -3.059,-0.494 -3.163,-0.838 -3.188,-1.208 -3.203,-1.449 -3.255,-1.687 -3.3,-1.924 c -0.071,-0.37 0.117,-0.654 0.301,-0.941 0.109,-0.168 0.297,-0.231 0.46,-0.323 0.077,-0.043 0.169,-0.068 0.258,-0.079 0.116,-0.014 0.235,-0.011 0.352,-0.004 0.07,0.005 0.149,0.014 0.206,0.05 0.368,0.234 0.754,0.448 0.983,0.845 0.026,0.044 0.065,0.082 0.1,0.121 0.137,0.15 0.277,0.299 0.289,0.52 0.001,0.024 0.013,0.051 0.027,0.072 0.175,0.262 0.146,0.596 0.311,0.861 0.026,0.04 0.018,0.102 0.019,0.155 0.003,0.098 0.001,0.196 0.001,0.294 H 0.002 C 0.002,-0.235 0.009,-0.117 0,0" fill="#181716" transform="matrix(1.33333 0 0 -1.33333 42.348 152.675)"/></g><path style="mix-blend-mode:multiply" d="M 0,0 H 67.294 V 116.026 H 0 Z" fill="none" stroke="#181716" stroke-width="1.605" stroke-miterlimit="10" transform="matrix(1.33333 0 0 -1.33333 1.07 155.771)"/></svg>