<svg xmlns="http://www.w3.org/2000/svg" width="91.865" height="156.841"><path style="mix-blend-mode:multiply" d="m 206.791,157.249 h 67.294 v 116.025 h -67.294 z" fill="#fff" transform="matrix(1.33333 0 0 -1.33333 -274.65 365.436)"/><g style="mix-blend-mode:multiply"><g style="mix-blend-mode:multiply"><path style="mix-blend-mode:multiply" d="m 0,0 -1.15,-0.005 -1.41,-0.372 -1.547,-0.811 -0.653,-0.526 -0.845,-0.924 -0.593,-1.173 -0.408,-1.656 -0.035,-1.154 0.241,-1.527 0.741,-1.91 1.115,-1.539 0.329,-0.26 0.492,-0.098 0.898,-0.28 1.199,-0.274 2.009,0.053 2.353,0.595 0.943,0.53 0.711,0.467 1.125,0.938 0.374,0.51 0.639,1.424 0.215,0.963 0.03,1.116 v 0.037 l -0.32,1.445 -0.471,1.297 -0.595,0.879 -0.859,0.909 -1.493,0.864 -1.891,0.468 z" fill="#fc0" transform="matrix(1.33333 0 0 -1.33333 18.847 110.386)"/></g><g style="mix-blend-mode:multiply"><path style="mix-blend-mode:multiply" d="m 0,0 -1.626,-0.437 -1.08,-0.393 -1.499,-1.154 -0.51,-0.667 -0.118,-0.477 0.03,-0.87 0.092,-0.201 0.378,-0.211 1.145,-0.329 0.511,-0.079 1.725,-1.223 0.692,-0.781 0.265,-0.333 0.461,-0.109 1.838,0.54 0.697,0.193 0.721,0.092 1.273,-0.137 1.557,-0.516 0.506,0.024 0.619,0.276 0.122,0.182 0.025,0.495 L 7.608,-4.258 7.127,-3.265 6.9,-2.608 6.12,-1.62 5.344,-0.923 4.401,-0.392 1.469,0.186 Z" fill="#fc0" transform="matrix(1.33333 0 0 -1.33333 19.181 86.346)"/></g><g style="mix-blend-mode:multiply"><path style="mix-blend-mode:multiply" d="m 0,0 c -0.882,0.098 -1.228,-0.409 -1.364,-1.296 -0.136,-0.887 0.205,-1.842 0.205,-1.842 0,0 1.091,-1.569 1.432,-1.637 0.341,-0.069 1.637,-0.478 2.046,-0.546 0.41,-0.068 1.706,-0.273 1.979,-0.273 0.273,0 1.637,-0.273 2.115,-0.136 0.477,0.136 1.432,0.136 1.705,0.273 0.273,0.136 3.07,0.409 3.07,0.409 l 2.046,0.477 c 0,0 1.979,-0.477 2.184,-0.477 0.205,0 1.705,-0.205 2.183,-0.137 0.477,0.069 0.954,-0.204 1.432,-0.068 0.477,0.137 1.023,0.341 1.501,0.614 0.478,0.273 0.887,0.409 1.024,0.887 0.136,0.477 0.272,0.819 0.272,1.296 0,0.478 0.137,0.478 -0.272,0.888 -0.41,0.409 -0.614,1.09 -0.956,1.09 -0.341,0 -0.819,0.069 -1.297,0 -0.477,-0.067 -0.613,-0.067 -1.09,-0.136 -0.478,-0.068 -0.751,-0.136 -1.433,-0.204 -0.682,-0.069 -0.75,-0.069 -1.433,-0.137 -0.682,-0.068 -1.16,-0.204 -1.433,-0.204 -0.272,0 -1.091,-0.205 -1.091,-0.205 -0.614,-0.068 -2.183,-0.068 -2.353,-0.068 -0.17,0 -0.682,-0.136 -0.819,-0.136 -0.136,0 -0.614,-0.069 -0.716,-0.103 -0.103,-0.034 -1.058,0.034 -1.263,0 C 7.47,-1.705 6.446,-1.807 6.276,-1.773 6.106,-1.739 5.39,-1.671 5.185,-1.637 4.98,-1.603 4.468,-1.603 4.162,-1.432 3.855,-1.262 3.206,-1.159 3.104,-1.125 3.002,-1.091 2.49,-0.989 2.217,-0.887 1.944,-0.784 1.637,-0.682 1.535,-0.443 1.433,-0.204 0.648,-0.068 0.648,-0.068 0.648,-0.068 0.307,-0.034 0,0" fill="#fc0" fill-rule="evenodd" transform="matrix(1.33333 0 0 -1.33333 47.42 145.518)"/></g><g style="mix-blend-mode:multiply"><path style="mix-blend-mode:multiply" d="m 0,0 -0.486,-0.078 -0.834,-0.06 -0.756,-0.128 -1.573,-0.784 -0.654,-0.526 -0.637,-0.541 -0.231,-0.357 -0.364,-0.522 -0.453,-1.022 -0.22,-0.663 -0.24,-0.643 -0.295,-0.889 -0.02,-0.849 0.143,-0.448 0.363,-1.405 0.304,-0.284 0.374,-0.511 1.601,-1.347 1.199,-0.274 1.021,-0.167 0.826,0.069 1.065,0.112 0.634,0.251 1.748,0.904 0.629,0.55 0.658,0.814 0.766,1.297 0.275,1.2 -0.107,0.716 -0.005,0.88 -0.119,0.766 -0.476,1.291 -0.623,1.145 -0.806,0.668 -0.727,0.452 -0.776,0.108 z" fill="#e30015" transform="matrix(1.33333 0 0 -1.33333 84.23 82.278)"/></g><g style="mix-blend-mode:multiply"><path style="mix-blend-mode:multiply" d="m 0,0 -0.398,-0.118 -0.771,-0.123 -2.235,-0.712 -0.948,-0.82 -0.481,-0.403 -0.472,-1.002 -0.672,-1.915 0.069,-0.712 -0.117,-0.722 v -0.007 l 0.436,-1.015 0.205,-0.679 0.291,-0.593 1.057,-1.006 0.691,-0.488 0.687,-0.21 0.518,0.057 1.237,-0.062 0.751,0.146 0.962,-0.068 0.173,0.089 0.859,0.333 1.498,0.859 0.653,0.821 0.53,0.649 0.296,0.589 0.172,1.006 0.118,0.767 0.024,1.438 -0.432,1.337 -0.923,1.434 -0.634,0.545 -0.619,0.266 -1.278,0.196 z" fill="#e30015" transform="matrix(1.33333 0 0 -1.33333 65.016 73.934)"/></g><g style="mix-blend-mode:multiply"><path style="mix-blend-mode:multiply" d="m 0,0 -1.199,-0.157 -0.894,-0.286 -0.683,-0.2 -1.315,-0.747 -0.246,-0.344 -0.304,-0.579 -0.439,-0.742 -0.578,-1.189 -0.187,-0.991 -0.177,-0.722 0.063,-0.527 0.33,-0.855 0.206,-0.676 0.796,-1.268 1.351,-1.007 0.334,-0.255 1.424,-0.324 1.69,0.196 0.539,0.058 1.031,0.443 0.905,0.57 0.683,0.79 0.726,1.041 0.743,1.617 0.098,0.491 -0.025,2.637 -0.231,0.359 -0.516,0.664 -0.638,0.834 -1.209,0.855 -0.481,0.108 z" fill="#e30015" transform="matrix(1.33333 0 0 -1.33333 83.813 60.974)"/></g><g style="mix-blend-mode:multiply"><path style="mix-blend-mode:multiply" d="m 0,0 -1.159,-0.03 -1.031,-0.442 -1.227,-0.835 -0.507,-0.966 -0.271,-0.615 -0.201,-0.388 -0.18,-1.586 0.053,-1.43 0.629,-1.139 0.264,-0.619 0.423,-0.756 0.492,-0.394 0.244,-0.353 0.34,-0.138 1.031,0.058 1.248,-0.244 1.214,-0.04 1.266,0.193 1.165,0.618 0.687,0.785 0.727,1.042 0.304,1.169 0.089,0.788 v 0.13 L 5.59,-3.84 5.202,-2.461 4.529,-1.365 4.068,-0.942 3.262,-0.57 1.317,-0.157 Z" fill="#e30015" transform="matrix(1.33333 0 0 -1.33333 21.38 49.65)"/></g><g style="mix-blend-mode:multiply"><path style="mix-blend-mode:multiply" d="m 0,0 -1.263,-0.206 -0.997,-0.476 -0.657,-0.521 -1.002,-1.061 -0.992,-1.66 -0.256,-1.528 0.216,-1.567 0.452,-1.022 1.17,-1.483 0.888,-0.584 1.995,-0.953 0.736,-0.148 1.134,0.064 1.351,0.418 0.885,0.589 0.653,0.526 0.952,1.7 0.433,1.336 0.064,0.835 L 5.521,-4.209 5.167,-2.795 4.691,-2.092 4.303,-1.301 4.047,-0.967 2.898,-0.348 1.469,-0.01 0.127,0 Z" fill="#e30015" transform="matrix(1.33333 0 0 -1.33333 6.043 34.333)"/></g><g style="mix-blend-mode:multiply"><path style="mix-blend-mode:multiply" d="m 0,0 c -0.102,-0.358 -0.921,-0.716 -1.534,-1.177 -0.614,-0.46 -2.303,-0.767 -2.662,-0.972 -0.357,-0.204 -1.637,0.41 -1.893,0.512 -0.255,0.102 -0.971,0.562 -1.38,1.074 -0.41,0.512 -0.308,0.665 -0.615,1.228 -0.307,0.563 -0.256,0.665 -0.256,1.126 0,0.46 -0.153,1.279 -0.051,1.535 0.103,0.256 0.254,0.62 0.767,0.767 0.359,0.103 1.075,0.103 1.28,0.051 C -6.14,4.093 -4.707,3.939 -4.246,3.786 -3.787,3.632 -1.586,2.712 -0.921,2.507 -0.256,2.302 0.614,1.739 0.563,1.484 0.511,1.228 0.102,0.358 0,0 m -15.657,3.684 c -0.161,-0.068 -0.275,-0.095 -0.364,-0.113 l -0.023,0.064 -0.471,1.001 -0.673,0.801 -0.752,0.428 -1.198,0.274 -1.582,0.069 -0.373,0.054 -0.078,0.187 0.044,0.231 0.594,0.914 0.305,0.289 0.24,0.06 1.013,-0.119 0.637,0.246 0.497,-0.029 0.186,-0.124 0.109,-0.186 0.092,-0.496 0.757,-1.601 0.496,-0.388 0.241,-0.35 0.29,-0.298 1.251,-0.594 c -0.632,-0.069 -0.708,-0.1 -1.238,-0.32 m -9.621,9.666 -1.139,-0.314 -1.184,-0.291 -0.992,-0.481 -0.187,0.01 -0.461,0.413 -0.408,0.476 -0.924,0.845 -1.05,0.437 -0.114,0.137 0.025,0.178 0.348,0.275 0.58,0.303 0.383,0.208 1.027,0.153 0.417,0.17 1.149,0.02 0.673,-0.211 0.59,-0.294 0.712,-0.762 0.422,-0.462 0.197,-0.663 z m -0.285,-20.752 -0.176,-0.722 -0.162,-0.722 -0.467,-0.713 -0.781,-0.693 -0.56,-0.323 -0.315,-0.275 -0.957,-0.222 -2.667,-0.014 -0.482,0.108 -0.87,0.604 -0.849,0.919 -0.525,0.948 -0.349,0.829 v 1.464 l 0.236,0.649 0.452,0.727 0.599,0.579 0.496,0.389 0.732,0.446 1.63,0.434 0.339,0.072 h 0.861 l 0.421,-0.167 1.066,-0.118 1.164,-0.899 0.944,-1.683 0.019,-0.596 0.255,-0.614 z M 28.142,-0.217 27.675,0.201 27.532,0.648 27.405,0.815 26.369,1.547 25.544,1.901 24.6,2.137 23.477,2.191 22.346,2.127 H 21.713 L 20.086,1.454 18.77,0.412 18.231,-0.226 17.744,-1.213 17.317,-3.144 17.277,-4.003 17.415,-5.05 18.231,-7.186 18.412,-7.824 18.3,-7.952 17.827,-8.076 17.39,-8.05 15.843,-8.154 15.052,-8.542 14.453,-9.121 14.075,-9.922 12.901,-11.4 l -1.37,-0.393 -0.683,-0.216 -0.486,-0.109 -0.241,0.065 -0.163,0.156 -0.043,0.231 0.05,0.231 0.121,0.188 0.33,0.269 0.869,0.9 0.526,0.652 0.623,1.145 0.276,1.493 0.009,0.874 -0.294,1.769 -0.163,0.721 -0.52,1.248 -0.909,1.154 L 9.727,-0.359 8.421,0.103 7.163,0.427 6.89,0.836 C 6.752,0.947 6.449,1.03 6.276,1.245 6.003,1.586 5.424,1.944 5.219,2.2 5.014,2.456 5.065,2.046 4.401,2.865 3.735,3.684 3.632,3.377 3.275,3.939 2.917,4.502 2.558,4.246 2.2,4.86 1.842,5.474 1.637,6.6 1.534,7.214 1.433,7.828 1.484,7.93 1.33,8.34 1.177,8.749 0.716,9.465 0,9.874 c -0.716,0.41 -0.461,0.461 -1.791,0.666 -0.414,0.063 -0.723,0.09 -0.983,0.1 l -0.033,0.043 -0.589,0.295 -1.597,0.466 -2.598,0.004 -0.623,-0.224 -0.188,0.058 -0.146,0.147 -0.064,0.193 0.043,0.201 0.138,0.156 0.624,0.276 1.213,0.554 0.531,0.649 0.27,0.909 0.546,2.121 -0.242,1.533 -0.55,1.218 -0.363,0.521 -0.752,0.427 -1.335,0.442 -1.007,0.034 -1.793,-0.211 -0.658,-0.225 -1.277,-0.152 -0.389,0.127 -1.045,0.732 -0.6,0.284 -0.987,0.488 -0.771,0.111 -1.302,0.467 -0.147,0.147 -0.059,0.237 v 1.188 l 0.098,1.031 -0.506,1.499 -0.392,1.08 -0.423,0.462 -0.192,0.692 -0.235,0.354 -1.062,0.707 -1.11,0.364 -1.768,0.299 -1.399,-0.113 -1.97,-0.364 -1.454,-0.608 -1.317,-0.747 -1.193,-1.163 -0.692,-0.781 -0.919,-1.735 -0.492,-0.687 -0.358,-0.231 -0.992,-0.167 -0.447,0.063 -0.698,-0.073 -0.441,0.127 -0.103,0.139 0.132,0.378 0.108,0.5 0.137,1.041 v 1.16 l -0.53,2.416 -1.006,1.646 -0.845,0.629 -1.056,0.422 -0.526,0.064 -1.302,-0.186 -2.028,-0.625 -0.693,-0.486 -0.983,-1.081 -0.19,-0.398 -0.364,-0.815 -0.285,-0.893 -0.054,-0.831 -0.138,-0.746 -0.004,-1.164 0.451,-1.317 0.486,-0.692 0.865,-0.903 1.434,-0.925 0.659,-0.201 0.982,0.069 0.462,-0.069 0.004,-0.118 -0.108,-0.171 -1.016,-1.965 -0.398,-1.669 0.265,-1.508 0.639,-1.72 0.516,-0.958 0.309,-0.574 1.075,-1.283 0.55,-0.628 0.531,-0.354 0.511,-0.373 0.28,-0.604 0.423,-0.757 0.908,-1.154 0.54,-0.639 0.334,-0.265 0.285,-0.285 0.005,-0.191 -0.683,-1.38 -0.407,-0.477 -0.285,-0.6 -0.314,-0.569 -0.374,-1.1 -0.54,-1.228 -0.364,-0.226 -1.837,-0.226 -1.218,-0.255 -1.292,-0.477 -0.839,-0.338 -1.41,-0.949 -0.997,-1.065 -0.629,-1.14 -0.393,-1.08 v -0.885 l -0.093,-0.79 -0.064,-0.825 0.353,-1.715 0.556,-1.213 0.417,-0.761 0.85,-0.919 1.783,-1.168 0.265,-0.326 0.024,-0.205 -0.319,-1.154 -0.098,-1.081 0.059,-0.836 0.634,-2.017 0.55,-0.924 0.638,-0.541 0.53,-0.353 0.683,-0.496 0.988,-0.486 0.953,-0.206 1.297,0.117 2.519,0.722 1.474,0.884 1.507,1.44 0.668,0.82 0.344,0.171 0.167,-0.034 1.759,-0.888 1.021,-0.158 0.717,-0.172 0.826,0.064 1.331,0.142 0.398,0.192 0.893,0.285 0.825,0.354 0.85,0.623 0.535,0.644 0.492,0.393 0.52,0.657 0.433,0.453 0.329,0.85 0.761,1.597 0.207,0.971 0.172,0.417 0.362,0.227 0.914,0.265 0.54,0.368 0.227,0.054 0.221,-0.049 c 0.042,0.038 0.07,0.062 0.101,0.088 0.166,-0.159 0.287,-0.343 0.287,-0.728 0,-0.614 0.665,-1.689 1.023,-2.148 0.358,-0.461 0.614,-0.768 0.716,-0.614 0.102,0.153 0.358,0.102 0.716,0.716 0.359,0.614 0.87,1.074 0.973,1.381 0.102,0.307 1.023,0.665 0,0.87 -1.023,0.204 -1.382,0.051 -1.689,0.614 -0.307,0.563 -0.255,0.767 -0.767,1.074 -0.205,0.123 -0.345,0.229 -0.468,0.313 -0.04,0.323 -0.39,0.526 -0.197,0.864 0.205,0.358 1.125,0.665 1.279,0.767 0.153,0.103 0.41,0.256 0.819,0.307 0.409,0.052 0.664,-0.307 0.971,-0.409 0.307,-0.103 1.688,-0.307 2.047,-0.409 0.358,-0.103 1.791,-0.051 2.098,-0.153 0.307,-0.103 1.279,0.153 1.79,0.102 0.512,-0.052 1.893,0.665 2.2,0.665 0.307,0 0.921,-0.205 0.921,-0.205 0,0 0.41,-0.614 0.563,-1.279 0.154,-0.665 0.257,-1.279 0.052,-1.995 -0.205,-0.717 -0.512,-1.689 -0.768,-1.791 -0.256,-0.102 -1.125,-0.409 -1.228,-0.614 -0.102,-0.204 -0.716,-0.511 -1.075,-0.768 -0.358,-0.255 -1.074,0 -1.381,0.052 -0.307,0.051 -1.279,-0.41 -1.279,-0.41 0,0 -1.074,-0.46 -1.381,-0.921 -0.198,-0.296 -0.422,-0.618 -0.689,-0.97 l 0.182,-0.102 c -0.354,-0.714 -0.159,-0.463 -0.107,-0.872 0.051,-0.409 0.102,-0.256 0.409,-0.768 0.307,-0.511 0,0 0.972,-0.307 0.038,-0.011 0.085,-0.026 0.139,-0.043 0.066,-0.098 0.139,-0.205 0.271,-0.314 0.307,-0.257 0.511,0.153 1.637,0.869 0.251,0.16 0.869,-0.307 1.074,-0.409 0.205,-0.103 1.126,-0.103 1.586,-0.103 0.461,0 1.893,0.307 2.098,0.256 0.204,-0.051 0.46,-0.767 0.46,-0.767 0,0 0.87,-0.512 0.819,-0.819 -0.051,-0.307 -0.614,-0.921 -0.768,-1.125 -0.102,-0.563 -0.307,-0.614 -0.307,-1.126 0,-0.511 0.512,-0.256 1.075,-0.358 0.563,-0.102 1.944,-0.051 2.609,-0.102 0.665,-0.051 2.61,-0.103 3.429,-0.103 0.7,0 0.88,0.039 1.494,0.178 0.271,0.037 0.534,0.066 0.756,0.079 0.973,0.05 0.87,0.204 1.178,0.306 0.306,0.103 0.613,0.563 0.767,0.665 0.153,0.102 0,0.768 0.358,1.228 0.359,0.46 0.87,0.154 1.382,0.205 0.511,0.051 1.33,0.512 1.995,0.665 0.665,0.154 0.665,0.511 1.074,0.716 0.41,0.205 0.921,0.461 1.074,0.256 0.155,-0.204 -0.306,-0.665 -0.767,-1.534 -0.46,-0.871 -0.614,-0.512 -1.279,-1.536 -0.665,-1.023 -0.563,-0.614 -1.177,-1.074 -0.49,-0.368 -0.589,-0.578 -0.714,-1.063 l 0.04,-0.008 0.056,-0.089 0.287,-0.451 0.958,-0.811 1.488,-0.869 0.884,-0.295 0.835,-0.054 0.78,-0.079 0.424,0.034 1.301,0.481 1.07,0.698 0.782,0.988 0.378,0.801 0.241,1.242 -0.036,0.844 -0.352,1.646 -0.32,0.565 -0.138,0.452 -0.195,0.688 -0.383,0.506 -0.285,0.304 0.02,0.186 0.136,0.163 1.022,0.766 0.771,1.587 0.349,2.008 0.025,0.846 -0.512,1.806 0.109,0.109 0.781,-0.04 2.215,0.26 0.339,0.252 0.427,0.161 0.934,0.541 1.546,1.694 0.359,0.821 0.407,1.654 0.012,3.488 z" fill="#e30015" fill-rule="evenodd" transform="matrix(1.33333 0 0 -1.33333 59.427 110.34)"/></g><g style="mix-blend-mode:multiply"><path style="mix-blend-mode:multiply" d="m 0,0 -0.491,-0.097 -0.899,-0.581 -1.282,-0.486 -1.458,-0.019 -1.74,0.038 -0.912,0.248 -0.226,-0.051 -0.168,-0.137 -0.088,-0.181 -0.015,-0.359 -0.26,-1.449 -0.325,-0.854 -0.947,-1.71 -0.005,-0.198 v -0.036 l 0.21,-0.694 0.958,-0.211 0.516,0.044 1.331,0.151 0.796,0.089 2.058,0.3 1.713,0.348 1.46,0.604 0.716,0.169 0.714,0.471 0.216,0.373 0.005,0.343 v 0.072 L 1.65,-3.084 1.105,-2.151 0.625,-0.864 0.403,-0.196 0.236,-0.059 0.008,0 Z" fill="#3a3a39" transform="matrix(1.33333 0 0 -1.33333 83.472 114.676)"/></g><g style="mix-blend-mode:multiply"><path style="mix-blend-mode:multiply" d="m 0,0 -0.187,-0.054 -0.138,-0.148 -0.673,-2.583 -0.029,-1.4 v -0.06 l 0.142,-2.489 0.211,-1.857 0.089,-0.795 0.147,-1.327 0.152,-1.032 -0.039,-1.208 0.034,-2.033 0.138,-0.747 0.005,-1.173 0.123,-0.762 0.025,-1.743 0.122,-0.762 0.03,-3.212 -0.054,-1.42 -0.02,-1.414 0.127,-1.218 -0.053,-0.664 0.083,-0.801 0.177,-1.581 0.029,-1.453 0.128,-1.031 -0.059,-0.438 0.217,-1.194 0.166,-2.189 0.055,-1.126 0.146,-1.326 0.094,-0.801 0.23,-1.822 0.054,-1.125 0.118,-1.095 -0.063,-0.693 0.073,-0.736 0.02,-2.929 0.157,-1.036 -0.103,-0.849 0.064,-0.639 0.03,-2.927 0.122,-0.761 0.025,-0.86 0.123,-0.761 0.028,-0.854 0.05,-1.425 0.355,-0.825 0.323,-0.266 0.934,-0.255 1.276,-0.171 0.467,0.121 0.276,0.325 0.22,0.952 0.246,0.344 0.811,1.549 0.387,0.495 0.678,1.091 0.167,0.426 0.005,0.585 -0.393,1.675 -0.05,1.13 -0.151,1.321 -0.123,0.776 0.005,0.521 0.054,1.056 -0.255,0.565 -0.242,1.237 -0.024,1.455 -0.192,2.175 -0.034,0.659 -0.074,0.687 0.036,1.155 -0.094,1.738 0.044,0.653 0.02,1.474 -0.3,2.352 -0.148,1.327 -0.147,1.325 -0.187,1.592 -0.034,0.663 -0.064,0.693 -0.153,1.047 0.06,0.52 0.03,0.437 -0.182,0.412 -0.148,1.032 -0.055,1.125 -0.51,3.026 -0.084,0.8 -0.117,0.767 -0.024,0.859 -0.383,2.863 -0.06,2 -0.108,0.75 0.094,0.703 -0.143,0.757 0.039,1.203 -0.039,5.58 -0.197,1.252 -0.421,0.767 -0.856,0.618 -0.785,0.688 -1.229,0.545 z" fill="#3a3a39" transform="matrix(1.33333 0 0 -1.33333 9.797 3.152)"/></g><g style="mix-blend-mode:multiply"><path style="mix-blend-mode:multiply" d="m 0,0 -0.192,-0.083 -0.289,-0.903 -0.109,-0.492 0.064,-0.767 0.152,-1.974 -0.045,-0.653 0.123,-0.742 0.005,-3.826 0.084,-0.781 -0.084,-0.688 0.069,-0.535 0.02,-0.441 0.015,-0.669 -0.045,-0.54 -0.01,-0.683 -0.054,-0.963 0.084,-0.796 -0.074,-0.967 0.079,-0.512 0.28,-0.608 0.403,-0.202 0.953,0.089 1.144,-0.35 0.476,-0.004 0.384,0.221 0.098,0.202 0.034,0.263 v 0.014 l -0.109,0.792 -0.116,1.652 -0.138,1.271 -0.084,0.855 -0.01,1.179 -0.127,0.772 0.108,1.291 0.014,3.532 0.059,1.119 -0.064,1.234 -0.043,1.429 -0.334,0.845 -0.261,0.329 -1.592,0.766 z" fill="#3a3a39" transform="matrix(1.33333 0 0 -1.33333 63.23 54.366)"/></g><g style="mix-blend-mode:multiply"><path style="mix-blend-mode:multiply" d="M 0,0 0.226,1.493 0.128,2.23 0.197,2.676 0.078,3.689 l 0.119,0.8 -0.078,0.697 -0.138,2.211 -0.579,2.677 -0.237,0.353 -0.918,0.87 -0.231,0.054 -0.221,-0.054 -0.28,-0.329 L -3.34,10.055 -3.992,8.645 -4.041,7.81 -4.179,7.063 -4.189,5.01 -4.131,3.89 -4.174,3.237 -4.185,0.585 l -0.122,-0.762 -0.024,-1.744 -0.271,-1.792 -0.025,-0.86 -0.093,-0.791 -0.059,-1.119 -0.383,-2.27 -0.058,-1.12 -0.138,-0.746 -0.005,-1.174 -0.271,-1.793 -0.024,-0.86 -0.166,-1.321 0.122,-0.756 -0.255,-2.339 -0.119,-0.766 -0.024,-1.153 -0.122,-0.762 -0.026,-1.156 -0.152,-1.32 -0.088,-0.796 -0.098,-1.096 -0.069,-1.079 -0.039,-0.86 -0.059,-1.12 -0.113,-1.066 -0.142,-0.447 -0.144,-0.742 -0.191,-0.692 -0.264,-0.324 -1.415,-1.248 -0.384,-0.216 -0.157,0.045 -0.078,0.196 0.014,1.488 0.251,1.503 0.025,2.038 0.127,0.771 -0.014,0.497 -0.222,0.383 -0.201,0.098 -0.84,-0.005 -0.584,-0.305 -1.149,-0.323 -1.067,-0.113 -0.152,-0.143 -0.014,-1.458 -0.305,-2.054 -0.383,-1.679 -0.064,-1.705 -0.319,-1.454 -0.005,-0.598 -0.118,-0.444 -0.958,-1.409 -0.166,-0.202 c 0.075,-0.308 0.225,-0.574 0.263,-0.84 0.051,-0.358 0.256,-0.767 0.358,-1.022 0.102,-0.257 0.205,-0.666 0.461,-1.024 0.256,-0.358 0.87,-0.87 0.972,-1.074 0.103,-0.205 0.103,-0.103 0.41,-0.666 0.268,-0.493 1.244,-0.946 1.585,-1.258 l 0.607,0.713 0.663,0.515 0.79,0.683 0.978,0.496 1.631,0.727 0.593,0.585 0.541,0.932 0.806,1.259 0.609,0.864 0.496,0.388 0.471,0.708 1.66,2.466 0.486,0.986 0.172,0.727 -0.112,0.756 0.049,0.659 -0.098,1.085 0.083,0.785 -0.078,0.683 0.083,0.517 -0.088,1.546 0.064,1.13 -0.045,1.238 0.123,0.742 0.005,2.647 0.123,0.762 0.024,2.333 0.069,0.83 0.083,1.67 0.138,0.746 0.004,2.648 0.138,1.621 0.01,1.178 0.27,1.499 0.03,1.149 0.06,1.12 0.161,1.498 -0.005,0.762 0.216,2.083 z" fill="#3a3a39" fill-rule="evenodd" transform="matrix(1.33333 0 0 -1.33333 81.01 49.46)"/></g><g style="mix-blend-mode:multiply"><path style="mix-blend-mode:multiply" d="m 0,0 -0.256,0.349 -0.387,0.791 -0.325,0.265 -0.52,0.658 -1.317,1.336 -1.242,0.82 -0.712,0.467 -0.648,0.531 -1.524,1.424 -0.657,0.52 -0.171,0.131 C -8.256,7.139 -8.411,7.176 -9.211,7.129 c -0.87,-0.051 -1.842,-0.307 -2.456,-0.051 -0.615,0.256 -0.717,0.41 -1.075,0.41 -0.358,0 -1.586,-0.102 -2.251,-0.205 -0.665,-0.102 -0.972,-0.359 -1.586,-0.409 -0.614,-0.052 -1.638,0 -1.842,-0.052 -0.205,-0.051 -1.432,0.102 -2.046,0.052 -0.614,-0.052 -0.973,-0.103 -1.894,0 -0.92,0.102 -1.484,0 -2.046,0.255 -0.563,0.257 -1.125,0.614 -1.125,0.614 -0.615,0.921 -0.666,0.614 -0.615,1.945 0.051,1.33 0.819,2.455 0.819,2.455 0,0 0,0.563 -0.102,0.716 -0.102,0.154 -1.331,0.359 -1.689,0.512 -0.358,0.154 -1.842,1.228 -2.149,1.586 -0.307,0.359 -1.023,1.74 -1.176,2.303 -0.154,0.562 -0.461,1.586 -0.461,1.841 0,0.257 -0.205,2.098 0,2.866 0.205,0.767 0.666,1.381 0.614,2.2 -0.017,0.282 -0.035,0.5 -0.055,0.683 l -0.697,0.706 -0.53,0.368 -0.437,0.109 -0.177,-0.094 -1.036,-2.219 -0.315,-1.764 -0.029,-0.664 -0.127,-1.522 -0.59,-1.178 -0.447,-0.443 -0.393,-0.201 -0.481,0.089 -0.732,0.456 -0.958,0.81 -1.68,1.268 -0.422,0.182 -0.545,-0.035 -0.885,0.005 -1.561,-0.511 -1.542,-0.113 -1.4,0.304 -0.545,0.339 -1.421,0.953 -0.166,0.015 -0.123,-0.122 -0.064,-0.846 0.334,-2.028 0.536,-1.528 0.29,-1.483 -0.118,-0.987 0.133,-0.462 0.372,-0.515 0.629,-0.551 0.535,-0.349 1.798,-0.24 1.307,-0.192 2.106,-0.839 1.896,-0.757 0.467,-0.418 0.752,-0.428 1.527,-1.123 0.394,-0.491 0.501,-0.384 0.545,-0.633 0.476,-0.408 0.265,-0.325 0.595,-0.584 0.457,-0.722 0.775,-0.993 0.57,-0.608 0.354,-0.53 0.373,-0.511 0.584,-1.184 0.133,-0.751 0.227,-0.664 -0.02,-0.172 -0.138,-0.103 -0.56,-0.024 -0.006,-0.118 0.133,-0.143 0.197,-0.058 0.555,0.146 0.158,-0.073 0.466,-0.133 11.503,0.005 h 14.441 l 1.488,-0.014 0.511,0.093 0.137,0.158 0.035,0.195 z" fill="#3a3a39" fill-rule="evenodd" transform="matrix(1.33333 0 0 -1.33333 82.555 160.23)"/></g><path style="mix-blend-mode:multiply" d="m 0,0 c 0.284,-0.124 0.576,-0.248 0.874,-0.33 0.276,-0.075 0.538,-0.202 0.831,-0.219 0.147,-0.009 0.29,-0.075 0.435,-0.113 0.063,-0.016 0.127,-0.042 0.19,-0.041 0.487,0.007 0.964,-0.084 1.443,-0.143 0.181,-0.023 0.349,-0.004 0.519,0.063 0.089,0.036 0.189,0.046 0.286,0.053 0.169,0.011 0.34,0.019 0.509,0.012 0.293,-0.012 0.529,0.132 0.763,0.273 0.091,0.054 0.172,0.081 0.275,0.069 0.097,-0.01 0.196,-0.01 0.294,-0.006 C 6.65,-0.373 6.813,-0.49 6.871,-0.72 6.889,-0.79 6.889,-0.863 6.902,-0.934 6.921,-1.029 6.934,-1.127 6.969,-1.216 7.005,-1.307 7.02,-1.395 6.98,-1.482 6.891,-1.68 6.888,-1.89 6.887,-2.099 6.886,-2.376 6.865,-2.645 6.756,-2.907 6.713,-3.011 6.716,-3.138 6.714,-3.254 6.711,-3.381 6.694,-3.497 6.636,-3.613 6.594,-3.699 6.574,-3.799 6.562,-3.895 6.546,-4.033 6.526,-4.167 6.441,-4.284 6.426,-4.304 6.407,-4.328 6.404,-4.352 6.384,-4.626 6.201,-4.828 6.09,-5.061 6.062,-5.121 6.033,-5.182 6.02,-5.244 5.982,-5.455 5.889,-5.639 5.778,-5.819 5.68,-5.979 5.607,-6.155 5.511,-6.316 5.415,-6.479 5.305,-6.634 5.201,-6.793 5.038,-7.045 4.889,-7.308 4.709,-7.548 4.505,-7.819 4.283,-8.078 4.051,-8.326 3.923,-8.463 3.759,-8.566 3.609,-8.683 3.496,-8.772 3.382,-8.859 3.268,-8.947 3.142,-9.043 3.094,-9.031 3.013,-8.892 c -0.144,0.247 -0.262,0.516 -0.52,0.674 -0.075,0.046 -0.163,0.074 -0.246,0.106 -0.061,0.024 -0.124,0.039 -0.184,0.063 -0.109,0.042 -0.216,0.091 -0.325,0.133 -0.112,0.042 -0.133,0.071 -0.121,0.189 0.014,0.129 0.022,0.26 0.042,0.389 0.013,0.076 0.03,0.159 0.072,0.22 0.077,0.109 0.1,0.225 0.098,0.352 -0.004,0.185 0.016,0.361 0.109,0.53 0.076,0.141 0.077,0.304 0.037,0.461 C 1.948,-5.67 1.896,-5.645 1.8,-5.696 1.72,-5.738 1.632,-5.786 1.581,-5.856 1.43,-6.069 1.303,-6.298 1.153,-6.511 0.997,-6.731 0.993,-7.007 0.861,-7.234 0.829,-7.291 0.806,-7.353 0.772,-7.408 0.608,-7.661 0.556,-7.922 0.698,-8.204 0.715,-8.236 0.715,-8.277 0.724,-8.322 0.69,-8.329 0.663,-8.344 0.642,-8.338 0.425,-8.281 0.213,-8.327 0,-8.364 -0.032,-8.37 -0.065,-8.376 -0.098,-8.377 -0.6,-8.404 -1.103,-8.423 -1.604,-8.459 -1.968,-8.486 -2.338,-8.467 -2.695,-8.572 -2.755,-8.589 -2.824,-8.59 -2.889,-8.59 c -1.034,-0.008 -2.069,-0.019 -3.103,-0.02 -0.765,-0.001 -1.531,0.012 -2.296,0.021 -0.079,0.001 -0.16,0.004 -0.234,0.028 -0.291,0.094 -0.591,0.106 -0.893,0.098 -0.195,-0.005 -0.224,0.028 -0.223,0.224 0.002,0.324 0.128,0.61 0.262,0.894 0.087,0.183 0.177,0.365 0.275,0.543 0.062,0.114 0.13,0.228 0.215,0.325 0.136,0.159 0.287,0.305 0.435,0.453 0.119,0.122 0.238,0.244 0.415,0.284 0.07,0.015 0.123,0.068 0.108,0.141 -0.012,0.059 -0.049,0.121 -0.093,0.159 -0.034,0.031 -0.097,0.042 -0.147,0.039 -0.208,-0.009 -0.409,-0.024 -0.594,-0.161 -0.263,-0.194 -0.534,-0.378 -0.734,-0.644 -0.023,-0.031 -0.052,-0.059 -0.082,-0.084 -0.231,-0.192 -0.396,-0.432 -0.535,-0.695 -0.091,-0.169 -0.098,-0.175 -0.276,-0.143 -0.254,0.045 -0.482,0.005 -0.723,-0.097 -0.23,-0.098 -0.449,-0.203 -0.662,-0.335 -0.314,-0.194 -0.563,-0.44 -0.724,-0.777 -0.076,-0.158 -0.192,-0.299 -0.255,-0.461 -0.091,-0.236 -0.177,-0.479 -0.17,-0.736 0.002,-0.088 0.055,-0.173 0.081,-0.26 0.06,-0.196 0.019,-0.269 -0.182,-0.296 -0.194,-0.026 -0.391,-0.041 -0.586,-0.051 -0.126,-0.006 -0.242,-0.031 -0.359,-0.083 -0.129,-0.058 -0.273,-0.088 -0.413,-0.116 -0.211,-0.045 -0.423,-0.08 -0.637,-0.114 -0.246,-0.038 -0.452,-0.17 -0.657,-0.292 -0.193,-0.114 -0.376,-0.106 -0.556,-0.009 -0.13,0.07 -0.261,0.117 -0.407,0.131 -0.019,0.001 -0.041,-0.002 -0.058,0.006 -0.355,0.161 -0.76,0.183 -1.1,0.388 -0.263,0.157 -0.539,0.296 -0.789,0.473 -0.336,0.238 -0.662,0.493 -0.972,0.763 -0.164,0.144 -0.29,0.335 -0.429,0.508 -0.054,0.065 -0.088,0.149 -0.147,0.208 -0.319,0.311 -0.526,0.702 -0.732,1.086 -0.1,0.186 -0.215,0.378 -0.256,0.606 -0.034,0.19 -0.159,0.364 -0.235,0.548 -0.031,0.078 -0.042,0.163 -0.06,0.245 -0.031,0.14 -0.064,0.279 -0.091,0.419 -0.025,0.135 -0.062,0.27 -0.063,0.404 -0.007,0.766 -0.004,1.532 -0.004,2.299 0,0.204 0.013,0.405 0.104,0.594 0.03,0.064 0.03,0.141 0.05,0.209 0.039,0.144 0.083,0.286 0.125,0.43 0.016,0.056 0.032,0.113 0.048,0.169 0.02,0.069 0.039,0.138 0.058,0.207 0.034,0.125 0.077,0.249 0.099,0.375 0.022,0.124 0.038,0.245 0.127,0.344 0.017,0.019 0.035,0.043 0.039,0.067 0.038,0.234 0.2,0.407 0.304,0.608 0.026,0.052 0.047,0.107 0.073,0.16 0.065,0.135 0.105,0.291 0.201,0.4 0.233,0.264 0.338,0.585 0.467,0.898 0.027,0.065 0.071,0.123 0.109,0.184 0.07,0.113 0.038,0.19 -0.098,0.199 -0.091,0.006 -0.157,0.04 -0.23,0.088 -0.126,0.081 -0.261,0.149 -0.397,0.21 -0.394,0.178 -0.771,0.382 -1.124,0.633 -0.531,0.379 -0.986,0.838 -1.425,1.316 -0.065,0.072 -0.142,0.135 -0.209,0.207 -0.042,0.044 -0.075,0.098 -0.128,0.168 0.139,0.07 0.253,0.129 0.368,0.187 0.058,0.03 0.127,0.049 0.173,0.091 0.21,0.189 0.459,0.326 0.675,0.504 0.157,0.129 0.273,0.313 0.396,0.481 0.053,0.074 0.003,0.159 -0.092,0.171 -0.128,0.018 -0.242,-0.021 -0.36,-0.074 -0.362,-0.164 -0.728,-0.319 -1.094,-0.474 -0.187,-0.079 -0.373,-0.159 -0.565,-0.224 -0.154,-0.051 -0.313,-0.096 -0.474,-0.115 -0.286,-0.033 -0.574,-0.065 -0.861,-0.059 -0.252,0.005 -0.511,0.03 -0.75,0.103 -0.626,0.188 -1.048,0.617 -1.307,1.21 -0.068,0.155 -0.124,0.315 -0.177,0.475 -0.022,0.068 -0.03,0.141 -0.033,0.212 -0.012,0.25 -0.029,0.497 -0.127,0.731 -0.02,0.047 -0.029,0.102 -0.028,0.153 0.009,0.483 -0.033,0.968 0.115,1.443 0.046,0.146 0.034,0.311 0.038,0.467 0.008,0.23 0.041,0.449 0.126,0.669 0.094,0.249 0.133,0.517 0.199,0.777 0.023,0.094 0.042,0.191 0.082,0.279 0.148,0.327 0.302,0.652 0.459,0.975 0.045,0.093 0.114,0.175 0.169,0.263 0.057,0.095 0.109,0.192 0.166,0.287 0.026,0.044 0.052,0.092 0.088,0.128 0.32,0.327 0.638,0.658 0.968,0.975 0.289,0.279 0.626,0.495 0.977,0.685 0.218,0.117 0.452,0.202 0.679,0.302 0.012,0.005 0.025,0.009 0.038,0.011 0.489,0.113 0.978,0.237 1.471,0.333 0.216,0.043 0.442,0.033 0.664,0.041 0.125,0.005 0.25,-0.008 0.374,-0.004 0.244,0.011 0.483,-0.002 0.713,-0.099 0.07,-0.03 0.152,-0.034 0.23,-0.04 0.185,-0.014 0.365,-0.039 0.523,-0.146 0.017,-0.01 0.036,-0.023 0.054,-0.023 0.21,-0.004 0.386,-0.119 0.574,-0.187 0.263,-0.095 0.523,-0.204 0.771,-0.332 0.197,-0.1 0.375,-0.238 0.561,-0.359 0.027,-0.017 0.052,-0.043 0.082,-0.053 0.323,-0.1 0.387,-0.381 0.474,-0.654 0.061,-0.192 0.142,-0.38 0.238,-0.556 0.155,-0.28 0.313,-0.561 0.503,-0.817 0.214,-0.288 0.467,-0.548 0.769,-0.751 0.06,-0.041 0.129,-0.072 0.176,-0.124 0.268,-0.289 0.605,-0.477 0.947,-0.658 0.183,-0.098 0.378,-0.174 0.566,-0.263 0.053,-0.024 0.11,-0.049 0.155,-0.084 0.211,-0.162 0.459,-0.25 0.7,-0.348 0.065,-0.027 0.141,-0.032 0.212,-0.035 0.159,-0.008 0.308,-0.046 0.451,-0.119 0.075,-0.037 0.159,-0.06 0.242,-0.072 0.363,-0.046 0.727,-0.084 1.089,-0.129 0.29,-0.036 0.574,-0.051 0.845,0.091 0.06,0.032 0.14,0.036 0.209,0.035 0.278,-0.003 0.546,0.015 0.804,0.14 0.158,0.076 0.337,0.106 0.499,0.174 0.24,0.102 0.473,0.22 0.708,0.333 0.024,0.011 0.052,0.02 0.066,0.039 0.026,0.034 0.042,0.075 0.061,0.113 -0.043,0.021 -0.086,0.059 -0.129,0.06 -0.084,0.001 -0.17,-0.014 -0.253,-0.029 -0.25,-0.046 -0.499,-0.096 -0.749,-0.144 -0.045,-0.009 -0.09,-0.02 -0.136,-0.019 -0.333,0.007 -0.666,-0.008 -0.993,-0.083 -0.068,-0.016 -0.142,0.003 -0.213,0.011 -0.136,0.014 -0.272,0.039 -0.408,0.045 -0.366,0.018 -0.735,0.004 -1.098,0.046 -0.289,0.033 -0.571,0.128 -0.856,0.197 -0.015,0.004 -0.026,0.027 -0.045,0.047 0.071,0.093 0.173,0.086 0.266,0.086 0.15,0 0.3,-0.013 0.45,-0.02 0.186,-0.009 0.364,0.02 0.54,0.083 0.097,0.035 0.203,0.045 0.306,0.063 0.064,0.01 0.135,10e-4 0.193,0.024 0.271,0.109 0.549,0.206 0.803,0.347 0.25,0.137 0.475,0.322 0.71,0.487 0.065,0.045 0.122,0.105 0.192,0.135 0.321,0.14 0.53,0.401 0.73,0.667 0.177,0.236 0.348,0.477 0.504,0.726 0.125,0.198 0.231,0.408 0.332,0.619 0.211,0.442 0.409,0.894 0.489,1.379 0.059,0.353 0.056,0.716 0.08,1.074 0.007,0.102 -0.013,0.209 0.046,0.302 0.098,0.022 0.137,-0.049 0.181,-0.1 0.348,-0.408 0.681,-0.83 1.044,-1.225 0.238,-0.258 0.512,-0.485 0.782,-0.712 0.136,-0.114 0.275,-0.217 0.372,-0.371 0.139,-0.219 0.339,-0.379 0.539,-0.539 0.157,-0.127 0.315,-0.254 0.464,-0.391 0.548,-0.506 1.093,-1.016 1.638,-1.524 0.052,-0.049 0.109,-0.097 0.152,-0.154 0.276,-0.355 0.569,-0.703 0.778,-1.104 0.138,-0.266 0.289,-0.539 0.353,-0.827 0.058,-0.262 0.141,-0.511 0.21,-0.767 0.055,-0.206 0.053,-0.427 0.151,-0.626 0.02,-0.039 0.017,-0.09 0.018,-0.135 0.002,-0.432 0.005,-0.864 0.005,-1.296 0,-0.124 -0.008,-0.249 -0.003,-0.373 0.008,-0.16 0,-0.31 -0.097,-0.45 C -0.492,6.329 -0.483,6.244 -0.503,6.176 -0.538,6.059 -0.572,5.94 -0.623,5.829 -0.706,5.646 -0.802,5.468 -0.894,5.289 -0.921,5.237 -0.95,5.185 -0.988,5.14 -1.258,4.812 -1.504,4.462 -1.827,4.181 -2.01,4.022 -2.208,3.881 -2.387,3.719 -2.635,3.494 -2.888,3.28 -3.197,3.138 -3.324,3.08 -3.336,3.015 -3.254,2.884 -3.146,2.713 -3.016,2.554 -2.914,2.379 -2.643,1.91 -2.252,1.554 -1.837,1.223 -1.577,1.016 -1.293,0.839 -1.02,0.648 -0.977,0.618 -0.929,0.593 -0.895,0.554 -0.65,0.283 -0.319,0.139 0,0 M 6.759,0.828 7.09,1.349 8.104,2.068 9.138,2.494 9.849,2.447 10.165,2.242 10.742,1.378 10.776,0.563 10.543,-0.065 10.221,-0.609 9.2,-1.322 8.017,-1.597 7.955,-1.594 c -0.007,0.152 -0.018,0.305 -0.051,0.456 -0.05,0.229 -0.05,0.468 -0.152,0.685 -0.019,0.041 -0.025,0.091 -0.025,0.135 0,0.187 -0.084,0.325 -0.231,0.433 C 7.425,0.167 7.373,0.23 7.378,0.328 7.384,0.448 7.31,0.514 7.203,0.525 7.061,0.54 6.917,0.546 6.776,0.535 6.746,0.533 6.717,0.525 6.687,0.522 Z M 5.344,-8.159 c 0.01,0.013 0.024,0.022 0.033,0.036 0.086,0.111 0.168,0.225 0.253,0.338 l 0.131,0.143 0.461,0.423 0.586,0.899 0.139,0.123 0.475,0.051 1.281,-0.192 0.516,-0.337 0.509,-0.643 0.263,-0.596 0.043,-0.804 -0.278,-0.875 -0.691,-0.749 -0.357,-0.199 -1.112,-0.054 -0.705,0.159 -0.549,0.31 -0.707,0.737 -0.161,0.4 -0.145,0.727 z m -2.84,-5.294 c 10e-4,-0.05 -0.003,-0.111 -0.03,-0.152 -0.091,-0.139 -0.121,-0.3 -0.178,-0.452 -0.067,-0.18 -0.178,-0.32 -0.398,-0.326 -0.05,0 -0.107,-0.013 -0.15,-0.039 -0.158,-0.097 -0.331,-0.1 -0.51,-0.109 -0.247,-0.011 -0.493,-0.05 -0.739,-0.078 -0.078,-0.009 -0.156,-0.024 -0.234,-0.024 -0.654,-0.002 -1.31,-0.001 -1.964,10e-4 -0.085,10e-4 -0.171,0.008 -0.253,0.026 -0.144,0.029 -0.28,0.034 -0.422,-0.028 -0.065,-0.027 -0.159,-0.023 -0.226,0.003 -0.156,0.061 -0.282,-0.002 -0.409,-0.071 -0.081,-0.043 -0.101,-0.117 -0.067,-0.201 0.061,-0.151 0.165,-0.262 0.332,-0.27 0.187,-0.009 0.358,-0.055 0.529,-0.129 0.081,-0.035 0.179,-0.04 0.269,-0.04 0.838,-0.004 1.676,-0.008 2.514,0.004 0.2,0.002 0.4,0.062 0.6,0.093 0.147,0.022 0.295,0.05 0.444,0.056 0.172,0.006 0.339,0.014 0.483,0.128 0.057,0.045 0.126,0.077 0.2,0.033 0.077,-0.046 0.049,-0.124 0.055,-0.194 0.025,-0.283 -0.107,-0.488 -0.31,-0.663 -0.104,-0.089 -0.214,-0.147 -0.351,-0.159 -0.072,-0.006 -0.146,-0.013 -0.212,-0.037 -0.334,-0.117 -0.679,-0.127 -1.028,-0.125 -0.321,0.003 -0.637,-0.029 -0.952,-0.108 -0.301,-0.075 -0.616,-0.049 -0.917,0.01 -0.349,0.07 -0.699,0.101 -1.053,0.1 -0.121,0 -0.224,0.022 -0.332,0.088 -0.166,0.101 -0.346,0.184 -0.529,0.25 -0.178,0.064 -0.354,0.043 -0.473,-0.13 -0.098,-0.143 -0.217,-0.219 -0.397,-0.185 -0.049,0.008 -0.102,-0.011 -0.155,-0.02 -0.444,-0.071 -0.888,-0.141 -1.332,-0.215 -0.096,-0.017 -0.189,-0.053 -0.285,-0.072 -0.102,-0.022 -0.206,-0.034 -0.309,-0.049 -0.212,-0.032 -0.428,-0.05 -0.636,-0.099 -0.18,-0.044 -0.356,-0.061 -0.542,-0.055 -0.418,0.014 -0.834,0.007 -1.247,-0.1 -0.238,-0.061 -0.492,-0.068 -0.739,-0.079 -0.327,-0.013 -0.655,-0.007 -0.982,-0.006 -0.14,0 -0.269,-0.029 -0.394,-0.101 -0.071,-0.04 -0.159,-0.07 -0.239,-0.072 -0.217,-0.005 -0.433,0.005 -0.648,0.012 -0.202,0.007 -0.404,0.015 -0.606,0.023 -0.097,0.004 -0.201,-0.012 -0.292,0.017 -0.389,0.118 -0.79,0.097 -1.187,0.121 -0.242,0.014 -0.476,0.032 -0.711,0.112 -0.313,0.108 -0.645,0.163 -0.969,0.237 -0.118,0.026 -0.229,0.065 -0.335,0.111 l -0.55,0.501 c -0.04,0.129 -0.03,0.269 -0.034,0.405 -10e-4,0.062 0.068,0.082 0.121,0.058 0.281,-0.13 0.58,-0.08 0.872,-0.078 0.349,10e-4 0.69,-0.031 1.031,-0.114 0.164,-0.04 0.336,-0.047 0.505,-0.058 0.3,-0.018 0.601,-0.027 0.902,-0.039 0.085,-0.003 0.17,-0.006 0.255,-0.003 0.261,0.013 0.522,0.039 0.783,0.042 0.949,0.006 1.898,-0.004 2.848,0.01 0.318,0.005 0.635,0.065 0.954,0.1 0.026,0.003 0.051,0.011 0.051,0.011 0.306,0.019 0.586,0.038 0.866,0.05 0.334,0.014 0.668,0.015 1.001,0.037 0.188,0.012 0.379,0.04 0.561,0.087 0.226,0.06 0.453,0.058 0.682,0.06 0.15,10e-4 0.301,0 0.451,0.007 0.078,0.003 0.163,0.004 0.231,0.036 0.163,0.073 0.332,0.105 0.505,0.144 0.167,0.038 0.328,0.133 0.471,0.231 0.144,0.099 0.121,0.237 -0.044,0.292 -0.133,0.046 -0.278,0.07 -0.42,0.079 -0.195,0.011 -0.392,0.009 -0.588,-0.007 -0.214,-0.017 -0.426,-0.058 -0.641,-0.085 -0.116,-0.014 -0.234,-0.028 -0.351,-0.027 -0.466,0.004 -0.928,-0.025 -1.387,-0.115 -0.229,-0.046 -0.467,-0.055 -0.701,-0.065 -0.288,-0.013 -0.577,-0.001 -0.864,-0.015 -0.195,-0.011 -0.388,-0.048 -0.582,-0.074 -0.026,-0.003 -0.052,-0.012 -0.077,-0.014 -0.319,-0.022 -0.637,-0.059 -0.956,-0.06 -1.107,-0.008 -2.213,-0.004 -3.32,-0.004 -0.308,10e-4 -0.611,0.019 -0.909,0.125 -0.131,0.046 -0.283,0.036 -0.427,0.038 -0.14,0.002 -0.273,0.016 -0.393,0.098 -0.032,0.021 -0.069,0.043 -0.107,0.047 -0.26,0.03 -0.506,0.111 -0.754,0.191 -0.292,0.095 -0.547,0.241 -0.721,0.503 -0.025,0.038 -0.045,0.08 -0.07,0.118 -0.146,0.22 -0.105,0.443 -0.023,0.674 0.109,0.308 0.3,0.568 0.493,0.818 0.284,0.368 0.612,0.701 1.059,0.881 0.198,0.08 0.402,0.148 0.601,0.228 0.2,0.08 0.391,0.186 0.617,0.174 0.03,-0.002 0.066,0.013 0.091,0.031 0.167,0.113 0.354,0.12 0.546,0.119 0.289,-0.001 0.573,0.026 0.853,0.115 0.194,0.061 0.399,0.025 0.596,-0.042 0.098,-0.033 0.2,-0.061 0.302,-0.074 0.042,-0.005 0.099,0.027 0.13,0.06 0.012,0.013 -0.02,0.083 -0.046,0.114 -0.215,0.258 -0.39,0.542 -0.511,0.854 -0.106,0.269 -0.139,0.546 0.031,0.81 0.011,0.016 0.022,0.035 0.026,0.053 0.075,0.33 0.29,0.58 0.489,0.835 0.122,0.156 0.317,0.223 0.497,0.295 0.072,0.029 0.153,0.034 0.231,0.044 0.104,0.014 0.148,-0.016 0.169,-0.114 0.023,-0.104 0.004,-0.198 -0.078,-0.269 -0.095,-0.081 -0.194,-0.154 -0.29,-0.234 -0.142,-0.117 -0.152,-0.177 -0.009,-0.295 0.176,-0.145 0.362,-0.283 0.603,-0.306 0.025,-0.002 0.053,-0.002 0.076,-0.013 0.391,-0.192 0.835,-0.15 1.24,-0.28 0.091,-0.03 0.195,-0.028 0.292,-0.029 0.936,-0.006 1.873,-0.009 2.81,-0.014 0.13,-0.001 0.261,0 0.392,0 v 0.005 c 0.878,0 1.754,-10e-4 2.632,0.001 0.23,10e-4 0.458,0.015 0.687,0.025 0.052,0.002 0.106,0.007 0.155,0.023 0.334,0.115 0.68,0.123 1.027,0.125 0.222,10e-4 0.447,-0.015 0.645,0.121 0.031,0.02 0.074,0.027 0.113,0.031 0.274,0.03 0.505,0.171 0.744,0.289 0.091,0.045 0.173,0.12 0.242,0.197 0.071,0.08 0.14,0.099 0.241,0.072 0.464,-0.127 0.81,-0.41 1.07,-0.806 0.076,-0.116 0.081,-0.26 0.027,-0.38 -0.119,-0.26 -0.159,-0.555 -0.334,-0.79 -0.127,-0.175 -0.258,-0.346 -0.386,-0.519 -0.024,-0.031 -0.054,-0.058 -0.07,-0.093 -0.031,-0.066 -0.007,-0.131 0.064,-0.131 0.177,-0.003 0.364,-0.056 0.521,0.092 0.113,0.106 0.175,0.086 0.264,-0.051 0.129,-0.199 0.145,-0.432 0.206,-0.652 0.141,-0.508 0.067,-1.028 0.087,-1.543 m -12.221,-4.608 -0.472,-0.028 -0.249,0.153 c 0.043,0.007 0.086,0.015 0.129,0.016 0.348,0.012 0.694,0.022 1.041,0.033 z m -7.434,36.541 c -0.048,-0.169 -0.089,-0.34 -0.13,-0.511 l -0.125,0.138 -0.309,0.557 -0.4,1.378 -0.019,0.256 0.052,0.214 0.107,0.107 0.137,-0.004 1.17,-0.577 0.088,-0.069 c -0.055,-0.094 -0.095,-0.193 -0.111,-0.307 -0.005,-0.038 -0.021,-0.077 -0.04,-0.111 -0.185,-0.34 -0.316,-0.703 -0.42,-1.071 M -21.304,1.17 c -0.08,-0.152 -0.151,-0.307 -0.216,-0.464 l -0.011,0.014 -0.522,0.939 -0.089,0.425 c 0.106,-0.068 0.203,-0.145 0.313,-0.208 0.141,-0.08 0.279,-0.169 0.428,-0.233 0.163,-0.071 0.208,-0.124 0.169,-0.292 -0.015,-0.063 -0.042,-0.124 -0.072,-0.181 m -0.307,-11.046 -0.558,-0.299 -0.632,-0.201 -1.553,0.371 -1.018,0.728 -0.194,0.304 0.004,0.142 0.081,0.153 0.155,0.117 0.959,0.227 0.781,0.398 0.885,0.933 0.357,0.64 c 0.004,-0.008 0.005,-0.018 0.01,-0.025 0.061,-0.103 0.089,-0.198 0.084,-0.314 -0.004,-0.103 -0.013,-0.216 0.021,-0.31 0.064,-0.184 0.148,-0.363 0.239,-0.537 0.248,-0.476 0.532,-0.932 0.856,-1.36 0.05,-0.066 0.11,-0.123 0.162,-0.187 z m 4.48,-1.823 c -0.008,-0.018 -0.025,-0.03 -0.039,-0.044 -0.4,-0.442 -0.673,-0.943 -0.713,-1.551 -0.003,-0.032 -0.01,-0.065 -0.018,-0.096 -0.024,-0.106 -0.02,-0.21 -0.011,-0.314 l -0.113,0.115 -0.524,0.65 -0.62,0.843 -0.417,0.773 -0.484,0.692 -0.094,0.393 0.125,0.219 c 0.007,-0.006 0.013,-0.013 0.021,-0.019 0.492,-0.388 1.012,-0.738 1.581,-1.011 0.253,-0.122 0.491,-0.274 0.78,-0.306 0.063,-0.006 0.123,-0.041 0.185,-0.06 0.087,-0.027 0.176,-0.049 0.262,-0.076 0.048,-0.015 0.131,-0.033 0.132,-0.055 0.005,-0.049 -0.031,-0.103 -0.053,-0.153 m -32.424,52.481 0.374,0.478 0.678,0.47 0.63,0.267 0.185,0.017 0.152,-0.074 0.608,-0.843 0.226,-0.92 -0.014,-1.429 -0.312,-0.841 -0.243,-0.319 -0.531,-0.337 -0.263,-0.348 -0.143,-0.023 -0.134,0.085 -0.352,1.134 -0.534,0.95 -0.495,0.657 -0.014,0.385 z m -1.137,-1.257 0.873,-1.177 0.156,-0.411 0.068,-1.127 0.042,-0.394 -0.097,-0.097 -0.512,-0.069 -1.284,0.193 -0.6,0.256 -0.847,0.613 -0.362,0.496 -0.382,1.066 0.034,1.109 0.089,0.174 0.157,0.095 0.87,-0.009 0.533,0.028 0.637,-0.228 z m 1.789,2.807 -1.174,-0.909 -0.438,-0.433 -0.404,-0.155 -0.455,0.092 -0.934,0.257 -0.464,0.117 -0.115,0.129 -0.012,0.174 0.225,0.353 0.618,0.538 0.833,0.317 0.759,0.117 0.869,0.034 0.411,0.043 0.383,-0.161 0.119,-0.111 0.017,-0.114 z m 0.007,19.627 -0.426,0.572 0.572,1.76 0.105,0.158 1.253,0.779 1.372,0.374 0.951,0.096 0.128,-0.082 0.255,-0.578 -0.128,-0.607 -0.28,-0.597 -1.213,-1.117 -0.512,-0.357 -1.604,-0.451 z m 3.561,4.953 -2.588,-0.948 -0.413,-0.182 -0.175,-0.012 -0.125,0.079 -0.349,1.125 -0.36,0.836 -0.361,0.511 -0.022,0.109 0.221,0.241 c 1.524,0.689 3.439,-0.048 4.218,-1.5 l 0.024,-0.149 z m -4.146,-1.374 -0.037,-0.845 -0.402,-1.347 -0.328,-0.553 -0.148,-0.102 -0.185,-0.025 -0.378,0.157 -0.429,0.719 -0.468,1.004 -0.1,0.64 0.167,0.971 0.315,0.849 0.805,0.91 0.121,0.004 0.444,-0.398 0.53,-1.207 z m 4.265,24.667 0.147,0.118 0.218,0.063 0.239,-0.019 0.201,-0.084 0.126,-0.131 0.246,-1.192 -0.009,-3.516 -0.139,-0.758 -0.009,-1.128 -0.105,0.307 -0.227,0.965 -0.121,0.454 -0.064,1.118 -0.172,1.603 -0.429,1.871 z m 23.545,-61.646 0.048,0.512 0.155,0.426 0.101,0.098 0.95,-0.084 0.012,-0.002 0.493,0.146 0.301,0.311 0.218,0.69 0.625,0.819 0.716,0.429 0.73,0.119 0.436,-0.135 0.307,-0.25 0.198,-0.365 0.028,-0.474 -0.411,-1.047 -0.698,-1.059 -0.615,-0.537 -1.209,-0.533 -0.815,-0.053 -0.917,0.24 -0.488,0.357 z m -1.647,-25.43 0.139,-1.326 0.336,-0.872 0.417,-0.755 0.027,-0.471 -0.267,-0.913 -0.015,-2.346 -0.485,-1.863 -0.522,-0.929 -0.426,-0.427 -0.709,-0.457 -1.39,-0.358 -0.419,0.024 -0.918,0.534 -0.742,0.73 -0.495,0.378 -2.051,2.037 -0.007,0.076 1.168,1.104 0.743,1.363 0.282,0.906 0.167,0.953 0.002,0.01 -0.114,0.75 0.024,1.141 0.113,0.113 1.117,0.049 0.976,0.221 1.79,0.873 0.656,0.442 c 0.032,-0.114 0.084,-0.221 0.15,-0.322 0.118,-0.18 0.235,-0.361 0.357,-0.538 0.029,-0.044 0.064,-0.084 0.096,-0.127 m -17.072,2.423 0.052,0.202 0.312,0.251 0.806,0.361 h 0.5 l 0.357,-0.214 0.13,-0.285 0.063,-0.867 -0.122,-0.434 -0.258,-0.3 -0.415,-0.109 -0.689,0.15 -0.423,0.423 -0.295,0.584 z m 4.191,48.685 0.056,0.387 0.348,0.83 c 0.417,0.593 1.051,1.546 1.761,0.723 l 0.556,-0.882 0.052,-1.109 -0.354,-1.394 -0.409,-0.745 -0.441,-0.396 -0.134,-0.003 -0.272,0.253 -0.341,0.837 -0.488,1.004 -0.264,0.327 z m -0.165,-1.407 0.414,-1.05 0.005,-0.504 -0.089,-0.176 -0.352,-0.205 -0.474,-0.014 -1.191,0.277 -0.549,0.31 -0.822,0.918 -0.272,0.568 -0.101,1.075 0.14,0.754 0.074,0.143 0.092,0.019 0.747,-0.426 0.869,-0.296 0.814,-0.63 z m 0.684,3.963 -0.489,-0.707 -0.616,-0.872 -0.182,-0.286 -0.3,0.079 -1.025,0.47 -0.59,0.3 -0.113,0.114 -0.004,0.122 0.544,0.591 1.208,0.531 0.787,0.092 0.587,-0.005 0.177,-0.082 0.063,-0.151 z m 9.288,-42.259 c -0.309,-0.348 -0.59,-0.719 -0.848,-1.107 l -0.078,-0.008 h -1.768 l -1.396,-0.383 -0.172,0.009 -0.146,0.087 -0.099,0.156 0.106,0.975 -0.098,0.789 -0.068,0.817 0.094,0.48 c 0.882,1.343 3.301,1.479 4.127,-0.01 l 0.298,-0.847 0.092,-0.79 z m 7.526,7.562 -0.454,-1.282 -0.289,-0.261 c -1.825,-0.939 -3.342,-0.296 -4.067,1.579 l -0.064,0.811 0.063,0.519 0.284,0.569 0.948,0.784 0.436,0.126 h 1.444 l 0.406,-0.153 0.782,-0.665 0.343,-0.516 0.187,-0.679 z m -17.896,2.203 0.519,0.624 1.002,0.446 0.523,0.019 1.57,-0.478 0.74,-0.421 0.364,-0.487 0.211,-0.65 0.019,-0.835 -0.224,-0.632 -0.518,-0.624 -0.836,-0.624 -0.434,-0.14 -0.769,0.086 -0.688,0.19 -0.857,0.306 -0.276,0.272 -0.551,0.9 -0.019,1.416 z m -6.717,38.869 0.039,4.986 c -0.05,2.202 0.275,4.254 0.154,6.622 l 0.053,0.055 0.075,-0.037 0.151,-0.433 0.441,-2.499 c 0.099,-3.426 0.678,-7.011 0.679,-10.291 l 0.206,-1.202 0.152,-1.908 c 0.343,-4.218 0.515,-8.429 0.938,-12.626 l 0.235,-1.53 0.3,-2.655 0.11,-1.682 0.31,-1.112 -0.209,-0.625 -0.627,-1.45 -0.168,-0.702 -0.359,-0.823 -0.111,-0.107 h -0.128 l -1.183,0.562 -0.114,0.14 -0.203,1.241 -0.011,1.179 -0.136,0.735 0.034,2.036 -0.025,0.881 c 0.53,5.598 0.611,10.809 -0.211,16.342 l -0.167,1.046 -0.152,2.381 0.024,0.683 z m -1.125,-38.076 0.264,0.585 0.304,0.242 1.012,0.458 0.501,0.039 1.457,-0.303 0.769,-0.391 0.89,-0.561 0.298,-0.55 0.28,-0.857 -0.11,-0.88 -0.281,-0.576 -0.568,-0.577 -0.636,-0.228 -1.87,-0.053 -0.866,0.288 -0.669,0.479 -0.666,1.072 -0.163,0.699 z m 6.857,8.912 -0.475,0.478 -0.217,0.115 -0.206,-0.047 -0.092,-0.238 c 0.57,-3.187 0.869,-5.66 0.587,-8.874 l -0.056,-0.142 -0.063,-0.007 -0.24,0.288 -0.113,0.453 c 0.168,1.6 -0.425,5.903 -1.309,7.322 l -0.243,0.117 -0.266,-0.017 -0.183,-0.183 -0.023,-0.266 0.528,-1.584 0.352,-1.701 0.059,-0.826 0.25,-2.137 -0.044,-0.233 -0.067,-0.068 -0.076,0.04 -0.143,0.446 -0.479,2.48 -0.711,1.953 -0.727,1.337 -0.321,0.33 -0.504,0.138 -0.24,-0.103 -0.078,-0.223 0.938,-1.76 0.464,-1.295 0.352,-1.444 -0.017,-0.198 -0.024,-0.025 -0.187,0.224 -1.278,2.296 -1.189,1.474 -0.218,0.113 -0.482,-0.049 -0.232,-0.073 -0.137,-0.151 0.185,-0.376 c 1.134,-0.745 2.094,-2.726 2.541,-3.947 l -0.047,-0.131 -0.09,-0.023 -0.455,0.395 -0.801,0.964 -0.557,0.624 -0.849,0.928 -0.476,0.408 -0.644,0.29 -0.296,0.026 -0.272,-0.076 -0.171,-0.17 0.027,-0.212 1.159,-0.944 1.457,-1.477 0.501,-0.693 0.015,-0.147 -0.066,-0.067 -0.146,0.015 -2.416,1.746 -0.85,0.344 -0.515,0.009 -0.249,-0.121 -0.13,-0.209 0.05,-0.232 0.422,-0.242 0.606,-0.266 1.248,-0.807 0.662,-0.512 0.156,-0.307 -0.148,-0.277 -0.493,-0.696 -0.158,-0.098 -0.182,-0.008 -0.55,0.326 -0.679,0.484 -0.869,0.888 -1.06,1.859 -0.087,0.781 0.063,0.822 0.405,1.043 0.531,0.93 0.458,0.401 1.212,0.834 1.246,0.508 1.202,0.258 0.713,-0.129 1.357,-0.393 0.58,-0.328 0.855,-0.01 0.245,0.113 0.227,0.39 0.119,1.081 0.191,0.398 0.308,1.158 0.4,1.053 0.598,0.863 0.716,0.764 0.255,0.312 1.191,0.546 1.401,0.352 0.836,0.024 1.368,-0.383 0.909,-0.541 0.981,-0.776 0.623,-0.823 0.555,-1.194 0.235,-1.226 -0.009,-1.452 -0.152,-0.757 -0.002,-0.009 0.068,-0.561 0.183,-0.183 0.538,-0.047 0.76,0.147 1.441,-0.024 1.337,-0.405 1.156,-0.593 0.488,-0.659 0.56,-1.487 0.257,-0.909 -0.013,-1.427 -0.673,-1.361 -0.575,-0.876 -0.762,-0.696 -1.084,-0.674 -1.561,-0.481 -1.013,-0.167 -1.297,0.164 -0.908,0.278 -0.132,0.098 -0.025,0.088 0.238,0.246 0.486,0.423 0.415,0.455 1.161,0.914 0.72,0.751 1.484,1.468 0.011,0.011 0.196,0.679 -0.077,0.426 -0.138,0.211 -0.224,0.123 -0.238,-0.062 -0.255,-0.391 -0.32,-0.557 -1.045,-1.006 -1.761,-1.761 -0.867,-0.616 -0.335,-0.265 -0.144,-0.015 -0.063,0.063 0.032,0.119 0.959,1.115 0.461,0.442 0.351,0.527 1.033,1.343 0.762,1.605 0.005,0.557 -0.249,0.69 -0.159,0.178 -0.2,0.038 -0.182,-0.109 -0.224,-0.427 -0.314,-1.141 -0.832,-1.516 -1.209,-1.729 -0.557,-0.632 -0.231,-0.375 -0.141,-0.13 -0.133,-0.022 -0.081,0.081 0.012,0.156 1.366,1.903 1.449,3.276 0.034,0.468 0.002,0.013 -0.339,0.873 -0.171,0.193 -0.235,0.074 -0.242,-0.074 -0.433,-0.505 -0.071,-0.211 0.069,-0.45 -0.111,-0.423 -0.472,-1.01 -0.421,-1.046 -0.988,-1.961 -0.392,-0.793 -0.129,-0.106 h -0.135 l -0.093,0.094 -0.011,0.156 0.414,0.756 0.695,1.379 0.578,1.792 0.309,2.044 0.002,0.013 -0.121,0.451 -0.458,0.529 -0.215,0.055 -0.196,-0.115 -0.101,-0.414 -0.078,-1.507 -0.385,-1.669 -0.378,-1.093 -0.335,-0.87 -0.049,-0.055 -0.008,0.009 0.004,0.804 0.129,1.35 0.019,2.037 0.133,1.061 -0.095,0.52 -0.282,0.37 -0.2,0.12 -0.226,0.019 -0.159,-0.159 -0.055,-0.864 -0.029,-0.848 -0.123,-0.767 -0.054,-0.826 -0.093,-0.798 -0.024,-0.848 -0.431,-2.208 -0.224,-0.343 -0.13,-0.029 -0.109,0.061 -0.054,0.13 0.12,1.548 0.154,0.679 c 0.08,1.493 0.043,3.151 0.068,4.669 l -0.111,0.239 -0.746,0.495 -0.243,0.038 -0.155,-0.156 -0.017,-0.261 0.28,-0.948 -0.029,-0.896 0.093,-1.093 0.098,-0.781 -0.304,-2.651 -0.212,-1.565 -0.104,-0.1 -0.082,0.019 -0.053,0.142 c 0.405,1.676 -0.042,5.039 -0.311,6.8 v 0.884 z m 22.992,-11.397 -0.5,-0.712 -0.312,-0.652 c -0.161,-0.159 -0.318,-0.322 -0.478,-0.48 l -1.049,0.515 -0.425,0.162 -0.124,0.125 -0.028,0.159 0.214,0.341 0.619,0.537 1.041,0.406 0.845,0.028 0.18,-0.082 0.063,-0.151 z M -28.532,8.829 c 0.077,-0.29 0.04,-0.57 -0.027,-0.854 -0.029,-0.127 -0.059,-0.261 -0.044,-0.387 0.033,-0.265 0.092,-0.527 0.143,-0.79 0.007,-0.037 0.035,-0.07 0.047,-0.106 0.035,-0.105 0.067,-0.209 0.099,-0.314 0.011,-0.037 0.014,-0.077 0.029,-0.113 0.183,-0.417 0.417,-0.797 0.765,-1.102 0.225,-0.197 0.41,-0.443 0.701,-0.557 0.2,-0.079 0.394,-0.175 0.599,-0.241 0.108,-0.035 0.235,-0.008 0.35,-0.028 0.151,-0.028 0.301,-0.033 0.451,-0.031 l -0.402,-0.212 -1.378,-0.381 -1.452,-0.015 -1.026,0.128 -0.018,0.002 -0.217,-0.105 -0.112,-0.214 -0.007,-0.27 0.35,-0.875 0.239,-1.808 -0.311,-1.449 c -0.897,-1.941 -2.679,-2.895 -4.781,-2.766 l -1.805,0.531 -0.885,0.564 -0.266,0.296 -0.237,0.632 c -0.368,0.442 -1.058,1.494 -1.507,0.489 l -0.174,-0.698 -0.257,-0.617 c -1.387,-2.026 -2.751,-3.042 -5.171,-3.599 l -1.195,0.033 -0.76,0.115 -1.285,0.468 -1.043,0.985 -0.275,0.584 -0.133,1.321 0.102,0.779 0.528,0.925 0.45,0.713 0.417,0.456 0.546,0.332 0.521,0.373 0.018,0.012 0.064,0.234 -0.063,0.223 -0.304,0.349 -0.411,0.211 -0.874,0.028 -2.172,0.463 -1.582,0.762 -0.427,0.428 -0.552,1.189 -0.243,1.813 0.211,1.249 0.263,0.6 0.489,0.372 0.482,0.707 1.234,0.793 1.54,0.513 1.222,0.243 1.974,-0.288 1.041,-0.426 0.585,-0.313 0.658,-0.213 0.492,-0.36 0.32,-0.551 0.929,-1.443 0.149,-0.314 -0.049,-0.048 -0.457,0.022 -1.022,0.455 -1.335,0.737 -0.538,0.103 -0.248,-0.106 -0.081,-0.224 0.087,-0.222 0.628,-0.638 1.083,-0.705 1.706,-0.639 0.473,-0.255 -0.209,-0.022 -0.53,0.093 -0.822,0.058 -1.315,0.152 -0.989,0.217 -0.506,0.052 -0.159,-0.158 0.022,-0.222 c 0.347,-0.978 2.277,-0.986 3.114,-1.165 l 1.163,-0.034 0.148,-0.061 0.007,-0.063 -0.117,-0.094 -2.496,-0.751 -0.815,-0.074 -0.52,-0.088 -0.022,-0.004 -0.156,-0.179 -0.018,-0.216 0.114,-0.196 0.458,-0.186 1.168,0.03 1.599,0.482 0.499,0.077 0.147,-0.057 0.026,-0.096 -0.091,-0.142 -0.63,-0.568 -0.788,-0.672 -1.119,-0.656 -0.357,-0.261 -0.206,-0.462 0.029,-0.273 0.18,-0.18 0.267,-0.013 0.407,0.228 0.83,0.354 0.434,0.475 0.91,0.568 0.764,0.705 0.338,0.228 0.077,-0.014 0.036,-0.114 -0.129,-0.433 -0.5,-0.664 -1.282,-1.38 -0.155,-0.497 0.056,-0.263 0.182,-0.183 0.262,-0.055 0.248,0.051 0.208,0.132 0.278,0.345 1.506,1.749 0.114,0.03 0.065,-0.064 -0.004,-0.165 -0.429,-0.78 -0.423,-1.09 0.063,-0.567 0.176,-0.176 h 0.229 l 0.341,0.285 0.833,1.281 0.951,2.308 0.123,0.232 0.041,-0.03 0.556,-1.508 0.107,-1.064 0.174,-0.456 0.377,-0.54 0.011,-0.017 0.235,-0.087 0.221,0.077 0.139,0.193 0.068,0.251 -0.406,2.196 -0.262,0.614 -0.359,1.111 0.011,0.081 0.08,0.016 0.155,-0.077 0.541,-0.652 0.504,-0.655 0.373,-0.807 0.417,-0.49 0.425,-0.235 0.28,-0.028 0.016,-0.001 0.242,0.111 0.099,0.233 -0.039,0.276 -0.26,0.659 -1.301,1.69 -0.498,0.395 -0.204,0.237 0.012,0.012 0.147,-0.019 0.403,-0.2 0.739,-0.448 0.933,-0.523 0.79,-0.688 0.014,-0.011 0.508,-0.087 0.012,-0.001 0.507,0.111 0.22,0.154 0.086,0.236 -0.053,0.233 -0.171,0.208 -0.534,0.381 -0.627,0.248 -0.58,0.311 -1.023,0.439 -0.719,0.441 -0.003,0.011 0.077,0.017 0.478,-0.093 1.287,-0.478 0.945,-0.538 0.417,-0.186 0.013,-0.006 0.53,0.02 0.438,0.213 0.023,0.012 0.073,0.221 -0.087,0.233 -0.362,0.285 -0.92,0.291 -0.681,0.201 -0.897,0.278 -1.923,0.698 -0.003,0.008 0.304,0.125 1.662,0.412 1.084,0.112 0.654,0.23 0.357,0.285 0.016,0.014 0.059,0.236 -0.107,0.228 -0.237,0.119 -1.041,-0.135 -1.026,-0.152 -0.842,-0.37 -0.443,-0.035 -0.097,0.097 0.011,0.149 0.122,0.143 0.4,0.21 1.89,1.35 0.401,0.525 0.012,0.015 0.007,0.217 -0.151,0.157 -0.245,0.034 -0.238,-0.068 -0.944,-0.571 -0.273,-0.329 -1.116,-0.657 -0.252,-0.048 -0.002,0.035 0.381,0.491 0.452,0.715 0.687,0.785 0.281,0.646 0.006,0.016 -0.039,0.248 -0.163,0.168 -0.234,0.018 -0.219,-0.083 -0.353,-0.314 -1.074,-1.572 -0.29,-0.198 0.184,0.97 0.04,0.643 -0.185,0.474 -0.215,0.1 -0.204,-0.092 -0.133,-0.203 -0.193,-0.724 -0.539,-1.52 -0.244,-0.599 -0.024,10e-4 -0.17,0.652 -0.053,0.833 -0.226,2.126 -0.206,0.45 -0.224,0.122 -0.3,0.025 -0.244,-0.105 -0.086,-0.226 0.368,-1.14 0.211,-1.547 -0.039,-1.739 -0.057,-0.058 -0.077,0.047 -0.652,1.121 -0.713,1.942 -0.441,1.042 -0.377,0.308 -0.213,-0.054 -0.085,-0.222 -0.004,-0.011 0.01,-0.274 0.607,-1.806 0.327,-1.158 0.362,-0.837 V 7.67 l -0.027,-0.027 -0.069,0.049 -0.214,0.403 -1.86,2.582 -0.304,0.284 -0.713,0.196 -0.108,0.14 -0.047,0.188 0.374,2.468 0.468,1.583 0.865,1.775 0.68,0.759 1.23,0.82 2.055,0.575 1.098,0.002 2.137,-0.504 1.663,-0.962 0.379,-0.474 0.723,-1.328 0.373,-1.931 -0.101,-0.485 -0.049,-1.178 0.084,-0.505 0.004,-0.022 0.179,-0.153 0.253,-0.08 0.009,-0.003 0.55,0.01 1.537,0.546 0.989,0.176 0.787,-0.032 c -0.04,-0.091 -0.084,-0.18 -0.122,-0.272 -0.073,-0.177 -0.12,-0.357 -0.17,-0.539 -0.103,-0.369 -0.289,-0.715 -0.308,-1.107 -0.002,-0.056 -0.028,-0.114 -0.053,-0.167 -0.1,-0.214 -0.114,-0.441 -0.122,-0.671 -0.006,-0.216 -0.02,-0.431 -0.029,-0.646 -0.005,-0.105 -0.028,-0.215 -0.002,-0.311 m 11.029,6.961 c 0.009,-0.044 -0.005,-0.118 -0.035,-0.136 -0.03,-0.019 -0.107,-0.002 -0.137,0.027 -0.247,0.236 -0.585,0.285 -0.874,0.431 -0.15,0.076 -0.315,0.127 -0.478,0.169 -0.284,0.072 -0.55,0.211 -0.851,0.221 -0.018,0.001 -0.036,0.015 -0.055,0.018 -0.205,0.039 -0.41,0.076 -0.614,0.115 -0.096,0.019 -0.199,0.023 -0.283,0.065 -0.16,0.08 -0.323,0.097 -0.497,0.083 -0.287,-0.021 -0.575,-0.032 -0.853,-0.121 -0.073,-0.024 -0.155,-0.026 -0.232,-0.031 -0.228,-0.018 -0.459,-0.007 -0.669,-0.128 -0.037,-0.021 -0.089,-0.017 -0.134,-0.026 -0.428,-0.076 -0.827,-0.235 -1.217,-0.423 -0.408,-0.198 -0.766,-0.467 -1.117,-0.746 l -0.005,0.084 -0.383,1.385 -0.341,0.566 -0.664,0.563 -0.607,0.296 -0.953,0.231 -0.007,0.001 -0.869,-0.022 -0.697,-0.191 -1.268,-0.792 -0.162,0.024 -0.141,0.12 -0.452,0.727 -0.643,0.567 -0.896,0.73 0.028,0.038 0.807,0.372 1.208,0.854 0.392,0.533 0.507,0.97 0.121,0.13 0.144,0.045 1.036,-0.103 1.453,0.031 1.624,0.465 1.287,0.507 0.162,0.008 0.101,-0.107 0.238,-1.524 0.506,-0.992 1.049,-1.042 0.972,-0.526 1.151,-0.051 1.156,0.358 0.395,0.171 0.141,-0.007 0.237,-0.282 0.627,-1.452 0.624,-0.85 0.206,-0.126 c -0.007,-0.037 -0.012,-0.076 -0.02,-0.114 -0.072,-0.363 -0.088,-0.74 -0.018,-1.113 m 6.306,6.432 c 0.051,-0.004 0.107,-0.009 0.151,-0.033 0.416,-0.231 0.835,-0.458 1.241,-0.704 0.137,-0.083 0.243,-0.215 0.362,-0.325 0.043,-0.039 0.077,-0.091 0.125,-0.122 0.157,-0.098 0.247,-0.249 0.338,-0.401 0.068,-0.112 0.139,-0.221 0.204,-0.334 0.176,-0.305 0.351,-0.612 0.523,-0.919 0.086,-0.154 0.178,-0.306 0.245,-0.468 0.051,-0.122 0.067,-0.259 0.098,-0.39 -0.026,-0.224 -0.003,-0.436 0.083,-0.64 0.034,-0.083 0.045,-0.178 0.048,-0.268 0.009,-0.229 -0.001,-0.459 0.011,-0.687 0.019,-0.349 -0.052,-0.675 -0.198,-0.99 -0.057,-0.124 -0.093,-0.257 -0.134,-0.388 -0.037,-0.112 -0.103,-0.138 -0.184,-0.055 -0.38,0.383 -0.854,0.622 -1.33,0.85 -0.251,0.121 -0.522,0.198 -0.784,0.296 -0.061,0.023 -0.125,0.044 -0.179,0.079 -0.092,0.059 -0.187,0.091 -0.296,0.084 -0.039,-0.002 -0.081,0.002 -0.116,0.015 -0.207,0.079 -0.413,0.162 -0.619,0.243 -0.055,0.022 -0.11,0.063 -0.164,0.061 -0.33,-0.013 -0.609,0.189 -0.931,0.207 -0.045,0.002 -0.095,0.014 -0.132,0.038 -0.177,0.109 -0.373,0.099 -0.569,0.111 -0.114,0.007 -0.235,0.032 -0.338,0.079 -0.16,0.074 -0.327,0.081 -0.497,0.1 -0.148,0.016 -0.293,0.051 -0.44,0.078 -0.038,0.007 -0.076,0.024 -0.115,0.023 -0.228,-0.006 -0.457,-0.007 -0.684,-0.026 -0.221,-0.019 -0.441,-0.054 -0.66,-0.089 -0.087,-0.014 -0.194,-0.024 -0.212,-0.139 -0.017,-0.11 0.05,-0.185 0.13,-0.248 0.092,-0.073 0.196,-0.109 0.311,-0.099 0.195,0.014 0.373,-0.033 0.554,-0.101 0.138,-0.051 0.292,-0.064 0.441,-0.088 0.197,-0.032 0.265,-0.085 0.241,-0.283 -0.043,-0.372 0.128,-0.643 0.378,-0.882 0.079,-0.076 0.17,-0.145 0.268,-0.193 0.261,-0.127 0.542,-0.071 0.724,0.159 0.132,0.168 0.244,0.356 0.341,0.548 0.059,0.116 0.129,0.168 0.256,0.163 0.145,-0.006 0.284,-0.023 0.417,-0.091 0.084,-0.044 0.185,-0.064 0.28,-0.073 0.134,-0.013 0.258,-0.04 0.369,-0.119 0.032,-0.023 0.069,-0.056 0.102,-0.055 0.179,0.01 0.325,-0.079 0.478,-0.148 0.136,-0.06 0.278,-0.107 0.418,-0.159 0.037,-0.013 0.075,-0.021 0.114,-0.028 0.038,-0.007 0.081,-0.002 0.116,-0.017 0.201,-0.09 0.402,-0.183 0.602,-0.276 0.041,-0.019 0.082,-0.054 0.123,-0.054 0.243,-0.005 0.445,-0.151 0.676,-0.194 0.025,-0.004 0.053,-0.011 0.074,-0.025 0.116,-0.081 0.243,-0.117 0.385,-0.126 0.064,-0.003 0.132,-0.05 0.187,-0.093 0.075,-0.059 0.083,-0.133 0.032,-0.225 -0.094,-0.171 -0.172,-0.349 -0.257,-0.524 -0.009,-0.018 -0.013,-0.038 -0.025,-0.054 -0.181,-0.255 -0.353,-0.516 -0.546,-0.762 -0.161,-0.206 -0.36,-0.379 -0.483,-0.617 -0.04,-0.078 -0.113,-0.148 -0.186,-0.199 -0.198,-0.139 -0.409,-0.257 -0.606,-0.398 -0.253,-0.181 -0.562,-0.201 -0.842,-0.303 -0.054,-0.02 -0.116,-0.019 -0.174,-0.024 -0.046,-0.002 -0.092,-0.003 -0.138,0 -0.273,0.024 -0.528,-0.12 -0.814,-0.057 -0.258,0.057 -0.533,0.036 -0.799,0.058 -0.122,0.012 -0.243,0.045 -0.363,0.072 -0.057,0.013 -0.11,0.048 -0.167,0.054 -0.241,0.026 -0.467,0.094 -0.693,0.186 -0.366,0.149 -0.721,0.323 -1.01,0.586 -0.169,0.153 -0.278,0.377 -0.396,0.58 -0.112,0.191 -0.218,0.39 -0.291,0.597 -0.092,0.256 -0.274,0.481 -0.266,0.77 0,0.019 -0.005,0.041 -0.015,0.057 -0.137,0.203 -0.121,0.435 -0.138,0.663 -0.01,0.142 -0.042,0.284 -0.078,0.422 -0.048,0.189 -0.052,0.376 -0.013,0.564 0.065,0.308 0.129,0.614 0.104,0.933 -0.006,0.072 0.019,0.158 0.059,0.22 0.07,0.11 0.092,0.227 0.11,0.352 0.017,0.121 0.059,0.239 0.092,0.357 0.027,0.095 0.056,0.187 0.083,0.281 0.005,0.018 0.002,0.04 0.01,0.057 0.181,0.387 0.296,0.799 0.529,1.172 0.245,0.388 0.563,0.701 0.861,1.038 0.33,0.373 0.701,0.704 1.157,0.921 0.159,0.075 0.323,0.14 0.491,0.191 0.298,0.088 0.582,0.242 0.908,0.201 0.019,-0.003 0.041,0 0.059,0.006 0.322,0.107 0.647,0.047 0.973,0.021 m 4.999,-2.405 0.428,0.763 0.557,1.524 0.286,2.367 0.116,1.35 0.617,3.201 0.32,0.83 0.008,0.001 0.068,-0.406 -0.309,-2.366 -0.063,-0.841 -0.089,-1.365 -0.256,-1.811 -0.123,-0.707 0.151,-1.311 0.164,-0.17 0.233,-0.012 0.409,0.227 1.27,1.112 0.799,0.978 0.347,0.523 0.702,0.76 1.665,0.997 0.735,0.736 0.391,0.837 0.467,2.173 0.158,1.63 0.093,0.795 0.024,0.854 c 0.609,7.97 2.1,15.963 2.33,23.898 l 0.151,0.433 0.036,0.026 0.043,-0.16 -0.088,-2.312 C 5.083,49.461 4.483,44.571 4.558,39.636 L 4.435,38.864 4.411,30.057 4.287,29.283 4.348,28.142 4.682,26.769 4.636,26.627 3.46,25.753 1.564,23.807 0.416,22.294 l -0.649,-1.11 -0.501,-0.664 -0.858,-0.589 -0.911,-0.272 -1.146,-0.641 -0.948,-0.84 -1.06,-1.452 c -0.158,0.182 -0.318,0.361 -0.475,0.543 -0.051,0.06 -0.095,0.125 -0.141,0.189 -0.21,0.292 -0.407,0.594 -0.634,0.873 -0.114,0.141 -0.188,0.299 -0.257,0.459 z m 1.208,14.791 0.018,0.199 0.494,1.268 0.516,0.943 0.453,0.407 0.173,0.021 0.164,-0.063 0.847,-0.909 0.404,-1.041 0.015,-1.125 -0.226,-0.925 -0.35,-0.41 h -0.36 l -0.566,-0.187 -0.148,0.072 -1.258,1.394 z m -3.313,-0.273 0.404,0.052 1.131,-0.063 0.573,-0.279 0.252,-0.296 0.099,-0.197 0.19,-0.163 0.73,-0.145 0.388,-0.453 0.271,-0.614 -0.008,-0.194 -0.097,-0.141 -0.62,-0.238 -1.65,0.281 -0.575,0.28 -0.41,0.448 -0.611,1.149 -0.093,0.468 z m 3.781,3.231 -0.702,-1.396 -0.407,-1.058 -0.128,-0.125 -0.187,-0.038 -1.482,0.292 -0.853,0.024 -0.152,0.095 -0.068,0.149 0.148,0.919 0.197,0.366 0.732,0.713 0.78,0.376 0.983,0.178 1.132,-0.028 0.096,-0.096 z M 8.07,46.292 7.588,44.732 6.999,43.871 6.479,43.296 6.406,43.304 5.999,43.745 5.58,44.183 l -0.142,0.725 0.156,1.316 0.058,0.923 0.055,0.096 0.831,0.31 0.572,0.305 0.496,0.09 0.233,-0.032 0.157,-0.098 0.128,-0.419 z m -0.948,-3.814 0.003,0.12 0.818,0.946 0.638,1.13 0.102,0.083 0.092,-0.016 0.644,-0.807 0.728,-0.495 0.846,-0.332 0.159,-0.111 0.036,-0.117 -0.083,-0.121 -0.967,-0.51 -0.924,-0.212 -1.548,0.172 -0.439,0.157 z M 5.918,63.032 5.859,61.38 5.76,60.232 5.737,58.791 5.618,58.016 5.608,57.414 5.55,57.267 H 5.523 l -0.091,0.437 0.092,1.103 -0.064,0.659 0.143,1.046 0.001,0.011 -0.114,0.512 -0.166,0.406 0.003,1.397 0.125,0.771 0.022,1.736 0.12,0.781 0.028,0.542 0.027,0.026 L 5.694,66.642 5.825,65.76 5.923,64.801 5.806,63.789 5.805,63.781 Z M 8.518,27.741 8.57,26.63 8.408,25.933 7.675,24.93 7.506,24.82 7.287,24.766 7.06,24.783 6.704,25.005 6.346,25.493 5.826,26.754 5.503,27.3 5.221,28.738 5.385,29.91 5.58,30.276 5.737,30.382 5.948,30.407 6.593,30.165 7.074,29.794 7.783,29.05 Z M 12.362,30.213 12.263,30.102 11.101,29.784 9.684,29.128 9.137,28.792 8.945,28.774 8.78,28.84 l -0.231,0.338 -0.305,0.579 -0.733,0.785 -0.719,0.46 -0.121,0.144 -0.029,0.168 0.065,0.167 0.512,0.357 0.883,0.275 0.992,0.165 0.155,-0.045 0.299,-0.286 0.188,-0.005 0.393,0.183 0.415,-0.07 0.793,-0.373 0.722,-0.723 0.303,-0.583 z m -3.076,-3.886 0.002,0.01 -0.122,1.005 0.245,0.586 0.253,0.308 1.48,0.844 0.917,0.274 0.25,0.022 0.203,-0.052 0.124,-0.127 0.159,-0.673 L 12.571,27.36 12.289,26.78 11.719,25.889 11.076,25.381 10.48,25.119 9.391,25.062 9.129,25.576 Z M 10.251,7.677 10.034,7.412 9.324,6.962 7.792,6.444 7.017,6.323 5.92,5.982 4.289,5.825 3.467,5.751 2.958,5.812 2.833,5.942 2.782,6.148 2.892,6.608 3.005,6.72 3.14,6.752 3.809,6.582 4.641,6.532 5.658,6.415 5.673,6.414 6.307,6.651 7.397,6.729 8.42,7.212 9.58,7.822 9.964,7.954 10.121,7.905 10.23,7.792 Z m 4.61,1.251 0.945,1.994 0.534,0.621 0.533,0.348 0.266,0.3 0.077,0.004 0.327,-0.488 0.276,-1.171 L 17.676,9.586 17.295,8.505 16.577,7.487 15.661,7.024 15.56,7.056 14.965,8.186 14.792,8.561 Z m -0.611,0.836 -0.08,-0.087 -0.093,0.018 -0.846,0.922 -1.192,0.891 -0.827,0.355 -0.112,0.111 v 0.127 l 0.401,0.447 1.07,0.667 1.522,0.528 1.399,-0.043 0.64,-0.23 0.151,-0.117 0.071,-0.161 -0.026,-0.173 -1.153,-1.506 -0.785,-1.295 z M 13.533,9.15 14.363,7.654 14.536,6.999 14.495,6.882 14.162,6.695 13.715,6.699 12.533,6.99 l -0.49,0.357 -0.679,0.797 -0.568,0.596 -0.257,0.604 -0.053,0.814 -0.025,0.523 0.088,0.17 0.172,0.088 0.538,0.014 0.638,-0.234 0.63,-0.523 z M -1.907,2.626 c -0.097,0.126 -0.09,0.179 0.027,0.283 0.038,0.035 0.086,0.059 0.129,0.089 0.101,0.071 0.213,0.132 0.301,0.216 0.297,0.287 0.598,0.571 0.874,0.876 0.312,0.345 0.56,0.739 0.76,1.16 0.037,0.076 0.095,0.146 0.113,0.226 0.061,0.274 0.212,0.522 0.22,0.81 0.001,0.05 0.033,0.099 0.046,0.15 C 0.589,6.53 0.628,6.625 0.629,6.72 0.638,7.283 0.643,7.846 0.633,8.408 0.631,8.548 0.571,8.687 0.536,8.825 0.521,8.882 0.481,8.937 0.483,8.992 0.488,9.284 0.408,9.555 0.322,9.831 c -0.067,0.217 -0.138,0.421 -0.278,0.596 -0.054,0.068 -0.08,0.136 -0.059,0.218 0.026,0.1 -0.015,0.172 -0.073,0.251 L -0.103,10.917 0.108,10.86 C 3.651,8.866 1.362,3.894 -1.466,2.42 L -1.705,2.398 c -0.068,0.075 -0.139,0.149 -0.202,0.228 m 20.531,8.605 -0.167,1.031 -0.002,0.016 -0.265,0.336 -0.322,0.265 -0.451,0.712 -1.099,0.722 -1.244,0.526 -0.093,0.078 0.004,0.087 0.565,0.889 0.204,0.708 0.004,0.016 -0.058,0.251 -0.673,0.564 -0.206,0.049 -0.155,-0.148 -0.05,-0.255 0.113,-0.732 -0.318,-1.42 -0.119,-0.121 -1.779,-0.262 -0.76,-0.46 L 10.757,13.306 9.836,12.492 9.704,12.468 9.193,12.756 8.407,13.448 7.734,13.704 7.723,13.708 7.2,13.684 6.762,13.435 6.658,13.204 6.698,12.949 6.885,12.775 7.548,12.8 7.94,12.664 8.455,12.279 9.676,11.749 9.737,11.607 9.47,10.137 9.468,10.125 9.595,9.396 9.435,9.013 8.982,8.611 7.557,8 C 1.818,6.695 3.631,8.677 1.56,11.021 L 1.1,11.443 0.07,11.929 -0.846,12.13 c -0.07,0.106 -0.156,0.201 -0.248,0.294 -0.282,0.282 -0.555,0.574 -0.834,0.86 -0.095,0.099 -0.192,0.196 -0.29,0.291 -0.121,0.12 -0.244,0.237 -0.365,0.356 -0.107,0.106 -0.213,0.213 -0.319,0.319 -0.26,0.259 -0.531,0.505 -0.854,0.686 -0.039,0.023 -0.072,0.057 -0.107,0.087 -0.311,0.27 -0.622,0.54 -0.932,0.813 -0.096,0.085 -0.189,0.174 -0.283,0.262 l 0.375,0.583 0.674,0.505 0.548,0.61 c 2.081,1.95 1.997,-0.871 4.289,3.699 l 1.564,2.25 0.752,0.714 1.139,0.914 0.601,0.271 0.476,0.025 0.346,-0.214 0.742,-0.731 1.238,-0.57 0.663,-0.201 0.012,-0.004 1.026,0.118 0.83,0.05 0.899,0.297 1.063,0.731 1.091,1.592 0.547,1.552 0.023,0.522 -0.136,0.761 0.033,0.559 0.08,0.172 0.355,0.198 1.043,0.45 0.693,0.496 0.126,0.222 0.042,0.268 -0.05,0.24 -0.297,0.379 -0.211,0.133 -0.201,-0.057 -0.205,-0.697 -1.132,-0.888 -0.39,-0.177 -0.154,0.004 -0.266,0.264 -0.541,0.662 -0.826,0.664 -1.158,0.594 -0.112,0.139 -0.062,0.5 0.005,0.593 -0.089,0.254 L 9.825,34.956 9.61,35.05 9.346,35.055 9.18,34.882 9.168,34.627 9.459,33.971 9.426,33.465 9.319,33.323 6.711,32.708 6.027,32.488 5.626,31.963 5.476,31.895 5.364,31.923 5.191,32.285 5.235,33.6 5.3,34.734 l 0.008,3.81 0.139,0.758 0.008,2.334 0.156,0.703 0.04,0.033 0.392,-0.351 0.493,-0.416 0.792,-0.389 1.571,-0.202 0.008,-0.001 1.296,0.197 1.58,0.802 0.429,0.499 0.248,0.319 0.14,0.046 0.371,-0.134 0.665,-0.265 0.582,0.02 0.247,0.12 0.092,0.209 -0.076,0.226 -0.354,0.281 -1.379,0.441 -0.811,0.068 -1.258,0.205 -0.575,0.281 -0.689,0.755 -0.379,0.772 -0.052,1.108 0.023,0.84 0.115,0.115 0.461,-0.022 0.886,-0.293 0.739,-0.421 0.364,-0.484 0.36,-0.803 0.155,-0.719 -0.04,-0.674 0.155,-0.181 0.248,-0.073 0.245,0.048 0.212,0.16 0.182,0.446 0.005,0.013 -0.035,0.819 -0.254,0.674 -0.692,1.075 -0.867,0.656 -0.809,0.383 -0.923,0.257 -0.128,0.099 -0.04,0.117 0.614,1.382 0.055,1.152 L 9.863,52.017 9.497,52.275 8.909,52.349 8.901,52.35 8.623,52.307 8.466,52.152 8.726,51.807 8.991,51.481 9.115,50.815 8.846,49.365 8.762,49.171 8.636,49.044 7.435,48.793 6.68,48.646 6.06,48.362 5.883,48.366 5.768,48.48 5.721,49.014 c 0.174,2.033 0.494,4.305 0.472,6.328 l 0.138,0.757 0.009,1.158 0.139,0.758 0.013,1.168 c 0.133,1.908 0.425,3.713 0.284,5.585 l 0.133,0.737 0.002,0.011 -0.393,1.996 -0.159,0.415 -0.199,1.286 -0.153,0.474 -0.183,0.148 H 5.58 L 5.162,69.582 4.836,68.988 4.617,68.328 4.368,67.817 4.287,66.549 4.326,65.648 C 3.875,62.654 5.023,59.674 4.44,56.696 L 4.351,55.898 4.179,53.428 C 4.119,50.856 3.647,48.345 3.527,45.824 L 3.404,45.056 3.35,43.936 3.256,43.141 3.203,42.022 C 2.81,39.908 2.668,37.558 2.466,35.389 L 2.372,34.594 2.319,33.476 2.076,31.94 2.053,30.5 1.935,29.73 1.782,28.406 1.733,27.584 1.449,27.013 0.475,25.95 l -1.126,-0.628 -2.045,-2.11 -0.275,-0.304 -0.395,-0.154 -0.123,0.04 -0.061,0.151 0.16,1.318 c -0.025,1.81 0.582,4.47 0.384,6.004 l -0.305,0.547 0.004,0.129 c 1.653,1.531 2.852,2.427 2.126,4.988 l -0.751,1.343 -0.481,0.697 -0.871,0.65 -0.806,0.352 -0.107,0.151 -0.056,0.436 0.121,3.425 0.03,4.381 0.133,0.775 -0.123,1.013 0.114,0.752 -0.011,2.063 -0.13,0.488 -0.149,0.19 -0.235,0.118 -0.245,-0.041 -0.173,-0.178 -0.19,-0.733 L -5.114,51.801 -4.985,50.8 -5,40.796 -5.268,39.309 -5.36,39.15 -5.761,38.997 -6.685,38.728 -8.276,37.962 -9.1,36.982 l -0.11,-0.057 -0.311,0.137 -1.213,0.87 -0.529,0.109 -1.154,-0.049 -0.24,-0.119 -0.103,-0.19 0.061,-0.214 0.348,-0.288 0.758,-0.163 0.675,-0.199 1.4,-0.64 0.179,-0.358 -0.077,-1.231 0.17,-0.748 0.487,-1.252 v -0.36 l 0.067,-0.113 0.471,-0.229 0.801,-0.682 1.052,-0.449 1.291,-0.189 0.164,-0.093 0.079,-0.174 L -4.861,29.77 -5.122,28.837 -5.579,26.641 -5.728,25.889 -5.782,24.497 -6.073,22.43 -6.52,21.126 -7.072,20.22 -7.531,19.704 c -0.086,0.204 -0.105,0.431 -0.242,0.613 -0.06,0.083 -0.095,0.185 -0.153,0.271 -0.12,0.178 -0.257,0.347 -0.37,0.53 -0.315,0.507 -0.691,0.952 -1.223,1.248 -0.046,0.024 -0.084,0.063 -0.128,0.09 -0.299,0.183 -0.577,0.41 -0.955,0.419 -0.076,0.003 -0.149,0.045 -0.224,0.069 -0.181,0.057 -0.355,0.135 -0.552,0.125 -0.209,-0.011 -0.419,-0.004 -0.627,-0.021 -0.167,-0.015 -0.336,-0.032 -0.5,-0.064 l -0.54,0.54 c -1.308,0.816 -3.484,0.677 -4.669,-0.282 l -0.12,-0.008 -0.211,0.268 c -0.464,1.62 -2.28,2.85 -3.97,2.367 l -0.058,0.057 0.09,0.376 0.392,0.787 0.131,0.044 1.236,-0.512 0.548,-0.048 1.292,0.197 0.988,0.511 0.883,0.933 0.663,1.105 0.342,1.164 0.082,0.78 0.27,0.279 1.088,0.669 0.013,0.007 0.431,0.781 0.3,0.88 0.005,0.015 -0.076,0.413 -0.389,0.578 -0.216,0.133 -0.208,-0.035 -0.076,-0.521 -0.038,-0.844 -0.26,-0.592 -0.734,-1.031 -0.166,-0.101 -0.167,-0.02 -0.342,0.21 -0.541,0.348 -0.914,0.291 -0.009,0.004 -0.86,-0.019 -0.648,-0.282 -0.697,-0.481 -0.882,-1.192 -0.344,-0.212 -0.809,-0.005 -0.366,0.181 -0.62,1.135 -0.746,1.022 -1.212,0.877 -1.599,0.508 -1.047,0.06 -0.504,-0.108 -0.195,0.039 -0.11,0.114 0.023,0.422 -0.015,0.448 -0.138,1.759 -0.569,1.413 c -1.008,2.308 -4.155,3.852 -6.6,3.406 l -1.183,-0.302 -1.035,-0.438 -1.124,-0.896 -0.075,0.025 -0.073,0.152 -0.083,1.225 -0.241,1.996 -0.054,0.833 -0.088,0.792 -0.044,0.955 -0.006,0.763 -0.245,1.228 -0.03,0.862 -0.122,0.75 0.034,1.145 0.075,0.074 0.118,-0.035 0.613,-0.579 1.519,-0.577 0.82,-0.092 0.008,-10e-4 1.038,0.151 0.153,-0.059 0.185,-0.378 -0.004,-0.463 -0.187,-0.382 -0.3,-0.315 -0.048,-0.237 0.234,-0.389 0.581,-0.375 0.233,0.013 0.325,0.294 0.15,0.414 0.052,1.206 -0.151,0.752 0.022,0.23 0.602,0.858 0.524,0.662 0.359,0.526 0.423,1.685 -0.005,0.877 0.161,0.39 0.486,0.355 1.21,0.253 0.23,0.123 0.111,0.213 0.007,0.269 -0.105,0.251 -0.383,0.267 -0.603,0.263 -0.185,-0.108 -0.307,-0.599 -0.478,-0.392 -0.305,-0.095 -0.264,0.215 -0.746,1.021 -0.915,0.589 -1.377,0.416 -1.174,0.011 -0.415,-0.052 -0.122,0.053 -0.287,0.564 -0.55,1.512 -0.263,0.364 -0.185,0.134 -0.696,-0.047 -0.24,-0.064 -0.176,-0.151 0.013,-0.222 0.291,-0.351 0.473,-0.402 0.432,-0.718 0.303,-0.823 -0.036,-0.155 -0.283,-0.271 -0.546,-0.362 -0.733,-0.765 -0.223,-0.322 -0.023,-0.002 -0.217,0.86 -0.284,1.763 -0.006,2.954 c -0.391,3.549 -0.495,7.556 -1.021,11.056 l -0.084,0.805 -0.353,2.001 -0.599,4.406 -0.05,1.363 -0.098,1.139 0.02,2.648 0.138,1.635 -0.064,0.827 -0.089,0.798 -0.263,1.815 -0.32,0.855 -0.313,0.321 -0.639,0.217 -0.013,0.004 -0.975,-0.115 -0.425,-0.231 -0.131,-0.5 0.021,-1.491 0.288,-1.767 0.055,-0.836 0.235,-1.527 0.055,-0.837 0.235,-1.234 0.157,-1.31 0.025,-1.165 0.25,-1.216 c -0.049,-3.192 0.729,-6.394 0.201,-9.576 l 0.118,-1.012 -0.094,-0.494 -0.08,-0.087 -0.076,0.008 -0.155,0.269 -0.176,0.24 -0.943,0.587 -1.73,0.623 -0.098,0.108 -0.155,1.32 -0.002,0.019 -0.294,0.347 -0.742,0.219 -0.269,-0.027 -0.165,-0.165 0.029,-0.217 0.52,-0.735 0.1,-0.397 -0.129,-0.348 -0.327,-0.24 -1.292,-0.484 -0.875,-0.6 -1.052,-1.634 -0.226,-0.693 -0.172,-1.282 -10e-4,-0.011 0.349,-1.456 0.546,-1.237 0.23,-0.36 0.059,-0.221 -0.019,-0.228 -0.085,-0.179 -0.355,-0.2 -0.537,-0.057 -0.259,-0.104 -0.073,-0.218 0.141,-0.208 1.074,-0.414 0.027,-0.011 0.359,0.206 0.531,0.678 0.17,0.09 0.481,-0.029 0.679,-0.226 1.257,-0.109 h 0.011 l 1.847,0.504 0.929,0.584 0.778,0.71 0.132,0.02 0.089,-0.096 0.034,-1.733 c 0.359,-2.879 1.275,-9.424 0.873,-12.07 l 0.147,-0.757 -0.092,-0.707 0.113,-1.042 -0.163,-1.324 -0.003,-3.226 -0.139,-0.758 0.031,-2.926 0.122,-0.751 -0.02,-1.155 -0.084,-0.157 -0.66,-0.216 -0.227,-0.036 -0.099,0.026 0.014,0.621 -0.066,0.258 -0.174,0.202 -0.242,0.057 -0.453,-0.079 -0.136,0.048 -0.202,0.345 -0.023,0.479 0.398,1.077 0.017,0.881 -0.19,1.281 -0.693,1.416 -0.677,0.801 -0.419,0.225 -1.001,-0.128 -0.409,0.156 -0.559,0.604 -0.212,0.08 -0.755,-0.12 -0.28,0.015 -0.188,0.072 -0.222,0.333 -0.519,0.964 -0.241,0.348 -0.192,0.139 -0.556,0.075 -0.494,-0.145 -0.198,-0.16 -0.111,-0.231 0.084,-0.226 0.737,-0.184 0.625,-0.825 0.106,-0.331 -1.293,-0.981 -0.405,-0.499 -0.855,-1.797 -0.198,-1.323 0.112,-0.813 0.331,-0.856 0.018,-0.242 -0.051,-0.202 -0.799,-0.642 -0.429,-0.106 -0.439,0.03 -0.154,-0.146 -0.029,-0.243 0.229,-0.416 0.402,-0.234 0.014,-0.009 h 0.565 l 0.388,0.241 0.634,0.864 0.172,0.057 0.193,-0.043 1.046,-0.73 1.136,-0.373 1.297,-0.188 h 0.008 l 0.827,0.092 1.519,0.561 0.549,0.337 0.167,0.025 0.333,-0.205 0.431,-0.451 0.037,-0.127 -0.066,-0.106 -1.12,-0.652 -0.864,-0.609 -0.958,-1.148 -0.415,-0.773 -0.472,-1.297 -0.005,-1.445 0.47,-1.337 0.746,-1.316 1.349,-1.348 1.276,-0.785 0.342,-0.222 0.166,-0.388 0.107,-0.767 0.442,-1.051 0.749,-0.757 0.941,-0.554 0.942,-0.27 1.052,-0.137 1.134,0.054 0.64,0.284 0.733,0.457 0.888,0.747 0.215,-0.189 0.797,-1.171 -0.035,-0.036 -1.667,-0.073 -1.576,-0.516 -0.989,-0.487 -0.575,-0.31 -1.322,-1.357 -0.744,-1.352 -0.42,-1.061 -0.645,-2.309 -0.184,-0.997 -0.081,-0.134 -0.113,-0.04 c -2.363,0.372 -3.575,0.702 -5.911,-0.421 l -0.969,-0.524 -0.972,-0.805 -0.718,-0.757 -0.369,-0.855 -0.422,-1.925 -0.003,-0.014 0.593,-2.352 0.438,-0.772 0.622,-0.851 0.827,-0.668 1.249,-0.553 1.368,-0.398 0.133,-0.112 0.039,-0.154 -0.236,-0.619 -0.609,-1.177 -0.302,-1.182 0.015,-1.152 0.476,-1.317 0.499,-0.702 1.046,-0.759 1.135,-0.636 2.169,-0.203 1.782,0.318 c 1.503,0.32 4.05,2.408 4.79,3.799 l 0.118,0.068 0.307,-0.098 0.664,-0.497 0.301,-0.875 0.917,-1.424 0.334,-0.831 -0.132,-1.582 0.179,-0.749 0.393,-0.786 0.548,-0.399 0.442,-0.173 1.002,0.125 c 3.361,0.037 7.674,-3.63 9.944,-5.903 l 0.373,-0.511 0.664,-0.518 2.577,-3.311 0.355,-0.519 0.313,-0.582 0.471,-0.693 0.638,-1.424 0.175,-0.18 0.578,-0.083 0.3,0.02 0.243,0.1 0.053,0.204 -0.889,1.826 -1.096,1.56 -2.444,3.162 -0.556,0.624 c -1.553,1.554 -3.133,2.934 -4.766,4.391 l -2.15,1.398 -0.797,0.378 -0.769,0.421 -1.726,0.646 -1.031,0.158 -1.448,0.015 -0.193,0.075 -0.133,0.133 -0.058,0.17 0.107,0.4 0.15,0.469 0.139,1.013 -0.276,0.636 -0.802,0.974 -0.195,0.409 v 0.172 l 0.089,0.089 0.449,-0.046 1.504,-0.117 1.069,0.104 0.646,0.161 0.277,-0.147 0.799,-0.682 0.913,-0.854 0.455,-0.436 1.287,-1.071 0.99,-0.79 0.539,-0.32 0.375,-0.779 0.723,-0.776 1.274,-0.811 0.528,-0.344 0.525,-0.631 1.082,-1.585 0.866,-0.905 1.51,-1.451 0.508,-0.362 1.274,-1.654 1.518,-2.326 0.547,-0.624 0.98,-1.359 0.531,-1.236 0.339,-0.321 0.012,-0.012 0.267,-0.056 0.236,0.1 0.114,0.253 -0.055,0.556 -0.375,0.845 -0.536,0.95 c -1.969,1.996 -3.345,5.344 -5.314,6.788 l -0.638,0.539 -0.771,0.683 -0.625,0.862 -0.448,0.442 -0.05,0.146 0.048,0.115 0.426,0.135 0.742,0.122 0.426,-0.123 0.653,-0.791 1.429,-2.12 0.698,-0.777 0.229,-0.25 c -0.01,-0.139 0.006,-0.278 0.065,-0.419 0.081,-0.192 0.172,-0.383 0.221,-0.583 0.029,-0.118 0.072,-0.2 0.159,-0.277 0.256,-0.229 0.547,-0.404 0.84,-0.577 0.323,-0.189 0.659,-0.326 1.032,-0.333 l 0.164,-0.154 1.26,-1.373 1.344,-2.482 0.948,-1.999 0.167,-0.182 0.534,-0.112 0.012,-0.002 0.55,0.118 0.062,0.217 -0.236,0.405 -0.477,0.7 -0.968,1.98 -0.998,1.95 -0.75,0.76 c 0.167,-0.013 0.333,-0.039 0.497,-0.087 0.068,-0.02 0.142,-0.03 0.212,-0.031 0.492,-0.009 0.982,-0.017 1.472,-0.026 l 0.43,-0.778 1.37,-1.881 0.554,-0.623 1.091,-1.257 0.714,-1.049 0.222,-0.367 0.01,-0.015 0.211,-0.108 0.905,-0.025 h 0.013 l 0.236,0.094 0.054,0.206 -0.853,1.574 -0.949,1.115 -1.483,1.717 0.018,0.092 0.885,0.555 0.155,0.047 0.14,-0.044 1.172,-1.178 1.184,-0.594 0.81,-0.652 1.297,-1.346 0.899,-1.165 0.571,-0.371 h 0.23 l 0.224,0.102 0.117,0.19 -0.145,0.432 -0.325,0.592 -1.16,1.505 -1.493,1.453 -0.798,0.424 -0.681,0.182 -0.564,0.581 -0.671,0.832 -0.018,0.005 c 0.107,0.05 0.216,0.072 0.334,0.081 0.174,0.015 0.352,0.036 0.518,0.089 0.152,0.049 0.299,0.089 0.459,0.085 0.204,-0.004 0.404,0.026 0.596,0.102 0.048,0.019 0.1,0.041 0.151,0.04 0.202,-0.004 0.386,0.05 0.562,0.146 0.01,0.006 0.023,0.008 0.033,0.011 l 0.808,-0.422 1.668,-0.41 1.432,-0.028 0.39,-0.161 0.704,-1.043 0.385,-0.514 0.911,-0.871 1.228,-0.827 0.489,-0.407 0.906,-0.555 1.44,-1.213 0.678,-0.256 0.226,0.018 0.338,0.305 0.117,0.407 -0.255,0.319 -0.917,0.596 -2.276,1.55 -0.659,0.522 -0.981,0.764 -0.775,0.991 -0.736,1.031 c 0.228,0.026 0.455,0.055 0.685,0.062 0.163,0.006 0.329,0.018 0.486,0.059 0.222,0.059 0.443,0.108 0.675,0.11 0.081,0.001 0.162,0.043 0.242,0.072 0.061,0.022 0.121,0.049 0.178,0.08 0.159,0.089 0.324,0.17 0.472,0.273 0.196,0.136 0.262,0.34 0.233,0.57 -0.054,0.441 -0.026,0.891 -0.162,1.322 -0.036,0.113 0,0.214 0.051,0.319 0.094,0.198 0.173,0.406 0.255,0.61 0.012,0.029 0.014,0.064 0.015,0.096 0.012,0.32 0.03,0.64 0.031,0.961 10e-4,0.202 -0.017,0.405 -0.041,0.606 -0.014,0.114 -0.045,0.23 -0.091,0.334 -0.068,0.155 -0.181,0.294 -0.23,0.453 -0.076,0.253 -0.193,0.467 -0.397,0.637 -0.109,0.091 -0.101,0.129 -0.004,0.245 0.055,0.065 0.114,0.127 0.162,0.197 0.094,0.141 0.216,0.243 0.368,0.314 0.048,0.022 0.092,0.05 0.137,0.079 0.384,0.25 0.741,0.532 1.074,0.841 l 0.207,-0.614 0.525,-0.944 0.03,-0.178 c -0.432,-1.536 -1.879,-0.633 -1.73,-1.787 l 0.189,-0.19 0.593,-0.037 0.45,0.182 0.821,0.696 0.51,0.64 0.101,0.037 1.08,-0.333 0.863,-0.024 0.96,0.239 0.584,0.32 0.726,0.774 0.297,0.929 0.172,1.022 10e-4,0.011 -0.139,0.776 -0.386,0.819 -0.028,0.158 0.775,1.464 0.012,0.023 -0.135,0.418 -0.29,0.377 -0.224,0.117 -0.21,-0.066 -0.17,-0.463 -0.163,-0.713 -0.242,-0.299 -0.167,-0.024 -1.071,0.393 -0.83,0.051 -0.118,0.115 -0.021,0.506 0.044,0.222 c 0.097,0.272 0.211,0.542 0.183,0.847 -0.007,0.084 0.045,0.174 0.072,0.259 0.023,0.075 0.069,0.148 0.073,0.222 0.006,0.14 0.021,0.278 0.034,0.417 l 0.425,0.067 0.801,0.083 0.637,0.269 0.806,0.692 0.486,0.398 0.372,0.554 0.402,0.962 0.007,0.019 -0.314,1.419 C 10.549,3.871 8.34,3.552 6.851,2.188 L 5.979,0.972 5.74,0.34 C 5.672,0.324 5.602,0.304 5.532,0.301 5.212,0.284 4.889,0.3 4.572,0.261 4.477,0.249 4.386,0.245 4.295,0.24 L 4.054,0.299 3.313,0.422 3.302,0.423 2.581,0.31 C 2.524,0.317 2.467,0.327 2.418,0.351 2.254,0.434 2.082,0.449 1.906,0.467 1.784,0.479 1.667,0.523 1.549,0.557 1.505,0.57 1.466,0.61 1.424,0.611 1.166,0.62 0.953,0.764 0.723,0.85 0.445,0.954 0.157,1.053 -0.09,1.231 -0.132,1.261 -0.18,1.293 -0.229,1.303 -0.404,1.335 -0.534,1.446 -0.67,1.548 -0.726,1.589 -0.782,1.629 -0.837,1.671 l 0.101,0.121 1.49,1.181 1.389,1.533 0.434,0.115 2.054,0.022 1.971,0.394 2.241,0.716 1.226,0.546 0.577,0.299 0.474,0.075 0.4,-0.158 1.553,-0.81 1.329,-0.162 0.402,-0.156 0.068,-0.147 -0.015,-0.619 0.107,-0.362 -0.072,-0.753 -10e-4,-0.011 0.169,-0.76 0.142,-0.219 0.197,-0.083 0.195,0.117 0.235,0.728 0.084,0.802 -0.025,1.188 -0.076,0.445 0.05,0.125 0.928,0.52 0.746,0.753 0.745,1.348 0.368,0.811 0.063,1.161 z" fill="#181716" transform="matrix(1.33333 0 0 -1.33333 70.798 128.19)"/><path style="mix-blend-mode:multiply" d="m 0,0 c -0.031,-0.01 -0.061,-0.024 -0.09,-0.038 -0.185,-0.091 -0.377,-0.143 -0.587,-0.14 -0.095,0.001 -0.204,-0.015 -0.282,-0.063 -0.127,-0.077 -0.256,-0.083 -0.393,-0.092 -0.202,-0.013 -0.407,-0.025 -0.601,-0.074 -0.322,-0.08 -0.645,-0.109 -0.974,-0.097 -0.143,0.005 -0.287,0.03 -0.431,0.026 -0.32,-0.011 -0.641,-0.033 -0.941,0.117 -0.011,0.006 -0.025,0.009 -0.025,0.009 -0.272,0.009 -0.511,0.082 -0.742,0.198 -0.085,0.043 -0.184,0.081 -0.281,0.019 -0.096,-0.06 -0.173,-0.04 -0.236,0.052 -0.018,0.025 -0.048,0.041 -0.098,0.084 -0.05,-0.056 -0.085,-0.101 -0.124,-0.143 -0.116,-0.124 -0.227,-0.254 -0.349,-0.37 -0.261,-0.247 -0.576,-0.251 -0.901,-0.176 -0.153,0.035 -0.177,0.093 -0.203,0.248 -0.065,0.394 0.103,0.729 0.256,1.067 0.075,0.164 0.202,0.287 0.355,0.385 0.034,0.022 0.041,0.086 0.061,0.129 -0.045,0.016 -0.1,0.056 -0.136,0.043 C -6.971,1.09 -7.245,1.03 -7.42,0.809 -7.548,0.647 -7.65,0.461 -7.756,0.282 -7.836,0.146 -7.891,0.001 -7.909,-0.16 -7.92,-0.267 -7.976,-0.3 -8.052,-0.259 c -0.142,0.078 -0.282,0.164 -0.418,0.253 -0.101,0.065 -0.141,0.16 -0.134,0.285 0.016,0.314 0.044,0.616 0.149,0.922 0.116,0.333 0.337,0.568 0.559,0.815 0.249,0.276 0.583,0.44 0.879,0.652 0.176,0.127 0.373,0.24 0.618,0.199 0.076,-0.013 0.168,0.024 0.243,0.059 0.183,0.086 0.37,0.123 0.571,0.117 0.243,-0.007 0.486,-0.016 0.726,0.005 0.278,0.025 0.507,-0.022 0.646,-0.289 0.003,-0.006 0.008,-0.01 0.012,-0.015 0.047,-0.056 0.096,-0.057 0.152,-0.008 0.186,0.163 0.389,0.307 0.521,0.524 0.026,0.043 0.071,0.076 0.113,0.107 0.338,0.258 0.686,0.503 1.013,0.773 0.337,0.277 0.741,0.408 1.13,0.576 0.029,0.012 0.063,0.017 0.095,0.022 0.168,0.024 0.337,0.044 0.505,0.073 0.071,0.011 0.142,0.03 0.206,0.059 0.118,0.054 0.134,0.134 0.032,0.205 -0.094,0.064 -0.205,0.134 -0.313,0.14 C -1.041,5.232 -1.336,5.219 -1.63,5.209 -1.698,5.206 -1.767,5.169 -1.833,5.142 -2.026,5.061 -2.209,4.945 -2.41,4.9 -2.657,4.846 -2.86,4.719 -3.049,4.575 -3.397,4.31 -3.728,4.022 -4.064,3.741 -4.138,3.678 -4.211,3.644 -4.312,3.65 -4.716,3.677 -5.122,3.698 -5.527,3.711 -5.629,3.714 -5.738,3.694 -5.833,3.657 -6.037,3.575 -6.246,3.539 -6.464,3.531 -6.539,3.529 -6.614,3.496 -6.687,3.472 -6.784,3.438 -6.88,3.398 -6.976,3.361 -7.048,3.332 -7.121,3.305 -7.193,3.274 -7.253,3.248 -7.308,3.203 -7.37,3.193 -7.605,3.153 -7.794,3.027 -7.978,2.891 -8.068,2.825 -8.149,2.748 -8.24,2.683 -8.601,2.433 -8.799,2.048 -9.046,1.704 -9.053,1.693 -9.061,1.682 -9.063,1.669 -9.093,1.453 -9.238,1.292 -9.331,1.105 -9.373,1.02 -9.415,0.924 -9.419,0.831 -9.434,0.544 -9.437,0.256 -9.429,-0.032 c 0.003,-0.085 0.037,-0.182 0.088,-0.251 0.106,-0.141 0.23,-0.268 0.351,-0.398 0.25,-0.272 0.564,-0.374 0.924,-0.311 0.143,0.026 0.255,0.018 0.339,-0.114 0.024,-0.037 0.065,-0.068 0.105,-0.088 0.156,-0.081 0.314,-0.157 0.471,-0.234 0.213,-0.106 0.426,-0.101 0.645,-0.011 0.387,0.157 0.694,0.415 0.948,0.741 0.087,0.115 0.126,0.12 0.242,0.039 0.043,-0.03 0.081,-0.066 0.121,-0.1 0.145,-0.127 0.3,-0.229 0.499,-0.252 0.077,-0.01 0.147,-0.053 0.223,-0.075 0.105,-0.03 0.21,-0.068 0.318,-0.078 0.118,-0.012 0.228,-0.032 0.336,-0.09 0.088,-0.049 0.195,-0.082 0.295,-0.084 0.445,-0.009 0.892,-0.022 1.336,0.002 0.356,0.019 0.707,0.095 1.024,0.281 0.044,0.026 0.1,0.051 0.148,0.048 0.21,-0.012 0.376,0.102 0.55,0.188 0.274,0.136 0.508,0.324 0.642,0.609 0.031,0.066 0.065,0.166 0.036,0.216 C 0.164,0.089 0.072,0.024 0,0" fill="#181716" transform="matrix(1.33333 0 0 -1.33333 57.74 133.851)"/><path style="mix-blend-mode:multiply" d="M 0,0 C -0.112,0.19 -0.233,0.375 -0.366,0.552 -0.447,0.66 -0.555,0.75 -0.655,0.844 -0.864,1.041 -1.116,1.137 -1.426,1.151 -1.473,1.143 -1.545,1.137 -1.614,1.119 -1.853,1.055 -1.914,0.829 -1.738,0.656 -1.649,0.569 -1.547,0.497 -1.454,0.415 -1.371,0.341 -1.283,0.27 -1.213,0.184 -1.121,0.07 -1.162,-0.025 -1.303,-0.058 -1.379,-0.075 -1.46,-0.084 -1.526,-0.119 -2.01,-0.379 -2.497,-0.628 -3.03,-0.772 c -0.031,-0.007 -0.057,-0.03 -0.088,-0.041 -0.085,-0.034 -0.171,-0.065 -0.256,-0.095 -0.117,-0.042 -0.233,-0.085 -0.35,-0.124 -0.198,-0.066 -0.393,-0.161 -0.595,-0.184 -0.346,-0.038 -0.647,-0.251 -1.004,-0.232 -0.029,10e-4 -0.06,-0.024 -0.091,-0.033 -0.136,-0.042 -0.272,-0.087 -0.409,-0.123 -0.095,-0.025 -0.201,-0.021 -0.289,-0.059 -0.192,-0.084 -0.391,-0.09 -0.595,-0.103 -0.182,-0.012 -0.366,-0.031 -0.542,-0.074 -0.218,-0.054 -0.435,-0.086 -0.66,-0.085 -0.229,0 -0.463,0.02 -0.686,-0.019 -0.283,-0.049 -0.558,-0.094 -0.846,-0.037 -0.166,0.033 -0.339,0.026 -0.508,0.036 -0.3,0.017 -0.601,0.051 -0.9,0.045 -0.168,-0.004 -0.327,0.004 -0.482,0.058 -0.182,0.064 -0.368,0.084 -0.56,0.08 -0.088,-10e-4 -0.177,0.031 -0.265,0.054 -0.106,0.027 -0.209,0.083 -0.315,0.09 -0.276,0.016 -0.528,0.086 -0.744,0.264 -0.056,0.044 -0.132,0.101 -0.19,0.03 -0.039,-0.047 -0.042,-0.131 -0.041,-0.199 0,-0.041 0.028,-0.09 0.059,-0.121 0.2,-0.203 0.391,-0.425 0.696,-0.48 0.045,-0.008 0.085,-0.033 0.129,-0.049 0.249,-0.093 0.503,-0.177 0.748,-0.283 0.165,-0.071 0.332,-0.11 0.509,-0.131 0.088,-0.01 0.17,-0.061 0.256,-0.089 0.098,-0.033 0.195,-0.077 0.296,-0.087 0.512,-0.049 1.027,-0.087 1.54,-0.132 0.124,-0.011 0.246,-0.044 0.369,-0.054 0.202,-0.015 0.404,-0.029 0.605,-0.028 0.21,0.002 0.418,0.028 0.627,0.031 0.23,0.002 0.454,0.035 0.679,0.085 0.222,0.049 0.452,0.064 0.678,0.095 0.116,0.016 0.233,0.028 0.346,0.055 0.177,0.04 0.353,0.092 0.529,0.14 0.069,0.019 0.137,0.043 0.205,0.061 0.113,0.028 0.226,0.054 0.339,0.08 0.089,0.019 0.18,0.028 0.267,0.053 0.306,0.086 0.611,0.178 0.916,0.267 0.025,0.007 0.052,0.005 0.078,0.012 0.038,0.01 0.075,0.022 0.112,0.035 0.135,0.046 0.27,0.093 0.404,0.139 0.05,0.018 0.098,0.037 0.147,0.056 0.096,0.034 0.192,0.071 0.29,0.103 0.049,0.017 0.103,0.02 0.151,0.04 0.233,0.099 0.467,0.197 0.698,0.304 0.224,0.103 0.451,0.206 0.665,0.331 0.122,0.07 0.22,0.182 0.329,0.276 0.125,0.109 0.23,0.079 0.274,-0.08 0.007,-0.026 0.011,-0.052 0.014,-0.078 0.015,-0.129 0.077,-0.232 0.161,-0.329 0.108,-0.123 0.21,-0.25 0.313,-0.378 0.125,-0.157 0.278,-0.138 0.349,0.05 C 0.461,-1.28 0.419,-0.927 0.307,-0.59 0.238,-0.382 0.113,-0.191 0,0" fill="#181716" transform="matrix(1.33333 0 0 -1.33333 60.176 118.256)"/><path style="mix-blend-mode:multiply" d="m 0,0 c -0.246,0.055 -0.484,0.006 -0.713,-0.07 -0.189,-0.063 -0.363,-0.173 -0.55,-0.246 -0.301,-0.117 -0.558,-0.303 -0.822,-0.483 -0.194,-0.133 -0.276,-0.326 -0.376,-0.513 -0.049,-0.091 -0.007,-0.164 0.091,-0.2 0.082,-0.031 0.154,-0.01 0.219,0.042 0.143,0.115 0.283,0.233 0.427,0.346 0.072,0.055 0.145,0.111 0.226,0.151 0.243,0.125 0.5,0.224 0.733,0.365 0.201,0.122 0.42,0.123 0.647,0.191 0.029,-0.121 0,-0.199 -0.053,-0.267 -0.104,-0.134 -0.2,-0.278 -0.323,-0.393 -0.146,-0.137 -0.311,-0.256 -0.527,-0.27 -0.044,-0.003 -0.124,-0.04 -0.123,-0.059 0.002,-0.052 0.026,-0.116 0.064,-0.149 0.083,-0.074 0.187,-0.08 0.297,-0.061 0.224,0.04 0.413,0.151 0.603,0.27 0.303,0.19 0.504,0.453 0.591,0.798 0.016,0.064 0.011,0.144 -0.013,0.206 C 0.33,-0.158 0.195,-0.044 0,0" fill="#181716" transform="matrix(1.33333 0 0 -1.33333 41.336 109.6)"/><path style="mix-blend-mode:multiply" d="m 0,0 c -0.09,0.011 -0.184,0.014 -0.274,0.002 -0.165,-0.02 -0.323,-0.003 -0.484,0.044 -0.097,0.028 -0.205,0.013 -0.309,0.02 -0.103,0.006 -0.206,0.011 -0.31,0.022 -0.129,0.013 -0.257,0.041 -0.387,0.047 -0.169,0.008 -0.339,0 -0.509,0 -0.196,0 -0.393,0.011 -0.588,0 C -3.26,0.112 -3.655,0.09 -4.043,0.218 -4.172,0.262 -4.26,0.157 -4.22,0.027 c 0.03,-0.097 0.105,-0.149 0.194,-0.18 0.326,-0.114 0.651,-0.228 0.978,-0.334 0.066,-0.023 0.143,-0.017 0.214,-0.018 0.19,-0.002 0.38,-0.001 0.478,-0.001 0.465,-0.013 0.838,-0.028 1.201,0.094 0.053,0.018 0.116,0.014 0.174,0.024 0.224,0.038 0.45,0.075 0.675,0.118 0.108,0.021 0.218,0.045 0.322,0.084 0.037,0.013 0.071,0.07 0.08,0.112 C 0.099,-0.055 0.036,-0.004 0,0" fill="#181716" transform="matrix(1.33333 0 0 -1.33333 64.297 143.476)"/><g style="mix-blend-mode:multiply"><path style="mix-blend-mode:multiply" d="m 0,0 c -0.37,-0.093 -0.682,-0.034 -0.921,0 -0.239,0.034 -0.921,-0.307 -1.125,-0.341 -0.205,-0.034 -0.512,-0.273 -0.785,-0.58 -0.273,-0.307 -0.444,-0.477 -0.478,-0.818 -0.034,-0.341 0.068,-0.819 -0.034,-0.887 -0.102,-0.069 -0.444,-0.069 -0.75,-0.069 -0.308,0 -0.444,0.035 -0.989,-0.204 -0.546,-0.239 -0.751,-0.376 -1.092,-0.546 -0.341,-0.171 -0.511,0 -1.091,-0.546 -0.58,-0.546 -0.716,-0.546 -0.853,-1.091 -0.136,-0.546 -0.102,-0.342 -0.205,-0.955 -0.102,-0.614 -0.136,-1.262 0.274,-1.535 0.409,-0.273 0.989,-0.682 1.227,-0.716 0.239,-0.034 0.853,-0.342 1.091,-0.308 0.239,0.035 1.364,-0.238 1.74,-0.273 0.375,-0.034 0.955,-0.102 1.262,-0.102 0.307,0 0.99,0 1.296,0.034 0.308,0.034 0.887,0.068 1.297,0.137 0.409,0.068 0.92,-0.069 1.398,-0.034 0.477,0.034 1.501,0.238 1.808,0.273 0.307,0.034 0.751,-0.069 1.057,-0.035 0.307,0.035 1.058,0.171 1.262,0.205 0.205,0.034 0.648,0.137 0.887,0.103 0.238,-0.034 0.375,0 0.716,-0.069 0.341,-0.068 0.648,-0.034 0.955,-0.068 0.307,-0.034 0.751,-0.136 1.16,-0.102 0.41,0.034 0.989,-0.034 1.33,0 0.342,0.034 0.717,0 0.989,0.068 0.273,0.068 0.819,0.137 1.126,0.341 0.307,0.205 0.136,-0.034 0.511,0.375 0.375,0.41 0.444,0.137 0.614,0.648 0.171,0.512 0.239,0.307 0.342,0.819 0.102,0.511 0.17,0.511 0.136,0.955 -0.034,0.443 -0.136,0.92 -0.307,1.228 -0.171,0.306 -0.239,0.409 -0.341,0.579 -0.103,0.171 -0.239,0.205 -0.205,0.581 0.034,0.375 0.068,0.273 0.136,0.614 0.069,0.341 0.103,0.205 0.069,0.511 -0.034,0.308 -0.137,0.478 -0.205,0.683 -0.068,0.204 -0.136,0.136 -0.375,0.34 -0.239,0.205 -0.955,0.341 -1.091,0.376 -0.137,0.034 -0.842,-0.02 -0.955,-0.102 C 10.369,-0.887 10.335,-0.887 10.028,-0.955 9.721,-1.023 9.005,-0.989 8.664,-1.057 8.322,-1.125 7.64,-1.16 7.333,-1.16 c -0.307,0 -1.194,0 -1.534,-0.034 -0.342,-0.034 -1.774,-0.239 -1.978,-0.17 -0.205,0.068 -1.297,-0.034 -1.502,-0.034 -0.205,0 -1.057,0.102 -1.262,0.102 -0.204,0 -0.204,-0.102 -0.512,0.239 C 0.239,-0.716 0.136,0.034 0,0" fill="#ed6a00" fill-rule="evenodd" transform="matrix(1.33333 0 0 -1.33333 57.38 137.513)"/></g></g><path style="mix-blend-mode:multiply" d="M 0,0 H 67.294 V 116.026 H 0 Z" fill="none" stroke="#181716" stroke-width="1.605" stroke-miterlimit="10" transform="matrix(1.33333 0 0 -1.33333 1.07 155.771)"/></svg>