<svg xmlns="http://www.w3.org/2000/svg" width="91.865" height="156.841"><path style="mix-blend-mode:multiply" d="m 291.625,157.249 h 67.294 v 116.025 h -67.294 z" fill="#fff" transform="matrix(1.33333 0 0 -1.33333 -387.764 365.436)"/><g style="mix-blend-mode:multiply"><g style="mix-blend-mode:multiply"><path style="mix-blend-mode:multiply" d="M 0,0 C -0.333,-0.033 -0.955,-0.298 -1.006,-0.4 -1.057,-0.503 -1.33,-0.665 -1.534,-0.921 -1.739,-1.177 -1.808,-1.5 -1.995,-1.739 c -0.188,-0.239 -0.529,-1.475 -0.597,-1.646 -0.068,-0.171 -0.102,-0.819 -0.12,-0.99 -0.017,-0.17 0.086,-1.696 0.103,-1.919 0.017,-0.221 0.75,-1.389 0.836,-1.509 0.084,-0.119 0.425,-0.46 0.579,-0.528 0.154,-0.068 0.938,-0.409 1.058,-0.427 0.119,-0.016 0.699,-0.034 0.818,-0.016 0.12,0.016 0.597,0.102 0.734,0.221 0.136,0.12 0.767,0.392 0.835,0.545 0.068,0.154 0.392,0.512 0.495,0.785 0.102,0.273 0.324,1.074 0.341,1.194 0.017,0.119 -0.29,3.581 -0.273,3.854 0.017,0.273 -0.776,1.434 -0.998,1.586 C 1.595,-0.435 0.989,-0.12 0.87,-0.102 0.75,-0.085 0.17,0.017 0,0" fill="#75b726" fill-rule="evenodd" transform="matrix(1.33333 0 0 -1.33333 54.379 74.764)"/></g><g style="mix-blend-mode:multiply"><path style="mix-blend-mode:multiply" d="m 0,0 c -0.303,-0.101 -0.869,-0.461 -0.992,-0.496 -0.125,-0.036 -0.479,-0.302 -0.781,-0.656 -0.301,-0.355 -0.69,-0.762 -0.885,-1.099 -0.196,-0.337 -0.479,-1.063 -0.55,-1.187 -0.071,-0.124 -0.408,-1.01 -0.408,-1.241 0,-0.23 -0.035,-0.814 -0.035,-1.063 0,-0.248 0.301,-1.488 0.407,-1.843 0.107,-0.354 0.834,-1.081 0.94,-1.276 0.106,-0.195 0.55,-0.62 0.816,-0.744 0.265,-0.124 1.098,-0.39 1.293,-0.461 0.195,-0.071 0.868,-0.373 1.169,-0.337 0.302,0.036 1.099,-0.036 1.631,0 0.532,0.036 1.063,0.177 1.311,0.248 0.249,0.071 0.762,0.55 0.851,0.621 0.089,0.07 -0.16,1.116 0.071,1.595 0.231,0.478 0.496,1.08 0.62,1.311 0.124,0.23 0.567,0.797 0.709,0.869 0.142,0.07 1.258,0.619 1.401,0.744 0.141,0.124 0.23,0.656 0.194,0.815 -0.035,0.159 -0.39,1.542 -0.46,1.754 C 7.23,-2.233 6.84,-1.577 6.734,-1.489 6.627,-1.401 5.831,-0.779 5.635,-0.549 5.44,-0.319 4.944,-0.017 4.678,0.017 4.413,0.053 3.491,0.319 3.313,0.355 3.137,0.39 2.64,0.39 2.392,0.425 2.144,0.461 1.736,0.461 1.506,0.461 1.276,0.461 0.638,0.23 0.461,0.213 0.283,0.195 0.106,0.035 0,0" fill="#75b726" fill-rule="evenodd" transform="matrix(1.33333 0 0 -1.33333 35.663 86.589)"/></g><g style="mix-blend-mode:multiply"><path style="mix-blend-mode:multiply" d="m 0,0 c -0.068,-0.251 -0.119,-0.7 -0.17,-0.785 -0.052,-0.085 -0.035,-0.682 -0.035,-0.818 0,-0.136 -0.017,-0.563 0.051,-0.768 0.069,-0.204 0.444,-0.87 0.512,-0.989 0.069,-0.119 0.717,-0.768 0.819,-0.802 0.102,-0.034 0.716,-0.391 0.835,-0.425 0.12,-0.035 1.041,-0.239 1.365,-0.274 0.324,-0.034 1.244,-0.136 1.33,-0.068 0.085,0.068 1.228,0.239 1.535,0.342 0.307,0.102 1.177,0.698 1.569,0.954 0.392,0.256 2.047,1.808 2.166,2.047 0.12,0.238 0.29,0.426 0.46,0.665 0.171,0.239 0.699,1.194 0.734,1.382 0.034,0.187 0.136,0.989 0.188,1.21 0.05,0.222 -0.034,1.433 -0.137,1.672 C 11.12,3.582 10.897,4.093 10.795,4.161 10.693,4.23 10.181,4.605 9.977,4.69 9.772,4.775 9.192,4.962 9.073,5.014 8.953,5.065 8.681,5.082 8.493,5.116 8.306,5.15 7.913,5.15 7.606,5.099 7.299,5.048 7.01,5.048 6.669,4.912 6.328,4.775 5.235,4.435 5.031,4.366 4.826,4.298 4.281,3.957 4.127,3.905 3.973,3.855 3.326,3.343 3.087,3.223 2.848,3.104 2.132,2.609 1.842,2.421 1.552,2.234 0.887,1.568 0.716,1.398 0.545,1.228 0.409,0.87 0.256,0.648 0.102,0.427 0.051,0.188 0,0" fill="#75b726" fill-rule="evenodd" transform="matrix(1.33333 0 0 -1.33333 28.66 72.82)"/></g><g style="mix-blend-mode:multiply"><path style="mix-blend-mode:multiply" d="m 0,0 -0.878,-0.009 -1.489,-0.055 -0.427,-0.161 -1.989,-0.663 -0.501,-0.384 -0.325,-0.559 0.024,-0.201 0.118,-0.182 1.307,-1.067 0.766,-0.706 1.15,-2.093 0.359,-1.13 0.132,-0.142 0.192,-0.01 0.197,0.084 0.794,0.703 1.195,0.573 0.992,0.187 2.334,0.024 1.561,0.206 0.181,0.114 0.119,0.182 0.054,0.52 -0.123,0.487 -1.031,1.621 -0.325,0.264 -0.417,0.467 -0.786,0.688 -1.739,0.914 z" fill="#fc0" transform="matrix(1.33333 0 0 -1.33333 47.57 115.03)"/></g><g style="mix-blend-mode:multiply"><path style="mix-blend-mode:multiply" d="m 0,0 -1.759,-0.28 -1.502,-0.561 -1.208,-0.56 -0.674,-0.505 -0.815,-0.659 -0.692,-1.076 -0.28,-0.624 0.034,-0.495 0.123,-0.119 0.167,-0.019 1.08,0.024 1.327,-0.44 1.527,-0.831 0.967,-0.801 0.688,-0.786 0.339,-0.544 0.286,-0.324 0.22,-0.05 0.226,0.05 1.543,1.134 0.991,0.481 1.572,0.492 1.872,0.485 0.534,0.353 0.163,0.404 -0.074,0.461 -0.333,0.86 -0.801,0.968 -1.743,1.793 -1.145,0.624 -1.115,0.357 z" fill="#fc0" transform="matrix(1.33333 0 0 -1.33333 24.76 110.425)"/></g><g style="mix-blend-mode:multiply"><path style="mix-blend-mode:multiply" d="m 0,0 -0.761,-0.132 -0.854,-0.031 -1.454,-0.313 -0.403,-0.192 -0.127,-0.177 -0.065,-0.466 0.093,-0.207 0.665,-0.82 0.642,-0.536 0.384,-0.501 0.653,-0.82 0.545,-1.224 0.403,-1.659 0.166,-0.128 0.251,-0.044 2.083,0.02 1.901,-0.153 1.468,-0.515 0.163,0.059 0.143,0.151 0.181,0.422 0.117,0.768 0.128,1.031 -0.334,1.71 -0.53,0.942 L 4.76,-2.038 3.459,-0.983 2.467,-0.501 1.572,-0.216 0.012,0 Z" fill="#fc0" transform="matrix(1.33333 0 0 -1.33333 56.359 101.702)"/></g><g style="mix-blend-mode:multiply"><path style="mix-blend-mode:multiply" d="m 0,0 -0.418,-0.01 -1.12,-0.059 -1.017,-0.161 -0.952,-0.227 -0.683,-0.496 -0.629,-0.55 -0.644,-0.831 -0.324,-0.854 -0.225,-1.247 -0.433,-0.723 0.044,-0.952 0.118,-0.766 0.32,-0.565 0.564,-0.614 2.132,-1.11 0.688,-0.197 0.658,-0.226 1.705,-0.054 1.129,0.344 0.535,0.348 1.16,0.904 0.717,1.053 0.348,1.123 0.084,0.801 -0.107,0.756 -0.08,1.101 -0.697,1.659 -0.438,0.448 -0.879,0.595 z" fill="#e30015" transform="matrix(1.33333 0 0 -1.33333 2.403 121.08)"/></g><g style="mix-blend-mode:multiply"><path style="mix-blend-mode:multiply" d="m 0,0 -0.771,-0.113 -1.233,-0.535 -0.952,-0.815 -0.963,-1.396 -0.472,-1.297 -0.03,-1.159 0.369,-1.4 0.628,-0.845 0.924,-0.845 1.822,-0.83 1.704,-0.045 0.717,0.168 0.767,0.413 0.628,0.549 0.526,0.654 0.736,1.62 0.03,0.84 v 0.034 L 4.342,-4.215 3.983,-3.1 3.694,-2.21 3.428,-1.591 2.775,-0.772 2.268,-0.393 1.13,-0.059 Z" fill="#e30015" transform="matrix(1.33333 0 0 -1.33333 7.42 75.584)"/></g><g style="mix-blend-mode:multiply"><path style="mix-blend-mode:multiply" d="m 0,0 -0.609,-0.28 -1.336,-0.432 -0.305,-0.284 -0.644,-0.537 -1.051,-1.306 -0.505,-0.968 -0.407,-1.655 -0.021,-0.844 0.241,-0.938 0.643,-1.42 1.075,-0.988 1.484,-0.873 0.875,-0.306 0.83,-0.054 0.747,-0.137 0.869,-0.005 0.89,0.29 1.33,0.732 0.417,0.467 0.791,0.976 0.364,0.816 0.378,1.11 0.093,1.061 -0.01,1.15 -0.171,0.416 -0.182,0.999 -0.354,0.825 -0.924,1.139 -0.917,0.555 -1.164,0.309 -0.836,0.05 -0.767,0.122 z" fill="#e30015" transform="matrix(1.33333 0 0 -1.33333 71.114 56.167)"/></g><g style="mix-blend-mode:multiply"><path style="mix-blend-mode:multiply" d="m 0,0 -1.154,-0.32 -0.977,-0.495 -0.934,-0.836 -0.667,-0.805 -0.527,-0.947 -0.333,-1.146 -0.123,-1.03 0.319,-1.165 0.914,-1.443 0.491,-0.394 0.246,-0.343 1.561,-1.091 1.116,-0.358 1.522,-0.226 1.458,0.318 0.958,0.517 0.988,1.075 0.462,1.013 0.368,1.399 0.059,1.13 -0.122,0.761 -0.32,0.565 -0.447,1.027 -0.629,0.845 -0.354,0.53 -0.373,0.511 -0.952,0.52 -1.385,0.383 z" fill="#e30015" transform="matrix(1.33333 0 0 -1.33333 55.96 42.394)"/></g><g style="mix-blend-mode:multiply"><path style="mix-blend-mode:multiply" d="m 0,0 1.326,-1.325 1.414,-0.649 1.47,-0.281 0.955,0.207 c 0.175,0.151 0.281,0.361 0.474,0.526 0.359,0.307 0.563,0.716 0.819,1.382 0.256,0.665 0.409,1.023 0.818,1.637 0.409,0.613 0.409,0.768 0.564,0.972 0.153,0.205 0.102,0.614 0.306,1.075 0.173,0.389 0.127,0.954 0.078,1.43 L 7.943,5.291 7.25,5.777 6.621,6.327 5.717,6.896 5.315,7.088 3.512,6.99 2.613,6.711 1.797,6.347 0.688,5.394 0.207,4.696 -0.437,3.276 -0.643,2.304 -0.59,1.179 Z" fill="#e30015" fill-rule="evenodd" transform="matrix(1.33333 0 0 -1.33333 17.32 77.68)"/></g><g style="mix-blend-mode:multiply"><path style="mix-blend-mode:multiply" d="m 0,0 -0.383,0.005 -1.297,0.217 -0.751,0.131 -0.865,0.021 -0.197,0.097 -0.889,1.469 -0.52,0.658 -0.379,0.54 -0.043,0.158 0.108,0.123 0.701,0.142 1.396,-0.358 1.518,-0.841 0.884,-0.884 0.742,-1.336 z m -8.738,-8.374 -0.869,-0.305 -0.987,-0.501 -0.212,-0.01 -1.085,0.673 -0.584,0.593 -0.325,0.561 -0.746,0.456 -0.138,0.163 -0.039,0.162 0.295,0.235 0.879,0.315 0.835,0.059 0.496,-0.104 0.982,-0.49 0.968,-0.801 0.521,-0.682 0.064,-0.177 z m -16.695,1.674 -0.869,-0.61 -0.801,-0.683 -0.171,0.006 -0.796,0.973 -0.261,0.329 -1.512,0.85 -0.339,0.088 -0.059,0.078 0.211,0.301 0.682,0.515 1.16,0.319 0.707,-0.118 1.086,-0.393 0.501,-0.382 0.634,-0.566 0.103,-0.195 0.004,-0.207 z m 37.162,4.269 -0.456,0.427 -0.295,0.295 -0.771,0.406 -0.452,0.148 -0.153,0.143 -0.054,0.181 0.64,1.974 0.058,1.131 -0.177,1.002 -0.472,1.002 -0.014,0.172 0.26,0.265 0.659,0.536 0.687,0.785 0.466,1.012 0.118,0.643 -0.108,1.602 -0.275,0.609 -0.447,0.731 -0.933,0.836 -0.766,0.412 -0.442,0.442 -0.752,0.152 -0.122,0.109 0.191,0.329 0.442,0.466 1.13,1.528 0.118,0.472 -0.398,2.269 -0.683,1.085 -0.874,0.894 -1.031,0.384 -1.45,0.092 -0.825,-0.058 -1.37,-0.693 -0.923,-0.844 -0.688,-1.081 -0.31,-0.87 0.045,-1.42 0.216,-0.667 0.801,-1.263 0.461,-0.421 1.17,-0.6 0.888,-0.305 0.433,-0.098 0.005,-0.112 -0.487,-0.433 -0.196,-0.079 -0.192,0.015 -1.586,1.35 -1.322,0.743 -1.867,0.49 -0.614,0.271 -1.282,0.172 -0.751,-0.143 -0.835,-0.049 -1.92,-0.746 -0.369,-0.157 -1.321,0.633 -0.879,0.594 -0.599,0.286 h -1.415 l -1.153,-0.32 -0.9,-0.575 -1.458,-1.488 -0.457,-0.723 -0.427,-0.751 -0.408,-1.655 -0.241,-1.237 0.064,-0.825 0.142,-1.037 0.713,-1.35 0.477,-0.718 V 3.54 l -0.242,-0.367 -0.172,-0.109 -0.186,-0.009 -0.766,0.417 -1.877,0.482 -2.858,0.387 -0.762,-0.156 -0.25,0.01 -0.211,0.088 -0.246,0.353 -0.33,0.85 -0.672,1.096 -0.811,0.957 -0.751,0.722 -1.249,0.506 c -0.144,0.033 -0.26,0.061 -0.321,0.073 -0.255,0.051 -0.869,0.154 -1.225,0.261 l -0.5,-0.035 -0.767,0.129 -2.058,-0.61 -0.884,-0.589 -0.933,-0.834 -1.149,-1.504 -0.565,-1.203 -0.232,-0.948 -0.107,-0.187 -0.182,-0.113 -2.54,-0.407 -1.684,-0.674 -1.065,-0.702 -1.146,-1.213 -0.868,-1.487 -0.163,-0.724 0.059,-1.654 0.388,-1.444 0.737,-1.327 0.324,-0.56 0.963,-0.806 0.525,-0.357 1.626,-0.733 0.565,-0.319 0.323,-0.855 0.571,-0.903 1.198,-1.16 1.125,-0.642 1.115,-0.36 1.517,-0.192 1.7,0.344 0.624,0.261 0.86,0.629 0.206,0.029 0.358,-0.215 1.233,-0.841 1.518,-0.546 1.773,-0.303 0.761,0.137 1.503,0.56 0.727,0.462 0.34,0.24 0.166,0.01 0.983,-0.746 0.717,-0.462 0.737,-0.462 0.068,-0.161 -0.059,-0.182 -0.628,-0.57 -0.487,-0.693 -0.393,-0.492 -0.598,-1.757 0.043,-1.42 0.634,-1.429 0.584,-0.595 0.408,-0.476 0.737,-0.442 1.135,-0.339 1.017,-0.163 1.129,0.06 0.894,0.284 0.579,0.305 1.327,1.326 0.643,1.126 0.388,0.789 0.054,1.126 -0.024,1.154 -0.325,0.849 -0.358,0.57 v 0.211 l 0.138,0.138 0.505,-0.014 1.852,-0.467 1.493,0.172 1.164,0.309 1.336,0.727 0.364,0.521 0.638,1.129 0.275,0.905 0.132,0.161 0.453,0.138 1.183,0.289 1.75,0.904 0.593,0.584 0.507,0.379 0.697,1.086 0.132,0.161 0.162,0.074 0.177,-0.058 0.894,-0.899 1.749,-0.904 0.894,-0.285 h 1.719 l 1.055,0.418 1.588,1.065 0.647,1.12 0.408,1.655 v 1.159 l -0.378,1.391 z" fill="#e30015" fill-rule="evenodd" transform="matrix(1.33333 0 0 -1.33333 60.963 110.052)"/></g><g style="mix-blend-mode:multiply"><path style="mix-blend-mode:multiply" d="m 0,0 -0.176,-0.068 -0.512,-0.397 -0.496,-0.683 -0.947,-0.82 -1.115,-0.655 -1.671,-0.412 -0.249,-0.314 -1.209,-1.45 -0.511,-0.372 -0.624,-0.556 -0.859,-0.613 -1.778,-1.17 -1.99,-1.547 -0.481,-0.697 -0.535,-0.644 -0.559,-0.913 -0.649,-0.826 -2.634,-2.672 -0.78,-0.693 -1.862,-1.379 -1.002,-0.766 -0.771,-0.703 -1.119,-0.942 -0.173,-0.418 v -3.831 l -0.136,-0.747 -0.021,-4.435 0.064,-0.448 0.56,-0.083 1.042,0.088 1.321,-0.092 0.706,0.053 0.448,-0.068 0.741,0.122 1.169,0.01 0.756,-0.143 0.512,0.055 1.233,-0.064 2.509,-0.074 1.769,-0.068 1.763,0.004 0.438,0.152 0.27,0.32 0.147,0.737 0.471,1.297 0.707,0.766 1.421,1.822 0.942,1.119 1.739,1.799 0.757,0.716 0.81,0.665 1.832,1.408 1.483,1.169 0.565,0.32 2.092,2.033 0.949,1.115 0.578,1.189 0.605,0.869 0.28,0.604 0.565,1.203 0.584,0.595 0.182,0.408 0.609,0.864 0.447,0.732 0.574,0.898 0.649,0.531 0.403,0.777 0.108,0.5 -0.069,0.53 -0.123,0.172 L 11.371,-3.91 9.897,-2.731 9.096,-1.763 8.822,-1.154 8.6,-0.767 8.41,-0.716 8.218,-0.795 7.447,-1.822 6.799,-2.353 5.649,-2.952 5.295,-2.975 3.675,-3.334 2.49,-3.064 1.68,-2.695 0.988,-2.209 0.506,-1.218 0.325,-0.516 0.158,-0.073 Z" fill="#3a3a39" transform="matrix(1.33333 0 0 -1.33333 24.55 122.005)"/></g><g style="mix-blend-mode:multiply"><path style="mix-blend-mode:multiply" d="m 0,0 -0.176,-0.069 -0.222,-0.388 0.025,-1.056 0.358,-0.545 v -0.227 l -0.088,-0.206 -0.575,-0.624 -0.741,-0.436 -0.875,-0.306 -1.045,-0.132 -0.541,-0.344 -0.226,-0.363 -0.039,-0.574 0.083,-0.526 0.599,-0.869 1.253,-0.811 0.482,-0.404 1.036,-0.73 1.699,-0.953 0.727,-0.452 2.893,-1.528 0.777,-0.403 2.013,-0.932 0.834,-0.345 1.283,-0.486 1.376,-0.393 0.824,-0.354 1.813,-0.237 1.768,0.007 1.193,0.28 1.277,0.491 2.02,1.222 1.856,1.091 1.326,1.032 1.385,1.266 0.717,0.758 0.491,0.687 1.11,1.248 0.526,0.948 0.457,1.311 0.098,1.203 v 0.014 l -0.423,1.347 -0.146,0.146 -0.432,0.158 -0.84,0.059 -0.747,-0.142 -0.486,-0.398 -1.769,-1.768 -1.586,-1.068 -1.356,-0.706 -2.215,-0.732 -1.474,-0.293 -0.825,-0.06 -0.747,-0.137 -1.462,-0.01 -1.121,0.059 -1.752,0.191 -0.747,0.255 -0.575,0.31 -0.728,0.157 -1.434,0.628 -1.203,0.566 -1.085,0.682 -0.875,0.6 -0.757,0.717 -0.657,0.52 -0.383,0.501 -0.919,0.849 -0.831,0.668 z" fill="#3a3a39" transform="matrix(1.33333 0 0 -1.33333 54.99 122.992)"/></g><g style="mix-blend-mode:multiply"><path style="mix-blend-mode:multiply" d="m 0,0 -0.251,-0.014 -0.212,-0.094 -0.264,-0.334 -0.412,-1.061 -0.173,-1.006 -0.118,-0.767 -0.023,-0.86 -0.08,-0.785 -0.01,-0.767 0.059,-0.766 0.011,-0.629 0.009,-4.126 0.122,-0.761 0.098,-2.279 0.203,-0.663 0.019,-1.455 0.123,-0.76 0.029,-2.624 0.137,-0.746 -0.038,-1.69 0.053,-0.948 -0.141,-0.751 -0.016,-2.648 0.168,-1.32 -0.138,-0.777 v -0.515 l -0.03,-1.513 0.124,-0.761 0.024,-1.155 0.122,-0.761 0.024,-1.154 0.124,-0.761 0.029,-0.855 0.137,-0.757 -0.054,-0.697 0.094,-0.423 -0.034,-1.517 0.083,-0.781 -0.083,-0.688 0.163,-1.036 -0.119,-0.757 0.137,-0.677 0.118,-0.773 0.089,-0.794 0.054,-0.831 0.24,-1.528 0.202,-0.977 0.294,-0.884 0.251,-0.634 0.49,-1.276 0.497,-1.567 0.348,-0.536 0.31,-0.574 0.575,-0.605 0.983,-0.781 0.186,-0.01 0.555,0.325 0.791,0.682 1.307,0.756 0.947,0.233 0.683,0.2 0.289,0.32 0.045,0.23 -0.049,0.227 -0.123,0.185 -0.603,0.581 -1.465,1.777 -0.855,2.093 -0.712,2.235 -0.702,1.95 -0.417,1.645 -0.084,0.801 -0.265,1.796 -0.029,1.151 -0.138,0.747 -0.01,2.937 -0.142,0.756 0.054,0.511 -0.044,0.654 -0.02,4.42 0.113,1.007 -0.093,0.467 -0.015,2.647 0.093,1.679 -0.01,0.89 v 0.82 l -0.049,0.761 0.068,0.688 -0.111,0.756 0.146,0.752 0.015,2.352 -0.251,2.088 0.083,1.282 -0.25,1.223 -0.024,1.449 -0.123,0.761 -0.024,0.86 -0.447,3.089 -0.152,1.027 -0.605,1.754 -0.604,0.868 -0.476,0.408 z" fill="#3a3a39" transform="matrix(1.33333 0 0 -1.33333 11.552 29.414)"/></g><g style="mix-blend-mode:multiply"><path style="mix-blend-mode:multiply" d="m 0,0 -0.02,2.053 -0.255,0.923 -0.26,0.625 -0.545,0.633 -0.737,0.457 -0.497,-0.025 -0.574,-0.324 -0.605,-0.87 -0.377,-0.8 -0.777,-3.939 -0.084,-0.801 -0.087,-0.796 -0.055,-0.83 -0.123,-0.76 -0.023,-4.397 -0.168,-1.322 0.133,-0.766 0.039,-0.859 -0.128,-0.771 0.03,-0.668 -0.487,-3.566 -0.015,-2.652 -0.064,-1.13 -0.019,-0.899 -0.059,-1.366 -0.093,-0.79 -0.059,-0.826 -0.138,-0.746 -0.009,-1.169 -0.137,-0.747 -0.006,-2.647 -0.22,-2.314 -0.049,-0.884 -0.026,-1.813 -0.122,-0.76 c 0.295,-0.623 0.602,-1.85 0.755,-2.567 0.154,-0.716 0.205,-1.688 0.358,-2.302 0.154,-0.614 0,-1.023 0.154,-1.74 0.154,-0.716 0.051,-1.786 0.051,-2.046 0,-1.023 -0.409,-4.145 -0.461,-4.401 -0.05,-0.255 -0.409,-1.125 -0.716,-1.79 -0.307,-0.666 -0.358,-1.381 -0.255,-1.842 0.07,-0.319 0.187,-0.49 0.254,-0.65 l 0.126,-0.021 1.026,-0.153 0.643,-0.239 0.855,-0.325 0.933,-0.559 0.226,-0.05 0.231,0.039 0.186,0.123 0.123,0.187 0.064,0.53 -0.226,0.909 0.049,0.428 0.01,3.241 0.108,0.756 -0.053,0.433 0.137,1.286 0.157,2.166 -0.05,0.659 0.118,0.766 0.065,1.415 -0.04,0.904 0.143,0.756 0.009,1.169 0.06,1.12 -0.045,0.653 -0.019,2.063 0.122,0.761 0.03,1.15 0.137,0.746 0.01,1.17 0.059,1.119 0.089,0.796 0.147,1.326 0.088,0.795 0.108,1.052 -0.055,1.842 0.124,0.761 0.024,4.396 0.123,0.761 0.03,3.802 0.138,0.747 0.009,5.59 0.06,1.129 0.088,1.965 0.137,0.747 0.005,1.173 0.093,0.791 0.094,1.385 z" fill="#3a3a39" fill-rule="evenodd" transform="matrix(1.33333 0 0 -1.33333 66.013 23.913)"/></g><g style="mix-blend-mode:multiply"><path style="mix-blend-mode:multiply" d="m 0,0 -1.137,-0.356 -1.082,-0.728 -0.723,-0.752 -0.568,-1.534 -0.043,-1.288 0.157,-1.095 0.359,-0.839 0.415,-0.48 0.029,-0.175 -0.28,-0.558 -0.249,-0.33 -0.532,-0.357 -0.019,-0.013 -0.065,-0.23 0.105,-0.23 0.414,-0.239 h 0.241 l 0.377,0.224 0.015,0.009 0.548,0.977 0.128,0.401 0.098,0.039 1.246,-0.468 0.852,-0.058 1.462,0.331 0.973,0.521 0.975,1.12 0.192,0.438 0.007,0.014 v 0.007 l -0.1,0.538 -0.16,0.184 L 3.422,-4.914 3.123,-5.252 2.645,-5.945 1.734,-6.788 1.138,-7.043 0.345,-7.052 l -0.059,0.057 0.566,1.69 0.479,0.696 0.305,0.567 0.867,0.868 0.733,0.447 0.268,0.375 0.067,0.255 -0.138,0.414 -0.699,0.822 -0.562,0.36 L 1.15,-0.049 0.023,0 Z m 0.273,-3.917 -0.876,0.641 -0.611,0.282 -0.892,0.287 -0.102,0.083 -0.003,0.096 0.363,0.474 0.81,0.653 0.809,0.352 0.513,0.056 L 1.527,-1.21 2.197,-1.697 2.27,-1.849 2.246,-2.024 1.859,-2.507 1.103,-3.224 0.653,-3.971 0.55,-4.035 Z m -2.343,-2.326 -0.467,0.678 -0.201,0.66 0.005,1.139 0.086,0.167 0.169,0.087 0.484,-0.038 1.217,-0.534 0.686,-0.491 0.122,-0.145 0.024,-0.162 -0.53,-1.226 -0.221,-0.655 -0.122,-0.099 -0.144,-0.008 z" fill="#181716" transform="matrix(1.33333 0 0 -1.33333 41.637 128.956)"/></g><g style="mix-blend-mode:multiply"><path style="mix-blend-mode:multiply" d="m 0,0 -0.388,-0.225 -0.019,-0.01 -0.077,-0.202 0.2,-1.213 -0.049,-0.118 -0.429,-0.114 -0.994,-0.205 -1.041,-0.432 -0.613,-0.618 -0.688,-1.08 -0.122,-0.51 -0.004,-0.868 -0.129,-0.746 0.137,-1.046 0.02,-0.57 10e-4,-0.015 0.235,-0.379 0.953,-0.854 0.902,-0.554 0.052,-0.128 -0.122,-0.367 -0.376,-0.519 -0.284,-0.341 v -0.231 l 0.173,-0.167 0.264,-0.061 0.497,0.141 0.306,0.317 0.322,0.887 0.084,0.201 0.119,0.123 0.354,0.037 1.252,0.088 0.446,0.186 0.915,0.58 0.865,0.903 0.304,0.619 0.349,1.124 0.002,0.01 -0.019,1.749 -0.469,1.321 -0.475,0.469 -1.302,0.761 -0.7,0.199 -0.14,0.112 -0.059,0.132 0.165,0.6 0.163,0.451 0.008,0.252 -0.122,0.204 -0.208,0.101 z m -0.604,-5.594 -0.715,1.041 -0.959,1.095 -0.024,0.171 0.068,0.158 0.358,0.204 1.129,0.337 L 0.084,-2.606 1.36,-3.071 1.831,-3.489 1.912,-3.623 1.893,-3.721 0.418,-4.565 -0.311,-5.356 -0.53,-5.614 Z m -2.011,-2.889 -0.688,0.747 -0.195,0.654 -0.063,1.115 -0.011,0.409 0.161,0.701 0.482,0.964 0.065,0.036 0.246,-0.2 1.065,-1.582 0.423,-1.323 0.166,-1.007 0.003,-0.585 -0.056,-0.224 -0.124,-0.124 -0.477,-0.046 z m 2.574,-0.401 -0.079,0.172 -0.013,1.186 -0.039,0.402 0.486,1.185 0.839,0.895 0.812,0.36 L 2.21,-4.632 2.417,-4.657 2.535,-4.783 2.613,-5.676 2.481,-6.694 1.936,-7.888 1.475,-8.281 0.78,-8.753 0.108,-8.941 Z" fill="#181716" transform="matrix(1.33333 0 0 -1.33333 .802 119.578)"/></g><g style="mix-blend-mode:multiply"><path style="mix-blend-mode:multiply" d="m 0,0 -1.337,-0.173 -0.433,-0.156 -0.814,-0.69 -0.492,-0.708 -0.174,-0.753 -0.058,-0.83 0.399,-1.689 0.465,-0.74 0.532,-0.385 1.173,-0.339 0.012,-0.003 1.309,0.176 1.292,0.477 0.643,0.578 0.537,0.644 0.244,0.682 -0.044,1.431 -0.447,1.054 -0.818,0.705 -0.529,0.354 -1.45,0.362 z m 1.556,-3.052 -0.633,0.258 -1.115,0.369 -0.76,0.112 -0.672,0.221 -0.422,0.119 -0.026,0.075 0.197,0.3 0.811,0.642 0.474,0.09 L 0.553,-0.895 1.387,-1.21 2.126,-1.913 2.401,-2.502 2.452,-3.015 2.376,-3.188 2.221,-3.25 Z m -2.979,-2.532 -0.354,0.205 -0.382,0.466 -0.293,1.165 0.09,0.772 0.072,0.084 1.483,-0.099 L 0.4,-3.237 1.985,-4.002 2.105,-4.149 2.152,-4.341 2.105,-4.541 1.695,-5 0.598,-5.643 -0.148,-5.773 Z" fill="#181716" transform="matrix(1.33333 0 0 -1.33333 67.958 84.336)"/></g><g style="mix-blend-mode:multiply"><path style="mix-blend-mode:multiply" d="m 0,0 -0.975,-0.236 -1.215,-0.556 -1.068,-1.022 -0.536,-0.963 -0.455,-1.908 -0.002,-0.008 0.086,-0.934 0.558,-1.529 0.841,-0.976 0.872,-0.621 0.837,-0.356 0.979,-0.208 0.795,-0.088 0.005,-0.001 1.136,0.059 1.305,0.486 0.863,0.631 0.638,0.863 0.517,1.888 0.025,1.387 v 0.054 L 4.785,-2.653 4.245,-1.72 3.156,-0.718 2.055,-0.306 0.849,-0.024 0.034,0 Z m -0.777,-4.48 -1.204,0.565 -0.763,0.131 -0.179,0.088 -0.104,0.151 v 0.492 l 0.521,0.931 0.327,0.227 0.61,0.275 0.475,0.411 0.945,0.207 1.451,-0.005 1.068,-0.38 0.562,-0.31 0.44,-0.426 L 3.42,-2.267 3.377,-2.408 1.779,-3.762 1.36,-4.22 0.894,-4.632 0.65,-5.002 0.495,-5.105 0.325,-5.126 Z m 2.826,-3.849 -0.41,1.051 -0.592,1.18 -0.033,0.168 0.153,0.277 0.435,0.459 1.049,1.292 0.965,0.506 0.208,0.034 0.17,-0.055 0.208,-0.35 L 4.355,-4.469 4.323,-5.612 4.036,-6.785 3.363,-7.844 2.408,-8.362 2.201,-8.393 Z m -2.766,-0.064 -0.834,0.327 -0.513,0.349 -0.548,0.613 -0.418,0.745 -0.286,0.883 -0.035,0.551 0.058,0.221 0.125,0.124 0.481,0.046 1.114,-0.357 L -0.234,-5.88 0.475,-6.629 1.059,-7.802 1.174,-8.41 1.095,-8.489 0.292,-8.552 Z" fill="#181716" transform="matrix(1.33333 0 0 -1.33333 71.113 57.244)"/></g><g style="mix-blend-mode:multiply"><path style="mix-blend-mode:multiply" d="m 0,0 -0.7,-0.809 -0.521,-0.372 -0.503,-0.447 0.012,-0.276 0.14,-0.221 0.221,-0.107 0.244,0.005 0.55,0.359 0.521,0.688 0.291,0.937 L 0.26,-0.227 0.203,-0.015 0.012,0 Z" fill="#181716" transform="matrix(1.33333 0 0 -1.33333 54.855 55.742)"/></g><g style="mix-blend-mode:multiply"><path style="mix-blend-mode:multiply" d="m 0,0 c -0.029,0.398 -0.041,0.797 -0.047,1.197 -0.008,0.496 0.004,0.994 -0.004,1.491 -0.008,0.427 -0.01,0.85 0.064,1.273 0.024,0.133 0.018,0.273 0.016,0.411 -0.003,0.128 0.03,0.242 0.076,0.36 0.047,0.12 0.072,0.249 0.09,0.378 0.018,0.122 0.031,0.249 0.017,0.371 -0.028,0.232 0.028,0.439 0.093,0.661 0.063,0.212 0.045,0.45 0.161,0.654 -0.009,0.282 0.222,0.502 0.205,0.787 0,0.012 0.011,0.024 0.016,0.036 0.142,0.358 0.278,0.717 0.426,1.071 0.129,0.307 0.269,0.609 0.406,0.914 0.026,0.059 0.055,0.118 0.083,0.176 0.163,0.35 0.314,0.705 0.492,1.046 0.124,0.237 0.282,0.456 0.43,0.679 0.088,0.132 0.181,0.255 0.178,0.426 0,0.054 0.035,0.112 0.067,0.16 0.164,0.251 0.331,0.502 0.502,0.749 0.145,0.209 0.291,0.42 0.451,0.618 0.307,0.383 0.627,0.755 0.937,1.137 0.235,0.289 0.475,0.573 0.748,0.829 0.276,0.26 0.534,0.54 0.792,0.818 0.47,0.507 1.061,0.868 1.578,1.319 0.034,0.029 0.079,0.047 0.117,0.071 0.11,0.069 0.22,0.139 0.331,0.209 0.288,0.18 0.578,0.359 0.824,0.599 0.022,0.022 0.055,0.035 0.083,0.051 0.252,0.151 0.503,0.304 0.758,0.45 0.277,0.159 0.541,0.345 0.852,0.438 0.073,0.022 0.138,0.073 0.205,0.112 0.197,0.116 0.381,0.269 0.592,0.34 0.355,0.119 0.686,0.286 1.028,0.427 0.21,0.086 0.408,0.217 0.645,0.215 0.148,-0.002 0.285,0.027 0.416,0.096 0.045,0.024 0.097,0.039 0.147,0.053 0.149,0.042 0.301,0.083 0.451,0.124 0.075,0.02 0.15,0.043 0.228,0.057 0.301,0.05 0.593,0.152 0.904,0.15 0.056,0 0.113,0.03 0.168,0.052 0.178,0.072 0.361,0.106 0.556,0.104 0.254,-0.004 0.512,-0.01 0.765,0.017 0.327,0.036 0.648,0.029 0.975,0.002 0.352,-0.029 0.707,-0.021 1.06,-0.02 0.279,0.002 0.548,-0.031 0.811,-0.125 0.067,-0.024 0.139,-0.049 0.209,-0.05 0.245,-0.001 0.479,-0.036 0.709,-0.126 0.256,-0.099 0.527,-0.159 0.775,-0.273 0.361,-0.167 0.709,-0.366 1.06,-0.555 0.051,-0.027 0.093,-0.072 0.136,-0.112 0.33,-0.318 0.659,-0.638 0.991,-0.953 0.352,-0.334 0.658,-0.708 0.928,-1.11 0.106,-0.158 0.215,-0.312 0.313,-0.475 0.101,-0.167 0.201,-0.336 0.281,-0.514 0.091,-0.199 0.147,-0.415 0.24,-0.613 0.133,-0.283 0.269,-0.559 0.352,-0.864 0.057,-0.211 0.174,-0.406 0.259,-0.61 0.11,-0.262 0.307,-0.492 0.301,-0.799 -0.001,-0.03 0.018,-0.063 0.036,-0.089 0.096,-0.143 0.112,-0.304 0.122,-0.47 0.005,-0.102 0.006,-0.218 0.052,-0.305 0.123,-0.232 0.121,-0.478 0.135,-0.726 0.012,-0.208 0.035,-0.416 0.06,-0.622 0.029,-0.228 0.075,-0.452 0.097,-0.679 C 26.788,10.634 26.83,10.23 26.844,9.825 26.869,9.04 26.876,8.254 26.888,7.469 26.889,7.405 26.872,7.34 26.861,7.276 26.799,6.915 26.728,6.555 26.754,6.184 26.776,5.877 26.789,5.569 26.704,5.268 26.632,5.018 26.628,4.765 26.636,4.509 26.639,4.424 26.642,4.334 26.615,4.256 26.533,4.01 26.54,3.754 26.5,3.505 26.454,3.212 26.376,2.921 26.317,2.627 26.272,2.4 26.17,2.184 26.095,1.963 26.082,1.926 26.078,1.887 26.065,1.849 26.004,1.658 25.956,1.46 25.877,1.276 25.717,0.904 25.544,0.539 25.368,0.175 25.349,0.135 25.328,0.098 25.309,0.059 l -1.291,-0.514 -0.951,-0.531 -0.205,-0.044 -0.193,0.038 -0.935,0.829 -0.995,0.501 -1.267,0.182 -1.542,-0.162 -1.513,-0.569 -0.536,-0.39 -0.687,-0.808 -0.686,-1.377 -0.253,-1.551 0.065,-1.134 0.253,-1.232 0.31,-0.887 0.812,-1.249 0.012,-0.181 -0.201,-0.33 -1.048,-1.023 -0.178,-0.078 -0.187,0.012 -1.352,0.73 -1.417,0.367 -0.845,0.053 -0.75,-0.073 -1.012,0.08 -1.222,-0.291 -0.188,0.017 -0.131,0.107 -0.435,1.043 -1.179,2.063 -1.187,1.192 -0.989,0.513 -1,0.208 -0.709,0.06 c -0.035,0.047 -0.072,0.101 -0.115,0.174 -0.239,0.41 -0.521,0.802 -0.654,1.269 -0.007,0.024 -0.029,0.044 -0.037,0.069 -0.082,0.243 -0.522,1.146 -0.513,1.426 0,0.053 -0.052,0.105 -0.071,0.16 -0.035,0.104 -0.07,0.208 -0.093,0.314 C 0.16,-0.798 0.14,-0.637 0.107,-0.477 0.074,-0.317 0.011,-0.161 0,0 M 2.214,13.09 C 2.128,12.966 2.04,12.844 1.952,12.722 L 1.383,13.11 0.554,13.454 0.45,13.557 0.54,14.526 0.267,16.323 0.3,16.478 0.428,16.591 0.894,16.669 1.801,16.41 2.525,15.983 3.148,15.17 3.214,14.743 C 3.116,14.596 3.018,14.451 2.91,14.311 2.852,14.237 2.835,14.131 2.796,14.041 2.752,13.939 2.716,13.832 2.657,13.738 2.515,13.518 2.364,13.304 2.214,13.09 M 1.271,11.738 C 1.132,11.523 1.009,11.296 0.89,11.069 L 0.775,11.02 0.299,10.905 l -1.27,0.14 -0.449,0.139 -0.622,0.516 -0.371,1.06 0.049,0.177 0.136,0.118 0.489,0.093 1.03,-0.144 1.181,-0.283 0.721,-0.424 0.277,-0.269 C 1.403,11.931 1.335,11.837 1.271,11.738 m -1.65,2.268 -0.119,-0.116 -1.497,0.021 h -10e-4 l -0.408,-0.006 -0.109,0.102 -0.029,0.182 0.268,0.895 0.605,0.835 0.554,0.307 0.416,0.112 0.126,-0.055 0.079,-0.167 0.186,-1.591 z m -8.905,-5.82 -0.778,0.39 -0.877,0.575 -0.715,0.741 -0.449,0.736 -0.016,0.185 0.068,0.154 0.353,0.208 1.103,0.039 0.871,-0.278 0.747,-0.69 L -8.716,9.65 -8.555,8.622 -8.569,8.338 -8.653,8.159 -8.815,8.087 Z m -4.039,-1.561 0.856,0.327 0.773,0.418 0.671,0.511 0.171,0.064 0.4,-0.093 0.752,-0.44 0.628,-0.253 0.135,-0.122 0.039,-0.154 -0.158,-0.376 -0.59,-0.561 -1.543,-0.493 -0.799,0.046 -0.716,0.156 -0.338,0.217 -0.354,0.528 -0.018,0.138 z m 1.853,1.861 -0.47,-0.401 -1.221,-0.527 -0.502,-0.057 -0.203,0.074 -0.111,0.126 0.042,0.629 0.144,0.74 0.453,1.014 0.124,0.154 0.17,0.086 0.185,-0.013 0.487,-0.374 0.455,-0.73 0.442,-0.437 0.049,-0.144 z M 27.251,2.391 c 0.087,0.239 0.181,0.476 0.261,0.717 0.058,0.179 0.181,0.341 0.166,0.539 -0.015,0.203 0.031,0.389 0.116,0.57 0.058,0.124 0.109,0.252 0.15,0.383 0.027,0.079 0.046,0.167 0.038,0.249 -0.019,0.207 0.005,0.4 0.087,0.594 0.044,0.104 0.046,0.229 0.053,0.346 0.006,0.111 -0.016,0.223 -0.01,0.334 0.01,0.155 0.033,0.31 0.051,0.465 0.016,0.135 0.034,0.271 0.045,0.407 0.006,0.078 -0.011,0.159 0.002,0.235 0.069,0.404 0.026,0.81 0.021,1.215 -0.002,0.104 -0.033,0.207 -0.048,0.31 -0.023,0.162 -0.052,0.322 -0.061,0.485 -0.022,0.351 0.018,0.708 -0.104,1.05 -0.015,0.042 -0.011,0.091 -0.013,0.137 -0.014,0.288 -0.023,0.575 -0.042,0.863 -0.011,0.156 -0.019,0.317 -0.068,0.465 -0.094,0.292 -0.131,0.584 -0.121,0.889 0.003,0.08 -0.023,0.176 -0.069,0.238 -0.045,0.06 -0.072,0.12 -0.087,0.183 l 0.178,1.295 0.148,1.038 0.074,1.223 0.069,1.288 0.028,0.846 0.26,1.51 0.217,1.554 0.09,0.801 0.022,0.849 0.252,1.229 0.073,0.809 0.089,0.799 0.059,0.823 0.088,0.798 0.059,0.822 0.242,2.123 0.023,1.44 0.124,0.771 0.034,1.747 0.044,1.3 -0.025,1.307 0.099,0.812 -0.069,1.232 0.06,1.126 -0.06,1.118 -0.01,0.405 0.221,1.267 0.024,1.441 0.117,0.767 0.296,2.064 0.153,1.326 0.054,1.127 v 0.88 l 0.028,0.457 -0.086,0.489 0.245,1.237 0.038,0.047 0.011,-0.011 0.171,-0.979 -0.054,-0.997 0.021,-0.726 -0.065,-0.473 0.034,-0.648 -0.084,-1.721 -0.008,-1.748 -0.139,-0.757 -0.014,-2.349 -0.05,-0.661 -0.083,-2.44 -0.039,-0.856 -0.039,-0.43 0.073,-0.762 -0.142,-0.753 -0.029,-2.909 -0.123,-0.773 0.016,-1.181 0.146,-1.025 L 30.44,30.18 30.317,29.413 30.264,28.587 30.169,27.79 30.145,26.351 29.879,24.84 29.821,23.723 29.728,22.922 29.527,20.777 29.432,19.982 29.379,18.861 29.29,18.063 29.231,17.241 29.137,16.444 29.114,15.593 28.99,14.822 28.967,11.614 28.843,10.844 28.819,8.225 28.691,7.451 28.734,6.585 28.824,5.279 28.716,4.211 28.844,2.895 28.691,1.849 28.762,1.012 28.867,0.506 28.858,0.233 28.786,0.063 28.649,0.017 l -0.765,0.125 -0.786,0.077 -0.126,0.11 -0.079,0.473 10e-4,0.114 c 0.032,0.093 0.057,0.188 0.05,0.292 -10e-4,0.03 0.026,0.06 0.036,0.091 0.041,0.117 0.091,0.231 0.119,0.35 0.053,0.234 0.177,0.454 0.143,0.705 -0.002,0.012 0.005,0.026 0.009,0.037 m -2.189,29.675 0.904,0.577 0.871,0.909 0.754,0.982 0.088,0.028 0.266,-0.201 0.174,-0.402 0.211,-0.673 0.281,-0.318 0.045,-0.336 -0.032,-1.5 -0.16,-0.724 -0.362,-0.484 -0.737,-0.406 -0.678,-0.193 -0.191,0.038 -0.139,0.119 -0.372,0.808 -0.647,1.12 -0.315,0.531 z m -2.351,0.369 0.454,-0.107 0.366,-0.205 0.795,-0.667 0.951,-1.377 0.177,-0.434 0.018,-0.234 -0.081,-0.176 -0.176,-0.077 -0.222,0.022 -0.962,0.513 -0.494,0.378 -0.564,0.601 -0.443,1.012 -0.052,0.515 0.077,0.174 z m 4.182,2.499 -0.57,-0.878 -1.041,-1.01 -0.574,-0.29 -0.498,-0.052 -0.437,0.14 -0.527,0.345 -0.663,0.22 -0.055,0.114 0.404,1.016 0.196,0.665 0.303,0.248 0.799,0.351 0.99,0.18 1.218,-0.246 0.371,-0.192 0.104,-0.151 z M -7.11,17.618 l 0.111,0.735 -0.049,0.653 0.074,2.865 0.153,1.049 -0.173,1.325 0.045,1.212 -0.025,0.837 0.089,0.865 0.048,2.254 -0.155,1.015 0.141,0.589 0.044,-0.577 0.059,-2.594 0.088,-0.793 -0.018,-1.761 -0.094,-0.693 0.112,-1.081 -0.141,-0.748 -10e-4,-0.01 0.142,-1.013 0.006,-2.657 0.285,-1.768 0.011,-1.77 0.136,-0.736 0.03,-2.337 0.122,-0.753 0.026,-1.753 0.264,-1.496 0.059,-1.125 0.35,-2.605 0.58,-2.37 0.338,-1.148 0.381,-0.791 0.482,-1.304 0.913,-1.442 1.01,-1.651 0.498,-0.666 0.022,-0.116 -0.062,-0.106 -1.005,-0.48 -0.318,-0.193 -0.13,0.008 -1.015,0.713 -0.781,0.963 -0.662,1.088 -0.657,1.987 -0.46,2.18 -0.04,1.147 -0.118,0.763 -0.235,2.119 -0.054,1.126 -0.182,2.476 -0.122,0.751 -0.034,2.339 0.038,4.75 z m 44.092,-37.5 0.47,0.985 0.607,1.142 0.85,0.607 0.151,0.027 0.112,-0.068 0.265,-0.896 -0.026,-0.473 -0.385,-1.375 -0.399,-0.449 -0.817,-0.641 -0.66,-0.202 -0.149,0.061 -0.077,0.171 z m 1.243,3.4 -0.982,-1.043 -0.387,-0.165 -0.687,0.161 -0.631,0.268 -0.738,0.153 -0.26,0.028 -0.178,0.089 -0.074,0.147 0.028,0.174 0.409,0.456 0.343,0.23 1.216,0.246 0.773,-0.089 1.065,-0.407 0.103,-0.119 z m -4.497,-1.926 0.126,0.461 0.108,0.156 0.168,0.094 0.457,-0.01 0.88,-0.295 0.815,-0.349 0.139,-0.131 0.072,-0.177 -0.407,-2.186 -0.093,-0.165 -0.153,-0.063 -0.444,0.104 -0.678,0.495 -0.483,0.377 -0.528,1.21 z m -10.297,-9.046 0.713,0.458 0.198,0.044 0.195,-0.039 2.228,-1.623 1.553,-0.799 1.651,-1.002 1.491,-0.878 1.261,-0.512 1.328,-0.443 1.132,-0.338 0.671,-0.223 2.222,-0.444 1.148,-0.018 1.041,0.143 1.465,0.318 2.29,0.96 0.959,0.534 0.621,0.552 1.647,1.295 1.049,0.732 0.447,0.42 1.086,0.683 0.405,0.478 0.052,-0.006 0.02,-0.088 -0.186,-0.363 -0.608,-0.544 -0.767,-0.412 -2.103,-2.041 -0.796,-0.689 -0.828,-0.927 -1.926,-1.593 -1.327,-0.718 -1.379,-0.38 -1.707,0.017 -3.101,0.721 -1.52,0.546 -2.448,0.795 -0.899,0.26 -0.573,0.323 -1.052,0.415 -1.348,0.702 -1.702,1.241 -0.653,0.527 -0.669,0.503 -1.252,1.109 -0.066,0.165 z m -5.492,3.627 0.167,0.395 0.429,0.42 0.804,0.345 1.472,0.297 1.504,-0.239 1.258,-0.497 0.913,-0.543 0.22,-0.333 0.157,-0.708 -0.073,-0.454 -0.52,-0.626 -0.493,-0.377 -1.567,-0.485 -0.445,0.004 -1.237,0.238 -1.465,0.586 -0.463,0.397 -0.569,0.596 -0.092,0.177 z m 31.205,-3.256 -0.414,-0.454 -0.595,-0.268 -0.641,-0.264 -1.718,-1.234 -1.282,-1.067 -0.871,-0.59 -1.775,-0.86 -1.897,-0.444 -1.756,-0.016 -3.059,0.758 -1.344,0.422 -1.297,0.472 -0.858,0.305 -1.693,0.956 -1.105,0.67 -1.164,0.597 -1.257,0.788 -0.886,0.871 -0.082,0.187 0.028,0.472 0.323,0.564 0.115,0.11 0.117,0.012 0.663,-0.467 1.204,-1.164 1.184,-0.887 1.677,-0.994 0.306,-0.167 0.302,-0.096 0.351,-0.23 0.71,-0.193 2.39,-0.863 1.706,-0.364 2.104,-0.261 1.474,0.009 1.634,0.451 0.898,0.286 2.116,0.836 1.79,0.873 1.085,0.7 0.296,0.279 0.792,0.375 0.486,0.446 0.156,0.08 0.075,-0.011 0.017,-0.083 z m -38.273,5.318 0.461,0.979 0.572,0.573 0.833,0.316 0.829,0.019 0.877,-0.284 0.607,-0.267 0.958,-0.784 0.54,-0.905 0.253,-0.624 0.179,-0.822 -0.042,-0.524 -0.364,-0.791 -0.575,-0.574 -0.57,-0.286 -0.793,-0.051 -0.826,0.349 -1.112,0.351 -1.031,0.712 -0.386,0.473 -0.41,1.035 z m -8.528,-0.33 0.439,1.02 0.277,0.279 1.194,0.546 0.781,0.088 1.117,-0.059 1.3,-0.446 1.04,-0.699 0.571,-0.592 0.167,-0.392 -0.056,-0.45 -0.376,-0.78 -0.515,-0.649 -0.525,-0.335 -1.112,-0.339 -1.746,-0.011 -0.704,0.163 -0.979,0.474 -0.632,0.805 -0.264,0.902 z m 12.15,3.082 -0.093,-0.093 -0.409,0.018 -0.799,0.345 0.675,0.733 0.247,0.285 0.082,-0.011 0.163,-0.363 0.146,-0.749 z m -4.665,-2.446 -0.288,0.239 -0.368,0.631 0.071,0.068 0.962,0.209 0.146,-0.056 0.03,-0.111 -0.459,-0.959 z m 22.683,14.453 0.049,-0.273 0.154,-0.193 0.47,-0.148 1.456,-0.028 0.631,-0.227 0.935,-0.52 0.36,-0.491 0.393,-0.768 0.268,-1.171 -0.208,-1.222 -0.462,-0.985 -0.362,-0.506 -0.871,-0.574 -0.998,-0.457 -0.991,-0.18 -1.243,0.218 -1.19,0.857 -0.363,0.221 -0.052,0.127 0.047,0.138 0.825,0.661 0.944,1.152 0.068,0.549 -0.166,0.49 -0.008,0.022 -0.207,0.12 -0.225,-0.049 -0.731,-1.091 -0.408,-0.487 -0.7,-1.067 -0.131,-0.136 -0.144,-0.048 -0.633,0.187 -0.094,0.08 0.006,0.076 1.862,2.249 0.493,0.711 0.172,0.436 -0.05,0.501 -0.222,0.458 -0.213,0.088 -0.21,-0.086 -0.96,-1.739 -1.046,-1.594 -0.431,-0.473 -0.208,-0.365 -0.323,-0.201 -0.381,0.03 -0.125,0.087 -0.032,0.121 0.188,0.346 0.687,0.797 0.807,0.975 0.899,1.473 0.109,0.385 0.005,0.018 -0.243,0.676 -0.14,0.189 -0.217,0.098 -0.207,-0.093 -0.701,-1.412 -1.173,-2.056 -1.324,-1.635 -0.166,-0.06 -0.13,0.046 -0.072,0.166 0.079,0.471 0.555,0.63 0.427,0.739 0.261,0.328 0.219,0.684 0.711,1.045 0.377,1.13 -0.081,0.472 -0.104,0.231 -0.178,0.172 -0.219,0.007 -0.204,-0.133 -0.383,-0.848 -0.29,-0.875 -0.513,-0.952 -0.48,-0.71 -0.485,-0.989 -0.1,-0.078 -0.099,0.017 -0.245,0.299 -0.071,0.366 1.309,2.498 0.474,1.325 0.054,0.477 0.003,0.016 -0.277,0.649 -0.15,0.198 -0.21,0.09 -0.213,-0.093 -0.108,-0.223 -0.17,-1.034 -0.584,-1.756 -0.538,-0.952 -0.176,-0.384 -0.075,-0.024 -0.079,0.082 -0.032,0.18 0.171,0.39 0.211,0.388 0.388,1.985 0.364,1.12 0.004,0.014 -0.068,0.496 -0.402,0.533 -0.208,0.138 -0.253,0.026 -0.169,-0.169 -0.064,-1.153 -0.635,-2.893 -0.087,-0.206 -0.127,-0.103 -0.149,0.01 -0.128,0.13 -0.053,0.217 0.298,1.76 0.159,1.048 -0.184,1.011 -0.229,0.399 -0.418,0.258 -0.23,-0.077 -0.104,-0.243 0.014,-1.793 0.02,-0.62 -0.034,-1.153 -0.063,-0.158 -0.108,-0.029 -0.33,0.193 -0.049,0.334 -0.05,0.671 0.138,1.05 -0.025,1.165 -10e-4,0.016 -0.239,0.374 -0.43,0.241 -0.262,0.013 -0.164,-0.176 -0.141,-1.011 -0.002,-0.01 0.271,-1.787 -0.046,-0.533 -0.12,-0.13 -0.419,-0.1 -0.991,0.097 -1.549,-0.26 -0.416,-0.172 -0.506,-0.01 -0.182,0.08 -0.225,0.342 -0.441,0.72 -0.448,1.308 0.002,2.022 0.298,1.164 0.668,1.066 0.592,0.572 1.208,0.527 0.995,0.181 1.089,-0.089 0.623,-0.231 0.72,-0.448 0.987,-1.084 0.013,-0.013 0.252,-0.064 0.442,0.17 0.86,0.631 0.964,0.496 1.713,0.327 0.864,-0.008 1.233,-0.23 0.921,-0.524 0.659,-0.522 0.668,-0.501 0.907,-1.132 0.529,-1.217 0.117,-1.065 0.073,-0.47 z m -38.768,-13.711 0.68,1.057 0.34,0.219 1.156,0.295 1.418,-0.02 1.827,-0.503 1.153,-0.6 0.25,-0.304 0.278,-0.874 -0.019,-1.127 -0.233,-0.626 -0.493,-0.656 -0.929,-0.515 -0.927,-0.232 -1.632,0.102 -0.783,0.093 -1.022,0.424 -0.419,0.44 -0.522,0.636 -0.231,0.918 -0.029,0.838 z m 7.766,1.545 0.053,1.118 0.139,0.757 0.014,1.181 -0.128,1.018 0.106,0.727 -0.232,0.387 -0.768,0.477 -0.019,0.013 -0.202,-0.035 -0.07,-0.222 0.218,-1.282 -0.049,-0.657 -0.015,-2.057 -0.029,-1.435 -0.078,-0.078 -0.141,0.023 -0.605,0.302 -0.266,0.218 v 0.132 l 0.152,0.422 0.067,0.871 -0.126,0.752 -0.022,2.058 -0.122,0.488 -0.311,0.319 -0.569,0.373 -0.213,-0.058 -0.095,-0.23 -0.019,-0.304 -0.001,-0.01 0.189,-0.741 0.263,-1.494 0.021,-1.464 -0.067,-0.515 -0.122,-0.128 -0.173,-0.024 -0.157,0.076 -0.093,0.178 -0.101,1.067 -0.06,0.83 -0.159,1.031 -0.28,0.899 -0.409,0.508 -0.42,0.263 -0.268,-0.017 -0.172,-0.171 v -0.238 l 0.384,-0.846 0.187,-0.997 0.191,-0.683 0.088,-0.799 0.126,-0.761 -0.045,-0.131 -0.173,-0.074 -0.284,-0.025 -0.419,0.07 0.029,0.92 -0.56,2.124 -0.314,0.859 -0.32,0.344 -0.488,0.132 -0.019,0.007 -0.229,-0.088 -0.059,-0.215 0.488,-1.021 0.52,-1.535 0.36,-1.612 -0.084,-0.077 -0.226,-0.048 -0.686,-0.227 -0.727,-0.452 -0.8,-0.982 -0.346,-0.213 -0.535,-0.034 -0.757,0.137 -1.163,0.575 -0.87,0.871 -0.523,0.93 -0.346,0.817 -0.213,1.195 0.105,0.404 0.19,0.988 0.467,0.981 0.371,0.495 1.074,0.662 1.284,0.478 1.26,0.186 1.463,0.02 1.036,-0.166 0.009,-0.002 0.56,0.068 0.175,0.175 0.059,0.27 0.02,2.035 0.363,1.089 0.811,1.227 0.959,0.784 0.989,0.46 0.928,0.234 1.744,0.005 0.893,-0.257 0.558,-0.306 1.057,-0.987 1.095,-1.545 0.193,-0.679 0.448,-1.342 0.22,-0.393 0.22,-0.039 1.029,0.46 0.794,0.084 0.763,0.111 1.096,0.007 0.975,-0.2 1.081,-0.37 0.527,-0.342 0.705,-1.035 0.304,-0.854 0.088,-1.085 -0.248,-1.804 -1.039,-1.874 -1.381,-0.939 -1.89,-0.752 -0.127,0.046 -0.042,0.13 0.046,0.195 0.249,0.371 0.392,0.783 0.525,0.963 0.074,0.503 -0.334,0.593 -0.348,0.329 -0.239,0.012 -0.179,-0.166 -0.079,-0.24 -0.026,-0.602 -0.388,-1.04 -0.874,-1.766 -0.241,-0.348 -0.172,-0.066 -0.176,0.03 -0.107,0.103 -0.016,0.165 0.235,0.628 0.574,0.912 0.717,1.655 0.035,0.536 -0.182,0.445 -0.347,0.324 H 8.449 L 8.286,-15.113 8.2,-15.652 7.932,-16.848 7.111,-18.96 l -0.263,-0.308 -0.17,-0.023 -0.149,0.07 -0.063,0.141 0.026,0.184 0.378,0.83 0.334,1.143 0.349,1.429 0.003,0.01 -0.037,0.463 -0.249,0.375 -0.356,0.294 -0.015,0.013 -0.244,0.018 -0.169,-0.169 -0.045,-0.879 -0.655,-3.163 -0.163,-0.428 -0.149,-0.063 -0.145,0.06 -0.087,0.183 -0.007,0.579 0.444,2.526 -0.01,0.854 -0.112,0.238 -0.748,0.492 -0.198,-0.012 -0.137,-0.156 -0.034,-0.225 0.079,-0.47 -0.122,-0.741 -0.004,-1.164 -0.347,-1.992 -0.211,-0.368 -0.18,-0.083 -0.178,0.004 -0.082,0.082 0.295,1.692 0.083,0.798 0.118,0.774 0.025,0.844 -0.205,0.706 -0.299,0.33 -0.612,0.354 -0.223,-0.077 -0.105,-0.23 -0.024,-0.331 0.141,-0.771 0.031,-1.431 -0.139,-0.758 -0.004,-1.166 -0.148,-1.033 -0.091,-0.776 -0.222,-0.343 -0.296,-0.233 -0.105,0.013 -0.224,0.312 -0.106,0.431 z m 6.948,-8.89 -0.612,-0.265 -0.531,-0.076 -1.798,-0.539 -2.732,-0.8 -1.888,-0.465 -0.827,0.023 -0.079,0.08 0.018,0.14 0.657,0.83 1.073,1.29 1.12,1.532 0.17,0.466 -0.044,0.454 0.04,0.043 0.363,-0.111 1.678,-0.425 1.164,-0.028 1.71,0.354 1.128,0.665 0.948,1.115 0.102,0.014 0.121,-0.101 0.348,-0.559 0.963,-1.068 v -0.13 l -0.405,-0.464 -0.638,-1.117 -0.295,-0.266 -0.828,-0.328 z m -2.033,-2.541 -2.127,-1.122 -1.406,-0.93 -0.795,-0.067 -1.183,0.005 -1.435,0.028 -0.77,0.124 -0.84,0.014 -0.049,0.05 0.152,0.3 0.586,0.577 1.32,0.42 0.743,0.132 0.861,0.03 1.537,0.244 2.911,0.911 1.955,0.403 0.732,0.466 0.457,0.145 0.191,-0.012 0.071,-0.075 -0.105,-0.361 -0.227,-0.345 -0.171,-0.086 -0.799,-0.073 z m -10.513,-6.804 0.777,0.115 1.418,0.356 1.069,0.421 1.863,1.094 1.674,1.263 0.558,0.34 0.474,0.397 0.556,0.338 0.652,0.517 1.095,0.666 1.98,0.954 0.089,-0.018 0.021,-0.09 -0.744,-1.592 -0.585,-0.867 -0.743,-0.415 -0.575,-0.309 -0.311,-0.287 -1.556,-0.794 -1.873,-1.069 -0.811,-0.376 -1.651,-1.004 -1.254,-0.804 -0.58,-0.319 -0.638,-0.532 -2.631,-1.778 -0.786,-0.395 -0.966,-0.496 -0.96,-0.198 -0.939,-0.061 -1.488,0.254 -0.459,0.12 -0.087,0.087 0.015,0.136 0.539,0.645 1.179,1.189 0.519,0.656 0.544,0.643 0.359,0.515 0.938,0.785 0.404,-0.013 1.012,-0.208 1.095,0.041 z m 4.886,3.241 -0.396,-0.442 -1.579,-1.061 -1.778,-0.555 -1.054,-0.117 -1.969,-0.026 -0.095,0.095 0.012,0.146 0.569,0.608 0.815,0.667 1.322,1.328 0.162,0.067 2.366,-0.533 1.452,-0.03 0.156,-0.062 z m 17.149,12.292 -0.055,-0.225 -0.084,-0.083 -0.107,0.017 -0.116,0.116 -0.117,0.461 -0.054,2.009 -0.088,0.794 -0.015,1.459 -0.177,0.441 -0.318,0.324 -0.199,0.114 -0.227,0.013 -0.159,-0.153 -0.061,-0.265 0.159,-1.041 0.025,-1.163 0.135,-0.77 -0.042,-0.236 -0.106,-0.104 -0.147,0.011 -0.461,0.415 -0.27,0.583 -0.117,1.228 -0.045,0.364 -0.002,0.02 -0.569,0.622 -0.036,0.457 0.274,1.22 0.157,1.326 -0.06,1.442 -0.162,0.648 0.2,0.535 0.627,0.83 0.601,0.563 1.046,0.707 0.808,0.366 0.445,0.129 0.993,-0.127 0.819,-0.048 0.935,-0.232 0.816,-0.349 0.966,-0.77 0.884,-1.167 0.413,-0.752 0.551,-1.513 0.142,-0.185 0.236,-0.126 0.525,0.039 1.239,0.221 2.105,-0.204 1.043,-0.405 0.895,-0.564 0.61,-0.829 0.358,-0.814 0.025,-0.416 -0.094,-0.802 -0.051,-0.522 -0.294,-0.883 -0.149,-0.425 -1.138,-1.179 -1.243,-0.798 -1.32,-0.442 -1.706,-0.351 -1.499,0.114 -1.329,0.445 -0.163,0.105 -0.066,0.11 0.125,0.344 1.347,1.93 0.157,0.369 0.006,0.016 -0.114,0.686 -0.115,0.223 -0.211,0.149 -0.24,-0.03 -0.166,-0.161 -1,-2.279 -0.483,-0.701 -0.109,-0.102 -0.021,0.002 -0.012,0.289 0.88,2.386 0.004,0.516 -0.368,0.574 -0.16,0.138 -0.207,0.053 -0.186,-0.112 -0.191,-0.441 -0.297,-0.895 -0.156,-0.723 -0.434,-1.632 -0.109,-0.17 -0.147,-0.073 -0.134,0.05 -0.08,0.174 0.053,0.504 0.312,0.893 0.237,1.255 -0.005,0.589 -0.176,0.44 -0.516,0.451 h -0.231 l -0.254,-0.371 -0.13,-0.807 -0.053,-0.826 -0.088,-0.793 -0.127,-0.753 -0.227,-0.946 -0.121,-0.129 -0.172,-0.03 -0.156,0.078 -0.092,0.175 -0.005,1.134 0.291,1.784 -0.025,1.164 -0.182,0.435 -0.285,0.344 -0.201,0.13 -0.258,0.047 -0.222,-0.111 -0.125,-0.238 0.017,-0.56 0.129,-0.765 -0.212,-0.576 0.208,-0.901 -0.157,-1.024 z m 15.989,6.327 -0.787,-0.943 -0.072,0.188 -0.099,0.474 0.512,0.253 z m 2.792,9.05 -1.167,0.288 -0.452,0.396 -0.195,0.36 -0.059,1.117 0.114,0.451 0.495,0.648 0.55,0.307 0.427,0.114 1.123,-0.269 0.697,-0.448 0.41,-0.728 -0.022,-0.42 -0.308,-0.861 -0.31,-0.549 -0.563,-0.282 z M -7.11,35.916 -7.104,35.463 -7.132,35.92 Z m -0.007,0.497 -0.048,0.044 -0.118,1.932 -0.026,2.048 -0.264,1.491 0.022,0.86 0.298,-1.897 0.152,-1.312 -0.04,-1.511 z m 58.916,-61.378 -0.002,0.015 -0.297,0.335 -0.525,0.383 -0.257,0.063 -0.256,-0.055 -0.631,-0.591 -0.624,-0.547 -1.859,-1.37 -1.715,-0.932 -2.219,-1.021 -1.023,-0.439 -0.927,-0.25 -1.666,-0.386 -2.265,0.052 -1.549,0.215 -1.149,0.325 -1.126,0.335 -1.222,0.559 -0.9,0.259 -1.323,0.735 -1.427,0.918 -0.917,0.839 -0.553,0.641 -0.814,0.649 -0.583,0.785 0.027,0.058 0.415,0.118 1.299,0.193 1.636,0.428 0.961,0.539 1.259,0.823 0.575,0.615 0.38,0.508 0.159,0.102 0.152,0.008 0.775,-0.65 0.408,-0.477 1.337,-0.754 1.227,-0.253 0.011,-0.002 1.225,0.202 0.962,0.538 1.025,1.062 0.301,0.61 0.227,1.581 0.002,0.009 -0.143,0.781 -0.231,0.639 v 0.143 l 0.643,0.749 0.29,0.65 0.005,0.269 -0.115,0.239 -0.217,0.096 -0.466,-0.133 -0.159,-0.175 -0.171,-0.439 -0.114,-0.154 -0.174,-0.088 -0.478,0.032 -1.452,0.628 -1.215,0.233 -0.044,0.041 0.17,0.265 0.622,0.568 0.583,0.936 0.432,1.336 0.003,0.01 -0.027,1.169 -0.369,1.419 -0.323,0.582 -0.799,0.864 0.022,0.05 1.131,0.332 0.746,0.433 0.585,0.62 0.304,0.604 0.07,0.873 -0.127,0.76 -0.461,0.75 -0.667,0.54 -1.308,0.495 -0.015,0.005 -0.553,-0.052 -1.321,-0.452 -0.343,-0.277 -0.54,-0.965 -0.186,-1.22 0.213,-0.982 0.251,-0.526 -0.078,-0.078 -0.231,-0.044 -0.241,0.034 -0.126,0.128 -0.147,1.598 -0.913,2.063 -0.715,0.791 -1.184,1.173 -1.219,0.705 0.26,0.412 0.073,0.887 -0.16,1.016 0.14,0.737 0.002,0.01 -0.127,0.744 0.086,0.713 -0.053,0.424 0.107,0.757 0.005,1.164 0.124,0.754 -0.02,0.621 0.02,1.735 -0.02,0.621 0.063,2.291 0.123,0.771 0.005,2.047 0.138,0.758 0.009,1.158 0.138,0.754 0.059,0.823 0.241,2.121 0.023,0.852 0.119,0.769 0.087,0.786 0.201,0.682 0.006,5.905 0.075,0.69 0.034,0.66 0.088,2.857 -0.05,1.825 0.13,0.746 -0.144,1.033 0.168,1.32 0.028,1.143 0.103,0.486 0.003,0.011 -0.094,0.704 0.107,0.748 0.054,1.121 0.093,0.797 0.078,2.849 0.123,1.364 0.094,0.798 0.004,2.049 0.108,0.712 0.002,0.01 -0.12,0.776 -0.08,0.813 -0.206,0.692 -0.144,0.193 -0.228,0.11 -0.45,-0.118 -0.649,-0.585 -0.303,-0.63 -0.272,-1.216 -0.028,-1.436 -0.124,-0.77 -0.024,-2.618 -0.266,-1.509 -0.059,-0.823 -0.094,-0.796 -0.023,-2.029 -0.124,-0.771 -0.022,-4.973 -0.214,-0.978 -0.088,-0.106 -0.086,0.006 -1.277,1.057 -0.863,0.358 -1.488,0.26 -0.012,0.002 -1.208,-0.282 -0.71,-0.5 -0.204,-0.083 -0.191,0.009 -0.149,0.1 -0.41,0.762 -0.622,0.585 -0.506,0.16 -0.276,-0.015 -0.236,-0.116 -0.077,-0.204 0.097,-0.209 0.793,-0.421 0.519,-0.633 0.229,-0.357 0.059,-0.434 -0.585,-1.78 -0.046,-0.735 0.182,-1.242 0.595,-1.211 0.742,-1.027 1.474,-0.928 0.402,-0.186 1.287,-0.17 1.401,0.357 0.566,0.321 0.12,-0.041 0.072,-0.169 -0.028,-1.733 -0.413,-2.831 -0.083,-0.797 -0.212,-1.27 -0.029,-1.141 -0.266,-1.51 -0.058,-1.117 -0.094,-0.796 -0.023,-1.44 -0.058,-0.357 c -0.04,0.083 -0.078,0.168 -0.117,0.251 -0.149,0.326 -0.29,0.655 -0.445,0.977 -0.098,0.203 -0.206,0.402 -0.323,0.593 -0.158,0.256 -0.327,0.505 -0.494,0.755 -0.159,0.239 -0.333,0.47 -0.478,0.717 -0.184,0.313 -0.399,0.598 -0.655,0.853 -0.384,0.387 -0.795,0.739 -1.271,1.01 -0.17,0.097 -0.32,0.226 -0.526,0.252 -0.061,0.008 -0.122,0.047 -0.176,0.083 -0.486,0.316 -1.024,0.513 -1.57,0.691 -0.167,0.054 -0.335,0.11 -0.504,0.16 -0.056,0.017 -0.116,0.029 -0.174,0.027 -0.238,-0.006 -0.468,0.03 -0.697,0.096 -0.087,0.025 -0.179,0.04 -0.27,0.043 -0.432,0.012 -0.865,0.015 -1.296,0.031 -0.156,0.005 -0.314,0.023 -0.464,0.061 -0.159,0.039 -0.307,0.036 -0.464,-0.006 -0.138,-0.036 -0.283,-0.05 -0.425,-0.057 -0.229,-0.011 -0.458,-0.003 -0.687,-0.012 -0.13,-0.005 -0.267,-0.005 -0.389,-0.045 -0.228,-0.073 -0.463,-0.078 -0.697,-0.106 -0.113,-0.013 -0.222,-0.063 -0.334,-0.094 -0.086,-0.025 -0.172,-0.055 -0.261,-0.068 -0.069,-0.011 -0.146,0.013 -0.214,0 C 13.711,21.672 13.351,21.624 13.014,21.509 12.483,21.328 11.967,21.103 11.447,20.89 11.15,20.77 10.859,20.638 10.565,20.509 10.511,20.486 10.462,20.452 10.411,20.424 10.148,20.277 9.885,20.132 9.622,19.985 9.456,19.893 9.289,19.804 9.127,19.704 8.744,19.467 8.36,19.231 7.985,18.98 7.511,18.664 7.041,18.344 6.58,18.009 6.088,17.652 5.608,17.276 5.165,16.856 5.009,16.708 4.859,16.554 4.708,16.4 4.473,16.157 4.25,15.9 4.003,15.672 L 3.927,15.673 3.79,15.765 3.428,16.286 2.429,17.079 1.537,17.406 0.548,17.58 0.465,17.659 0.537,18.352 0.482,19.191 0.19,19.854 -0.008,19.981 h -0.227 l -0.192,-0.117 -0.136,-0.211 -0.006,-0.208 0.179,-0.427 0.182,-1.239 -0.07,-0.14 -0.389,-0.179 -1.193,-0.579 -0.92,-0.875 -0.434,-0.771 -0.5,-1.898 0.079,-0.52 0.315,-0.886 0.452,-0.728 0.85,-0.654 0.649,-0.273 1.238,-0.25 0.011,-0.002 0.559,0.098 C 0.429,10.097 0.416,10.072 0.405,10.047 0.247,9.681 0.089,9.316 -0.062,8.947 -0.138,8.76 -0.188,8.562 -0.269,8.379 -0.388,8.109 -0.495,7.837 -0.555,7.548 -0.565,7.497 -0.594,7.451 -0.609,7.401 -0.687,7.148 -0.764,6.895 -0.838,6.641 -0.851,6.597 -0.842,6.549 -0.849,6.504 -0.864,6.414 -0.872,6.32 -0.904,6.235 -1.015,5.932 -1.191,5.649 -1.174,5.307 -1.171,5.263 -1.192,5.216 -1.214,5.176 -1.308,5.003 -1.33,4.818 -1.323,4.625 -1.32,4.553 -1.318,4.478 -1.335,4.41 -1.452,3.978 -1.424,3.54 -1.407,3.101 -1.404,3.03 -1.405,2.957 -1.412,2.885 -1.447,2.509 -1.407,2.126 -1.511,1.755 -1.513,1.749 -1.512,1.743 -1.512,1.735 -1.537,1.341 -1.504,0.952 -1.428,0.563 c 0.042,-0.216 0.061,-0.439 0.076,-0.66 0.017,-0.281 0.005,-0.565 0.152,-0.821 0.015,-0.028 0.026,-0.062 0.029,-0.093 0.028,-0.288 0.069,-0.571 0.197,-0.834 0.002,-0.005 0.001,-0.013 0.004,-0.019 0.039,-0.117 0.076,-0.235 0.115,-0.351 0.036,-0.105 0.075,-0.21 0.112,-0.314 0.019,-0.056 0.029,-0.116 0.058,-0.166 0.122,-0.208 0.258,-0.404 0.338,-0.638 0.068,-0.209 0.199,-0.397 0.282,-0.602 0.069,-0.169 0.156,-0.326 0.249,-0.481 l -0.151,-0.013 -0.206,0.055 -0.931,1.093 -0.668,1.087 -0.177,0.413 -0.529,0.662 -0.912,2.012 -0.501,1.857 -0.26,0.917 -0.184,0.705 -0.139,0.44 -0.036,1.146 -0.249,1.216 -0.073,0.812 -0.093,0.784 -0.026,2.048 -0.118,0.764 -0.151,1.317 -0.055,1.129 -0.093,0.784 -0.006,1.185 -0.136,0.74 -0.059,0.827 -0.093,0.786 -0.044,1.247 0.053,0.829 -0.112,0.707 0.112,0.753 -0.053,2.133 0.048,1.126 -0.101,0.705 0.076,0.709 10e-4,0.009 -0.127,0.769 -0.007,2.953 -0.136,0.737 -0.031,1.453 -0.121,0.752 -0.035,3.229 -0.059,0.437 0.05,0.445 -0.073,0.455 0.13,0.736 0.002,0.01 -0.292,2.088 -0.445,1.898 -0.035,1.456 -0.578,0.933 -0.37,0.238 -0.198,-0.038 -0.274,-0.336 -0.147,-0.492 0.007,-1.773 0.136,-0.737 0.03,-2.042 0.122,-0.752 0.01,-1.77 0.04,-1.126 0.097,-0.788 0.027,-12.956 0.111,-0.482 -0.05,-0.924 10e-4,-0.449 -0.099,-0.808 0.006,-6.487 -0.074,-0.701 0.059,-1.075 0.014,-0.886 -0.045,-0.127 h -0.04 l -0.63,0.82 -1.526,0.867 -0.701,0.184 -0.123,0.123 -0.162,0.694 -0.071,0.545 -0.176,0.188 -0.282,0.038 -0.512,-0.178 -0.11,-0.197 0.481,-0.996 0.021,-0.18 -0.054,-0.138 -1.309,-0.731 -0.849,-0.946 -0.475,-1.035 -0.354,-1.12 -0.003,-0.009 0.031,-1.166 0.1,-0.468 -0.039,-0.19 -0.532,-0.625 -0.329,-0.284 -0.108,-0.241 0.041,-0.247 0.175,-0.18 0.259,-0.042 0.388,0.243 0.439,0.476 0.122,0.071 0.105,-0.026 0.638,-0.521 0.843,-0.377 1.016,-0.182 0.865,0.039 1.278,0.197 0.42,0.192 0.942,0.85 0.344,0.547 0.077,0.023 0.075,-0.081 0.331,-2.027 0.324,-2.619 0.024,-0.564 0.241,-0.65 0.156,-1.037 0.821,-2.427 0.442,-1.044 0.579,-0.916 1.215,-1.151 0.289,-0.253 0.004,-0.129 -0.803,-1.537 -0.512,-2.436 -0.115,-0.123 -0.503,-0.056 -1.462,-0.02 -0.755,-0.122 -0.836,-0.049 -1.308,-0.495 -0.948,-0.526 -0.888,-0.926 -0.752,-1.329 -0.287,-0.908 -0.058,-0.83 -0.001,-0.008 0.315,-1.468 0.706,-1.397 0.948,-1.115 1.237,-0.867 0.845,-0.334 0.81,-0.081 0.344,-0.193 0.115,-0.429 0.039,-0.844 0.284,-0.639 0.688,-1.081 0.928,-0.591 0.81,-0.389 1.201,-0.266 0.113,-0.105 0.011,-0.148 -0.212,-0.342 -0.999,-1.073 -0.4,-0.469 -0.651,-0.531 -0.767,-0.7 -1.002,-0.765 -1.351,-1 -1.082,-0.689 -0.535,-0.348 -2.187,-2.843 -0.571,-0.611 -0.54,-0.638 -1.671,-1.868 -0.527,-0.635 -0.824,-0.666 -0.657,-0.803 -1.254,-1.108 -1.031,-1.021 -0.505,-0.379 -0.019,-0.014 -0.247,-1.013 v -0.236 l 0.142,-0.143 0.393,0.192 1.077,1.023 0.506,0.398 0.65,0.806 0.642,0.543 0.746,0.738 0.257,0.316 0.648,0.54 2.042,2.092 1.058,1.303 1.402,1.845 0.579,0.882 0.548,0.626 0.434,0.436 0.847,0.607 0.835,0.343 1.83,1.44 1.109,0.962 1.593,1.652 1.075,1.259 0.666,0.204 0.505,-0.015 0.039,-0.038 -0.327,-0.438 -2.174,-2.832 -1.205,-1.439 -1.8,-1.743 -0.822,-0.93 -0.662,-0.524 -0.606,-0.567 -1.45,-1.204 -0.971,-0.814 -0.921,-1.15 -0.464,-0.707 -0.522,-0.648 -1.309,-1.35 -0.532,-0.64 -0.884,-0.893 -0.904,-1.141 -0.648,-0.54 -2.209,-2.199 -0.512,-0.394 -0.39,-0.488 -0.307,-0.333 -0.049,-0.293 0.049,-0.285 0.162,-0.162 0.201,0.055 1.525,1.207 1.048,1.009 0.648,0.541 1.441,1.509 1.1,1.257 0.702,0.773 0.682,0.788 1.121,1.239 0.421,0.47 1.375,1.847 1.775,1.47 1.251,1.113 1.153,1.203 0.44,0.441 1.221,1.141 1.442,1.511 0.534,0.643 0.557,0.625 1.073,1.291 1.243,1.703 0.316,0.903 0.062,0.541 0.067,0.15 0.046,0.01 0.751,-0.967 0.468,-0.387 0.015,-0.045 -0.549,-0.532 -0.592,-0.872 -0.893,-1.167 -1.076,-1.294 -0.32,-0.543 -1.178,-1.19 -0.511,-0.656 -0.671,-0.496 -0.66,-0.826 -1.33,-1.312 -1.009,-0.771 -0.875,-0.886 -0.945,-0.818 -0.997,-0.771 -0.887,-1.19 -0.719,-0.76 -0.534,-0.641 -0.555,-0.624 -0.7,-0.769 -1.654,-1.584 -0.924,-0.846 -0.607,-0.568 -0.641,-0.543 -1.069,-0.989 -0.479,-0.422 -0.373,-0.49 -1.477,-1.191 -0.427,-0.477 -0.074,-0.277 0.019,-0.274 0.11,-0.235 0.201,-0.079 0.395,0.217 1.784,1.476 1.25,1.112 1.043,1.014 0.477,0.419 0.402,0.47 0.483,0.414 0.401,0.47 0.517,0.336 0.494,0.071 h 0.893 l 0.703,0.107 1.218,-0.201 1.035,0.084 0.56,0.025 1.672,0.72 1.331,0.738 2.646,1.773 2.163,1.369 3.236,1.781 0.882,0.574 0.853,0.344 0.227,0.037 0.103,-0.029 0.004,-0.052 -1.316,-1.305 -0.662,-0.526 -0.746,-0.716 -1.538,-1.126 -1.032,-1.022 -0.664,-0.524 -0.595,-0.568 -0.702,-0.477 -0.397,-0.494 -0.663,-0.524 -0.901,-0.863 -0.484,-0.415 -0.534,-0.642 -0.958,-1.105 -0.548,-0.649 -0.415,-0.759 -0.806,-1.286 -0.025,-0.271 0.096,-0.214 0.199,-0.07 0.213,0.083 0.799,1.024 0.579,0.881 0.86,0.921 0.707,1.049 0.648,0.53 1.126,1.215 0.685,0.508 0.44,0.44 1.22,1.142 0.431,0.441 0.66,0.523 0.63,0.542 1.721,1.229 2.004,1.553 1.568,1.98 0.65,1.112 0.727,1.053 0.6,1.159 0.577,0.889 0.393,0.504 1.613,2.789 0.417,0.466 0.497,0.994 0.244,0.271 0.364,-0.036 1.102,-0.403 0.82,-0.088 0.801,0.093 1.439,0.666 0.485,0.365 0.133,0.003 1.067,-0.96 1.503,-0.604 1.451,-0.296 0.765,-0.697 1.554,-1.092 0.486,-0.406 0.71,-0.465 1.177,-0.89 1.231,-0.839 1.708,-0.957 1.29,-0.482 2.21,-0.73 2.684,-1.157 1.41,-0.375 1.131,-0.039 0.773,-0.122 1.776,0.015 1.443,0.345 1.569,0.799 1.052,0.726 0.479,0.41 0.894,0.887 0.383,0.489 0.667,0.509 1.396,1.269 0.513,0.651 0.774,0.695 1.154,0.93 0.666,0.826 0.471,1.002 0.094,0.522 0.002,0.013 z" fill="#181716" transform="matrix(1.33333 0 0 -1.33333 22.143 92.989)"/></g></g><path style="mix-blend-mode:multiply" d="M 0,0 H 67.294 V 116.026 H 0 Z" fill="none" stroke="#181716" stroke-width="1.605" stroke-miterlimit="10" transform="matrix(1.33333 0 0 -1.33333 1.07 155.771)"/></svg>