<svg xmlns="http://www.w3.org/2000/svg" width="91.865" height="156.841"><path style="mix-blend-mode:multiply" d="m 291.625,731.079 h 67.294 v 116.025 h -67.294 z" fill="#fff" transform="matrix(1.33333 0 0 -1.33333 -387.764 1130.542)"/><g style="mix-blend-mode:multiply"><g style="mix-blend-mode:multiply"><path style="mix-blend-mode:multiply" d="m 0,0 v 14.735 l -0.049,1.066 -0.088,-0.024 -0.805,-0.983 -2.771,-1.65 -1.032,-0.442 -0.446,-0.437 -1.144,-0.624 -1.327,-0.442 -0.879,-0.3 -1.68,-0.383 -0.83,-0.064 -1.243,0.241 -0.402,0.186 -0.197,0.394 -0.157,2.191 0.112,1.241 0.32,1.725 -0.049,0.658 0.044,1.253 -0.049,1.699 -0.223,3.3 c -0.262,3.859 -1.022,3.513 -0.478,5.935 1.228,5.457 -0.205,11.596 -0.205,11.596 0,0 1.911,4.503 2.32,9.141 0.41,4.64 -3.684,5.662 -3.684,5.662 0,0 2.728,3.207 2.865,11.529 0.137,8.324 -2.319,8.597 -2.319,8.597 l 0.273,5.184 c 0,0 0.954,2.66 2.435,3.277 l 0.608,0.202 0.766,0.422 0.85,0.314 0.623,0.265 1.67,0.688 1.45,0.614 1.094,0.379 1.022,0.157 0.584,0.3 1.061,0.412 1.636,0.428 0.152,0.142 0.045,0.25 -0.02,10.04 v 14.736 l -0.025,1.153 -0.147,0.148 -0.251,0.044 -11.188,0.014 -1.174,-0.004 -0.629,-0.015 -2.353,-0.015 h -14.735 l -1.699,0.049 -1.248,-0.049 -1.12,0.059 -1.792,-0.034 h -0.953 l -0.855,0.044 -0.884,-0.069 -0.884,0.069 -0.88,-0.069 -1.208,0.034 -3.212,-0.034 -1.306,0.064 -1.042,-0.068 -3.365,0.073 -1.35,-0.073 -2.736,0.049 -0.752,0.014 -0.653,-0.044 -1.175,-0.015 -0.745,0.138 -1.061,-0.044 -1.935,0.004 -1.126,0.035 -3.236,0.014 -3.719,-0.122 -1.32,0.093 -4.392,0.029 -1.778,0.011 -0.206,-0.089 -0.089,-0.206 0.011,-11.798 -0.003,-21.811 c 0,0 5.798,-1.774 12.347,-0.682 6.549,1.091 11.461,2.455 11.87,3.547 0.41,1.091 4.844,6.753 9.62,6.208 4.775,-0.546 12.825,-1.024 14.189,-7.846 1.365,-6.821 1.842,-41.408 1.16,-49.458 -0.682,-8.05 -1.706,-12.621 -7.027,-13.712 -5.321,-1.091 -6.413,-7.299 -7.777,-8.527 -1.364,-1.228 -10.71,-0.273 -14.121,0 -3.411,0.273 -19.989,-0.273 -19.989,-0.273 l -0.269,-4.994 0.024,-15.889 0.147,-0.147 0.25,-0.045 4.146,0.02 h 14.441 14.441 14.44 14.44 l 14.746,-0.01 0.206,0.089 0.088,0.205 z" fill="#e30015" fill-rule="evenodd" transform="matrix(1.33333 0 0 -1.33333 97.814 148.076)"/></g><g style="mix-blend-mode:multiply"><path style="mix-blend-mode:multiply" d="m 0,0 0.054,0.692 -0.02,1.449 -0.122,0.781 0.073,1.047 -0.063,1.306 V 20.01 34.451 l 0.015,9.721 0.019,0.623 -0.034,14.706 -0.02,7.933 -0.089,0.088 -0.52,-0.294 -0.953,0.058 -1.224,-0.265 -1.733,-0.624 -3.055,-1.071 -2.107,-0.839 -1.975,-0.974 -1.095,-0.671 -0.764,-0.479 c 0.061,-0.818 0.091,-1.846 0.051,-3.14 -0.137,-4.503 -1.227,-7.777 -1.227,-7.777 0,0 2.455,-0.819 2.318,-6.413 -0.136,-5.594 -1.773,-13.917 -1.773,-13.917 0,0 3.547,-1.091 3.547,-6.821 0,-5.731 -3.274,-8.732 -3.274,-8.732 0,0 2.046,-6.413 0.272,-12.826 -0.565,-2.044 -1.226,-3.793 -1.867,-5.233 l -0.073,-1.595 0.093,-0.511 -0.058,-1.287 0.113,-1.302 0.093,-0.79 -0.039,-2.039 0.059,-2.363 0.461,-1.306 0.541,-1.228 0.294,-0.295 0.624,-0.26 0.476,-0.408 2,-0.363 0.854,0.034 0.762,0.123 0.835,0.049 1.728,0.334 0.938,0.535 0.87,0.604 0.761,0.123 0.737,0.442 1.219,0.256 0.751,0.427 0.539,0.344 0.63,0.256 0.162,0.132 0.127,0.462 0.094,0.727 -0.108,0.752 0.054,1.547 -0.049,1.699 0.034,2.623 0.019,1.149 -0.029,1.798 0.094,0.761 z" fill="#3a3a39" fill-rule="evenodd" transform="matrix(1.33333 0 0 -1.33333 97.702 115.423)"/></g><g style="mix-blend-mode:multiply"><path style="mix-blend-mode:multiply" d="m 0,0 c 0.495,0.357 6.685,4.23 6.685,4.23 0,0 8.05,1.091 13.235,-1.774 5.184,-2.866 5.73,-7.232 6.413,-18.965 0.682,-11.734 1.227,-36.702 0.409,-41.068 -0.819,-4.366 -0.956,-6.958 -6.822,-9.96 -5.867,-3.001 -5.458,-4.911 -7.095,-7.367 -1.637,-2.456 -7.504,-2.319 -16.646,-2.183 -9.14,0.136 -18.555,0.546 -18.555,0.546 l -0.273,73.539 C -11.052,-4.912 -4.912,-3.548 0,0" fill="#3a3a39" fill-rule="evenodd" transform="matrix(1.33333 0 0 -1.33333 25.227 33.184)"/></g></g><path style="mix-blend-mode:multiply" d="m 0,0 -0.318,-0.294 -2.496,-1.925 -1.631,-1.317 -1.847,-1.395 -0.374,-0.304 v -0.971 l 1.931,1.486 c 1.804,1.455 3.63,2.84 5.453,4.274 L 1.271,0 Z" fill="#181716" transform="matrix(1.33333 0 0 -1.33333 9.958 1.07)"/><path style="mix-blend-mode:multiply" d="m 0,0 -2.439,-1.924 -0.968,-0.801 -0.379,-0.314 v -0.882 l 0.522,0.463 c 1.313,0.758 3.036,2.604 4.333,3.331 L 1.216,0 Z" fill="#181716" transform="matrix(1.33333 0 0 -1.33333 6.118 1.07)"/><path style="mix-blend-mode:multiply" d="m 0,0 -0.087,-0.176 -0.011,-0.404 -0.078,-1.301 -0.025,-3.841 0.074,-0.54 0.142,-0.143 h 0.178 l 0.136,0.147 0.084,0.232 c 0.444,1.581 0.256,4.017 -0.024,5.618 L 0.256,0.044 0.133,0.098 Z" fill="#181716" transform="matrix(1.33333 0 0 -1.33333 86.065 4.502)"/><path style="mix-blend-mode:multiply" d="m 0,0 -0.138,-0.746 -0.014,-1.184 0.098,-0.211 0.196,-0.079 0.212,0.064 0.147,0.172 0.354,1.72 L 0.874,2.348 0.688,3.345 0.501,3.759 0.348,3.787 0.211,3.65 0.147,3.404 0.152,1.616 0.029,0.855 Z" fill="#181716" transform="matrix(1.33333 0 0 -1.33333 82.863 13.297)"/><g style="mix-blend-mode:multiply"><path style="mix-blend-mode:multiply" d="M 0,0 0.982,-0.207 1.527,-0.23 1.636,-0.333 1.503,-0.726 1.007,-1.428 0.295,-2.19 0.029,-2.809 -0.624,-3.629 -0.855,-3.947 c 0.178,1.334 0.267,2.679 0.269,4.036 z m -1.734,-8.409 1.233,0.221 2.647,0.315 0.831,0.064 0.506,0.093 0.171,-0.06 0.039,-0.152 -0.486,-1.007 -1.674,-2.155 -0.894,-1.169 -0.792,-0.978 -0.279,-0.425 c -0.397,0.463 -0.865,0.883 -1.427,1.244 -0.317,0.203 -0.58,0.492 -0.891,0.762 0.12,0.383 0.215,0.699 0.319,1.012 0.248,0.74 0.465,1.487 0.666,2.234 z m 3.424,-9.288 0.432,0.055 0.756,-0.109 1.129,-0.054 0.635,0.015 0.132,-0.127 0.015,-0.222 -0.285,-0.639 -1.513,-2.318 -0.55,-0.629 -1.287,-1.954 -0.776,-0.993 -0.565,-0.909 -1.753,-2.372 -0.515,-0.598 c 0.224,0.344 0.398,0.634 0.601,0.877 2.459,2.943 3.272,6.344 2.928,10.043 l 0.164,-0.007 z m -3.699,-25.069 2.47,0.771 0.801,0.093 1.504,-0.275 0.859,-0.034 0.451,-0.138 0.05,-0.118 -1.326,-0.982 -1.808,-0.845 -2.116,-0.55 -1.283,-0.172 -0.877,-0.263 c 0.336,0.788 0.64,1.585 0.889,2.4 z m 0.265,-3.635 -0.579,-0.914 c -1.293,-2.135 -2.638,-4.228 -3.978,-6.335 l -0.574,-0.845 c -0.161,0.205 -0.321,0.411 -0.492,0.613 -0.314,0.37 -0.607,0.76 -0.736,0.923 0.18,0.251 0.358,0.49 0.536,0.732 h 0.136 l 0.879,0.04 0.103,0.103 -0.094,0.118 -0.684,0.201 c 0.561,0.754 1.1,1.477 1.603,2.209 l 0.236,0.002 0.467,0.156 0.083,0.119 -0.083,0.117 -0.212,0.098 -0.155,0.022 c 0.099,0.152 0.204,0.3 0.299,0.455 0.487,0.791 0.917,1.601 1.308,2.424 l 1.122,0.263 0.86,-0.02 0.112,-0.113 z m -4.428,-9.051 0.529,0.421 0.442,0.113 0.162,-0.074 0.069,-0.162 -0.383,-1.36 -0.026,-0.202 c -0.246,0.431 -0.509,0.852 -0.793,1.264 m 3.176,-5.159 1.306,-0.167 1.749,-0.029 0.383,-0.005 1.085,0.363 1.425,0.364 0.152,-0.04 0.03,-0.142 -0.207,-0.393 -1.169,-0.904 -1.626,-0.732 -1.964,-0.392 -1.444,0.028 -0.072,0.019 c -0.017,0.345 -0.071,0.728 -0.175,1.188 -0.081,0.354 -0.172,0.703 -0.273,1.046 z m -3.681,-3.091 c -1.367,-0.132 -2.74,-0.232 -4.114,-0.297 l 0.442,0.249 0.506,0.379 1.134,0.634 1.43,0.054 1.287,-0.187 0.688,-0.295 c -0.217,-0.299 -0.647,-0.466 -1.373,-0.537 m -11.187,-1.462 -0.762,0.123 -1.472,-0.01 -0.739,-0.184 c -0.125,0.571 -0.271,1.138 -0.438,1.703 -0.093,0.317 -0.184,0.637 -0.275,0.955 l 0.758,-0.209 0.599,-0.295 0.497,-0.03 1.655,0.359 0.703,-0.064 0.904,0.289 1.251,0.222 1.563,0.5 1.62,0.738 1.582,1.07 0.718,0.757 0.535,0.643 0.702,0.771 0.888,1.108 c 0.469,-0.709 0.886,-1.449 1.252,-2.223 l -0.058,-0.083 c -0.706,-0.229 -1.433,-0.964 -0.171,-1.017 l 0.71,-0.015 c 0.189,-0.477 0.364,-0.962 0.516,-1.463 0.075,-0.248 0.123,-0.462 0.156,-0.661 l -0.223,0.057 c -3.026,1.437 -4.784,-0.64 -7.284,-1.804 l -0.208,-0.144 c -0.667,-0.014 -1.335,-0.02 -2.002,-0.017 -1.429,0.007 -2.856,0.446 -4.282,0.697 -0.279,0.048 -0.552,0.127 -0.827,0.192 0.448,-0.87 1.188,-1.191 1.975,-1.468 0.577,-0.204 1.159,-0.348 1.746,-0.459 l -0.435,-0.073 z m -18.454,-9.971 -0.879,0.069 c -4.965,-0.138 -10.1,0.193 -15.059,0.039 l -0.199,0.009 c 1.422,0.401 2.795,0.912 4.117,1.544 l 4.363,0.028 1.12,-0.058 0.652,0.044 2.688,0.006 c 1.199,-0.682 2.42,-1.231 3.663,-1.649 z m -6.955,4.488 c 0.254,-0.22 0.507,-0.44 0.754,-0.655 0.38,-0.329 0.734,-0.696 1.145,-0.982 0.177,-0.123 0.356,-0.236 0.534,-0.353 l -0.542,0.012 -1.002,-0.054 -0.717,0.108 -2.057,0.015 -1.018,-0.143 -0.514,0.098 c 0.981,0.57 1.93,1.217 2.841,1.951 z m -5.423,0.891 -1.93,-1.607 -0.437,-0.176 -0.511,0.063 -0.334,0.266 -0.231,0.358 -0.093,0.497 -0.019,2.632 -0.241,0.643 -0.456,0.722 -0.301,1.174 -0.005,0.87 0.708,2.24 v 0.545 c 0.908,-0.158 1.819,-0.353 2.733,-0.59 0.741,-0.192 1.455,-0.434 2.156,-0.706 l 0.081,-0.812 0.182,-0.996 0.285,-0.6 0.324,-0.265 0.929,-0.26 0.455,0.059 0.572,0.329 0.476,0.412 0.302,0.107 c 0.264,-0.359 0.382,-0.781 0.345,-1.323 -0.072,-1.072 -0.443,-2.009 -1.092,-2.746 l -0.503,-0.109 -1.026,0.161 -1.233,-0.255 z m -5.437,8.237 -0.869,-0.03 c -2.202,-0.006 -4.323,0.048 -6.532,0 l -0.303,0.005 c 2.746,0.544 5.52,0.561 8.317,0.168 l -0.077,-0.08 z m 34.572,79.721 c -0.242,0.606 -0.556,1.107 -0.908,1.552 l 0.272,0.178 0.53,0.054 0.222,-0.078 0.372,-0.816 0.769,-1.387 c -0.082,-0.182 -0.165,-0.38 -0.269,-0.602 -0.406,0.44 -0.834,0.715 -0.988,1.099 m -6.194,4.335 c -0.917,0.214 -1.848,0.371 -2.781,0.511 l 0.043,0.175 -0.123,0.472 -0.589,0.884 -0.275,0.324 -0.064,0.511 0.181,0.432 0.497,0.977 0.25,1.228 0.099,0.477 -0.119,0.447 -0.359,0.531 -0.189,0.062 c 0.504,0.629 1.035,1.22 1.599,1.773 l 0.256,-0.171 0.707,-0.766 0.467,-0.123 0.978,-0.202 0.157,-0.137 0.162,-0.441 -0.011,-0.472 -0.304,-1.12 0.177,-1.184 0.329,-0.555 0.678,-0.505 0.497,-0.09 1.001,0.05 0.668,0.035 1.336,0.153 0.83,0.068 0.757,-0.133 1.203,-0.565 0.638,-0.546 0.177,-0.407 -0.034,-0.211 -0.663,-0.82 -0.727,-0.452 -0.374,-0.511 -0.466,-0.712 -0.516,-0.368 -1.227,-0.541 -0.235,-0.161 c -1.248,1.13 -2.895,1.68 -4.631,2.083 m -38.329,0.454 2.092,1.445 c 5.945,3.963 11.784,8.063 17.899,11.867 l 0.122,0.097 c 0.11,-0.517 0.216,-1.034 0.315,-1.553 l -0.972,-0.66 -0.634,-0.546 c -2.004,-1.309 -3.396,-2.37 -5.285,-3.85 l -1.856,-1.385 -0.428,-0.467 -0.138,-0.457 0.079,-0.198 0.212,-0.092 0.889,0.009 0.917,0.262 2.771,0.471 1.061,0.137 0.177,-0.063 0.034,-0.147 -0.103,-0.179 -0.49,-0.426 -0.64,-0.54 -1.366,-0.993 -0.794,-0.677 -2.119,-1.715 -0.648,-0.53 -0.842,-0.743 c -3.45,-0.261 -6.912,-0.011 -10.398,0.877 z m 2.028,2.963 0.727,1.357 0.732,0.74 1.926,2.52 0.28,0.217 0.334,-0.438 0.225,-0.069 0.974,0.221 0.466,0.418 0.658,0.52 1.985,1.259 2.849,1.866 2.695,1.722 1.136,0.635 0.711,0.467 0.723,0.457 1.131,0.795 c 0.116,-0.446 0.227,-0.894 0.332,-1.343 l -2.712,-1.742 -0.481,-0.402 c -2.123,-1.253 -4.418,-3.139 -6.591,-4.312 l -2.79,-1.927 -1.041,-0.726 c -1.245,-1.093 -2.79,-1.697 -4.107,-2.711 l -0.19,-0.02 -0.11,0.108 z m 4.564,6.067 1.105,1.547 1.311,1.635 2.151,2.858 0.584,0.889 1.804,1.145 0.943,0.531 0.353,0.235 0.643,0.241 0.694,0.487 0.741,0.436 0.831,0.349 0.522,0.341 c 0.414,-1.066 0.77,-2.149 1.08,-3.244 l -2.448,-1.557 c -3.308,-2.318 -6.852,-4.33 -10.275,-6.547 l -0.398,-0.123 -0.054,0.054 z m 7.381,9.98 1.46,2.103 0.55,0.628 0.823,1.132 c 0.433,-0.816 0.841,-1.635 1.195,-2.473 l -0.054,-0.034 -0.663,-0.221 -0.707,-0.472 -1.724,-0.923 -0.834,-0.305 -0.088,0.089 z m 9.466,-5.904 0.944,0.53 c 1.841,1.669 4.836,3.405 6.988,4.833 l 0.133,0.227 -0.207,0.024 -0.014,0.069 0.142,0.235 0.6,-0.049 0.221,0.049 1.007,0.777 0.02,0.132 -0.217,0.236 0.02,0.113 0.359,0.216 0.147,-0.034 0.064,-0.418 0.417,0.407 1.125,0.65 1.022,0.745 1.115,0.663 0.214,0.285 c 0.126,-0.492 0.196,-0.8 0.319,-1.083 0.7,-1.592 1.092,-3.255 1.35,-4.95 l -0.149,-0.121 -0.722,-0.456 c -1.727,-1.29 -3.034,-2.333 -4.844,-3.705 l -0.407,-0.18 -1.16,-1.199 c -1.929,-1.51 -3.868,-3 -5.771,-4.544 l -0.855,-0.618 -0.361,-0.33 c -0.495,0.075 -0.984,0.15 -1.483,0.226 l 0.479,0.29 1.036,0.732 0.497,0.418 0.059,0.182 -0.069,0.166 -0.201,0.103 -0.566,0.015 -1.429,-0.353 -0.208,-0.041 c -0.264,1.638 -0.529,3.284 -0.757,4.94 -0.003,0.015 0,0.033 -0.002,0.049 z m 15.973,2.094 c 0.128,-1.136 -0.108,-1.979 -1.22,-2.682 -0.942,-0.595 -1.829,-1.269 -2.658,-2.008 l -0.105,0.032 -0.825,-0.054 -0.899,-0.28 -0.526,-0.359 -0.353,-0.53 -0.359,-0.82 -0.28,-0.31 -0.762,-0.418 -0.717,-0.756 -0.122,-0.467 -0.045,-0.545 -0.117,-0.176 -1.511,-0.821 c -0.874,0.133 -1.755,0.267 -2.632,0.4 l 1.383,1.118 0.545,0.633 0.441,0.443 0.703,0.477 0.481,0.403 0.555,0.328 0.565,0.614 0.24,0.348 1.632,1.022 0.791,0.683 1.493,1.159 0.579,0.305 3.394,2.5 0.274,0.22 c 0.018,-0.154 0.038,-0.306 0.055,-0.459 m -5.871,-6.784 -0.013,0.073 0.044,0.216 0.516,0.683 0.422,0.167 0.041,-0.002 c -0.353,-0.364 -0.688,-0.743 -1.01,-1.137 m -0.722,-6.838 c 0.006,0.154 0.008,0.311 0.014,0.468 l 0.45,-0.139 0.191,-0.398 0.246,-0.639 0.408,-0.611 c -0.036,0.005 -0.07,0.011 -0.106,0.015 -0.835,0.106 -1.228,0.515 -1.203,1.304 m -1.805,3.11 c -0.079,0.011 -0.157,0.023 -0.237,0.035 l 0.084,0.078 0.284,0.097 c -0.044,-0.07 -0.087,-0.141 -0.131,-0.21 m 0.927,1.639 -0.137,0.133 -0.005,0.188 0.29,0.308 0.565,0.291 c -0.212,-0.309 -0.422,-0.618 -0.622,-0.936 z m -13.478,-1.802 1.322,1.037 0.378,0.21 1.093,0.167 c 0.014,-0.287 0.028,-0.572 0.033,-0.858 l -0.409,-0.321 -2.751,-1.965 -1.124,-0.937 -0.727,-0.451 -2.37,-1.88 c -0.858,-0.149 -1.716,-0.271 -2.574,-0.361 l 0.219,0.187 1.301,1.055 1.027,0.742 1.512,1.141 1.807,1.434 z m 2.503,4.279 c 0.099,-0.602 0.167,-1.212 0.22,-1.824 l -2.846,-0.563 -2.785,-0.458 -0.928,-0.26 -0.574,-0.02 -0.197,0.079 -0.009,0.128 c 1.785,1.704 3.939,2.927 5.849,4.479 l 0.883,0.675 c 0.135,-0.744 0.265,-1.49 0.387,-2.236 m 0.325,-4.853 c -0.011,-0.643 -0.136,-1.197 -0.382,-1.668 l -1.429,-1.133 -0.378,-0.363 c -0.161,-0.062 -0.324,-0.124 -0.503,-0.176 -1.052,-0.3 -2.104,-0.561 -3.156,-0.785 l 0.211,0.141 1.036,0.731 0.654,0.526 1.699,1.248 0.511,0.673 0.147,0.078 0.349,0.03 0.314,0.246 0.717,0.471 0.209,0.175 c -0.001,-0.065 0.002,-0.13 10e-4,-0.194 m 12.895,1.507 0.196,-0.629 -0.461,-1.321 -0.251,-0.338 -0.451,-0.147 -0.26,0.021 c 0.031,0.116 0.063,0.23 0.11,0.336 0.318,0.708 0.661,1.42 1.061,2.088 z m 8.763,7.318 c 2.1,1.01 4.238,1.596 6.527,1.457 l -0.928,-0.597 -2.829,-1.591 -0.702,-0.477 -0.948,-0.525 -0.894,-0.579 -0.993,-0.482 -0.746,-0.432 -0.943,-0.531 -1.11,-0.668 -0.349,-0.216 -0.383,0.011 -0.982,0.21 -0.197,0.098 -0.343,0.478 c 1.719,1.554 3.676,2.813 5.82,3.844 m -2.903,-5.535 0.162,0.443 c 2.173,1.381 5.339,3.458 7.638,4.464 l 0.304,0.222 0.059,-0.059 -0.25,-0.585 -0.32,-0.57 c -0.581,-1.232 -3.372,-6.569 -4.607,-7.476 l -1.144,-0.334 -0.899,0.049 c -1.05,0.028 -1.274,0.499 -1.061,1.503 l 0.034,0.669 0.108,1.031 z m 13.571,8.252 1.037,0.456 0.122,-0.009 -0.064,-0.649 -0.274,-0.618 -0.285,-0.895 -0.712,-1.645 -0.328,-0.983 c -0.135,0.675 -0.305,1.346 -0.468,2.013 -0.081,0.333 -0.449,0.597 -0.686,0.893 -0.267,-0.543 -0.262,-0.926 -0.268,-1.308 -0.035,-2.055 0.032,-4.118 -0.128,-6.161 l -0.274,-0.849 -0.339,-0.84 -0.433,-1.336 -0.377,-0.505 -0.654,-0.526 -1.149,-0.619 -0.177,-0.005 -1.036,1.021 -1.562,0.797 -0.521,0.068 -0.157,0.148 -0.045,0.25 0.271,0.948 1.999,3.306 0.85,1.507 0.466,0.713 0.678,1.385 0.806,1.258 0.461,0.421 z m 3.572,-15.158 -0.276,-0.368 c -1.707,-2.248 -4.52,-5.133 -7.525,-3.174 l -0.042,0.023 c 2.127,1.927 4.599,3.322 7.843,3.519 m 3.002,-2.085 c 0.501,-1.519 0.751,-3.074 0.456,-4.632 -0.364,-1.927 -0.84,-3.836 -1.37,-5.725 L -4.814,10.875 -6.68,8.554 C -6.87,8.458 -7.071,8.368 -7.291,8.292 -9.847,7.398 -11.709,5.486 -13.352,3.395 c -0.679,-0.864 -1.247,-1.817 -2.001,-2.93 -0.234,1.438 -0.391,2.873 -0.533,4.299 l 0.017,0.046 -0.027,0.061 c -0.077,0.771 -0.151,1.54 -0.23,2.306 l 0.826,0.923 1.198,1.454 1.111,1.248 0.55,0.628 0.412,0.472 0.511,0.372 0.55,0.654 0.172,0.074 0.157,-0.059 0.084,-0.177 -0.143,-1.311 -0.609,-1.749 -0.309,-0.584 -0.044,-0.197 0.127,-0.413 0.128,-0.186 0.166,-0.108 0.418,0.097 1.14,0.65 1.626,1.321 0.854,0.913 0.629,1.435 0.605,2.636 0.038,2.909 0.173,1.292 -0.055,0.358 -0.132,0.451 -0.049,0.546 -0.335,0.854 -0.073,0.502 0.152,0.437 0.476,0.661 c 0.96,-0.182 1.469,-0.796 1.879,-2.039 m 0.868,-38.697 0.181,-0.113 h 1.424 l 0.569,0.095 c 0.158,-0.799 0.212,-1.625 0.166,-2.461 l -1.766,-1.024 -0.702,-0.476 -1.474,-0.884 -0.619,-0.265 -1.066,-0.703 -1.222,-0.584 -0.202,-0.01 -0.118,0.118 0.055,0.467 0.485,1.306 0.128,0.776 -0.049,0.162 -0.187,0.069 -0.51,-0.084 -0.624,-0.27 -0.693,-0.486 -0.879,-0.594 -3.473,-1.832 -0.786,-0.393 -0.553,-0.291 c 0.036,0.607 0.108,1.206 0.239,1.793 l 0.335,0.224 1.752,1.242 0.889,0.879 0.599,0.875 0.678,0.501 0.654,0.82 0.717,0.757 0.535,0.642 0.555,0.625 0.702,0.771 1.361,1.586 0.146,0.199 c 0.187,0.091 0.37,0.188 0.558,0.277 0.629,0.297 1.358,0.383 2.164,0.599 0.589,-0.622 1.067,-1.317 1.439,-2.063 l -0.544,-0.737 -0.806,-0.978 -0.133,-0.363 z m 1.84,1.211 c 0.057,-0.162 0.111,-0.325 0.158,-0.49 l -0.097,0.01 -0.167,0.09 -0.02,0.121 z m -8.864,-35.244 c -0.36,0.585 -0.814,0.949 -1.32,1.169 l 0.381,0.176 0.526,0.359 0.678,0.206 1.988,0.011 c -0.572,-0.764 -1.255,-1.45 -2.253,-1.921 m -2.274,-5.045 -6.459,0.029 -0.777,0.118 -0.319,0.216 0.005,0.163 0.452,0.741 0.319,0.271 1.371,0.377 1.748,-0.27 0.751,0.147 4.711,0.006 0.761,0.123 0.545,0.012 c 0.38,-0.424 0.738,-0.862 1.075,-1.315 l -0.46,-0.446 -0.458,-0.133 z m -1.071,-2.52 -1.7,0.05 -4.981,0.034 -3.04,-0.008 c -0.279,0.364 -0.608,0.699 -1.001,0.995 l 2.087,0.314 0.747,0.138 11.507,0.005 0.178,-0.064 0.024,-0.138 -0.913,-1.169 -0.472,-0.118 -1.522,0.049 z m -9.223,-0.695 0.597,-0.076 1.022,0.069 1.287,-0.064 0.781,0.084 3.827,-0.015 0.712,-0.108 0.771,0.127 0.82,-0.088 0.211,-0.088 0.099,-0.138 -0.045,-0.162 -0.712,-0.496 -2.195,-0.752 -0.772,-0.112 -0.653,-0.231 -1.468,-0.3 -1.169,0.01 -0.742,0.123 -0.659,-0.054 -0.878,0.218 c -0.225,0.717 -0.481,1.414 -0.834,2.053 m -0.257,-10.047 -0.471,-0.093 c -3.892,0.236 -8.283,0.105 -12.201,0.162 l -6.199,-0.009 c -0.213,0.164 -0.428,0.328 -0.641,0.493 0.027,0.176 0.058,0.348 0.089,0.521 l 0.056,0.026 0.619,0.571 0.427,0.092 1.134,-0.014 0.418,-0.006 1.119,0.06 1.169,0.009 0.737,0.128 0.752,-0.148 0.792,0.099 1.123,0.064 c 3.25,-0.168 6.471,-0.015 9.712,-0.015 l 0.747,-0.137 0.671,0.007 c 0.016,-0.598 -0.003,-1.202 -0.052,-1.81 z m -2.769,-4.306 c -2.683,0.061 -5.388,0.023 -8.039,0.368 -0.486,0.063 -0.955,0.167 -1.414,0.289 l 1.736,0.004 0.971,-0.098 0.796,0.079 6.479,0.014 1.121,-0.058 0.332,0.001 c -0.326,-0.528 -0.842,-0.625 -1.982,-0.599 m -21.232,10.956 c 0.735,-0.323 1.455,-0.684 2.157,-1.101 0.072,-0.044 0.12,-0.094 0.184,-0.139 l -0.065,-0.037 -0.614,-0.564 -0.525,-0.074 -0.727,0.177 -0.168,0.127 -0.137,0.453 -0.133,1.026 z m 29.35,9.804 0.594,0.3 0.276,0.314 0.289,0.3 0.241,0.054 2.952,-0.005 1.346,0.114 c 0.315,-0.176 0.612,-0.392 0.891,-0.635 0.437,-0.381 0.846,-0.782 1.242,-1.192 l -0.419,0.067 c -2.214,0.016 -4.868,0.218 -7.029,0.069 l -0.648,0.178 -0.02,0.132 z m -2.173,-0.11 -0.199,-0.749 -0.556,-1.213 -0.736,-0.737 -0.928,-0.545 -1.386,-0.383 -2.022,0.021 c 0.495,0.462 0.855,0.845 1.267,1.144 1.433,1.042 2.964,1.836 4.56,2.462 m 0.765,2.211 c -1.017,-0.334 -1.794,-0.215 -2.529,0.462 l 0.435,0.508 1.076,1.016 0.167,0.049 0.127,-0.073 0.61,-1.154 0.363,-0.536 0.048,-0.18 c -0.099,-0.031 -0.199,-0.06 -0.297,-0.092 m -12.222,-15.613 0.878,0.339 2.098,0.555 0.58,0.305 3.493,-0.005 0.53,-0.084 0.619,-0.413 c 0.042,-0.322 0.065,-0.646 0.091,-0.97 l -1.064,-0.135 c -2.414,0.214 -4.826,-0.131 -7.22,0.192 l -0.098,0.098 z m 6.199,2.368 -0.276,-0.275 -0.903,0.044 -0.114,0.113 0.08,0.137 0.466,0.163 0.53,-0.084 z m -17.386,0.724 c 0.209,0.183 0.506,0.521 0.871,0.749 0.149,0.091 0.301,0.167 0.45,0.257 l -0.778,-0.635 -0.538,-0.401 c -0.002,0.01 -0.003,0.02 -0.005,0.03 m 11.142,1.088 -0.255,-0.285 -0.604,-0.299 -2.898,-0.05 -0.762,-0.122 -0.235,0.059 -0.982,0.81 -0.006,0.098 1.213,0.222 1.484,-0.006 0.712,-0.103 0.723,0.079 0.884,0.005 0.485,-0.138 0.183,-0.118 z m 6.568,2.323 -0.963,0.379 0.059,0.058 0.281,0.366 c 0.258,-0.184 0.461,-0.447 0.623,-0.803 m -1.776,1.155 c 0.14,-0.007 0.257,-0.036 0.379,-0.058 l -0.195,-0.748 -0.088,-0.123 -0.202,-0.113 -0.781,-0.122 -1.041,-0.433 -1.292,-0.775 h -0.408 l -0.673,-0.025 -0.741,0.093 c -1.513,-0.393 -3.821,0.328 -5.486,-0.127 l -0.713,0.108 -1.037,-0.004 c 3.834,1.787 7.928,2.545 12.278,2.327 m -8.922,-7.766 -0.108,-0.098 -0.979,-0.132 -0.898,0.142 -0.776,-0.064 -0.181,0.064 -0.005,0.123 0.324,0.27 0.466,0.132 1.552,-0.211 0.491,-0.133 z m -0.104,1.027 -1.026,0.152 -0.948,0.069 -1.116,-0.363 -1.414,-0.649 -1.184,-0.29 -0.898,-0.574 -0.095,-0.07 c 0.058,0.365 0.103,0.728 0.107,1.09 0.008,0.667 -0.112,1.335 -0.229,2.082 l 0.393,0.258 0.521,0.363 c 2.686,2.118 3.441,0.231 5.874,-0.29 l 0.757,0.143 2.628,0.024 c 2.759,0.907 2.662,3.127 6.213,3.222 l 1.204,-0.275 0.377,-0.199 c 0.464,-1.19 0.837,-2.391 1.087,-3.606 l -0.575,0.569 -0.466,0.417 -1.361,0.412 -0.55,0.024 -1.071,-0.412 -0.673,-0.506 -0.619,-0.56 -1.503,-0.559 -1.478,-0.585 -1.155,-0.319 -1.302,-0.069 z m 28.003,17.265 -0.118,0.157 0.009,0.196 0.128,0.178 0.94,0.673 c -0.159,-0.279 -0.304,-0.56 -0.476,-0.835 -0.091,-0.145 -0.182,-0.289 -0.274,-0.433 z m 3.403,7.235 v 1.149 l -0.014,2.648 0.176,0.412 0.89,1.173 0.091,0.103 c -0.221,-1.889 -0.568,-3.743 -1.084,-5.548 z m -1.022,-1.484 0.554,-0.244 C -4.865,-44.21 -5.3,-45.24 -5.807,-46.25 l -1.433,-0.716 c -2.034,-2.293 -2.93,-1.04 -4.995,-2.962 l -0.148,-0.138 c -0.593,0.066 -1.216,0.024 -1.826,-0.049 -1.263,-0.152 -2.519,-0.455 -3.749,-0.823 l -0.259,0.451 -0.663,1.119 -0.006,0.477 0.29,0.608 0.757,0.717 0.619,0.266 0.79,0.093 0.462,0.128 0.526,0.358 1.267,1.976 0.663,0.515 0.481,0.122 2.063,-0.314 0.835,0.054 1.268,0.795 0.962,0.807 0.923,0.255 0.403,0.187 0.417,0.761 0.379,1.39 0.364,1.13 0.23,0.294 0.088,-0.088 0.025,-2.633 -0.063,-1.306 z m -2.485,27.96 -0.436,-0.691 c -2.498,-2.188 -3.58,-3.701 -5.782,-5.884 l -0.551,-0.313 c 0.183,0.458 0.412,0.909 0.704,1.351 1.579,2.391 3.681,4.142 6.065,5.537 m -6.318,-2.804 c -0.222,-0.252 -0.45,-0.496 -0.682,-0.738 -0.034,-0.035 -0.106,-0.034 -0.478,-0.141 0,1.707 10e-4,3.327 10e-4,4.924 l 0.223,0.088 c 2.27,0.23 5.371,1.212 7.569,1.111 l 0.974,0.242 c -2.976,-1.215 -5.48,-3.072 -7.607,-5.486 m -1.075,-14.194 c 0.274,0.728 0.781,1.268 1.605,1.638 0.64,0.287 1.28,0.582 1.921,0.875 l -0.451,-0.385 -0.549,-0.334 -0.482,-0.402 -0.712,-0.467 -1.085,-0.683 z m -0.49,-5.521 0.471,0.429 2.024,1.808 1.616,1.625 0.914,0.855 0.79,0.683 0.575,0.604 2.814,2.794 0.212,0.379 -0.02,0.191 -0.132,0.167 -0.177,0.093 -0.148,-0.024 c -1.965,-2.42 -5.426,-5.34 -7.701,-7.584 l -0.658,-0.52 -0.507,-0.488 c 0.071,1.024 0.131,2.048 0.162,3.073 0.004,0.109 0.015,0.21 0.024,0.314 l 0.041,0.033 0.678,0.501 0.461,0.422 2.388,1.739 1.542,1.11 1.263,0.954 c 0.548,0.213 1.101,0.41 1.662,0.579 1.297,0.391 2.795,0.824 3.961,-0.249 l -0.614,-0.778 c -4.031,-3.714 -7.736,-8.309 -11.724,-12.147 l -0.23,-0.245 c 0.112,1.227 0.219,2.454 0.313,3.682 M -3.942,7.385 -4.72,6.362 -5.516,5.388 C -6.627,3.892 -7.965,2.385 -9.013,0.929 l -0.546,-0.633 -0.485,-0.693 -0.546,-0.634 -0.338,-0.565 -0.025,-0.501 0.122,-0.181 0.453,-0.143 1.492,-0.275 0.718,-0.168 1.13,-0.23 0.348,-0.059 0.054,-0.113 -0.904,-1.11 c -2.369,-2.256 -4.604,-4.628 -6.954,-6.896 l -0.52,-0.468 c 0,0.043 0,0.088 -0.001,0.132 -0.002,1.289 0.117,2.597 -0.052,3.866 -0.368,2.773 0.56,5.193 1.84,7.525 1.557,2.84 3.615,5.252 6.372,7.015 0.141,0.091 0.262,0.22 0.413,0.287 1.182,0.528 1.945,0.756 2.5,0.3 m -5.361,-32.592 0.153,-0.152 0.535,-0.069 0.486,0.127 2.363,1.469 0.781,0.398 0.501,0.383 0.614,0.271 0.516,0.368 0.79,0.388 1.026,0.486 0.178,0.034 0.073,-0.073 -0.314,-1.115 -1.037,-1.911 -0.54,-0.933 -0.314,-0.569 -0.072,-0.091 c -0.681,0.176 -1.345,0.27 -1.996,0.287 l 1.409,1.051 1.047,1.055 0.039,0.173 -0.103,0.103 -0.206,-0.005 -1.11,-0.697 -0.722,-0.458 -1.555,-1.272 c -2.791,-0.286 -5.389,-1.741 -8.155,-3.013 -0.016,1.109 -0.074,2.202 -0.055,3.27 l 0.865,0.485 0.943,0.53 1.841,0.811 0.978,0.496 1.11,0.693 0.211,0.063 0.147,-0.029 0.005,-0.398 -0.127,-0.79 -0.3,-0.595 -0.064,-0.531 z m 6.806,27.276 c 0.029,-0.338 0.057,-0.678 0.07,-1.016 l -0.29,0.068 -0.171,0.107 -0.059,0.148 0.192,0.354 z M -3.118,5.721 C -2.908,4.928 -2.76,4.134 -2.645,3.34 L -2.844,3.012 -3.262,2.545 -3.654,1.759 -4.204,1.121 -4.342,0.663 -4.264,0.467 -4.056,0.374 -2.413,0.351 C -2.39,-1.801 -2.649,-3.954 -3.13,-6.098 -3.239,-6.584 -3.363,-7.067 -3.495,-7.549 l -0.243,-0.358 -0.103,-0.182 v -0.177 l 0.112,-0.116 c -0.238,-0.801 -0.501,-1.594 -0.783,-2.378 -0.08,-0.221 -0.224,-0.452 -0.393,-0.664 l -0.07,0.019 -0.119,0.118 -0.501,-0.02 -1.999,-0.383 -2.308,-0.343 -1.503,-0.266 -1.434,-0.215 -0.428,0.019 -0.677,-0.212 -0.413,0.099 -0.074,0.137 0.177,0.35 0.629,0.569 0.565,0.32 0.255,0.334 0.334,0.55 0.757,0.717 0.722,0.751 0.471,0.412 0.545,0.635 c 1.74,1.539 3.268,3.222 4.888,4.862 l 0.093,0.157 -0.044,0.133 -0.953,0.225 c -1.493,0.509 -3.093,0.369 -3.689,0.751 l -0.068,0.159 0.201,0.338 c 1.487,2.756 4.038,4.962 5.835,7.741 l 0.218,0.25 c 0.137,-0.275 0.261,-0.625 0.377,-1.062 m -13.356,8.563 1.105,0.668 0.422,0.157 0.443,-0.132 0.79,-0.399 1.273,-0.201 0.868,-0.028 0.138,-0.138 -0.005,-0.208 c -0.83,-1.129 -1.719,-2.22 -2.662,-3.27 l -1.616,-1.921 -0.521,-0.586 c -0.219,1.936 -0.51,3.851 -1.026,5.736 z m -1.018,2.596 0.625,-0.588 0.531,-0.387 0.029,-0.168 -0.299,-0.279 -0.919,-0.62 c -0.148,0.47 -0.307,0.939 -0.491,1.405 0.174,0.214 0.348,0.426 0.524,0.637 m 0.948,3.65 c -0.506,-0.562 -0.884,-1.27 -1.28,-1.95 l -0.566,0.9 -0.103,0.497 0.011,0.589 0.176,0.408 0.491,0.692 0.157,0.02 0.875,-0.894 z m 0.425,0.453 -0.159,0.167 c -0.867,1.787 0.299,1.721 1.326,3.104 l 1.615,1.069 c -0.548,-1.602 -1.414,-3.075 -2.782,-4.34 m 9.193,-5.482 -0.122,-0.918 c -0.498,-2.275 -1.274,-3.249 -2.962,-4.72 l -0.143,0.029 -0.049,0.163 0.403,1.679 0.069,1.405 0.108,1.072 0.098,0.196 1.503,0.849 0.511,0.393 0.216,0.034 0.221,-0.053 z m -8.208,3.7 0.694,-0.487 c 3.044,-1.294 4.316,0.381 6.762,1.97 l 0.256,0.255 0.119,-0.083 0.122,-0.432 c -0.747,-1.431 0.612,-0.644 0.099,-2.418 l -0.615,-1.154 -0.736,-0.736 -1.16,-0.608 -1.228,-0.247 -2.033,0.03 -0.967,0.21 -1.126,0.645 -1.355,0.706 -0.656,0.656 c 0.545,0.63 1.106,1.236 1.692,1.804 z m -8.06,-91.253 c -0.056,-0.258 -0.11,-0.477 -0.165,-0.677 l -0.433,0.006 -2.088,-0.02 -11.214,0.028 c -1.258,0.581 -2.434,1.344 -3.574,2.174 l 0.229,0.043 c 5.741,-0.17 11.483,0.032 17.211,-0.118 l 0.288,0.03 c -0.063,-0.486 -0.146,-0.975 -0.254,-1.466 m 20.56,38.946 c -0.026,-0.47 -0.066,-0.934 -0.105,-1.399 l -0.301,-0.304 -0.389,-0.526 -0.166,-0.049 -0.153,0.084 -0.191,0.736 -0.133,0.147 -0.192,-0.014 -0.25,-0.374 -0.56,-1.213 -0.633,-1.134 -0.811,-2.136 -0.437,-2.216 -0.241,-0.349 -0.692,-0.192 -0.481,-0.108 -0.502,-0.382 -0.987,-0.796 -0.211,-0.04 -0.221,0.054 c -0.749,0.482 0.398,1.717 0.702,2.088 l 0.654,1.115 0.717,1.051 c 1.248,1.701 2.702,4.051 3.85,5.874 l 0.565,0.614 0.732,1.331 0.459,0.649 c 0.011,-0.911 0.021,-1.719 -0.023,-2.511 m 0.068,4.384 c 0.005,0.007 0.008,0.011 0.012,0.019 l -1.016,-1.745 -0.723,-1.046 c -1.867,-3.022 -3.906,-5.947 -5.762,-8.974 l -0.653,-0.82 -0.447,-0.732 -0.928,-1.135 -0.407,-0.182 -1.218,-0.255 -0.762,-0.417 -0.736,-0.736 -0.428,-0.752 -0.511,-0.374 -1.025,-0.44 c 0.711,0.999 1.168,2.16 1.291,3.526 0.016,0.176 0.033,0.352 0.048,0.528 l 0.973,0.994 c 3.999,4.114 7.719,8.339 11.724,12.441 l 0.372,0.384 c 0.067,-0.09 0.133,-0.182 0.196,-0.284 m 1.947,33.93 0.56,0.618 1.081,1.572 c 0.755,1.606 2.332,3.24 2.977,4.686 l 1.36,2.175 0.403,0.482 c 0.724,1.497 3.918,5.715 4.184,7.029 L 9.897,22.001 9.794,22.103 9.686,22.029 9.401,21.415 8.429,20.03 8.001,19.279 7.598,18.797 6.822,17.511 5.417,15.674 5.034,14.878 C 2.974,11.958 0.994,9.052 -0.81,5.979 L -0.933,5.457 -1.066,5.356 c -0.237,0.998 -0.622,1.914 -1.3,2.659 l 0.21,0.203 0.294,0.59 c 2.259,2.765 4.547,5.506 6.621,8.408 l 0.718,0.757 0.54,0.638 0.521,0.659 0.702,1.065 0.801,0.968 1.09,1.267 0.428,0.471 0.078,0.202 L 9.623,23.474 9.529,23.66 9.401,23.724 8.812,23.179 8.247,22.57 C 6.847,20.889 6.031,19.446 4.445,17.825 L 3.768,17.03 3.434,16.48 C 1.482,14.24 -0.49,11.653 -2.328,9.274 l -0.389,-0.79 -0.09,-0.061 c -0.099,0.083 -0.183,0.174 -0.292,0.251 0.359,1.59 0.705,3.088 1.036,4.562 l 2.319,2.886 0.525,0.652 c 1.789,2.201 3.547,4.543 5.28,6.803 l 1.179,1.474 0.585,0.593 0.323,0.561 0.384,0.501 0.353,0.529 0.663,0.816 0.133,0.492 -0.035,0.244 -0.092,0.095 -0.59,-0.545 C 5.559,24.07 2.197,19.772 -1.14,15.453 l -0.58,-0.664 c 0.055,0.253 0.111,0.505 0.165,0.757 0.418,1.957 0.255,3.921 -0.174,5.847 -0.437,1.962 -1.351,3.113 -2.814,3.595 l 0.147,0.204 0.442,0.443 0.462,0.717 1.469,1.478 1.036,0.732 0.447,0.437 0.898,0.28 1.017,0.752 1.596,1.646 1.774,1.762 0.535,0.938 0.796,1.268 1.08,1.866 0.738,1.327 1.267,2.269 0.333,0.565 0.005,0.545 L 9.401,42.413 9.268,42.448 8.63,41.638 7.181,39.255 6.12,37.664 5.638,36.932 5.472,36.824 5.319,36.858 5.235,37.055 5.3,37.6 5.383,38.096 5.148,38.921 5.01,40.375 4.682,42.128 4.549,42.31 4.382,42.354 4.249,42.221 c 0.02,-2.006 -0.038,-4.03 0.137,-6.006 L 4.74,35.733 4.621,35.35 3.512,33.788 2.333,32.021 l -1.36,-1.292 -1.135,-0.635 -0.958,-0.24 -0.191,0.078 -0.079,0.197 0.236,0.604 -0.094,1.027 -0.039,1.414 -0.03,0.689 -0.348,0.736 -0.128,0.044 -0.118,-0.123 -0.216,-0.987 -0.029,-2.918 -0.255,-1.223 -0.202,-0.422 -0.113,-0.098 -0.068,0.069 0.048,0.726 v 1.479 L -3.08,32.899 -3.213,33.042 -3.374,33.027 -3.507,32.874 -3.605,32.359 -3.63,30.615 -3.753,29.854 -3.807,29.025 -4.018,27.762 -4.302,26.867 -5.514,25.2 c -0.426,0.051 -0.875,0.076 -1.376,0.046 -0.501,-0.031 -1.001,-0.122 -1.493,-0.224 -0.952,-0.197 -1.898,-0.423 -3.017,-0.675 0.313,0.912 0.499,1.812 0.614,2.704 l 0.594,0.401 1.252,1.106 c 4.446,4.957 9.504,10.778 10.473,17.584 L 1.518,46.333 1.38,46.481 1.13,46.524 0.884,46.455 0.732,46.299 0.314,44.761 0.241,44.142 -0.427,42.148 -1.734,40.213 -2.451,38.867 -3.217,37.57 c -1.905,-2.441 -3.747,-5.793 -6.12,-7.73 l -0.487,-0.694 -0.785,-0.687 -0.05,-0.027 c 0.064,1.31 -0.003,2.603 -0.077,3.892 l 0.309,0.963 0.609,1.454 c 1.427,3.836 3.054,7.664 4.405,11.523 l -0.02,0.202 -0.137,0.137 -0.211,0.03 -0.197,-0.089 -0.323,-0.584 -1.631,-3.969 -0.265,-0.618 -0.359,-0.821 -0.29,-0.3 -1.056,-0.418 -1.071,-0.697 -1.576,-0.801 -0.133,0.02 -0.034,0.148 c 1.201,2.699 3.013,5.366 4.465,7.951 l -0.025,0.137 -0.182,0.069 -0.482,-0.117 -0.264,-0.333 -1.155,-2.088 -2.23,-3.664 -1.284,-2.171 c -0.031,0.011 -0.06,0.026 -0.091,0.036 -2.853,0.857 -5.637,0.288 -8.413,-0.603 -0.13,0.889 -0.236,1.711 -0.363,2.518 l 0.686,0.548 3.905,3.169 0.968,0.8 1.709,1.267 0.122,0.148 0.011,0.128 -0.349,0.196 -0.413,0.078 -0.349,-0.181 -0.815,-0.669 -0.992,-0.776 -0.565,-0.319 -0.604,-0.574 -2.706,-2.009 -0.742,-0.732 -0.045,-0.033 c -0.36,1.684 -1.096,3.199 -2.348,4.417 -0.149,0.146 -0.367,0.236 -0.658,0.348 l 0.059,0.023 0.36,0.373 -0.477,0.078 -0.541,-0.083 -0.146,-0.09 c -0.01,0.005 -0.017,0.007 -0.027,0.011 0.003,-0.008 0.004,-0.015 0.006,-0.024 l -0.927,-0.57 -0.831,-0.643 -1.857,-1.09 -0.82,-0.655 -1.169,-0.613 -0.089,-0.133 0.084,-0.299 -0.044,-0.044 -0.315,0.137 -0.162,-0.014 -0.835,-0.629 -1.429,-0.929 -1.056,-0.711 -3.306,-2.294 -1.262,-0.801 -0.965,-0.79 c 0.031,0.111 0.064,0.219 0.097,0.325 0.227,0.727 0.518,1.418 0.848,2.088 l 0.093,0.071 c 3.298,2.059 6.286,4.317 9.589,6.327 l 1.851,1.346 -0.073,0.069 -0.541,0.024 -0.467,-0.147 -3.197,-2.108 -0.525,-0.358 -0.575,-0.31 -0.702,-0.476 -4.662,-3.001 -0.01,-0.006 c 0.474,0.791 0.992,1.556 1.527,2.311 l 0.006,0.003 c 1.914,1.337 3.913,2.533 5.81,3.92 l 0.025,0.128 -0.118,0.093 -0.172,0.01 -0.697,-0.452 -0.707,-0.177 -2.097,-1.144 -0.25,-0.175 c 0.688,0.672 1.472,1.24 2.419,1.611 0.07,0.028 0.089,0.186 0.163,0.353 -0.428,0.511 -0.984,0.684 -1.6,0.398 -0.706,-0.326 -1.436,-0.66 -2.038,-1.138 -1.599,-1.27 -2.924,-2.792 -4.026,-4.505 l -0.75,-0.484 -0.683,-0.411 c -0.342,0.888 -0.639,1.68 -0.982,2.447 -0.099,0.221 -0.209,0.435 -0.312,0.652 l 0.11,0.063 1.877,1.07 2.397,1.434 0.541,0.3 -0.069,0.069 -0.86,0.02 -0.647,-0.235 -2.098,-1.144 -1.567,-0.918 c -0.7,1.365 -1.528,2.651 -2.608,3.766 -0.404,0.417 -0.814,1.038 -1.483,0.804 0.414,-0.8 0.841,-1.574 1.258,-2.345 l -0.277,-0.169 -0.795,-0.972 -0.423,-0.462 -1.09,-1.562 -2.765,-3.718 -1.322,-0.742 -1.262,-0.8 c -2.158,-1.177 -4.253,-2.402 -6.351,-3.67 l -0.595,-0.289 -0.55,-0.334 -0.407,-0.182 -0.451,-0.432 -0.787,-0.408 -0.142,-0.142 -0.064,-0.187 0.123,-0.432 0.132,-0.103 0.349,0.162 0.727,0.476 0.992,0.482 0.683,0.496 1.861,1.085 0.801,0.379 0.526,0.357 1.911,1.037 0.741,0.438 0.53,0.393 0.207,0.068 0.162,-0.048 0.03,-0.143 -0.589,-0.904 -0.463,-0.423 -0.319,-0.564 -0.505,-0.673 -0.974,-1.385 -0.569,-0.609 -2.299,-3.006 -1.385,-1.857 -1.124,-1.528 -0.884,-1.178 -0.743,-1.027 -0.128,-0.486 0.021,-0.259 c -0.265,0.009 -0.575,-0.028 -0.996,-0.028 0.596,-0.937 0.318,-1.787 0.33,-2.625 0.022,-1.395 0.078,-2.793 0.024,-4.185 -0.02,-0.512 -0.184,-1.074 -0.453,-1.511 l -2.391,0.431 -0.01,-0.594 2.208,-0.161 c -0.622,-1.037 -0.507,-1.462 0.731,-1.931 1.198,-0.453 2.444,-0.844 3.704,-1.06 3.581,-0.614 7.146,-0.104 10.722,0.238 4.445,0.424 7.987,2.403 10.835,5.756 0.545,0.641 1.061,1.307 1.631,1.923 1.395,1.513 3.054,2.312 5.196,2.283 2.716,-0.038 5.372,-0.418 7.978,-1.088 3.104,-0.798 5.5,-2.564 6.454,-5.762 0.475,-1.595 0.841,-3.271 0.923,-4.927 0.281,-5.651 0.459,-11.308 0.587,-16.966 0.107,-4.712 0.069,-9.427 0.129,-14.141 0.082,-6.514 -0.162,-13.013 -0.791,-19.498 -0.326,-3.359 -1.936,-5.798 -5.138,-7.065 -1.25,-0.494 -2.494,-1.017 -3.779,-1.407 -1.768,-0.539 -2.841,-1.697 -3.431,-3.398 -0.275,-0.793 -0.631,-1.559 -0.906,-2.351 -0.421,-1.218 -1.345,-1.775 -2.536,-1.892 -0.946,-0.093 -1.907,-0.084 -2.858,-0.048 -2.183,0.081 -4.363,0.26 -6.546,0.302 -4.263,0.082 -8.528,0.166 -12.79,0.116 -3.306,-0.039 -6.61,-0.27 -9.913,-0.442 -0.398,-0.02 -0.787,-0.205 -1.172,-0.311 0.053,-0.247 0.087,-0.485 0.119,-0.714 l -2.575,0.008 2.596,-0.162 c 0.068,-0.497 0.136,-0.938 0.37,-1.246 0.357,-0.472 1.121,-0.636 1.756,-0.96 -1.1,-0.838 -3.098,-0.623 -3.201,-2.617 0.655,-0.578 1.23,-0.289 1.79,-0.046 0.588,0.254 1.179,0.475 1.77,0.675 l 0.001,-0.003 0.211,-0.099 1.454,-0.025 8.276,0.05 0.648,0.029 0.212,-0.064 0.118,-0.127 -0.251,-1.164 -0.102,-0.191 -0.193,-0.103 -1.263,-0.095 c -1.781,0.209 -3.571,0.059 -5.347,0.232 l -3.267,0.015 -0.256,-0.045 -0.156,-0.157 -0.05,-0.261 0.05,-0.26 0.156,-0.157 1.16,-0.024 0.86,-0.04 0.446,-0.069 0.752,0.114 6.463,-0.03 0.565,-0.319 0.133,-0.163 0.227,-1.277 -0.031,-0.235 -0.088,-0.118 -0.59,-0.118 -0.348,-0.182 c -2.904,0.147 -6.502,0.166 -9.45,0.138 l -0.114,-0.108 -0.039,-0.241 0.049,-0.26 0.153,-0.163 1.817,-0.073 1.7,0.049 7.067,-0.005 0.438,-0.153 0.275,-0.314 0.034,-0.854 -0.172,-0.422 -0.177,-0.118 -1.129,-0.049 c -3.291,-0.129 -6.563,-0.075 -9.843,0.132 l -0.158,-0.157 -0.058,-0.27 0.019,-0.295 0.099,-0.211 0.205,-0.093 1.184,-0.005 0.625,-0.02 4.68,0.02 0.624,-0.02 3.507,0.035 0.447,-0.143 c 0.808,-1.369 1.568,-2.023 3.109,-1.056 l 0.394,0.196 0.716,0.762 0.373,0.211 1.365,0.007 c -1.132,-0.72 -2.295,-1.363 -3.492,-1.928 h -4.562 l -7.638,0.035 -1.355,0.118 -0.178,-0.059 -0.048,-0.099 c -1.131,0.41 -2.259,0.82 -3.4,1.233 0.664,-2.446 5.041,-4.137 7.437,-2.698 -0.575,0.208 -1.135,0.412 -1.702,0.617 l 2.497,0.008 c 1.752,-0.125 3.58,-0.096 5.33,-0.034 l 1.509,-0.001 c -1.877,-0.688 -3.841,-1.159 -5.928,-1.313 -0.162,-0.012 -0.327,-0.061 -0.522,-0.124 l -1.749,0.029 -2.927,-0.025 -0.535,-0.064 -0.159,-0.162 -0.049,-0.226 0.084,-0.201 0.211,-0.099 4.735,0.011 0.782,-0.084 0.682,0.078 0.206,0.001 c 0.857,-0.179 1.719,-0.169 2.733,0.002 l 4.439,0.003 c 5.331,-0.14 10.694,-0.084 16.061,-0.138 l 1.5,-0.007 c 2.266,-0.411 4.607,-0.4 7.036,0.036 l 0.467,0.059 0.457,-0.063 c 3.205,0.062 6.772,-0.085 9.957,-0.005 l 0.623,-0.02 6.214,0.02 c 4.572,0.226 9.142,-0.195 13.703,0.083 l 0.89,0.029 0.299,0.083 -0.147,0.065 -1.97,0.403 c -2.26,-0.092 -4.567,-0.105 -6.828,-0.015 l -0.51,0.049 -0.487,-0.113 c -6.303,0.045 -12.586,-0.032 -18.905,0.01 l -0.692,0.074 -0.715,-0.103 c 1.104,0.341 1.809,0.885 2.279,1.64 h 0.057 l 0.633,0.019 1.012,0.109 c 2.413,-0.158 4.923,0.031 7.377,-0.006 l 1.037,-0.141 0.747,0.127 0.893,-0.025 9.402,0.034 2.122,-0.058 1.139,0.058 0.206,0.094 0.055,0.167 -0.109,0.172 -0.206,0.113 -0.845,0.049 -1.13,0.054 c -6.46,0.132 -12.831,-0.113 -19.288,0.138 l -2.397,-0.084 -0.297,0.01 c 0.07,0.186 0.134,0.382 0.19,0.588 0.134,0.49 0.225,0.995 0.298,1.503 l 0.075,-0.003 1.998,0.043 2.033,0.045 1.126,0.059 h 10.024 l 0.713,-0.108 0.751,0.113 1.768,-0.02 0.482,-0.098 0.23,0.015 0.182,0.088 0.059,0.123 -0.093,0.132 -0.433,0.153 c -1.815,0.399 -5.696,-0.043 -7.642,0.319 l -1.027,-0.133 -3.216,0.04 c -1.796,0.097 -3.666,-0.109 -5.477,0.113 l -0.757,-0.138 -0.692,0.098 c 0.005,0.045 0.012,0.091 0.017,0.136 0.054,0.6 0.056,1.193 0.027,1.783 l 0.039,0.007 0.766,-0.123 9.146,0.005 0.683,-0.079 0.78,0.083 4.156,-0.019 0.26,0.05 0.142,0.142 -0.014,0.196 -0.156,0.158 -1.873,0.21 -4.125,-0.019 -0.624,-0.02 -9.224,0.044 c -0.034,0.362 -0.085,0.722 -0.144,1.083 l 0.046,0.007 0.594,0.296 c 2.679,-0.165 3.436,-0.555 6.154,0.314 l 0.359,-0.108 0.467,-0.138 1.748,0.039 0.486,0.113 0.958,-0.083 1.709,0.049 0.806,0.099 0.186,0.113 0.094,0.161 -0.01,0.125 c 0.455,0.075 0.909,0.158 1.356,0.254 1.215,0.263 1.888,0.609 2.185,1.212 l 0.182,-0.048 c 3.517,-0.218 8.833,2.44 9.563,6.105 l -0.058,0.157 -0.133,0.035 c -2.227,-2.339 -6.459,-3.081 -9.509,-2.009 l -0.765,0.361 c -0.158,0.41 -0.331,0.811 -0.519,1.207 l 0.311,0.927 0.25,1.222 0.87,1.49 1.675,2.155 1.753,1.528 0.069,0.143 -0.059,0.058 -0.585,-0.25 c -1.318,-0.964 -2.799,-1.796 -4.135,-2.663 l -0.148,-0.034 -0.103,0.109 -0.015,0.191 c 1.132,1.915 2.235,3.828 3.463,5.688 l 0.654,1.115 0.476,0.407 0.226,0.364 0.433,0.157 0.643,0.24 1.689,0.669 0.418,0.171 1.852,1.096 1.409,1.242 0.658,0.816 0.9,0.909 0.058,0.152 -0.069,0.069 -0.569,-0.266 -0.894,-0.584 -1.43,-0.633 -1.198,-0.109 -0.727,0.138 -0.196,0.107 -0.132,0.167 -0.05,0.222 0.133,0.457 1.066,1.89 c 1.571,2.867 3.736,6.417 5.481,8.96 l 0.363,1.125 -0.015,0.132 -0.216,-0.172 -3.069,-4.631 -0.766,-1.297 -0.478,-0.703 -0.519,-0.953 -0.487,-0.692 -0.28,-0.604 -0.702,-1.067 -0.325,-0.559 -0.515,-0.663 -0.653,-1.115 -0.281,-0.31 -0.496,-0.093 -1.208,-0.265 -1.933,-0.572 c 0.122,0.461 0.23,0.926 0.324,1.394 l 0.932,1.329 1.021,1.336 c 1.518,2.174 3.422,4.441 4.892,6.602 l 0.678,0.796 0.466,0.712 c 1.261,1.508 2.405,3.103 3.606,4.666 l 0.044,0.481 -0.099,0.098 -0.589,-0.545 c -3.498,-4.073 -6.357,-8.256 -9.647,-12.456 l -1.04,-1.436 c 0.103,0.785 0.182,1.579 0.209,2.386 0.032,0.937 0.05,1.875 0.018,2.81 l 1.905,2.517 1.919,2.5 0.792,0.978 0.613,0.859 1.174,1.478 1.071,1.288 0.992,1.365 1.071,1.287 1.276,1.709 0.049,0.226 -0.049,0.162 -0.121,0.005 C 5.761,-23.58 2.181,-28.014 -0.982,-32.446 l -0.417,-0.519 c -0.076,1.002 -0.228,1.998 -0.518,2.98 -0.021,0.07 -0.06,0.139 -0.108,0.211 l 0.306,0.422 c 2.586,4.058 5.459,7.674 7.991,11.778 l 0.075,0.393 -0.129,0.122 -0.491,0.026 -2.524,0.078 -0.909,0.092 -0.658,-0.048 -0.645,0.034 c -0.147,0.958 -0.459,1.825 -0.951,2.585 l 0.633,0.82 0.698,1.07 0.545,0.634 1.92,2.795 0.55,0.628 0.776,1.012 0.064,0.226 L 5.192,-6.891 5.045,-6.743 4.818,-6.699 2.122,-7.083 0.054,-7.24 -0.948,-7.431 h -0.557 c 0.164,0.682 0.301,1.368 0.424,2.055 l 0.688,0.926 1.395,1.846 0.86,1.205 1.046,1.345 L 2.987,0.143 2.942,0.296 1.994,0.531 1.577,0.629 1.159,0.594 -0.02,0.865 -0.226,0.968 -0.344,1.15 -0.348,1.376 -0.113,1.749 0.639,2.77 3.05,5.959 3.222,6.377 4.238,7.422 5.354,8.96 l 1.572,1.964 0.491,0.688 1.238,1.709 0.668,0.806 0.432,0.781 0.02,0.378 -0.109,-0.01 C 6.199,11.43 3.027,6.847 -0.246,2.77 L -0.66,2.301 C -0.663,2.346 -0.663,2.39 -0.667,2.434 -0.725,3.165 -0.796,3.892 -0.913,4.595 l 0.009,0.013 z" fill="#181716" transform="matrix(1.33333 0 0 -1.33333 82.948 57.615)"/><path style="mix-blend-mode:multiply" d="M 0,0 C 0.337,0.184 0.571,0.244 0.701,0.393 3.523,3.63 5.023,7.684 7.389,11.348 9.293,10.9 10.482,9.757 11.343,8.25 13.246,4.919 12.966,1.496 11.739,-1.973 11.375,-3 10.8,-3.574 9.704,-3.916 5.316,-5.286 1.758,-7.967 -1.352,-11.284 c -0.215,-0.229 -0.268,-0.611 -0.396,-0.922 0.087,-0.075 0.175,-0.148 0.263,-0.223 0.593,0.387 1.191,0.767 1.779,1.161 1.812,1.216 3.531,2.606 5.448,3.623 4.23,2.244 8.652,3.626 13.577,1.838 -0.081,0.933 -0.575,1.521 -1.147,1.87 -0.639,0.392 -1.535,0.409 -2.238,0.712 3.485,7.937 3,16.02 1.79,24.269 1.638,0.495 3.299,0.167 4.96,-0.393 0.478,-0.162 0.96,-0.695 1.52,-0.132 0,0.117 0.031,0.237 -0.007,0.33 -0.061,0.152 -0.136,0.32 -0.257,0.421 -1.8,1.532 -4.187,2.558 -6.432,2.013 C 13.965,22.422 10.833,20.636 8.678,17.546 5.075,12.381 2.626,6.531 -0.051,0.862 -0.142,0.673 -0.029,0.387 0,0" fill="#181716" transform="matrix(1.33333 0 0 -1.33333 16.71 83.261)"/><path style="mix-blend-mode:multiply" d="m 0,0 c 0.119,-0.252 0.598,-0.378 0.942,-0.458 0.182,-0.042 0.413,0.135 0.622,0.213 3.294,1.218 6.717,1.681 10.21,1.816 5.018,0.193 9.954,-0.382 14.858,-1.388 1.442,-0.296 2.515,-1.018 3.009,-2.384 0.417,-1.153 1.245,-1.501 2.324,-1.571 0.56,-0.036 1.119,-0.077 1.679,-0.098 1.147,-0.04 2.214,-0.288 3.124,-1.047 0.193,-0.161 0.473,-0.216 0.892,-0.397 -0.045,0.476 0.101,1.203 -0.039,1.44 -0.529,0.901 -1.304,1.558 -2.337,1.788 -1.405,0.313 -2.827,0.552 -4.32,0.836 -0.322,1.722 -1.446,2.752 -3.187,3.185 -1.244,0.309 -2.461,0.767 -3.721,0.966 -2.377,0.375 -4.77,0.717 -7.169,0.883 C 11.817,4.136 6.805,3.731 1.927,2.198 1.348,2.016 0.758,1.761 0.286,1.394 0.065,1.223 -0.126,0.264 0,0" fill="#181716" transform="matrix(1.33333 0 0 -1.33333 -6.69 111.266)"/><path style="mix-blend-mode:multiply" d="m 0,0 c 0.305,-2.638 -0.529,-4.689 -2.665,-6.22 -0.144,0.034 -0.303,0.063 -0.458,0.109 -0.428,0.129 -0.976,0.358 -1.104,-0.247 -0.058,-0.278 0.324,-0.8 0.638,-0.978 1.236,-0.694 2.524,-1.295 3.792,-1.931 0.011,0.564 -0.177,0.923 -0.432,1.224 -0.277,0.326 -0.33,0.495 -0.713,0.858 2.393,1.774 3.125,4.166 2.707,6.938 2.021,0.223 3.392,0.325 5.274,0.533 0.566,-4.217 3.018,-6.754 4.924,-5.787 -1.958,1.836 -3.238,3.852 -2.739,6.469 0.48,0.583 1.484,0.665 1.192,1.832 C 5.578,2.15 0.738,1.029 -4.109,2.693 -4.143,1.235 -4.137,1.231 0,0" fill="#181716" transform="matrix(1.33333 0 0 -1.33333 2.084 87.321)"/><path style="mix-blend-mode:multiply" d="M 0,0 C 1.107,-0.042 2.122,0.822 2.194,1.867 2.271,3 1.384,3.847 0.037,3.927 -1.052,3.991 -2.186,2.956 -2.201,1.886 -2.214,0.948 -1.158,0.044 0,0" fill="#181716" transform="matrix(1.33333 0 0 -1.33333 19.085 92.108)"/><path style="mix-blend-mode:multiply" d="M 0,0 C 0.016,-1.024 0.973,-1.967 2.069,-2.041 3.098,-2.11 3.889,-1.277 3.907,-0.108 3.924,1.003 3.186,1.731 2.016,1.758 0.862,1.784 -0.016,1.019 0,0" fill="#181716" transform="matrix(1.33333 0 0 -1.33333 -5.162 91.158)"/><path style="mix-blend-mode:multiply" d="m 0,0 c 0.032,-0.298 0.347,-0.565 0.464,-0.742 0.827,-0.011 1.673,0.648 1.59,1.18 C 2.012,0.702 1.626,1.056 1.347,1.109 0.673,1.236 -0.065,0.617 0,0" fill="#181716" transform="matrix(1.33333 0 0 -1.33333 23.214 103.593)"/><path style="mix-blend-mode:multiply" d="M 0,0 C 0.055,-0.283 0.511,-0.741 0.69,-0.7 1.257,-0.695 1.957,-0.448 1.974,0.175 1.932,0.755 1.409,1.105 1.027,1.251 0.593,1.416 -0.112,0.581 0,0" fill="#181716" transform="matrix(1.33333 0 0 -1.33333 20.776 126.263)"/><path style="mix-blend-mode:multiply" d="M 0,0 C 0.427,0.094 0.776,0.537 0.983,0.692 1.053,1.601 0.696,1.825 0.206,1.809 -0.361,1.792 -0.692,1.458 -0.706,0.866 -0.717,0.37 -0.516,-0.114 0,0" fill="#181716" transform="matrix(1.33333 0 0 -1.33333 9.766 67.47)"/><path style="mix-blend-mode:multiply" d="M 0,0 C 0.263,0.468 -0.709,1.337 -0.99,1.162 -1.232,0.852 -1.608,0.571 -1.685,0.223 -1.792,-0.267 -1.644,-0.873 -0.994,-0.851 -0.706,-0.841 -0.433,-0.389 0,0" fill="#181716" transform="matrix(1.33333 0 0 -1.33333 4.365 59.595)"/><path style="mix-blend-mode:multiply" d="m 0,0 c -0.434,-0.72 -0.268,-1.276 0.214,-1.72 0.158,-0.145 0.545,-0.209 0.723,-0.115 0.186,0.099 0.371,0.451 0.34,0.661 C 1.182,-0.532 0.808,-0.093 0,0" fill="#181716" transform="matrix(1.33333 0 0 -1.33333 49.157 37.503)"/><path style="mix-blend-mode:multiply" d="M 0,0 C -0.334,-0.046 -0.789,-0.432 -0.879,-0.757 -1.025,-1.284 -0.55,-1.614 -0.07,-1.549 0.294,-1.5 1.271,-1.265 1.223,-0.795 1.117,-0.216 0.294,0.04 0,0" fill="#181716" transform="matrix(1.33333 0 0 -1.33333 5.2 119.547)"/><path style="mix-blend-mode:multiply" d="M 0,0 C 0.133,-0.308 0.829,-0.238 1.096,-0.082 1.693,0.268 1.691,1.056 1.33,1.356 0.54,1.516 -0.174,0.741 0,0" fill="#181716" transform="matrix(1.33333 0 0 -1.33333 44.965 106.52)"/><path style="mix-blend-mode:multiply" d="M 0,0 C 0.066,-0.206 0.394,-0.483 0.582,-0.468 1.442,-0.397 1.644,0.197 1.543,0.957 1.537,1.007 1.489,1.051 1.382,1.227 0.36,1.024 -0.182,0.563 0,0" fill="#181716" transform="matrix(1.33333 0 0 -1.33333 49.071 70.486)"/><path style="mix-blend-mode:multiply" d="m 0,0 c -0.032,0.241 -0.122,0.658 -0.633,0.874 -0.666,0.117 -1.151,-1.29 -1.003,-1.384 0.25,-0.157 0.517,-0.467 0.745,-0.44 C -0.393,-0.893 0.082,-0.613 0,0" fill="#181716" transform="matrix(1.33333 0 0 -1.33333 20.159 51.253)"/><path style="mix-blend-mode:multiply" d="M 0,0 C 0.601,0.082 0.475,0.61 0.308,1.034 0.104,1.551 -0.232,1.845 -0.942,1.568 -0.965,1.257 -1.132,0.808 -0.978,0.562 -0.795,0.27 -0.309,-0.042 0,0" fill="#181716" transform="matrix(1.33333 0 0 -1.33333 54.771 86.277)"/><path style="mix-blend-mode:multiply" d="M 0,0 C 0.029,-0.148 0.57,-0.348 0.794,-0.276 1.519,-0.043 1.438,0.46 1.07,1.012 0.389,0.991 -0.16,0.814 0,0" fill="#181716" transform="matrix(1.33333 0 0 -1.33333 31.044 124.139)"/><path style="mix-blend-mode:multiply" d="M 0,0 C 0.051,0.589 -0.741,0.87 -1.079,0.604 -1.197,0.51 -1.561,0.307 -1.586,0.025 -1.389,-0.184 -1.256,-0.368 -1.022,-0.423 -0.798,-0.476 -0.079,-0.348 0,0" fill="#181716" transform="matrix(1.33333 0 0 -1.33333 31.73 47.17)"/></g><path style="mix-blend-mode:multiply" d="M 0,0 H 67.294 V 116.026 H 0 Z" fill="none" stroke="#181716" stroke-width="1.605" stroke-miterlimit="10" transform="matrix(1.33333 0 0 -1.33333 1.07 155.771)"/></svg>